<?xml version="1.0" encoding="utf-8" standalone="no"?>
<!DOCTYPE svg PUBLIC "-//W3C//DTD SVG 1.1//EN"
  "http://www.w3.org/Graphics/SVG/1.1/DTD/svg11.dtd">
<svg xmlns:xlink="http://www.w3.org/1999/xlink" width="554.856pt" height="428.4pt" viewBox="0 0 554.856 428.4" xmlns="http://www.w3.org/2000/svg" version="1.1">
 <metadata>
  <rdf:RDF xmlns:dc="http://purl.org/dc/elements/1.1/" xmlns:cc="http://creativecommons.org/ns#" xmlns:rdf="http://www.w3.org/1999/02/22-rdf-syntax-ns#">
   <cc:Work>
    <dc:type rdf:resource="http://purl.org/dc/dcmitype/StillImage"/>
    <dc:date>2025-03-25T17:47:24.322304</dc:date>
    <dc:format>image/svg+xml</dc:format>
    <dc:creator>
     <cc:Agent>
      <dc:title>Matplotlib v3.9.2, https://matplotlib.org/</dc:title>
     </cc:Agent>
    </dc:creator>
   </cc:Work>
  </rdf:RDF>
 </metadata>
 <defs>
  <style type="text/css">*{stroke-linejoin: round; stroke-linecap: butt}</style>
 </defs>
 <g id="figure_1">
  <g id="patch_1">
   <path d="M 0 428.4 
L 554.856 428.4 
L 554.856 0 
L 0 0 
z
" style="fill: #ffffff"/>
  </g>
  <g id="axes_1">
   <g id="patch_2">
    <path d="M 46.152 166.68 
C 50.925656 166.68 55.504438 164.783406 58.879922 161.407922 
C 62.255406 158.032438 64.152 153.453656 64.152 148.68 
C 64.152 143.906344 62.255406 139.327562 58.879922 135.952078 
C 55.504438 132.576594 50.925656 130.68 46.152 130.68 
C 41.378344 130.68 36.799562 132.576594 33.424078 135.952078 
C 30.048594 139.327562 28.152 143.906344 28.152 148.68 
C 28.152 153.453656 30.048594 158.032438 33.424078 161.407922 
C 36.799562 164.783406 41.378344 166.68 46.152 166.68 
L 46.152 166.68 
z
" clip-path="url(#p73487d220c)" style="fill: none; stroke: #000000; stroke-width: 2; stroke-linejoin: miter"/>
   </g>
   <g id="line2d_1">
    <path d="M 46.152 112.68 
L 46.152 130.68 
L 46.152 130.68 
M 46.152 166.68 
L 46.152 166.68 
L 46.152 184.68 
" clip-path="url(#p73487d220c)" style="fill: none; stroke: #000000; stroke-width: 2; stroke-linecap: round"/>
   </g>
   <g id="line2d_2">
    <path d="M 49.752 157.68 
L 42.552 157.68 
" clip-path="url(#p73487d220c)" style="fill: none; stroke: #000000; stroke-width: 2; stroke-linecap: round"/>
   </g>
   <g id="line2d_3">
    <path d="M 46.152 136.08 
L 46.152 143.28 
" clip-path="url(#p73487d220c)" style="fill: none; stroke: #000000; stroke-width: 2; stroke-linecap: round"/>
   </g>
   <g id="line2d_4">
    <path d="M 49.752 139.68 
L 42.552 139.68 
" clip-path="url(#p73487d220c)" style="fill: none; stroke: #000000; stroke-width: 2; stroke-linecap: round"/>
   </g>
   <g id="line2d_5">
    <path d="M 46.152 184.68 
L 46.152 199.08 
L 37.152 199.08 
L 55.152 199.08 
M 39.852 203.4 
L 52.452 203.4 
M 44.352 207.72 
L 47.952 207.72 
" clip-path="url(#p73487d220c)" style="fill: none; stroke: #000000; stroke-width: 2; stroke-linecap: round"/>
   </g>
   <g id="line2d_6">
    <path d="M 46.152 112.68 
L 64.152 112.68 
L 67.152 103.68 
L 73.152 121.68 
L 79.152 103.68 
L 85.152 121.68 
L 91.152 103.68 
L 97.152 121.68 
L 100.152 112.68 
L 118.152 112.68 
" clip-path="url(#p73487d220c)" style="fill: none; stroke: #000000; stroke-width: 2; stroke-linecap: round"/>
   </g>
   <g id="line2d_7">
    <path d="M 118.152 112.68 
L 127.152 112.68 
L 136.152 112.68 
" clip-path="url(#p73487d220c)" style="fill: none; stroke: #000000; stroke-width: 2; stroke-linecap: round"/>
   </g>
   <g id="line2d_8">
    <path d="M 136.152 112.68 
L 145.152 112.68 
L 154.152 112.68 
" clip-path="url(#p73487d220c)" style="fill: none; stroke: #000000; stroke-width: 2; stroke-linecap: round"/>
   </g>
   <g id="line2d_9">
    <path d="M 154.152 112.68 
L 154.152 58.68 
L 154.152 4.68 
" clip-path="url(#p73487d220c)" style="fill: none; stroke: #add8e6; stroke-width: 2; stroke-linecap: round"/>
   </g>
   <g id="line2d_10">
    <path d="M 154.152 112.68 
L 163.152 112.68 
L 172.152 112.68 
" clip-path="url(#p73487d220c)" style="fill: none; stroke: #000000; stroke-width: 2; stroke-linecap: round"/>
   </g>
   <g id="line2d_11">
    <path d="M 172.152 112.68 
L 172.152 130.68 
L 181.152 133.68 
L 163.152 139.68 
L 181.152 145.68 
L 163.152 151.68 
L 181.152 157.68 
L 163.152 163.68 
L 172.152 166.68 
L 172.152 184.68 
" clip-path="url(#p73487d220c)" style="fill: none; stroke: #000000; stroke-width: 2; stroke-linecap: round"/>
   </g>
   <g id="line2d_12">
    <path d="M 172.152 184.68 
L 163.152 184.68 
L 154.152 184.68 
" clip-path="url(#p73487d220c)" style="fill: none; stroke: #000000; stroke-width: 2; stroke-linecap: round"/>
   </g>
   <g id="line2d_13">
    <path d="M 154.152 184.68 
L 145.152 184.68 
L 136.152 184.68 
" clip-path="url(#p73487d220c)" style="fill: none; stroke: #000000; stroke-width: 2; stroke-linecap: round"/>
   </g>
   <g id="line2d_14">
    <path d="M 154.152 184.68 
L 154.152 238.68 
L 154.152 292.68 
" clip-path="url(#p73487d220c)" style="fill: none; stroke: #add8e6; stroke-width: 2; stroke-linecap: round"/>
   </g>
   <g id="line2d_15">
    <path d="M 154.152 184.68 
L 154.152 148.68 
L 154.152 112.68 
" clip-path="url(#p73487d220c)" style="fill: none; stroke: #add8e6; stroke-width: 2; stroke-linecap: round"/>
   </g>
   <g id="line2d_16">
    <path d="M 136.152 184.68 
L 136.152 256.68 
L 136.152 328.68 
" clip-path="url(#p73487d220c)" style="fill: none; stroke: #000000; stroke-width: 2; stroke-linecap: round"/>
   </g>
   <g id="line2d_17">
    <path d="M 136.152 328.68 
L 136.152 346.68 
L 145.152 349.68 
L 127.152 355.68 
L 145.152 361.68 
L 127.152 367.68 
L 145.152 373.68 
L 127.152 379.68 
L 136.152 382.68 
L 136.152 400.68 
" clip-path="url(#p73487d220c)" style="fill: none; stroke: #000000; stroke-width: 2; stroke-linecap: round"/>
   </g>
   <g id="line2d_18">
    <path d="M 136.152 400.68 
L 136.152 415.08 
L 127.152 415.08 
L 145.152 415.08 
M 129.852 419.4 
L 142.452 419.4 
M 134.352 423.72 
L 137.952 423.72 
" clip-path="url(#p73487d220c)" style="fill: none; stroke: #000000; stroke-width: 2; stroke-linecap: round"/>
   </g>
   <g id="line2d_19">
    <path d="M 136.152 328.68 
L 190.152 328.68 
L 244.152 328.68 
" clip-path="url(#p73487d220c)" style="fill: none; stroke: #000000; stroke-width: 2; stroke-linecap: round"/>
   </g>
   <g id="line2d_20">
    <path d="M 244.152 328.68 
L 262.152 328.68 
L 265.152 319.68 
L 271.152 337.68 
L 277.152 319.68 
L 283.152 337.68 
L 289.152 319.68 
L 295.152 337.68 
L 298.152 328.68 
L 316.152 328.68 
" clip-path="url(#p73487d220c)" style="fill: none; stroke: #000000; stroke-width: 2; stroke-linecap: round"/>
   </g>
   <g id="line2d_21">
    <path d="M 316.152 328.68 
L 370.152 328.68 
L 424.152 328.68 
" clip-path="url(#p73487d220c)" style="fill: none; stroke: #000000; stroke-width: 2; stroke-linecap: round"/>
   </g>
   <g id="line2d_22">
    <path d="M 424.152 328.68 
L 433.152 328.68 
L 442.152 328.68 
" clip-path="url(#p73487d220c)" style="fill: none; stroke: #000000; stroke-width: 2; stroke-linecap: round"/>
   </g>
   <g id="line2d_23">
    <path d="M 442.152 328.68 
L 442.152 238.68 
L 442.152 148.68 
" clip-path="url(#p73487d220c)" style="fill: none; stroke: #000000; stroke-width: 2; stroke-linecap: round"/>
   </g>
   <g id="line2d_24">
    <path d="M 442.152 148.68 
L 433.152 148.68 
L 424.152 148.68 
" clip-path="url(#p73487d220c)" style="fill: none; stroke: #000000; stroke-width: 2; stroke-linecap: round"/>
   </g>
   <g id="line2d_25">
    <path d="M 424.152 148.68 
L 388.152 148.68 
L 352.152 148.68 
" clip-path="url(#p73487d220c)" style="fill: none; stroke: #000000; stroke-width: 2; stroke-linecap: round"/>
   </g>
   <g id="line2d_26">
    <path d="M 352.152 148.68 
L 334.152 148.68 
L 331.152 157.68 
L 325.152 139.68 
L 319.152 157.68 
L 313.152 139.68 
L 307.152 157.68 
L 301.152 139.68 
L 298.152 148.68 
L 280.152 148.68 
" clip-path="url(#p73487d220c)" style="fill: none; stroke: #000000; stroke-width: 2; stroke-linecap: round"/>
   </g>
   <g id="line2d_27">
    <path d="M 280.152 148.68 
L 253.152 148.68 
L 226.152 148.68 
" clip-path="url(#p73487d220c)" style="fill: none; stroke: #000000; stroke-width: 2; stroke-linecap: round"/>
   </g>
   <g id="line2d_28">
    <path d="M 226.152 148.68 
L 226.152 166.68 
M 226.152 202.68 
L 208.152 184.68 
L 226.152 166.68 
L 244.152 184.68 
L 226.152 202.68 
L 226.152 220.68 
" clip-path="url(#p73487d220c)" style="fill: none; stroke: #000000; stroke-width: 2; stroke-linecap: round"/>
   </g>
   <g id="line2d_29">
    <path d="M 229.752 193.68 
L 222.552 193.68 
" clip-path="url(#p73487d220c)" style="fill: none; stroke: #000000; stroke-width: 2; stroke-linecap: round"/>
   </g>
   <g id="line2d_30">
    <path d="M 226.152 172.08 
L 226.152 179.28 
" clip-path="url(#p73487d220c)" style="fill: none; stroke: #000000; stroke-width: 2; stroke-linecap: round"/>
   </g>
   <g id="line2d_31">
    <path d="M 229.752 175.68 
L 222.552 175.68 
" clip-path="url(#p73487d220c)" style="fill: none; stroke: #000000; stroke-width: 2; stroke-linecap: round"/>
   </g>
   <g id="line2d_32">
    <path d="M 226.152 220.68 
L 226.152 235.08 
L 217.152 235.08 
L 235.152 235.08 
M 219.852 239.4 
L 232.452 239.4 
M 224.352 243.72 
L 227.952 243.72 
" clip-path="url(#p73487d220c)" style="fill: none; stroke: #000000; stroke-width: 2; stroke-linecap: round"/>
   </g>
   <g id="line2d_33">
    <path d="M 154.152 4.68 
L 289.152 76.68 
L 424.152 148.68 
" clip-path="url(#p73487d220c)" style="fill: none; stroke: #add8e6; stroke-width: 2; stroke-linecap: round"/>
   </g>
   <g id="line2d_34">
    <path d="M 154.152 292.68 
L 289.152 220.68 
L 424.152 148.68 
" clip-path="url(#p73487d220c)" style="fill: none; stroke: #add8e6; stroke-width: 2; stroke-linecap: round"/>
   </g>
   <g id="line2d_35">
    <path d="M 442.152 148.68 
L 460.152 148.68 
L 478.152 148.68 
" clip-path="url(#p73487d220c)" style="fill: none; stroke: #000000; stroke-width: 2; stroke-linecap: round"/>
   </g>
   <g id="line2d_36">
    <path d="M 478.152 148.68 
L 496.152 148.68 
L 514.152 148.68 
" clip-path="url(#p73487d220c)" style="fill: none; stroke: #000000; stroke-width: 2; stroke-linecap: round"/>
   </g>
   <g id="line2d_37">
    <path d="M 514.152 148.68 
L 514.152 166.68 
L 523.152 169.68 
L 505.152 175.68 
L 523.152 181.68 
L 505.152 187.68 
L 523.152 193.68 
L 505.152 199.68 
L 514.152 202.68 
L 514.152 220.68 
" clip-path="url(#p73487d220c)" style="fill: none; stroke: #000000; stroke-width: 2; stroke-linecap: round"/>
   </g>
   <g id="line2d_38">
    <path d="M 492.552 130.68 
L 492.552 166.68 
L 483.552 166.68 
" clip-path="url(#p73487d220c)" style="fill: none; stroke: #0000ff; stroke-width: 2; stroke-linecap: round"/>
   </g>
   <g id="patch_3">
    <path d="M 483.552 169.38 
L 474.552 166.68 
L 483.552 163.98 
z
" clip-path="url(#p73487d220c)" style="fill: #0000ff"/>
   </g>
   <g id="line2d_39">
    <path d="M 514.152 220.68 
L 514.152 235.08 
L 505.152 235.08 
L 523.152 235.08 
M 507.852 239.4 
L 520.452 239.4 
M 512.352 243.72 
L 515.952 243.72 
" clip-path="url(#p73487d220c)" style="fill: none; stroke: #000000; stroke-width: 2; stroke-linecap: round"/>
   </g>
   <g id="text_1">
    <!-- $v_{s}$ -->
    <g transform="translate(8.712 153.095) scale(0.16 -0.16)">
     <defs>
      <path id="DejaVuSans-Oblique-76" d="M 459 3500 
L 1069 3500 
L 1581 525 
L 3256 3500 
L 3866 3500 
L 1875 0 
L 1100 0 
L 459 3500 
z
" transform="scale(0.015625)"/>
      <path id="DejaVuSans-Oblique-73" d="M 3200 3397 
L 3091 2853 
Q 2863 2978 2609 3040 
Q 2356 3103 2088 3103 
Q 1634 3103 1373 2948 
Q 1113 2794 1113 2528 
Q 1113 2219 1719 2053 
Q 1766 2041 1788 2034 
L 1972 1978 
Q 2547 1819 2739 1644 
Q 2931 1469 2931 1166 
Q 2931 609 2489 259 
Q 2047 -91 1331 -91 
Q 1053 -91 747 -37 
Q 441 16 72 128 
L 184 722 
Q 500 559 806 475 
Q 1113 391 1394 391 
Q 1816 391 2080 572 
Q 2344 753 2344 1031 
Q 2344 1331 1650 1516 
L 1591 1531 
L 1394 1581 
Q 956 1697 753 1886 
Q 550 2075 550 2369 
Q 550 2928 970 3256 
Q 1391 3584 2113 3584 
Q 2397 3584 2667 3537 
Q 2938 3491 3200 3397 
z
" transform="scale(0.015625)"/>
     </defs>
     <use xlink:href="#DejaVuSans-Oblique-76" transform="translate(0 0.3125)"/>
     <use xlink:href="#DejaVuSans-Oblique-73" transform="translate(59.179688 -16.09375) scale(0.7)"/>
    </g>
   </g>
   <g id="text_2">
    <!-- $R_s$ -->
    <g transform="translate(73.432 96.7525) scale(0.16 -0.16)">
     <defs>
      <path id="DejaVuSans-Oblique-52" d="M 1613 4147 
L 1294 2491 
L 2106 2491 
Q 2584 2491 2879 2755 
Q 3175 3019 3175 3444 
Q 3175 3784 2976 3965 
Q 2778 4147 2406 4147 
L 1613 4147 
z
M 2772 2241 
Q 2972 2194 3105 2009 
Q 3238 1825 3413 1275 
L 3809 0 
L 3144 0 
L 2778 1197 
Q 2638 1659 2453 1815 
Q 2269 1972 1888 1972 
L 1191 1972 
L 806 0 
L 172 0 
L 1081 4666 
L 2503 4666 
Q 3150 4666 3495 4373 
Q 3841 4081 3841 3531 
Q 3841 3044 3547 2687 
Q 3253 2331 2772 2241 
z
" transform="scale(0.015625)"/>
     </defs>
     <use xlink:href="#DejaVuSans-Oblique-52" transform="translate(0 0.09375)"/>
     <use xlink:href="#DejaVuSans-Oblique-73" transform="translate(69.482422 -16.3125) scale(0.7)"/>
    </g>
   </g>
   <g id="patch_4">
    <path d="M 136.152 115.38 
C 136.868048 115.38 137.554866 115.095511 138.061188 114.589188 
C 138.567511 114.082866 138.852 113.396048 138.852 112.68 
C 138.852 111.963952 138.567511 111.277134 138.061188 110.770812 
C 137.554866 110.264489 136.868048 109.98 136.152 109.98 
C 135.435952 109.98 134.749134 110.264489 134.242812 110.770812 
C 133.736489 111.277134 133.452 111.963952 133.452 112.68 
C 133.452 113.396048 133.736489 114.082866 134.242812 114.589188 
C 134.749134 115.095511 135.435952 115.38 136.152 115.38 
z
" clip-path="url(#p73487d220c)" style="fill: #ffffff; stroke: #000000; stroke-width: 2; stroke-linejoin: miter"/>
   </g>
   <g id="text_3">
    <!-- $v_p$ -->
    <g transform="translate(127.142 130.22) scale(0.16 -0.16)">
     <defs>
      <path id="DejaVuSans-Oblique-70" d="M 3175 2156 
Q 3175 2616 2975 2859 
Q 2775 3103 2400 3103 
Q 2144 3103 1911 2972 
Q 1678 2841 1497 2591 
Q 1319 2344 1212 1994 
Q 1106 1644 1106 1300 
Q 1106 863 1306 627 
Q 1506 391 1875 391 
Q 2147 391 2380 519 
Q 2613 647 2778 891 
Q 2956 1147 3065 1494 
Q 3175 1841 3175 2156 
z
M 1394 2969 
Q 1625 3272 1939 3428 
Q 2253 3584 2638 3584 
Q 3175 3584 3472 3232 
Q 3769 2881 3769 2247 
Q 3769 1728 3584 1258 
Q 3400 788 3053 416 
Q 2822 169 2531 39 
Q 2241 -91 1919 -91 
Q 1547 -91 1294 64 
Q 1041 219 916 525 
L 556 -1331 
L -19 -1331 
L 922 3500 
L 1497 3500 
L 1394 2969 
z
" transform="scale(0.015625)"/>
     </defs>
     <use xlink:href="#DejaVuSans-Oblique-76" transform="translate(0 0.3125)"/>
     <use xlink:href="#DejaVuSans-Oblique-70" transform="translate(59.179688 -16.09375) scale(0.7)"/>
    </g>
   </g>
   <g id="text_4">
    <!-- $+$ -->
    <g transform="translate(163.632 105.7525) scale(0.16 -0.16)">
     <defs>
      <path id="DejaVuSans-2b" d="M 2944 4013 
L 2944 2272 
L 4684 2272 
L 4684 1741 
L 2944 1741 
L 2944 0 
L 2419 0 
L 2419 1741 
L 678 1741 
L 678 2272 
L 2419 2272 
L 2419 4013 
L 2944 4013 
z
" transform="scale(0.015625)"/>
     </defs>
     <use xlink:href="#DejaVuSans-2b" transform="translate(0 0.296875)"/>
    </g>
   </g>
   <g id="text_5">
    <!-- $r_i$ -->
    <g transform="translate(184.752 153.095) scale(0.16 -0.16)">
     <defs>
      <path id="DejaVuSans-Oblique-72" d="M 2853 2969 
Q 2766 3016 2653 3041 
Q 2541 3066 2413 3066 
Q 1953 3066 1609 2717 
Q 1266 2369 1153 1784 
L 800 0 
L 225 0 
L 909 3500 
L 1484 3500 
L 1375 2956 
Q 1603 3259 1920 3421 
Q 2238 3584 2597 3584 
Q 2691 3584 2781 3573 
Q 2872 3563 2963 3538 
L 2853 2969 
z
" transform="scale(0.015625)"/>
      <path id="DejaVuSans-Oblique-69" d="M 1172 4863 
L 1747 4863 
L 1606 4134 
L 1031 4134 
L 1172 4863 
z
M 909 3500 
L 1484 3500 
L 800 0 
L 225 0 
L 909 3500 
z
" transform="scale(0.015625)"/>
     </defs>
     <use xlink:href="#DejaVuSans-Oblique-72"/>
     <use xlink:href="#DejaVuSans-Oblique-69" transform="translate(41.113281 -16.40625) scale(0.7)"/>
    </g>
   </g>
   <g id="text_6">
    <!-- $-$ -->
    <g transform="translate(163.632 200.4375) scale(0.16 -0.16)">
     <defs>
      <path id="DejaVuSans-2212" d="M 678 2272 
L 4684 2272 
L 4684 1741 
L 678 1741 
L 678 2272 
z
" transform="scale(0.015625)"/>
     </defs>
     <use xlink:href="#DejaVuSans-2212" transform="translate(0 0.5)"/>
    </g>
   </g>
   <g id="patch_5">
    <path d="M 136.152 187.38 
C 136.868048 187.38 137.554866 187.095511 138.061188 186.589188 
C 138.567511 186.082866 138.852 185.396048 138.852 184.68 
C 138.852 183.963952 138.567511 183.277134 138.061188 182.770812 
C 137.554866 182.264489 136.868048 181.98 136.152 181.98 
C 135.435952 181.98 134.749134 182.264489 134.242812 182.770812 
C 133.736489 183.277134 133.452 183.963952 133.452 184.68 
C 133.452 185.396048 133.736489 186.082866 134.242812 186.589188 
C 134.749134 187.095511 135.435952 187.38 136.152 187.38 
z
" clip-path="url(#p73487d220c)" style="fill: #ffffff; stroke: #000000; stroke-width: 2; stroke-linejoin: miter"/>
   </g>
   <g id="text_7">
    <!-- $v_n$ -->
    <g transform="translate(128.042 175.0525) scale(0.16 -0.16)">
     <defs>
      <path id="DejaVuSans-Oblique-6e" d="M 3566 2113 
L 3156 0 
L 2578 0 
L 2988 2091 
Q 3016 2238 3031 2350 
Q 3047 2463 3047 2528 
Q 3047 2791 2881 2937 
Q 2716 3084 2419 3084 
Q 1956 3084 1622 2776 
Q 1288 2469 1184 1941 
L 800 0 
L 225 0 
L 903 3500 
L 1478 3500 
L 1363 2950 
Q 1603 3253 1940 3418 
Q 2278 3584 2650 3584 
Q 3113 3584 3367 3334 
Q 3622 3084 3622 2631 
Q 3622 2519 3608 2391 
Q 3594 2263 3566 2113 
z
" transform="scale(0.015625)"/>
     </defs>
     <use xlink:href="#DejaVuSans-Oblique-76" transform="translate(0 0.3125)"/>
     <use xlink:href="#DejaVuSans-Oblique-6e" transform="translate(59.179688 -16.09375) scale(0.7)"/>
    </g>
   </g>
   <g id="patch_6">
    <path d="M 136.152 331.38 
C 136.868048 331.38 137.554866 331.095511 138.061188 330.589188 
C 138.567511 330.082866 138.852 329.396048 138.852 328.68 
C 138.852 327.963952 138.567511 327.277134 138.061188 326.770812 
C 137.554866 326.264489 136.868048 325.98 136.152 325.98 
C 135.435952 325.98 134.749134 326.264489 134.242812 326.770812 
C 133.736489 327.277134 133.452 327.963952 133.452 328.68 
C 133.452 329.396048 133.736489 330.082866 134.242812 330.589188 
C 134.749134 331.095511 135.435952 331.38 136.152 331.38 
z
" clip-path="url(#p73487d220c)" style="stroke: #000000; stroke-width: 2; stroke-linejoin: miter"/>
   </g>
   <g id="text_8">
    <!-- $R_1$ -->
    <g transform="translate(104.832 369.095) scale(0.16 -0.16)">
     <defs>
      <path id="DejaVuSans-31" d="M 794 531 
L 1825 531 
L 1825 4091 
L 703 3866 
L 703 4441 
L 1819 4666 
L 2450 4666 
L 2450 531 
L 3481 531 
L 3481 0 
L 794 0 
L 794 531 
z
" transform="scale(0.015625)"/>
     </defs>
     <use xlink:href="#DejaVuSans-Oblique-52" transform="translate(0 0.09375)"/>
     <use xlink:href="#DejaVuSans-31" transform="translate(69.482422 -16.3125) scale(0.7)"/>
    </g>
   </g>
   <g id="text_9">
    <!-- $R_2$ -->
    <g transform="translate(270.792 312.7525) scale(0.16 -0.16)">
     <defs>
      <path id="DejaVuSans-32" d="M 1228 531 
L 3431 531 
L 3431 0 
L 469 0 
L 469 531 
Q 828 903 1448 1529 
Q 2069 2156 2228 2338 
Q 2531 2678 2651 2914 
Q 2772 3150 2772 3378 
Q 2772 3750 2511 3984 
Q 2250 4219 1831 4219 
Q 1534 4219 1204 4116 
Q 875 4013 500 3803 
L 500 4441 
Q 881 4594 1212 4672 
Q 1544 4750 1819 4750 
Q 2544 4750 2975 4387 
Q 3406 4025 3406 3419 
Q 3406 3131 3298 2873 
Q 3191 2616 2906 2266 
Q 2828 2175 2409 1742 
Q 1991 1309 1228 531 
z
" transform="scale(0.015625)"/>
     </defs>
     <use xlink:href="#DejaVuSans-Oblique-52" transform="translate(0 0.09375)"/>
     <use xlink:href="#DejaVuSans-32" transform="translate(69.482422 -16.3125) scale(0.7)"/>
    </g>
   </g>
   <g id="patch_7">
    <path d="M 442.152 151.38 
C 442.868048 151.38 443.554866 151.095511 444.061188 150.589188 
C 444.567511 150.082866 444.852 149.396048 444.852 148.68 
C 444.852 147.963952 444.567511 147.277134 444.061188 146.770812 
C 443.554866 146.264489 442.868048 145.98 442.152 145.98 
C 441.435952 145.98 440.749134 146.264489 440.242812 146.770812 
C 439.736489 147.277134 439.452 147.963952 439.452 148.68 
C 439.452 149.396048 439.736489 150.082866 440.242812 150.589188 
C 440.749134 151.095511 441.435952 151.38 442.152 151.38 
z
" clip-path="url(#p73487d220c)" style="stroke: #000000; stroke-width: 2; stroke-linejoin: miter"/>
   </g>
   <g id="text_10">
    <!-- $r_o$ -->
    <g transform="translate(309.192 132.7525) scale(0.16 -0.16)">
     <defs>
      <path id="DejaVuSans-Oblique-6f" d="M 1625 -91 
Q 1009 -91 651 289 
Q 294 669 294 1325 
Q 294 1706 417 2101 
Q 541 2497 738 2766 
Q 1047 3184 1428 3384 
Q 1809 3584 2291 3584 
Q 2888 3584 3255 3212 
Q 3622 2841 3622 2241 
Q 3622 1825 3500 1412 
Q 3378 1000 3181 728 
Q 2875 309 2494 109 
Q 2113 -91 1625 -91 
z
M 891 1344 
Q 891 869 1089 633 
Q 1288 397 1691 397 
Q 2269 397 2648 901 
Q 3028 1406 3028 2181 
Q 3028 2634 2825 2865 
Q 2622 3097 2228 3097 
Q 1903 3097 1650 2945 
Q 1397 2794 1197 2484 
Q 1050 2253 970 1956 
Q 891 1659 891 1344 
z
" transform="scale(0.015625)"/>
     </defs>
     <use xlink:href="#DejaVuSans-Oblique-72"/>
     <use xlink:href="#DejaVuSans-Oblique-6f" transform="translate(41.113281 -16.40625) scale(0.7)"/>
    </g>
   </g>
   <g id="text_11">
    <!-- $a_v \cdot (v_p-v_n)$ -->
    <g transform="translate(247.752 188.28) scale(0.16 -0.16)">
     <defs>
      <path id="DejaVuSans-Oblique-61" d="M 3438 1997 
L 3047 0 
L 2472 0 
L 2578 531 
Q 2325 219 2001 64 
Q 1678 -91 1281 -91 
Q 834 -91 548 182 
Q 263 456 263 884 
Q 263 1497 752 1853 
Q 1241 2209 2100 2209 
L 2900 2209 
L 2931 2363 
Q 2938 2388 2941 2417 
Q 2944 2447 2944 2509 
Q 2944 2788 2717 2942 
Q 2491 3097 2081 3097 
Q 1800 3097 1504 3025 
Q 1209 2953 897 2809 
L 997 3341 
Q 1322 3463 1633 3523 
Q 1944 3584 2234 3584 
Q 2853 3584 3176 3315 
Q 3500 3047 3500 2534 
Q 3500 2431 3484 2292 
Q 3469 2153 3438 1997 
z
M 2816 1759 
L 2241 1759 
Q 1534 1759 1195 1570 
Q 856 1381 856 984 
Q 856 709 1029 553 
Q 1203 397 1509 397 
Q 1978 397 2328 733 
Q 2678 1069 2791 1631 
L 2816 1759 
z
" transform="scale(0.015625)"/>
      <path id="DejaVuSans-22c5" d="M 684 2619 
L 1344 2619 
L 1344 1825 
L 684 1825 
L 684 2619 
z
" transform="scale(0.015625)"/>
      <path id="DejaVuSans-28" d="M 1984 4856 
Q 1566 4138 1362 3434 
Q 1159 2731 1159 2009 
Q 1159 1288 1364 580 
Q 1569 -128 1984 -844 
L 1484 -844 
Q 1016 -109 783 600 
Q 550 1309 550 2009 
Q 550 2706 781 3412 
Q 1013 4119 1484 4856 
L 1984 4856 
z
" transform="scale(0.015625)"/>
      <path id="DejaVuSans-29" d="M 513 4856 
L 1013 4856 
Q 1481 4119 1714 3412 
Q 1947 2706 1947 2009 
Q 1947 1309 1714 600 
Q 1481 -109 1013 -844 
L 513 -844 
Q 928 -128 1133 580 
Q 1338 1288 1338 2009 
Q 1338 2731 1133 3434 
Q 928 4138 513 4856 
z
" transform="scale(0.015625)"/>
     </defs>
     <use xlink:href="#DejaVuSans-Oblique-61" transform="translate(0 0.125)"/>
     <use xlink:href="#DejaVuSans-Oblique-76" transform="translate(61.279297 -16.28125) scale(0.7)"/>
     <use xlink:href="#DejaVuSans-22c5" transform="translate(124.921875 0.125)"/>
     <use xlink:href="#DejaVuSans-28" transform="translate(176.191406 0.125)"/>
     <use xlink:href="#DejaVuSans-Oblique-76" transform="translate(215.205078 0.125)"/>
     <use xlink:href="#DejaVuSans-Oblique-70" transform="translate(274.384766 -16.28125) scale(0.7)"/>
     <use xlink:href="#DejaVuSans-2212" transform="translate(341.035156 0.125)"/>
     <use xlink:href="#DejaVuSans-Oblique-76" transform="translate(444.306641 0.125)"/>
     <use xlink:href="#DejaVuSans-Oblique-6e" transform="translate(503.486328 -16.28125) scale(0.7)"/>
     <use xlink:href="#DejaVuSans-29" transform="translate(550.585938 0.125)"/>
    </g>
   </g>
   <g id="patch_8">
    <path d="M 478.152 151.38 
C 478.868048 151.38 479.554866 151.095511 480.061188 150.589188 
C 480.567511 150.082866 480.852 149.396048 480.852 148.68 
C 480.852 147.963952 480.567511 147.277134 480.061188 146.770812 
C 479.554866 146.264489 478.868048 145.98 478.152 145.98 
C 477.435952 145.98 476.749134 146.264489 476.242812 146.770812 
C 475.736489 147.277134 475.452 147.963952 475.452 148.68 
C 475.452 149.396048 475.736489 150.082866 476.242812 150.589188 
C 476.749134 151.095511 477.435952 151.38 478.152 151.38 
z
" clip-path="url(#p73487d220c)" style="fill: #ffffff; stroke: #000000; stroke-width: 2; stroke-linejoin: miter"/>
   </g>
   <g id="text_12">
    <!-- $v_{out}$ -->
    <g transform="translate(447.342 139.0525) scale(0.16 -0.16)">
     <defs>
      <path id="DejaVuSans-Oblique-75" d="M 428 1388 
L 838 3500 
L 1416 3500 
L 1006 1409 
Q 975 1256 961 1147 
Q 947 1038 947 966 
Q 947 700 1109 554 
Q 1272 409 1569 409 
Q 2031 409 2368 721 
Q 2706 1034 2809 1563 
L 3194 3500 
L 3769 3500 
L 3091 0 
L 2516 0 
L 2631 550 
Q 2388 244 2052 76 
Q 1716 -91 1338 -91 
Q 878 -91 622 161 
Q 366 413 366 863 
Q 366 956 381 1097 
Q 397 1238 428 1388 
z
" transform="scale(0.015625)"/>
      <path id="DejaVuSans-Oblique-74" d="M 2706 3500 
L 2619 3053 
L 1472 3053 
L 1100 1153 
Q 1081 1047 1072 975 
Q 1063 903 1063 863 
Q 1063 663 1183 572 
Q 1303 481 1569 481 
L 2150 481 
L 2053 0 
L 1503 0 
Q 991 0 739 200 
Q 488 400 488 806 
Q 488 878 497 964 
Q 506 1050 525 1153 
L 897 3053 
L 409 3053 
L 500 3500 
L 978 3500 
L 1172 4494 
L 1747 4494 
L 1556 3500 
L 2706 3500 
z
" transform="scale(0.015625)"/>
     </defs>
     <use xlink:href="#DejaVuSans-Oblique-76" transform="translate(0 0.3125)"/>
     <use xlink:href="#DejaVuSans-Oblique-6f" transform="translate(59.179688 -16.09375) scale(0.7)"/>
     <use xlink:href="#DejaVuSans-Oblique-75" transform="translate(102.006836 -16.09375) scale(0.7)"/>
     <use xlink:href="#DejaVuSans-Oblique-74" transform="translate(146.37207 -16.09375) scale(0.7)"/>
    </g>
   </g>
   <g id="text_13">
    <!-- $R_L$ -->
    <g transform="translate(526.752 189.095) scale(0.16 -0.16)">
     <defs>
      <path id="DejaVuSans-Oblique-4c" d="M 1075 4666 
L 1709 4666 
L 909 525 
L 3181 525 
L 3078 0 
L 172 0 
L 1075 4666 
z
" transform="scale(0.015625)"/>
     </defs>
     <use xlink:href="#DejaVuSans-Oblique-52" transform="translate(0 0.09375)"/>
     <use xlink:href="#DejaVuSans-Oblique-4c" transform="translate(69.482422 -16.3125) scale(0.7)"/>
    </g>
   </g>
   <g id="text_14">
    <!-- $R_{out}$ -->
    <g style="fill: #0000ff" transform="translate(470.462 117.917813) scale(0.14 -0.14)">
     <use xlink:href="#DejaVuSans-Oblique-52" transform="translate(0 0.09375)"/>
     <use xlink:href="#DejaVuSans-Oblique-6f" transform="translate(69.482422 -16.3125) scale(0.7)"/>
     <use xlink:href="#DejaVuSans-Oblique-75" transform="translate(112.30957 -16.3125) scale(0.7)"/>
     <use xlink:href="#DejaVuSans-Oblique-74" transform="translate(156.674805 -16.3125) scale(0.7)"/>
    </g>
   </g>
  </g>
 </g>
 <defs>
  <clipPath id="p73487d220c">
   <rect x="0" y="0" width="554.856" height="428.4"/>
  </clipPath>
 </defs>
</svg>
