<?xml version="1.0" encoding="utf-8" standalone="no"?>
<!DOCTYPE svg PUBLIC "-//W3C//DTD SVG 1.1//EN"
  "http://www.w3.org/Graphics/SVG/1.1/DTD/svg11.dtd">
<svg xmlns:xlink="http://www.w3.org/1999/xlink" width="434.928pt" height="118.46pt" viewBox="0 0 434.928 118.46" xmlns="http://www.w3.org/2000/svg" version="1.1">
 <metadata>
  <rdf:RDF xmlns:dc="http://purl.org/dc/elements/1.1/" xmlns:cc="http://creativecommons.org/ns#" xmlns:rdf="http://www.w3.org/1999/02/22-rdf-syntax-ns#">
   <cc:Work>
    <dc:type rdf:resource="http://purl.org/dc/dcmitype/StillImage"/>
    <dc:date>2025-03-25T23:31:47.881424</dc:date>
    <dc:format>image/svg+xml</dc:format>
    <dc:creator>
     <cc:Agent>
      <dc:title>Matplotlib v3.9.2, https://matplotlib.org/</dc:title>
     </cc:Agent>
    </dc:creator>
   </cc:Work>
  </rdf:RDF>
 </metadata>
 <defs>
  <style type="text/css">*{stroke-linejoin: round; stroke-linecap: butt}</style>
 </defs>
 <g id="figure_1">
  <g id="patch_1">
   <path d="M 0 118.46 
L 434.928 118.46 
L 434.928 0 
L 0 0 
z
" style="fill: #ffffff"/>
  </g>
  <g id="axes_1">
   <g id="patch_2">
    <path d="M 106.872 41.78 
C 111.645656 41.78 116.224438 39.883406 119.599922 36.507922 
C 122.975406 33.132438 124.872 28.553656 124.872 23.78 
C 124.872 19.006344 122.975406 14.427562 119.599922 11.052078 
C 116.224438 7.676594 111.645656 5.78 106.872 5.78 
C 102.098344 5.78 97.519562 7.676594 94.144078 11.052078 
C 90.768594 14.427562 88.872 19.006344 88.872 23.78 
C 88.872 28.553656 90.768594 33.132438 94.144078 36.507922 
C 97.519562 39.883406 102.098344 41.78 106.872 41.78 
L 106.872 41.78 
z
" clip-path="url(#pdfc70b37d9)" style="fill: none; stroke: #000000; stroke-width: 2; stroke-linejoin: miter"/>
   </g>
   <g id="line2d_1">
    <path d="M 16.872 23.78 
L 52.872 23.78 
L 88.872 23.78 
" clip-path="url(#pdfc70b37d9)" style="fill: none; stroke: #000000; stroke-width: 2; stroke-linecap: round"/>
   </g>
   <g id="line2d_2">
    <path d="M 124.872 23.78 
L 160.872 23.78 
L 187.872 23.78 
" clip-path="url(#pdfc70b37d9)" style="fill: none; stroke: #000000; stroke-width: 2; stroke-linecap: round"/>
   </g>
   <g id="patch_3">
    <path d="M 187.872 21.08 
L 196.872 23.78 
L 187.872 26.48 
z
" clip-path="url(#pdfc70b37d9)"/>
   </g>
   <g id="line2d_3">
    <path d="M 196.872 23.78 
L 196.872 5.78 
L 268.872 5.78 
L 268.872 41.78 
L 196.872 41.78 
L 196.872 23.78 
" clip-path="url(#pdfc70b37d9)" style="fill: none; stroke: #000000; stroke-width: 2; stroke-linecap: round"/>
   </g>
   <g id="line2d_4">
    <path d="M 268.872 23.78 
L 304.872 23.78 
L 340.872 23.78 
" clip-path="url(#pdfc70b37d9)" style="fill: none; stroke: #000000; stroke-width: 2; stroke-linecap: round"/>
   </g>
   <g id="line2d_5">
    <path d="M 340.872 23.78 
L 376.872 23.78 
L 412.872 23.78 
" clip-path="url(#pdfc70b37d9)" style="fill: none; stroke: #000000; stroke-width: 2; stroke-linecap: round"/>
   </g>
   <g id="line2d_6">
    <path d="M 340.872 23.78 
L 340.872 59.78 
L 340.872 95.78 
" clip-path="url(#pdfc70b37d9)" style="fill: none; stroke: #000000; stroke-width: 2; stroke-linecap: round"/>
   </g>
   <g id="line2d_7">
    <path d="M 340.872 95.78 
L 304.872 95.78 
L 277.872 95.78 
" clip-path="url(#pdfc70b37d9)" style="fill: none; stroke: #000000; stroke-width: 2; stroke-linecap: round"/>
   </g>
   <g id="patch_4">
    <path d="M 277.872 98.48 
L 268.872 95.78 
L 277.872 93.08 
z
" clip-path="url(#pdfc70b37d9)"/>
   </g>
   <g id="line2d_8">
    <path d="M 196.872 95.78 
L 196.872 77.78 
L 268.872 77.78 
L 268.872 113.78 
L 196.872 113.78 
L 196.872 95.78 
" clip-path="url(#pdfc70b37d9)" style="fill: none; stroke: #000000; stroke-width: 2; stroke-linecap: round"/>
   </g>
   <g id="line2d_9">
    <path d="M 196.872 95.78 
L 151.872 95.78 
L 106.872 95.78 
" clip-path="url(#pdfc70b37d9)" style="fill: none; stroke: #000000; stroke-width: 2; stroke-linecap: round"/>
   </g>
   <g id="line2d_10">
    <path d="M 106.872 95.78 
L 106.872 77.78 
L 106.872 59.78 
" clip-path="url(#pdfc70b37d9)" style="fill: none; stroke: #000000; stroke-width: 2; stroke-linecap: round"/>
   </g>
   <g id="line2d_11">
    <path d="M 106.872 59.78 
L 106.872 50.78 
L 106.872 50.78 
" clip-path="url(#pdfc70b37d9)" style="fill: none; stroke: #000000; stroke-width: 2; stroke-linecap: round"/>
   </g>
   <g id="patch_5">
    <path d="M 104.172 50.78 
L 106.872 41.78 
L 109.572 50.78 
z
" clip-path="url(#pdfc70b37d9)"/>
   </g>
   <g id="text_1">
    <!-- $_+$ -->
    <g transform="translate(70.872 31.795) scale(0.16 -0.16)">
     <defs>
      <path id="DejaVuSans-2b" d="M 2944 4013 
L 2944 2272 
L 4684 2272 
L 4684 1741 
L 2944 1741 
L 2944 0 
L 2419 0 
L 2419 1741 
L 678 1741 
L 678 2272 
L 2419 2272 
L 2419 4013 
L 2944 4013 
z
" transform="scale(0.015625)"/>
     </defs>
     <use xlink:href="#DejaVuSans-2b" transform="translate(14.594727 -15.892187) scale(0.7)"/>
    </g>
   </g>
   <g id="text_2">
    <!-- $\Sigma$ -->
    <g transform="translate(100.592 27.643125) scale(0.14 -0.14)">
     <defs>
      <path id="DejaVuSans-3a3" d="M 1353 531 
L 3634 531 
L 3634 0 
L 628 0 
L 628 531 
L 2125 2481 
L 628 4134 
L 628 4666 
L 3578 4666 
L 3578 4134 
L 1353 4134 
L 2850 2494 
L 1353 531 
z
" transform="scale(0.015625)"/>
     </defs>
     <use xlink:href="#DejaVuSans-3a3" transform="translate(0 0.09375)"/>
    </g>
   </g>
   <g id="text_3">
    <!-- $a = L A_\infty$ -->
    <g transform="translate(202.392 28.195) scale(0.16 -0.16)">
     <defs>
      <path id="DejaVuSerif-Italic-61" d="M 2325 519 
Q 1909 -91 1238 -91 
Q 688 -91 409 281 
Q 216 544 216 919 
Q 216 1078 250 1256 
Q 463 2359 1231 2928 
Q 1884 3413 2675 3413 
Q 3206 3413 3388 3322 
L 2806 331 
L 3300 331 
L 3238 0 
L 2225 0 
L 2325 519 
z
M 822 938 
Q 822 269 1469 269 
Q 1863 269 2130 583 
Q 2397 897 2516 1497 
L 2806 3003 
L 2806 3003 
Q 2806 3094 2556 3094 
Q 1956 3094 1491 2625 
Q 1028 2153 863 1297 
Q 822 1097 822 938 
z
" transform="scale(0.015625)"/>
      <path id="DejaVuSerif-3d" d="M 678 2894 
L 4684 2894 
L 4684 2394 
L 678 2394 
L 678 2894 
z
M 678 1619 
L 4684 1619 
L 4684 1119 
L 678 1119 
L 678 1619 
z
" transform="scale(0.015625)"/>
      <path id="DejaVuSerif-Italic-4c" d="M -97 0 
L -34 331 
L 559 331 
L 1338 4331 
L 744 4331 
L 809 4666 
L 2631 4666 
L 2566 4331 
L 1972 4331 
L 1206 384 
L 3338 384 
L 3488 1166 
L 3872 1166 
L 3647 0 
L -97 0 
z
" transform="scale(0.015625)"/>
      <path id="DejaVuSerif-Italic-41" d="M 1159 1691 
L 2872 1691 
L 2447 3909 
L 1159 1691 
z
M -488 0 
L -425 331 
L -16 331 
L 2491 4666 
L 3016 4666 
L 3841 331 
L 4297 331 
L 4234 0 
L 2538 0 
L 2600 331 
L 3119 331 
L 2928 1356 
L 966 1356 
L 375 331 
L 888 331 
L 825 0 
L -488 0 
z
" transform="scale(0.015625)"/>
      <path id="DejaVuSerif-221e" d="M 2859 1747 
Q 3016 1469 3223 1330 
Q 3431 1191 3694 1191 
Q 4009 1191 4209 1402 
Q 4409 1613 4409 1941 
Q 4409 2256 4225 2465 
Q 4041 2675 3763 2675 
Q 3509 2675 3304 2467 
Q 3100 2259 2859 1747 
z
M 2478 2081 
Q 2325 2356 2117 2493 
Q 1909 2631 1644 2631 
Q 1328 2631 1128 2423 
Q 928 2216 928 1888 
Q 928 1572 1112 1362 
Q 1297 1153 1575 1153 
Q 1828 1153 2033 1359 
Q 2238 1566 2478 2081 
z
M 2700 1509 
Q 2478 1084 2236 887 
Q 1994 691 1697 691 
Q 1275 691 983 1041 
Q 691 1391 691 1906 
Q 691 2453 952 2790 
Q 1213 3128 1631 3128 
Q 1928 3128 2162 2936 
Q 2397 2744 2631 2303 
Q 2844 2734 3091 2939 
Q 3338 3144 3641 3144 
Q 4056 3144 4351 2791 
Q 4647 2438 4647 1919 
Q 4647 1375 4386 1039 
Q 4125 703 3706 703 
Q 3409 703 3179 886 
Q 2950 1069 2700 1509 
z
" transform="scale(0.015625)"/>
     </defs>
     <use xlink:href="#DejaVuSerif-Italic-61" transform="translate(0 0.09375)"/>
     <use xlink:href="#DejaVuSerif-3d" transform="translate(78.583984 0.09375)"/>
     <use xlink:href="#DejaVuSerif-Italic-4c" transform="translate(181.337891 0.09375)"/>
     <use xlink:href="#DejaVuSerif-Italic-41" transform="translate(247.744141 0.09375)"/>
     <use xlink:href="#DejaVuSerif-221e" transform="translate(319.960938 -15.478125) scale(0.7)"/>
    </g>
   </g>
   <g id="text_4">
    <!-- $b = 1 / A_\infty$ -->
    <g transform="translate(199.512 100.195) scale(0.16 -0.16)">
     <defs>
      <path id="DejaVuSerif-Italic-62" d="M 1153 4531 
L 600 4531 
L 666 4863 
L 1794 4863 
L 1394 2803 
Q 1622 3116 1912 3264 
Q 2203 3413 2588 3413 
Q 3200 3413 3494 2928 
Q 3688 2609 3688 2163 
Q 3688 1928 3634 1663 
Q 3481 881 3000 395 
Q 2519 -91 1906 -91 
Q 1522 -91 1289 57 
Q 1056 206 950 519 
L 850 0 
L 275 0 
L 1153 4531 
z
M 1141 1497 
Q 1091 1250 1091 1053 
Q 1091 769 1191 581 
Q 1359 269 1797 269 
Q 2238 269 2533 622 
Q 2828 975 2963 1663 
Q 3025 1978 3025 2225 
Q 3025 2513 2938 2703 
Q 2781 3053 2338 3053 
Q 1900 3053 1609 2737 
Q 1319 2422 1203 1825 
L 1141 1497 
z
" transform="scale(0.015625)"/>
      <path id="DejaVuSerif-31" d="M 909 0 
L 909 331 
L 1722 331 
L 1722 4213 
L 781 3603 
L 781 4013 
L 1919 4750 
L 2350 4750 
L 2350 331 
L 3163 331 
L 3163 0 
L 909 0 
z
" transform="scale(0.015625)"/>
      <path id="DejaVuSerif-2f" d="M 1656 4666 
L 2156 4666 
L 500 -594 
L 0 -594 
L 1656 4666 
z
" transform="scale(0.015625)"/>
     </defs>
     <use xlink:href="#DejaVuSerif-Italic-62" transform="translate(0 0.015625)"/>
     <use xlink:href="#DejaVuSerif-3d" transform="translate(82.978516 0.015625)"/>
     <use xlink:href="#DejaVuSerif-31" transform="translate(185.732422 0.015625)"/>
     <use xlink:href="#DejaVuSerif-2f" transform="translate(249.355469 0.015625)"/>
     <use xlink:href="#DejaVuSerif-Italic-41" transform="translate(283.046875 0.015625)"/>
     <use xlink:href="#DejaVuSerif-221e" transform="translate(355.263672 -15.55625) scale(0.7)"/>
    </g>
   </g>
   <g id="text_5">
    <!-- $_-$ -->
    <g transform="translate(112.272 47.995) scale(0.16 -0.16)">
     <defs>
      <path id="DejaVuSans-2212" d="M 678 2272 
L 4684 2272 
L 4684 1741 
L 678 1741 
L 678 2272 
z
" transform="scale(0.015625)"/>
     </defs>
     <use xlink:href="#DejaVuSans-2212" transform="translate(14.594727 -15.85) scale(0.7)"/>
    </g>
   </g>
   <g id="patch_6">
    <path d="M 16.872 26.48 
C 17.588048 26.48 18.274866 26.195511 18.781188 25.689188 
C 19.287511 25.182866 19.572 24.496048 19.572 23.78 
C 19.572 23.063952 19.287511 22.377134 18.781188 21.870812 
C 18.274866 21.364489 17.588048 21.08 16.872 21.08 
C 16.155952 21.08 15.469134 21.364489 14.962812 21.870812 
C 14.456489 22.377134 14.172 23.063952 14.172 23.78 
C 14.172 24.496048 14.456489 25.182866 14.962812 25.689188 
C 15.469134 26.195511 16.155952 26.48 16.872 26.48 
z
" clip-path="url(#pdfc70b37d9)" style="fill: #ffffff; stroke: #000000; stroke-width: 2; stroke-linejoin: miter"/>
   </g>
   <g id="text_6">
    <!-- $s_{in}$ -->
    <g transform="translate(7.352 14.1525) scale(0.16 -0.16)">
     <defs>
      <path id="DejaVuSans-Oblique-73" d="M 3200 3397 
L 3091 2853 
Q 2863 2978 2609 3040 
Q 2356 3103 2088 3103 
Q 1634 3103 1373 2948 
Q 1113 2794 1113 2528 
Q 1113 2219 1719 2053 
Q 1766 2041 1788 2034 
L 1972 1978 
Q 2547 1819 2739 1644 
Q 2931 1469 2931 1166 
Q 2931 609 2489 259 
Q 2047 -91 1331 -91 
Q 1053 -91 747 -37 
Q 441 16 72 128 
L 184 722 
Q 500 559 806 475 
Q 1113 391 1394 391 
Q 1816 391 2080 572 
Q 2344 753 2344 1031 
Q 2344 1331 1650 1516 
L 1591 1531 
L 1394 1581 
Q 956 1697 753 1886 
Q 550 2075 550 2369 
Q 550 2928 970 3256 
Q 1391 3584 2113 3584 
Q 2397 3584 2667 3537 
Q 2938 3491 3200 3397 
z
" transform="scale(0.015625)"/>
      <path id="DejaVuSans-Oblique-69" d="M 1172 4863 
L 1747 4863 
L 1606 4134 
L 1031 4134 
L 1172 4863 
z
M 909 3500 
L 1484 3500 
L 800 0 
L 225 0 
L 909 3500 
z
" transform="scale(0.015625)"/>
      <path id="DejaVuSans-Oblique-6e" d="M 3566 2113 
L 3156 0 
L 2578 0 
L 2988 2091 
Q 3016 2238 3031 2350 
Q 3047 2463 3047 2528 
Q 3047 2791 2881 2937 
Q 2716 3084 2419 3084 
Q 1956 3084 1622 2776 
Q 1288 2469 1184 1941 
L 800 0 
L 225 0 
L 903 3500 
L 1478 3500 
L 1363 2950 
Q 1603 3253 1940 3418 
Q 2278 3584 2650 3584 
Q 3113 3584 3367 3334 
Q 3622 3084 3622 2631 
Q 3622 2519 3608 2391 
Q 3594 2263 3566 2113 
z
" transform="scale(0.015625)"/>
     </defs>
     <use xlink:href="#DejaVuSans-Oblique-73"/>
     <use xlink:href="#DejaVuSans-Oblique-69" transform="translate(52.099609 -16.40625) scale(0.7)"/>
     <use xlink:href="#DejaVuSans-Oblique-6e" transform="translate(71.547852 -16.40625) scale(0.7)"/>
    </g>
   </g>
   <g id="patch_7">
    <path d="M 340.872 26.48 
C 341.588048 26.48 342.274866 26.195511 342.781188 25.689188 
C 343.287511 25.182866 343.572 24.496048 343.572 23.78 
C 343.572 23.063952 343.287511 22.377134 342.781188 21.870812 
C 342.274866 21.364489 341.588048 21.08 340.872 21.08 
C 340.155952 21.08 339.469134 21.364489 338.962812 21.870812 
C 338.456489 22.377134 338.172 23.063952 338.172 23.78 
C 338.172 24.496048 338.456489 25.182866 338.962812 25.689188 
C 339.469134 26.195511 340.155952 26.48 340.872 26.48 
z
" clip-path="url(#pdfc70b37d9)" style="stroke: #000000; stroke-width: 2; stroke-linejoin: miter"/>
   </g>
   <g id="patch_8">
    <path d="M 412.872 26.48 
C 413.588048 26.48 414.274866 26.195511 414.781188 25.689188 
C 415.287511 25.182866 415.572 24.496048 415.572 23.78 
C 415.572 23.063952 415.287511 22.377134 414.781188 21.870812 
C 414.274866 21.364489 413.588048 21.08 412.872 21.08 
C 412.155952 21.08 411.469134 21.364489 410.962812 21.870812 
C 410.456489 22.377134 410.172 23.063952 410.172 23.78 
C 410.172 24.496048 410.456489 25.182866 410.962812 25.689188 
C 411.469134 26.195511 412.155952 26.48 412.872 26.48 
z
" clip-path="url(#pdfc70b37d9)" style="fill: #ffffff; stroke: #000000; stroke-width: 2; stroke-linejoin: miter"/>
   </g>
   <g id="text_7">
    <!-- $s_{out}$ -->
    <g transform="translate(399.272 14.1525) scale(0.16 -0.16)">
     <defs>
      <path id="DejaVuSans-Oblique-6f" d="M 1625 -91 
Q 1009 -91 651 289 
Q 294 669 294 1325 
Q 294 1706 417 2101 
Q 541 2497 738 2766 
Q 1047 3184 1428 3384 
Q 1809 3584 2291 3584 
Q 2888 3584 3255 3212 
Q 3622 2841 3622 2241 
Q 3622 1825 3500 1412 
Q 3378 1000 3181 728 
Q 2875 309 2494 109 
Q 2113 -91 1625 -91 
z
M 891 1344 
Q 891 869 1089 633 
Q 1288 397 1691 397 
Q 2269 397 2648 901 
Q 3028 1406 3028 2181 
Q 3028 2634 2825 2865 
Q 2622 3097 2228 3097 
Q 1903 3097 1650 2945 
Q 1397 2794 1197 2484 
Q 1050 2253 970 1956 
Q 891 1659 891 1344 
z
" transform="scale(0.015625)"/>
      <path id="DejaVuSans-Oblique-75" d="M 428 1388 
L 838 3500 
L 1416 3500 
L 1006 1409 
Q 975 1256 961 1147 
Q 947 1038 947 966 
Q 947 700 1109 554 
Q 1272 409 1569 409 
Q 2031 409 2368 721 
Q 2706 1034 2809 1563 
L 3194 3500 
L 3769 3500 
L 3091 0 
L 2516 0 
L 2631 550 
Q 2388 244 2052 76 
Q 1716 -91 1338 -91 
Q 878 -91 622 161 
Q 366 413 366 863 
Q 366 956 381 1097 
Q 397 1238 428 1388 
z
" transform="scale(0.015625)"/>
      <path id="DejaVuSans-Oblique-74" d="M 2706 3500 
L 2619 3053 
L 1472 3053 
L 1100 1153 
Q 1081 1047 1072 975 
Q 1063 903 1063 863 
Q 1063 663 1183 572 
Q 1303 481 1569 481 
L 2150 481 
L 2053 0 
L 1503 0 
Q 991 0 739 200 
Q 488 400 488 806 
Q 488 878 497 964 
Q 506 1050 525 1153 
L 897 3053 
L 409 3053 
L 500 3500 
L 978 3500 
L 1172 4494 
L 1747 4494 
L 1556 3500 
L 2706 3500 
z
" transform="scale(0.015625)"/>
     </defs>
     <use xlink:href="#DejaVuSans-Oblique-73"/>
     <use xlink:href="#DejaVuSans-Oblique-6f" transform="translate(52.099609 -16.40625) scale(0.7)"/>
     <use xlink:href="#DejaVuSans-Oblique-75" transform="translate(94.926758 -16.40625) scale(0.7)"/>
     <use xlink:href="#DejaVuSans-Oblique-74" transform="translate(139.291992 -16.40625) scale(0.7)"/>
    </g>
   </g>
  </g>
 </g>
 <defs>
  <clipPath id="pdfc70b37d9">
   <rect x="0" y="0" width="434.928" height="118.46"/>
  </clipPath>
 </defs>
</svg>
