<?xml version="1.0" encoding="utf-8" standalone="no"?>
<!DOCTYPE svg PUBLIC "-//W3C//DTD SVG 1.1//EN"
  "http://www.w3.org/Graphics/SVG/1.1/DTD/svg11.dtd">
<svg xmlns:xlink="http://www.w3.org/1999/xlink" width="573.7165pt" height="236pt" viewBox="0 0 573.7165 236" xmlns="http://www.w3.org/2000/svg" version="1.1">
 <metadata>
  <rdf:RDF xmlns:dc="http://purl.org/dc/elements/1.1/" xmlns:cc="http://creativecommons.org/ns#" xmlns:rdf="http://www.w3.org/1999/02/22-rdf-syntax-ns#">
   <cc:Work>
    <dc:type rdf:resource="http://purl.org/dc/dcmitype/StillImage"/>
    <dc:date>2025-03-25T23:31:51.168738</dc:date>
    <dc:format>image/svg+xml</dc:format>
    <dc:creator>
     <cc:Agent>
      <dc:title>Matplotlib v3.9.2, https://matplotlib.org/</dc:title>
     </cc:Agent>
    </dc:creator>
   </cc:Work>
  </rdf:RDF>
 </metadata>
 <defs>
  <style type="text/css">*{stroke-linejoin: round; stroke-linecap: butt}</style>
 </defs>
 <g id="figure_1">
  <g id="patch_1">
   <path d="M 0 236 
L 573.7165 236 
L 573.7165 0 
L 0 0 
z
" style="fill: #ffffff"/>
  </g>
  <g id="axes_1">
   <g id="patch_2">
    <path d="M 256.68 142.92 
L 256.851352 142.918641 
L 257.022662 142.914563 
L 257.193885 142.907767 
L 257.364978 142.898256 
L 257.5359 142.886032 
L 257.706605 142.871097 
L 257.877053 142.853455 
L 258.047198 142.833112 
L 258.217 142.810072 
L 258.386415 142.78434 
L 258.5554 142.755924 
L 258.723913 142.72483 
L 258.891912 142.691066 
L 259.059354 142.654642 
L 259.226197 142.615565 
L 259.392398 142.573846 
L 259.557917 142.529495 
L 259.722712 142.482524 
L 259.88674 142.432944 
L 260.049961 142.380768 
L 260.212334 142.326009 
L 260.373818 142.26868 
L 260.534371 142.208797 
L 260.693955 142.146374 
L 260.852527 142.081426 
L 261.01005 142.013971 
L 261.166482 141.944026 
L 261.321785 141.871607 
L 261.475919 141.796733 
L 261.628846 141.719423 
L 261.780528 141.639696 
L 261.930925 141.557573 
L 262.08 141.473074 
L 262.227716 141.386221 
L 262.374035 141.297035 
L 262.518921 141.205538 
L 262.662337 141.111754 
L 262.804247 141.015707 
L 262.944615 140.91742 
L 263.083406 140.816919 
L 263.220585 140.714228 
L 263.356117 140.609373 
L 263.489969 140.502382 
L 263.622106 140.39328 
L 263.752496 140.282095 
L 263.881105 140.168856 
L 264.007902 140.05359 
L 264.132853 139.936328 
L 264.255929 139.817097 
L 264.377097 139.695929 
L 264.496328 139.572853 
L 264.61359 139.447902 
L 264.728856 139.321105 
L 264.842095 139.192496 
L 264.95328 139.062106 
L 265.062382 138.929969 
L 265.169373 138.796117 
L 265.274228 138.660585 
L 265.376919 138.523406 
L 265.47742 138.384615 
L 265.575707 138.244247 
L 265.671754 138.102337 
L 265.765538 137.958921 
L 265.857035 137.814035 
L 265.946221 137.667716 
L 266.033074 137.52 
L 266.117573 137.370925 
L 266.199696 137.220528 
L 266.279423 137.068846 
L 266.356733 136.915919 
L 266.431607 136.761785 
L 266.504026 136.606482 
L 266.573971 136.45005 
L 266.641426 136.292527 
L 266.706374 136.133955 
L 266.768797 135.974371 
L 266.82868 135.813818 
L 266.886009 135.652334 
L 266.940768 135.489961 
L 266.992944 135.32674 
L 267.042524 135.162712 
L 267.089495 134.997917 
L 267.133846 134.832398 
L 267.175565 134.666197 
L 267.214642 134.499354 
L 267.251066 134.331912 
L 267.28483 134.163913 
L 267.315924 133.9954 
L 267.34434 133.826415 
L 267.370072 133.657 
L 267.393112 133.487198 
L 267.413455 133.317053 
L 267.431097 133.146605 
L 267.446032 132.9759 
L 267.458256 132.804978 
L 267.467767 132.633885 
L 267.474563 132.462662 
L 267.478641 132.291352 
L 267.48 132.12 
L 267.48 27.88 
L 267.478641 27.708648 
L 267.474563 27.537338 
L 267.467767 27.366115 
L 267.458256 27.195022 
L 267.446032 27.0241 
L 267.431097 26.853395 
L 267.413455 26.682947 
L 267.393112 26.512802 
L 267.370072 26.343 
L 267.34434 26.173585 
L 267.315924 26.0046 
L 267.28483 25.836087 
L 267.251066 25.668088 
L 267.214642 25.500646 
L 267.175565 25.333803 
L 267.133846 25.167602 
L 267.089495 25.002083 
L 267.042524 24.837288 
L 266.992944 24.67326 
L 266.940768 24.510039 
L 266.886009 24.347666 
L 266.82868 24.186182 
L 266.768797 24.025629 
L 266.706374 23.866045 
L 266.641426 23.707473 
L 266.573971 23.54995 
L 266.504026 23.393518 
L 266.431607 23.238215 
L 266.356733 23.084081 
L 266.279423 22.931154 
L 266.199696 22.779472 
L 266.117573 22.629075 
L 266.033074 22.48 
L 265.946221 22.332284 
L 265.857035 22.185965 
L 265.765538 22.041079 
L 265.671754 21.897663 
L 265.575707 21.755753 
L 265.47742 21.615385 
L 265.376919 21.476594 
L 265.274228 21.339415 
L 265.169373 21.203883 
L 265.062382 21.070031 
L 264.95328 20.937894 
L 264.842095 20.807504 
L 264.728856 20.678895 
L 264.61359 20.552098 
L 264.496328 20.427147 
L 264.377097 20.304071 
L 264.255929 20.182903 
L 264.132853 20.063672 
L 264.007902 19.94641 
L 263.881105 19.831144 
L 263.752496 19.717905 
L 263.622106 19.60672 
L 263.489969 19.497618 
L 263.356117 19.390627 
L 263.220585 19.285772 
L 263.083406 19.183081 
L 262.944615 19.08258 
L 262.804247 18.984293 
L 262.662337 18.888246 
L 262.518921 18.794462 
L 262.374035 18.702965 
L 262.227716 18.613779 
L 262.08 18.526926 
L 261.930925 18.442427 
L 261.780528 18.360304 
L 261.628846 18.280577 
L 261.475919 18.203267 
L 261.321785 18.128393 
L 261.166482 18.055974 
L 261.01005 17.986029 
L 260.852527 17.918574 
L 260.693955 17.853626 
L 260.534371 17.791203 
L 260.373818 17.73132 
L 260.212334 17.673991 
L 260.049961 17.619232 
L 259.88674 17.567056 
L 259.722712 17.517476 
L 259.557917 17.470505 
L 259.392398 17.426154 
L 259.226197 17.384435 
L 259.059354 17.345358 
L 258.891912 17.308934 
L 258.723913 17.27517 
L 258.5554 17.244076 
L 258.386415 17.21566 
L 258.217 17.189928 
L 258.047198 17.166888 
L 257.877053 17.146545 
L 257.706605 17.128903 
L 257.5359 17.113968 
L 257.364978 17.101744 
L 257.193885 17.092233 
L 257.022662 17.085437 
L 256.851352 17.081359 
L 256.68 17.08 
L 157.68 17.08 
L 157.508648 17.081359 
L 157.337338 17.085437 
L 157.166115 17.092233 
L 156.995022 17.101744 
L 156.8241 17.113968 
L 156.653395 17.128903 
L 156.482947 17.146545 
L 156.312802 17.166888 
L 156.143 17.189928 
L 155.973585 17.21566 
L 155.8046 17.244076 
L 155.636087 17.27517 
L 155.468088 17.308934 
L 155.300646 17.345358 
L 155.133803 17.384435 
L 154.967602 17.426154 
L 154.802083 17.470505 
L 154.637288 17.517476 
L 154.47326 17.567056 
L 154.310039 17.619232 
L 154.147666 17.673991 
L 153.986182 17.73132 
L 153.825629 17.791203 
L 153.666045 17.853626 
L 153.507473 17.918574 
L 153.34995 17.986029 
L 153.193518 18.055974 
L 153.038215 18.128393 
L 152.884081 18.203267 
L 152.731154 18.280577 
L 152.579472 18.360304 
L 152.429075 18.442427 
L 152.28 18.526926 
L 152.132284 18.613779 
L 151.985965 18.702965 
L 151.841079 18.794462 
L 151.697663 18.888246 
L 151.555753 18.984293 
L 151.415385 19.08258 
L 151.276594 19.183081 
L 151.139415 19.285772 
L 151.003883 19.390627 
L 150.870031 19.497618 
L 150.737894 19.60672 
L 150.607504 19.717905 
L 150.478895 19.831144 
L 150.352098 19.94641 
L 150.227147 20.063672 
L 150.104071 20.182903 
L 149.982903 20.304071 
L 149.863672 20.427147 
L 149.74641 20.552098 
L 149.631144 20.678895 
L 149.517905 20.807504 
L 149.40672 20.937894 
L 149.297618 21.070031 
L 149.190627 21.203883 
L 149.085772 21.339415 
L 148.983081 21.476594 
L 148.88258 21.615385 
L 148.784293 21.755753 
L 148.688246 21.897663 
L 148.594462 22.041079 
L 148.502965 22.185965 
L 148.413779 22.332284 
L 148.326926 22.48 
L 148.242427 22.629075 
L 148.160304 22.779472 
L 148.080577 22.931154 
L 148.003267 23.084081 
L 147.928393 23.238215 
L 147.855974 23.393518 
L 147.786029 23.54995 
L 147.718574 23.707473 
L 147.653626 23.866045 
L 147.591203 24.025629 
L 147.53132 24.186182 
L 147.473991 24.347666 
L 147.419232 24.510039 
L 147.367056 24.67326 
L 147.317476 24.837288 
L 147.270505 25.002083 
L 147.226154 25.167602 
L 147.184435 25.333803 
L 147.145358 25.500646 
L 147.108934 25.668088 
L 147.07517 25.836087 
L 147.044076 26.0046 
L 147.01566 26.173585 
L 146.989928 26.343 
L 146.966888 26.512802 
L 146.946545 26.682947 
L 146.928903 26.853395 
L 146.913968 27.0241 
L 146.901744 27.195022 
L 146.892233 27.366115 
L 146.885437 27.537338 
L 146.881359 27.708648 
L 146.88 27.88 
L 146.88 132.12 
L 146.881359 132.291352 
L 146.885437 132.462662 
L 146.892233 132.633885 
L 146.901744 132.804978 
L 146.913968 132.9759 
L 146.928903 133.146605 
L 146.946545 133.317053 
L 146.966888 133.487198 
L 146.989928 133.657 
L 147.01566 133.826415 
L 147.044076 133.9954 
L 147.07517 134.163913 
L 147.108934 134.331912 
L 147.145358 134.499354 
L 147.184435 134.666197 
L 147.226154 134.832398 
L 147.270505 134.997917 
L 147.317476 135.162712 
L 147.367056 135.32674 
L 147.419232 135.489961 
L 147.473991 135.652334 
L 147.53132 135.813818 
L 147.591203 135.974371 
L 147.653626 136.133955 
L 147.718574 136.292527 
L 147.786029 136.45005 
L 147.855974 136.606482 
L 147.928393 136.761785 
L 148.003267 136.915919 
L 148.080577 137.068846 
L 148.160304 137.220528 
L 148.242427 137.370925 
L 148.326926 137.52 
L 148.413779 137.667716 
L 148.502965 137.814035 
L 148.594462 137.958921 
L 148.688246 138.102337 
L 148.784293 138.244247 
L 148.88258 138.384615 
L 148.983081 138.523406 
L 149.085772 138.660585 
L 149.190627 138.796117 
L 149.297618 138.929969 
L 149.40672 139.062106 
L 149.517905 139.192496 
L 149.631144 139.321105 
L 149.74641 139.447902 
L 149.863672 139.572853 
L 149.982903 139.695929 
L 150.104071 139.817097 
L 150.227147 139.936328 
L 150.352098 140.05359 
L 150.478895 140.168856 
L 150.607504 140.282095 
L 150.737894 140.39328 
L 150.870031 140.502382 
L 151.003883 140.609373 
L 151.139415 140.714228 
L 151.276594 140.816919 
L 151.415385 140.91742 
L 151.555753 141.015707 
L 151.697663 141.111754 
L 151.841079 141.205538 
L 151.985965 141.297035 
L 152.132284 141.386221 
L 152.28 141.473074 
L 152.429075 141.557573 
L 152.579472 141.639696 
L 152.731154 141.719423 
L 152.884081 141.796733 
L 153.038215 141.871607 
L 153.193518 141.944026 
L 153.34995 142.013971 
L 153.507473 142.081426 
L 153.666045 142.146374 
L 153.825629 142.208797 
L 153.986182 142.26868 
L 154.147666 142.326009 
L 154.310039 142.380768 
L 154.47326 142.432944 
L 154.637288 142.482524 
L 154.802083 142.529495 
L 154.967602 142.573846 
L 155.133803 142.615565 
L 155.300646 142.654642 
L 155.468088 142.691066 
L 155.636087 142.72483 
L 155.8046 142.755924 
L 155.973585 142.78434 
L 156.143 142.810072 
L 156.312802 142.833112 
L 156.482947 142.853455 
L 156.653395 142.871097 
L 156.8241 142.886032 
L 156.995022 142.898256 
L 157.166115 142.907767 
L 157.337338 142.914563 
L 157.508648 142.918641 
L 157.68 142.92 
L 256.68 142.92 
z
" clip-path="url(#pabd7cab339)" style="fill: none; stroke-dasharray: 3.7,1.6; stroke-dashoffset: 0; stroke: #000000; stroke-linecap: round"/>
   </g>
   <g id="patch_3">
    <path d="M 544.68 214.92 
L 544.851352 214.918641 
L 545.022662 214.914563 
L 545.193885 214.907767 
L 545.364978 214.898256 
L 545.5359 214.886032 
L 545.706605 214.871097 
L 545.877053 214.853455 
L 546.047198 214.833112 
L 546.217 214.810072 
L 546.386415 214.78434 
L 546.5554 214.755924 
L 546.723913 214.72483 
L 546.891912 214.691066 
L 547.059354 214.654642 
L 547.226197 214.615565 
L 547.392398 214.573846 
L 547.557917 214.529495 
L 547.722712 214.482524 
L 547.88674 214.432944 
L 548.049961 214.380768 
L 548.212334 214.326009 
L 548.373818 214.26868 
L 548.534371 214.208797 
L 548.693955 214.146374 
L 548.852527 214.081426 
L 549.01005 214.013971 
L 549.166482 213.944026 
L 549.321785 213.871607 
L 549.475919 213.796733 
L 549.628846 213.719423 
L 549.780528 213.639696 
L 549.930925 213.557573 
L 550.08 213.473074 
L 550.227716 213.386221 
L 550.374035 213.297035 
L 550.518921 213.205538 
L 550.662337 213.111754 
L 550.804247 213.015707 
L 550.944615 212.91742 
L 551.083406 212.816919 
L 551.220585 212.714228 
L 551.356117 212.609373 
L 551.489969 212.502382 
L 551.622106 212.39328 
L 551.752496 212.282095 
L 551.881105 212.168856 
L 552.007902 212.05359 
L 552.132853 211.936328 
L 552.255929 211.817097 
L 552.377097 211.695929 
L 552.496328 211.572853 
L 552.61359 211.447902 
L 552.728856 211.321105 
L 552.842095 211.192496 
L 552.95328 211.062106 
L 553.062382 210.929969 
L 553.169373 210.796117 
L 553.274228 210.660585 
L 553.376919 210.523406 
L 553.47742 210.384615 
L 553.575707 210.244247 
L 553.671754 210.102337 
L 553.765538 209.958921 
L 553.857035 209.814035 
L 553.946221 209.667716 
L 554.033074 209.52 
L 554.117573 209.370925 
L 554.199696 209.220528 
L 554.279423 209.068846 
L 554.356733 208.915919 
L 554.431607 208.761785 
L 554.504026 208.606482 
L 554.573971 208.45005 
L 554.641426 208.292527 
L 554.706374 208.133955 
L 554.768797 207.974371 
L 554.82868 207.813818 
L 554.886009 207.652334 
L 554.940768 207.489961 
L 554.992944 207.32674 
L 555.042524 207.162712 
L 555.089495 206.997917 
L 555.133846 206.832398 
L 555.175565 206.666197 
L 555.214642 206.499354 
L 555.251066 206.331912 
L 555.28483 206.163913 
L 555.315924 205.9954 
L 555.34434 205.826415 
L 555.370072 205.657 
L 555.393112 205.487198 
L 555.413455 205.317053 
L 555.431097 205.146605 
L 555.446032 204.9759 
L 555.458256 204.804978 
L 555.467767 204.633885 
L 555.474563 204.462662 
L 555.478641 204.291352 
L 555.48 204.12 
L 555.48 27.88 
L 555.478641 27.708648 
L 555.474563 27.537338 
L 555.467767 27.366115 
L 555.458256 27.195022 
L 555.446032 27.0241 
L 555.431097 26.853395 
L 555.413455 26.682947 
L 555.393112 26.512802 
L 555.370072 26.343 
L 555.34434 26.173585 
L 555.315924 26.0046 
L 555.28483 25.836087 
L 555.251066 25.668088 
L 555.214642 25.500646 
L 555.175565 25.333803 
L 555.133846 25.167602 
L 555.089495 25.002083 
L 555.042524 24.837288 
L 554.992944 24.67326 
L 554.940768 24.510039 
L 554.886009 24.347666 
L 554.82868 24.186182 
L 554.768797 24.025629 
L 554.706374 23.866045 
L 554.641426 23.707473 
L 554.573971 23.54995 
L 554.504026 23.393518 
L 554.431607 23.238215 
L 554.356733 23.084081 
L 554.279423 22.931154 
L 554.199696 22.779472 
L 554.117573 22.629075 
L 554.033074 22.48 
L 553.946221 22.332284 
L 553.857035 22.185965 
L 553.765538 22.041079 
L 553.671754 21.897663 
L 553.575707 21.755753 
L 553.47742 21.615385 
L 553.376919 21.476594 
L 553.274228 21.339415 
L 553.169373 21.203883 
L 553.062382 21.070031 
L 552.95328 20.937894 
L 552.842095 20.807504 
L 552.728856 20.678895 
L 552.61359 20.552098 
L 552.496328 20.427147 
L 552.377097 20.304071 
L 552.255929 20.182903 
L 552.132853 20.063672 
L 552.007902 19.94641 
L 551.881105 19.831144 
L 551.752496 19.717905 
L 551.622106 19.60672 
L 551.489969 19.497618 
L 551.356117 19.390627 
L 551.220585 19.285772 
L 551.083406 19.183081 
L 550.944615 19.08258 
L 550.804247 18.984293 
L 550.662337 18.888246 
L 550.518921 18.794462 
L 550.374035 18.702965 
L 550.227716 18.613779 
L 550.08 18.526926 
L 549.930925 18.442427 
L 549.780528 18.360304 
L 549.628846 18.280577 
L 549.475919 18.203267 
L 549.321785 18.128393 
L 549.166482 18.055974 
L 549.01005 17.986029 
L 548.852527 17.918574 
L 548.693955 17.853626 
L 548.534371 17.791203 
L 548.373818 17.73132 
L 548.212334 17.673991 
L 548.049961 17.619232 
L 547.88674 17.567056 
L 547.722712 17.517476 
L 547.557917 17.470505 
L 547.392398 17.426154 
L 547.226197 17.384435 
L 547.059354 17.345358 
L 546.891912 17.308934 
L 546.723913 17.27517 
L 546.5554 17.244076 
L 546.386415 17.21566 
L 546.217 17.189928 
L 546.047198 17.166888 
L 545.877053 17.146545 
L 545.706605 17.128903 
L 545.5359 17.113968 
L 545.364978 17.101744 
L 545.193885 17.092233 
L 545.022662 17.085437 
L 544.851352 17.081359 
L 544.68 17.08 
L 442.128 17.08 
L 441.956648 17.081359 
L 441.785338 17.085437 
L 441.614115 17.092233 
L 441.443022 17.101744 
L 441.2721 17.113968 
L 441.101395 17.128903 
L 440.930947 17.146545 
L 440.760802 17.166888 
L 440.591 17.189928 
L 440.421585 17.21566 
L 440.2526 17.244076 
L 440.084087 17.27517 
L 439.916088 17.308934 
L 439.748646 17.345358 
L 439.581803 17.384435 
L 439.415602 17.426154 
L 439.250083 17.470505 
L 439.085288 17.517476 
L 438.92126 17.567056 
L 438.758039 17.619232 
L 438.595666 17.673991 
L 438.434182 17.73132 
L 438.273629 17.791203 
L 438.114045 17.853626 
L 437.955473 17.918574 
L 437.79795 17.986029 
L 437.641518 18.055974 
L 437.486215 18.128393 
L 437.332081 18.203267 
L 437.179154 18.280577 
L 437.027472 18.360304 
L 436.877075 18.442427 
L 436.728 18.526926 
L 436.580284 18.613779 
L 436.433965 18.702965 
L 436.289079 18.794462 
L 436.145663 18.888246 
L 436.003753 18.984293 
L 435.863385 19.08258 
L 435.724594 19.183081 
L 435.587415 19.285772 
L 435.451883 19.390627 
L 435.318031 19.497618 
L 435.185894 19.60672 
L 435.055504 19.717905 
L 434.926895 19.831144 
L 434.800098 19.94641 
L 434.675147 20.063672 
L 434.552071 20.182903 
L 434.430903 20.304071 
L 434.311672 20.427147 
L 434.19441 20.552098 
L 434.079144 20.678895 
L 433.965905 20.807504 
L 433.85472 20.937894 
L 433.745618 21.070031 
L 433.638627 21.203883 
L 433.533772 21.339415 
L 433.431081 21.476594 
L 433.33058 21.615385 
L 433.232293 21.755753 
L 433.136246 21.897663 
L 433.042462 22.041079 
L 432.950965 22.185965 
L 432.861779 22.332284 
L 432.774926 22.48 
L 432.690427 22.629075 
L 432.608304 22.779472 
L 432.528577 22.931154 
L 432.451267 23.084081 
L 432.376393 23.238215 
L 432.303974 23.393518 
L 432.234029 23.54995 
L 432.166574 23.707473 
L 432.101626 23.866045 
L 432.039203 24.025629 
L 431.97932 24.186182 
L 431.921991 24.347666 
L 431.867232 24.510039 
L 431.815056 24.67326 
L 431.765476 24.837288 
L 431.718505 25.002083 
L 431.674154 25.167602 
L 431.632435 25.333803 
L 431.593358 25.500646 
L 431.556934 25.668088 
L 431.52317 25.836087 
L 431.492076 26.0046 
L 431.46366 26.173585 
L 431.437928 26.343 
L 431.414888 26.512802 
L 431.394545 26.682947 
L 431.376903 26.853395 
L 431.361968 27.0241 
L 431.349744 27.195022 
L 431.340233 27.366115 
L 431.333437 27.537338 
L 431.329359 27.708648 
L 431.328 27.88 
L 431.328 204.12 
L 431.329359 204.291352 
L 431.333437 204.462662 
L 431.340233 204.633885 
L 431.349744 204.804978 
L 431.361968 204.9759 
L 431.376903 205.146605 
L 431.394545 205.317053 
L 431.414888 205.487198 
L 431.437928 205.657 
L 431.46366 205.826415 
L 431.492076 205.9954 
L 431.52317 206.163913 
L 431.556934 206.331912 
L 431.593358 206.499354 
L 431.632435 206.666197 
L 431.674154 206.832398 
L 431.718505 206.997917 
L 431.765476 207.162712 
L 431.815056 207.32674 
L 431.867232 207.489961 
L 431.921991 207.652334 
L 431.97932 207.813818 
L 432.039203 207.974371 
L 432.101626 208.133955 
L 432.166574 208.292527 
L 432.234029 208.45005 
L 432.303974 208.606482 
L 432.376393 208.761785 
L 432.451267 208.915919 
L 432.528577 209.068846 
L 432.608304 209.220528 
L 432.690427 209.370925 
L 432.774926 209.52 
L 432.861779 209.667716 
L 432.950965 209.814035 
L 433.042462 209.958921 
L 433.136246 210.102337 
L 433.232293 210.244247 
L 433.33058 210.384615 
L 433.431081 210.523406 
L 433.533772 210.660585 
L 433.638627 210.796117 
L 433.745618 210.929969 
L 433.85472 211.062106 
L 433.965905 211.192496 
L 434.079144 211.321105 
L 434.19441 211.447902 
L 434.311672 211.572853 
L 434.430903 211.695929 
L 434.552071 211.817097 
L 434.675147 211.936328 
L 434.800098 212.05359 
L 434.926895 212.168856 
L 435.055504 212.282095 
L 435.185894 212.39328 
L 435.318031 212.502382 
L 435.451883 212.609373 
L 435.587415 212.714228 
L 435.724594 212.816919 
L 435.863385 212.91742 
L 436.003753 213.015707 
L 436.145663 213.111754 
L 436.289079 213.205538 
L 436.433965 213.297035 
L 436.580284 213.386221 
L 436.728 213.473074 
L 436.877075 213.557573 
L 437.027472 213.639696 
L 437.179154 213.719423 
L 437.332081 213.796733 
L 437.486215 213.871607 
L 437.641518 213.944026 
L 437.79795 214.013971 
L 437.955473 214.081426 
L 438.114045 214.146374 
L 438.273629 214.208797 
L 438.434182 214.26868 
L 438.595666 214.326009 
L 438.758039 214.380768 
L 438.92126 214.432944 
L 439.085288 214.482524 
L 439.250083 214.529495 
L 439.415602 214.573846 
L 439.581803 214.615565 
L 439.748646 214.654642 
L 439.916088 214.691066 
L 440.084087 214.72483 
L 440.2526 214.755924 
L 440.421585 214.78434 
L 440.591 214.810072 
L 440.760802 214.833112 
L 440.930947 214.853455 
L 441.101395 214.871097 
L 441.2721 214.886032 
L 441.443022 214.898256 
L 441.614115 214.907767 
L 441.785338 214.914563 
L 441.956648 214.918641 
L 442.128 214.92 
L 544.68 214.92 
z
" clip-path="url(#pabd7cab339)" style="fill: none; stroke-dasharray: 3.7,1.6; stroke-dashoffset: 0; stroke: #000000; stroke-linecap: round"/>
   </g>
   <g id="line2d_1">
    <path d="M 40.68 40.68 
L 40.68 73.44 
M 49.68 73.44 
L 31.68 73.44 
M 49.68 79.92 
L 31.68 79.92 
M 40.68 79.92 
L 40.68 112.68 
" clip-path="url(#pabd7cab339)" style="fill: none; stroke: #808080; stroke-width: 2; stroke-linecap: round"/>
   </g>
   <g id="line2d_2">
    <path d="M 40.68 112.68 
L 58.68 112.68 
L 76.68 112.68 
" clip-path="url(#pabd7cab339)" style="fill: none; stroke: #000000; stroke-width: 2; stroke-linecap: round"/>
   </g>
   <g id="line2d_3">
    <path d="M 76.68 112.68 
L 76.68 127.08 
L 67.68 127.08 
L 85.68 127.08 
M 70.38 131.4 
L 82.98 131.4 
M 74.88 135.72 
L 78.48 135.72 
" clip-path="url(#pabd7cab339)" style="fill: none; stroke: #000000; stroke-width: 2; stroke-linecap: round"/>
   </g>
   <g id="line2d_4">
    <path d="M 76.68 112.68 
L 76.68 94.68 
M 76.68 58.68 
L 94.68 76.68 
L 76.68 94.68 
L 58.68 76.68 
L 76.68 58.68 
L 76.68 40.68 
" clip-path="url(#pabd7cab339)" style="fill: none; stroke: #000000; stroke-width: 2; stroke-linecap: round"/>
   </g>
   <g id="line2d_5">
    <path d="M 76.68 76.68 
L 76.68 67.68 
" clip-path="url(#pabd7cab339)" style="fill: none; stroke: #000000; stroke-width: 2; stroke-linecap: round"/>
   </g>
   <g id="patch_4">
    <path d="M 79.38 76.68 
L 76.68 85.68 
L 73.98 76.68 
z
" clip-path="url(#pabd7cab339)"/>
   </g>
   <g id="line2d_6">
    <path d="M 76.68 40.68 
L 58.68 40.68 
L 40.68 40.68 
" clip-path="url(#pabd7cab339)" style="fill: none; stroke: #000000; stroke-width: 2; stroke-linecap: round"/>
   </g>
   <g id="line2d_7">
    <path d="M 76.68 40.68 
L 130.68 40.68 
L 184.68 40.68 
" clip-path="url(#pabd7cab339)" style="fill: none; stroke: #000000; stroke-width: 2; stroke-linecap: round"/>
   </g>
   <g id="line2d_8">
    <path d="M 184.68 40.68 
L 184.68 73.44 
M 193.68 73.44 
L 175.68 73.44 
M 193.68 79.92 
L 175.68 79.92 
M 184.68 79.92 
L 184.68 112.68 
" clip-path="url(#pabd7cab339)" style="fill: none; stroke: #808080; stroke-width: 2; stroke-linecap: round"/>
   </g>
   <g id="line2d_9">
    <path d="M 184.68 112.68 
L 202.68 112.68 
L 220.68 112.68 
" clip-path="url(#pabd7cab339)" style="fill: none; stroke: #000000; stroke-width: 2; stroke-linecap: round"/>
   </g>
   <g id="line2d_10">
    <path d="M 220.68 112.68 
L 220.68 127.08 
L 211.68 127.08 
L 229.68 127.08 
M 214.38 131.4 
L 226.98 131.4 
M 218.88 135.72 
L 222.48 135.72 
" clip-path="url(#pabd7cab339)" style="fill: none; stroke: #000000; stroke-width: 2; stroke-linecap: round"/>
   </g>
   <g id="line2d_11">
    <path d="M 220.68 112.68 
L 220.68 94.68 
M 220.68 58.68 
L 238.68 76.68 
L 220.68 94.68 
L 202.68 76.68 
L 220.68 58.68 
L 220.68 40.68 
" clip-path="url(#pabd7cab339)" style="fill: none; stroke: #000000; stroke-width: 2; stroke-linecap: round"/>
   </g>
   <g id="line2d_12">
    <path d="M 220.68 76.68 
L 220.68 67.68 
" clip-path="url(#pabd7cab339)" style="fill: none; stroke: #000000; stroke-width: 2; stroke-linecap: round"/>
   </g>
   <g id="patch_5">
    <path d="M 223.38 76.68 
L 220.68 85.68 
L 217.98 76.68 
z
" clip-path="url(#pabd7cab339)"/>
   </g>
   <g id="line2d_13">
    <path d="M 220.68 40.68 
L 274.68 40.68 
L 328.68 40.68 
" clip-path="url(#pabd7cab339)" style="fill: none; stroke: #000000; stroke-width: 2; stroke-linecap: round"/>
   </g>
   <g id="line2d_14">
    <path d="M 328.68 40.68 
L 328.68 73.44 
M 337.68 73.44 
L 319.68 73.44 
M 337.68 79.92 
L 319.68 79.92 
M 328.68 79.92 
L 328.68 112.68 
" clip-path="url(#pabd7cab339)" style="fill: none; stroke: #808080; stroke-width: 2; stroke-linecap: round"/>
   </g>
   <g id="line2d_15">
    <path d="M 328.68 112.68 
L 346.68 112.68 
L 364.68 112.68 
" clip-path="url(#pabd7cab339)" style="fill: none; stroke: #000000; stroke-width: 2; stroke-linecap: round"/>
   </g>
   <g id="line2d_16">
    <path d="M 364.68 112.68 
L 364.68 94.68 
M 364.68 58.68 
L 382.68 76.68 
L 364.68 94.68 
L 346.68 76.68 
L 364.68 58.68 
L 364.68 40.68 
" clip-path="url(#pabd7cab339)" style="fill: none; stroke: #000000; stroke-width: 2; stroke-linecap: round"/>
   </g>
   <g id="line2d_17">
    <path d="M 364.68 76.68 
L 364.68 67.68 
" clip-path="url(#pabd7cab339)" style="fill: none; stroke: #000000; stroke-width: 2; stroke-linecap: round"/>
   </g>
   <g id="patch_6">
    <path d="M 367.38 76.68 
L 364.68 85.68 
L 361.98 76.68 
z
" clip-path="url(#pabd7cab339)"/>
   </g>
   <g id="line2d_18">
    <path d="M 364.68 40.68 
L 346.68 40.68 
L 328.68 40.68 
" clip-path="url(#pabd7cab339)" style="fill: none; stroke: #000000; stroke-width: 2; stroke-linecap: round"/>
   </g>
   <g id="line2d_19">
    <path d="M 364.68 112.68 
L 364.68 127.08 
L 355.68 127.08 
L 373.68 127.08 
M 358.38 131.4 
L 370.98 131.4 
M 362.88 135.72 
L 366.48 135.72 
" clip-path="url(#pabd7cab339)" style="fill: none; stroke: #000000; stroke-width: 2; stroke-linecap: round"/>
   </g>
   <g id="line2d_20">
    <path d="M 364.68 40.68 
L 418.68 40.68 
L 472.68 40.68 
" clip-path="url(#pabd7cab339)" style="fill: none; stroke: #000000; stroke-width: 2; stroke-linecap: round"/>
   </g>
   <g id="line2d_21">
    <path d="M 472.68 40.68 
L 472.68 73.44 
M 481.68 73.44 
L 463.68 73.44 
M 481.68 79.92 
L 463.68 79.92 
M 472.68 79.92 
L 472.68 112.68 
" clip-path="url(#pabd7cab339)" style="fill: none; stroke: #808080; stroke-width: 2; stroke-linecap: round"/>
   </g>
   <g id="line2d_22">
    <path d="M 472.68 112.68 
L 481.68 112.68 
L 490.68 112.68 
" clip-path="url(#pabd7cab339)" style="fill: none; stroke: #000000; stroke-width: 2; stroke-linecap: round"/>
   </g>
   <g id="line2d_23">
    <path d="M 490.68 112.68 
L 490.68 130.68 
L 499.68 133.68 
L 481.68 139.68 
L 499.68 145.68 
L 481.68 151.68 
L 499.68 157.68 
L 481.68 163.68 
L 490.68 166.68 
L 490.68 184.68 
" clip-path="url(#pabd7cab339)" style="fill: none; stroke: #000000; stroke-width: 2; stroke-linecap: round"/>
   </g>
   <g id="line2d_24">
    <path d="M 490.68 184.68 
L 490.68 199.08 
L 481.68 199.08 
L 499.68 199.08 
M 484.38 203.4 
L 496.98 203.4 
M 488.88 207.72 
L 492.48 207.72 
" clip-path="url(#pabd7cab339)" style="fill: none; stroke: #000000; stroke-width: 2; stroke-linecap: round"/>
   </g>
   <g id="line2d_25">
    <path d="M 490.68 112.68 
L 499.68 112.68 
L 508.68 112.68 
" clip-path="url(#pabd7cab339)" style="fill: none; stroke: #000000; stroke-width: 2; stroke-linecap: round"/>
   </g>
   <g id="line2d_26">
    <path d="M 508.68 112.68 
L 508.68 94.68 
M 508.68 58.68 
L 526.68 76.68 
L 508.68 94.68 
L 490.68 76.68 
L 508.68 58.68 
L 508.68 40.68 
" clip-path="url(#pabd7cab339)" style="fill: none; stroke: #000000; stroke-width: 2; stroke-linecap: round"/>
   </g>
   <g id="line2d_27">
    <path d="M 508.68 76.68 
L 508.68 67.68 
" clip-path="url(#pabd7cab339)" style="fill: none; stroke: #000000; stroke-width: 2; stroke-linecap: round"/>
   </g>
   <g id="patch_7">
    <path d="M 511.38 76.68 
L 508.68 85.68 
L 505.98 76.68 
z
" clip-path="url(#pabd7cab339)"/>
   </g>
   <g id="line2d_28">
    <path d="M 508.68 40.68 
L 526.68 40.68 
L 544.68 40.68 
" clip-path="url(#pabd7cab339)" style="fill: none; stroke: #000000; stroke-width: 2; stroke-linecap: round"/>
   </g>
   <g id="line2d_29">
    <path d="M 544.68 40.68 
L 544.68 22.68 
L 544.68 4.68 
" clip-path="url(#pabd7cab339)" style="fill: none; stroke: #000000; stroke-width: 2; stroke-linecap: round"/>
   </g>
   <g id="line2d_30">
    <path d="M 544.68 4.68 
L 274.68 4.68 
L 4.68 4.68 
" clip-path="url(#pabd7cab339)" style="fill: none; stroke: #000000; stroke-width: 2; stroke-linecap: round"/>
   </g>
   <g id="line2d_31">
    <path d="M 4.68 4.68 
L 4.68 22.68 
L 4.68 40.68 
" clip-path="url(#pabd7cab339)" style="fill: none; stroke: #000000; stroke-width: 2; stroke-linecap: round"/>
   </g>
   <g id="line2d_32">
    <path d="M 4.68 40.68 
L 22.68 40.68 
L 40.68 40.68 
" clip-path="url(#pabd7cab339)" style="fill: none; stroke: #000000; stroke-width: 2; stroke-linecap: round"/>
   </g>
   <g id="patch_8">
    <path d="M 76.68 115.38 
C 77.396048 115.38 78.082866 115.095511 78.589188 114.589188 
C 79.095511 114.082866 79.38 113.396048 79.38 112.68 
C 79.38 111.963952 79.095511 111.277134 78.589188 110.770812 
C 78.082866 110.264489 77.396048 109.98 76.68 109.98 
C 75.963952 109.98 75.277134 110.264489 74.770812 110.770812 
C 74.264489 111.277134 73.98 111.963952 73.98 112.68 
C 73.98 113.396048 74.264489 114.082866 74.770812 114.589188 
C 75.277134 115.095511 75.963952 115.38 76.68 115.38 
z
" clip-path="url(#pabd7cab339)" style="stroke: #000000; stroke-width: 2; stroke-linejoin: miter"/>
   </g>
   <g id="patch_9">
    <path d="M 40.68 43.38 
C 41.396048 43.38 42.082866 43.095511 42.589188 42.589188 
C 43.095511 42.082866 43.38 41.396048 43.38 40.68 
C 43.38 39.963952 43.095511 39.277134 42.589188 38.770812 
C 42.082866 38.264489 41.396048 37.98 40.68 37.98 
C 39.963952 37.98 39.277134 38.264489 38.770812 38.770812 
C 38.264489 39.277134 37.98 39.963952 37.98 40.68 
C 37.98 41.396048 38.264489 42.082866 38.770812 42.589188 
C 39.277134 43.095511 39.963952 43.38 40.68 43.38 
z
" clip-path="url(#pabd7cab339)" style="stroke: #000000; stroke-width: 2; stroke-linejoin: miter"/>
   </g>
   <g id="text_1">
    <!-- $M_4$ -->
    <g transform="translate(46.61 31.0525) scale(0.16 -0.16)">
     <defs>
      <path id="DejaVuSans-Oblique-4d" d="M 1081 4666 
L 2028 4666 
L 2572 1522 
L 4378 4666 
L 5350 4666 
L 4441 0 
L 3828 0 
L 4622 4091 
L 2791 897 
L 2175 897 
L 1581 4103 
L 788 0 
L 172 0 
L 1081 4666 
z
" transform="scale(0.015625)"/>
      <path id="DejaVuSans-34" d="M 2419 4116 
L 825 1625 
L 2419 1625 
L 2419 4116 
z
M 2253 4666 
L 3047 4666 
L 3047 1625 
L 3713 1625 
L 3713 1100 
L 3047 1100 
L 3047 0 
L 2419 0 
L 2419 1100 
L 313 1100 
L 313 1709 
L 2253 4666 
z
" transform="scale(0.015625)"/>
     </defs>
     <use xlink:href="#DejaVuSans-Oblique-4d" transform="translate(0 0.09375)"/>
     <use xlink:href="#DejaVuSans-34" transform="translate(86.279297 -16.3125) scale(0.7)"/>
    </g>
   </g>
   <g id="text_2">
    <!-- $M_3$ -->
    <g transform="translate(191.96 33.7525) scale(0.16 -0.16)">
     <defs>
      <path id="DejaVuSans-33" d="M 2597 2516 
Q 3050 2419 3304 2112 
Q 3559 1806 3559 1356 
Q 3559 666 3084 287 
Q 2609 -91 1734 -91 
Q 1441 -91 1130 -33 
Q 819 25 488 141 
L 488 750 
Q 750 597 1062 519 
Q 1375 441 1716 441 
Q 2309 441 2620 675 
Q 2931 909 2931 1356 
Q 2931 1769 2642 2001 
Q 2353 2234 1838 2234 
L 1294 2234 
L 1294 2753 
L 1863 2753 
Q 2328 2753 2575 2939 
Q 2822 3125 2822 3475 
Q 2822 3834 2567 4026 
Q 2313 4219 1838 4219 
Q 1578 4219 1281 4162 
Q 984 4106 628 3988 
L 628 4550 
Q 988 4650 1302 4700 
Q 1616 4750 1894 4750 
Q 2613 4750 3031 4423 
Q 3450 4097 3450 3541 
Q 3450 3153 3228 2886 
Q 3006 2619 2597 2516 
z
" transform="scale(0.015625)"/>
     </defs>
     <use xlink:href="#DejaVuSans-Oblique-4d" transform="translate(0 0.09375)"/>
     <use xlink:href="#DejaVuSans-33" transform="translate(86.279297 -16.3125) scale(0.7)"/>
    </g>
   </g>
   <g id="patch_10">
    <path d="M 220.68 115.38 
C 221.396048 115.38 222.082866 115.095511 222.589188 114.589188 
C 223.095511 114.082866 223.38 113.396048 223.38 112.68 
C 223.38 111.963952 223.095511 111.277134 222.589188 110.770812 
C 222.082866 110.264489 221.396048 109.98 220.68 109.98 
C 219.963952 109.98 219.277134 110.264489 218.770812 110.770812 
C 218.264489 111.277134 217.98 111.963952 217.98 112.68 
C 217.98 113.396048 218.264489 114.082866 218.770812 114.589188 
C 219.277134 115.095511 219.963952 115.38 220.68 115.38 
z
" clip-path="url(#pabd7cab339)" style="stroke: #000000; stroke-width: 2; stroke-linejoin: miter"/>
   </g>
   <g id="patch_11">
    <path d="M 364.68 115.38 
C 365.396048 115.38 366.082866 115.095511 366.589188 114.589188 
C 367.095511 114.082866 367.38 113.396048 367.38 112.68 
C 367.38 111.963952 367.095511 111.277134 366.589188 110.770812 
C 366.082866 110.264489 365.396048 109.98 364.68 109.98 
C 363.963952 109.98 363.277134 110.264489 362.770812 110.770812 
C 362.264489 111.277134 361.98 111.963952 361.98 112.68 
C 361.98 113.396048 362.264489 114.082866 362.770812 114.589188 
C 363.277134 115.095511 363.963952 115.38 364.68 115.38 
z
" clip-path="url(#pabd7cab339)" style="stroke: #000000; stroke-width: 2; stroke-linejoin: miter"/>
   </g>
   <g id="patch_12">
    <path d="M 328.68 43.38 
C 329.396048 43.38 330.082866 43.095511 330.589188 42.589188 
C 331.095511 42.082866 331.38 41.396048 331.38 40.68 
C 331.38 39.963952 331.095511 39.277134 330.589188 38.770812 
C 330.082866 38.264489 329.396048 37.98 328.68 37.98 
C 327.963952 37.98 327.277134 38.264489 326.770812 38.770812 
C 326.264489 39.277134 325.98 39.963952 325.98 40.68 
C 325.98 41.396048 326.264489 42.082866 326.770812 42.589188 
C 327.277134 43.095511 327.963952 43.38 328.68 43.38 
z
" clip-path="url(#pabd7cab339)" style="stroke: #000000; stroke-width: 2; stroke-linejoin: miter"/>
   </g>
   <g id="text_3">
    <!-- $M_1$ -->
    <g transform="translate(334.61 31.0525) scale(0.16 -0.16)">
     <defs>
      <path id="DejaVuSans-31" d="M 794 531 
L 1825 531 
L 1825 4091 
L 703 3866 
L 703 4441 
L 1819 4666 
L 2450 4666 
L 2450 531 
L 3481 531 
L 3481 0 
L 794 0 
L 794 531 
z
" transform="scale(0.015625)"/>
     </defs>
     <use xlink:href="#DejaVuSans-Oblique-4d" transform="translate(0 0.09375)"/>
     <use xlink:href="#DejaVuSans-31" transform="translate(86.279297 -16.3125) scale(0.7)"/>
    </g>
   </g>
   <g id="text_4">
    <!-- $M_2$ -->
    <g transform="translate(479.96 33.7525) scale(0.16 -0.16)">
     <defs>
      <path id="DejaVuSans-32" d="M 1228 531 
L 3431 531 
L 3431 0 
L 469 0 
L 469 531 
Q 828 903 1448 1529 
Q 2069 2156 2228 2338 
Q 2531 2678 2651 2914 
Q 2772 3150 2772 3378 
Q 2772 3750 2511 3984 
Q 2250 4219 1831 4219 
Q 1534 4219 1204 4116 
Q 875 4013 500 3803 
L 500 4441 
Q 881 4594 1212 4672 
Q 1544 4750 1819 4750 
Q 2544 4750 2975 4387 
Q 3406 4025 3406 3419 
Q 3406 3131 3298 2873 
Q 3191 2616 2906 2266 
Q 2828 2175 2409 1742 
Q 1991 1309 1228 531 
z
" transform="scale(0.015625)"/>
     </defs>
     <use xlink:href="#DejaVuSans-Oblique-4d" transform="translate(0 0.09375)"/>
     <use xlink:href="#DejaVuSans-32" transform="translate(86.279297 -16.3125) scale(0.7)"/>
    </g>
   </g>
   <g id="patch_13">
    <path d="M 490.68 115.38 
C 491.396048 115.38 492.082866 115.095511 492.589188 114.589188 
C 493.095511 114.082866 493.38 113.396048 493.38 112.68 
C 493.38 111.963952 493.095511 111.277134 492.589188 110.770812 
C 492.082866 110.264489 491.396048 109.98 490.68 109.98 
C 489.963952 109.98 489.277134 110.264489 488.770812 110.770812 
C 488.264489 111.277134 487.98 111.963952 487.98 112.68 
C 487.98 113.396048 488.264489 114.082866 488.770812 114.589188 
C 489.277134 115.095511 489.963952 115.38 490.68 115.38 
z
" clip-path="url(#pabd7cab339)" style="stroke: #000000; stroke-width: 2; stroke-linejoin: miter"/>
   </g>
   <g id="text_5">
    <!-- $R_2$ -->
    <g transform="translate(459.36 153.095) scale(0.16 -0.16)">
     <defs>
      <path id="DejaVuSans-Oblique-52" d="M 1613 4147 
L 1294 2491 
L 2106 2491 
Q 2584 2491 2879 2755 
Q 3175 3019 3175 3444 
Q 3175 3784 2976 3965 
Q 2778 4147 2406 4147 
L 1613 4147 
z
M 2772 2241 
Q 2972 2194 3105 2009 
Q 3238 1825 3413 1275 
L 3809 0 
L 3144 0 
L 2778 1197 
Q 2638 1659 2453 1815 
Q 2269 1972 1888 1972 
L 1191 1972 
L 806 0 
L 172 0 
L 1081 4666 
L 2503 4666 
Q 3150 4666 3495 4373 
Q 3841 4081 3841 3531 
Q 3841 3044 3547 2687 
Q 3253 2331 2772 2241 
z
" transform="scale(0.015625)"/>
     </defs>
     <use xlink:href="#DejaVuSans-Oblique-52" transform="translate(0 0.09375)"/>
     <use xlink:href="#DejaVuSans-32" transform="translate(69.482422 -16.3125) scale(0.7)"/>
    </g>
   </g>
   <g id="text_6">
    <!-- inverting gain stage -->
    <g transform="translate(126.8675 158.6775) scale(0.16 -0.16)">
     <defs>
      <path id="DejaVuSans-69" d="M 603 3500 
L 1178 3500 
L 1178 0 
L 603 0 
L 603 3500 
z
M 603 4863 
L 1178 4863 
L 1178 4134 
L 603 4134 
L 603 4863 
z
" transform="scale(0.015625)"/>
      <path id="DejaVuSans-6e" d="M 3513 2113 
L 3513 0 
L 2938 0 
L 2938 2094 
Q 2938 2591 2744 2837 
Q 2550 3084 2163 3084 
Q 1697 3084 1428 2787 
Q 1159 2491 1159 1978 
L 1159 0 
L 581 0 
L 581 3500 
L 1159 3500 
L 1159 2956 
Q 1366 3272 1645 3428 
Q 1925 3584 2291 3584 
Q 2894 3584 3203 3211 
Q 3513 2838 3513 2113 
z
" transform="scale(0.015625)"/>
      <path id="DejaVuSans-76" d="M 191 3500 
L 800 3500 
L 1894 563 
L 2988 3500 
L 3597 3500 
L 2284 0 
L 1503 0 
L 191 3500 
z
" transform="scale(0.015625)"/>
      <path id="DejaVuSans-65" d="M 3597 1894 
L 3597 1613 
L 953 1613 
Q 991 1019 1311 708 
Q 1631 397 2203 397 
Q 2534 397 2845 478 
Q 3156 559 3463 722 
L 3463 178 
Q 3153 47 2828 -22 
Q 2503 -91 2169 -91 
Q 1331 -91 842 396 
Q 353 884 353 1716 
Q 353 2575 817 3079 
Q 1281 3584 2069 3584 
Q 2775 3584 3186 3129 
Q 3597 2675 3597 1894 
z
M 3022 2063 
Q 3016 2534 2758 2815 
Q 2500 3097 2075 3097 
Q 1594 3097 1305 2825 
Q 1016 2553 972 2059 
L 3022 2063 
z
" transform="scale(0.015625)"/>
      <path id="DejaVuSans-72" d="M 2631 2963 
Q 2534 3019 2420 3045 
Q 2306 3072 2169 3072 
Q 1681 3072 1420 2755 
Q 1159 2438 1159 1844 
L 1159 0 
L 581 0 
L 581 3500 
L 1159 3500 
L 1159 2956 
Q 1341 3275 1631 3429 
Q 1922 3584 2338 3584 
Q 2397 3584 2469 3576 
Q 2541 3569 2628 3553 
L 2631 2963 
z
" transform="scale(0.015625)"/>
      <path id="DejaVuSans-74" d="M 1172 4494 
L 1172 3500 
L 2356 3500 
L 2356 3053 
L 1172 3053 
L 1172 1153 
Q 1172 725 1289 603 
Q 1406 481 1766 481 
L 2356 481 
L 2356 0 
L 1766 0 
Q 1100 0 847 248 
Q 594 497 594 1153 
L 594 3053 
L 172 3053 
L 172 3500 
L 594 3500 
L 594 4494 
L 1172 4494 
z
" transform="scale(0.015625)"/>
      <path id="DejaVuSans-67" d="M 2906 1791 
Q 2906 2416 2648 2759 
Q 2391 3103 1925 3103 
Q 1463 3103 1205 2759 
Q 947 2416 947 1791 
Q 947 1169 1205 825 
Q 1463 481 1925 481 
Q 2391 481 2648 825 
Q 2906 1169 2906 1791 
z
M 3481 434 
Q 3481 -459 3084 -895 
Q 2688 -1331 1869 -1331 
Q 1566 -1331 1297 -1286 
Q 1028 -1241 775 -1147 
L 775 -588 
Q 1028 -725 1275 -790 
Q 1522 -856 1778 -856 
Q 2344 -856 2625 -561 
Q 2906 -266 2906 331 
L 2906 616 
Q 2728 306 2450 153 
Q 2172 0 1784 0 
Q 1141 0 747 490 
Q 353 981 353 1791 
Q 353 2603 747 3093 
Q 1141 3584 1784 3584 
Q 2172 3584 2450 3431 
Q 2728 3278 2906 2969 
L 2906 3500 
L 3481 3500 
L 3481 434 
z
" transform="scale(0.015625)"/>
      <path id="DejaVuSans-20" transform="scale(0.015625)"/>
      <path id="DejaVuSans-61" d="M 2194 1759 
Q 1497 1759 1228 1600 
Q 959 1441 959 1056 
Q 959 750 1161 570 
Q 1363 391 1709 391 
Q 2188 391 2477 730 
Q 2766 1069 2766 1631 
L 2766 1759 
L 2194 1759 
z
M 3341 1997 
L 3341 0 
L 2766 0 
L 2766 531 
Q 2569 213 2275 61 
Q 1981 -91 1556 -91 
Q 1019 -91 701 211 
Q 384 513 384 1019 
Q 384 1609 779 1909 
Q 1175 2209 1959 2209 
L 2766 2209 
L 2766 2266 
Q 2766 2663 2505 2880 
Q 2244 3097 1772 3097 
Q 1472 3097 1187 3025 
Q 903 2953 641 2809 
L 641 3341 
Q 956 3463 1253 3523 
Q 1550 3584 1831 3584 
Q 2591 3584 2966 3190 
Q 3341 2797 3341 1997 
z
" transform="scale(0.015625)"/>
      <path id="DejaVuSans-73" d="M 2834 3397 
L 2834 2853 
Q 2591 2978 2328 3040 
Q 2066 3103 1784 3103 
Q 1356 3103 1142 2972 
Q 928 2841 928 2578 
Q 928 2378 1081 2264 
Q 1234 2150 1697 2047 
L 1894 2003 
Q 2506 1872 2764 1633 
Q 3022 1394 3022 966 
Q 3022 478 2636 193 
Q 2250 -91 1575 -91 
Q 1294 -91 989 -36 
Q 684 19 347 128 
L 347 722 
Q 666 556 975 473 
Q 1284 391 1588 391 
Q 1994 391 2212 530 
Q 2431 669 2431 922 
Q 2431 1156 2273 1281 
Q 2116 1406 1581 1522 
L 1381 1569 
Q 847 1681 609 1914 
Q 372 2147 372 2553 
Q 372 3047 722 3315 
Q 1072 3584 1716 3584 
Q 2034 3584 2315 3537 
Q 2597 3491 2834 3397 
z
" transform="scale(0.015625)"/>
     </defs>
     <use xlink:href="#DejaVuSans-69"/>
     <use xlink:href="#DejaVuSans-6e" x="27.783203"/>
     <use xlink:href="#DejaVuSans-76" x="91.162109"/>
     <use xlink:href="#DejaVuSans-65" x="150.341797"/>
     <use xlink:href="#DejaVuSans-72" x="211.865234"/>
     <use xlink:href="#DejaVuSans-74" x="252.978516"/>
     <use xlink:href="#DejaVuSans-69" x="292.1875"/>
     <use xlink:href="#DejaVuSans-6e" x="319.970703"/>
     <use xlink:href="#DejaVuSans-67" x="383.349609"/>
     <use xlink:href="#DejaVuSans-20" x="446.826172"/>
     <use xlink:href="#DejaVuSans-67" x="478.613281"/>
     <use xlink:href="#DejaVuSans-61" x="542.089844"/>
     <use xlink:href="#DejaVuSans-69" x="603.369141"/>
     <use xlink:href="#DejaVuSans-6e" x="631.152344"/>
     <use xlink:href="#DejaVuSans-20" x="694.53125"/>
     <use xlink:href="#DejaVuSans-73" x="726.318359"/>
     <use xlink:href="#DejaVuSans-74" x="778.417969"/>
     <use xlink:href="#DejaVuSans-61" x="817.626953"/>
     <use xlink:href="#DejaVuSans-67" x="878.90625"/>
     <use xlink:href="#DejaVuSans-65" x="942.382812"/>
    </g>
   </g>
   <g id="text_7">
    <!-- inverting gain stage -->
    <g transform="translate(413.0915 230.6775) scale(0.16 -0.16)">
     <use xlink:href="#DejaVuSans-69"/>
     <use xlink:href="#DejaVuSans-6e" x="27.783203"/>
     <use xlink:href="#DejaVuSans-76" x="91.162109"/>
     <use xlink:href="#DejaVuSans-65" x="150.341797"/>
     <use xlink:href="#DejaVuSans-72" x="211.865234"/>
     <use xlink:href="#DejaVuSans-74" x="252.978516"/>
     <use xlink:href="#DejaVuSans-69" x="292.1875"/>
     <use xlink:href="#DejaVuSans-6e" x="319.970703"/>
     <use xlink:href="#DejaVuSans-67" x="383.349609"/>
     <use xlink:href="#DejaVuSans-20" x="446.826172"/>
     <use xlink:href="#DejaVuSans-67" x="478.613281"/>
     <use xlink:href="#DejaVuSans-61" x="542.089844"/>
     <use xlink:href="#DejaVuSans-69" x="603.369141"/>
     <use xlink:href="#DejaVuSans-6e" x="631.152344"/>
     <use xlink:href="#DejaVuSans-20" x="694.53125"/>
     <use xlink:href="#DejaVuSans-73" x="726.318359"/>
     <use xlink:href="#DejaVuSans-74" x="778.417969"/>
     <use xlink:href="#DejaVuSans-61" x="817.626953"/>
     <use xlink:href="#DejaVuSans-67" x="878.90625"/>
     <use xlink:href="#DejaVuSans-65" x="942.382812"/>
    </g>
   </g>
  </g>
 </g>
 <defs>
  <clipPath id="pabd7cab339">
   <rect x="0" y="0" width="568.404" height="236"/>
  </clipPath>
 </defs>
</svg>
