<?xml version="1.0" encoding="utf-8" standalone="no"?>
<!DOCTYPE svg PUBLIC "-//W3C//DTD SVG 1.1//EN"
  "http://www.w3.org/Graphics/SVG/1.1/DTD/svg11.dtd">
<svg xmlns:xlink="http://www.w3.org/1999/xlink" width="490.142286pt" height="126.36pt" viewBox="0 0 490.142286 126.36" xmlns="http://www.w3.org/2000/svg" version="1.1">
 <metadata>
  <rdf:RDF xmlns:dc="http://purl.org/dc/elements/1.1/" xmlns:cc="http://creativecommons.org/ns#" xmlns:rdf="http://www.w3.org/1999/02/22-rdf-syntax-ns#">
   <cc:Work>
    <dc:type rdf:resource="http://purl.org/dc/dcmitype/StillImage"/>
    <dc:date>2025-03-25T23:31:44.114677</dc:date>
    <dc:format>image/svg+xml</dc:format>
    <dc:creator>
     <cc:Agent>
      <dc:title>Matplotlib v3.9.2, https://matplotlib.org/</dc:title>
     </cc:Agent>
    </dc:creator>
   </cc:Work>
  </rdf:RDF>
 </metadata>
 <defs>
  <style type="text/css">*{stroke-linejoin: round; stroke-linecap: butt}</style>
 </defs>
 <g id="figure_1">
  <g id="patch_1">
   <path d="M 0 126.36 
L 490.142286 126.36 
L 490.142286 0 
L 0 0 
z
" style="fill: #ffffff"/>
  </g>
  <g id="axes_1">
   <g id="line2d_1">
    <path d="M 182.916 49.68 
L 182.916 94.68 
L 260.858286 49.68 
L 182.916 4.68 
L 182.916 49.68 
M 260.858286 49.68 
" clip-path="url(#p05eabfc4de)" style="fill: none; stroke: #000000; stroke-width: 2; stroke-linecap: round"/>
   </g>
   <g id="line2d_2">
    <path d="M 189.058786 72.18 
L 196.258786 72.18 
" clip-path="url(#p05eabfc4de)" style="fill: none; stroke: #000000; stroke-width: 2; stroke-linecap: round"/>
   </g>
   <g id="line2d_3">
    <path d="M 189.058786 27.18 
L 196.258786 27.18 
" clip-path="url(#p05eabfc4de)" style="fill: none; stroke: #000000; stroke-width: 2; stroke-linecap: round"/>
   </g>
   <g id="line2d_4">
    <path d="M 192.658786 23.58 
L 192.658786 30.78 
" clip-path="url(#p05eabfc4de)" style="fill: none; stroke: #000000; stroke-width: 2; stroke-linecap: round"/>
   </g>
   <g id="line2d_5">
    <path d="M 182.916 27.18 
L 146.916 27.18 
L 110.916 27.18 
" clip-path="url(#p05eabfc4de)" style="fill: none; stroke: #000000; stroke-width: 2; stroke-linecap: round"/>
   </g>
   <g id="line2d_6">
    <path d="M 260.858286 49.68 
L 278.858286 49.68 
L 296.858286 49.68 
" clip-path="url(#p05eabfc4de)" style="fill: none; stroke: #000000; stroke-width: 2; stroke-linecap: round"/>
   </g>
   <g id="line2d_7">
    <path d="M 296.858286 49.68 
L 332.858286 49.68 
L 368.858286 49.68 
" clip-path="url(#p05eabfc4de)" style="fill: none; stroke: #000000; stroke-width: 2; stroke-linecap: round"/>
   </g>
   <g id="line2d_8">
    <path d="M 296.858286 49.68 
L 296.858286 85.68 
L 296.858286 121.68 
" clip-path="url(#p05eabfc4de)" style="fill: none; stroke: #000000; stroke-width: 2; stroke-linecap: round"/>
   </g>
   <g id="line2d_9">
    <path d="M 296.858286 121.68 
L 224.858286 121.68 
L 152.858286 121.68 
" clip-path="url(#p05eabfc4de)" style="fill: none; stroke: #000000; stroke-width: 2; stroke-linecap: round"/>
   </g>
   <g id="line2d_10">
    <path d="M 152.858286 121.68 
L 152.858286 96.93 
L 152.858286 72.18 
" clip-path="url(#p05eabfc4de)" style="fill: none; stroke: #000000; stroke-width: 2; stroke-linecap: round"/>
   </g>
   <g id="line2d_11">
    <path d="M 152.858286 72.18 
L 167.887143 72.18 
L 182.916 72.18 
" clip-path="url(#p05eabfc4de)" style="fill: none; stroke: #000000; stroke-width: 2; stroke-linecap: round"/>
   </g>
   <g id="patch_2">
    <path d="M 110.916 29.88 
C 111.632048 29.88 112.318866 29.595511 112.825188 29.089188 
C 113.331511 28.582866 113.616 27.896048 113.616 27.18 
C 113.616 26.463952 113.331511 25.777134 112.825188 25.270812 
C 112.318866 24.764489 111.632048 24.48 110.916 24.48 
C 110.199952 24.48 109.513134 24.764489 109.006812 25.270812 
C 108.500489 25.777134 108.216 26.463952 108.216 27.18 
C 108.216 27.896048 108.500489 28.582866 109.006812 29.089188 
C 109.513134 29.595511 110.199952 29.88 110.916 29.88 
z
" clip-path="url(#p05eabfc4de)" style="fill: #ffffff; stroke: #000000; stroke-width: 2; stroke-linejoin: miter"/>
   </g>
   <g id="text_1">
    <!-- $v_\mathrm{in}$ -->
    <g transform="translate(84.456 31.595) scale(0.16 -0.16)">
     <defs>
      <path id="DejaVuSans-Oblique-76" d="M 459 3500 
L 1069 3500 
L 1581 525 
L 3256 3500 
L 3866 3500 
L 1875 0 
L 1100 0 
L 459 3500 
z
" transform="scale(0.015625)"/>
      <path id="DejaVuSans-69" d="M 603 3500 
L 1178 3500 
L 1178 0 
L 603 0 
L 603 3500 
z
M 603 4863 
L 1178 4863 
L 1178 4134 
L 603 4134 
L 603 4863 
z
" transform="scale(0.015625)"/>
      <path id="DejaVuSans-6e" d="M 3513 2113 
L 3513 0 
L 2938 0 
L 2938 2094 
Q 2938 2591 2744 2837 
Q 2550 3084 2163 3084 
Q 1697 3084 1428 2787 
Q 1159 2491 1159 1978 
L 1159 0 
L 581 0 
L 581 3500 
L 1159 3500 
L 1159 2956 
Q 1366 3272 1645 3428 
Q 1925 3584 2291 3584 
Q 2894 3584 3203 3211 
Q 3513 2838 3513 2113 
z
" transform="scale(0.015625)"/>
     </defs>
     <use xlink:href="#DejaVuSans-Oblique-76" transform="translate(0 0.3125)"/>
     <use xlink:href="#DejaVuSans-69" transform="translate(59.179688 -16.09375) scale(0.7)"/>
     <use xlink:href="#DejaVuSans-6e" transform="translate(78.62793 -16.09375) scale(0.7)"/>
    </g>
   </g>
   <g id="patch_3">
    <path d="M 296.858286 52.38 
C 297.574335 52.38 298.261152 52.095511 298.767475 51.589188 
C 299.273797 51.082866 299.558286 50.396048 299.558286 49.68 
C 299.558286 48.963952 299.273797 48.277134 298.767475 47.770812 
C 298.261152 47.264489 297.574335 46.98 296.858286 46.98 
C 296.142238 46.98 295.455421 47.264489 294.949098 47.770812 
C 294.442775 48.277134 294.158286 48.963952 294.158286 49.68 
C 294.158286 50.396048 294.442775 51.082866 294.949098 51.589188 
C 295.455421 52.095511 296.142238 52.38 296.858286 52.38 
z
" clip-path="url(#p05eabfc4de)" style="stroke: #000000; stroke-width: 2; stroke-linejoin: miter"/>
   </g>
   <g id="patch_4">
    <path d="M 368.858286 52.38 
C 369.574335 52.38 370.261152 52.095511 370.767475 51.589188 
C 371.273797 51.082866 371.558286 50.396048 371.558286 49.68 
C 371.558286 48.963952 371.273797 48.277134 370.767475 47.770812 
C 370.261152 47.264489 369.574335 46.98 368.858286 46.98 
C 368.142238 46.98 367.455421 47.264489 366.949098 47.770812 
C 366.442775 48.277134 366.158286 48.963952 366.158286 49.68 
C 366.158286 50.396048 366.442775 51.082866 366.949098 51.589188 
C 367.455421 52.095511 368.142238 52.38 368.858286 52.38 
z
" clip-path="url(#p05eabfc4de)" style="fill: #ffffff; stroke: #000000; stroke-width: 2; stroke-linejoin: miter"/>
   </g>
   <g id="text_2">
    <!-- $v_\mathrm{out}$ -->
    <g transform="translate(375.158286 54.095) scale(0.16 -0.16)">
     <defs>
      <path id="DejaVuSans-6f" d="M 1959 3097 
Q 1497 3097 1228 2736 
Q 959 2375 959 1747 
Q 959 1119 1226 758 
Q 1494 397 1959 397 
Q 2419 397 2687 759 
Q 2956 1122 2956 1747 
Q 2956 2369 2687 2733 
Q 2419 3097 1959 3097 
z
M 1959 3584 
Q 2709 3584 3137 3096 
Q 3566 2609 3566 1747 
Q 3566 888 3137 398 
Q 2709 -91 1959 -91 
Q 1206 -91 779 398 
Q 353 888 353 1747 
Q 353 2609 779 3096 
Q 1206 3584 1959 3584 
z
" transform="scale(0.015625)"/>
      <path id="DejaVuSans-75" d="M 544 1381 
L 544 3500 
L 1119 3500 
L 1119 1403 
Q 1119 906 1312 657 
Q 1506 409 1894 409 
Q 2359 409 2629 706 
Q 2900 1003 2900 1516 
L 2900 3500 
L 3475 3500 
L 3475 0 
L 2900 0 
L 2900 538 
Q 2691 219 2414 64 
Q 2138 -91 1772 -91 
Q 1169 -91 856 284 
Q 544 659 544 1381 
z
M 1991 3584 
L 1991 3584 
z
" transform="scale(0.015625)"/>
      <path id="DejaVuSans-74" d="M 1172 4494 
L 1172 3500 
L 2356 3500 
L 2356 3053 
L 1172 3053 
L 1172 1153 
Q 1172 725 1289 603 
Q 1406 481 1766 481 
L 2356 481 
L 2356 0 
L 1766 0 
Q 1100 0 847 248 
Q 594 497 594 1153 
L 594 3053 
L 172 3053 
L 172 3500 
L 594 3500 
L 594 4494 
L 1172 4494 
z
" transform="scale(0.015625)"/>
     </defs>
     <use xlink:href="#DejaVuSans-Oblique-76" transform="translate(0 0.3125)"/>
     <use xlink:href="#DejaVuSans-6f" transform="translate(59.179688 -16.09375) scale(0.7)"/>
     <use xlink:href="#DejaVuSans-75" transform="translate(102.006836 -16.09375) scale(0.7)"/>
     <use xlink:href="#DejaVuSans-74" transform="translate(146.37207 -16.09375) scale(0.7)"/>
    </g>
   </g>
  </g>
 </g>
 <defs>
  <clipPath id="p05eabfc4de">
   <rect x="0" y="-0" width="490.142286" height="126.36"/>
  </clipPath>
 </defs>
</svg>
