<?xml version="1.0" encoding="utf-8" standalone="no"?>
<!DOCTYPE svg PUBLIC "-//W3C//DTD SVG 1.1//EN"
  "http://www.w3.org/Graphics/SVG/1.1/DTD/svg11.dtd">
<svg xmlns:xlink="http://www.w3.org/1999/xlink" width="314.832pt" height="397.44pt" viewBox="0 0 314.832 397.44" xmlns="http://www.w3.org/2000/svg" version="1.1">
 <metadata>
  <rdf:RDF xmlns:dc="http://purl.org/dc/elements/1.1/" xmlns:cc="http://creativecommons.org/ns#" xmlns:rdf="http://www.w3.org/1999/02/22-rdf-syntax-ns#">
   <cc:Work>
    <dc:type rdf:resource="http://purl.org/dc/dcmitype/StillImage"/>
    <dc:date>2025-03-25T17:47:26.469567</dc:date>
    <dc:format>image/svg+xml</dc:format>
    <dc:creator>
     <cc:Agent>
      <dc:title>Matplotlib v3.9.2, https://matplotlib.org/</dc:title>
     </cc:Agent>
    </dc:creator>
   </cc:Work>
  </rdf:RDF>
 </metadata>
 <defs>
  <style type="text/css">*{stroke-linejoin: round; stroke-linecap: butt}</style>
 </defs>
 <g id="figure_1">
  <g id="patch_1">
   <path d="M 0 397.44 
L 314.832 397.44 
L 314.832 0 
L 0 0 
z
" style="fill: #ffffff"/>
  </g>
  <g id="axes_1">
   <g id="patch_2">
    <path d="M 273.288 171.72 
C 278.061656 171.72 282.640438 169.823406 286.015922 166.447922 
C 289.391406 163.072438 291.288 158.493656 291.288 153.72 
C 291.288 148.946344 289.391406 144.367562 286.015922 140.992078 
C 282.640438 137.616594 278.061656 135.72 273.288 135.72 
C 268.514344 135.72 263.935562 137.616594 260.560078 140.992078 
C 257.184594 144.367562 255.288 148.946344 255.288 153.72 
C 255.288 158.493656 257.184594 163.072438 260.560078 166.447922 
C 263.935562 169.823406 268.514344 171.72 273.288 171.72 
L 273.288 171.72 
z
" clip-path="url(#p80e99dec94)" style="fill: none; stroke: #0000ff; stroke-width: 2; stroke-linejoin: miter"/>
   </g>
   <g id="line2d_1">
    <path d="M 219.288 117.72 
L 219.288 135.72 
L 237.288 153.72 
L 219.288 171.72 
L 201.288 153.72 
L 219.288 135.72 
M 219.288 171.72 
L 219.288 189.72 
" clip-path="url(#p80e99dec94)" style="fill: none; stroke: #000000; stroke-width: 2; stroke-linecap: round"/>
   </g>
   <g id="line2d_2">
    <path d="M 219.288 144.72 
L 219.288 153.72 
" clip-path="url(#p80e99dec94)" style="fill: none; stroke: #000000; stroke-width: 2; stroke-linecap: round"/>
   </g>
   <g id="patch_3">
    <path d="M 221.988 153.72 
L 219.288 162.72 
L 216.588 153.72 
z
" clip-path="url(#p80e99dec94)"/>
   </g>
   <g id="line2d_3">
    <path d="M 219.288 117.72 
L 219.288 99.72 
L 219.288 81.72 
" clip-path="url(#p80e99dec94)" style="fill: none; stroke: #000000; stroke-width: 2; stroke-linecap: round"/>
   </g>
   <g id="line2d_4">
    <path d="M 219.288 81.72 
L 246.288 81.72 
L 273.288 81.72 
" clip-path="url(#p80e99dec94)" style="fill: none; stroke: #000000; stroke-width: 2; stroke-linecap: round"/>
   </g>
   <g id="line2d_5">
    <path d="M 273.288 81.72 
L 273.288 99.72 
L 273.288 117.72 
" clip-path="url(#p80e99dec94)" style="fill: none; stroke: #0000ff; stroke-width: 2; stroke-linecap: round"/>
   </g>
   <g id="line2d_6">
    <path d="M 273.288 117.72 
L 273.288 135.72 
L 273.288 135.72 
M 273.288 171.72 
L 273.288 171.72 
L 273.288 189.72 
" clip-path="url(#p80e99dec94)" style="fill: none; stroke: #0000ff; stroke-width: 2; stroke-linecap: round"/>
   </g>
   <g id="line2d_7">
    <path d="M 273.288 144.72 
L 273.288 153.72 
" clip-path="url(#p80e99dec94)" style="fill: none; stroke: #0000ff; stroke-width: 2; stroke-linecap: round"/>
   </g>
   <g id="patch_4">
    <path d="M 275.988 153.72 
L 273.288 162.72 
L 270.588 153.72 
z
" clip-path="url(#p80e99dec94)" style="fill: #0000ff"/>
   </g>
   <g id="line2d_8">
    <path d="M 219.288 189.72 
L 219.288 207.72 
L 219.288 225.72 
" clip-path="url(#p80e99dec94)" style="fill: none; stroke: #000000; stroke-width: 2; stroke-linecap: round"/>
   </g>
   <g id="line2d_9">
    <path d="M 219.288 225.72 
L 246.288 225.72 
L 273.288 225.72 
" clip-path="url(#p80e99dec94)" style="fill: none; stroke: #000000; stroke-width: 2; stroke-linecap: round"/>
   </g>
   <g id="line2d_10">
    <path d="M 273.288 225.72 
L 273.288 207.72 
L 273.288 189.72 
" clip-path="url(#p80e99dec94)" style="fill: none; stroke: #0000ff; stroke-width: 2; stroke-linecap: round"/>
   </g>
   <g id="line2d_11">
    <path d="M 219.288 225.72 
L 219.288 261.72 
L 219.288 297.72 
" clip-path="url(#p80e99dec94)" style="fill: none; stroke: #000000; stroke-width: 2; stroke-linecap: round"/>
   </g>
   <g id="line2d_12">
    <path d="M 219.288 297.72 
L 219.288 315.72 
L 228.288 318.72 
L 210.288 324.72 
L 228.288 330.72 
L 210.288 336.72 
L 228.288 342.72 
L 210.288 348.72 
L 219.288 351.72 
L 219.288 369.72 
" clip-path="url(#p80e99dec94)" style="fill: none; stroke: #000000; stroke-width: 2; stroke-linecap: round"/>
   </g>
   <g id="line2d_13">
    <path d="M 219.288 297.72 
L 246.288 297.72 
L 273.288 297.72 
" clip-path="url(#p80e99dec94)" style="fill: none; stroke: #000000; stroke-width: 2; stroke-linecap: round"/>
   </g>
   <g id="line2d_14">
    <path d="M 273.288 297.72 
L 273.288 315.72 
L 282.288 318.72 
L 264.288 324.72 
L 282.288 330.72 
L 264.288 336.72 
L 282.288 342.72 
L 264.288 348.72 
L 273.288 351.72 
L 273.288 369.72 
" clip-path="url(#p80e99dec94)" style="fill: none; stroke: #000000; stroke-width: 2; stroke-linecap: round"/>
   </g>
   <g id="line2d_15">
    <path d="M 273.288 369.72 
L 273.288 384.12 
L 264.288 384.12 
L 282.288 384.12 
M 266.988 388.44 
L 279.588 388.44 
M 271.488 392.76 
L 275.088 392.76 
" clip-path="url(#p80e99dec94)" style="fill: none; stroke: #000000; stroke-width: 2; stroke-linecap: round"/>
   </g>
   <g id="line2d_16">
    <path d="M 219.288 369.72 
L 219.288 384.12 
L 210.288 384.12 
L 228.288 384.12 
M 212.988 388.44 
L 225.588 388.44 
M 217.488 392.76 
L 221.088 392.76 
" clip-path="url(#p80e99dec94)" style="fill: none; stroke: #000000; stroke-width: 2; stroke-linecap: round"/>
   </g>
   <g id="line2d_17">
    <path d="M 219.288 81.72 
L 219.288 54.72 
L 219.288 27.72 
" clip-path="url(#p80e99dec94)" style="fill: none; stroke: #000000; stroke-width: 2; stroke-linecap: round"/>
   </g>
   <g id="line2d_18">
    <path d="M 219.288 27.72 
L 219.288 13.32 
L 228.288 13.32 
L 210.288 13.32 
M 225.588 9 
L 212.988 9 
M 221.088 4.68 
L 217.488 4.68 
" clip-path="url(#p80e99dec94)" style="fill: none; stroke: #000000; stroke-width: 2; stroke-linecap: round"/>
   </g>
   <g id="line2d_19">
    <path d="M 111.288 153.72 
L 75.288 153.72 
L 39.288 153.72 
" clip-path="url(#p80e99dec94)" style="fill: none; stroke: #000000; stroke-width: 2; stroke-linecap: round"/>
   </g>
   <g id="line2d_20">
    <path d="M 39.288 153.72 
L 24.888 153.72 
L 24.888 144.72 
L 24.888 162.72 
M 20.568 147.42 
L 20.568 160.02 
M 16.248 151.92 
L 16.248 155.52 
" clip-path="url(#p80e99dec94)" style="fill: none; stroke: #000000; stroke-width: 2; stroke-linecap: round"/>
   </g>
   <g id="text_1">
    <!-- $g_m v_{gs}$ -->
    <g transform="translate(153.208 156.5025) scale(0.16 -0.16)">
     <defs>
      <path id="DejaVuSans-Oblique-67" d="M 3816 3500 
L 3219 434 
Q 3047 -456 2561 -893 
Q 2075 -1331 1253 -1331 
Q 950 -1331 690 -1286 
Q 431 -1241 206 -1147 
L 313 -588 
Q 525 -725 762 -790 
Q 1000 -856 1269 -856 
Q 1816 -856 2167 -557 
Q 2519 -259 2631 300 
L 2681 563 
Q 2441 288 2122 144 
Q 1803 0 1434 0 
Q 903 0 598 351 
Q 294 703 294 1319 
Q 294 1803 478 2267 
Q 663 2731 997 3091 
Q 1219 3328 1514 3456 
Q 1809 3584 2131 3584 
Q 2484 3584 2746 3420 
Q 3009 3256 3138 2956 
L 3238 3500 
L 3816 3500 
z
M 2950 2216 
Q 2950 2641 2750 2872 
Q 2550 3103 2181 3103 
Q 1953 3103 1747 3012 
Q 1541 2922 1394 2759 
Q 1156 2491 1023 2127 
Q 891 1763 891 1375 
Q 891 944 1092 712 
Q 1294 481 1672 481 
Q 2219 481 2584 976 
Q 2950 1472 2950 2216 
z
" transform="scale(0.015625)"/>
      <path id="DejaVuSans-Oblique-6d" d="M 5747 2113 
L 5338 0 
L 4763 0 
L 5166 2094 
Q 5191 2228 5203 2325 
Q 5216 2422 5216 2491 
Q 5216 2772 5059 2928 
Q 4903 3084 4622 3084 
Q 4203 3084 3875 2770 
Q 3547 2456 3450 1953 
L 3066 0 
L 2491 0 
L 2900 2094 
Q 2925 2209 2937 2307 
Q 2950 2406 2950 2484 
Q 2950 2769 2794 2926 
Q 2638 3084 2363 3084 
Q 1938 3084 1609 2770 
Q 1281 2456 1184 1953 
L 800 0 
L 225 0 
L 909 3500 
L 1484 3500 
L 1375 2956 
Q 1609 3263 1923 3423 
Q 2238 3584 2597 3584 
Q 2978 3584 3223 3384 
Q 3469 3184 3519 2828 
Q 3781 3197 4126 3390 
Q 4472 3584 4856 3584 
Q 5306 3584 5551 3325 
Q 5797 3066 5797 2591 
Q 5797 2488 5784 2364 
Q 5772 2241 5747 2113 
z
" transform="scale(0.015625)"/>
      <path id="DejaVuSans-Oblique-76" d="M 459 3500 
L 1069 3500 
L 1581 525 
L 3256 3500 
L 3866 3500 
L 1875 0 
L 1100 0 
L 459 3500 
z
" transform="scale(0.015625)"/>
      <path id="DejaVuSans-Oblique-73" d="M 3200 3397 
L 3091 2853 
Q 2863 2978 2609 3040 
Q 2356 3103 2088 3103 
Q 1634 3103 1373 2948 
Q 1113 2794 1113 2528 
Q 1113 2219 1719 2053 
Q 1766 2041 1788 2034 
L 1972 1978 
Q 2547 1819 2739 1644 
Q 2931 1469 2931 1166 
Q 2931 609 2489 259 
Q 2047 -91 1331 -91 
Q 1053 -91 747 -37 
Q 441 16 72 128 
L 184 722 
Q 500 559 806 475 
Q 1113 391 1394 391 
Q 1816 391 2080 572 
Q 2344 753 2344 1031 
Q 2344 1331 1650 1516 
L 1591 1531 
L 1394 1581 
Q 956 1697 753 1886 
Q 550 2075 550 2369 
Q 550 2928 970 3256 
Q 1391 3584 2113 3584 
Q 2397 3584 2667 3537 
Q 2938 3491 3200 3397 
z
" transform="scale(0.015625)"/>
     </defs>
     <use xlink:href="#DejaVuSans-Oblique-67"/>
     <use xlink:href="#DejaVuSans-Oblique-6d" transform="translate(63.476562 -16.40625) scale(0.7)"/>
     <use xlink:href="#DejaVuSans-Oblique-76" transform="translate(134.399414 0)"/>
     <use xlink:href="#DejaVuSans-Oblique-67" transform="translate(193.579102 -16.40625) scale(0.7)"/>
     <use xlink:href="#DejaVuSans-Oblique-73" transform="translate(238.012695 -16.40625) scale(0.7)"/>
    </g>
   </g>
   <g id="text_2">
    <!-- $i_x$ -->
    <g style="fill: #0000ff" transform="translate(294.888 158.135) scale(0.16 -0.16)">
     <defs>
      <path id="DejaVuSans-Oblique-69" d="M 1172 4863 
L 1747 4863 
L 1606 4134 
L 1031 4134 
L 1172 4863 
z
M 909 3500 
L 1484 3500 
L 800 0 
L 225 0 
L 909 3500 
z
" transform="scale(0.015625)"/>
      <path id="DejaVuSans-Oblique-78" d="M 3841 3500 
L 2234 1784 
L 3219 0 
L 2559 0 
L 1819 1388 
L 531 0 
L -166 0 
L 1556 1844 
L 641 3500 
L 1300 3500 
L 1972 2234 
L 3144 3500 
L 3841 3500 
z
" transform="scale(0.015625)"/>
     </defs>
     <use xlink:href="#DejaVuSans-Oblique-69" transform="translate(0 0.015625)"/>
     <use xlink:href="#DejaVuSans-Oblique-78" transform="translate(27.783203 -16.390625) scale(0.7)"/>
    </g>
   </g>
   <g id="patch_5">
    <path d="M 219.288 228.42 
C 220.004048 228.42 220.690866 228.135511 221.197188 227.629188 
C 221.703511 227.122866 221.988 226.436048 221.988 225.72 
C 221.988 225.003952 221.703511 224.317134 221.197188 223.810812 
C 220.690866 223.304489 220.004048 223.02 219.288 223.02 
C 218.571952 223.02 217.885134 223.304489 217.378812 223.810812 
C 216.872489 224.317134 216.588 225.003952 216.588 225.72 
C 216.588 226.436048 216.872489 227.122866 217.378812 227.629188 
C 217.885134 228.135511 218.571952 228.42 219.288 228.42 
z
" clip-path="url(#p80e99dec94)" style="stroke: #000000; stroke-width: 2; stroke-linejoin: miter"/>
   </g>
   <g id="text_3">
    <!-- $S$ -->
    <g transform="translate(202.748 213.485) scale(0.16 -0.16)">
     <defs>
      <path id="DejaVuSans-Oblique-53" d="M 3859 4513 
L 3738 3897 
Q 3422 4066 3111 4152 
Q 2800 4238 2509 4238 
Q 1944 4238 1609 3991 
Q 1275 3744 1275 3334 
Q 1275 3109 1398 2989 
Q 1522 2869 2034 2731 
L 2413 2638 
Q 3053 2472 3303 2217 
Q 3553 1963 3553 1503 
Q 3553 797 2998 353 
Q 2444 -91 1538 -91 
Q 1166 -91 791 -17 
Q 416 56 38 206 
L 166 856 
Q 513 641 861 531 
Q 1209 422 1556 422 
Q 2147 422 2503 684 
Q 2859 947 2859 1369 
Q 2859 1650 2717 1795 
Q 2575 1941 2106 2059 
L 1728 2156 
Q 1081 2325 845 2545 
Q 609 2766 609 3163 
Q 609 3859 1145 4304 
Q 1681 4750 2541 4750 
Q 2875 4750 3203 4690 
Q 3531 4631 3859 4513 
z
" transform="scale(0.015625)"/>
     </defs>
     <use xlink:href="#DejaVuSans-Oblique-53" transform="translate(0 0.78125)"/>
    </g>
   </g>
   <g id="text_4">
    <!-- $R_S$ -->
    <g transform="translate(187.968 338.135) scale(0.16 -0.16)">
     <defs>
      <path id="DejaVuSans-Oblique-52" d="M 1613 4147 
L 1294 2491 
L 2106 2491 
Q 2584 2491 2879 2755 
Q 3175 3019 3175 3444 
Q 3175 3784 2976 3965 
Q 2778 4147 2406 4147 
L 1613 4147 
z
M 2772 2241 
Q 2972 2194 3105 2009 
Q 3238 1825 3413 1275 
L 3809 0 
L 3144 0 
L 2778 1197 
Q 2638 1659 2453 1815 
Q 2269 1972 1888 1972 
L 1191 1972 
L 806 0 
L 172 0 
L 1081 4666 
L 2503 4666 
Q 3150 4666 3495 4373 
Q 3841 4081 3841 3531 
Q 3841 3044 3547 2687 
Q 3253 2331 2772 2241 
z
" transform="scale(0.015625)"/>
     </defs>
     <use xlink:href="#DejaVuSans-Oblique-52" transform="translate(0 0.09375)"/>
     <use xlink:href="#DejaVuSans-Oblique-53" transform="translate(69.482422 -16.3125) scale(0.7)"/>
    </g>
   </g>
   <g id="text_5">
    <!-- $r_o$ -->
    <g transform="translate(285.888 338.135) scale(0.16 -0.16)">
     <defs>
      <path id="DejaVuSans-Oblique-72" d="M 2853 2969 
Q 2766 3016 2653 3041 
Q 2541 3066 2413 3066 
Q 1953 3066 1609 2717 
Q 1266 2369 1153 1784 
L 800 0 
L 225 0 
L 909 3500 
L 1484 3500 
L 1375 2956 
Q 1603 3259 1920 3421 
Q 2238 3584 2597 3584 
Q 2691 3584 2781 3573 
Q 2872 3563 2963 3538 
L 2853 2969 
z
" transform="scale(0.015625)"/>
      <path id="DejaVuSans-Oblique-6f" d="M 1625 -91 
Q 1009 -91 651 289 
Q 294 669 294 1325 
Q 294 1706 417 2101 
Q 541 2497 738 2766 
Q 1047 3184 1428 3384 
Q 1809 3584 2291 3584 
Q 2888 3584 3255 3212 
Q 3622 2841 3622 2241 
Q 3622 1825 3500 1412 
Q 3378 1000 3181 728 
Q 2875 309 2494 109 
Q 2113 -91 1625 -91 
z
M 891 1344 
Q 891 869 1089 633 
Q 1288 397 1691 397 
Q 2269 397 2648 901 
Q 3028 1406 3028 2181 
Q 3028 2634 2825 2865 
Q 2622 3097 2228 3097 
Q 1903 3097 1650 2945 
Q 1397 2794 1197 2484 
Q 1050 2253 970 1956 
Q 891 1659 891 1344 
z
" transform="scale(0.015625)"/>
     </defs>
     <use xlink:href="#DejaVuSans-Oblique-72"/>
     <use xlink:href="#DejaVuSans-Oblique-6f" transform="translate(41.113281 -16.40625) scale(0.7)"/>
    </g>
   </g>
   <g id="text_6">
    <!-- $v_{in}=0$ -->
    <g transform="translate(2.728 137.7925) scale(0.16 -0.16)">
     <defs>
      <path id="DejaVuSans-Oblique-6e" d="M 3566 2113 
L 3156 0 
L 2578 0 
L 2988 2091 
Q 3016 2238 3031 2350 
Q 3047 2463 3047 2528 
Q 3047 2791 2881 2937 
Q 2716 3084 2419 3084 
Q 1956 3084 1622 2776 
Q 1288 2469 1184 1941 
L 800 0 
L 225 0 
L 903 3500 
L 1478 3500 
L 1363 2950 
Q 1603 3253 1940 3418 
Q 2278 3584 2650 3584 
Q 3113 3584 3367 3334 
Q 3622 3084 3622 2631 
Q 3622 2519 3608 2391 
Q 3594 2263 3566 2113 
z
" transform="scale(0.015625)"/>
      <path id="DejaVuSans-3d" d="M 678 2906 
L 4684 2906 
L 4684 2381 
L 678 2381 
L 678 2906 
z
M 678 1631 
L 4684 1631 
L 4684 1100 
L 678 1100 
L 678 1631 
z
" transform="scale(0.015625)"/>
      <path id="DejaVuSans-30" d="M 2034 4250 
Q 1547 4250 1301 3770 
Q 1056 3291 1056 2328 
Q 1056 1369 1301 889 
Q 1547 409 2034 409 
Q 2525 409 2770 889 
Q 3016 1369 3016 2328 
Q 3016 3291 2770 3770 
Q 2525 4250 2034 4250 
z
M 2034 4750 
Q 2819 4750 3233 4129 
Q 3647 3509 3647 2328 
Q 3647 1150 3233 529 
Q 2819 -91 2034 -91 
Q 1250 -91 836 529 
Q 422 1150 422 2328 
Q 422 3509 836 4129 
Q 1250 4750 2034 4750 
z
" transform="scale(0.015625)"/>
     </defs>
     <use xlink:href="#DejaVuSans-Oblique-76" transform="translate(0 0.78125)"/>
     <use xlink:href="#DejaVuSans-Oblique-69" transform="translate(59.179688 -15.625) scale(0.7)"/>
     <use xlink:href="#DejaVuSans-Oblique-6e" transform="translate(78.62793 -15.625) scale(0.7)"/>
     <use xlink:href="#DejaVuSans-3d" transform="translate(145.209961 0.78125)"/>
     <use xlink:href="#DejaVuSans-30" transform="translate(248.481445 0.78125)"/>
    </g>
   </g>
   <g id="line2d_21">
    <path d="M 219.288 110.52 
L 219.288 110.52 
" clip-path="url(#p80e99dec94)" style="fill: none; stroke: #ff0000; stroke-width: 2; stroke-linecap: round"/>
   </g>
   <g id="patch_6">
    <path d="M 224.688 110.52 
L 219.288 121.32 
L 213.888 110.52 
z
" clip-path="url(#p80e99dec94)" style="fill: #ff0000"/>
   </g>
   <g id="text_7">
    <!-- $i_r$ -->
    <g style="fill: #ff0000" transform="translate(230.088 120.335) scale(0.16 -0.16)">
     <use xlink:href="#DejaVuSans-Oblique-69" transform="translate(0 0.015625)"/>
     <use xlink:href="#DejaVuSans-Oblique-72" transform="translate(27.783203 -16.390625) scale(0.7)"/>
    </g>
   </g>
   <g id="line2d_22">
    <path d="M 219.288 258.12 
L 219.288 258.12 
" clip-path="url(#p80e99dec94)" style="fill: none; stroke: #008000; stroke-width: 2; stroke-linecap: round"/>
   </g>
   <g id="patch_7">
    <path d="M 224.688 258.12 
L 219.288 268.92 
L 213.888 258.12 
z
" clip-path="url(#p80e99dec94)" style="fill: #008000"/>
   </g>
   <g id="text_8">
    <!-- $i_t $ -->
    <g style="fill: #008000" transform="translate(233.688 267.935) scale(0.16 -0.16)">
     <defs>
      <path id="DejaVuSans-Oblique-74" d="M 2706 3500 
L 2619 3053 
L 1472 3053 
L 1100 1153 
Q 1081 1047 1072 975 
Q 1063 903 1063 863 
Q 1063 663 1183 572 
Q 1303 481 1569 481 
L 2150 481 
L 2053 0 
L 1503 0 
Q 991 0 739 200 
Q 488 400 488 806 
Q 488 878 497 964 
Q 506 1050 525 1153 
L 897 3053 
L 409 3053 
L 500 3500 
L 978 3500 
L 1172 4494 
L 1747 4494 
L 1556 3500 
L 2706 3500 
z
" transform="scale(0.015625)"/>
     </defs>
     <use xlink:href="#DejaVuSans-Oblique-69" transform="translate(0 0.015625)"/>
     <use xlink:href="#DejaVuSans-Oblique-74" transform="translate(27.783203 -16.390625) scale(0.7)"/>
    </g>
   </g>
   <g id="patch_8">
    <path d="M 219.288 84.42 
C 220.004048 84.42 220.690866 84.135511 221.197188 83.629188 
C 221.703511 83.122866 221.988 82.436048 221.988 81.72 
C 221.988 81.003952 221.703511 80.317134 221.197188 79.810812 
C 220.690866 79.304489 220.004048 79.02 219.288 79.02 
C 218.571952 79.02 217.885134 79.304489 217.378812 79.810812 
C 216.872489 80.317134 216.588 81.003952 216.588 81.72 
C 216.588 82.436048 216.872489 83.122866 217.378812 83.629188 
C 217.885134 84.135511 218.571952 84.42 219.288 84.42 
z
" clip-path="url(#p80e99dec94)" style="stroke: #000000; stroke-width: 2; stroke-linejoin: miter"/>
   </g>
   <g id="line2d_23">
    <path d="M 219.288 56.52 
L 219.288 56.52 
" clip-path="url(#p80e99dec94)" style="fill: none; stroke: #ff0000; stroke-width: 2; stroke-linecap: round"/>
   </g>
   <g id="patch_9">
    <path d="M 224.688 56.52 
L 219.288 67.32 
L 213.888 56.52 
z
" clip-path="url(#p80e99dec94)" style="fill: #ff0000"/>
   </g>
   <g id="text_9">
    <!-- $i_t$ -->
    <g style="fill: #ff0000" transform="translate(230.088 66.335) scale(0.16 -0.16)">
     <use xlink:href="#DejaVuSans-Oblique-69" transform="translate(0 0.015625)"/>
     <use xlink:href="#DejaVuSans-Oblique-74" transform="translate(27.783203 -16.390625) scale(0.7)"/>
    </g>
   </g>
   <g id="patch_10">
    <path d="M 111.288 156.42 
C 112.004048 156.42 112.690866 156.135511 113.197188 155.629188 
C 113.703511 155.122866 113.988 154.436048 113.988 153.72 
C 113.988 153.003952 113.703511 152.317134 113.197188 151.810812 
C 112.690866 151.304489 112.004048 151.02 111.288 151.02 
C 110.571952 151.02 109.885134 151.304489 109.378812 151.810812 
C 108.872489 152.317134 108.588 153.003952 108.588 153.72 
C 108.588 154.436048 108.872489 155.122866 109.378812 155.629188 
C 109.885134 156.135511 110.571952 156.42 111.288 156.42 
z
" clip-path="url(#p80e99dec94)" style="fill: #ffffff; stroke: #000000; stroke-width: 2; stroke-linejoin: miter"/>
   </g>
   <g id="text_10">
    <!-- G -->
    <g transform="translate(105.08925 144.0925) scale(0.16 -0.16)">
     <defs>
      <path id="DejaVuSans-47" d="M 3809 666 
L 3809 1919 
L 2778 1919 
L 2778 2438 
L 4434 2438 
L 4434 434 
Q 4069 175 3628 42 
Q 3188 -91 2688 -91 
Q 1594 -91 976 548 
Q 359 1188 359 2328 
Q 359 3472 976 4111 
Q 1594 4750 2688 4750 
Q 3144 4750 3555 4637 
Q 3966 4525 4313 4306 
L 4313 3634 
Q 3963 3931 3569 4081 
Q 3175 4231 2741 4231 
Q 1884 4231 1454 3753 
Q 1025 3275 1025 2328 
Q 1025 1384 1454 906 
Q 1884 428 2741 428 
Q 3075 428 3337 486 
Q 3600 544 3809 666 
z
" transform="scale(0.015625)"/>
     </defs>
     <use xlink:href="#DejaVuSans-47"/>
    </g>
   </g>
   <g id="patch_11">
    <path d="M 219.288 300.42 
C 220.004048 300.42 220.690866 300.135511 221.197188 299.629188 
C 221.703511 299.122866 221.988 298.436048 221.988 297.72 
C 221.988 297.003952 221.703511 296.317134 221.197188 295.810812 
C 220.690866 295.304489 220.004048 295.02 219.288 295.02 
C 218.571952 295.02 217.885134 295.304489 217.378812 295.810812 
C 216.872489 296.317134 216.588 297.003952 216.588 297.72 
C 216.588 298.436048 216.872489 299.122866 217.378812 299.629188 
C 217.885134 300.135511 218.571952 300.42 219.288 300.42 
z
" clip-path="url(#p80e99dec94)" style="stroke: #000000; stroke-width: 2; stroke-linejoin: miter"/>
   </g>
  </g>
 </g>
 <defs>
  <clipPath id="p80e99dec94">
   <rect x="0" y="-0" width="314.832" height="397.44"/>
  </clipPath>
 </defs>
</svg>
