<?xml version="1.0" encoding="utf-8" standalone="no"?>
<!DOCTYPE svg PUBLIC "-//W3C//DTD SVG 1.1//EN"
  "http://www.w3.org/Graphics/SVG/1.1/DTD/svg11.dtd">
<svg xmlns:xlink="http://www.w3.org/1999/xlink" width="406.946286pt" height="156.8pt" viewBox="0 0 406.946286 156.8" xmlns="http://www.w3.org/2000/svg" version="1.1">
 <metadata>
  <rdf:RDF xmlns:dc="http://purl.org/dc/elements/1.1/" xmlns:cc="http://creativecommons.org/ns#" xmlns:rdf="http://www.w3.org/1999/02/22-rdf-syntax-ns#">
   <cc:Work>
    <dc:type rdf:resource="http://purl.org/dc/dcmitype/StillImage"/>
    <dc:date>2025-03-25T23:31:46.554230</dc:date>
    <dc:format>image/svg+xml</dc:format>
    <dc:creator>
     <cc:Agent>
      <dc:title>Matplotlib v3.9.2, https://matplotlib.org/</dc:title>
     </cc:Agent>
    </dc:creator>
   </cc:Work>
  </rdf:RDF>
 </metadata>
 <defs>
  <style type="text/css">*{stroke-linejoin: round; stroke-linecap: butt}</style>
 </defs>
 <g id="figure_1">
  <g id="patch_1">
   <path d="M 0 156.8 
L 406.946286 156.8 
L 406.946286 0 
L 0 0 
z
" style="fill: #ffffff"/>
  </g>
  <g id="axes_1">
   <g id="line2d_1">
    <path d="M 171.72 88.58 
L 171.72 43.58 
L 249.662286 88.58 
L 171.72 133.58 
L 171.72 88.58 
M 249.662286 88.58 
" clip-path="url(#p79a1a7f96a)" style="fill: none; stroke: #000000; stroke-width: 2; stroke-linecap: round"/>
   </g>
   <g id="line2d_2">
    <path d="M 177.862786 66.08 
L 185.062786 66.08 
" clip-path="url(#p79a1a7f96a)" style="fill: none; stroke: #000000; stroke-width: 2; stroke-linecap: round"/>
   </g>
   <g id="line2d_3">
    <path d="M 177.862786 111.08 
L 185.062786 111.08 
" clip-path="url(#p79a1a7f96a)" style="fill: none; stroke: #000000; stroke-width: 2; stroke-linecap: round"/>
   </g>
   <g id="line2d_4">
    <path d="M 181.462786 114.68 
L 181.462786 107.48 
" clip-path="url(#p79a1a7f96a)" style="fill: none; stroke: #000000; stroke-width: 2; stroke-linecap: round"/>
   </g>
   <g id="line2d_5">
    <path d="M 171.72 111.08 
L 162.72 111.08 
L 153.72 111.08 
" clip-path="url(#p79a1a7f96a)" style="fill: none; stroke: #000000; stroke-width: 2; stroke-linecap: round"/>
   </g>
   <g id="line2d_6">
    <path d="M 153.72 111.08 
L 153.72 120.08 
L 153.72 129.08 
" clip-path="url(#p79a1a7f96a)" style="fill: none; stroke: #000000; stroke-width: 2; stroke-linecap: round"/>
   </g>
   <g id="line2d_7">
    <path d="M 153.72 129.08 
L 153.72 143.48 
L 144.72 143.48 
L 162.72 143.48 
M 147.42 147.8 
L 160.02 147.8 
M 151.92 152.12 
L 155.52 152.12 
" clip-path="url(#p79a1a7f96a)" style="fill: none; stroke: #000000; stroke-width: 2; stroke-linecap: round"/>
   </g>
   <g id="line2d_8">
    <path d="M 171.72 66.08 
L 162.72 66.08 
L 153.72 66.08 
" clip-path="url(#p79a1a7f96a)" style="fill: none; stroke: #000000; stroke-width: 2; stroke-linecap: round"/>
   </g>
   <g id="line2d_9">
    <path d="M 153.72 66.08 
L 153.72 48.08 
L 153.72 30.08 
" clip-path="url(#p79a1a7f96a)" style="fill: none; stroke: #000000; stroke-width: 2; stroke-linecap: round"/>
   </g>
   <g id="line2d_10">
    <path d="M 153.72 30.08 
L 162.72 30.08 
L 171.72 30.08 
" clip-path="url(#p79a1a7f96a)" style="fill: none; stroke: #000000; stroke-width: 2; stroke-linecap: round"/>
   </g>
   <g id="line2d_11">
    <path d="M 171.72 30.08 
L 189.72 30.08 
L 192.72 21.08 
L 198.72 39.08 
L 204.72 21.08 
L 210.72 39.08 
L 216.72 21.08 
L 222.72 39.08 
L 225.72 30.08 
L 243.72 30.08 
" clip-path="url(#p79a1a7f96a)" style="fill: none; stroke: #000000; stroke-width: 2; stroke-linecap: round"/>
   </g>
   <g id="line2d_12">
    <path d="M 243.72 30.08 
L 261.72 30.08 
L 279.72 30.08 
" clip-path="url(#p79a1a7f96a)" style="fill: none; stroke: #000000; stroke-width: 2; stroke-linecap: round"/>
   </g>
   <g id="line2d_13">
    <path d="M 249.662286 88.58 
L 267.662286 88.58 
L 285.662286 88.58 
" clip-path="url(#p79a1a7f96a)" style="fill: none; stroke: #000000; stroke-width: 2; stroke-linecap: round"/>
   </g>
   <g id="line2d_14">
    <path d="M 153.72 66.08 
L 144.72 66.08 
L 135.72 66.08 
" clip-path="url(#p79a1a7f96a)" style="fill: none; stroke: #000000; stroke-width: 2; stroke-linecap: round"/>
   </g>
   <g id="line2d_15">
    <path d="M 135.72 66.08 
L 117.72 66.08 
L 114.72 75.08 
L 108.72 57.08 
L 102.72 75.08 
L 96.72 57.08 
L 90.72 75.08 
L 84.72 57.08 
L 81.72 66.08 
L 63.72 66.08 
" clip-path="url(#p79a1a7f96a)" style="fill: none; stroke: #000000; stroke-width: 2; stroke-linecap: round"/>
   </g>
   <g id="line2d_16">
    <path d="M 63.72 66.08 
L 45.72 66.08 
L 27.72 66.08 
" clip-path="url(#p79a1a7f96a)" style="fill: none; stroke: #000000; stroke-width: 2; stroke-linecap: round"/>
   </g>
   <g id="line2d_17">
    <path d="M 27.72 66.08 
L 13.32 66.08 
L 13.32 57.08 
L 13.32 75.08 
M 9 59.78 
L 9 72.38 
M 4.68 64.28 
L 4.68 67.88 
" clip-path="url(#p79a1a7f96a)" style="fill: none; stroke: #000000; stroke-width: 2; stroke-linecap: round"/>
   </g>
   <g id="text_1">
    <!-- $a_D$ -->
    <g transform="translate(192.171143 92.995) scale(0.16 -0.16)">
     <defs>
      <path id="DejaVuSerif-Italic-61" d="M 2325 519 
Q 1909 -91 1238 -91 
Q 688 -91 409 281 
Q 216 544 216 919 
Q 216 1078 250 1256 
Q 463 2359 1231 2928 
Q 1884 3413 2675 3413 
Q 3206 3413 3388 3322 
L 2806 331 
L 3300 331 
L 3238 0 
L 2225 0 
L 2325 519 
z
M 822 938 
Q 822 269 1469 269 
Q 1863 269 2130 583 
Q 2397 897 2516 1497 
L 2806 3003 
L 2806 3003 
Q 2806 3094 2556 3094 
Q 1956 3094 1491 2625 
Q 1028 2153 863 1297 
Q 822 1097 822 938 
z
" transform="scale(0.015625)"/>
      <path id="DejaVuSerif-Italic-44" d="M 1194 331 
L 1775 331 
Q 2684 331 3271 850 
Q 3859 1369 4048 2337 
Q 4238 3306 3852 3818 
Q 3466 4331 2553 4331 
L 1972 4331 
L 1194 331 
z
M -97 0 
L -34 331 
L 559 331 
L 1338 4331 
L 744 4331 
L 809 4666 
L 2666 4666 
Q 3872 4666 4426 4050 
Q 4981 3434 4766 2338 
Q 4553 1238 3758 619 
Q 2963 0 1759 0 
L -97 0 
z
" transform="scale(0.015625)"/>
     </defs>
     <use xlink:href="#DejaVuSerif-Italic-61" transform="translate(0 0.671875)"/>
     <use xlink:href="#DejaVuSerif-Italic-44" transform="translate(59.619141 -14.9) scale(0.7)"/>
    </g>
   </g>
   <g id="patch_2">
    <path d="M 153.72 68.78 
C 154.436048 68.78 155.122866 68.495511 155.629188 67.989188 
C 156.135511 67.482866 156.42 66.796048 156.42 66.08 
C 156.42 65.363952 156.135511 64.677134 155.629188 64.170812 
C 155.122866 63.664489 154.436048 63.38 153.72 63.38 
C 153.003952 63.38 152.317134 63.664489 151.810812 64.170812 
C 151.304489 64.677134 151.02 65.363952 151.02 66.08 
C 151.02 66.796048 151.304489 67.482866 151.810812 67.989188 
C 152.317134 68.495511 153.003952 68.78 153.72 68.78 
z
" clip-path="url(#p79a1a7f96a)" style="stroke: #000000; stroke-width: 2; stroke-linejoin: miter"/>
   </g>
   <g id="text_2">
    <!-- $R_2$ -->
    <g transform="translate(198.36 14.1525) scale(0.16 -0.16)">
     <defs>
      <path id="DejaVuSans-Oblique-52" d="M 1613 4147 
L 1294 2491 
L 2106 2491 
Q 2584 2491 2879 2755 
Q 3175 3019 3175 3444 
Q 3175 3784 2976 3965 
Q 2778 4147 2406 4147 
L 1613 4147 
z
M 2772 2241 
Q 2972 2194 3105 2009 
Q 3238 1825 3413 1275 
L 3809 0 
L 3144 0 
L 2778 1197 
Q 2638 1659 2453 1815 
Q 2269 1972 1888 1972 
L 1191 1972 
L 806 0 
L 172 0 
L 1081 4666 
L 2503 4666 
Q 3150 4666 3495 4373 
Q 3841 4081 3841 3531 
Q 3841 3044 3547 2687 
Q 3253 2331 2772 2241 
z
" transform="scale(0.015625)"/>
      <path id="DejaVuSans-32" d="M 1228 531 
L 3431 531 
L 3431 0 
L 469 0 
L 469 531 
Q 828 903 1448 1529 
Q 2069 2156 2228 2338 
Q 2531 2678 2651 2914 
Q 2772 3150 2772 3378 
Q 2772 3750 2511 3984 
Q 2250 4219 1831 4219 
Q 1534 4219 1204 4116 
Q 875 4013 500 3803 
L 500 4441 
Q 881 4594 1212 4672 
Q 1544 4750 1819 4750 
Q 2544 4750 2975 4387 
Q 3406 4025 3406 3419 
Q 3406 3131 3298 2873 
Q 3191 2616 2906 2266 
Q 2828 2175 2409 1742 
Q 1991 1309 1228 531 
z
" transform="scale(0.015625)"/>
     </defs>
     <use xlink:href="#DejaVuSans-Oblique-52" transform="translate(0 0.09375)"/>
     <use xlink:href="#DejaVuSans-32" transform="translate(69.482422 -16.3125) scale(0.7)"/>
    </g>
   </g>
   <g id="patch_3">
    <path d="M 279.72 32.78 
C 280.436048 32.78 281.122866 32.495511 281.629188 31.989188 
C 282.135511 31.482866 282.42 30.796048 282.42 30.08 
C 282.42 29.363952 282.135511 28.677134 281.629188 28.170812 
C 281.122866 27.664489 280.436048 27.38 279.72 27.38 
C 279.003952 27.38 278.317134 27.664489 277.810812 28.170812 
C 277.304489 28.677134 277.02 29.363952 277.02 30.08 
C 277.02 30.796048 277.304489 31.482866 277.810812 31.989188 
C 278.317134 32.495511 279.003952 32.78 279.72 32.78 
z
" clip-path="url(#p79a1a7f96a)" style="fill: #ffffff; stroke: #000000; stroke-width: 2; stroke-linejoin: miter"/>
   </g>
   <g id="text_3">
    <!-- $v_{test}$ -->
    <g transform="translate(286.02 34.495) scale(0.16 -0.16)">
     <defs>
      <path id="DejaVuSans-Oblique-76" d="M 459 3500 
L 1069 3500 
L 1581 525 
L 3256 3500 
L 3866 3500 
L 1875 0 
L 1100 0 
L 459 3500 
z
" transform="scale(0.015625)"/>
      <path id="DejaVuSans-Oblique-74" d="M 2706 3500 
L 2619 3053 
L 1472 3053 
L 1100 1153 
Q 1081 1047 1072 975 
Q 1063 903 1063 863 
Q 1063 663 1183 572 
Q 1303 481 1569 481 
L 2150 481 
L 2053 0 
L 1503 0 
Q 991 0 739 200 
Q 488 400 488 806 
Q 488 878 497 964 
Q 506 1050 525 1153 
L 897 3053 
L 409 3053 
L 500 3500 
L 978 3500 
L 1172 4494 
L 1747 4494 
L 1556 3500 
L 2706 3500 
z
" transform="scale(0.015625)"/>
      <path id="DejaVuSans-Oblique-65" d="M 3078 2063 
Q 3088 2113 3092 2166 
Q 3097 2219 3097 2272 
Q 3097 2653 2873 2875 
Q 2650 3097 2266 3097 
Q 1838 3097 1509 2826 
Q 1181 2556 1013 2059 
L 3078 2063 
z
M 3578 1613 
L 903 1613 
Q 884 1494 878 1425 
Q 872 1356 872 1306 
Q 872 872 1139 634 
Q 1406 397 1894 397 
Q 2269 397 2603 481 
Q 2938 566 3225 728 
L 3116 159 
Q 2806 34 2476 -28 
Q 2147 -91 1806 -91 
Q 1078 -91 686 257 
Q 294 606 294 1247 
Q 294 1794 489 2264 
Q 684 2734 1063 3103 
Q 1306 3334 1642 3459 
Q 1978 3584 2356 3584 
Q 2950 3584 3301 3228 
Q 3653 2872 3653 2272 
Q 3653 2128 3634 1964 
Q 3616 1800 3578 1613 
z
" transform="scale(0.015625)"/>
      <path id="DejaVuSans-Oblique-73" d="M 3200 3397 
L 3091 2853 
Q 2863 2978 2609 3040 
Q 2356 3103 2088 3103 
Q 1634 3103 1373 2948 
Q 1113 2794 1113 2528 
Q 1113 2219 1719 2053 
Q 1766 2041 1788 2034 
L 1972 1978 
Q 2547 1819 2739 1644 
Q 2931 1469 2931 1166 
Q 2931 609 2489 259 
Q 2047 -91 1331 -91 
Q 1053 -91 747 -37 
Q 441 16 72 128 
L 184 722 
Q 500 559 806 475 
Q 1113 391 1394 391 
Q 1816 391 2080 572 
Q 2344 753 2344 1031 
Q 2344 1331 1650 1516 
L 1591 1531 
L 1394 1581 
Q 956 1697 753 1886 
Q 550 2075 550 2369 
Q 550 2928 970 3256 
Q 1391 3584 2113 3584 
Q 2397 3584 2667 3537 
Q 2938 3491 3200 3397 
z
" transform="scale(0.015625)"/>
     </defs>
     <use xlink:href="#DejaVuSans-Oblique-76" transform="translate(0 0.3125)"/>
     <use xlink:href="#DejaVuSans-Oblique-74" transform="translate(59.179688 -16.09375) scale(0.7)"/>
     <use xlink:href="#DejaVuSans-Oblique-65" transform="translate(86.625977 -16.09375) scale(0.7)"/>
     <use xlink:href="#DejaVuSans-Oblique-73" transform="translate(129.692383 -16.09375) scale(0.7)"/>
     <use xlink:href="#DejaVuSans-Oblique-74" transform="translate(166.162109 -16.09375) scale(0.7)"/>
    </g>
   </g>
   <g id="patch_4">
    <path d="M 285.662286 91.28 
C 286.378335 91.28 287.065152 90.995511 287.571475 90.489188 
C 288.077797 89.982866 288.362286 89.296048 288.362286 88.58 
C 288.362286 87.863952 288.077797 87.177134 287.571475 86.670812 
C 287.065152 86.164489 286.378335 85.88 285.662286 85.88 
C 284.946238 85.88 284.259421 86.164489 283.753098 86.670812 
C 283.246775 87.177134 282.962286 87.863952 282.962286 88.58 
C 282.962286 89.296048 283.246775 89.982866 283.753098 90.489188 
C 284.259421 90.995511 284.946238 91.28 285.662286 91.28 
z
" clip-path="url(#p79a1a7f96a)" style="fill: #ffffff; stroke: #000000; stroke-width: 2; stroke-linejoin: miter"/>
   </g>
   <g id="text_4">
    <!-- $v_\mathrm{out}$ -->
    <g transform="translate(291.962286 92.995) scale(0.16 -0.16)">
     <defs>
      <path id="DejaVuSans-6f" d="M 1959 3097 
Q 1497 3097 1228 2736 
Q 959 2375 959 1747 
Q 959 1119 1226 758 
Q 1494 397 1959 397 
Q 2419 397 2687 759 
Q 2956 1122 2956 1747 
Q 2956 2369 2687 2733 
Q 2419 3097 1959 3097 
z
M 1959 3584 
Q 2709 3584 3137 3096 
Q 3566 2609 3566 1747 
Q 3566 888 3137 398 
Q 2709 -91 1959 -91 
Q 1206 -91 779 398 
Q 353 888 353 1747 
Q 353 2609 779 3096 
Q 1206 3584 1959 3584 
z
" transform="scale(0.015625)"/>
      <path id="DejaVuSans-75" d="M 544 1381 
L 544 3500 
L 1119 3500 
L 1119 1403 
Q 1119 906 1312 657 
Q 1506 409 1894 409 
Q 2359 409 2629 706 
Q 2900 1003 2900 1516 
L 2900 3500 
L 3475 3500 
L 3475 0 
L 2900 0 
L 2900 538 
Q 2691 219 2414 64 
Q 2138 -91 1772 -91 
Q 1169 -91 856 284 
Q 544 659 544 1381 
z
M 1991 3584 
L 1991 3584 
z
" transform="scale(0.015625)"/>
      <path id="DejaVuSans-74" d="M 1172 4494 
L 1172 3500 
L 2356 3500 
L 2356 3053 
L 1172 3053 
L 1172 1153 
Q 1172 725 1289 603 
Q 1406 481 1766 481 
L 2356 481 
L 2356 0 
L 1766 0 
Q 1100 0 847 248 
Q 594 497 594 1153 
L 594 3053 
L 172 3053 
L 172 3500 
L 594 3500 
L 594 4494 
L 1172 4494 
z
" transform="scale(0.015625)"/>
     </defs>
     <use xlink:href="#DejaVuSans-Oblique-76" transform="translate(0 0.3125)"/>
     <use xlink:href="#DejaVuSans-6f" transform="translate(59.179688 -16.09375) scale(0.7)"/>
     <use xlink:href="#DejaVuSans-75" transform="translate(102.006836 -16.09375) scale(0.7)"/>
     <use xlink:href="#DejaVuSans-74" transform="translate(146.37207 -16.09375) scale(0.7)"/>
    </g>
   </g>
   <g id="text_5">
    <!-- $R_1$ -->
    <g transform="translate(90.36 50.1525) scale(0.16 -0.16)">
     <defs>
      <path id="DejaVuSans-31" d="M 794 531 
L 1825 531 
L 1825 4091 
L 703 3866 
L 703 4441 
L 1819 4666 
L 2450 4666 
L 2450 531 
L 3481 531 
L 3481 0 
L 794 0 
L 794 531 
z
" transform="scale(0.015625)"/>
     </defs>
     <use xlink:href="#DejaVuSans-Oblique-52" transform="translate(0 0.09375)"/>
     <use xlink:href="#DejaVuSans-31" transform="translate(69.482422 -16.3125) scale(0.7)"/>
    </g>
   </g>
   <g id="text_6">
    <!-- $v_{in} = 0$ -->
    <g transform="translate(20.68 59.1525) scale(0.16 -0.16)">
     <defs>
      <path id="DejaVuSans-Oblique-69" d="M 1172 4863 
L 1747 4863 
L 1606 4134 
L 1031 4134 
L 1172 4863 
z
M 909 3500 
L 1484 3500 
L 800 0 
L 225 0 
L 909 3500 
z
" transform="scale(0.015625)"/>
      <path id="DejaVuSans-Oblique-6e" d="M 3566 2113 
L 3156 0 
L 2578 0 
L 2988 2091 
Q 3016 2238 3031 2350 
Q 3047 2463 3047 2528 
Q 3047 2791 2881 2937 
Q 2716 3084 2419 3084 
Q 1956 3084 1622 2776 
Q 1288 2469 1184 1941 
L 800 0 
L 225 0 
L 903 3500 
L 1478 3500 
L 1363 2950 
Q 1603 3253 1940 3418 
Q 2278 3584 2650 3584 
Q 3113 3584 3367 3334 
Q 3622 3084 3622 2631 
Q 3622 2519 3608 2391 
Q 3594 2263 3566 2113 
z
" transform="scale(0.015625)"/>
      <path id="DejaVuSans-3d" d="M 678 2906 
L 4684 2906 
L 4684 2381 
L 678 2381 
L 678 2906 
z
M 678 1631 
L 4684 1631 
L 4684 1100 
L 678 1100 
L 678 1631 
z
" transform="scale(0.015625)"/>
      <path id="DejaVuSans-30" d="M 2034 4250 
Q 1547 4250 1301 3770 
Q 1056 3291 1056 2328 
Q 1056 1369 1301 889 
Q 1547 409 2034 409 
Q 2525 409 2770 889 
Q 3016 1369 3016 2328 
Q 3016 3291 2770 3770 
Q 2525 4250 2034 4250 
z
M 2034 4750 
Q 2819 4750 3233 4129 
Q 3647 3509 3647 2328 
Q 3647 1150 3233 529 
Q 2819 -91 2034 -91 
Q 1250 -91 836 529 
Q 422 1150 422 2328 
Q 422 3509 836 4129 
Q 1250 4750 2034 4750 
z
" transform="scale(0.015625)"/>
     </defs>
     <use xlink:href="#DejaVuSans-Oblique-76" transform="translate(0 0.78125)"/>
     <use xlink:href="#DejaVuSans-Oblique-69" transform="translate(59.179688 -15.625) scale(0.7)"/>
     <use xlink:href="#DejaVuSans-Oblique-6e" transform="translate(78.62793 -15.625) scale(0.7)"/>
     <use xlink:href="#DejaVuSans-3d" transform="translate(145.209961 0.78125)"/>
     <use xlink:href="#DejaVuSans-30" transform="translate(248.481445 0.78125)"/>
    </g>
   </g>
  </g>
 </g>
 <defs>
  <clipPath id="p79a1a7f96a">
   <rect x="0" y="0" width="406.946286" height="156.8"/>
  </clipPath>
 </defs>
</svg>
