<?xml version="1.0" encoding="utf-8" standalone="no"?>
<!DOCTYPE svg PUBLIC "-//W3C//DTD SVG 1.1//EN"
  "http://www.w3.org/Graphics/SVG/1.1/DTD/svg11.dtd">
<svg xmlns:xlink="http://www.w3.org/1999/xlink" width="368.952pt" height="165.8pt" viewBox="0 0 368.952 165.8" xmlns="http://www.w3.org/2000/svg" version="1.1">
 <metadata>
  <rdf:RDF xmlns:dc="http://purl.org/dc/elements/1.1/" xmlns:cc="http://creativecommons.org/ns#" xmlns:rdf="http://www.w3.org/1999/02/22-rdf-syntax-ns#">
   <cc:Work>
    <dc:type rdf:resource="http://purl.org/dc/dcmitype/StillImage"/>
    <dc:date>2025-03-25T23:31:57.528564</dc:date>
    <dc:format>image/svg+xml</dc:format>
    <dc:creator>
     <cc:Agent>
      <dc:title>Matplotlib v3.9.2, https://matplotlib.org/</dc:title>
     </cc:Agent>
    </dc:creator>
   </cc:Work>
  </rdf:RDF>
 </metadata>
 <defs>
  <style type="text/css">*{stroke-linejoin: round; stroke-linecap: butt}</style>
 </defs>
 <g id="figure_1">
  <g id="patch_1">
   <path d="M 0 165.8 
L 368.952 165.8 
L 368.952 0 
L 0 0 
z
" style="fill: #ffffff"/>
  </g>
  <g id="axes_1">
   <g id="patch_2">
    <path d="M 261.24 120.08 
C 266.013656 120.08 270.592438 118.183406 273.967922 114.807922 
C 277.343406 111.432438 279.24 106.853656 279.24 102.08 
C 279.24 97.306344 277.343406 92.727562 273.967922 89.352078 
C 270.592438 85.976594 266.013656 84.08 261.24 84.08 
C 256.466344 84.08 251.887562 85.976594 248.512078 89.352078 
C 245.136594 92.727562 243.24 97.306344 243.24 102.08 
C 243.24 106.853656 245.136594 111.432438 248.512078 114.807922 
C 251.887562 118.183406 256.466344 120.08 261.24 120.08 
L 261.24 120.08 
z
" clip-path="url(#pa3bef01def)" style="fill: none; stroke: #000000; stroke-width: 2; stroke-linejoin: miter"/>
   </g>
   <g id="line2d_1">
    <path d="M 261.24 66.08 
L 261.24 84.08 
L 261.24 84.08 
M 261.24 120.08 
L 261.24 120.08 
L 261.24 138.08 
" clip-path="url(#pa3bef01def)" style="fill: none; stroke: #000000; stroke-width: 2; stroke-linecap: round"/>
   </g>
   <g id="line2d_2">
    <path d="M 261.24 93.08 
L 261.24 102.08 
" clip-path="url(#pa3bef01def)" style="fill: none; stroke: #000000; stroke-width: 2; stroke-linecap: round"/>
   </g>
   <g id="patch_3">
    <path d="M 263.94 102.08 
L 261.24 111.08 
L 258.54 102.08 
z
" clip-path="url(#pa3bef01def)"/>
   </g>
   <g id="line2d_3">
    <path d="M 261.24 138.08 
L 225.24 138.08 
L 189.24 138.08 
" clip-path="url(#pa3bef01def)" style="fill: none; stroke: #000000; stroke-width: 2; stroke-linecap: round"/>
   </g>
   <g id="line2d_4">
    <path d="M 189.24 138.08 
L 171.24 138.08 
L 153.24 138.08 
" clip-path="url(#pa3bef01def)" style="fill: none; stroke: #000000; stroke-width: 2; stroke-linecap: round"/>
   </g>
   <g id="line2d_5">
    <path d="M 153.24 138.08 
L 153.24 120.08 
M 153.24 84.08 
L 171.24 102.08 
L 153.24 120.08 
L 135.24 102.08 
L 153.24 84.08 
L 153.24 66.08 
" clip-path="url(#pa3bef01def)" style="fill: none; stroke: #000000; stroke-width: 2; stroke-linecap: round"/>
   </g>
   <g id="line2d_6">
    <path d="M 153.24 102.08 
L 153.24 93.08 
" clip-path="url(#pa3bef01def)" style="fill: none; stroke: #000000; stroke-width: 2; stroke-linecap: round"/>
   </g>
   <g id="patch_4">
    <path d="M 155.94 102.08 
L 153.24 111.08 
L 150.54 102.08 
z
" clip-path="url(#pa3bef01def)"/>
   </g>
   <g id="line2d_7">
    <path d="M 153.24 66.08 
L 171.24 66.08 
L 189.24 66.08 
" clip-path="url(#pa3bef01def)" style="fill: none; stroke: #000000; stroke-width: 2; stroke-linecap: round"/>
   </g>
   <g id="line2d_8">
    <path d="M 189.24 66.08 
L 189.24 102.08 
L 189.24 138.08 
" clip-path="url(#pa3bef01def)" style="fill: none; stroke: #000000; stroke-width: 2; stroke-linecap: round"/>
   </g>
   <g id="line2d_9">
    <path d="M 153.24 138.08 
L 99.24 138.08 
L 45.24 138.08 
" clip-path="url(#pa3bef01def)" style="fill: none; stroke: #000000; stroke-width: 2; stroke-linecap: round"/>
   </g>
   <g id="line2d_10">
    <path d="M 45.24 138.08 
L 45.24 105.32 
M 36.24 105.32 
L 54.24 105.32 
M 36.24 98.84 
L 54.24 98.84 
M 45.24 98.84 
L 45.24 66.08 
" clip-path="url(#pa3bef01def)" style="fill: none; stroke: #808080; stroke-width: 2; stroke-linecap: round"/>
   </g>
   <g id="line2d_11">
    <path d="M 45.24 66.08 
L 27.24 66.08 
L 9.24 66.08 
" clip-path="url(#pa3bef01def)" style="fill: none; stroke: #000000; stroke-width: 2; stroke-linecap: round"/>
   </g>
   <g id="line2d_12">
    <path d="M 45.24 138.08 
L 27.24 138.08 
L 9.24 138.08 
" clip-path="url(#pa3bef01def)" style="fill: none; stroke: #000000; stroke-opacity: 0; stroke-width: 2; stroke-linecap: round"/>
   </g>
   <g id="line2d_13">
    <path d="M 9.24 66.08 
L 9.24 48.08 
L 9.24 30.08 
" clip-path="url(#pa3bef01def)" style="fill: none; stroke: #000000; stroke-width: 2; stroke-linecap: round"/>
   </g>
   <g id="line2d_14">
    <path d="M 9.24 30.08 
L 54.24 30.08 
L 99.24 30.08 
" clip-path="url(#pa3bef01def)" style="fill: none; stroke: #000000; stroke-width: 2; stroke-linecap: round"/>
   </g>
   <g id="line2d_15">
    <path d="M 99.24 30.08 
L 117.24 30.08 
L 120.24 21.08 
L 126.24 39.08 
L 132.24 21.08 
L 138.24 39.08 
L 144.24 21.08 
L 150.24 39.08 
L 153.24 30.08 
L 171.24 30.08 
" clip-path="url(#pa3bef01def)" style="fill: none; stroke: #000000; stroke-width: 2; stroke-linecap: round"/>
   </g>
   <g id="line2d_16">
    <path d="M 171.24 30.08 
L 216.24 30.08 
L 261.24 30.08 
" clip-path="url(#pa3bef01def)" style="fill: none; stroke: #000000; stroke-width: 2; stroke-linecap: round"/>
   </g>
   <g id="line2d_17">
    <path d="M 261.24 30.08 
L 261.24 48.08 
L 261.24 66.08 
" clip-path="url(#pa3bef01def)" style="fill: none; stroke: #000000; stroke-width: 2; stroke-linecap: round"/>
   </g>
   <g id="line2d_18">
    <path d="M 261.24 138.08 
L 261.24 152.48 
L 252.24 152.48 
L 270.24 152.48 
M 254.94 156.8 
L 267.54 156.8 
M 259.44 161.12 
L 263.04 161.12 
" clip-path="url(#pa3bef01def)" style="fill: none; stroke: #000000; stroke-width: 2; stroke-linecap: round"/>
   </g>
   <g id="line2d_19">
    <path d="M 261.24 66.08 
L 297.24 66.08 
L 333.24 66.08 
" clip-path="url(#pa3bef01def)" style="fill: none; stroke: #000000; stroke-width: 2; stroke-linecap: round"/>
   </g>
   <g id="line2d_20">
    <path d="M 333.24 66.08 
L 333.24 84.08 
L 342.24 87.08 
L 324.24 93.08 
L 342.24 99.08 
L 324.24 105.08 
L 342.24 111.08 
L 324.24 117.08 
L 333.24 120.08 
L 333.24 138.08 
" clip-path="url(#pa3bef01def)" style="fill: none; stroke: #000000; stroke-width: 2; stroke-linecap: round"/>
   </g>
   <g id="line2d_21">
    <path d="M 333.24 138.08 
L 297.24 138.08 
L 261.24 138.08 
" clip-path="url(#pa3bef01def)" style="fill: none; stroke: #000000; stroke-width: 2; stroke-linecap: round"/>
   </g>
   <g id="patch_5">
    <path d="M 261.24 140.78 
C 261.956048 140.78 262.642866 140.495511 263.149188 139.989188 
C 263.655511 139.482866 263.94 138.796048 263.94 138.08 
C 263.94 137.363952 263.655511 136.677134 263.149188 136.170812 
C 262.642866 135.664489 261.956048 135.38 261.24 135.38 
C 260.523952 135.38 259.837134 135.664489 259.330812 136.170812 
C 258.824489 136.677134 258.54 137.363952 258.54 138.08 
C 258.54 138.796048 258.824489 139.482866 259.330812 139.989188 
C 259.837134 140.495511 260.523952 140.78 261.24 140.78 
z
" clip-path="url(#pa3bef01def)" style="stroke: #000000; stroke-width: 2; stroke-linejoin: miter"/>
   </g>
   <g id="text_1">
    <!-- $i_{t}$ -->
    <g style="fill: #ff0000" transform="translate(282.84 107.845) scale(0.16 -0.16)">
     <defs>
      <path id="DejaVuSans-Oblique-69" d="M 1172 4863 
L 1747 4863 
L 1606 4134 
L 1031 4134 
L 1172 4863 
z
M 909 3500 
L 1484 3500 
L 800 0 
L 225 0 
L 909 3500 
z
" transform="scale(0.015625)"/>
      <path id="DejaVuSans-Oblique-74" d="M 2706 3500 
L 2619 3053 
L 1472 3053 
L 1100 1153 
Q 1081 1047 1072 975 
Q 1063 903 1063 863 
Q 1063 663 1183 572 
Q 1303 481 1569 481 
L 2150 481 
L 2053 0 
L 1503 0 
Q 991 0 739 200 
Q 488 400 488 806 
Q 488 878 497 964 
Q 506 1050 525 1153 
L 897 3053 
L 409 3053 
L 500 3500 
L 978 3500 
L 1172 4494 
L 1747 4494 
L 1556 3500 
L 2706 3500 
z
" transform="scale(0.015625)"/>
     </defs>
     <use xlink:href="#DejaVuSans-Oblique-69" transform="translate(0 0.015625)"/>
     <use xlink:href="#DejaVuSans-Oblique-74" transform="translate(27.783203 -16.390625) scale(0.7)"/>
    </g>
   </g>
   <g id="text_2">
    <!-- $g_{m}v$ -->
    <g transform="translate(100.6 106.4625) scale(0.16 -0.16)">
     <defs>
      <path id="DejaVuSans-Oblique-67" d="M 3816 3500 
L 3219 434 
Q 3047 -456 2561 -893 
Q 2075 -1331 1253 -1331 
Q 950 -1331 690 -1286 
Q 431 -1241 206 -1147 
L 313 -588 
Q 525 -725 762 -790 
Q 1000 -856 1269 -856 
Q 1816 -856 2167 -557 
Q 2519 -259 2631 300 
L 2681 563 
Q 2441 288 2122 144 
Q 1803 0 1434 0 
Q 903 0 598 351 
Q 294 703 294 1319 
Q 294 1803 478 2267 
Q 663 2731 997 3091 
Q 1219 3328 1514 3456 
Q 1809 3584 2131 3584 
Q 2484 3584 2746 3420 
Q 3009 3256 3138 2956 
L 3238 3500 
L 3816 3500 
z
M 2950 2216 
Q 2950 2641 2750 2872 
Q 2550 3103 2181 3103 
Q 1953 3103 1747 3012 
Q 1541 2922 1394 2759 
Q 1156 2491 1023 2127 
Q 891 1763 891 1375 
Q 891 944 1092 712 
Q 1294 481 1672 481 
Q 2219 481 2584 976 
Q 2950 1472 2950 2216 
z
" transform="scale(0.015625)"/>
      <path id="DejaVuSans-Oblique-6d" d="M 5747 2113 
L 5338 0 
L 4763 0 
L 5166 2094 
Q 5191 2228 5203 2325 
Q 5216 2422 5216 2491 
Q 5216 2772 5059 2928 
Q 4903 3084 4622 3084 
Q 4203 3084 3875 2770 
Q 3547 2456 3450 1953 
L 3066 0 
L 2491 0 
L 2900 2094 
Q 2925 2209 2937 2307 
Q 2950 2406 2950 2484 
Q 2950 2769 2794 2926 
Q 2638 3084 2363 3084 
Q 1938 3084 1609 2770 
Q 1281 2456 1184 1953 
L 800 0 
L 225 0 
L 909 3500 
L 1484 3500 
L 1375 2956 
Q 1609 3263 1923 3423 
Q 2238 3584 2597 3584 
Q 2978 3584 3223 3384 
Q 3469 3184 3519 2828 
Q 3781 3197 4126 3390 
Q 4472 3584 4856 3584 
Q 5306 3584 5551 3325 
Q 5797 3066 5797 2591 
Q 5797 2488 5784 2364 
Q 5772 2241 5747 2113 
z
" transform="scale(0.015625)"/>
      <path id="DejaVuSans-Oblique-76" d="M 459 3500 
L 1069 3500 
L 1581 525 
L 3256 3500 
L 3866 3500 
L 1875 0 
L 1100 0 
L 459 3500 
z
" transform="scale(0.015625)"/>
     </defs>
     <use xlink:href="#DejaVuSans-Oblique-67"/>
     <use xlink:href="#DejaVuSans-Oblique-6d" transform="translate(63.476562 -16.40625) scale(0.7)"/>
     <use xlink:href="#DejaVuSans-Oblique-76" transform="translate(134.399414 0)"/>
    </g>
   </g>
   <g id="patch_6">
    <path d="M 189.24 140.78 
C 189.956048 140.78 190.642866 140.495511 191.149188 139.989188 
C 191.655511 139.482866 191.94 138.796048 191.94 138.08 
C 191.94 137.363952 191.655511 136.677134 191.149188 136.170812 
C 190.642866 135.664489 189.956048 135.38 189.24 135.38 
C 188.523952 135.38 187.837134 135.664489 187.330812 136.170812 
C 186.824489 136.677134 186.54 137.363952 186.54 138.08 
C 186.54 138.796048 186.824489 139.482866 187.330812 139.989188 
C 187.837134 140.495511 188.523952 140.78 189.24 140.78 
z
" clip-path="url(#pa3bef01def)" style="stroke: #000000; stroke-width: 2; stroke-linejoin: miter"/>
   </g>
   <g id="text_3">
    <!-- $-$ -->
    <g transform="translate(2.52 124.495) scale(0.16 -0.16)">
     <defs>
      <path id="DejaVuSans-2212" d="M 678 2272 
L 4684 2272 
L 4684 1741 
L 678 1741 
L 678 2272 
z
" transform="scale(0.015625)"/>
     </defs>
     <use xlink:href="#DejaVuSans-2212" transform="translate(0 0.5)"/>
    </g>
   </g>
   <g id="text_4">
    <!-- $v$ -->
    <g transform="translate(4.44 106.495) scale(0.16 -0.16)">
     <use xlink:href="#DejaVuSans-Oblique-76" transform="translate(0 0.3125)"/>
    </g>
   </g>
   <g id="text_5">
    <!-- $+$ -->
    <g transform="translate(2.52 88.495) scale(0.16 -0.16)">
     <defs>
      <path id="DejaVuSans-2b" d="M 2944 4013 
L 2944 2272 
L 4684 2272 
L 4684 1741 
L 2944 1741 
L 2944 0 
L 2419 0 
L 2419 1741 
L 678 1741 
L 678 2272 
L 2419 2272 
L 2419 4013 
L 2944 4013 
z
" transform="scale(0.015625)"/>
     </defs>
     <use xlink:href="#DejaVuSans-2b" transform="translate(0 0.296875)"/>
    </g>
   </g>
   <g id="text_6">
    <!-- $R_F$ -->
    <g transform="translate(126.2 14.1525) scale(0.16 -0.16)">
     <defs>
      <path id="DejaVuSans-Oblique-52" d="M 1613 4147 
L 1294 2491 
L 2106 2491 
Q 2584 2491 2879 2755 
Q 3175 3019 3175 3444 
Q 3175 3784 2976 3965 
Q 2778 4147 2406 4147 
L 1613 4147 
z
M 2772 2241 
Q 2972 2194 3105 2009 
Q 3238 1825 3413 1275 
L 3809 0 
L 3144 0 
L 2778 1197 
Q 2638 1659 2453 1815 
Q 2269 1972 1888 1972 
L 1191 1972 
L 806 0 
L 172 0 
L 1081 4666 
L 2503 4666 
Q 3150 4666 3495 4373 
Q 3841 4081 3841 3531 
Q 3841 3044 3547 2687 
Q 3253 2331 2772 2241 
z
" transform="scale(0.015625)"/>
      <path id="DejaVuSans-Oblique-46" d="M 1081 4666 
L 3756 4666 
L 3653 4134 
L 1606 4134 
L 1338 2759 
L 3188 2759 
L 3084 2228 
L 1234 2228 
L 800 0 
L 172 0 
L 1081 4666 
z
" transform="scale(0.015625)"/>
     </defs>
     <use xlink:href="#DejaVuSans-Oblique-52" transform="translate(0 0.09375)"/>
     <use xlink:href="#DejaVuSans-Oblique-46" transform="translate(69.482422 -16.3125) scale(0.7)"/>
    </g>
   </g>
   <g id="text_7">
    <!-- $r_{o}$ -->
    <g transform="translate(345.84 106.495) scale(0.16 -0.16)">
     <defs>
      <path id="DejaVuSans-Oblique-72" d="M 2853 2969 
Q 2766 3016 2653 3041 
Q 2541 3066 2413 3066 
Q 1953 3066 1609 2717 
Q 1266 2369 1153 1784 
L 800 0 
L 225 0 
L 909 3500 
L 1484 3500 
L 1375 2956 
Q 1603 3259 1920 3421 
Q 2238 3584 2597 3584 
Q 2691 3584 2781 3573 
Q 2872 3563 2963 3538 
L 2853 2969 
z
" transform="scale(0.015625)"/>
      <path id="DejaVuSans-Oblique-6f" d="M 1625 -91 
Q 1009 -91 651 289 
Q 294 669 294 1325 
Q 294 1706 417 2101 
Q 541 2497 738 2766 
Q 1047 3184 1428 3384 
Q 1809 3584 2291 3584 
Q 2888 3584 3255 3212 
Q 3622 2841 3622 2241 
Q 3622 1825 3500 1412 
Q 3378 1000 3181 728 
Q 2875 309 2494 109 
Q 2113 -91 1625 -91 
z
M 891 1344 
Q 891 869 1089 633 
Q 1288 397 1691 397 
Q 2269 397 2648 901 
Q 3028 1406 3028 2181 
Q 3028 2634 2825 2865 
Q 2622 3097 2228 3097 
Q 1903 3097 1650 2945 
Q 1397 2794 1197 2484 
Q 1050 2253 970 1956 
Q 891 1659 891 1344 
z
" transform="scale(0.015625)"/>
     </defs>
     <use xlink:href="#DejaVuSans-Oblique-72"/>
     <use xlink:href="#DejaVuSans-Oblique-6f" transform="translate(41.113281 -16.40625) scale(0.7)"/>
    </g>
   </g>
   <g id="line2d_22">
    <path d="M 189.24 109.28 
L 189.24 109.28 
" clip-path="url(#pa3bef01def)" style="fill: none; stroke: #ff0000; stroke-width: 2; stroke-linecap: round"/>
   </g>
   <g id="patch_7">
    <path d="M 183.84 109.28 
L 189.24 98.48 
L 194.64 109.28 
z
" clip-path="url(#pa3bef01def)" style="fill: #ff0000"/>
   </g>
   <g id="text_8">
    <!-- $i_r$ -->
    <g style="fill: #ff0000" transform="translate(200.04 108.295) scale(0.16 -0.16)">
     <use xlink:href="#DejaVuSans-Oblique-69" transform="translate(0 0.015625)"/>
     <use xlink:href="#DejaVuSans-Oblique-72" transform="translate(27.783203 -16.390625) scale(0.7)"/>
    </g>
   </g>
   <g id="patch_8">
    <path d="M 153.24 140.78 
C 153.956048 140.78 154.642866 140.495511 155.149188 139.989188 
C 155.655511 139.482866 155.94 138.796048 155.94 138.08 
C 155.94 137.363952 155.655511 136.677134 155.149188 136.170812 
C 154.642866 135.664489 153.956048 135.38 153.24 135.38 
C 152.523952 135.38 151.837134 135.664489 151.330812 136.170812 
C 150.824489 136.677134 150.54 137.363952 150.54 138.08 
C 150.54 138.796048 150.824489 139.482866 151.330812 139.989188 
C 151.837134 140.495511 152.523952 140.78 153.24 140.78 
z
" clip-path="url(#pa3bef01def)" style="stroke: #000000; stroke-width: 2; stroke-linejoin: miter"/>
   </g>
   <g id="patch_9">
    <path d="M 9.24 68.78 
C 9.956048 68.78 10.642866 68.495511 11.149188 67.989188 
C 11.655511 67.482866 11.94 66.796048 11.94 66.08 
C 11.94 65.363952 11.655511 64.677134 11.149188 64.170812 
C 10.642866 63.664489 9.956048 63.38 9.24 63.38 
C 8.523952 63.38 7.837134 63.664489 7.330812 64.170812 
C 6.824489 64.677134 6.54 65.363952 6.54 66.08 
C 6.54 66.796048 6.824489 67.482866 7.330812 67.989188 
C 7.837134 68.495511 8.523952 68.78 9.24 68.78 
z
" clip-path="url(#pa3bef01def)" style="fill: #0000ff; stroke: #0000ff; stroke-width: 2; stroke-linejoin: miter"/>
   </g>
   <g id="patch_10">
    <path d="M 261.24 68.78 
C 261.956048 68.78 262.642866 68.495511 263.149188 67.989188 
C 263.655511 67.482866 263.94 66.796048 263.94 66.08 
C 263.94 65.363952 263.655511 64.677134 263.149188 64.170812 
C 262.642866 63.664489 261.956048 63.38 261.24 63.38 
C 260.523952 63.38 259.837134 63.664489 259.330812 64.170812 
C 258.824489 64.677134 258.54 65.363952 258.54 66.08 
C 258.54 66.796048 258.824489 67.482866 259.330812 67.989188 
C 259.837134 68.495511 260.523952 68.78 261.24 68.78 
z
" clip-path="url(#pa3bef01def)" style="fill: #0000ff; stroke: #0000ff; stroke-width: 2; stroke-linejoin: miter"/>
   </g>
  </g>
 </g>
 <defs>
  <clipPath id="pa3bef01def">
   <rect x="0" y="-0" width="368.952" height="165.8"/>
  </clipPath>
 </defs>
</svg>
