<?xml version="1.0" encoding="utf-8" standalone="no"?>
<!DOCTYPE svg PUBLIC "-//W3C//DTD SVG 1.1//EN"
  "http://www.w3.org/Graphics/SVG/1.1/DTD/svg11.dtd">
<svg xmlns:xlink="http://www.w3.org/1999/xlink" width="245.274pt" height="263.6pt" viewBox="0 0 245.274 263.6" xmlns="http://www.w3.org/2000/svg" version="1.1">
 <metadata>
  <rdf:RDF xmlns:dc="http://purl.org/dc/elements/1.1/" xmlns:cc="http://creativecommons.org/ns#" xmlns:rdf="http://www.w3.org/1999/02/22-rdf-syntax-ns#">
   <cc:Work>
    <dc:type rdf:resource="http://purl.org/dc/dcmitype/StillImage"/>
    <dc:date>2025-03-25T17:47:25.379796</dc:date>
    <dc:format>image/svg+xml</dc:format>
    <dc:creator>
     <cc:Agent>
      <dc:title>Matplotlib v3.9.2, https://matplotlib.org/</dc:title>
     </cc:Agent>
    </dc:creator>
   </cc:Work>
  </rdf:RDF>
 </metadata>
 <defs>
  <style type="text/css">*{stroke-linejoin: round; stroke-linecap: butt}</style>
 </defs>
 <g id="figure_1">
  <g id="patch_1">
   <path d="M 0 263.6 
L 245.274 263.6 
L 245.274 0 
L 0 0 
z
" style="fill: #ffffff"/>
  </g>
  <g id="axes_1">
   <g id="patch_2">
    <path d="M 154.056 89.48 
C 158.829656 89.48 163.408438 87.583406 166.783922 84.207922 
C 170.159406 80.832438 172.056 76.253656 172.056 71.48 
C 172.056 66.706344 170.159406 62.127562 166.783922 58.752078 
C 163.408438 55.376594 158.829656 53.48 154.056 53.48 
C 149.282344 53.48 144.703562 55.376594 141.328078 58.752078 
C 137.952594 62.127562 136.056 66.706344 136.056 71.48 
C 136.056 76.253656 137.952594 80.832438 141.328078 84.207922 
C 144.703562 87.583406 149.282344 89.48 154.056 89.48 
L 154.056 89.48 
z
" clip-path="url(#p177495530c)" style="fill: none; stroke: #000000; stroke-width: 2; stroke-linejoin: miter"/>
   </g>
   <g id="patch_3">
    <path d="M 46.056 215.48 
C 50.829656 215.48 55.408438 213.583406 58.783922 210.207922 
C 62.159406 206.832438 64.056 202.253656 64.056 197.48 
C 64.056 192.706344 62.159406 188.127562 58.783922 184.752078 
C 55.408438 181.376594 50.829656 179.48 46.056 179.48 
C 41.282344 179.48 36.703562 181.376594 33.328078 184.752078 
C 29.952594 188.127562 28.056 192.706344 28.056 197.48 
C 28.056 202.253656 29.952594 206.832438 33.328078 210.207922 
C 36.703562 213.583406 41.282344 215.48 46.056 215.48 
L 46.056 215.48 
z
" clip-path="url(#p177495530c)" style="fill: none; stroke: #000000; stroke-width: 2; stroke-linejoin: miter"/>
   </g>
   <g id="line2d_1">
    <path d="M 154.056 35.48 
L 154.056 21.08 
" clip-path="url(#p177495530c)" style="fill: none; stroke: #000000; stroke-width: 2; stroke-linecap: round"/>
   </g>
   <g id="line2d_2">
    <path d="M 154.056 21.08 
L 147.306 21.08 
" clip-path="url(#p177495530c)" style="fill: none; stroke: #000000; stroke-width: 2; stroke-linecap: round"/>
   </g>
   <g id="line2d_3">
    <path d="M 154.056 21.08 
L 160.806 21.08 
" clip-path="url(#p177495530c)" style="fill: none; stroke: #000000; stroke-width: 2; stroke-linecap: round"/>
   </g>
   <g id="line2d_4">
    <path d="M 154.056 35.48 
L 154.056 53.48 
L 154.056 53.48 
M 154.056 89.48 
L 154.056 89.48 
L 154.056 107.48 
" clip-path="url(#p177495530c)" style="fill: none; stroke: #000000; stroke-width: 2; stroke-linecap: round"/>
   </g>
   <g id="line2d_5">
    <path d="M 154.056 62.48 
L 154.056 71.48 
" clip-path="url(#p177495530c)" style="fill: none; stroke: #000000; stroke-width: 2; stroke-linecap: round"/>
   </g>
   <g id="patch_4">
    <path d="M 156.756 71.48 
L 154.056 80.48 
L 151.356 71.48 
z
" clip-path="url(#p177495530c)"/>
   </g>
   <g id="line2d_6">
    <path d="M 154.056 167.48 
L 154.056 152.48 
L 139.056 152.48 
L 139.056 122.48 
L 154.056 122.48 
L 154.056 107.48 
" clip-path="url(#p177495530c)" style="fill: none; stroke: #000000; stroke-width: 2; stroke-linecap: round"/>
   </g>
   <g id="line2d_7">
    <path d="M 145.056 152.48 
L 139.056 152.48 
" clip-path="url(#p177495530c)" style="fill: none; stroke: #000000; stroke-width: 2; stroke-linecap: round"/>
   </g>
   <g id="patch_5">
    <path d="M 145.056 147.98 
L 154.056 152.48 
L 145.056 156.98 
z
" clip-path="url(#p177495530c)"/>
   </g>
   <g id="line2d_8">
    <path d="M 136.056 149.48 
L 136.056 125.48 
" clip-path="url(#p177495530c)" style="fill: none; stroke: #000000; stroke-width: 2; stroke-linecap: round"/>
   </g>
   <g id="line2d_9">
    <path d="M 121.056 137.48 
L 136.056 137.48 
" clip-path="url(#p177495530c)" style="fill: none; stroke: #000000; stroke-width: 2; stroke-linecap: round"/>
   </g>
   <g id="line2d_10">
    <path d="M 154.056 107.48 
L 145.056 107.48 
L 136.056 107.48 
" clip-path="url(#p177495530c)" style="fill: none; stroke: #000000; stroke-width: 2; stroke-linecap: round"/>
   </g>
   <g id="line2d_11">
    <path d="M 136.056 107.48 
L 118.056 107.48 
L 115.056 116.48 
L 109.056 98.48 
L 103.056 116.48 
L 97.056 98.48 
L 91.056 116.48 
L 85.056 98.48 
L 82.056 107.48 
L 64.056 107.48 
" clip-path="url(#p177495530c)" style="fill: none; stroke: #000000; stroke-width: 2; stroke-linecap: round"/>
   </g>
   <g id="line2d_12">
    <path d="M 64.056 107.48 
L 55.056 107.48 
L 46.056 107.48 
" clip-path="url(#p177495530c)" style="fill: none; stroke: #000000; stroke-width: 2; stroke-linecap: round"/>
   </g>
   <g id="line2d_13">
    <path d="M 46.056 107.48 
L 46.056 116.48 
L 46.056 125.48 
" clip-path="url(#p177495530c)" style="fill: none; stroke: #000000; stroke-width: 2; stroke-linecap: round"/>
   </g>
   <g id="line2d_14">
    <path d="M 46.056 125.48 
L 46.056 134.48 
L 46.056 143.48 
" clip-path="url(#p177495530c)" style="fill: none; stroke: #000000; stroke-width: 2; stroke-linecap: round"/>
   </g>
   <g id="line2d_15">
    <path d="M 46.056 143.48 
L 46.056 152.48 
L 46.056 161.48 
" clip-path="url(#p177495530c)" style="fill: none; stroke: #000000; stroke-width: 2; stroke-linecap: round"/>
   </g>
   <g id="line2d_16">
    <path d="M 46.056 161.48 
L 46.056 179.48 
L 46.056 179.48 
M 46.056 215.48 
L 46.056 215.48 
L 46.056 233.48 
" clip-path="url(#p177495530c)" style="fill: none; stroke: #000000; stroke-width: 2; stroke-linecap: round"/>
   </g>
   <g id="line2d_17">
    <path d="M 46.056 197.48 
L 46.056 206.48 
" clip-path="url(#p177495530c)" style="fill: none; stroke: #000000; stroke-width: 2; stroke-linecap: round"/>
   </g>
   <g id="patch_6">
    <path d="M 43.356 197.48 
L 46.056 188.48 
L 48.756 197.48 
z
" clip-path="url(#p177495530c)"/>
   </g>
   <g id="line2d_18">
    <path d="M 121.056 137.48 
L 83.256 137.48 
L 45.456 137.48 
" clip-path="url(#p177495530c)" style="fill: none; stroke: #000000; stroke-width: 2; stroke-linecap: round"/>
   </g>
   <g id="line2d_19">
    <path d="M 46.056 233.48 
L 46.056 247.88 
L 37.056 247.88 
L 55.056 247.88 
M 39.756 252.2 
L 52.356 252.2 
M 44.256 256.52 
L 47.856 256.52 
" clip-path="url(#p177495530c)" style="fill: none; stroke: #000000; stroke-width: 2; stroke-linecap: round"/>
   </g>
   <g id="line2d_20">
    <path d="M 154.056 167.48 
L 154.056 201.68 
L 154.056 235.88 
" clip-path="url(#p177495530c)" style="fill: none; stroke: #000000; stroke-width: 2; stroke-linecap: round"/>
   </g>
   <g id="line2d_21">
    <path d="M 154.056 235.88 
L 154.056 250.28 
L 145.056 250.28 
L 163.056 250.28 
M 147.756 254.6 
L 160.356 254.6 
M 152.256 258.92 
L 155.856 258.92 
" clip-path="url(#p177495530c)" style="fill: none; stroke: #000000; stroke-width: 2; stroke-linecap: round"/>
   </g>
   <g id="line2d_22">
    <path d="M 136.056 107.48 
L 172.056 107.48 
L 208.056 107.48 
" clip-path="url(#p177495530c)" style="fill: none; stroke: #000000; stroke-width: 2; stroke-linecap: round"/>
   </g>
   <g id="line2d_23">
    <path d="M 204.456 89.48 
L 204.456 125.48 
L 195.456 125.48 
" clip-path="url(#p177495530c)" style="fill: none; stroke: #0000ff; stroke-width: 2; stroke-linecap: round"/>
   </g>
   <g id="patch_7">
    <path d="M 195.456 128.18 
L 186.456 125.48 
L 195.456 122.78 
z
" clip-path="url(#p177495530c)" style="fill: #0000ff"/>
   </g>
   <g id="line2d_24">
    <path d="M 64.056 157.88 
L 28.056 157.88 
L 28.056 148.88 
" clip-path="url(#p177495530c)" style="fill: none; stroke: #0000ff; stroke-width: 2; stroke-linecap: round"/>
   </g>
   <g id="patch_8">
    <path d="M 25.356 148.88 
L 28.056 139.88 
L 30.756 148.88 
z
" clip-path="url(#p177495530c)" style="fill: #0000ff"/>
   </g>
   <g id="text_1">
    <!-- $V_{DD}$ -->
    <g transform="translate(139.736 14.1525) scale(0.16 -0.16)">
     <defs>
      <path id="DejaVuSans-Oblique-56" d="M 1319 0 
L 500 4666 
L 1119 4666 
L 1797 653 
L 4063 4666 
L 4750 4666 
L 2053 0 
L 1319 0 
z
" transform="scale(0.015625)"/>
      <path id="DejaVuSans-Oblique-44" d="M 1081 4666 
L 2438 4666 
Q 3519 4666 4070 4208 
Q 4622 3750 4622 2847 
Q 4622 2250 4412 1698 
Q 4203 1147 3834 769 
Q 3463 381 2891 190 
Q 2319 0 1538 0 
L 172 0 
L 1081 4666 
z
M 1613 4147 
L 909 519 
L 1734 519 
Q 2794 519 3375 1128 
Q 3956 1738 3956 2847 
Q 3956 3519 3581 3833 
Q 3206 4147 2406 4147 
L 1613 4147 
z
" transform="scale(0.015625)"/>
     </defs>
     <use xlink:href="#DejaVuSans-Oblique-56" transform="translate(0 0.09375)"/>
     <use xlink:href="#DejaVuSans-Oblique-44" transform="translate(68.408203 -16.3125) scale(0.7)"/>
     <use xlink:href="#DejaVuSans-Oblique-44" transform="translate(122.30957 -16.3125) scale(0.7)"/>
    </g>
   </g>
   <g id="text_2">
    <!-- $I_B$ -->
    <g transform="translate(175.656 75.895) scale(0.16 -0.16)">
     <defs>
      <path id="DejaVuSans-Oblique-49" d="M 1081 4666 
L 1716 4666 
L 806 0 
L 172 0 
L 1081 4666 
z
" transform="scale(0.015625)"/>
      <path id="DejaVuSans-Oblique-42" d="M 1081 4666 
L 2694 4666 
Q 3350 4666 3675 4422 
Q 4000 4178 4000 3688 
Q 4000 3238 3720 2911 
Q 3441 2584 2988 2516 
Q 3375 2428 3569 2181 
Q 3763 1934 3763 1522 
Q 3763 819 3242 409 
Q 2722 0 1819 0 
L 172 0 
L 1081 4666 
z
M 1234 2228 
L 903 519 
L 1919 519 
Q 2491 519 2800 781 
Q 3109 1044 3109 1522 
Q 3109 1891 2904 2059 
Q 2700 2228 2247 2228 
L 1234 2228 
z
M 1606 4147 
L 1331 2741 
L 2272 2741 
Q 2775 2741 3058 2959 
Q 3341 3178 3341 3566 
Q 3341 3869 3150 4008 
Q 2959 4147 2541 4147 
L 1606 4147 
z
" transform="scale(0.015625)"/>
     </defs>
     <use xlink:href="#DejaVuSans-Oblique-49" transform="translate(0 0.09375)"/>
     <use xlink:href="#DejaVuSans-Oblique-42" transform="translate(29.492188 -16.3125) scale(0.7)"/>
    </g>
   </g>
   <g id="text_3">
    <!-- $M_{1}$ -->
    <g transform="translate(154.056 141.895) scale(0.16 -0.16)">
     <defs>
      <path id="DejaVuSans-Oblique-4d" d="M 1081 4666 
L 2028 4666 
L 2572 1522 
L 4378 4666 
L 5350 4666 
L 4441 0 
L 3828 0 
L 4622 4091 
L 2791 897 
L 2175 897 
L 1581 4103 
L 788 0 
L 172 0 
L 1081 4666 
z
" transform="scale(0.015625)"/>
      <path id="DejaVuSans-31" d="M 794 531 
L 1825 531 
L 1825 4091 
L 703 3866 
L 703 4441 
L 1819 4666 
L 2450 4666 
L 2450 531 
L 3481 531 
L 3481 0 
L 794 0 
L 794 531 
z
" transform="scale(0.015625)"/>
     </defs>
     <use xlink:href="#DejaVuSans-Oblique-4d" transform="translate(0 0.09375)"/>
     <use xlink:href="#DejaVuSans-31" transform="translate(86.279297 -16.3125) scale(0.7)"/>
    </g>
   </g>
   <g id="text_4">
    <!-- $R_F$ -->
    <g transform="translate(91.016 91.5525) scale(0.16 -0.16)">
     <defs>
      <path id="DejaVuSans-Oblique-52" d="M 1613 4147 
L 1294 2491 
L 2106 2491 
Q 2584 2491 2879 2755 
Q 3175 3019 3175 3444 
Q 3175 3784 2976 3965 
Q 2778 4147 2406 4147 
L 1613 4147 
z
M 2772 2241 
Q 2972 2194 3105 2009 
Q 3238 1825 3413 1275 
L 3809 0 
L 3144 0 
L 2778 1197 
Q 2638 1659 2453 1815 
Q 2269 1972 1888 1972 
L 1191 1972 
L 806 0 
L 172 0 
L 1081 4666 
L 2503 4666 
Q 3150 4666 3495 4373 
Q 3841 4081 3841 3531 
Q 3841 3044 3547 2687 
Q 3253 2331 2772 2241 
z
" transform="scale(0.015625)"/>
      <path id="DejaVuSans-Oblique-46" d="M 1081 4666 
L 3756 4666 
L 3653 4134 
L 1606 4134 
L 1338 2759 
L 3188 2759 
L 3084 2228 
L 1234 2228 
L 800 0 
L 172 0 
L 1081 4666 
z
" transform="scale(0.015625)"/>
     </defs>
     <use xlink:href="#DejaVuSans-Oblique-52" transform="translate(0 0.09375)"/>
     <use xlink:href="#DejaVuSans-Oblique-46" transform="translate(69.482422 -16.3125) scale(0.7)"/>
    </g>
   </g>
   <g id="text_5">
    <!-- $i_{in}$ -->
    <g transform="translate(9.256 201.895) scale(0.16 -0.16)">
     <defs>
      <path id="DejaVuSans-Oblique-69" d="M 1172 4863 
L 1747 4863 
L 1606 4134 
L 1031 4134 
L 1172 4863 
z
M 909 3500 
L 1484 3500 
L 800 0 
L 225 0 
L 909 3500 
z
" transform="scale(0.015625)"/>
      <path id="DejaVuSans-Oblique-6e" d="M 3566 2113 
L 3156 0 
L 2578 0 
L 2988 2091 
Q 3016 2238 3031 2350 
Q 3047 2463 3047 2528 
Q 3047 2791 2881 2937 
Q 2716 3084 2419 3084 
Q 1956 3084 1622 2776 
Q 1288 2469 1184 1941 
L 800 0 
L 225 0 
L 903 3500 
L 1478 3500 
L 1363 2950 
Q 1603 3253 1940 3418 
Q 2278 3584 2650 3584 
Q 3113 3584 3367 3334 
Q 3622 3084 3622 2631 
Q 3622 2519 3608 2391 
Q 3594 2263 3566 2113 
z
" transform="scale(0.015625)"/>
     </defs>
     <use xlink:href="#DejaVuSans-Oblique-69" transform="translate(0 0.015625)"/>
     <use xlink:href="#DejaVuSans-Oblique-69" transform="translate(27.783203 -16.390625) scale(0.7)"/>
     <use xlink:href="#DejaVuSans-Oblique-6e" transform="translate(47.231445 -16.390625) scale(0.7)"/>
    </g>
   </g>
   <g id="patch_9">
    <path d="M 45.456 140.18 
C 46.172048 140.18 46.858866 139.895511 47.365188 139.389188 
C 47.871511 138.882866 48.156 138.196048 48.156 137.48 
C 48.156 136.763952 47.871511 136.077134 47.365188 135.570812 
C 46.858866 135.064489 46.172048 134.78 45.456 134.78 
C 44.739952 134.78 44.053134 135.064489 43.546812 135.570812 
C 43.040489 136.077134 42.756 136.763952 42.756 137.48 
C 42.756 138.196048 43.040489 138.882866 43.546812 139.389188 
C 44.053134 139.895511 44.739952 140.18 45.456 140.18 
z
" clip-path="url(#p177495530c)" style="stroke: #000000; stroke-width: 2; stroke-linejoin: miter"/>
   </g>
   <g id="text_6">
    <!-- $R_{out}$ -->
    <g style="fill: #0000ff" transform="translate(211.166 94.717812) scale(0.14 -0.14)">
     <defs>
      <path id="DejaVuSans-Oblique-6f" d="M 1625 -91 
Q 1009 -91 651 289 
Q 294 669 294 1325 
Q 294 1706 417 2101 
Q 541 2497 738 2766 
Q 1047 3184 1428 3384 
Q 1809 3584 2291 3584 
Q 2888 3584 3255 3212 
Q 3622 2841 3622 2241 
Q 3622 1825 3500 1412 
Q 3378 1000 3181 728 
Q 2875 309 2494 109 
Q 2113 -91 1625 -91 
z
M 891 1344 
Q 891 869 1089 633 
Q 1288 397 1691 397 
Q 2269 397 2648 901 
Q 3028 1406 3028 2181 
Q 3028 2634 2825 2865 
Q 2622 3097 2228 3097 
Q 1903 3097 1650 2945 
Q 1397 2794 1197 2484 
Q 1050 2253 970 1956 
Q 891 1659 891 1344 
z
" transform="scale(0.015625)"/>
      <path id="DejaVuSans-Oblique-75" d="M 428 1388 
L 838 3500 
L 1416 3500 
L 1006 1409 
Q 975 1256 961 1147 
Q 947 1038 947 966 
Q 947 700 1109 554 
Q 1272 409 1569 409 
Q 2031 409 2368 721 
Q 2706 1034 2809 1563 
L 3194 3500 
L 3769 3500 
L 3091 0 
L 2516 0 
L 2631 550 
Q 2388 244 2052 76 
Q 1716 -91 1338 -91 
Q 878 -91 622 161 
Q 366 413 366 863 
Q 366 956 381 1097 
Q 397 1238 428 1388 
z
" transform="scale(0.015625)"/>
      <path id="DejaVuSans-Oblique-74" d="M 2706 3500 
L 2619 3053 
L 1472 3053 
L 1100 1153 
Q 1081 1047 1072 975 
Q 1063 903 1063 863 
Q 1063 663 1183 572 
Q 1303 481 1569 481 
L 2150 481 
L 2053 0 
L 1503 0 
Q 991 0 739 200 
Q 488 400 488 806 
Q 488 878 497 964 
Q 506 1050 525 1153 
L 897 3053 
L 409 3053 
L 500 3500 
L 978 3500 
L 1172 4494 
L 1747 4494 
L 1556 3500 
L 2706 3500 
z
" transform="scale(0.015625)"/>
     </defs>
     <use xlink:href="#DejaVuSans-Oblique-52" transform="translate(0 0.09375)"/>
     <use xlink:href="#DejaVuSans-Oblique-6f" transform="translate(69.482422 -16.3125) scale(0.7)"/>
     <use xlink:href="#DejaVuSans-Oblique-75" transform="translate(112.30957 -16.3125) scale(0.7)"/>
     <use xlink:href="#DejaVuSans-Oblique-74" transform="translate(156.674805 -16.3125) scale(0.7)"/>
    </g>
   </g>
   <g id="text_7">
    <!-- $R_{in}$ -->
    <g style="fill: #0000ff" transform="translate(67.066 159.517812) scale(0.14 -0.14)">
     <use xlink:href="#DejaVuSans-Oblique-52" transform="translate(0 0.09375)"/>
     <use xlink:href="#DejaVuSans-Oblique-69" transform="translate(69.482422 -16.3125) scale(0.7)"/>
     <use xlink:href="#DejaVuSans-Oblique-6e" transform="translate(88.930664 -16.3125) scale(0.7)"/>
    </g>
   </g>
   <g id="patch_10">
    <path d="M 154.056 110.18 
C 154.772048 110.18 155.458866 109.895511 155.965188 109.389188 
C 156.471511 108.882866 156.756 108.196048 156.756 107.48 
C 156.756 106.763952 156.471511 106.077134 155.965188 105.570812 
C 155.458866 105.064489 154.772048 104.78 154.056 104.78 
C 153.339952 104.78 152.653134 105.064489 152.146812 105.570812 
C 151.640489 106.077134 151.356 106.763952 151.356 107.48 
C 151.356 108.196048 151.640489 108.882866 152.146812 109.389188 
C 152.653134 109.895511 153.339952 110.18 154.056 110.18 
z
" clip-path="url(#p177495530c)" style="stroke: #000000; stroke-width: 2; stroke-linejoin: miter"/>
   </g>
  </g>
 </g>
 <defs>
  <clipPath id="p177495530c">
   <rect x="0" y="0" width="245.274" height="263.6"/>
  </clipPath>
 </defs>
</svg>
