<?xml version="1.0" encoding="utf-8" standalone="no"?>
<!DOCTYPE svg PUBLIC "-//W3C//DTD SVG 1.1//EN"
  "http://www.w3.org/Graphics/SVG/1.1/DTD/svg11.dtd">
<svg xmlns:xlink="http://www.w3.org/1999/xlink" width="1050.528pt" height="162.36pt" viewBox="0 0 1050.528 162.36" xmlns="http://www.w3.org/2000/svg" version="1.1">
 <metadata>
  <rdf:RDF xmlns:dc="http://purl.org/dc/elements/1.1/" xmlns:cc="http://creativecommons.org/ns#" xmlns:rdf="http://www.w3.org/1999/02/22-rdf-syntax-ns#">
   <cc:Work>
    <dc:type rdf:resource="http://purl.org/dc/dcmitype/StillImage"/>
    <dc:date>2025-03-25T17:47:21.753560</dc:date>
    <dc:format>image/svg+xml</dc:format>
    <dc:creator>
     <cc:Agent>
      <dc:title>Matplotlib v3.9.2, https://matplotlib.org/</dc:title>
     </cc:Agent>
    </dc:creator>
   </cc:Work>
  </rdf:RDF>
 </metadata>
 <defs>
  <style type="text/css">*{stroke-linejoin: round; stroke-linecap: butt}</style>
 </defs>
 <g id="figure_1">
  <g id="patch_1">
   <path d="M 0 162.36 
L 1050.528 162.36 
L 1050.528 0 
L 0 0 
z
" style="fill: #ffffff"/>
  </g>
  <g id="axes_1">
   <g id="patch_2">
    <path d="M 106.872 49.68 
C 111.645656 49.68 116.224438 47.783406 119.599922 44.407922 
C 122.975406 41.032438 124.872 36.453656 124.872 31.68 
C 124.872 26.906344 122.975406 22.327562 119.599922 18.952078 
C 116.224438 15.576594 111.645656 13.68 106.872 13.68 
C 102.098344 13.68 97.519562 15.576594 94.144078 18.952078 
C 90.768594 22.327562 88.872 26.906344 88.872 31.68 
C 88.872 36.453656 90.768594 41.032438 94.144078 44.407922 
C 97.519562 47.783406 102.098344 49.68 106.872 49.68 
L 106.872 49.68 
z
" clip-path="url(#pf977e6825a)" style="fill: none; stroke: #000000; stroke-width: 2; stroke-linejoin: miter"/>
   </g>
   <g id="line2d_1">
    <path d="M 16.872 31.68 
L 52.872 31.68 
L 88.872 31.68 
" clip-path="url(#pf977e6825a)" style="fill: none; stroke: #000000; stroke-width: 2; stroke-linecap: round"/>
   </g>
   <g id="line2d_2">
    <path d="M 124.872 31.68 
L 160.872 31.68 
L 187.872 31.68 
" clip-path="url(#pf977e6825a)" style="fill: none; stroke: #000000; stroke-width: 2; stroke-linecap: round"/>
   </g>
   <g id="patch_3">
    <path d="M 187.872 28.98 
L 196.872 31.68 
L 187.872 34.38 
z
" clip-path="url(#pf977e6825a)"/>
   </g>
   <g id="line2d_3">
    <path d="M 196.872 31.68 
L 196.872 4.68 
L 412.872 4.68 
L 412.872 58.68 
L 196.872 58.68 
L 196.872 31.68 
" clip-path="url(#pf977e6825a)" style="fill: none; stroke: #000000; stroke-width: 2; stroke-linecap: round"/>
   </g>
   <g id="line2d_4">
    <path d="M 412.872 31.68 
L 448.872 31.68 
L 484.872 31.68 
" clip-path="url(#pf977e6825a)" style="fill: none; stroke: #000000; stroke-width: 2; stroke-linecap: round"/>
   </g>
   <g id="line2d_5">
    <path d="M 484.872 31.68 
L 520.872 31.68 
L 556.872 31.68 
" clip-path="url(#pf977e6825a)" style="fill: none; stroke: #000000; stroke-width: 2; stroke-linecap: round"/>
   </g>
   <g id="line2d_6">
    <path d="M 484.872 31.68 
L 484.872 85.68 
L 484.872 139.68 
" clip-path="url(#pf977e6825a)" style="fill: none; stroke: #000000; stroke-width: 2; stroke-linecap: round"/>
   </g>
   <g id="line2d_7">
    <path d="M 484.872 139.68 
L 430.872 139.68 
L 385.872 139.68 
" clip-path="url(#pf977e6825a)" style="fill: none; stroke: #000000; stroke-width: 2; stroke-linecap: round"/>
   </g>
   <g id="patch_4">
    <path d="M 385.872 142.38 
L 376.872 139.68 
L 385.872 136.98 
z
" clip-path="url(#pf977e6825a)"/>
   </g>
   <g id="line2d_8">
    <path d="M 232.872 139.68 
L 232.872 121.68 
L 376.872 121.68 
L 376.872 157.68 
L 232.872 157.68 
L 232.872 139.68 
" clip-path="url(#pf977e6825a)" style="fill: none; stroke: #000000; stroke-width: 2; stroke-linecap: round"/>
   </g>
   <g id="line2d_9">
    <path d="M 232.872 139.68 
L 169.872 139.68 
L 106.872 139.68 
" clip-path="url(#pf977e6825a)" style="fill: none; stroke: #000000; stroke-width: 2; stroke-linecap: round"/>
   </g>
   <g id="line2d_10">
    <path d="M 106.872 139.68 
L 106.872 121.68 
L 106.872 103.68 
" clip-path="url(#pf977e6825a)" style="fill: none; stroke: #000000; stroke-width: 2; stroke-linecap: round"/>
   </g>
   <g id="line2d_11">
    <path d="M 106.872 103.68 
L 106.872 76.68 
L 106.872 58.68 
" clip-path="url(#pf977e6825a)" style="fill: none; stroke: #000000; stroke-width: 2; stroke-linecap: round"/>
   </g>
   <g id="patch_5">
    <path d="M 104.172 58.68 
L 106.872 49.68 
L 109.572 58.68 
z
" clip-path="url(#pf977e6825a)"/>
   </g>
   <g id="line2d_12">
    <path d="M 700.872 31.68 
L 718.872 31.68 
L 736.872 31.68 
" clip-path="url(#pf977e6825a)" style="fill: none; stroke: #000000; stroke-width: 2; stroke-linecap: round"/>
   </g>
   <g id="line2d_13">
    <path d="M 736.872 31.68 
L 736.872 4.68 
L 988.872 4.68 
L 988.872 58.68 
L 736.872 58.68 
L 736.872 31.68 
" clip-path="url(#pf977e6825a)" style="fill: none; stroke: #000000; stroke-width: 2; stroke-linecap: round"/>
   </g>
   <g id="line2d_14">
    <path d="M 988.872 31.68 
L 1006.872 31.68 
L 1024.872 31.68 
" clip-path="url(#pf977e6825a)" style="fill: none; stroke: #000000; stroke-width: 2; stroke-linecap: round"/>
   </g>
   <g id="text_1">
    <!-- $_+$ -->
    <g transform="translate(70.872 39.695) scale(0.16 -0.16)">
     <defs>
      <path id="DejaVuSans-2b" d="M 2944 4013 
L 2944 2272 
L 4684 2272 
L 4684 1741 
L 2944 1741 
L 2944 0 
L 2419 0 
L 2419 1741 
L 678 1741 
L 678 2272 
L 2419 2272 
L 2419 4013 
L 2944 4013 
z
" transform="scale(0.015625)"/>
     </defs>
     <use xlink:href="#DejaVuSans-2b" transform="translate(14.594727 -15.892187) scale(0.7)"/>
    </g>
   </g>
   <g id="text_2">
    <!-- $\Sigma$ -->
    <g transform="translate(100.592 35.543125) scale(0.14 -0.14)">
     <defs>
      <path id="DejaVuSans-3a3" d="M 1353 531 
L 3634 531 
L 3634 0 
L 628 0 
L 628 531 
L 2125 2481 
L 628 4134 
L 628 4666 
L 3578 4666 
L 3578 4134 
L 1353 4134 
L 2850 2494 
L 1353 531 
z
" transform="scale(0.015625)"/>
     </defs>
     <use xlink:href="#DejaVuSans-3a3" transform="translate(0 0.09375)"/>
    </g>
   </g>
   <g id="text_3">
    <!-- $v_\epsilon$ -->
    <g transform="translate(152.872 19.3525) scale(0.16 -0.16)">
     <defs>
      <path id="DejaVuSans-Oblique-76" d="M 459 3500 
L 1069 3500 
L 1581 525 
L 3256 3500 
L 3866 3500 
L 1875 0 
L 1100 0 
L 459 3500 
z
" transform="scale(0.015625)"/>
      <path id="DejaVuSans-Oblique-3b5" d="M 1263 1888 
Q 925 1963 778 2166 
Q 669 2309 669 2503 
Q 669 3034 1175 3344 
Q 1575 3588 2188 3588 
Q 2425 3588 2684 3550 
Q 2944 3513 3234 3438 
L 3134 2916 
Q 2847 3006 2606 3047 
Q 2359 3088 2138 3088 
Q 1766 3088 1522 2944 
Q 1228 2772 1228 2522 
Q 1228 2356 1381 2241 
Q 1563 2103 1925 2103 
L 2409 2103 
L 2319 1628 
L 1856 1628 
Q 1425 1628 1172 1469 
Q 828 1253 828 916 
Q 828 703 1013 563 
Q 1244 388 1716 388 
Q 2006 388 2284 444 
Q 2563 503 2806 619 
L 2700 84 
Q 2403 -3 2131 -47 
Q 1859 -91 1609 -91 
Q 866 -91 516 194 
Q 250 413 250 781 
Q 250 1278 600 1584 
Q 859 1813 1263 1888 
z
" transform="scale(0.015625)"/>
     </defs>
     <use xlink:href="#DejaVuSans-Oblique-76" transform="translate(0 0.3125)"/>
     <use xlink:href="#DejaVuSans-Oblique-3b5" transform="translate(59.179688 -16.09375) scale(0.7)"/>
    </g>
   </g>
   <g id="text_4">
    <!-- $a_1 \cdot v_\epsilon + a_2 \cdot v_\epsilon^2 + a_3 \cdot v_\epsilon^3$ -->
    <g transform="translate(217.432 36.56) scale(0.16 -0.16)">
     <defs>
      <path id="DejaVuSerif-Italic-61" d="M 2325 519 
Q 1909 -91 1238 -91 
Q 688 -91 409 281 
Q 216 544 216 919 
Q 216 1078 250 1256 
Q 463 2359 1231 2928 
Q 1884 3413 2675 3413 
Q 3206 3413 3388 3322 
L 2806 331 
L 3300 331 
L 3238 0 
L 2225 0 
L 2325 519 
z
M 822 938 
Q 822 269 1469 269 
Q 1863 269 2130 583 
Q 2397 897 2516 1497 
L 2806 3003 
L 2806 3003 
Q 2806 3094 2556 3094 
Q 1956 3094 1491 2625 
Q 1028 2153 863 1297 
Q 822 1097 822 938 
z
" transform="scale(0.015625)"/>
      <path id="DejaVuSerif-31" d="M 909 0 
L 909 331 
L 1722 331 
L 1722 4213 
L 781 3603 
L 781 4013 
L 1919 4750 
L 2350 4750 
L 2350 331 
L 3163 331 
L 3163 0 
L 909 0 
z
" transform="scale(0.015625)"/>
      <path id="DejaVuSerif-22c5" d="M 678 2222 
Q 678 2397 798 2517 
Q 919 2638 1097 2638 
Q 1269 2638 1391 2516 
Q 1513 2394 1513 2222 
Q 1513 2047 1391 1926 
Q 1269 1806 1097 1806 
Q 919 1806 798 1925 
Q 678 2044 678 2222 
z
" transform="scale(0.015625)"/>
      <path id="DejaVuSerif-Italic-76" d="M 1681 0 
L 1259 0 
L 619 2988 
L 241 2988 
L 303 3322 
L 1163 3322 
L 1725 703 
Q 2084 1016 2325 1413 
Q 2825 2238 3003 2988 
L 2622 2988 
L 2688 3322 
L 3547 3322 
Q 3206 2034 2775 1313 
Q 2400 688 1681 0 
z
" transform="scale(0.015625)"/>
      <path id="DejaVuSerif-Italic-3b5" d="M 3191 3156 
L 3069 2541 
L 2719 2463 
Q 2734 2741 2538 2884 
Q 2341 3025 2047 3025 
Q 1753 3025 1506 2872 
Q 1256 2716 1216 2503 
Q 1163 2228 1394 2069 
Q 1628 1906 2044 1906 
L 2194 1906 
L 2131 1578 
L 1844 1578 
Q 1425 1578 1113 1378 
Q 797 1175 731 834 
Q 681 572 909 375 
Q 1138 175 1484 175 
Q 1847 175 2142 340 
Q 2438 506 2531 825 
L 2853 747 
L 2728 103 
Q 2375 -9 2025 -66 
Q 1681 -122 1441 -122 
Q 825 -122 447 125 
Q 75 375 166 841 
Q 259 1331 609 1572 
Q 794 1694 1269 1756 
L 828 2003 
Q 597 2134 675 2531 
Q 753 2934 1100 3147 
Q 1447 3356 2059 3356 
Q 2228 3356 2544 3306 
Q 2859 3253 3191 3156 
z
" transform="scale(0.015625)"/>
      <path id="DejaVuSerif-2b" d="M 2931 4013 
L 2931 2259 
L 4684 2259 
L 4684 1753 
L 2931 1753 
L 2931 0 
L 2431 0 
L 2431 1753 
L 678 1753 
L 678 2259 
L 2431 2259 
L 2431 4013 
L 2931 4013 
z
" transform="scale(0.015625)"/>
      <path id="DejaVuSerif-32" d="M 819 3553 
L 469 3553 
L 469 4384 
Q 803 4563 1142 4656 
Q 1481 4750 1806 4750 
Q 2534 4750 2956 4397 
Q 3378 4044 3378 3438 
Q 3378 2753 2422 1800 
Q 2347 1728 2309 1691 
L 1131 513 
L 3078 513 
L 3078 1088 
L 3444 1088 
L 3444 0 
L 434 0 
L 434 341 
L 1850 1753 
Q 2319 2222 2519 2614 
Q 2719 3006 2719 3438 
Q 2719 3909 2473 4175 
Q 2228 4441 1797 4441 
Q 1350 4441 1106 4219 
Q 863 3997 819 3553 
z
" transform="scale(0.015625)"/>
      <path id="DejaVuSerif-33" d="M 622 4469 
Q 988 4606 1323 4678 
Q 1659 4750 1953 4750 
Q 2638 4750 3022 4454 
Q 3406 4159 3406 3634 
Q 3406 3213 3140 2930 
Q 2875 2647 2388 2547 
Q 2963 2466 3280 2130 
Q 3597 1794 3597 1259 
Q 3597 606 3158 257 
Q 2719 -91 1894 -91 
Q 1528 -91 1179 -12 
Q 831 66 488 225 
L 488 1131 
L 838 1131 
Q 869 681 1141 450 
Q 1413 219 1906 219 
Q 2384 219 2661 495 
Q 2938 772 2938 1253 
Q 2938 1803 2653 2086 
Q 2369 2369 1819 2369 
L 1522 2369 
L 1522 2688 
L 1678 2688 
Q 2225 2688 2498 2914 
Q 2772 3141 2772 3597 
Q 2772 4006 2547 4223 
Q 2322 4441 1900 4441 
Q 1478 4441 1245 4241 
Q 1013 4041 972 3647 
L 622 3647 
L 622 4469 
z
" transform="scale(0.015625)"/>
     </defs>
     <use xlink:href="#DejaVuSerif-Italic-61" transform="translate(0 0.7125)"/>
     <use xlink:href="#DejaVuSerif-31" transform="translate(59.619141 -14.859375) scale(0.7)"/>
     <use xlink:href="#DejaVuSerif-22c5" transform="translate(125.71543 0.7125)"/>
     <use xlink:href="#DejaVuSerif-Italic-76" transform="translate(178.908789 0.7125)"/>
     <use xlink:href="#DejaVuSerif-Italic-3b5" transform="translate(235.40293 -14.859375) scale(0.7)"/>
     <use xlink:href="#DejaVuSerif-2b" transform="translate(294.526563 0.7125)"/>
     <use xlink:href="#DejaVuSerif-Italic-61" transform="translate(397.280469 0.7125)"/>
     <use xlink:href="#DejaVuSerif-32" transform="translate(456.899609 -14.859375) scale(0.7)"/>
     <use xlink:href="#DejaVuSerif-22c5" transform="translate(522.995898 0.7125)"/>
     <use xlink:href="#DejaVuSerif-Italic-76" transform="translate(576.189258 0.7125)"/>
     <use xlink:href="#DejaVuSerif-32" transform="translate(636.922409 37.046875) scale(0.7)"/>
     <use xlink:href="#DejaVuSerif-Italic-3b5" transform="translate(632.683398 -25.240625) scale(0.7)"/>
     <use xlink:href="#DejaVuSerif-2b" transform="translate(703.018698 0.7125)"/>
     <use xlink:href="#DejaVuSerif-Italic-61" transform="translate(805.772604 0.7125)"/>
     <use xlink:href="#DejaVuSerif-33" transform="translate(865.391745 -14.859375) scale(0.7)"/>
     <use xlink:href="#DejaVuSerif-22c5" transform="translate(931.488034 0.7125)"/>
     <use xlink:href="#DejaVuSerif-Italic-76" transform="translate(984.681393 0.7125)"/>
     <use xlink:href="#DejaVuSerif-33" transform="translate(1045.414544 37.046875) scale(0.7)"/>
     <use xlink:href="#DejaVuSerif-Italic-3b5" transform="translate(1041.175534 -25.240625) scale(0.7)"/>
    </g>
   </g>
   <g id="text_5">
    <!-- $b$ -->
    <g transform="translate(299.752 144.095) scale(0.16 -0.16)">
     <defs>
      <path id="DejaVuSans-Oblique-62" d="M 3169 2138 
Q 3169 2591 2961 2847 
Q 2753 3103 2388 3103 
Q 2122 3103 1889 2973 
Q 1656 2844 1484 2597 
Q 1303 2338 1198 1995 
Q 1094 1653 1094 1313 
Q 1094 881 1298 636 
Q 1503 391 1863 391 
Q 2134 391 2365 517 
Q 2597 644 2772 891 
Q 2950 1147 3059 1487 
Q 3169 1828 3169 2138 
z
M 1381 2969 
Q 1594 3256 1914 3420 
Q 2234 3584 2584 3584 
Q 3122 3584 3439 3221 
Q 3756 2859 3756 2241 
Q 3756 1734 3570 1259 
Q 3384 784 3041 416 
Q 2816 172 2522 40 
Q 2228 -91 1906 -91 
Q 1566 -91 1316 65 
Q 1066 222 909 531 
L 806 0 
L 231 0 
L 1178 4863 
L 1753 4863 
L 1381 2969 
z
" transform="scale(0.015625)"/>
     </defs>
     <use xlink:href="#DejaVuSans-Oblique-62" transform="translate(0 0.015625)"/>
    </g>
   </g>
   <g id="text_6">
    <!-- $v_f$ -->
    <g transform="translate(162.912 132.7525) scale(0.16 -0.16)">
     <defs>
      <path id="DejaVuSans-Oblique-66" d="M 3059 4863 
L 2969 4384 
L 2419 4384 
Q 2106 4384 1964 4261 
Q 1822 4138 1753 3809 
L 1691 3500 
L 2638 3500 
L 2553 3053 
L 1606 3053 
L 1013 0 
L 434 0 
L 1031 3053 
L 481 3053 
L 563 3500 
L 1113 3500 
L 1159 3744 
Q 1278 4363 1576 4613 
Q 1875 4863 2516 4863 
L 3059 4863 
z
" transform="scale(0.015625)"/>
     </defs>
     <use xlink:href="#DejaVuSans-Oblique-76" transform="translate(0 0.3125)"/>
     <use xlink:href="#DejaVuSans-Oblique-66" transform="translate(59.179688 -16.09375) scale(0.7)"/>
    </g>
   </g>
   <g id="text_7">
    <!-- $_-$ -->
    <g transform="translate(112.272 55.895) scale(0.16 -0.16)">
     <defs>
      <path id="DejaVuSans-2212" d="M 678 2272 
L 4684 2272 
L 4684 1741 
L 678 1741 
L 678 2272 
z
" transform="scale(0.015625)"/>
     </defs>
     <use xlink:href="#DejaVuSans-2212" transform="translate(14.594727 -15.85) scale(0.7)"/>
    </g>
   </g>
   <g id="text_8">
    <!-- $\Longleftrightarrow$ -->
    <g transform="translate(595.872 39.1175) scale(0.4 -0.4)">
     <defs>
      <path id="DejaVuSans-27fa" d="M 1250 1678 
L 7925 1678 
L 8253 2006 
L 7925 2334 
L 1250 2334 
L 922 2006 
L 1250 1678 
z
M 7550 1303 
L 1625 1303 
L 1916 1013 
L 1541 638 
L 313 1866 
L 313 2147 
L 1541 3375 
L 1916 3000 
L 1625 2709 
L 7550 2709 
L 7259 3000 
L 7634 3375 
L 8863 2147 
L 8863 1866 
L 7634 638 
L 7259 1013 
L 7550 1303 
z
" transform="scale(0.015625)"/>
     </defs>
     <use xlink:href="#DejaVuSans-27fa" transform="translate(19.482422 0.265625)"/>
    </g>
   </g>
   <g id="text_9">
    <!-- $v_{in}$ -->
    <g transform="translate(694.392 24.7525) scale(0.16 -0.16)">
     <defs>
      <path id="DejaVuSans-Oblique-69" d="M 1172 4863 
L 1747 4863 
L 1606 4134 
L 1031 4134 
L 1172 4863 
z
M 909 3500 
L 1484 3500 
L 800 0 
L 225 0 
L 909 3500 
z
" transform="scale(0.015625)"/>
      <path id="DejaVuSans-Oblique-6e" d="M 3566 2113 
L 3156 0 
L 2578 0 
L 2988 2091 
Q 3016 2238 3031 2350 
Q 3047 2463 3047 2528 
Q 3047 2791 2881 2937 
Q 2716 3084 2419 3084 
Q 1956 3084 1622 2776 
Q 1288 2469 1184 1941 
L 800 0 
L 225 0 
L 903 3500 
L 1478 3500 
L 1363 2950 
Q 1603 3253 1940 3418 
Q 2278 3584 2650 3584 
Q 3113 3584 3367 3334 
Q 3622 3084 3622 2631 
Q 3622 2519 3608 2391 
Q 3594 2263 3566 2113 
z
" transform="scale(0.015625)"/>
     </defs>
     <use xlink:href="#DejaVuSans-Oblique-76" transform="translate(0 0.3125)"/>
     <use xlink:href="#DejaVuSans-Oblique-69" transform="translate(59.179688 -16.09375) scale(0.7)"/>
     <use xlink:href="#DejaVuSans-Oblique-6e" transform="translate(78.62793 -16.09375) scale(0.7)"/>
    </g>
   </g>
   <g id="text_10">
    <!-- $A_1 \cdot v_{in} + A_2 \cdot v_{in}^2 + A_3 \cdot v_{in}^3 + ...$ -->
    <g transform="translate(746.152 36.8) scale(0.16 -0.16)">
     <defs>
      <path id="DejaVuSans-Oblique-41" d="M 2356 4666 
L 3072 4666 
L 3938 0 
L 3278 0 
L 3084 1197 
L 984 1197 
L 325 0 
L -341 0 
L 2356 4666 
z
M 2584 4044 
L 1275 1722 
L 2988 1722 
L 2584 4044 
z
" transform="scale(0.015625)"/>
      <path id="DejaVuSans-31" d="M 794 531 
L 1825 531 
L 1825 4091 
L 703 3866 
L 703 4441 
L 1819 4666 
L 2450 4666 
L 2450 531 
L 3481 531 
L 3481 0 
L 794 0 
L 794 531 
z
" transform="scale(0.015625)"/>
      <path id="DejaVuSans-22c5" d="M 684 2619 
L 1344 2619 
L 1344 1825 
L 684 1825 
L 684 2619 
z
" transform="scale(0.015625)"/>
      <path id="DejaVuSans-32" d="M 1228 531 
L 3431 531 
L 3431 0 
L 469 0 
L 469 531 
Q 828 903 1448 1529 
Q 2069 2156 2228 2338 
Q 2531 2678 2651 2914 
Q 2772 3150 2772 3378 
Q 2772 3750 2511 3984 
Q 2250 4219 1831 4219 
Q 1534 4219 1204 4116 
Q 875 4013 500 3803 
L 500 4441 
Q 881 4594 1212 4672 
Q 1544 4750 1819 4750 
Q 2544 4750 2975 4387 
Q 3406 4025 3406 3419 
Q 3406 3131 3298 2873 
Q 3191 2616 2906 2266 
Q 2828 2175 2409 1742 
Q 1991 1309 1228 531 
z
" transform="scale(0.015625)"/>
      <path id="DejaVuSans-33" d="M 2597 2516 
Q 3050 2419 3304 2112 
Q 3559 1806 3559 1356 
Q 3559 666 3084 287 
Q 2609 -91 1734 -91 
Q 1441 -91 1130 -33 
Q 819 25 488 141 
L 488 750 
Q 750 597 1062 519 
Q 1375 441 1716 441 
Q 2309 441 2620 675 
Q 2931 909 2931 1356 
Q 2931 1769 2642 2001 
Q 2353 2234 1838 2234 
L 1294 2234 
L 1294 2753 
L 1863 2753 
Q 2328 2753 2575 2939 
Q 2822 3125 2822 3475 
Q 2822 3834 2567 4026 
Q 2313 4219 1838 4219 
Q 1578 4219 1281 4162 
Q 984 4106 628 3988 
L 628 4550 
Q 988 4650 1302 4700 
Q 1616 4750 1894 4750 
Q 2613 4750 3031 4423 
Q 3450 4097 3450 3541 
Q 3450 3153 3228 2886 
Q 3006 2619 2597 2516 
z
" transform="scale(0.015625)"/>
      <path id="DejaVuSans-2e" d="M 684 794 
L 1344 794 
L 1344 0 
L 684 0 
L 684 794 
z
" transform="scale(0.015625)"/>
     </defs>
     <use xlink:href="#DejaVuSans-Oblique-41" transform="translate(0 0.70625)"/>
     <use xlink:href="#DejaVuSans-31" transform="translate(68.408203 -15.7) scale(0.7)"/>
     <use xlink:href="#DejaVuSans-22c5" transform="translate(135.161133 0.70625)"/>
     <use xlink:href="#DejaVuSans-Oblique-76" transform="translate(186.430664 0.70625)"/>
     <use xlink:href="#DejaVuSans-Oblique-69" transform="translate(245.610352 -15.7) scale(0.7)"/>
     <use xlink:href="#DejaVuSans-Oblique-6e" transform="translate(265.058594 -15.7) scale(0.7)"/>
     <use xlink:href="#DejaVuSans-2b" transform="translate(331.640625 0.70625)"/>
     <use xlink:href="#DejaVuSans-Oblique-41" transform="translate(434.912109 0.70625)"/>
     <use xlink:href="#DejaVuSans-32" transform="translate(503.320312 -15.7) scale(0.7)"/>
     <use xlink:href="#DejaVuSans-22c5" transform="translate(570.073242 0.70625)"/>
     <use xlink:href="#DejaVuSans-Oblique-76" transform="translate(621.342773 0.70625)"/>
     <use xlink:href="#DejaVuSans-32" transform="translate(684.988607 39.051563) scale(0.7)"/>
     <use xlink:href="#DejaVuSans-Oblique-69" transform="translate(680.522461 -26.6375) scale(0.7)"/>
     <use xlink:href="#DejaVuSans-Oblique-6e" transform="translate(699.970703 -26.6375) scale(0.7)"/>
     <use xlink:href="#DejaVuSans-2b" transform="translate(766.552734 0.70625)"/>
     <use xlink:href="#DejaVuSans-Oblique-41" transform="translate(869.824219 0.70625)"/>
     <use xlink:href="#DejaVuSans-33" transform="translate(938.232422 -15.7) scale(0.7)"/>
     <use xlink:href="#DejaVuSans-22c5" transform="translate(1004.985352 0.70625)"/>
     <use xlink:href="#DejaVuSans-Oblique-76" transform="translate(1056.254883 0.70625)"/>
     <use xlink:href="#DejaVuSans-33" transform="translate(1119.900716 40.046875) scale(0.7)"/>
     <use xlink:href="#DejaVuSans-Oblique-69" transform="translate(1115.43457 -26.6375) scale(0.7)"/>
     <use xlink:href="#DejaVuSans-Oblique-6e" transform="translate(1134.882812 -26.6375) scale(0.7)"/>
     <use xlink:href="#DejaVuSans-2b" transform="translate(1201.464844 0.70625)"/>
     <use xlink:href="#DejaVuSans-2e" transform="translate(1304.736328 0.70625)"/>
     <use xlink:href="#DejaVuSans-2e" transform="translate(1356.005859 0.70625)"/>
     <use xlink:href="#DejaVuSans-2e" transform="translate(1407.275391 0.70625)"/>
    </g>
   </g>
   <g id="text_11">
    <!-- $v_{out}$ -->
    <g transform="translate(1014.312 24.7525) scale(0.16 -0.16)">
     <defs>
      <path id="DejaVuSans-Oblique-6f" d="M 1625 -91 
Q 1009 -91 651 289 
Q 294 669 294 1325 
Q 294 1706 417 2101 
Q 541 2497 738 2766 
Q 1047 3184 1428 3384 
Q 1809 3584 2291 3584 
Q 2888 3584 3255 3212 
Q 3622 2841 3622 2241 
Q 3622 1825 3500 1412 
Q 3378 1000 3181 728 
Q 2875 309 2494 109 
Q 2113 -91 1625 -91 
z
M 891 1344 
Q 891 869 1089 633 
Q 1288 397 1691 397 
Q 2269 397 2648 901 
Q 3028 1406 3028 2181 
Q 3028 2634 2825 2865 
Q 2622 3097 2228 3097 
Q 1903 3097 1650 2945 
Q 1397 2794 1197 2484 
Q 1050 2253 970 1956 
Q 891 1659 891 1344 
z
" transform="scale(0.015625)"/>
      <path id="DejaVuSans-Oblique-75" d="M 428 1388 
L 838 3500 
L 1416 3500 
L 1006 1409 
Q 975 1256 961 1147 
Q 947 1038 947 966 
Q 947 700 1109 554 
Q 1272 409 1569 409 
Q 2031 409 2368 721 
Q 2706 1034 2809 1563 
L 3194 3500 
L 3769 3500 
L 3091 0 
L 2516 0 
L 2631 550 
Q 2388 244 2052 76 
Q 1716 -91 1338 -91 
Q 878 -91 622 161 
Q 366 413 366 863 
Q 366 956 381 1097 
Q 397 1238 428 1388 
z
" transform="scale(0.015625)"/>
      <path id="DejaVuSans-Oblique-74" d="M 2706 3500 
L 2619 3053 
L 1472 3053 
L 1100 1153 
Q 1081 1047 1072 975 
Q 1063 903 1063 863 
Q 1063 663 1183 572 
Q 1303 481 1569 481 
L 2150 481 
L 2053 0 
L 1503 0 
Q 991 0 739 200 
Q 488 400 488 806 
Q 488 878 497 964 
Q 506 1050 525 1153 
L 897 3053 
L 409 3053 
L 500 3500 
L 978 3500 
L 1172 4494 
L 1747 4494 
L 1556 3500 
L 2706 3500 
z
" transform="scale(0.015625)"/>
     </defs>
     <use xlink:href="#DejaVuSans-Oblique-76" transform="translate(0 0.3125)"/>
     <use xlink:href="#DejaVuSans-Oblique-6f" transform="translate(59.179688 -16.09375) scale(0.7)"/>
     <use xlink:href="#DejaVuSans-Oblique-75" transform="translate(102.006836 -16.09375) scale(0.7)"/>
     <use xlink:href="#DejaVuSans-Oblique-74" transform="translate(146.37207 -16.09375) scale(0.7)"/>
    </g>
   </g>
   <g id="patch_6">
    <path d="M 16.872 34.38 
C 17.588048 34.38 18.274866 34.095511 18.781188 33.589188 
C 19.287511 33.082866 19.572 32.396048 19.572 31.68 
C 19.572 30.963952 19.287511 30.277134 18.781188 29.770812 
C 18.274866 29.264489 17.588048 28.98 16.872 28.98 
C 16.155952 28.98 15.469134 29.264489 14.962812 29.770812 
C 14.456489 30.277134 14.172 30.963952 14.172 31.68 
C 14.172 32.396048 14.456489 33.082866 14.962812 33.589188 
C 15.469134 34.095511 16.155952 34.38 16.872 34.38 
z
" clip-path="url(#pf977e6825a)" style="fill: #ffffff; stroke: #000000; stroke-width: 2; stroke-linejoin: miter"/>
   </g>
   <g id="text_12">
    <!-- $v_{in}$ -->
    <g transform="translate(6.792 22.0525) scale(0.16 -0.16)">
     <use xlink:href="#DejaVuSans-Oblique-76" transform="translate(0 0.3125)"/>
     <use xlink:href="#DejaVuSans-Oblique-69" transform="translate(59.179688 -16.09375) scale(0.7)"/>
     <use xlink:href="#DejaVuSans-Oblique-6e" transform="translate(78.62793 -16.09375) scale(0.7)"/>
    </g>
   </g>
   <g id="patch_7">
    <path d="M 484.872 34.38 
C 485.588048 34.38 486.274866 34.095511 486.781188 33.589188 
C 487.287511 33.082866 487.572 32.396048 487.572 31.68 
C 487.572 30.963952 487.287511 30.277134 486.781188 29.770812 
C 486.274866 29.264489 485.588048 28.98 484.872 28.98 
C 484.155952 28.98 483.469134 29.264489 482.962812 29.770812 
C 482.456489 30.277134 482.172 30.963952 482.172 31.68 
C 482.172 32.396048 482.456489 33.082866 482.962812 33.589188 
C 483.469134 34.095511 484.155952 34.38 484.872 34.38 
z
" clip-path="url(#pf977e6825a)" style="stroke: #000000; stroke-width: 2; stroke-linejoin: miter"/>
   </g>
   <g id="patch_8">
    <path d="M 556.872 34.38 
C 557.588048 34.38 558.274866 34.095511 558.781188 33.589188 
C 559.287511 33.082866 559.572 32.396048 559.572 31.68 
C 559.572 30.963952 559.287511 30.277134 558.781188 29.770812 
C 558.274866 29.264489 557.588048 28.98 556.872 28.98 
C 556.155952 28.98 555.469134 29.264489 554.962812 29.770812 
C 554.456489 30.277134 554.172 30.963952 554.172 31.68 
C 554.172 32.396048 554.456489 33.082866 554.962812 33.589188 
C 555.469134 34.095511 556.155952 34.38 556.872 34.38 
z
" clip-path="url(#pf977e6825a)" style="fill: #ffffff; stroke: #000000; stroke-width: 2; stroke-linejoin: miter"/>
   </g>
   <g id="text_13">
    <!-- $v_{out}$ -->
    <g transform="translate(542.712 22.0525) scale(0.16 -0.16)">
     <use xlink:href="#DejaVuSans-Oblique-76" transform="translate(0 0.3125)"/>
     <use xlink:href="#DejaVuSans-Oblique-6f" transform="translate(59.179688 -16.09375) scale(0.7)"/>
     <use xlink:href="#DejaVuSans-Oblique-75" transform="translate(102.006836 -16.09375) scale(0.7)"/>
     <use xlink:href="#DejaVuSans-Oblique-74" transform="translate(146.37207 -16.09375) scale(0.7)"/>
    </g>
   </g>
   <g id="patch_9">
    <path d="M 700.872 34.38 
C 701.588048 34.38 702.274866 34.095511 702.781188 33.589188 
C 703.287511 33.082866 703.572 32.396048 703.572 31.68 
C 703.572 30.963952 703.287511 30.277134 702.781188 29.770812 
C 702.274866 29.264489 701.588048 28.98 700.872 28.98 
C 700.155952 28.98 699.469134 29.264489 698.962812 29.770812 
C 698.456489 30.277134 698.172 30.963952 698.172 31.68 
C 698.172 32.396048 698.456489 33.082866 698.962812 33.589188 
C 699.469134 34.095511 700.155952 34.38 700.872 34.38 
z
" clip-path="url(#pf977e6825a)" style="fill: #ffffff; stroke: #000000; stroke-width: 2; stroke-linejoin: miter"/>
   </g>
   <g id="patch_10">
    <path d="M 1024.872 34.38 
C 1025.588048 34.38 1026.274866 34.095511 1026.781188 33.589188 
C 1027.287511 33.082866 1027.572 32.396048 1027.572 31.68 
C 1027.572 30.963952 1027.287511 30.277134 1026.781188 29.770812 
C 1026.274866 29.264489 1025.588048 28.98 1024.872 28.98 
C 1024.155952 28.98 1023.469134 29.264489 1022.962812 29.770812 
C 1022.456489 30.277134 1022.172 30.963952 1022.172 31.68 
C 1022.172 32.396048 1022.456489 33.082866 1022.962812 33.589188 
C 1023.469134 34.095511 1024.155952 34.38 1024.872 34.38 
z
" clip-path="url(#pf977e6825a)" style="fill: #ffffff; stroke: #000000; stroke-width: 2; stroke-linejoin: miter"/>
   </g>
  </g>
 </g>
 <defs>
  <clipPath id="pf977e6825a">
   <rect x="0" y="-0" width="1050.528" height="162.36"/>
  </clipPath>
 </defs>
</svg>
