<?xml version="1.0" encoding="utf-8" standalone="no"?>
<!DOCTYPE svg PUBLIC "-//W3C//DTD SVG 1.1//EN"
  "http://www.w3.org/Graphics/SVG/1.1/DTD/svg11.dtd">
<svg xmlns:xlink="http://www.w3.org/1999/xlink" width="195.84pt" height="301.44pt" viewBox="0 0 195.84 301.44" xmlns="http://www.w3.org/2000/svg" version="1.1">
 <metadata>
  <rdf:RDF xmlns:dc="http://purl.org/dc/elements/1.1/" xmlns:cc="http://creativecommons.org/ns#" xmlns:rdf="http://www.w3.org/1999/02/22-rdf-syntax-ns#">
   <cc:Work>
    <dc:type rdf:resource="http://purl.org/dc/dcmitype/StillImage"/>
    <dc:date>2025-03-25T17:47:23.273364</dc:date>
    <dc:format>image/svg+xml</dc:format>
    <dc:creator>
     <cc:Agent>
      <dc:title>Matplotlib v3.9.2, https://matplotlib.org/</dc:title>
     </cc:Agent>
    </dc:creator>
   </cc:Work>
  </rdf:RDF>
 </metadata>
 <defs>
  <style type="text/css">*{stroke-linejoin: round; stroke-linecap: butt}</style>
 </defs>
 <g id="figure_1">
  <g id="patch_1">
   <path d="M 0 301.44 
L 195.84 301.44 
L 195.84 0 
L 0 0 
z
" style="fill: #ffffff"/>
  </g>
  <g id="axes_1">
   <g id="line2d_1">
    <path d="M 28.92 27.72 
L 28.92 13.32 
L 37.92 13.32 
L 19.92 13.32 
M 35.22 9 
L 22.62 9 
M 30.72 4.68 
L 27.12 4.68 
" clip-path="url(#p0f535032b2)" style="fill: none; stroke: #000000; stroke-width: 2; stroke-linecap: round"/>
   </g>
   <g id="line2d_2">
    <path d="M 28.92 27.72 
L 28.92 36.72 
L 28.92 45.72 
" clip-path="url(#p0f535032b2)" style="fill: none; stroke: #000000; stroke-width: 2; stroke-linecap: round"/>
   </g>
   <g id="line2d_3">
    <path d="M 28.92 45.72 
L 28.92 60.72 
L 43.92 60.72 
L 43.92 90.72 
L 28.92 90.72 
L 28.92 105.72 
" clip-path="url(#p0f535032b2)" style="fill: none; stroke: #000000; stroke-width: 2; stroke-linecap: round"/>
   </g>
   <g id="line2d_4">
    <path d="M 28.92 60.72 
L 34.92 60.72 
" clip-path="url(#p0f535032b2)" style="fill: none; stroke: #000000; stroke-width: 2; stroke-linecap: round"/>
   </g>
   <g id="patch_2">
    <path d="M 34.92 56.22 
L 43.92 60.72 
L 34.92 65.22 
z
" clip-path="url(#p0f535032b2)"/>
   </g>
   <g id="line2d_5">
    <path d="M 46.92 63.72 
L 46.92 87.72 
" clip-path="url(#p0f535032b2)" style="fill: none; stroke: #000000; stroke-width: 2; stroke-linecap: round"/>
   </g>
   <g id="line2d_6">
    <path d="M 46.92 75.72 
L 61.92 75.72 
" clip-path="url(#p0f535032b2)" style="fill: none; stroke: #000000; stroke-width: 2; stroke-linecap: round"/>
   </g>
   <g id="line2d_7">
    <path d="M 61.92 75.72 
L 97.92 75.72 
L 133.92 75.72 
" clip-path="url(#p0f535032b2)" style="fill: none; stroke: #000000; stroke-width: 2; stroke-linecap: round"/>
   </g>
   <g id="line2d_8">
    <path d="M 166.92 105.72 
L 166.92 90.72 
L 151.92 90.72 
L 151.92 60.72 
L 166.92 60.72 
L 166.92 45.72 
" clip-path="url(#p0f535032b2)" style="fill: none; stroke: #000000; stroke-width: 2; stroke-linecap: round"/>
   </g>
   <g id="line2d_9">
    <path d="M 160.92 60.72 
L 166.92 60.72 
" clip-path="url(#p0f535032b2)" style="fill: none; stroke: #000000; stroke-width: 2; stroke-linecap: round"/>
   </g>
   <g id="patch_3">
    <path d="M 160.92 65.22 
L 151.92 60.72 
L 160.92 56.22 
z
" clip-path="url(#p0f535032b2)"/>
   </g>
   <g id="line2d_10">
    <path d="M 148.92 87.72 
L 148.92 63.72 
" clip-path="url(#p0f535032b2)" style="fill: none; stroke: #000000; stroke-width: 2; stroke-linecap: round"/>
   </g>
   <g id="line2d_11">
    <path d="M 133.92 75.72 
L 148.92 75.72 
" clip-path="url(#p0f535032b2)" style="fill: none; stroke: #000000; stroke-width: 2; stroke-linecap: round"/>
   </g>
   <g id="line2d_12">
    <path d="M 166.92 45.72 
L 166.92 36.72 
L 166.92 27.72 
" clip-path="url(#p0f535032b2)" style="fill: none; stroke: #000000; stroke-width: 2; stroke-linecap: round"/>
   </g>
   <g id="line2d_13">
    <path d="M 166.92 27.72 
L 98.52 27.72 
L 30.12 27.72 
" clip-path="url(#p0f535032b2)" style="fill: none; stroke: #000000; stroke-width: 2; stroke-linecap: round"/>
   </g>
   <g id="line2d_14">
    <path d="M 133.92 75.72 
L 133.92 93.72 
L 133.92 111.72 
" clip-path="url(#p0f535032b2)" style="fill: none; stroke: #000000; stroke-width: 2; stroke-linecap: round"/>
   </g>
   <g id="line2d_15">
    <path d="M 133.92 111.72 
L 150.12 111.72 
L 166.32 111.72 
" clip-path="url(#p0f535032b2)" style="fill: none; stroke: #000000; stroke-width: 2; stroke-linecap: round"/>
   </g>
   <g id="line2d_16">
    <path d="M 166.92 105.72 
L 166.92 123.72 
L 166.92 141.72 
" clip-path="url(#p0f535032b2)" style="fill: none; stroke: #000000; stroke-width: 2; stroke-linecap: round"/>
   </g>
   <g id="line2d_17">
    <path d="M 166.92 201.72 
L 166.92 186.72 
L 151.92 186.72 
L 151.92 156.72 
L 166.92 156.72 
L 166.92 141.72 
" clip-path="url(#p0f535032b2)" style="fill: none; stroke: #000000; stroke-width: 2; stroke-linecap: round"/>
   </g>
   <g id="line2d_18">
    <path d="M 157.92 186.72 
L 151.92 186.72 
" clip-path="url(#p0f535032b2)" style="fill: none; stroke: #000000; stroke-width: 2; stroke-linecap: round"/>
   </g>
   <g id="patch_4">
    <path d="M 157.92 182.22 
L 166.92 186.72 
L 157.92 191.22 
z
" clip-path="url(#p0f535032b2)"/>
   </g>
   <g id="line2d_19">
    <path d="M 148.92 183.72 
L 148.92 159.72 
" clip-path="url(#p0f535032b2)" style="fill: none; stroke: #000000; stroke-width: 2; stroke-linecap: round"/>
   </g>
   <g id="line2d_20">
    <path d="M 133.92 171.72 
L 148.92 171.72 
" clip-path="url(#p0f535032b2)" style="fill: none; stroke: #000000; stroke-width: 2; stroke-linecap: round"/>
   </g>
   <g id="line2d_21">
    <path d="M 166.92 201.72 
L 166.92 219.72 
L 175.92 222.72 
L 157.92 228.72 
L 175.92 234.72 
L 157.92 240.72 
L 175.92 246.72 
L 157.92 252.72 
L 166.92 255.72 
L 166.92 273.72 
" clip-path="url(#p0f535032b2)" style="fill: none; stroke: #000000; stroke-width: 2; stroke-linecap: round"/>
   </g>
   <g id="line2d_22">
    <path d="M 166.92 273.72 
L 166.92 288.12 
L 157.92 288.12 
L 175.92 288.12 
M 160.62 292.44 
L 173.22 292.44 
M 165.12 296.76 
L 168.72 296.76 
" clip-path="url(#p0f535032b2)" style="fill: none; stroke: #000000; stroke-width: 2; stroke-linecap: round"/>
   </g>
   <g id="line2d_23">
    <path d="M 133.92 171.72 
L 97.92 171.72 
L 61.92 171.72 
" clip-path="url(#p0f535032b2)" style="fill: none; stroke: #000000; stroke-width: 2; stroke-linecap: round"/>
   </g>
   <g id="line2d_24">
    <path d="M 28.92 141.72 
L 28.92 156.72 
L 43.92 156.72 
L 43.92 186.72 
L 28.92 186.72 
L 28.92 201.72 
" clip-path="url(#p0f535032b2)" style="fill: none; stroke: #000000; stroke-width: 2; stroke-linecap: round"/>
   </g>
   <g id="line2d_25">
    <path d="M 43.92 186.72 
L 37.92 186.72 
" clip-path="url(#p0f535032b2)" style="fill: none; stroke: #000000; stroke-width: 2; stroke-linecap: round"/>
   </g>
   <g id="patch_5">
    <path d="M 37.92 191.22 
L 28.92 186.72 
L 37.92 182.22 
z
" clip-path="url(#p0f535032b2)"/>
   </g>
   <g id="line2d_26">
    <path d="M 46.92 159.72 
L 46.92 183.72 
" clip-path="url(#p0f535032b2)" style="fill: none; stroke: #000000; stroke-width: 2; stroke-linecap: round"/>
   </g>
   <g id="line2d_27">
    <path d="M 46.92 171.72 
L 61.92 171.72 
" clip-path="url(#p0f535032b2)" style="fill: none; stroke: #000000; stroke-width: 2; stroke-linecap: round"/>
   </g>
   <g id="line2d_28">
    <path d="M 61.92 171.72 
L 61.92 153.72 
L 61.92 135.72 
" clip-path="url(#p0f535032b2)" style="fill: none; stroke: #000000; stroke-width: 2; stroke-linecap: round"/>
   </g>
   <g id="line2d_29">
    <path d="M 61.92 135.72 
L 45.72 135.72 
L 29.52 135.72 
" clip-path="url(#p0f535032b2)" style="fill: none; stroke: #000000; stroke-width: 2; stroke-linecap: round"/>
   </g>
   <g id="line2d_30">
    <path d="M 28.92 141.72 
L 28.92 123.72 
L 28.92 105.72 
" clip-path="url(#p0f535032b2)" style="fill: none; stroke: #000000; stroke-width: 2; stroke-linecap: round"/>
   </g>
   <g id="line2d_31">
    <path d="M 28.92 201.72 
L 28.92 237.72 
L 28.92 273.72 
" clip-path="url(#p0f535032b2)" style="fill: none; stroke: #000000; stroke-width: 2; stroke-linecap: round"/>
   </g>
   <g id="line2d_32">
    <path d="M 28.92 273.72 
L 97.92 273.72 
L 166.92 273.72 
" clip-path="url(#p0f535032b2)" style="fill: none; stroke: #000000; stroke-width: 2; stroke-linecap: round"/>
   </g>
   <g id="text_1">
    <!-- $M_{3}$ -->
    <g transform="translate(3.88 80.135) scale(0.16 -0.16)">
     <defs>
      <path id="DejaVuSans-Oblique-4d" d="M 1081 4666 
L 2028 4666 
L 2572 1522 
L 4378 4666 
L 5350 4666 
L 4441 0 
L 3828 0 
L 4622 4091 
L 2791 897 
L 2175 897 
L 1581 4103 
L 788 0 
L 172 0 
L 1081 4666 
z
" transform="scale(0.015625)"/>
      <path id="DejaVuSans-33" d="M 2597 2516 
Q 3050 2419 3304 2112 
Q 3559 1806 3559 1356 
Q 3559 666 3084 287 
Q 2609 -91 1734 -91 
Q 1441 -91 1130 -33 
Q 819 25 488 141 
L 488 750 
Q 750 597 1062 519 
Q 1375 441 1716 441 
Q 2309 441 2620 675 
Q 2931 909 2931 1356 
Q 2931 1769 2642 2001 
Q 2353 2234 1838 2234 
L 1294 2234 
L 1294 2753 
L 1863 2753 
Q 2328 2753 2575 2939 
Q 2822 3125 2822 3475 
Q 2822 3834 2567 4026 
Q 2313 4219 1838 4219 
Q 1578 4219 1281 4162 
Q 984 4106 628 3988 
L 628 4550 
Q 988 4650 1302 4700 
Q 1616 4750 1894 4750 
Q 2613 4750 3031 4423 
Q 3450 4097 3450 3541 
Q 3450 3153 3228 2886 
Q 3006 2619 2597 2516 
z
" transform="scale(0.015625)"/>
     </defs>
     <use xlink:href="#DejaVuSans-Oblique-4d" transform="translate(0 0.09375)"/>
     <use xlink:href="#DejaVuSans-33" transform="translate(86.279297 -16.3125) scale(0.7)"/>
    </g>
   </g>
   <g id="text_2">
    <!-- $M_{4}$ -->
    <g transform="translate(170.52 80.135) scale(0.16 -0.16)">
     <defs>
      <path id="DejaVuSans-34" d="M 2419 4116 
L 825 1625 
L 2419 1625 
L 2419 4116 
z
M 2253 4666 
L 3047 4666 
L 3047 1625 
L 3713 1625 
L 3713 1100 
L 3047 1100 
L 3047 0 
L 2419 0 
L 2419 1100 
L 313 1100 
L 313 1709 
L 2253 4666 
z
" transform="scale(0.015625)"/>
     </defs>
     <use xlink:href="#DejaVuSans-Oblique-4d" transform="translate(0 0.09375)"/>
     <use xlink:href="#DejaVuSans-34" transform="translate(86.279297 -16.3125) scale(0.7)"/>
    </g>
   </g>
   <g id="patch_6">
    <path d="M 30.12 30.42 
C 30.836048 30.42 31.522866 30.135511 32.029188 29.629188 
C 32.535511 29.122866 32.82 28.436048 32.82 27.72 
C 32.82 27.003952 32.535511 26.317134 32.029188 25.810812 
C 31.522866 25.304489 30.836048 25.02 30.12 25.02 
C 29.403952 25.02 28.717134 25.304489 28.210812 25.810812 
C 27.704489 26.317134 27.42 27.003952 27.42 27.72 
C 27.42 28.436048 27.704489 29.122866 28.210812 29.629188 
C 28.717134 30.135511 29.403952 30.42 30.12 30.42 
z
" clip-path="url(#p0f535032b2)" style="stroke: #000000; stroke-width: 2; stroke-linejoin: miter"/>
   </g>
   <g id="patch_7">
    <path d="M 166.32 114.42 
C 167.036048 114.42 167.722866 114.135511 168.229188 113.629188 
C 168.735511 113.122866 169.02 112.436048 169.02 111.72 
C 169.02 111.003952 168.735511 110.317134 168.229188 109.810812 
C 167.722866 109.304489 167.036048 109.02 166.32 109.02 
C 165.603952 109.02 164.917134 109.304489 164.410812 109.810812 
C 163.904489 110.317134 163.62 111.003952 163.62 111.72 
C 163.62 112.436048 163.904489 113.122866 164.410812 113.629188 
C 164.917134 114.135511 165.603952 114.42 166.32 114.42 
z
" clip-path="url(#p0f535032b2)" style="stroke: #000000; stroke-width: 2; stroke-linejoin: miter"/>
   </g>
   <g id="text_3">
    <!-- $M_{2}$ -->
    <g transform="translate(170.52 176.135) scale(0.16 -0.16)">
     <defs>
      <path id="DejaVuSans-32" d="M 1228 531 
L 3431 531 
L 3431 0 
L 469 0 
L 469 531 
Q 828 903 1448 1529 
Q 2069 2156 2228 2338 
Q 2531 2678 2651 2914 
Q 2772 3150 2772 3378 
Q 2772 3750 2511 3984 
Q 2250 4219 1831 4219 
Q 1534 4219 1204 4116 
Q 875 4013 500 3803 
L 500 4441 
Q 881 4594 1212 4672 
Q 1544 4750 1819 4750 
Q 2544 4750 2975 4387 
Q 3406 4025 3406 3419 
Q 3406 3131 3298 2873 
Q 3191 2616 2906 2266 
Q 2828 2175 2409 1742 
Q 1991 1309 1228 531 
z
" transform="scale(0.015625)"/>
     </defs>
     <use xlink:href="#DejaVuSans-Oblique-4d" transform="translate(0 0.09375)"/>
     <use xlink:href="#DejaVuSans-32" transform="translate(86.279297 -16.3125) scale(0.7)"/>
    </g>
   </g>
   <g id="text_4">
    <!-- $R_2$ -->
    <g transform="translate(135.6 242.135) scale(0.16 -0.16)">
     <defs>
      <path id="DejaVuSans-Oblique-52" d="M 1613 4147 
L 1294 2491 
L 2106 2491 
Q 2584 2491 2879 2755 
Q 3175 3019 3175 3444 
Q 3175 3784 2976 3965 
Q 2778 4147 2406 4147 
L 1613 4147 
z
M 2772 2241 
Q 2972 2194 3105 2009 
Q 3238 1825 3413 1275 
L 3809 0 
L 3144 0 
L 2778 1197 
Q 2638 1659 2453 1815 
Q 2269 1972 1888 1972 
L 1191 1972 
L 806 0 
L 172 0 
L 1081 4666 
L 2503 4666 
Q 3150 4666 3495 4373 
Q 3841 4081 3841 3531 
Q 3841 3044 3547 2687 
Q 3253 2331 2772 2241 
z
" transform="scale(0.015625)"/>
     </defs>
     <use xlink:href="#DejaVuSans-Oblique-52" transform="translate(0 0.09375)"/>
     <use xlink:href="#DejaVuSans-32" transform="translate(69.482422 -16.3125) scale(0.7)"/>
    </g>
   </g>
   <g id="text_5">
    <!-- $M_{1}$ -->
    <g transform="translate(3.88 176.135) scale(0.16 -0.16)">
     <defs>
      <path id="DejaVuSans-31" d="M 794 531 
L 1825 531 
L 1825 4091 
L 703 3866 
L 703 4441 
L 1819 4666 
L 2450 4666 
L 2450 531 
L 3481 531 
L 3481 0 
L 794 0 
L 794 531 
z
" transform="scale(0.015625)"/>
     </defs>
     <use xlink:href="#DejaVuSans-Oblique-4d" transform="translate(0 0.09375)"/>
     <use xlink:href="#DejaVuSans-31" transform="translate(86.279297 -16.3125) scale(0.7)"/>
    </g>
   </g>
   <g id="patch_8">
    <path d="M 29.52 138.42 
C 30.236048 138.42 30.922866 138.135511 31.429188 137.629188 
C 31.935511 137.122866 32.22 136.436048 32.22 135.72 
C 32.22 135.003952 31.935511 134.317134 31.429188 133.810812 
C 30.922866 133.304489 30.236048 133.02 29.52 133.02 
C 28.803952 133.02 28.117134 133.304489 27.610812 133.810812 
C 27.104489 134.317134 26.82 135.003952 26.82 135.72 
C 26.82 136.436048 27.104489 137.122866 27.610812 137.629188 
C 28.117134 138.135511 28.803952 138.42 29.52 138.42 
z
" clip-path="url(#p0f535032b2)" style="stroke: #000000; stroke-width: 2; stroke-linejoin: miter"/>
   </g>
   <g id="patch_9">
    <path d="M 166.92 276.42 
C 167.636048 276.42 168.322866 276.135511 168.829188 275.629188 
C 169.335511 275.122866 169.62 274.436048 169.62 273.72 
C 169.62 273.003952 169.335511 272.317134 168.829188 271.810812 
C 168.322866 271.304489 167.636048 271.02 166.92 271.02 
C 166.203952 271.02 165.517134 271.304489 165.010812 271.810812 
C 164.504489 272.317134 164.22 273.003952 164.22 273.72 
C 164.22 274.436048 164.504489 275.122866 165.010812 275.629188 
C 165.517134 276.135511 166.203952 276.42 166.92 276.42 
z
" clip-path="url(#p0f535032b2)" style="stroke: #000000; stroke-width: 2; stroke-linejoin: miter"/>
   </g>
   <g id="patch_10">
    <path d="M 133.92 78.42 
C 134.636048 78.42 135.322866 78.135511 135.829188 77.629188 
C 136.335511 77.122866 136.62 76.436048 136.62 75.72 
C 136.62 75.003952 136.335511 74.317134 135.829188 73.810812 
C 135.322866 73.304489 134.636048 73.02 133.92 73.02 
C 133.203952 73.02 132.517134 73.304489 132.010812 73.810812 
C 131.504489 74.317134 131.22 75.003952 131.22 75.72 
C 131.22 76.436048 131.504489 77.122866 132.010812 77.629188 
C 132.517134 78.135511 133.203952 78.42 133.92 78.42 
z
" clip-path="url(#p0f535032b2)" style="stroke: #000000; stroke-width: 2; stroke-linejoin: miter"/>
   </g>
   <g id="text_6">
    <!-- $v_4$ -->
    <g style="fill: #0000ff" transform="translate(125.36 66.0925) scale(0.16 -0.16)">
     <defs>
      <path id="DejaVuSans-Oblique-76" d="M 459 3500 
L 1069 3500 
L 1581 525 
L 3256 3500 
L 3866 3500 
L 1875 0 
L 1100 0 
L 459 3500 
z
" transform="scale(0.015625)"/>
     </defs>
     <use xlink:href="#DejaVuSans-Oblique-76" transform="translate(0 0.3125)"/>
     <use xlink:href="#DejaVuSans-34" transform="translate(59.179688 -16.09375) scale(0.7)"/>
    </g>
   </g>
   <g id="patch_11">
    <path d="M 61.92 174.42 
C 62.636048 174.42 63.322866 174.135511 63.829188 173.629188 
C 64.335511 173.122866 64.62 172.436048 64.62 171.72 
C 64.62 171.003952 64.335511 170.317134 63.829188 169.810812 
C 63.322866 169.304489 62.636048 169.02 61.92 169.02 
C 61.203952 169.02 60.517134 169.304489 60.010812 169.810812 
C 59.504489 170.317134 59.22 171.003952 59.22 171.72 
C 59.22 172.436048 59.504489 173.122866 60.010812 173.629188 
C 60.517134 174.135511 61.203952 174.42 61.92 174.42 
z
" clip-path="url(#p0f535032b2)" style="stroke: #000000; stroke-width: 2; stroke-linejoin: miter"/>
   </g>
   <g id="text_7">
    <!-- $v_1$ -->
    <g style="fill: #0000ff" transform="translate(71.36 162.0925) scale(0.16 -0.16)">
     <use xlink:href="#DejaVuSans-Oblique-76" transform="translate(0 0.3125)"/>
     <use xlink:href="#DejaVuSans-31" transform="translate(59.179688 -16.09375) scale(0.7)"/>
    </g>
   </g>
  </g>
 </g>
 <defs>
  <clipPath id="p0f535032b2">
   <rect x="0" y="0" width="195.84" height="301.44"/>
  </clipPath>
 </defs>
</svg>
