<?xml version="1.0" encoding="utf-8" standalone="no"?>
<!DOCTYPE svg PUBLIC "-//W3C//DTD SVG 1.1//EN"
  "http://www.w3.org/Graphics/SVG/1.1/DTD/svg11.dtd">
<svg xmlns:xlink="http://www.w3.org/1999/xlink" width="526.326pt" height="273.8pt" viewBox="0 0 526.326 273.8" xmlns="http://www.w3.org/2000/svg" version="1.1">
 <metadata>
  <rdf:RDF xmlns:dc="http://purl.org/dc/elements/1.1/" xmlns:cc="http://creativecommons.org/ns#" xmlns:rdf="http://www.w3.org/1999/02/22-rdf-syntax-ns#">
   <cc:Work>
    <dc:type rdf:resource="http://purl.org/dc/dcmitype/StillImage"/>
    <dc:date>2025-03-25T23:31:54.401517</dc:date>
    <dc:format>image/svg+xml</dc:format>
    <dc:creator>
     <cc:Agent>
      <dc:title>Matplotlib v3.9.2, https://matplotlib.org/</dc:title>
     </cc:Agent>
    </dc:creator>
   </cc:Work>
  </rdf:RDF>
 </metadata>
 <defs>
  <style type="text/css">*{stroke-linejoin: round; stroke-linecap: butt}</style>
 </defs>
 <g id="figure_1">
  <g id="patch_1">
   <path d="M 0 273.8 
L 526.326 273.8 
L 526.326 0 
L 0 0 
z
" style="fill: #ffffff"/>
  </g>
  <g id="axes_1">
   <g id="patch_2">
    <path d="M 405.72 84.08 
C 410.493656 84.08 415.072438 82.183406 418.447922 78.807922 
C 421.823406 75.432438 423.72 70.853656 423.72 66.08 
C 423.72 61.306344 421.823406 56.727562 418.447922 53.352078 
C 415.072438 49.976594 410.493656 48.08 405.72 48.08 
C 400.946344 48.08 396.367562 49.976594 392.992078 53.352078 
C 389.616594 56.727562 387.72 61.306344 387.72 66.08 
C 387.72 70.853656 389.616594 75.432438 392.992078 78.807922 
C 396.367562 82.183406 400.946344 84.08 405.72 84.08 
L 405.72 84.08 
z
" clip-path="url(#peac41ed8cf)" style="fill: none; stroke: #000000; stroke-width: 2; stroke-linejoin: miter"/>
   </g>
   <g id="line2d_1">
    <path d="M 27.72 30.08 
L 13.32 30.08 
L 13.32 21.08 
L 13.32 39.08 
M 9 23.78 
L 9 36.38 
M 4.68 28.28 
L 4.68 31.88 
" clip-path="url(#peac41ed8cf)" style="fill: none; stroke: #000000; stroke-width: 2; stroke-linecap: round"/>
   </g>
   <g id="line2d_2">
    <path d="M 27.72 30.08 
L 45.72 30.08 
L 48.72 21.08 
L 54.72 39.08 
L 60.72 21.08 
L 66.72 39.08 
L 72.72 21.08 
L 78.72 39.08 
L 81.72 30.08 
L 99.72 30.08 
" clip-path="url(#peac41ed8cf)" style="fill: none; stroke: #000000; stroke-width: 2; stroke-linecap: round"/>
   </g>
   <g id="line2d_3">
    <path d="M 99.72 30.08 
L 108.72 30.08 
L 117.72 30.08 
" clip-path="url(#peac41ed8cf)" style="fill: none; stroke: #000000; stroke-width: 2; stroke-linecap: round"/>
   </g>
   <g id="line2d_4">
    <path d="M 117.72 30.08 
L 126.72 30.08 
L 135.72 30.08 
" clip-path="url(#peac41ed8cf)" style="fill: none; stroke: #000000; stroke-width: 2; stroke-linecap: round"/>
   </g>
   <g id="line2d_5">
    <path d="M 135.72 30.08 
L 144.72 30.08 
L 153.72 30.08 
" clip-path="url(#peac41ed8cf)" style="fill: none; stroke: #000000; stroke-width: 2; stroke-linecap: round"/>
   </g>
   <g id="line2d_6">
    <path d="M 153.72 30.08 
L 153.72 48.08 
L 162.72 51.08 
L 144.72 57.08 
L 162.72 63.08 
L 144.72 69.08 
L 162.72 75.08 
L 144.72 81.08 
L 153.72 84.08 
L 153.72 102.08 
" clip-path="url(#peac41ed8cf)" style="fill: none; stroke: #000000; stroke-width: 2; stroke-linecap: round"/>
   </g>
   <g id="line2d_7">
    <path d="M 153.72 102.08 
L 144.72 102.08 
L 135.72 102.08 
" clip-path="url(#peac41ed8cf)" style="fill: none; stroke: #000000; stroke-width: 2; stroke-linecap: round"/>
   </g>
   <g id="line2d_8">
    <path d="M 135.72 102.08 
L 126.72 102.08 
L 117.72 102.08 
" clip-path="url(#peac41ed8cf)" style="fill: none; stroke: #000000; stroke-width: 2; stroke-linecap: round"/>
   </g>
   <g id="line2d_9">
    <path d="M 117.72 102.08 
L 117.72 138.08 
L 117.72 174.08 
" clip-path="url(#peac41ed8cf)" style="fill: none; stroke: #000000; stroke-width: 2; stroke-linecap: round"/>
   </g>
   <g id="line2d_10">
    <path d="M 117.72 174.08 
L 117.72 192.08 
L 126.72 195.08 
L 108.72 201.08 
L 126.72 207.08 
L 108.72 213.08 
L 126.72 219.08 
L 108.72 225.08 
L 117.72 228.08 
L 117.72 246.08 
" clip-path="url(#peac41ed8cf)" style="fill: none; stroke: #000000; stroke-width: 2; stroke-linecap: round"/>
   </g>
   <g id="line2d_11">
    <path d="M 117.72 246.08 
L 117.72 260.48 
L 108.72 260.48 
L 126.72 260.48 
M 111.42 264.8 
L 124.02 264.8 
M 115.92 269.12 
L 119.52 269.12 
" clip-path="url(#peac41ed8cf)" style="fill: none; stroke: #000000; stroke-width: 2; stroke-linecap: round"/>
   </g>
   <g id="line2d_12">
    <path d="M 117.72 174.08 
L 189.72 174.08 
L 261.72 174.08 
" clip-path="url(#peac41ed8cf)" style="fill: none; stroke: #000000; stroke-width: 2; stroke-linecap: round"/>
   </g>
   <g id="line2d_13">
    <path d="M 261.72 174.08 
L 279.72 174.08 
L 282.72 165.08 
L 288.72 183.08 
L 294.72 165.08 
L 300.72 183.08 
L 306.72 165.08 
L 312.72 183.08 
L 315.72 174.08 
L 333.72 174.08 
" clip-path="url(#peac41ed8cf)" style="fill: none; stroke: #000000; stroke-width: 2; stroke-linecap: round"/>
   </g>
   <g id="line2d_14">
    <path d="M 333.72 174.08 
L 405.72 174.08 
L 477.72 174.08 
" clip-path="url(#peac41ed8cf)" style="fill: none; stroke: #000000; stroke-width: 2; stroke-linecap: round"/>
   </g>
   <g id="line2d_15">
    <path d="M 477.72 174.08 
L 477.72 102.08 
L 477.72 30.08 
" clip-path="url(#peac41ed8cf)" style="fill: none; stroke: #000000; stroke-width: 2; stroke-linecap: round"/>
   </g>
   <g id="line2d_16">
    <path d="M 477.72 30.08 
L 459.72 30.08 
L 456.72 39.08 
L 450.72 21.08 
L 444.72 39.08 
L 438.72 21.08 
L 432.72 39.08 
L 426.72 21.08 
L 423.72 30.08 
L 405.72 30.08 
" clip-path="url(#peac41ed8cf)" style="fill: none; stroke: #000000; stroke-width: 2; stroke-linecap: round"/>
   </g>
   <g id="line2d_17">
    <path d="M 405.72 30.08 
L 405.72 48.08 
L 405.72 48.08 
M 405.72 84.08 
L 405.72 84.08 
L 405.72 102.08 
" clip-path="url(#peac41ed8cf)" style="fill: none; stroke: #000000; stroke-width: 2; stroke-linecap: round"/>
   </g>
   <g id="line2d_18">
    <path d="M 409.32 75.08 
L 402.12 75.08 
" clip-path="url(#peac41ed8cf)" style="fill: none; stroke: #000000; stroke-width: 2; stroke-linecap: round"/>
   </g>
   <g id="line2d_19">
    <path d="M 405.72 53.48 
L 405.72 60.68 
" clip-path="url(#peac41ed8cf)" style="fill: none; stroke: #000000; stroke-width: 2; stroke-linecap: round"/>
   </g>
   <g id="line2d_20">
    <path d="M 409.32 57.08 
L 402.12 57.08 
" clip-path="url(#peac41ed8cf)" style="fill: none; stroke: #000000; stroke-width: 2; stroke-linecap: round"/>
   </g>
   <g id="line2d_21">
    <path d="M 405.72 102.08 
L 405.72 116.48 
L 396.72 116.48 
L 414.72 116.48 
M 399.42 120.8 
L 412.02 120.8 
M 403.92 125.12 
L 407.52 125.12 
" clip-path="url(#peac41ed8cf)" style="fill: none; stroke: #000000; stroke-width: 2; stroke-linecap: round"/>
   </g>
   <g id="line2d_22">
    <path d="M 261.72 102.08 
L 261.72 116.48 
L 252.72 116.48 
L 270.72 116.48 
M 255.42 120.8 
L 268.02 120.8 
M 259.92 125.12 
L 263.52 125.12 
" clip-path="url(#peac41ed8cf)" style="fill: none; stroke: #000000; stroke-width: 2; stroke-linecap: round"/>
   </g>
   <g id="line2d_23">
    <path d="M 261.72 102.08 
L 261.72 84.08 
L 243.72 66.08 
L 261.72 48.08 
L 279.72 66.08 
L 261.72 84.08 
M 261.72 48.08 
L 261.72 30.08 
" clip-path="url(#peac41ed8cf)" style="fill: none; stroke: #000000; stroke-width: 2; stroke-linecap: round"/>
   </g>
   <g id="line2d_24">
    <path d="M 265.32 75.08 
L 258.12 75.08 
" clip-path="url(#peac41ed8cf)" style="fill: none; stroke: #000000; stroke-width: 2; stroke-linecap: round"/>
   </g>
   <g id="line2d_25">
    <path d="M 261.72 60.68 
L 261.72 53.48 
" clip-path="url(#peac41ed8cf)" style="fill: none; stroke: #000000; stroke-width: 2; stroke-linecap: round"/>
   </g>
   <g id="line2d_26">
    <path d="M 265.32 57.08 
L 258.12 57.08 
" clip-path="url(#peac41ed8cf)" style="fill: none; stroke: #000000; stroke-width: 2; stroke-linecap: round"/>
   </g>
   <g id="line2d_27">
    <path d="M 261.72 30.08 
L 270.72 30.08 
L 279.72 30.08 
" clip-path="url(#peac41ed8cf)" style="fill: none; stroke: #000000; stroke-width: 2; stroke-linecap: round"/>
   </g>
   <g id="line2d_28">
    <path d="M 477.72 30.08 
L 495.72 30.08 
L 513.72 30.08 
" clip-path="url(#peac41ed8cf)" style="fill: none; stroke: #000000; stroke-width: 2; stroke-linecap: round"/>
   </g>
   <g id="text_1">
    <!-- $R_s$ -->
    <g transform="translate(55 54.8375) scale(0.16 -0.16)">
     <defs>
      <path id="DejaVuSans-Oblique-52" d="M 1613 4147 
L 1294 2491 
L 2106 2491 
Q 2584 2491 2879 2755 
Q 3175 3019 3175 3444 
Q 3175 3784 2976 3965 
Q 2778 4147 2406 4147 
L 1613 4147 
z
M 2772 2241 
Q 2972 2194 3105 2009 
Q 3238 1825 3413 1275 
L 3809 0 
L 3144 0 
L 2778 1197 
Q 2638 1659 2453 1815 
Q 2269 1972 1888 1972 
L 1191 1972 
L 806 0 
L 172 0 
L 1081 4666 
L 2503 4666 
Q 3150 4666 3495 4373 
Q 3841 4081 3841 3531 
Q 3841 3044 3547 2687 
Q 3253 2331 2772 2241 
z
" transform="scale(0.015625)"/>
      <path id="DejaVuSans-Oblique-73" d="M 3200 3397 
L 3091 2853 
Q 2863 2978 2609 3040 
Q 2356 3103 2088 3103 
Q 1634 3103 1373 2948 
Q 1113 2794 1113 2528 
Q 1113 2219 1719 2053 
Q 1766 2041 1788 2034 
L 1972 1978 
Q 2547 1819 2739 1644 
Q 2931 1469 2931 1166 
Q 2931 609 2489 259 
Q 2047 -91 1331 -91 
Q 1053 -91 747 -37 
Q 441 16 72 128 
L 184 722 
Q 500 559 806 475 
Q 1113 391 1394 391 
Q 1816 391 2080 572 
Q 2344 753 2344 1031 
Q 2344 1331 1650 1516 
L 1591 1531 
L 1394 1581 
Q 956 1697 753 1886 
Q 550 2075 550 2369 
Q 550 2928 970 3256 
Q 1391 3584 2113 3584 
Q 2397 3584 2667 3537 
Q 2938 3491 3200 3397 
z
" transform="scale(0.015625)"/>
     </defs>
     <use xlink:href="#DejaVuSans-Oblique-52" transform="translate(0 0.09375)"/>
     <use xlink:href="#DejaVuSans-Oblique-73" transform="translate(69.482422 -16.3125) scale(0.7)"/>
    </g>
   </g>
   <g id="patch_3">
    <path d="M 117.72 32.78 
C 118.436048 32.78 119.122866 32.495511 119.629188 31.989188 
C 120.135511 31.482866 120.42 30.796048 120.42 30.08 
C 120.42 29.363952 120.135511 28.677134 119.629188 28.170812 
C 119.122866 27.664489 118.436048 27.38 117.72 27.38 
C 117.003952 27.38 116.317134 27.664489 115.810812 28.170812 
C 115.304489 28.677134 115.02 29.363952 115.02 30.08 
C 115.02 30.796048 115.304489 31.482866 115.810812 31.989188 
C 116.317134 32.495511 117.003952 32.78 117.72 32.78 
z
" clip-path="url(#peac41ed8cf)" style="fill: #ffffff; stroke: #000000; stroke-width: 2; stroke-linejoin: miter"/>
   </g>
   <g id="text_2">
    <!-- $v_p \ll v_n$ -->
    <g style="fill: #ff0000" transform="translate(88.71 47.62) scale(0.16 -0.16)">
     <defs>
      <path id="DejaVuSans-Oblique-76" d="M 459 3500 
L 1069 3500 
L 1581 525 
L 3256 3500 
L 3866 3500 
L 1875 0 
L 1100 0 
L 459 3500 
z
" transform="scale(0.015625)"/>
      <path id="DejaVuSans-Oblique-70" d="M 3175 2156 
Q 3175 2616 2975 2859 
Q 2775 3103 2400 3103 
Q 2144 3103 1911 2972 
Q 1678 2841 1497 2591 
Q 1319 2344 1212 1994 
Q 1106 1644 1106 1300 
Q 1106 863 1306 627 
Q 1506 391 1875 391 
Q 2147 391 2380 519 
Q 2613 647 2778 891 
Q 2956 1147 3065 1494 
Q 3175 1841 3175 2156 
z
M 1394 2969 
Q 1625 3272 1939 3428 
Q 2253 3584 2638 3584 
Q 3175 3584 3472 3232 
Q 3769 2881 3769 2247 
Q 3769 1728 3584 1258 
Q 3400 788 3053 416 
Q 2822 169 2531 39 
Q 2241 -91 1919 -91 
Q 1547 -91 1294 64 
Q 1041 219 916 525 
L 556 -1331 
L -19 -1331 
L 922 3500 
L 1497 3500 
L 1394 2969 
z
" transform="scale(0.015625)"/>
      <path id="DejaVuSans-226a" d="M 6238 3253 
L 3656 2003 
L 6238 759 
L 6238 144 
L 2869 1769 
L 2869 2266 
L 6238 3897 
L 6238 3253 
z
M 3831 3253 
L 1250 2003 
L 3831 759 
L 3831 144 
L 463 1769 
L 463 2266 
L 3831 3897 
L 3831 3253 
z
" transform="scale(0.015625)"/>
      <path id="DejaVuSans-Oblique-6e" d="M 3566 2113 
L 3156 0 
L 2578 0 
L 2988 2091 
Q 3016 2238 3031 2350 
Q 3047 2463 3047 2528 
Q 3047 2791 2881 2937 
Q 2716 3084 2419 3084 
Q 1956 3084 1622 2776 
Q 1288 2469 1184 1941 
L 800 0 
L 225 0 
L 903 3500 
L 1478 3500 
L 1363 2950 
Q 1603 3253 1940 3418 
Q 2278 3584 2650 3584 
Q 3113 3584 3367 3334 
Q 3622 3084 3622 2631 
Q 3622 2519 3608 2391 
Q 3594 2263 3566 2113 
z
" transform="scale(0.015625)"/>
     </defs>
     <use xlink:href="#DejaVuSans-Oblique-76" transform="translate(0 0.109375)"/>
     <use xlink:href="#DejaVuSans-Oblique-70" transform="translate(59.179688 -16.296875) scale(0.7)"/>
     <use xlink:href="#DejaVuSans-226a" transform="translate(125.830078 0.109375)"/>
     <use xlink:href="#DejaVuSans-Oblique-76" transform="translate(250 0.109375)"/>
     <use xlink:href="#DejaVuSans-Oblique-6e" transform="translate(309.179688 -16.296875) scale(0.7)"/>
    </g>
   </g>
   <g id="text_3">
    <!-- $+$ -->
    <g transform="translate(145.2 23.1525) scale(0.16 -0.16)">
     <defs>
      <path id="DejaVuSans-2b" d="M 2944 4013 
L 2944 2272 
L 4684 2272 
L 4684 1741 
L 2944 1741 
L 2944 0 
L 2419 0 
L 2419 1741 
L 678 1741 
L 678 2272 
L 2419 2272 
L 2419 4013 
L 2944 4013 
z
" transform="scale(0.015625)"/>
     </defs>
     <use xlink:href="#DejaVuSans-2b" transform="translate(0 0.296875)"/>
    </g>
   </g>
   <g id="text_4">
    <!-- $r_i$ -->
    <g transform="translate(166.32 70.495) scale(0.16 -0.16)">
     <defs>
      <path id="DejaVuSans-Oblique-72" d="M 2853 2969 
Q 2766 3016 2653 3041 
Q 2541 3066 2413 3066 
Q 1953 3066 1609 2717 
Q 1266 2369 1153 1784 
L 800 0 
L 225 0 
L 909 3500 
L 1484 3500 
L 1375 2956 
Q 1603 3259 1920 3421 
Q 2238 3584 2597 3584 
Q 2691 3584 2781 3573 
Q 2872 3563 2963 3538 
L 2853 2969 
z
" transform="scale(0.015625)"/>
      <path id="DejaVuSans-Oblique-69" d="M 1172 4863 
L 1747 4863 
L 1606 4134 
L 1031 4134 
L 1172 4863 
z
M 909 3500 
L 1484 3500 
L 800 0 
L 225 0 
L 909 3500 
z
" transform="scale(0.015625)"/>
     </defs>
     <use xlink:href="#DejaVuSans-Oblique-72"/>
     <use xlink:href="#DejaVuSans-Oblique-69" transform="translate(41.113281 -16.40625) scale(0.7)"/>
    </g>
   </g>
   <g id="text_5">
    <!-- $-$ -->
    <g transform="translate(145.2 117.8375) scale(0.16 -0.16)">
     <defs>
      <path id="DejaVuSans-2212" d="M 678 2272 
L 4684 2272 
L 4684 1741 
L 678 1741 
L 678 2272 
z
" transform="scale(0.015625)"/>
     </defs>
     <use xlink:href="#DejaVuSans-2212" transform="translate(0 0.5)"/>
    </g>
   </g>
   <g id="patch_4">
    <path d="M 117.72 104.78 
C 118.436048 104.78 119.122866 104.495511 119.629188 103.989188 
C 120.135511 103.482866 120.42 102.796048 120.42 102.08 
C 120.42 101.363952 120.135511 100.677134 119.629188 100.170812 
C 119.122866 99.664489 118.436048 99.38 117.72 99.38 
C 117.003952 99.38 116.317134 99.664489 115.810812 100.170812 
C 115.304489 100.677134 115.02 101.363952 115.02 102.08 
C 115.02 102.796048 115.304489 103.482866 115.810812 103.989188 
C 116.317134 104.495511 117.003952 104.78 117.72 104.78 
z
" clip-path="url(#peac41ed8cf)" style="fill: #ffffff; stroke: #000000; stroke-width: 2; stroke-linejoin: miter"/>
   </g>
   <g id="text_6">
    <!-- $v_n$ -->
    <g style="fill: #ff0000" transform="translate(109.61 92.4525) scale(0.16 -0.16)">
     <use xlink:href="#DejaVuSans-Oblique-76" transform="translate(0 0.3125)"/>
     <use xlink:href="#DejaVuSans-Oblique-6e" transform="translate(59.179688 -16.09375) scale(0.7)"/>
    </g>
   </g>
   <g id="patch_5">
    <path d="M 117.72 176.78 
C 118.436048 176.78 119.122866 176.495511 119.629188 175.989188 
C 120.135511 175.482866 120.42 174.796048 120.42 174.08 
C 120.42 173.363952 120.135511 172.677134 119.629188 172.170812 
C 119.122866 171.664489 118.436048 171.38 117.72 171.38 
C 117.003952 171.38 116.317134 171.664489 115.810812 172.170812 
C 115.304489 172.677134 115.02 173.363952 115.02 174.08 
C 115.02 174.796048 115.304489 175.482866 115.810812 175.989188 
C 116.317134 176.495511 117.003952 176.78 117.72 176.78 
z
" clip-path="url(#peac41ed8cf)" style="stroke: #000000; stroke-width: 2; stroke-linejoin: miter"/>
   </g>
   <g id="text_7">
    <!-- $R_1$ -->
    <g transform="translate(86.4 214.495) scale(0.16 -0.16)">
     <defs>
      <path id="DejaVuSans-31" d="M 794 531 
L 1825 531 
L 1825 4091 
L 703 3866 
L 703 4441 
L 1819 4666 
L 2450 4666 
L 2450 531 
L 3481 531 
L 3481 0 
L 794 0 
L 794 531 
z
" transform="scale(0.015625)"/>
     </defs>
     <use xlink:href="#DejaVuSans-Oblique-52" transform="translate(0 0.09375)"/>
     <use xlink:href="#DejaVuSans-31" transform="translate(69.482422 -16.3125) scale(0.7)"/>
    </g>
   </g>
   <g id="text_8">
    <!-- $R_2$ -->
    <g transform="translate(288.36 158.1525) scale(0.16 -0.16)">
     <defs>
      <path id="DejaVuSans-32" d="M 1228 531 
L 3431 531 
L 3431 0 
L 469 0 
L 469 531 
Q 828 903 1448 1529 
Q 2069 2156 2228 2338 
Q 2531 2678 2651 2914 
Q 2772 3150 2772 3378 
Q 2772 3750 2511 3984 
Q 2250 4219 1831 4219 
Q 1534 4219 1204 4116 
Q 875 4013 500 3803 
L 500 4441 
Q 881 4594 1212 4672 
Q 1544 4750 1819 4750 
Q 2544 4750 2975 4387 
Q 3406 4025 3406 3419 
Q 3406 3131 3298 2873 
Q 3191 2616 2906 2266 
Q 2828 2175 2409 1742 
Q 1991 1309 1228 531 
z
" transform="scale(0.015625)"/>
     </defs>
     <use xlink:href="#DejaVuSans-Oblique-52" transform="translate(0 0.09375)"/>
     <use xlink:href="#DejaVuSans-32" transform="translate(69.482422 -16.3125) scale(0.7)"/>
    </g>
   </g>
   <g id="patch_6">
    <path d="M 477.72 32.78 
C 478.436048 32.78 479.122866 32.495511 479.629188 31.989188 
C 480.135511 31.482866 480.42 30.796048 480.42 30.08 
C 480.42 29.363952 480.135511 28.677134 479.629188 28.170812 
C 479.122866 27.664489 478.436048 27.38 477.72 27.38 
C 477.003952 27.38 476.317134 27.664489 475.810812 28.170812 
C 475.304489 28.677134 475.02 29.363952 475.02 30.08 
C 475.02 30.796048 475.304489 31.482866 475.810812 31.989188 
C 476.317134 32.495511 477.003952 32.78 477.72 32.78 
z
" clip-path="url(#peac41ed8cf)" style="stroke: #000000; stroke-width: 2; stroke-linejoin: miter"/>
   </g>
   <g id="text_9">
    <!-- $r_o$ -->
    <g transform="translate(434.76 14.1525) scale(0.16 -0.16)">
     <defs>
      <path id="DejaVuSans-Oblique-6f" d="M 1625 -91 
Q 1009 -91 651 289 
Q 294 669 294 1325 
Q 294 1706 417 2101 
Q 541 2497 738 2766 
Q 1047 3184 1428 3384 
Q 1809 3584 2291 3584 
Q 2888 3584 3255 3212 
Q 3622 2841 3622 2241 
Q 3622 1825 3500 1412 
Q 3378 1000 3181 728 
Q 2875 309 2494 109 
Q 2113 -91 1625 -91 
z
M 891 1344 
Q 891 869 1089 633 
Q 1288 397 1691 397 
Q 2269 397 2648 901 
Q 3028 1406 3028 2181 
Q 3028 2634 2825 2865 
Q 2622 3097 2228 3097 
Q 1903 3097 1650 2945 
Q 1397 2794 1197 2484 
Q 1050 2253 970 1956 
Q 891 1659 891 1344 
z
" transform="scale(0.015625)"/>
     </defs>
     <use xlink:href="#DejaVuSans-Oblique-72"/>
     <use xlink:href="#DejaVuSans-Oblique-6f" transform="translate(41.113281 -16.40625) scale(0.7)"/>
    </g>
   </g>
   <g id="text_10">
    <!-- $v_{t}$ -->
    <g transform="translate(427.32 70.495) scale(0.16 -0.16)">
     <defs>
      <path id="DejaVuSans-Oblique-74" d="M 2706 3500 
L 2619 3053 
L 1472 3053 
L 1100 1153 
Q 1081 1047 1072 975 
Q 1063 903 1063 863 
Q 1063 663 1183 572 
Q 1303 481 1569 481 
L 2150 481 
L 2053 0 
L 1503 0 
Q 991 0 739 200 
Q 488 400 488 806 
Q 488 878 497 964 
Q 506 1050 525 1153 
L 897 3053 
L 409 3053 
L 500 3500 
L 978 3500 
L 1172 4494 
L 1747 4494 
L 1556 3500 
L 2706 3500 
z
" transform="scale(0.015625)"/>
     </defs>
     <use xlink:href="#DejaVuSans-Oblique-76" transform="translate(0 0.3125)"/>
     <use xlink:href="#DejaVuSans-Oblique-74" transform="translate(59.179688 -16.09375) scale(0.7)"/>
    </g>
   </g>
   <g id="text_11">
    <!-- $a_v \cdot (v_p-v_n)$ -->
    <g transform="translate(283.32 69.68) scale(0.16 -0.16)">
     <defs>
      <path id="DejaVuSans-Oblique-61" d="M 3438 1997 
L 3047 0 
L 2472 0 
L 2578 531 
Q 2325 219 2001 64 
Q 1678 -91 1281 -91 
Q 834 -91 548 182 
Q 263 456 263 884 
Q 263 1497 752 1853 
Q 1241 2209 2100 2209 
L 2900 2209 
L 2931 2363 
Q 2938 2388 2941 2417 
Q 2944 2447 2944 2509 
Q 2944 2788 2717 2942 
Q 2491 3097 2081 3097 
Q 1800 3097 1504 3025 
Q 1209 2953 897 2809 
L 997 3341 
Q 1322 3463 1633 3523 
Q 1944 3584 2234 3584 
Q 2853 3584 3176 3315 
Q 3500 3047 3500 2534 
Q 3500 2431 3484 2292 
Q 3469 2153 3438 1997 
z
M 2816 1759 
L 2241 1759 
Q 1534 1759 1195 1570 
Q 856 1381 856 984 
Q 856 709 1029 553 
Q 1203 397 1509 397 
Q 1978 397 2328 733 
Q 2678 1069 2791 1631 
L 2816 1759 
z
" transform="scale(0.015625)"/>
      <path id="DejaVuSans-22c5" d="M 684 2619 
L 1344 2619 
L 1344 1825 
L 684 1825 
L 684 2619 
z
" transform="scale(0.015625)"/>
      <path id="DejaVuSans-28" d="M 1984 4856 
Q 1566 4138 1362 3434 
Q 1159 2731 1159 2009 
Q 1159 1288 1364 580 
Q 1569 -128 1984 -844 
L 1484 -844 
Q 1016 -109 783 600 
Q 550 1309 550 2009 
Q 550 2706 781 3412 
Q 1013 4119 1484 4856 
L 1984 4856 
z
" transform="scale(0.015625)"/>
      <path id="DejaVuSans-29" d="M 513 4856 
L 1013 4856 
Q 1481 4119 1714 3412 
Q 1947 2706 1947 2009 
Q 1947 1309 1714 600 
Q 1481 -109 1013 -844 
L 513 -844 
Q 928 -128 1133 580 
Q 1338 1288 1338 2009 
Q 1338 2731 1133 3434 
Q 928 4138 513 4856 
z
" transform="scale(0.015625)"/>
     </defs>
     <use xlink:href="#DejaVuSans-Oblique-61" transform="translate(0 0.125)"/>
     <use xlink:href="#DejaVuSans-Oblique-76" transform="translate(61.279297 -16.28125) scale(0.7)"/>
     <use xlink:href="#DejaVuSans-22c5" transform="translate(124.921875 0.125)"/>
     <use xlink:href="#DejaVuSans-28" transform="translate(176.191406 0.125)"/>
     <use xlink:href="#DejaVuSans-Oblique-76" transform="translate(215.205078 0.125)"/>
     <use xlink:href="#DejaVuSans-Oblique-70" transform="translate(274.384766 -16.28125) scale(0.7)"/>
     <use xlink:href="#DejaVuSans-2212" transform="translate(341.035156 0.125)"/>
     <use xlink:href="#DejaVuSans-Oblique-76" transform="translate(444.306641 0.125)"/>
     <use xlink:href="#DejaVuSans-Oblique-6e" transform="translate(503.486328 -16.28125) scale(0.7)"/>
     <use xlink:href="#DejaVuSans-29" transform="translate(550.585938 0.125)"/>
    </g>
   </g>
   <g id="patch_7">
    <path d="M 279.72 32.78 
C 280.436048 32.78 281.122866 32.495511 281.629188 31.989188 
C 282.135511 31.482866 282.42 30.796048 282.42 30.08 
C 282.42 29.363952 282.135511 28.677134 281.629188 28.170812 
C 281.122866 27.664489 280.436048 27.38 279.72 27.38 
C 279.003952 27.38 278.317134 27.664489 277.810812 28.170812 
C 277.304489 28.677134 277.02 29.363952 277.02 30.08 
C 277.02 30.796048 277.304489 31.482866 277.810812 31.989188 
C 278.317134 32.495511 279.003952 32.78 279.72 32.78 
z
" clip-path="url(#peac41ed8cf)" style="fill: #ffffff; stroke: #000000; stroke-width: 2; stroke-linejoin: miter"/>
   </g>
   <g id="text_12">
    <!-- $v_r$ -->
    <g transform="translate(264.79 20.4525) scale(0.16 -0.16)">
     <use xlink:href="#DejaVuSans-Oblique-76" transform="translate(0 0.3125)"/>
     <use xlink:href="#DejaVuSans-Oblique-72" transform="translate(59.179688 -16.09375) scale(0.7)"/>
    </g>
   </g>
   <g id="patch_8">
    <path d="M 513.72 32.78 
C 514.436048 32.78 515.122866 32.495511 515.629188 31.989188 
C 516.135511 31.482866 516.42 30.796048 516.42 30.08 
C 516.42 29.363952 516.135511 28.677134 515.629188 28.170812 
C 515.122866 27.664489 514.436048 27.38 513.72 27.38 
C 513.003952 27.38 512.317134 27.664489 511.810812 28.170812 
C 511.304489 28.677134 511.02 29.363952 511.02 30.08 
C 511.02 30.796048 511.304489 31.482866 511.810812 31.989188 
C 512.317134 32.495511 513.003952 32.78 513.72 32.78 
z
" clip-path="url(#peac41ed8cf)" style="fill: #ffffff; stroke: #000000; stroke-width: 2; stroke-linejoin: miter"/>
   </g>
   <g id="text_13">
    <!-- $v_{out}$ -->
    <g transform="translate(490.11 16.8525) scale(0.16 -0.16)">
     <defs>
      <path id="DejaVuSans-Oblique-75" d="M 428 1388 
L 838 3500 
L 1416 3500 
L 1006 1409 
Q 975 1256 961 1147 
Q 947 1038 947 966 
Q 947 700 1109 554 
Q 1272 409 1569 409 
Q 2031 409 2368 721 
Q 2706 1034 2809 1563 
L 3194 3500 
L 3769 3500 
L 3091 0 
L 2516 0 
L 2631 550 
Q 2388 244 2052 76 
Q 1716 -91 1338 -91 
Q 878 -91 622 161 
Q 366 413 366 863 
Q 366 956 381 1097 
Q 397 1238 428 1388 
z
" transform="scale(0.015625)"/>
     </defs>
     <use xlink:href="#DejaVuSans-Oblique-76" transform="translate(0 0.3125)"/>
     <use xlink:href="#DejaVuSans-Oblique-6f" transform="translate(59.179688 -16.09375) scale(0.7)"/>
     <use xlink:href="#DejaVuSans-Oblique-75" transform="translate(102.006836 -16.09375) scale(0.7)"/>
     <use xlink:href="#DejaVuSans-Oblique-74" transform="translate(146.37207 -16.09375) scale(0.7)"/>
    </g>
   </g>
  </g>
 </g>
 <defs>
  <clipPath id="peac41ed8cf">
   <rect x="0" y="0" width="526.326" height="273.8"/>
  </clipPath>
 </defs>
</svg>
