<?xml version="1.0" encoding="utf-8" standalone="no"?>
<!DOCTYPE svg PUBLIC "-//W3C//DTD SVG 1.1//EN"
  "http://www.w3.org/Graphics/SVG/1.1/DTD/svg11.dtd">
<svg xmlns:xlink="http://www.w3.org/1999/xlink" width="339.84pt" height="236.4pt" viewBox="0 0 339.84 236.4" xmlns="http://www.w3.org/2000/svg" version="1.1">
 <metadata>
  <rdf:RDF xmlns:dc="http://purl.org/dc/elements/1.1/" xmlns:cc="http://creativecommons.org/ns#" xmlns:rdf="http://www.w3.org/1999/02/22-rdf-syntax-ns#">
   <cc:Work>
    <dc:type rdf:resource="http://purl.org/dc/dcmitype/StillImage"/>
    <dc:date>2025-03-25T23:31:50.230186</dc:date>
    <dc:format>image/svg+xml</dc:format>
    <dc:creator>
     <cc:Agent>
      <dc:title>Matplotlib v3.9.2, https://matplotlib.org/</dc:title>
     </cc:Agent>
    </dc:creator>
   </cc:Work>
  </rdf:RDF>
 </metadata>
 <defs>
  <style type="text/css">*{stroke-linejoin: round; stroke-linecap: butt}</style>
 </defs>
 <g id="figure_1">
  <g id="patch_1">
   <path d="M 0 236.4 
L 339.84 236.4 
L 339.84 0 
L 0 0 
z
" style="fill: #ffffff"/>
  </g>
  <g id="axes_1">
   <g id="line2d_1">
    <path d="M 28.92 76.68 
L 28.92 91.68 
L 43.92 91.68 
L 43.92 121.68 
L 28.92 121.68 
L 28.92 136.68 
" clip-path="url(#p6f491f84be)" style="fill: none; stroke: #000000; stroke-width: 2; stroke-linecap: round"/>
   </g>
   <g id="line2d_2">
    <path d="M 34.92 121.68 
L 28.92 121.68 
" clip-path="url(#p6f491f84be)" style="fill: none; stroke: #000000; stroke-width: 2; stroke-linecap: round"/>
   </g>
   <g id="patch_2">
    <path d="M 34.92 117.18 
L 43.92 121.68 
L 34.92 126.18 
z
" clip-path="url(#p6f491f84be)"/>
   </g>
   <g id="line2d_3">
    <path d="M 46.92 94.68 
L 46.92 118.68 
" clip-path="url(#p6f491f84be)" style="fill: none; stroke: #000000; stroke-width: 2; stroke-linecap: round"/>
   </g>
   <g id="line2d_4">
    <path d="M 61.92 106.68 
L 46.92 106.68 
" clip-path="url(#p6f491f84be)" style="fill: none; stroke: #000000; stroke-width: 2; stroke-linecap: round"/>
   </g>
   <g id="line2d_5">
    <path d="M 28.92 76.68 
L 46.92 76.68 
L 64.92 76.68 
" clip-path="url(#p6f491f84be)" style="fill: none; stroke: #000000; stroke-width: 2; stroke-linecap: round"/>
   </g>
   <g id="line2d_6">
    <path d="M 64.92 76.68 
L 64.92 91.754813 
L 64.92 106.829627 
" clip-path="url(#p6f491f84be)" style="fill: none; stroke: #000000; stroke-width: 2; stroke-linecap: round"/>
   </g>
   <g id="line2d_7">
    <path d="M 28.92 136.68 
L 28.92 172.68 
L 28.92 208.68 
" clip-path="url(#p6f491f84be)" style="fill: none; stroke: #000000; stroke-width: 2; stroke-linecap: round"/>
   </g>
   <g id="line2d_8">
    <path d="M 28.92 208.68 
L 28.92 223.08 
L 19.92 223.08 
L 37.92 223.08 
M 22.62 227.4 
L 35.22 227.4 
M 27.12 231.72 
L 30.72 231.72 
" clip-path="url(#p6f491f84be)" style="fill: none; stroke: #000000; stroke-width: 2; stroke-linecap: round"/>
   </g>
   <g id="line2d_9">
    <path d="M 28.92 208.68 
L 82.92 208.68 
L 136.92 208.68 
" clip-path="url(#p6f491f84be)" style="fill: none; stroke: #000000; stroke-width: 2; stroke-linecap: round"/>
   </g>
   <g id="line2d_10">
    <path d="M 136.92 208.68 
L 136.92 172.68 
L 136.92 136.68 
" clip-path="url(#p6f491f84be)" style="fill: none; stroke: #000000; stroke-width: 2; stroke-linecap: round"/>
   </g>
   <g id="line2d_11">
    <path d="M 136.92 136.68 
L 136.92 121.68 
L 121.92 121.68 
L 121.92 91.68 
L 136.92 91.68 
L 136.92 76.68 
" clip-path="url(#p6f491f84be)" style="fill: none; stroke: #000000; stroke-width: 2; stroke-linecap: round"/>
   </g>
   <g id="line2d_12">
    <path d="M 136.92 121.68 
L 130.92 121.68 
" clip-path="url(#p6f491f84be)" style="fill: none; stroke: #000000; stroke-width: 2; stroke-linecap: round"/>
   </g>
   <g id="patch_3">
    <path d="M 130.92 126.18 
L 121.92 121.68 
L 130.92 117.18 
z
" clip-path="url(#p6f491f84be)"/>
   </g>
   <g id="line2d_13">
    <path d="M 118.92 118.68 
L 118.92 94.68 
" clip-path="url(#p6f491f84be)" style="fill: none; stroke: #000000; stroke-width: 2; stroke-linecap: round"/>
   </g>
   <g id="line2d_14">
    <path d="M 118.92 106.68 
L 103.92 106.68 
" clip-path="url(#p6f491f84be)" style="fill: none; stroke: #000000; stroke-width: 2; stroke-linecap: round"/>
   </g>
   <g id="line2d_15">
    <path d="M 103.92 106.68 
L 82.92 106.68 
L 61.92 106.68 
" clip-path="url(#p6f491f84be)" style="fill: none; stroke: #000000; stroke-width: 2; stroke-linecap: round"/>
   </g>
   <g id="line2d_16">
    <path d="M 136.92 76.68 
L 136.92 58.68 
L 136.92 40.68 
" clip-path="url(#p6f491f84be)" style="fill: none; stroke: #000000; stroke-width: 2; stroke-linecap: round"/>
   </g>
   <g id="line2d_17">
    <path d="M 136.92 40.68 
L 172.92 40.68 
L 208.92 40.68 
" clip-path="url(#p6f491f84be)" style="fill: none; stroke: #000000; stroke-width: 2; stroke-linecap: round"/>
   </g>
   <g id="line2d_18">
    <path d="M 208.92 40.68 
L 208.92 58.68 
L 208.92 76.68 
" clip-path="url(#p6f491f84be)" style="fill: none; stroke: #000000; stroke-width: 2; stroke-linecap: round"/>
   </g>
   <g id="line2d_19">
    <path d="M 208.92 76.68 
L 208.92 91.68 
L 223.92 91.68 
L 223.92 121.68 
L 208.92 121.68 
L 208.92 136.68 
" clip-path="url(#p6f491f84be)" style="fill: none; stroke: #000000; stroke-width: 2; stroke-linecap: round"/>
   </g>
   <g id="line2d_20">
    <path d="M 223.92 121.68 
L 217.92 121.68 
" clip-path="url(#p6f491f84be)" style="fill: none; stroke: #000000; stroke-width: 2; stroke-linecap: round"/>
   </g>
   <g id="patch_4">
    <path d="M 217.92 126.18 
L 208.92 121.68 
L 217.92 117.18 
z
" clip-path="url(#p6f491f84be)"/>
   </g>
   <g id="line2d_21">
    <path d="M 226.92 94.68 
L 226.92 118.68 
" clip-path="url(#p6f491f84be)" style="fill: none; stroke: #000000; stroke-width: 2; stroke-linecap: round"/>
   </g>
   <g id="line2d_22">
    <path d="M 226.92 106.68 
L 241.92 106.68 
" clip-path="url(#p6f491f84be)" style="fill: none; stroke: #000000; stroke-width: 2; stroke-linecap: round"/>
   </g>
   <g id="line2d_23">
    <path d="M 241.92 106.68 
L 241.92 88.68 
L 241.92 70.68 
" clip-path="url(#p6f491f84be)" style="fill: none; stroke: #000000; stroke-width: 2; stroke-linecap: round"/>
   </g>
   <g id="line2d_24">
    <path d="M 241.92 70.68 
L 225.14949 70.68 
L 208.37898 70.68 
" clip-path="url(#p6f491f84be)" style="fill: none; stroke: #000000; stroke-width: 2; stroke-linecap: round"/>
   </g>
   <g id="line2d_25">
    <path d="M 241.92 106.68 
L 259.92 106.68 
L 277.92 106.68 
" clip-path="url(#p6f491f84be)" style="fill: none; stroke: #000000; stroke-width: 2; stroke-linecap: round"/>
   </g>
   <g id="line2d_26">
    <path d="M 310.92 136.68 
L 310.92 121.68 
L 295.92 121.68 
L 295.92 91.68 
L 310.92 91.68 
L 310.92 76.68 
" clip-path="url(#p6f491f84be)" style="fill: none; stroke: #000000; stroke-width: 2; stroke-linecap: round"/>
   </g>
   <g id="line2d_27">
    <path d="M 301.92 121.68 
L 295.92 121.68 
" clip-path="url(#p6f491f84be)" style="fill: none; stroke: #000000; stroke-width: 2; stroke-linecap: round"/>
   </g>
   <g id="patch_5">
    <path d="M 301.92 117.18 
L 310.92 121.68 
L 301.92 126.18 
z
" clip-path="url(#p6f491f84be)"/>
   </g>
   <g id="line2d_28">
    <path d="M 292.92 118.68 
L 292.92 94.68 
" clip-path="url(#p6f491f84be)" style="fill: none; stroke: #000000; stroke-width: 2; stroke-linecap: round"/>
   </g>
   <g id="line2d_29">
    <path d="M 277.92 106.68 
L 292.92 106.68 
" clip-path="url(#p6f491f84be)" style="fill: none; stroke: #000000; stroke-width: 2; stroke-linecap: round"/>
   </g>
   <g id="line2d_30">
    <path d="M 310.92 136.68 
L 310.92 154.68 
L 319.92 157.68 
L 301.92 163.68 
L 319.92 169.68 
L 301.92 175.68 
L 319.92 181.68 
L 301.92 187.68 
L 310.92 190.68 
L 310.92 208.68 
" clip-path="url(#p6f491f84be)" style="fill: none; stroke: #000000; stroke-width: 2; stroke-linecap: round"/>
   </g>
   <g id="line2d_31">
    <path d="M 310.92 208.68 
L 310.92 223.08 
L 301.92 223.08 
L 319.92 223.08 
M 304.62 227.4 
L 317.22 227.4 
M 309.12 231.72 
L 312.72 231.72 
" clip-path="url(#p6f491f84be)" style="fill: none; stroke: #000000; stroke-width: 2; stroke-linecap: round"/>
   </g>
   <g id="line2d_32">
    <path d="M 208.92 136.68 
L 208.92 172.68 
L 208.92 208.68 
" clip-path="url(#p6f491f84be)" style="fill: none; stroke: #000000; stroke-width: 2; stroke-linecap: round"/>
   </g>
   <g id="line2d_33">
    <path d="M 208.92 208.68 
L 259.92 208.68 
L 310.92 208.68 
" clip-path="url(#p6f491f84be)" style="fill: none; stroke: #000000; stroke-width: 2; stroke-linecap: round"/>
   </g>
   <g id="line2d_34">
    <path d="M 310.92 76.68 
L 310.92 40.68 
L 310.92 4.68 
" clip-path="url(#p6f491f84be)" style="fill: none; stroke: #000000; stroke-width: 2; stroke-linecap: round"/>
   </g>
   <g id="line2d_35">
    <path d="M 28.92 76.68 
L 28.92 40.68 
L 28.92 4.68 
" clip-path="url(#p6f491f84be)" style="fill: none; stroke: #000000; stroke-width: 2; stroke-linecap: round"/>
   </g>
   <g id="line2d_36">
    <path d="M 28.92 4.68 
L 169.92 4.68 
L 310.92 4.68 
" clip-path="url(#p6f491f84be)" style="fill: none; stroke: #000000; stroke-width: 2; stroke-linecap: round"/>
   </g>
   <g id="text_1">
    <!-- $M_{4}$ -->
    <g transform="translate(3.88 111.095) scale(0.16 -0.16)">
     <defs>
      <path id="DejaVuSans-Oblique-4d" d="M 1081 4666 
L 2028 4666 
L 2572 1522 
L 4378 4666 
L 5350 4666 
L 4441 0 
L 3828 0 
L 4622 4091 
L 2791 897 
L 2175 897 
L 1581 4103 
L 788 0 
L 172 0 
L 1081 4666 
z
" transform="scale(0.015625)"/>
      <path id="DejaVuSans-34" d="M 2419 4116 
L 825 1625 
L 2419 1625 
L 2419 4116 
z
M 2253 4666 
L 3047 4666 
L 3047 1625 
L 3713 1625 
L 3713 1100 
L 3047 1100 
L 3047 0 
L 2419 0 
L 2419 1100 
L 313 1100 
L 313 1709 
L 2253 4666 
z
" transform="scale(0.015625)"/>
     </defs>
     <use xlink:href="#DejaVuSans-Oblique-4d" transform="translate(0 0.09375)"/>
     <use xlink:href="#DejaVuSans-34" transform="translate(86.279297 -16.3125) scale(0.7)"/>
    </g>
   </g>
   <g id="patch_6">
    <path d="M 64.92 109.529627 
C 65.636048 109.529627 66.322866 109.245138 66.829188 108.738815 
C 67.335511 108.232493 67.62 107.545675 67.62 106.829627 
C 67.62 106.113578 67.335511 105.426761 66.829188 104.920439 
C 66.322866 104.414116 65.636048 104.129627 64.92 104.129627 
C 64.203952 104.129627 63.517134 104.414116 63.010812 104.920439 
C 62.504489 105.426761 62.22 106.113578 62.22 106.829627 
C 62.22 107.545675 62.504489 108.232493 63.010812 108.738815 
C 63.517134 109.245138 64.203952 109.529627 64.92 109.529627 
z
" clip-path="url(#p6f491f84be)" style="stroke: #000000; stroke-width: 2; stroke-linejoin: miter"/>
   </g>
   <g id="patch_7">
    <path d="M 28.92 211.38 
C 29.636048 211.38 30.322866 211.095511 30.829188 210.589188 
C 31.335511 210.082866 31.62 209.396048 31.62 208.68 
C 31.62 207.963952 31.335511 207.277134 30.829188 206.770812 
C 30.322866 206.264489 29.636048 205.98 28.92 205.98 
C 28.203952 205.98 27.517134 206.264489 27.010812 206.770812 
C 26.504489 207.277134 26.22 207.963952 26.22 208.68 
C 26.22 209.396048 26.504489 210.082866 27.010812 210.589188 
C 27.517134 211.095511 28.203952 211.38 28.92 211.38 
z
" clip-path="url(#p6f491f84be)" style="stroke: #000000; stroke-width: 2; stroke-linejoin: miter"/>
   </g>
   <g id="text_2">
    <!-- $M_{3}$ -->
    <g transform="translate(140.52 111.095) scale(0.16 -0.16)">
     <defs>
      <path id="DejaVuSans-33" d="M 2597 2516 
Q 3050 2419 3304 2112 
Q 3559 1806 3559 1356 
Q 3559 666 3084 287 
Q 2609 -91 1734 -91 
Q 1441 -91 1130 -33 
Q 819 25 488 141 
L 488 750 
Q 750 597 1062 519 
Q 1375 441 1716 441 
Q 2309 441 2620 675 
Q 2931 909 2931 1356 
Q 2931 1769 2642 2001 
Q 2353 2234 1838 2234 
L 1294 2234 
L 1294 2753 
L 1863 2753 
Q 2328 2753 2575 2939 
Q 2822 3125 2822 3475 
Q 2822 3834 2567 4026 
Q 2313 4219 1838 4219 
Q 1578 4219 1281 4162 
Q 984 4106 628 3988 
L 628 4550 
Q 988 4650 1302 4700 
Q 1616 4750 1894 4750 
Q 2613 4750 3031 4423 
Q 3450 4097 3450 3541 
Q 3450 3153 3228 2886 
Q 3006 2619 2597 2516 
z
" transform="scale(0.015625)"/>
     </defs>
     <use xlink:href="#DejaVuSans-Oblique-4d" transform="translate(0 0.09375)"/>
     <use xlink:href="#DejaVuSans-33" transform="translate(86.279297 -16.3125) scale(0.7)"/>
    </g>
   </g>
   <g id="text_3">
    <!-- $v_4$ -->
    <g transform="translate(74.36 99.7525) scale(0.16 -0.16)">
     <defs>
      <path id="DejaVuSans-Oblique-76" d="M 459 3500 
L 1069 3500 
L 1581 525 
L 3256 3500 
L 3866 3500 
L 1875 0 
L 1100 0 
L 459 3500 
z
" transform="scale(0.015625)"/>
     </defs>
     <use xlink:href="#DejaVuSans-Oblique-76" transform="translate(0 0.3125)"/>
     <use xlink:href="#DejaVuSans-34" transform="translate(59.179688 -16.09375) scale(0.7)"/>
    </g>
   </g>
   <g id="text_4">
    <!-- $M_{1}$ -->
    <g transform="translate(183.88 111.095) scale(0.16 -0.16)">
     <defs>
      <path id="DejaVuSans-31" d="M 794 531 
L 1825 531 
L 1825 4091 
L 703 3866 
L 703 4441 
L 1819 4666 
L 2450 4666 
L 2450 531 
L 3481 531 
L 3481 0 
L 794 0 
L 794 531 
z
" transform="scale(0.015625)"/>
     </defs>
     <use xlink:href="#DejaVuSans-Oblique-4d" transform="translate(0 0.09375)"/>
     <use xlink:href="#DejaVuSans-31" transform="translate(86.279297 -16.3125) scale(0.7)"/>
    </g>
   </g>
   <g id="patch_8">
    <path d="M 208.37898 73.38 
C 209.095029 73.38 209.781846 73.095511 210.288169 72.589188 
C 210.794491 72.082866 211.07898 71.396048 211.07898 70.68 
C 211.07898 69.963952 210.794491 69.277134 210.288169 68.770812 
C 209.781846 68.264489 209.095029 67.98 208.37898 67.98 
C 207.662932 67.98 206.976115 68.264489 206.469792 68.770812 
C 205.963469 69.277134 205.67898 69.963952 205.67898 70.68 
C 205.67898 71.396048 205.963469 72.082866 206.469792 72.589188 
C 206.976115 73.095511 207.662932 73.38 208.37898 73.38 
z
" clip-path="url(#p6f491f84be)" style="stroke: #000000; stroke-width: 2; stroke-linejoin: miter"/>
   </g>
   <g id="text_5">
    <!-- $v_1$ -->
    <g transform="translate(251.36 99.7525) scale(0.16 -0.16)">
     <use xlink:href="#DejaVuSans-Oblique-76" transform="translate(0 0.3125)"/>
     <use xlink:href="#DejaVuSans-31" transform="translate(59.179688 -16.09375) scale(0.7)"/>
    </g>
   </g>
   <g id="text_6">
    <!-- $M_{2}$ -->
    <g transform="translate(314.52 111.095) scale(0.16 -0.16)">
     <defs>
      <path id="DejaVuSans-32" d="M 1228 531 
L 3431 531 
L 3431 0 
L 469 0 
L 469 531 
Q 828 903 1448 1529 
Q 2069 2156 2228 2338 
Q 2531 2678 2651 2914 
Q 2772 3150 2772 3378 
Q 2772 3750 2511 3984 
Q 2250 4219 1831 4219 
Q 1534 4219 1204 4116 
Q 875 4013 500 3803 
L 500 4441 
Q 881 4594 1212 4672 
Q 1544 4750 1819 4750 
Q 2544 4750 2975 4387 
Q 3406 4025 3406 3419 
Q 3406 3131 3298 2873 
Q 3191 2616 2906 2266 
Q 2828 2175 2409 1742 
Q 1991 1309 1228 531 
z
" transform="scale(0.015625)"/>
     </defs>
     <use xlink:href="#DejaVuSans-Oblique-4d" transform="translate(0 0.09375)"/>
     <use xlink:href="#DejaVuSans-32" transform="translate(86.279297 -16.3125) scale(0.7)"/>
    </g>
   </g>
   <g id="text_7">
    <!-- $R_2$ -->
    <g transform="translate(279.6 177.095) scale(0.16 -0.16)">
     <defs>
      <path id="DejaVuSans-Oblique-52" d="M 1613 4147 
L 1294 2491 
L 2106 2491 
Q 2584 2491 2879 2755 
Q 3175 3019 3175 3444 
Q 3175 3784 2976 3965 
Q 2778 4147 2406 4147 
L 1613 4147 
z
M 2772 2241 
Q 2972 2194 3105 2009 
Q 3238 1825 3413 1275 
L 3809 0 
L 3144 0 
L 2778 1197 
Q 2638 1659 2453 1815 
Q 2269 1972 1888 1972 
L 1191 1972 
L 806 0 
L 172 0 
L 1081 4666 
L 2503 4666 
Q 3150 4666 3495 4373 
Q 3841 4081 3841 3531 
Q 3841 3044 3547 2687 
Q 3253 2331 2772 2241 
z
" transform="scale(0.015625)"/>
     </defs>
     <use xlink:href="#DejaVuSans-Oblique-52" transform="translate(0 0.09375)"/>
     <use xlink:href="#DejaVuSans-32" transform="translate(69.482422 -16.3125) scale(0.7)"/>
    </g>
   </g>
   <g id="patch_9">
    <path d="M 28.92 79.38 
C 29.636048 79.38 30.322866 79.095511 30.829188 78.589188 
C 31.335511 78.082866 31.62 77.396048 31.62 76.68 
C 31.62 75.963952 31.335511 75.277134 30.829188 74.770812 
C 30.322866 74.264489 29.636048 73.98 28.92 73.98 
C 28.203952 73.98 27.517134 74.264489 27.010812 74.770812 
C 26.504489 75.277134 26.22 75.963952 26.22 76.68 
C 26.22 77.396048 26.504489 78.082866 27.010812 78.589188 
C 27.517134 79.095511 28.203952 79.38 28.92 79.38 
z
" clip-path="url(#p6f491f84be)" style="stroke: #000000; stroke-width: 2; stroke-linejoin: miter"/>
   </g>
   <g id="patch_10">
    <path d="M 241.92 109.38 
C 242.636048 109.38 243.322866 109.095511 243.829188 108.589188 
C 244.335511 108.082866 244.62 107.396048 244.62 106.68 
C 244.62 105.963952 244.335511 105.277134 243.829188 104.770812 
C 243.322866 104.264489 242.636048 103.98 241.92 103.98 
C 241.203952 103.98 240.517134 104.264489 240.010812 104.770812 
C 239.504489 105.277134 239.22 105.963952 239.22 106.68 
C 239.22 107.396048 239.504489 108.082866 240.010812 108.589188 
C 240.517134 109.095511 241.203952 109.38 241.92 109.38 
z
" clip-path="url(#p6f491f84be)" style="stroke: #000000; stroke-width: 2; stroke-linejoin: miter"/>
   </g>
   <g id="patch_11">
    <path d="M 310.92 211.38 
C 311.636048 211.38 312.322866 211.095511 312.829188 210.589188 
C 313.335511 210.082866 313.62 209.396048 313.62 208.68 
C 313.62 207.963952 313.335511 207.277134 312.829188 206.770812 
C 312.322866 206.264489 311.636048 205.98 310.92 205.98 
C 310.203952 205.98 309.517134 206.264489 309.010812 206.770812 
C 308.504489 207.277134 308.22 207.963952 308.22 208.68 
C 308.22 209.396048 308.504489 210.082866 309.010812 210.589188 
C 309.517134 211.095511 310.203952 211.38 310.92 211.38 
z
" clip-path="url(#p6f491f84be)" style="stroke: #000000; stroke-width: 2; stroke-linejoin: miter"/>
   </g>
  </g>
 </g>
 <defs>
  <clipPath id="p6f491f84be">
   <rect x="0" y="-0" width="339.84" height="236.4"/>
  </clipPath>
 </defs>
</svg>
