<?xml version="1.0" encoding="utf-8" standalone="no"?>
<!DOCTYPE svg PUBLIC "-//W3C//DTD SVG 1.1//EN"
  "http://www.w3.org/Graphics/SVG/1.1/DTD/svg11.dtd">
<svg xmlns:xlink="http://www.w3.org/1999/xlink" width="471.984pt" height="198.2pt" viewBox="0 0 471.984 198.2" xmlns="http://www.w3.org/2000/svg" version="1.1">
 <metadata>
  <rdf:RDF xmlns:dc="http://purl.org/dc/elements/1.1/" xmlns:cc="http://creativecommons.org/ns#" xmlns:rdf="http://www.w3.org/1999/02/22-rdf-syntax-ns#">
   <cc:Work>
    <dc:type rdf:resource="http://purl.org/dc/dcmitype/StillImage"/>
    <dc:date>2025-03-25T23:31:46.074746</dc:date>
    <dc:format>image/svg+xml</dc:format>
    <dc:creator>
     <cc:Agent>
      <dc:title>Matplotlib v3.9.2, https://matplotlib.org/</dc:title>
     </cc:Agent>
    </dc:creator>
   </cc:Work>
  </rdf:RDF>
 </metadata>
 <defs>
  <style type="text/css">*{stroke-linejoin: round; stroke-linecap: butt}</style>
 </defs>
 <g id="figure_1">
  <g id="patch_1">
   <path d="M 0 198.2 
L 471.984 198.2 
L 471.984 0 
L 0 0 
z
" style="fill: #ffffff"/>
  </g>
  <g id="axes_1">
   <g id="patch_2">
    <path d="M 81.72 44.48 
C 86.493656 44.48 91.072438 42.583406 94.447922 39.207922 
C 97.823406 35.832438 99.72 31.253656 99.72 26.48 
C 99.72 21.706344 97.823406 17.127562 94.447922 13.752078 
C 91.072438 10.376594 86.493656 8.48 81.72 8.48 
C 76.946344 8.48 72.367562 10.376594 68.992078 13.752078 
C 65.616594 17.127562 63.72 21.706344 63.72 26.48 
C 63.72 31.253656 65.616594 35.832438 68.992078 39.207922 
C 72.367562 42.583406 76.946344 44.48 81.72 44.48 
L 81.72 44.48 
z
" clip-path="url(#p280d7b6da7)" style="fill: none; stroke: #000000; stroke-width: 2; stroke-linejoin: miter"/>
   </g>
   <g id="patch_3">
    <path d="M 243.72 152.48 
C 248.493656 152.48 253.072438 150.583406 256.447922 147.207922 
C 259.823406 143.832438 261.72 139.253656 261.72 134.48 
C 261.72 129.706344 259.823406 125.127562 256.447922 121.752078 
C 253.072438 118.376594 248.493656 116.48 243.72 116.48 
C 238.946344 116.48 234.367562 118.376594 230.992078 121.752078 
C 227.616594 125.127562 225.72 129.706344 225.72 134.48 
C 225.72 139.253656 227.616594 143.832438 230.992078 147.207922 
C 234.367562 150.583406 238.946344 152.48 243.72 152.48 
L 243.72 152.48 
z
" clip-path="url(#p280d7b6da7)" style="fill: none; stroke: #000000; stroke-width: 2; stroke-linejoin: miter"/>
   </g>
   <g id="line2d_1">
    <path d="M 27.72 26.48 
L 13.32 26.48 
L 13.32 17.48 
L 13.32 35.48 
M 9 20.18 
L 9 32.78 
M 4.68 24.68 
L 4.68 28.28 
" clip-path="url(#p280d7b6da7)" style="fill: none; stroke: #000000; stroke-width: 2; stroke-linecap: round"/>
   </g>
   <g id="line2d_2">
    <path d="M 27.72 26.48 
L 45.72 26.48 
L 63.72 26.48 
" clip-path="url(#p280d7b6da7)" style="fill: none; stroke: #000000; stroke-width: 2; stroke-linecap: round"/>
   </g>
   <g id="line2d_3">
    <path d="M 99.72 26.48 
L 135.72 26.48 
L 162.72 26.48 
" clip-path="url(#p280d7b6da7)" style="fill: none; stroke: #000000; stroke-width: 2; stroke-linecap: round"/>
   </g>
   <g id="patch_4">
    <path d="M 162.72 23.78 
L 171.72 26.48 
L 162.72 29.18 
z
" clip-path="url(#p280d7b6da7)"/>
   </g>
   <g id="line2d_4">
    <path d="M 171.72 26.48 
L 171.72 8.48 
L 207.72 8.48 
L 207.72 44.48 
L 171.72 44.48 
L 171.72 26.48 
" clip-path="url(#p280d7b6da7)" style="fill: none; stroke: #000000; stroke-width: 2; stroke-linecap: round"/>
   </g>
   <g id="line2d_5">
    <path d="M 207.72 26.48 
L 225.72 26.48 
L 243.72 26.48 
" clip-path="url(#p280d7b6da7)" style="fill: none; stroke: #000000; stroke-width: 2; stroke-linecap: round"/>
   </g>
   <g id="line2d_6">
    <path d="M 243.72 98.48 
L 243.72 116.48 
L 243.72 116.48 
M 243.72 152.48 
L 243.72 152.48 
L 243.72 170.48 
" clip-path="url(#p280d7b6da7)" style="fill: none; stroke: #000000; stroke-width: 2; stroke-linecap: round"/>
   </g>
   <g id="line2d_7">
    <path d="M 247.32 143.48 
L 240.12 143.48 
" clip-path="url(#p280d7b6da7)" style="fill: none; stroke: #000000; stroke-width: 2; stroke-linecap: round"/>
   </g>
   <g id="line2d_8">
    <path d="M 243.72 121.88 
L 243.72 129.08 
" clip-path="url(#p280d7b6da7)" style="fill: none; stroke: #000000; stroke-width: 2; stroke-linecap: round"/>
   </g>
   <g id="line2d_9">
    <path d="M 247.32 125.48 
L 240.12 125.48 
" clip-path="url(#p280d7b6da7)" style="fill: none; stroke: #000000; stroke-width: 2; stroke-linecap: round"/>
   </g>
   <g id="line2d_10">
    <path d="M 243.72 170.48 
L 243.72 184.88 
L 234.72 184.88 
L 252.72 184.88 
M 237.42 189.2 
L 250.02 189.2 
M 241.92 193.52 
L 245.52 193.52 
" clip-path="url(#p280d7b6da7)" style="fill: none; stroke: #000000; stroke-width: 2; stroke-linecap: round"/>
   </g>
   <g id="line2d_11">
    <path d="M 243.72 98.48 
L 225.72 98.48 
L 207.72 98.48 
" clip-path="url(#p280d7b6da7)" style="fill: none; stroke: #000000; stroke-width: 2; stroke-linecap: round"/>
   </g>
   <g id="line2d_12">
    <path d="M 171.72 98.48 
L 171.72 80.48 
L 207.72 80.48 
L 207.72 116.48 
L 171.72 116.48 
L 171.72 98.48 
" clip-path="url(#p280d7b6da7)" style="fill: none; stroke: #000000; stroke-width: 2; stroke-linecap: round"/>
   </g>
   <g id="line2d_13">
    <path d="M 171.72 98.48 
L 126.72 98.48 
L 81.72 98.48 
" clip-path="url(#p280d7b6da7)" style="fill: none; stroke: #000000; stroke-width: 2; stroke-linecap: round"/>
   </g>
   <g id="line2d_14">
    <path d="M 81.72 98.48 
L 81.72 71.48 
L 81.72 53.48 
" clip-path="url(#p280d7b6da7)" style="fill: none; stroke: #000000; stroke-width: 2; stroke-linecap: round"/>
   </g>
   <g id="patch_5">
    <path d="M 79.02 53.48 
L 81.72 44.48 
L 84.42 53.48 
z
" clip-path="url(#p280d7b6da7)"/>
   </g>
   <g id="text_1">
    <!-- $_+$ -->
    <g transform="translate(45.72 34.495) scale(0.16 -0.16)">
     <defs>
      <path id="DejaVuSans-2b" d="M 2944 4013 
L 2944 2272 
L 4684 2272 
L 4684 1741 
L 2944 1741 
L 2944 0 
L 2419 0 
L 2419 1741 
L 678 1741 
L 678 2272 
L 2419 2272 
L 2419 4013 
L 2944 4013 
z
" transform="scale(0.015625)"/>
     </defs>
     <use xlink:href="#DejaVuSans-2b" transform="translate(14.594727 -15.892187) scale(0.7)"/>
    </g>
   </g>
   <g id="text_2">
    <!-- $\Sigma$ -->
    <g transform="translate(75.44 30.343125) scale(0.14 -0.14)">
     <defs>
      <path id="DejaVuSans-3a3" d="M 1353 531 
L 3634 531 
L 3634 0 
L 628 0 
L 628 531 
L 2125 2481 
L 628 4134 
L 628 4666 
L 3578 4666 
L 3578 4134 
L 1353 4134 
L 2850 2494 
L 1353 531 
z
" transform="scale(0.015625)"/>
     </defs>
     <use xlink:href="#DejaVuSans-3a3" transform="translate(0 0.09375)"/>
    </g>
   </g>
   <g id="text_3">
    <!-- $v_\epsilon \equiv v_D$ -->
    <g transform="translate(108.6 14.1525) scale(0.16 -0.16)">
     <defs>
      <path id="DejaVuSans-Oblique-76" d="M 459 3500 
L 1069 3500 
L 1581 525 
L 3256 3500 
L 3866 3500 
L 1875 0 
L 1100 0 
L 459 3500 
z
" transform="scale(0.015625)"/>
      <path id="DejaVuSans-Oblique-3b5" d="M 1263 1888 
Q 925 1963 778 2166 
Q 669 2309 669 2503 
Q 669 3034 1175 3344 
Q 1575 3588 2188 3588 
Q 2425 3588 2684 3550 
Q 2944 3513 3234 3438 
L 3134 2916 
Q 2847 3006 2606 3047 
Q 2359 3088 2138 3088 
Q 1766 3088 1522 2944 
Q 1228 2772 1228 2522 
Q 1228 2356 1381 2241 
Q 1563 2103 1925 2103 
L 2409 2103 
L 2319 1628 
L 1856 1628 
Q 1425 1628 1172 1469 
Q 828 1253 828 916 
Q 828 703 1013 563 
Q 1244 388 1716 388 
Q 2006 388 2284 444 
Q 2563 503 2806 619 
L 2700 84 
Q 2403 -3 2131 -47 
Q 1859 -91 1609 -91 
Q 866 -91 516 194 
Q 250 413 250 781 
Q 250 1278 600 1584 
Q 859 1813 1263 1888 
z
" transform="scale(0.015625)"/>
      <path id="DejaVuSans-2261" d="M 678 2272 
L 4684 2272 
L 4684 1741 
L 678 1741 
L 678 2272 
z
M 678 3438 
L 4684 3438 
L 4684 2906 
L 678 2906 
L 678 3438 
z
M 678 1106 
L 4684 1106 
L 4684 575 
L 678 575 
L 678 1106 
z
" transform="scale(0.015625)"/>
      <path id="DejaVuSans-Oblique-44" d="M 1081 4666 
L 2438 4666 
Q 3519 4666 4070 4208 
Q 4622 3750 4622 2847 
Q 4622 2250 4412 1698 
Q 4203 1147 3834 769 
Q 3463 381 2891 190 
Q 2319 0 1538 0 
L 172 0 
L 1081 4666 
z
M 1613 4147 
L 909 519 
L 1734 519 
Q 2794 519 3375 1128 
Q 3956 1738 3956 2847 
Q 3956 3519 3581 3833 
Q 3206 4147 2406 4147 
L 1613 4147 
z
" transform="scale(0.015625)"/>
     </defs>
     <use xlink:href="#DejaVuSans-Oblique-76" transform="translate(0 0.3125)"/>
     <use xlink:href="#DejaVuSans-Oblique-3b5" transform="translate(59.179688 -16.09375) scale(0.7)"/>
     <use xlink:href="#DejaVuSans-2261" transform="translate(119.233398 0.3125)"/>
     <use xlink:href="#DejaVuSans-Oblique-76" transform="translate(222.504883 0.3125)"/>
     <use xlink:href="#DejaVuSans-Oblique-44" transform="translate(281.68457 -16.09375) scale(0.7)"/>
    </g>
   </g>
   <g id="text_4">
    <!-- $a$ -->
    <g transform="translate(184.92 30.895) scale(0.16 -0.16)">
     <defs>
      <path id="DejaVuSerif-Italic-61" d="M 2325 519 
Q 1909 -91 1238 -91 
Q 688 -91 409 281 
Q 216 544 216 919 
Q 216 1078 250 1256 
Q 463 2359 1231 2928 
Q 1884 3413 2675 3413 
Q 3206 3413 3388 3322 
L 2806 331 
L 3300 331 
L 3238 0 
L 2225 0 
L 2325 519 
z
M 822 938 
Q 822 269 1469 269 
Q 1863 269 2130 583 
Q 2397 897 2516 1497 
L 2806 3003 
L 2806 3003 
Q 2806 3094 2556 3094 
Q 1956 3094 1491 2625 
Q 1028 2153 863 1297 
Q 822 1097 822 938 
z
" transform="scale(0.015625)"/>
     </defs>
     <use xlink:href="#DejaVuSerif-Italic-61" transform="translate(0 0.671875)"/>
    </g>
   </g>
   <g id="text_5">
    <!-- $\Longrightarrow \dfrac{v_{out}}{v_{test}} = -ab$ -->
    <g transform="translate(255.4 67.04) scale(0.16 -0.16)">
     <defs>
      <path id="DejaVuSerif-27f9" d="M 7600 3375 
L 7634 3375 
L 8938 2084 
L 8938 2053 
L 7634 763 
L 7600 763 
L 7878 1269 
L 366 1269 
L 366 1775 
L 8156 1775 
L 8316 2069 
L 8156 2363 
L 366 2363 
L 366 2869 
L 7878 2869 
L 7600 3375 
z
" transform="scale(0.015625)"/>
      <path id="DejaVuSerif-Italic-76" d="M 1681 0 
L 1259 0 
L 619 2988 
L 241 2988 
L 303 3322 
L 1163 3322 
L 1725 703 
Q 2084 1016 2325 1413 
Q 2825 2238 3003 2988 
L 2622 2988 
L 2688 3322 
L 3547 3322 
Q 3206 2034 2775 1313 
Q 2400 688 1681 0 
z
" transform="scale(0.015625)"/>
      <path id="DejaVuSerif-Italic-6f" d="M 1644 219 
Q 2106 219 2414 584 
Q 2722 950 2859 1663 
Q 2922 1988 2922 2241 
Q 2922 2541 2834 2738 
Q 2669 3103 2206 3103 
Q 1744 3103 1436 2739 
Q 1128 2375 991 1663 
Q 928 1338 928 1088 
Q 928 784 1019 584 
Q 1184 219 1644 219 
z
M 1584 -91 
Q 859 -91 513 388 
Q 272 722 272 1203 
Q 272 1419 319 1663 
Q 472 2456 1005 2934 
Q 1538 3413 2266 3413 
Q 2994 3413 3341 2934 
Q 3578 2603 3578 2122 
Q 3578 1906 3531 1663 
Q 3378 869 2845 389 
Q 2313 -91 1584 -91 
z
" transform="scale(0.015625)"/>
      <path id="DejaVuSerif-Italic-75" d="M 3097 3322 
L 3672 3322 
L 3091 331 
L 3634 331 
L 3572 0 
L 2453 0 
L 2566 588 
Q 2341 256 2055 82 
Q 1769 -91 1434 -91 
Q 881 -91 681 225 
Q 559 413 559 734 
Q 559 944 613 1209 
L 956 2988 
L 438 2988 
L 503 3322 
L 1600 3322 
L 1225 1388 
Q 1163 1066 1163 853 
Q 1163 663 1213 556 
Q 1316 331 1697 331 
Q 2097 331 2364 625 
Q 2631 919 2738 1478 
L 3097 3322 
z
" transform="scale(0.015625)"/>
      <path id="DejaVuSerif-Italic-74" d="M 856 2988 
L 350 2988 
L 416 3322 
L 922 3322 
L 1122 4353 
L 1700 4353 
L 1500 3322 
L 2581 3322 
L 2516 2988 
L 1434 2988 
L 1025 878 
Q 978 631 978 488 
Q 978 388 1000 338 
Q 1059 219 1278 219 
Q 1503 219 1633 351 
Q 1763 484 1825 781 
L 2259 781 
Q 2147 328 1884 118 
Q 1622 -91 1169 -91 
Q 672 -91 506 131 
Q 406 266 406 516 
Q 406 675 447 878 
L 856 2988 
z
" transform="scale(0.015625)"/>
      <path id="DejaVuSerif-Italic-65" d="M 938 1275 
Q 925 1156 925 1050 
Q 925 756 1031 563 
Q 1216 219 1709 219 
Q 2072 219 2250 328 
Q 2569 525 2644 778 
L 3066 778 
Q 2941 381 2475 103 
Q 2150 -91 1506 -91 
Q 863 -91 516 388 
Q 272 722 272 1206 
Q 272 1419 319 1659 
Q 472 2450 1000 2931 
Q 1528 3413 2278 3413 
Q 3500 3413 3500 2547 
Q 3500 1913 2859 1603 
Q 2206 1288 938 1275 
z
M 2541 1975 
Q 2891 2181 2891 2569 
Q 2891 3103 2181 3103 
Q 1763 3103 1472 2784 
Q 1181 2466 1003 1606 
Q 2006 1653 2541 1975 
z
" transform="scale(0.015625)"/>
      <path id="DejaVuSerif-Italic-73" d="M 222 959 
L 553 959 
Q 541 869 541 788 
Q 541 219 1313 219 
Q 2088 219 2200 788 
Q 2209 844 2209 944 
Q 2209 1041 2103 1158 
Q 1997 1275 1550 1428 
L 1159 1569 
Q 759 1706 629 1882 
Q 500 2059 500 2263 
Q 500 2344 516 2438 
Q 606 2894 990 3153 
Q 1375 3413 1931 3413 
Q 2484 3413 3066 3144 
L 2925 2419 
L 2594 2419 
Q 2606 2491 2606 2553 
Q 2606 2781 2448 2942 
Q 2291 3103 1925 3103 
Q 1191 3103 1091 2591 
Q 1078 2538 1078 2444 
Q 1078 2347 1179 2237 
Q 1281 2128 1678 1997 
L 2106 1856 
Q 2550 1709 2716 1488 
Q 2831 1331 2831 1178 
Q 2831 522 2306 181 
Q 1894 -91 1262 -91 
Q 631 -91 72 184 
L 222 959 
z
" transform="scale(0.015625)"/>
      <path id="DejaVuSerif-3d" d="M 678 2894 
L 4684 2894 
L 4684 2394 
L 678 2394 
L 678 2894 
z
M 678 1619 
L 4684 1619 
L 4684 1119 
L 678 1119 
L 678 1619 
z
" transform="scale(0.015625)"/>
      <path id="DejaVuSerif-2212" d="M 678 2259 
L 4684 2259 
L 4684 1753 
L 678 1753 
L 678 2259 
z
" transform="scale(0.015625)"/>
      <path id="DejaVuSerif-Italic-62" d="M 1153 4531 
L 600 4531 
L 666 4863 
L 1794 4863 
L 1394 2803 
Q 1622 3116 1912 3264 
Q 2203 3413 2588 3413 
Q 3200 3413 3494 2928 
Q 3688 2609 3688 2163 
Q 3688 1928 3634 1663 
Q 3481 881 3000 395 
Q 2519 -91 1906 -91 
Q 1522 -91 1289 57 
Q 1056 206 950 519 
L 850 0 
L 275 0 
L 1153 4531 
z
M 1141 1497 
Q 1091 1250 1091 1053 
Q 1091 769 1191 581 
Q 1359 269 1797 269 
Q 2238 269 2533 622 
Q 2828 975 2963 1663 
Q 3025 1978 3025 2225 
Q 3025 2513 2938 2703 
Q 2781 3053 2338 3053 
Q 1900 3053 1609 2737 
Q 1319 2422 1203 1825 
L 1141 1497 
z
" transform="scale(0.015625)"/>
     </defs>
     <use xlink:href="#DejaVuSerif-27f9" transform="translate(18.964844 0.675)"/>
     <use xlink:href="#DejaVuSerif-Italic-76" transform="translate(190.289062 61.09375)"/>
     <use xlink:href="#DejaVuSerif-Italic-6f" transform="translate(246.783203 45.521875) scale(0.7)"/>
     <use xlink:href="#DejaVuSerif-Italic-75" transform="translate(288.926758 45.521875) scale(0.7)"/>
     <use xlink:href="#DejaVuSerif-Italic-74" transform="translate(334.009766 45.521875) scale(0.7)"/>
     <use xlink:href="#DejaVuSerif-Italic-76" transform="translate(181.289062 -38.629687)"/>
     <use xlink:href="#DejaVuSerif-Italic-74" transform="translate(237.783203 -54.201562) scale(0.7)"/>
     <use xlink:href="#DejaVuSerif-Italic-65" transform="translate(265.913086 -54.201562) scale(0.7)"/>
     <use xlink:href="#DejaVuSerif-Italic-73" transform="translate(307.338867 -54.201562) scale(0.7)"/>
     <use xlink:href="#DejaVuSerif-Italic-74" transform="translate(343.261719 -54.201562) scale(0.7)"/>
     <use xlink:href="#DejaVuSerif-3d" transform="translate(405.451758 0.675)"/>
     <use xlink:href="#DejaVuSerif-2212" transform="translate(527.170508 0.675)"/>
     <use xlink:href="#DejaVuSerif-Italic-61" transform="translate(629.924414 0.675)"/>
     <use xlink:href="#DejaVuSerif-Italic-62" transform="translate(689.543555 0.675)"/>
     <path d="M 181.289062 19.526562 
L 181.289062 25.776562 
L 373.986914 25.776562 
L 373.986914 19.526562 
L 181.289062 19.526562 
z
"/>
    </g>
   </g>
   <g id="text_6">
    <!-- $v_{test}$ -->
    <g transform="translate(265.32 138.895) scale(0.16 -0.16)">
     <defs>
      <path id="DejaVuSans-Oblique-74" d="M 2706 3500 
L 2619 3053 
L 1472 3053 
L 1100 1153 
Q 1081 1047 1072 975 
Q 1063 903 1063 863 
Q 1063 663 1183 572 
Q 1303 481 1569 481 
L 2150 481 
L 2053 0 
L 1503 0 
Q 991 0 739 200 
Q 488 400 488 806 
Q 488 878 497 964 
Q 506 1050 525 1153 
L 897 3053 
L 409 3053 
L 500 3500 
L 978 3500 
L 1172 4494 
L 1747 4494 
L 1556 3500 
L 2706 3500 
z
" transform="scale(0.015625)"/>
      <path id="DejaVuSans-Oblique-65" d="M 3078 2063 
Q 3088 2113 3092 2166 
Q 3097 2219 3097 2272 
Q 3097 2653 2873 2875 
Q 2650 3097 2266 3097 
Q 1838 3097 1509 2826 
Q 1181 2556 1013 2059 
L 3078 2063 
z
M 3578 1613 
L 903 1613 
Q 884 1494 878 1425 
Q 872 1356 872 1306 
Q 872 872 1139 634 
Q 1406 397 1894 397 
Q 2269 397 2603 481 
Q 2938 566 3225 728 
L 3116 159 
Q 2806 34 2476 -28 
Q 2147 -91 1806 -91 
Q 1078 -91 686 257 
Q 294 606 294 1247 
Q 294 1794 489 2264 
Q 684 2734 1063 3103 
Q 1306 3334 1642 3459 
Q 1978 3584 2356 3584 
Q 2950 3584 3301 3228 
Q 3653 2872 3653 2272 
Q 3653 2128 3634 1964 
Q 3616 1800 3578 1613 
z
" transform="scale(0.015625)"/>
      <path id="DejaVuSans-Oblique-73" d="M 3200 3397 
L 3091 2853 
Q 2863 2978 2609 3040 
Q 2356 3103 2088 3103 
Q 1634 3103 1373 2948 
Q 1113 2794 1113 2528 
Q 1113 2219 1719 2053 
Q 1766 2041 1788 2034 
L 1972 1978 
Q 2547 1819 2739 1644 
Q 2931 1469 2931 1166 
Q 2931 609 2489 259 
Q 2047 -91 1331 -91 
Q 1053 -91 747 -37 
Q 441 16 72 128 
L 184 722 
Q 500 559 806 475 
Q 1113 391 1394 391 
Q 1816 391 2080 572 
Q 2344 753 2344 1031 
Q 2344 1331 1650 1516 
L 1591 1531 
L 1394 1581 
Q 956 1697 753 1886 
Q 550 2075 550 2369 
Q 550 2928 970 3256 
Q 1391 3584 2113 3584 
Q 2397 3584 2667 3537 
Q 2938 3491 3200 3397 
z
" transform="scale(0.015625)"/>
     </defs>
     <use xlink:href="#DejaVuSans-Oblique-76" transform="translate(0 0.3125)"/>
     <use xlink:href="#DejaVuSans-Oblique-74" transform="translate(59.179688 -16.09375) scale(0.7)"/>
     <use xlink:href="#DejaVuSans-Oblique-65" transform="translate(86.625977 -16.09375) scale(0.7)"/>
     <use xlink:href="#DejaVuSans-Oblique-73" transform="translate(129.692383 -16.09375) scale(0.7)"/>
     <use xlink:href="#DejaVuSans-Oblique-74" transform="translate(166.162109 -16.09375) scale(0.7)"/>
    </g>
   </g>
   <g id="text_7">
    <!-- $b$ -->
    <g transform="translate(184.6 102.895) scale(0.16 -0.16)">
     <defs>
      <path id="DejaVuSans-Oblique-62" d="M 3169 2138 
Q 3169 2591 2961 2847 
Q 2753 3103 2388 3103 
Q 2122 3103 1889 2973 
Q 1656 2844 1484 2597 
Q 1303 2338 1198 1995 
Q 1094 1653 1094 1313 
Q 1094 881 1298 636 
Q 1503 391 1863 391 
Q 2134 391 2365 517 
Q 2597 644 2772 891 
Q 2950 1147 3059 1487 
Q 3169 1828 3169 2138 
z
M 1381 2969 
Q 1594 3256 1914 3420 
Q 2234 3584 2584 3584 
Q 3122 3584 3439 3221 
Q 3756 2859 3756 2241 
Q 3756 1734 3570 1259 
Q 3384 784 3041 416 
Q 2816 172 2522 40 
Q 2228 -91 1906 -91 
Q 1566 -91 1316 65 
Q 1066 222 909 531 
L 806 0 
L 231 0 
L 1178 4863 
L 1753 4863 
L 1381 2969 
z
" transform="scale(0.015625)"/>
     </defs>
     <use xlink:href="#DejaVuSans-Oblique-62" transform="translate(0 0.015625)"/>
    </g>
   </g>
   <g id="text_8">
    <!-- $v_f$ -->
    <g transform="translate(119.76 91.5525) scale(0.16 -0.16)">
     <defs>
      <path id="DejaVuSans-Oblique-66" d="M 3059 4863 
L 2969 4384 
L 2419 4384 
Q 2106 4384 1964 4261 
Q 1822 4138 1753 3809 
L 1691 3500 
L 2638 3500 
L 2553 3053 
L 1606 3053 
L 1013 0 
L 434 0 
L 1031 3053 
L 481 3053 
L 563 3500 
L 1113 3500 
L 1159 3744 
Q 1278 4363 1576 4613 
Q 1875 4863 2516 4863 
L 3059 4863 
z
" transform="scale(0.015625)"/>
     </defs>
     <use xlink:href="#DejaVuSans-Oblique-76" transform="translate(0 0.3125)"/>
     <use xlink:href="#DejaVuSans-Oblique-66" transform="translate(59.179688 -16.09375) scale(0.7)"/>
    </g>
   </g>
   <g id="text_9">
    <!-- $_-$ -->
    <g transform="translate(87.12 50.695) scale(0.16 -0.16)">
     <defs>
      <path id="DejaVuSans-2212" d="M 678 2272 
L 4684 2272 
L 4684 1741 
L 678 1741 
L 678 2272 
z
" transform="scale(0.015625)"/>
     </defs>
     <use xlink:href="#DejaVuSans-2212" transform="translate(14.594727 -15.85) scale(0.7)"/>
    </g>
   </g>
   <g id="patch_6">
    <path d="M 243.72 29.18 
C 244.436048 29.18 245.122866 28.895511 245.629188 28.389188 
C 246.135511 27.882866 246.42 27.196048 246.42 26.48 
C 246.42 25.763952 246.135511 25.077134 245.629188 24.570812 
C 245.122866 24.064489 244.436048 23.78 243.72 23.78 
C 243.003952 23.78 242.317134 24.064489 241.810812 24.570812 
C 241.304489 25.077134 241.02 25.763952 241.02 26.48 
C 241.02 27.196048 241.304489 27.882866 241.810812 28.389188 
C 242.317134 28.895511 243.003952 29.18 243.72 29.18 
z
" clip-path="url(#p280d7b6da7)" style="fill: #ffffff; stroke: #000000; stroke-width: 2; stroke-linejoin: miter"/>
   </g>
   <g id="text_10">
    <!-- $v_{out}$ -->
    <g transform="translate(229.56 16.8525) scale(0.16 -0.16)">
     <defs>
      <path id="DejaVuSans-Oblique-6f" d="M 1625 -91 
Q 1009 -91 651 289 
Q 294 669 294 1325 
Q 294 1706 417 2101 
Q 541 2497 738 2766 
Q 1047 3184 1428 3384 
Q 1809 3584 2291 3584 
Q 2888 3584 3255 3212 
Q 3622 2841 3622 2241 
Q 3622 1825 3500 1412 
Q 3378 1000 3181 728 
Q 2875 309 2494 109 
Q 2113 -91 1625 -91 
z
M 891 1344 
Q 891 869 1089 633 
Q 1288 397 1691 397 
Q 2269 397 2648 901 
Q 3028 1406 3028 2181 
Q 3028 2634 2825 2865 
Q 2622 3097 2228 3097 
Q 1903 3097 1650 2945 
Q 1397 2794 1197 2484 
Q 1050 2253 970 1956 
Q 891 1659 891 1344 
z
" transform="scale(0.015625)"/>
      <path id="DejaVuSans-Oblique-75" d="M 428 1388 
L 838 3500 
L 1416 3500 
L 1006 1409 
Q 975 1256 961 1147 
Q 947 1038 947 966 
Q 947 700 1109 554 
Q 1272 409 1569 409 
Q 2031 409 2368 721 
Q 2706 1034 2809 1563 
L 3194 3500 
L 3769 3500 
L 3091 0 
L 2516 0 
L 2631 550 
Q 2388 244 2052 76 
Q 1716 -91 1338 -91 
Q 878 -91 622 161 
Q 366 413 366 863 
Q 366 956 381 1097 
Q 397 1238 428 1388 
z
" transform="scale(0.015625)"/>
     </defs>
     <use xlink:href="#DejaVuSans-Oblique-76" transform="translate(0 0.3125)"/>
     <use xlink:href="#DejaVuSans-Oblique-6f" transform="translate(59.179688 -16.09375) scale(0.7)"/>
     <use xlink:href="#DejaVuSans-Oblique-75" transform="translate(102.006836 -16.09375) scale(0.7)"/>
     <use xlink:href="#DejaVuSans-Oblique-74" transform="translate(146.37207 -16.09375) scale(0.7)"/>
    </g>
   </g>
  </g>
 </g>
 <defs>
  <clipPath id="p280d7b6da7">
   <rect x="0" y="-0" width="471.984" height="198.2"/>
  </clipPath>
 </defs>
</svg>
