<?xml version="1.0" encoding="utf-8" standalone="no"?>
<!DOCTYPE svg PUBLIC "-//W3C//DTD SVG 1.1//EN"
  "http://www.w3.org/Graphics/SVG/1.1/DTD/svg11.dtd">
<svg xmlns:xlink="http://www.w3.org/1999/xlink" width="482.424pt" height="273.8pt" viewBox="0 0 482.424 273.8" xmlns="http://www.w3.org/2000/svg" version="1.1">
 <metadata>
  <rdf:RDF xmlns:dc="http://purl.org/dc/elements/1.1/" xmlns:cc="http://creativecommons.org/ns#" xmlns:rdf="http://www.w3.org/1999/02/22-rdf-syntax-ns#">
   <cc:Work>
    <dc:type rdf:resource="http://purl.org/dc/dcmitype/StillImage"/>
    <dc:date>2025-03-25T17:47:24.117122</dc:date>
    <dc:format>image/svg+xml</dc:format>
    <dc:creator>
     <cc:Agent>
      <dc:title>Matplotlib v3.9.2, https://matplotlib.org/</dc:title>
     </cc:Agent>
    </dc:creator>
   </cc:Work>
  </rdf:RDF>
 </metadata>
 <defs>
  <style type="text/css">*{stroke-linejoin: round; stroke-linecap: butt}</style>
 </defs>
 <g id="figure_1">
  <g id="patch_1">
   <path d="M 0 273.8 
L 482.424 273.8 
L 482.424 0 
L 0 0 
z
" style="fill: #ffffff"/>
  </g>
  <g id="axes_1">
   <g id="patch_2">
    <path d="M 333.72 84.08 
C 338.493656 84.08 343.072438 82.183406 346.447922 78.807922 
C 349.823406 75.432438 351.72 70.853656 351.72 66.08 
C 351.72 61.306344 349.823406 56.727562 346.447922 53.352078 
C 343.072438 49.976594 338.493656 48.08 333.72 48.08 
C 328.946344 48.08 324.367562 49.976594 320.992078 53.352078 
C 317.616594 56.727562 315.72 61.306344 315.72 66.08 
C 315.72 70.853656 317.616594 75.432438 320.992078 78.807922 
C 324.367562 82.183406 328.946344 84.08 333.72 84.08 
L 333.72 84.08 
z
" clip-path="url(#p5e42566970)" style="fill: none; stroke: #000000; stroke-width: 2; stroke-linejoin: miter"/>
   </g>
   <g id="line2d_1">
    <path d="M 27.72 30.08 
L 13.32 30.08 
L 13.32 21.08 
L 13.32 39.08 
M 9 23.78 
L 9 36.38 
M 4.68 28.28 
L 4.68 31.88 
" clip-path="url(#p5e42566970)" style="fill: none; stroke: #000000; stroke-width: 2; stroke-linecap: round"/>
   </g>
   <g id="line2d_2">
    <path d="M 27.72 30.08 
L 36.72 30.08 
L 45.72 30.08 
" clip-path="url(#p5e42566970)" style="fill: none; stroke: #000000; stroke-width: 2; stroke-linecap: round"/>
   </g>
   <g id="line2d_3">
    <path d="M 45.72 30.08 
L 54.72 30.08 
L 63.72 30.08 
" clip-path="url(#p5e42566970)" style="fill: none; stroke: #000000; stroke-width: 2; stroke-linecap: round"/>
   </g>
   <g id="line2d_4">
    <path d="M 63.72 30.08 
L 72.72 30.08 
L 81.72 30.08 
" clip-path="url(#p5e42566970)" style="fill: none; stroke: #000000; stroke-width: 2; stroke-linecap: round"/>
   </g>
   <g id="line2d_5">
    <path d="M 81.72 30.08 
L 81.72 48.08 
L 90.72 51.08 
L 72.72 57.08 
L 90.72 63.08 
L 72.72 69.08 
L 90.72 75.08 
L 72.72 81.08 
L 81.72 84.08 
L 81.72 102.08 
" clip-path="url(#p5e42566970)" style="fill: none; stroke: #000000; stroke-width: 2; stroke-linecap: round"/>
   </g>
   <g id="line2d_6">
    <path d="M 81.72 102.08 
L 72.72 102.08 
L 63.72 102.08 
" clip-path="url(#p5e42566970)" style="fill: none; stroke: #000000; stroke-width: 2; stroke-linecap: round"/>
   </g>
   <g id="line2d_7">
    <path d="M 63.72 102.08 
L 54.72 102.08 
L 45.72 102.08 
" clip-path="url(#p5e42566970)" style="fill: none; stroke: #000000; stroke-width: 2; stroke-linecap: round"/>
   </g>
   <g id="line2d_8">
    <path d="M 45.72 102.08 
L 45.72 138.08 
L 45.72 174.08 
" clip-path="url(#p5e42566970)" style="fill: none; stroke: #000000; stroke-width: 2; stroke-linecap: round"/>
   </g>
   <g id="line2d_9">
    <path d="M 45.72 174.08 
L 45.72 192.08 
L 54.72 195.08 
L 36.72 201.08 
L 54.72 207.08 
L 36.72 213.08 
L 54.72 219.08 
L 36.72 225.08 
L 45.72 228.08 
L 45.72 246.08 
" clip-path="url(#p5e42566970)" style="fill: none; stroke: #000000; stroke-width: 2; stroke-linecap: round"/>
   </g>
   <g id="line2d_10">
    <path d="M 45.72 246.08 
L 45.72 260.48 
L 36.72 260.48 
L 54.72 260.48 
M 39.42 264.8 
L 52.02 264.8 
M 43.92 269.12 
L 47.52 269.12 
" clip-path="url(#p5e42566970)" style="fill: none; stroke: #000000; stroke-width: 2; stroke-linecap: round"/>
   </g>
   <g id="line2d_11">
    <path d="M 45.72 174.08 
L 117.72 174.08 
L 189.72 174.08 
" clip-path="url(#p5e42566970)" style="fill: none; stroke: #000000; stroke-width: 2; stroke-linecap: round"/>
   </g>
   <g id="line2d_12">
    <path d="M 189.72 174.08 
L 207.72 174.08 
L 210.72 165.08 
L 216.72 183.08 
L 222.72 165.08 
L 228.72 183.08 
L 234.72 165.08 
L 240.72 183.08 
L 243.72 174.08 
L 261.72 174.08 
" clip-path="url(#p5e42566970)" style="fill: none; stroke: #000000; stroke-width: 2; stroke-linecap: round"/>
   </g>
   <g id="line2d_13">
    <path d="M 261.72 174.08 
L 333.72 174.08 
L 405.72 174.08 
" clip-path="url(#p5e42566970)" style="fill: none; stroke: #000000; stroke-width: 2; stroke-linecap: round"/>
   </g>
   <g id="line2d_14">
    <path d="M 405.72 174.08 
L 405.72 102.08 
L 405.72 30.08 
" clip-path="url(#p5e42566970)" style="fill: none; stroke: #000000; stroke-width: 2; stroke-linecap: round"/>
   </g>
   <g id="line2d_15">
    <path d="M 405.72 30.08 
L 387.72 30.08 
L 384.72 39.08 
L 378.72 21.08 
L 372.72 39.08 
L 366.72 21.08 
L 360.72 39.08 
L 354.72 21.08 
L 351.72 30.08 
L 333.72 30.08 
" clip-path="url(#p5e42566970)" style="fill: none; stroke: #000000; stroke-width: 2; stroke-linecap: round"/>
   </g>
   <g id="line2d_16">
    <path d="M 333.72 30.08 
L 333.72 48.08 
L 333.72 48.08 
M 333.72 84.08 
L 333.72 84.08 
L 333.72 102.08 
" clip-path="url(#p5e42566970)" style="fill: none; stroke: #000000; stroke-width: 2; stroke-linecap: round"/>
   </g>
   <g id="line2d_17">
    <path d="M 337.32 75.08 
L 330.12 75.08 
" clip-path="url(#p5e42566970)" style="fill: none; stroke: #000000; stroke-width: 2; stroke-linecap: round"/>
   </g>
   <g id="line2d_18">
    <path d="M 333.72 53.48 
L 333.72 60.68 
" clip-path="url(#p5e42566970)" style="fill: none; stroke: #000000; stroke-width: 2; stroke-linecap: round"/>
   </g>
   <g id="line2d_19">
    <path d="M 337.32 57.08 
L 330.12 57.08 
" clip-path="url(#p5e42566970)" style="fill: none; stroke: #000000; stroke-width: 2; stroke-linecap: round"/>
   </g>
   <g id="line2d_20">
    <path d="M 333.72 102.08 
L 333.72 116.48 
L 324.72 116.48 
L 342.72 116.48 
M 327.42 120.8 
L 340.02 120.8 
M 331.92 125.12 
L 335.52 125.12 
" clip-path="url(#p5e42566970)" style="fill: none; stroke: #000000; stroke-width: 2; stroke-linecap: round"/>
   </g>
   <g id="line2d_21">
    <path d="M 189.72 102.08 
L 189.72 116.48 
L 180.72 116.48 
L 198.72 116.48 
M 183.42 120.8 
L 196.02 120.8 
M 187.92 125.12 
L 191.52 125.12 
" clip-path="url(#p5e42566970)" style="fill: none; stroke: #000000; stroke-width: 2; stroke-linecap: round"/>
   </g>
   <g id="line2d_22">
    <path d="M 189.72 102.08 
L 189.72 84.08 
L 171.72 66.08 
L 189.72 48.08 
L 207.72 66.08 
L 189.72 84.08 
M 189.72 48.08 
L 189.72 30.08 
" clip-path="url(#p5e42566970)" style="fill: none; stroke: #000000; stroke-width: 2; stroke-linecap: round"/>
   </g>
   <g id="line2d_23">
    <path d="M 193.32 75.08 
L 186.12 75.08 
" clip-path="url(#p5e42566970)" style="fill: none; stroke: #000000; stroke-width: 2; stroke-linecap: round"/>
   </g>
   <g id="line2d_24">
    <path d="M 189.72 60.68 
L 189.72 53.48 
" clip-path="url(#p5e42566970)" style="fill: none; stroke: #000000; stroke-width: 2; stroke-linecap: round"/>
   </g>
   <g id="line2d_25">
    <path d="M 193.32 57.08 
L 186.12 57.08 
" clip-path="url(#p5e42566970)" style="fill: none; stroke: #000000; stroke-width: 2; stroke-linecap: round"/>
   </g>
   <g id="line2d_26">
    <path d="M 189.72 30.08 
L 198.72 30.08 
L 207.72 30.08 
" clip-path="url(#p5e42566970)" style="fill: none; stroke: #000000; stroke-width: 2; stroke-linecap: round"/>
   </g>
   <g id="line2d_27">
    <path d="M 405.72 30.08 
L 423.72 30.08 
L 441.72 30.08 
" clip-path="url(#p5e42566970)" style="fill: none; stroke: #000000; stroke-width: 2; stroke-linecap: round"/>
   </g>
   <g id="line2d_28">
    <path d="M 441.72 30.08 
L 441.72 48.08 
L 450.72 51.08 
L 432.72 57.08 
L 450.72 63.08 
L 432.72 69.08 
L 450.72 75.08 
L 432.72 81.08 
L 441.72 84.08 
L 441.72 102.08 
" clip-path="url(#p5e42566970)" style="fill: none; stroke: #000000; stroke-width: 2; stroke-linecap: round"/>
   </g>
   <g id="line2d_29">
    <path d="M 441.72 102.08 
L 441.72 116.48 
L 432.72 116.48 
L 450.72 116.48 
M 435.42 120.8 
L 448.02 120.8 
M 439.92 125.12 
L 443.52 125.12 
" clip-path="url(#p5e42566970)" style="fill: none; stroke: #000000; stroke-width: 2; stroke-linecap: round"/>
   </g>
   <g id="patch_3">
    <path d="M 45.72 32.78 
C 46.436048 32.78 47.122866 32.495511 47.629188 31.989188 
C 48.135511 31.482866 48.42 30.796048 48.42 30.08 
C 48.42 29.363952 48.135511 28.677134 47.629188 28.170812 
C 47.122866 27.664489 46.436048 27.38 45.72 27.38 
C 45.003952 27.38 44.317134 27.664489 43.810812 28.170812 
C 43.304489 28.677134 43.02 29.363952 43.02 30.08 
C 43.02 30.796048 43.304489 31.482866 43.810812 31.989188 
C 44.317134 32.495511 45.003952 32.78 45.72 32.78 
z
" clip-path="url(#p5e42566970)" style="fill: #ffffff; stroke: #000000; stroke-width: 2; stroke-linejoin: miter"/>
   </g>
   <g id="text_1">
    <!-- $v_p$ -->
    <g transform="translate(36.71 47.62) scale(0.16 -0.16)">
     <defs>
      <path id="DejaVuSans-Oblique-76" d="M 459 3500 
L 1069 3500 
L 1581 525 
L 3256 3500 
L 3866 3500 
L 1875 0 
L 1100 0 
L 459 3500 
z
" transform="scale(0.015625)"/>
      <path id="DejaVuSans-Oblique-70" d="M 3175 2156 
Q 3175 2616 2975 2859 
Q 2775 3103 2400 3103 
Q 2144 3103 1911 2972 
Q 1678 2841 1497 2591 
Q 1319 2344 1212 1994 
Q 1106 1644 1106 1300 
Q 1106 863 1306 627 
Q 1506 391 1875 391 
Q 2147 391 2380 519 
Q 2613 647 2778 891 
Q 2956 1147 3065 1494 
Q 3175 1841 3175 2156 
z
M 1394 2969 
Q 1625 3272 1939 3428 
Q 2253 3584 2638 3584 
Q 3175 3584 3472 3232 
Q 3769 2881 3769 2247 
Q 3769 1728 3584 1258 
Q 3400 788 3053 416 
Q 2822 169 2531 39 
Q 2241 -91 1919 -91 
Q 1547 -91 1294 64 
Q 1041 219 916 525 
L 556 -1331 
L -19 -1331 
L 922 3500 
L 1497 3500 
L 1394 2969 
z
" transform="scale(0.015625)"/>
     </defs>
     <use xlink:href="#DejaVuSans-Oblique-76" transform="translate(0 0.3125)"/>
     <use xlink:href="#DejaVuSans-Oblique-70" transform="translate(59.179688 -16.09375) scale(0.7)"/>
    </g>
   </g>
   <g id="text_2">
    <!-- $+$ -->
    <g transform="translate(73.2 23.1525) scale(0.16 -0.16)">
     <defs>
      <path id="DejaVuSans-2b" d="M 2944 4013 
L 2944 2272 
L 4684 2272 
L 4684 1741 
L 2944 1741 
L 2944 0 
L 2419 0 
L 2419 1741 
L 678 1741 
L 678 2272 
L 2419 2272 
L 2419 4013 
L 2944 4013 
z
" transform="scale(0.015625)"/>
     </defs>
     <use xlink:href="#DejaVuSans-2b" transform="translate(0 0.296875)"/>
    </g>
   </g>
   <g id="text_3">
    <!-- $r_i$ -->
    <g transform="translate(94.32 70.495) scale(0.16 -0.16)">
     <defs>
      <path id="DejaVuSans-Oblique-72" d="M 2853 2969 
Q 2766 3016 2653 3041 
Q 2541 3066 2413 3066 
Q 1953 3066 1609 2717 
Q 1266 2369 1153 1784 
L 800 0 
L 225 0 
L 909 3500 
L 1484 3500 
L 1375 2956 
Q 1603 3259 1920 3421 
Q 2238 3584 2597 3584 
Q 2691 3584 2781 3573 
Q 2872 3563 2963 3538 
L 2853 2969 
z
" transform="scale(0.015625)"/>
      <path id="DejaVuSans-Oblique-69" d="M 1172 4863 
L 1747 4863 
L 1606 4134 
L 1031 4134 
L 1172 4863 
z
M 909 3500 
L 1484 3500 
L 800 0 
L 225 0 
L 909 3500 
z
" transform="scale(0.015625)"/>
     </defs>
     <use xlink:href="#DejaVuSans-Oblique-72"/>
     <use xlink:href="#DejaVuSans-Oblique-69" transform="translate(41.113281 -16.40625) scale(0.7)"/>
    </g>
   </g>
   <g id="text_4">
    <!-- $-$ -->
    <g transform="translate(73.2 117.8375) scale(0.16 -0.16)">
     <defs>
      <path id="DejaVuSans-2212" d="M 678 2272 
L 4684 2272 
L 4684 1741 
L 678 1741 
L 678 2272 
z
" transform="scale(0.015625)"/>
     </defs>
     <use xlink:href="#DejaVuSans-2212" transform="translate(0 0.5)"/>
    </g>
   </g>
   <g id="patch_4">
    <path d="M 45.72 104.78 
C 46.436048 104.78 47.122866 104.495511 47.629188 103.989188 
C 48.135511 103.482866 48.42 102.796048 48.42 102.08 
C 48.42 101.363952 48.135511 100.677134 47.629188 100.170812 
C 47.122866 99.664489 46.436048 99.38 45.72 99.38 
C 45.003952 99.38 44.317134 99.664489 43.810812 100.170812 
C 43.304489 100.677134 43.02 101.363952 43.02 102.08 
C 43.02 102.796048 43.304489 103.482866 43.810812 103.989188 
C 44.317134 104.495511 45.003952 104.78 45.72 104.78 
z
" clip-path="url(#p5e42566970)" style="fill: #ffffff; stroke: #000000; stroke-width: 2; stroke-linejoin: miter"/>
   </g>
   <g id="text_5">
    <!-- $v_n$ -->
    <g transform="translate(37.61 92.4525) scale(0.16 -0.16)">
     <defs>
      <path id="DejaVuSans-Oblique-6e" d="M 3566 2113 
L 3156 0 
L 2578 0 
L 2988 2091 
Q 3016 2238 3031 2350 
Q 3047 2463 3047 2528 
Q 3047 2791 2881 2937 
Q 2716 3084 2419 3084 
Q 1956 3084 1622 2776 
Q 1288 2469 1184 1941 
L 800 0 
L 225 0 
L 903 3500 
L 1478 3500 
L 1363 2950 
Q 1603 3253 1940 3418 
Q 2278 3584 2650 3584 
Q 3113 3584 3367 3334 
Q 3622 3084 3622 2631 
Q 3622 2519 3608 2391 
Q 3594 2263 3566 2113 
z
" transform="scale(0.015625)"/>
     </defs>
     <use xlink:href="#DejaVuSans-Oblique-76" transform="translate(0 0.3125)"/>
     <use xlink:href="#DejaVuSans-Oblique-6e" transform="translate(59.179688 -16.09375) scale(0.7)"/>
    </g>
   </g>
   <g id="patch_5">
    <path d="M 45.72 176.78 
C 46.436048 176.78 47.122866 176.495511 47.629188 175.989188 
C 48.135511 175.482866 48.42 174.796048 48.42 174.08 
C 48.42 173.363952 48.135511 172.677134 47.629188 172.170812 
C 47.122866 171.664489 46.436048 171.38 45.72 171.38 
C 45.003952 171.38 44.317134 171.664489 43.810812 172.170812 
C 43.304489 172.677134 43.02 173.363952 43.02 174.08 
C 43.02 174.796048 43.304489 175.482866 43.810812 175.989188 
C 44.317134 176.495511 45.003952 176.78 45.72 176.78 
z
" clip-path="url(#p5e42566970)" style="stroke: #000000; stroke-width: 2; stroke-linejoin: miter"/>
   </g>
   <g id="text_6">
    <!-- $R_1$ -->
    <g transform="translate(14.4 214.495) scale(0.16 -0.16)">
     <defs>
      <path id="DejaVuSans-Oblique-52" d="M 1613 4147 
L 1294 2491 
L 2106 2491 
Q 2584 2491 2879 2755 
Q 3175 3019 3175 3444 
Q 3175 3784 2976 3965 
Q 2778 4147 2406 4147 
L 1613 4147 
z
M 2772 2241 
Q 2972 2194 3105 2009 
Q 3238 1825 3413 1275 
L 3809 0 
L 3144 0 
L 2778 1197 
Q 2638 1659 2453 1815 
Q 2269 1972 1888 1972 
L 1191 1972 
L 806 0 
L 172 0 
L 1081 4666 
L 2503 4666 
Q 3150 4666 3495 4373 
Q 3841 4081 3841 3531 
Q 3841 3044 3547 2687 
Q 3253 2331 2772 2241 
z
" transform="scale(0.015625)"/>
      <path id="DejaVuSans-31" d="M 794 531 
L 1825 531 
L 1825 4091 
L 703 3866 
L 703 4441 
L 1819 4666 
L 2450 4666 
L 2450 531 
L 3481 531 
L 3481 0 
L 794 0 
L 794 531 
z
" transform="scale(0.015625)"/>
     </defs>
     <use xlink:href="#DejaVuSans-Oblique-52" transform="translate(0 0.09375)"/>
     <use xlink:href="#DejaVuSans-31" transform="translate(69.482422 -16.3125) scale(0.7)"/>
    </g>
   </g>
   <g id="text_7">
    <!-- $R_2$ -->
    <g transform="translate(216.36 158.1525) scale(0.16 -0.16)">
     <defs>
      <path id="DejaVuSans-32" d="M 1228 531 
L 3431 531 
L 3431 0 
L 469 0 
L 469 531 
Q 828 903 1448 1529 
Q 2069 2156 2228 2338 
Q 2531 2678 2651 2914 
Q 2772 3150 2772 3378 
Q 2772 3750 2511 3984 
Q 2250 4219 1831 4219 
Q 1534 4219 1204 4116 
Q 875 4013 500 3803 
L 500 4441 
Q 881 4594 1212 4672 
Q 1544 4750 1819 4750 
Q 2544 4750 2975 4387 
Q 3406 4025 3406 3419 
Q 3406 3131 3298 2873 
Q 3191 2616 2906 2266 
Q 2828 2175 2409 1742 
Q 1991 1309 1228 531 
z
" transform="scale(0.015625)"/>
     </defs>
     <use xlink:href="#DejaVuSans-Oblique-52" transform="translate(0 0.09375)"/>
     <use xlink:href="#DejaVuSans-32" transform="translate(69.482422 -16.3125) scale(0.7)"/>
    </g>
   </g>
   <g id="patch_6">
    <path d="M 405.72 32.78 
C 406.436048 32.78 407.122866 32.495511 407.629188 31.989188 
C 408.135511 31.482866 408.42 30.796048 408.42 30.08 
C 408.42 29.363952 408.135511 28.677134 407.629188 28.170812 
C 407.122866 27.664489 406.436048 27.38 405.72 27.38 
C 405.003952 27.38 404.317134 27.664489 403.810812 28.170812 
C 403.304489 28.677134 403.02 29.363952 403.02 30.08 
C 403.02 30.796048 403.304489 31.482866 403.810812 31.989188 
C 404.317134 32.495511 405.003952 32.78 405.72 32.78 
z
" clip-path="url(#p5e42566970)" style="stroke: #000000; stroke-width: 2; stroke-linejoin: miter"/>
   </g>
   <g id="text_8">
    <!-- $r_o$ -->
    <g transform="translate(362.76 14.1525) scale(0.16 -0.16)">
     <defs>
      <path id="DejaVuSans-Oblique-6f" d="M 1625 -91 
Q 1009 -91 651 289 
Q 294 669 294 1325 
Q 294 1706 417 2101 
Q 541 2497 738 2766 
Q 1047 3184 1428 3384 
Q 1809 3584 2291 3584 
Q 2888 3584 3255 3212 
Q 3622 2841 3622 2241 
Q 3622 1825 3500 1412 
Q 3378 1000 3181 728 
Q 2875 309 2494 109 
Q 2113 -91 1625 -91 
z
M 891 1344 
Q 891 869 1089 633 
Q 1288 397 1691 397 
Q 2269 397 2648 901 
Q 3028 1406 3028 2181 
Q 3028 2634 2825 2865 
Q 2622 3097 2228 3097 
Q 1903 3097 1650 2945 
Q 1397 2794 1197 2484 
Q 1050 2253 970 1956 
Q 891 1659 891 1344 
z
" transform="scale(0.015625)"/>
     </defs>
     <use xlink:href="#DejaVuSans-Oblique-72"/>
     <use xlink:href="#DejaVuSans-Oblique-6f" transform="translate(41.113281 -16.40625) scale(0.7)"/>
    </g>
   </g>
   <g id="text_9">
    <!-- $v_{t}$ -->
    <g transform="translate(355.32 70.495) scale(0.16 -0.16)">
     <defs>
      <path id="DejaVuSans-Oblique-74" d="M 2706 3500 
L 2619 3053 
L 1472 3053 
L 1100 1153 
Q 1081 1047 1072 975 
Q 1063 903 1063 863 
Q 1063 663 1183 572 
Q 1303 481 1569 481 
L 2150 481 
L 2053 0 
L 1503 0 
Q 991 0 739 200 
Q 488 400 488 806 
Q 488 878 497 964 
Q 506 1050 525 1153 
L 897 3053 
L 409 3053 
L 500 3500 
L 978 3500 
L 1172 4494 
L 1747 4494 
L 1556 3500 
L 2706 3500 
z
" transform="scale(0.015625)"/>
     </defs>
     <use xlink:href="#DejaVuSans-Oblique-76" transform="translate(0 0.3125)"/>
     <use xlink:href="#DejaVuSans-Oblique-74" transform="translate(59.179688 -16.09375) scale(0.7)"/>
    </g>
   </g>
   <g id="text_10">
    <!-- $a_v \cdot (v_p-v_n)$ -->
    <g transform="translate(211.32 69.68) scale(0.16 -0.16)">
     <defs>
      <path id="DejaVuSans-Oblique-61" d="M 3438 1997 
L 3047 0 
L 2472 0 
L 2578 531 
Q 2325 219 2001 64 
Q 1678 -91 1281 -91 
Q 834 -91 548 182 
Q 263 456 263 884 
Q 263 1497 752 1853 
Q 1241 2209 2100 2209 
L 2900 2209 
L 2931 2363 
Q 2938 2388 2941 2417 
Q 2944 2447 2944 2509 
Q 2944 2788 2717 2942 
Q 2491 3097 2081 3097 
Q 1800 3097 1504 3025 
Q 1209 2953 897 2809 
L 997 3341 
Q 1322 3463 1633 3523 
Q 1944 3584 2234 3584 
Q 2853 3584 3176 3315 
Q 3500 3047 3500 2534 
Q 3500 2431 3484 2292 
Q 3469 2153 3438 1997 
z
M 2816 1759 
L 2241 1759 
Q 1534 1759 1195 1570 
Q 856 1381 856 984 
Q 856 709 1029 553 
Q 1203 397 1509 397 
Q 1978 397 2328 733 
Q 2678 1069 2791 1631 
L 2816 1759 
z
" transform="scale(0.015625)"/>
      <path id="DejaVuSans-22c5" d="M 684 2619 
L 1344 2619 
L 1344 1825 
L 684 1825 
L 684 2619 
z
" transform="scale(0.015625)"/>
      <path id="DejaVuSans-28" d="M 1984 4856 
Q 1566 4138 1362 3434 
Q 1159 2731 1159 2009 
Q 1159 1288 1364 580 
Q 1569 -128 1984 -844 
L 1484 -844 
Q 1016 -109 783 600 
Q 550 1309 550 2009 
Q 550 2706 781 3412 
Q 1013 4119 1484 4856 
L 1984 4856 
z
" transform="scale(0.015625)"/>
      <path id="DejaVuSans-29" d="M 513 4856 
L 1013 4856 
Q 1481 4119 1714 3412 
Q 1947 2706 1947 2009 
Q 1947 1309 1714 600 
Q 1481 -109 1013 -844 
L 513 -844 
Q 928 -128 1133 580 
Q 1338 1288 1338 2009 
Q 1338 2731 1133 3434 
Q 928 4138 513 4856 
z
" transform="scale(0.015625)"/>
     </defs>
     <use xlink:href="#DejaVuSans-Oblique-61" transform="translate(0 0.125)"/>
     <use xlink:href="#DejaVuSans-Oblique-76" transform="translate(61.279297 -16.28125) scale(0.7)"/>
     <use xlink:href="#DejaVuSans-22c5" transform="translate(124.921875 0.125)"/>
     <use xlink:href="#DejaVuSans-28" transform="translate(176.191406 0.125)"/>
     <use xlink:href="#DejaVuSans-Oblique-76" transform="translate(215.205078 0.125)"/>
     <use xlink:href="#DejaVuSans-Oblique-70" transform="translate(274.384766 -16.28125) scale(0.7)"/>
     <use xlink:href="#DejaVuSans-2212" transform="translate(341.035156 0.125)"/>
     <use xlink:href="#DejaVuSans-Oblique-76" transform="translate(444.306641 0.125)"/>
     <use xlink:href="#DejaVuSans-Oblique-6e" transform="translate(503.486328 -16.28125) scale(0.7)"/>
     <use xlink:href="#DejaVuSans-29" transform="translate(550.585938 0.125)"/>
    </g>
   </g>
   <g id="patch_7">
    <path d="M 207.72 32.78 
C 208.436048 32.78 209.122866 32.495511 209.629188 31.989188 
C 210.135511 31.482866 210.42 30.796048 210.42 30.08 
C 210.42 29.363952 210.135511 28.677134 209.629188 28.170812 
C 209.122866 27.664489 208.436048 27.38 207.72 27.38 
C 207.003952 27.38 206.317134 27.664489 205.810812 28.170812 
C 205.304489 28.677134 205.02 29.363952 205.02 30.08 
C 205.02 30.796048 205.304489 31.482866 205.810812 31.989188 
C 206.317134 32.495511 207.003952 32.78 207.72 32.78 
z
" clip-path="url(#p5e42566970)" style="fill: #ffffff; stroke: #000000; stroke-width: 2; stroke-linejoin: miter"/>
   </g>
   <g id="text_11">
    <!-- $v_r$ -->
    <g transform="translate(192.79 20.4525) scale(0.16 -0.16)">
     <use xlink:href="#DejaVuSans-Oblique-76" transform="translate(0 0.3125)"/>
     <use xlink:href="#DejaVuSans-Oblique-72" transform="translate(59.179688 -16.09375) scale(0.7)"/>
    </g>
   </g>
   <g id="text_12">
    <!-- $R_L$ -->
    <g transform="translate(454.32 70.495) scale(0.16 -0.16)">
     <defs>
      <path id="DejaVuSans-Oblique-4c" d="M 1075 4666 
L 1709 4666 
L 909 525 
L 3181 525 
L 3078 0 
L 172 0 
L 1075 4666 
z
" transform="scale(0.015625)"/>
     </defs>
     <use xlink:href="#DejaVuSans-Oblique-52" transform="translate(0 0.09375)"/>
     <use xlink:href="#DejaVuSans-Oblique-4c" transform="translate(69.482422 -16.3125) scale(0.7)"/>
    </g>
   </g>
  </g>
 </g>
 <defs>
  <clipPath id="p5e42566970">
   <rect x="0" y="0" width="482.424" height="273.8"/>
  </clipPath>
 </defs>
</svg>
