<?xml version="1.0" encoding="utf-8" standalone="no"?>
<!DOCTYPE svg PUBLIC "-//W3C//DTD SVG 1.1//EN"
  "http://www.w3.org/Graphics/SVG/1.1/DTD/svg11.dtd">
<svg xmlns:xlink="http://www.w3.org/1999/xlink" width="407.796pt" height="165.8pt" viewBox="0 0 407.796 165.8" xmlns="http://www.w3.org/2000/svg" version="1.1">
 <metadata>
  <rdf:RDF xmlns:dc="http://purl.org/dc/elements/1.1/" xmlns:cc="http://creativecommons.org/ns#" xmlns:rdf="http://www.w3.org/1999/02/22-rdf-syntax-ns#">
   <cc:Work>
    <dc:type rdf:resource="http://purl.org/dc/dcmitype/StillImage"/>
    <dc:date>2025-03-25T17:47:22.983822</dc:date>
    <dc:format>image/svg+xml</dc:format>
    <dc:creator>
     <cc:Agent>
      <dc:title>Matplotlib v3.9.2, https://matplotlib.org/</dc:title>
     </cc:Agent>
    </dc:creator>
   </cc:Work>
  </rdf:RDF>
 </metadata>
 <defs>
  <style type="text/css">*{stroke-linejoin: round; stroke-linecap: butt}</style>
 </defs>
 <g id="figure_1">
  <g id="patch_1">
   <path d="M 0 165.8 
L 407.796 165.8 
L 407.796 0 
L 0 0 
z
" style="fill: #ffffff"/>
  </g>
  <g id="axes_1">
   <g id="line2d_1">
    <path d="M 35.364 66.08 
L 53.364 66.08 
L 71.364 66.08 
" clip-path="url(#p1f642f271e)" style="fill: none; stroke: #000000; stroke-width: 2; stroke-linecap: round"/>
   </g>
   <g id="line2d_2">
    <path d="M 71.364 66.08 
L 89.364 66.08 
L 92.364 57.08 
L 98.364 75.08 
L 104.364 57.08 
L 110.364 75.08 
L 116.364 57.08 
L 122.364 75.08 
L 125.364 66.08 
L 143.364 66.08 
" clip-path="url(#p1f642f271e)" style="fill: none; stroke: #000000; stroke-width: 2; stroke-linecap: round"/>
   </g>
   <g id="line2d_3">
    <path d="M 143.364 66.08 
L 161.364 66.08 
L 179.364 66.08 
" clip-path="url(#p1f642f271e)" style="fill: none; stroke: #000000; stroke-width: 2; stroke-linecap: round"/>
   </g>
   <g id="line2d_4">
    <path d="M 179.364 138.08 
L 107.364 138.08 
L 35.364 138.08 
" clip-path="url(#p1f642f271e)" style="fill: none; stroke: #000000; stroke-width: 2; stroke-linecap: round"/>
   </g>
   <g id="line2d_5">
    <path d="M 179.364 138.08 
L 215.364 138.08 
L 251.364 138.08 
" clip-path="url(#p1f642f271e)" style="fill: none; stroke: #000000; stroke-width: 2; stroke-linecap: round"/>
   </g>
   <g id="line2d_6">
    <path d="M 251.364 138.08 
L 251.364 152.48 
L 242.364 152.48 
L 260.364 152.48 
M 245.064 156.8 
L 257.664 156.8 
M 249.564 161.12 
L 253.164 161.12 
" clip-path="url(#p1f642f271e)" style="fill: none; stroke: #000000; stroke-width: 2; stroke-linecap: round"/>
   </g>
   <g id="line2d_7">
    <path d="M 251.364 138.08 
L 251.364 120.08 
M 251.364 84.08 
L 269.364 102.08 
L 251.364 120.08 
L 233.364 102.08 
L 251.364 84.08 
L 251.364 66.08 
" clip-path="url(#p1f642f271e)" style="fill: none; stroke: #000000; stroke-width: 2; stroke-linecap: round"/>
   </g>
   <g id="line2d_8">
    <path d="M 251.364 102.08 
L 251.364 93.08 
" clip-path="url(#p1f642f271e)" style="fill: none; stroke: #000000; stroke-width: 2; stroke-linecap: round"/>
   </g>
   <g id="patch_2">
    <path d="M 254.064 102.08 
L 251.364 111.08 
L 248.664 102.08 
z
" clip-path="url(#p1f642f271e)"/>
   </g>
   <g id="line2d_9">
    <path d="M 251.364 66.08 
L 269.364 66.08 
L 287.364 66.08 
" clip-path="url(#p1f642f271e)" style="fill: none; stroke: #000000; stroke-width: 2; stroke-linecap: round"/>
   </g>
   <g id="line2d_10">
    <path d="M 287.364 66.08 
L 287.364 48.08 
L 287.364 30.08 
" clip-path="url(#p1f642f271e)" style="fill: none; stroke: #000000; stroke-width: 2; stroke-linecap: round"/>
   </g>
   <g id="line2d_11">
    <path d="M 287.364 30.08 
L 269.364 30.08 
L 251.364 30.08 
" clip-path="url(#p1f642f271e)" style="fill: none; stroke: #000000; stroke-width: 2; stroke-linecap: round"/>
   </g>
   <g id="line2d_12">
    <path d="M 251.364 30.08 
L 233.364 30.08 
L 230.364 39.08 
L 224.364 21.08 
L 218.364 39.08 
L 212.364 21.08 
L 206.364 39.08 
L 200.364 21.08 
L 197.364 30.08 
L 179.364 30.08 
" clip-path="url(#p1f642f271e)" style="fill: none; stroke: #000000; stroke-width: 2; stroke-linecap: round"/>
   </g>
   <g id="line2d_13">
    <path d="M 179.364 30.08 
L 161.364 30.08 
L 143.364 30.08 
" clip-path="url(#p1f642f271e)" style="fill: none; stroke: #000000; stroke-width: 2; stroke-linecap: round"/>
   </g>
   <g id="line2d_14">
    <path d="M 143.364 30.08 
L 143.364 48.08 
L 143.364 66.08 
" clip-path="url(#p1f642f271e)" style="fill: none; stroke: #000000; stroke-width: 2; stroke-linecap: round"/>
   </g>
   <g id="line2d_15">
    <path d="M 287.364 66.08 
L 323.364 66.08 
L 359.364 66.08 
" clip-path="url(#p1f642f271e)" style="fill: none; stroke: #000000; stroke-width: 2; stroke-linecap: round"/>
   </g>
   <g id="line2d_16">
    <path d="M 251.364 138.08 
L 305.364 138.08 
L 359.364 138.08 
" clip-path="url(#p1f642f271e)" style="fill: none; stroke: #000000; stroke-width: 2; stroke-linecap: round"/>
   </g>
   <g id="text_1">
    <!-- $R_1$ -->
    <g transform="translate(98.004 50.1525) scale(0.16 -0.16)">
     <defs>
      <path id="DejaVuSans-Oblique-52" d="M 1613 4147 
L 1294 2491 
L 2106 2491 
Q 2584 2491 2879 2755 
Q 3175 3019 3175 3444 
Q 3175 3784 2976 3965 
Q 2778 4147 2406 4147 
L 1613 4147 
z
M 2772 2241 
Q 2972 2194 3105 2009 
Q 3238 1825 3413 1275 
L 3809 0 
L 3144 0 
L 2778 1197 
Q 2638 1659 2453 1815 
Q 2269 1972 1888 1972 
L 1191 1972 
L 806 0 
L 172 0 
L 1081 4666 
L 2503 4666 
Q 3150 4666 3495 4373 
Q 3841 4081 3841 3531 
Q 3841 3044 3547 2687 
Q 3253 2331 2772 2241 
z
" transform="scale(0.015625)"/>
      <path id="DejaVuSans-31" d="M 794 531 
L 1825 531 
L 1825 4091 
L 703 3866 
L 703 4441 
L 1819 4666 
L 2450 4666 
L 2450 531 
L 3481 531 
L 3481 0 
L 794 0 
L 794 531 
z
" transform="scale(0.015625)"/>
     </defs>
     <use xlink:href="#DejaVuSans-Oblique-52" transform="translate(0 0.09375)"/>
     <use xlink:href="#DejaVuSans-31" transform="translate(69.482422 -16.3125) scale(0.7)"/>
    </g>
   </g>
   <g id="text_2">
    <!-- $v_{gs} = 0$ -->
    <g transform="translate(152.964 105.6) scale(0.16 -0.16)">
     <defs>
      <path id="DejaVuSans-Oblique-76" d="M 459 3500 
L 1069 3500 
L 1581 525 
L 3256 3500 
L 3866 3500 
L 1875 0 
L 1100 0 
L 459 3500 
z
" transform="scale(0.015625)"/>
      <path id="DejaVuSans-Oblique-67" d="M 3816 3500 
L 3219 434 
Q 3047 -456 2561 -893 
Q 2075 -1331 1253 -1331 
Q 950 -1331 690 -1286 
Q 431 -1241 206 -1147 
L 313 -588 
Q 525 -725 762 -790 
Q 1000 -856 1269 -856 
Q 1816 -856 2167 -557 
Q 2519 -259 2631 300 
L 2681 563 
Q 2441 288 2122 144 
Q 1803 0 1434 0 
Q 903 0 598 351 
Q 294 703 294 1319 
Q 294 1803 478 2267 
Q 663 2731 997 3091 
Q 1219 3328 1514 3456 
Q 1809 3584 2131 3584 
Q 2484 3584 2746 3420 
Q 3009 3256 3138 2956 
L 3238 3500 
L 3816 3500 
z
M 2950 2216 
Q 2950 2641 2750 2872 
Q 2550 3103 2181 3103 
Q 1953 3103 1747 3012 
Q 1541 2922 1394 2759 
Q 1156 2491 1023 2127 
Q 891 1763 891 1375 
Q 891 944 1092 712 
Q 1294 481 1672 481 
Q 2219 481 2584 976 
Q 2950 1472 2950 2216 
z
" transform="scale(0.015625)"/>
      <path id="DejaVuSans-Oblique-73" d="M 3200 3397 
L 3091 2853 
Q 2863 2978 2609 3040 
Q 2356 3103 2088 3103 
Q 1634 3103 1373 2948 
Q 1113 2794 1113 2528 
Q 1113 2219 1719 2053 
Q 1766 2041 1788 2034 
L 1972 1978 
Q 2547 1819 2739 1644 
Q 2931 1469 2931 1166 
Q 2931 609 2489 259 
Q 2047 -91 1331 -91 
Q 1053 -91 747 -37 
Q 441 16 72 128 
L 184 722 
Q 500 559 806 475 
Q 1113 391 1394 391 
Q 1816 391 2080 572 
Q 2344 753 2344 1031 
Q 2344 1331 1650 1516 
L 1591 1531 
L 1394 1581 
Q 956 1697 753 1886 
Q 550 2075 550 2369 
Q 550 2928 970 3256 
Q 1391 3584 2113 3584 
Q 2397 3584 2667 3537 
Q 2938 3491 3200 3397 
z
" transform="scale(0.015625)"/>
      <path id="DejaVuSans-3d" d="M 678 2906 
L 4684 2906 
L 4684 2381 
L 678 2381 
L 678 2906 
z
M 678 1631 
L 4684 1631 
L 4684 1100 
L 678 1100 
L 678 1631 
z
" transform="scale(0.015625)"/>
      <path id="DejaVuSans-30" d="M 2034 4250 
Q 1547 4250 1301 3770 
Q 1056 3291 1056 2328 
Q 1056 1369 1301 889 
Q 1547 409 2034 409 
Q 2525 409 2770 889 
Q 3016 1369 3016 2328 
Q 3016 3291 2770 3770 
Q 2525 4250 2034 4250 
z
M 2034 4750 
Q 2819 4750 3233 4129 
Q 3647 3509 3647 2328 
Q 3647 1150 3233 529 
Q 2819 -91 2034 -91 
Q 1250 -91 836 529 
Q 422 1150 422 2328 
Q 422 3509 836 4129 
Q 1250 4750 2034 4750 
z
" transform="scale(0.015625)"/>
     </defs>
     <use xlink:href="#DejaVuSans-Oblique-76" transform="translate(0 0.78125)"/>
     <use xlink:href="#DejaVuSans-Oblique-67" transform="translate(59.179688 -15.625) scale(0.7)"/>
     <use xlink:href="#DejaVuSans-Oblique-73" transform="translate(103.613281 -15.625) scale(0.7)"/>
     <use xlink:href="#DejaVuSans-3d" transform="translate(162.299805 0.78125)"/>
     <use xlink:href="#DejaVuSans-30" transform="translate(265.571289 0.78125)"/>
    </g>
   </g>
   <g id="text_3">
    <!-- $g_m \rightarrow \infty$ -->
    <g transform="translate(272.964 124.4625) scale(0.16 -0.16)">
     <defs>
      <path id="DejaVuSans-Oblique-6d" d="M 5747 2113 
L 5338 0 
L 4763 0 
L 5166 2094 
Q 5191 2228 5203 2325 
Q 5216 2422 5216 2491 
Q 5216 2772 5059 2928 
Q 4903 3084 4622 3084 
Q 4203 3084 3875 2770 
Q 3547 2456 3450 1953 
L 3066 0 
L 2491 0 
L 2900 2094 
Q 2925 2209 2937 2307 
Q 2950 2406 2950 2484 
Q 2950 2769 2794 2926 
Q 2638 3084 2363 3084 
Q 1938 3084 1609 2770 
Q 1281 2456 1184 1953 
L 800 0 
L 225 0 
L 909 3500 
L 1484 3500 
L 1375 2956 
Q 1609 3263 1923 3423 
Q 2238 3584 2597 3584 
Q 2978 3584 3223 3384 
Q 3469 3184 3519 2828 
Q 3781 3197 4126 3390 
Q 4472 3584 4856 3584 
Q 5306 3584 5551 3325 
Q 5797 3066 5797 2591 
Q 5797 2488 5784 2364 
Q 5772 2241 5747 2113 
z
" transform="scale(0.015625)"/>
      <path id="DejaVuSans-2192" d="M 5050 2147 
L 5050 1866 
L 3822 638 
L 3447 1013 
L 4175 1741 
L 366 1741 
L 366 2272 
L 4175 2272 
L 3447 3000 
L 3822 3375 
L 5050 2147 
z
" transform="scale(0.015625)"/>
      <path id="DejaVuSans-221e" d="M 2916 1091 
Q 2819 1203 2666 1466 
Q 2456 1091 2272 925 
Q 2041 725 1681 725 
Q 1259 725 981 1041 
Q 688 1372 688 1919 
Q 688 2444 981 2800 
Q 1244 3116 1688 3116 
Q 1916 3116 2084 3022 
Q 2281 2919 2416 2741 
Q 2541 2581 2666 2366 
Q 2875 2741 3059 2906 
Q 3291 3106 3650 3106 
Q 4072 3106 4350 2791 
Q 4644 2459 4644 1913 
Q 4644 1388 4350 1031 
Q 4088 716 3644 716 
Q 3416 716 3247 809 
Q 3078 894 2916 1091 
z
M 1647 1134 
Q 2163 1134 2472 1884 
Q 2075 2703 1647 2703 
Q 1334 2703 1175 2478 
Q 1003 2238 1003 1919 
Q 1003 1569 1175 1353 
Q 1350 1134 1647 1134 
z
M 3684 2697 
Q 3219 2697 2859 1947 
Q 3253 1128 3684 1128 
Q 3997 1128 4156 1353 
Q 4328 1594 4328 1913 
Q 4328 2263 4156 2478 
Q 3981 2697 3684 2697 
z
" transform="scale(0.015625)"/>
     </defs>
     <use xlink:href="#DejaVuSans-Oblique-67"/>
     <use xlink:href="#DejaVuSans-Oblique-6d" transform="translate(63.476562 -16.40625) scale(0.7)"/>
     <use xlink:href="#DejaVuSans-2192" transform="translate(153.881836 0)"/>
     <use xlink:href="#DejaVuSans-221e" transform="translate(257.15332 0)"/>
    </g>
   </g>
   <g id="text_4">
    <!-- $g_m v_{gs}$ -->
    <g transform="translate(272.964 104.8625) scale(0.16 -0.16)">
     <use xlink:href="#DejaVuSans-Oblique-67"/>
     <use xlink:href="#DejaVuSans-Oblique-6d" transform="translate(63.476562 -16.40625) scale(0.7)"/>
     <use xlink:href="#DejaVuSans-Oblique-76" transform="translate(134.399414 0)"/>
     <use xlink:href="#DejaVuSans-Oblique-67" transform="translate(193.579102 -16.40625) scale(0.7)"/>
     <use xlink:href="#DejaVuSans-Oblique-73" transform="translate(238.012695 -16.40625) scale(0.7)"/>
    </g>
   </g>
   <g id="text_5">
    <!--   -->
    <g transform="translate(272.964 88.495) scale(0.16 -0.16)">
     <defs>
      <path id="DejaVuSans-20" transform="scale(0.015625)"/>
     </defs>
     <use xlink:href="#DejaVuSans-20"/>
    </g>
   </g>
   <g id="text_6">
    <!-- $R_2$ -->
    <g transform="translate(206.004 14.1525) scale(0.16 -0.16)">
     <defs>
      <path id="DejaVuSans-32" d="M 1228 531 
L 3431 531 
L 3431 0 
L 469 0 
L 469 531 
Q 828 903 1448 1529 
Q 2069 2156 2228 2338 
Q 2531 2678 2651 2914 
Q 2772 3150 2772 3378 
Q 2772 3750 2511 3984 
Q 2250 4219 1831 4219 
Q 1534 4219 1204 4116 
Q 875 4013 500 3803 
L 500 4441 
Q 881 4594 1212 4672 
Q 1544 4750 1819 4750 
Q 2544 4750 2975 4387 
Q 3406 4025 3406 3419 
Q 3406 3131 3298 2873 
Q 3191 2616 2906 2266 
Q 2828 2175 2409 1742 
Q 1991 1309 1228 531 
z
" transform="scale(0.015625)"/>
     </defs>
     <use xlink:href="#DejaVuSans-Oblique-52" transform="translate(0 0.09375)"/>
     <use xlink:href="#DejaVuSans-32" transform="translate(69.482422 -16.3125) scale(0.7)"/>
    </g>
   </g>
   <g id="text_7">
    <!-- $v_{out}$ -->
    <g transform="translate(368.364 70.495) scale(0.16 -0.16)">
     <defs>
      <path id="DejaVuSans-Oblique-6f" d="M 1625 -91 
Q 1009 -91 651 289 
Q 294 669 294 1325 
Q 294 1706 417 2101 
Q 541 2497 738 2766 
Q 1047 3184 1428 3384 
Q 1809 3584 2291 3584 
Q 2888 3584 3255 3212 
Q 3622 2841 3622 2241 
Q 3622 1825 3500 1412 
Q 3378 1000 3181 728 
Q 2875 309 2494 109 
Q 2113 -91 1625 -91 
z
M 891 1344 
Q 891 869 1089 633 
Q 1288 397 1691 397 
Q 2269 397 2648 901 
Q 3028 1406 3028 2181 
Q 3028 2634 2825 2865 
Q 2622 3097 2228 3097 
Q 1903 3097 1650 2945 
Q 1397 2794 1197 2484 
Q 1050 2253 970 1956 
Q 891 1659 891 1344 
z
" transform="scale(0.015625)"/>
      <path id="DejaVuSans-Oblique-75" d="M 428 1388 
L 838 3500 
L 1416 3500 
L 1006 1409 
Q 975 1256 961 1147 
Q 947 1038 947 966 
Q 947 700 1109 554 
Q 1272 409 1569 409 
Q 2031 409 2368 721 
Q 2706 1034 2809 1563 
L 3194 3500 
L 3769 3500 
L 3091 0 
L 2516 0 
L 2631 550 
Q 2388 244 2052 76 
Q 1716 -91 1338 -91 
Q 878 -91 622 161 
Q 366 413 366 863 
Q 366 956 381 1097 
Q 397 1238 428 1388 
z
" transform="scale(0.015625)"/>
      <path id="DejaVuSans-Oblique-74" d="M 2706 3500 
L 2619 3053 
L 1472 3053 
L 1100 1153 
Q 1081 1047 1072 975 
Q 1063 903 1063 863 
Q 1063 663 1183 572 
Q 1303 481 1569 481 
L 2150 481 
L 2053 0 
L 1503 0 
Q 991 0 739 200 
Q 488 400 488 806 
Q 488 878 497 964 
Q 506 1050 525 1153 
L 897 3053 
L 409 3053 
L 500 3500 
L 978 3500 
L 1172 4494 
L 1747 4494 
L 1556 3500 
L 2706 3500 
z
" transform="scale(0.015625)"/>
     </defs>
     <use xlink:href="#DejaVuSans-Oblique-76" transform="translate(0 0.3125)"/>
     <use xlink:href="#DejaVuSans-Oblique-6f" transform="translate(59.179688 -16.09375) scale(0.7)"/>
     <use xlink:href="#DejaVuSans-Oblique-75" transform="translate(102.006836 -16.09375) scale(0.7)"/>
     <use xlink:href="#DejaVuSans-Oblique-74" transform="translate(146.37207 -16.09375) scale(0.7)"/>
    </g>
   </g>
   <g id="patch_3">
    <path d="M 35.364 68.78 
C 36.080048 68.78 36.766866 68.495511 37.273188 67.989188 
C 37.779511 67.482866 38.064 66.796048 38.064 66.08 
C 38.064 65.363952 37.779511 64.677134 37.273188 64.170812 
C 36.766866 63.664489 36.080048 63.38 35.364 63.38 
C 34.647952 63.38 33.961134 63.664489 33.454812 64.170812 
C 32.948489 64.677134 32.664 65.363952 32.664 66.08 
C 32.664 66.796048 32.948489 67.482866 33.454812 67.989188 
C 33.961134 68.495511 34.647952 68.78 35.364 68.78 
z
" clip-path="url(#p1f642f271e)" style="fill: #ffffff; stroke: #000000; stroke-width: 2; stroke-linejoin: miter"/>
   </g>
   <g id="text_8">
    <!-- $v_{in}$ -->
    <g transform="translate(8.904 70.495) scale(0.16 -0.16)">
     <defs>
      <path id="DejaVuSans-Oblique-69" d="M 1172 4863 
L 1747 4863 
L 1606 4134 
L 1031 4134 
L 1172 4863 
z
M 909 3500 
L 1484 3500 
L 800 0 
L 225 0 
L 909 3500 
z
" transform="scale(0.015625)"/>
      <path id="DejaVuSans-Oblique-6e" d="M 3566 2113 
L 3156 0 
L 2578 0 
L 2988 2091 
Q 3016 2238 3031 2350 
Q 3047 2463 3047 2528 
Q 3047 2791 2881 2937 
Q 2716 3084 2419 3084 
Q 1956 3084 1622 2776 
Q 1288 2469 1184 1941 
L 800 0 
L 225 0 
L 903 3500 
L 1478 3500 
L 1363 2950 
Q 1603 3253 1940 3418 
Q 2278 3584 2650 3584 
Q 3113 3584 3367 3334 
Q 3622 3084 3622 2631 
Q 3622 2519 3608 2391 
Q 3594 2263 3566 2113 
z
" transform="scale(0.015625)"/>
     </defs>
     <use xlink:href="#DejaVuSans-Oblique-76" transform="translate(0 0.3125)"/>
     <use xlink:href="#DejaVuSans-Oblique-69" transform="translate(59.179688 -16.09375) scale(0.7)"/>
     <use xlink:href="#DejaVuSans-Oblique-6e" transform="translate(78.62793 -16.09375) scale(0.7)"/>
    </g>
   </g>
   <g id="patch_4">
    <path d="M 143.364 68.78 
C 144.080048 68.78 144.766866 68.495511 145.273188 67.989188 
C 145.779511 67.482866 146.064 66.796048 146.064 66.08 
C 146.064 65.363952 145.779511 64.677134 145.273188 64.170812 
C 144.766866 63.664489 144.080048 63.38 143.364 63.38 
C 142.647952 63.38 141.961134 63.664489 141.454812 64.170812 
C 140.948489 64.677134 140.664 65.363952 140.664 66.08 
C 140.664 66.796048 140.948489 67.482866 141.454812 67.989188 
C 141.961134 68.495511 142.647952 68.78 143.364 68.78 
z
" clip-path="url(#p1f642f271e)" style="stroke: #000000; stroke-width: 2; stroke-linejoin: miter"/>
   </g>
   <g id="patch_5">
    <path d="M 35.364 140.78 
C 36.080048 140.78 36.766866 140.495511 37.273188 139.989188 
C 37.779511 139.482866 38.064 138.796048 38.064 138.08 
C 38.064 137.363952 37.779511 136.677134 37.273188 136.170812 
C 36.766866 135.664489 36.080048 135.38 35.364 135.38 
C 34.647952 135.38 33.961134 135.664489 33.454812 136.170812 
C 32.948489 136.677134 32.664 137.363952 32.664 138.08 
C 32.664 138.796048 32.948489 139.482866 33.454812 139.989188 
C 33.961134 140.495511 34.647952 140.78 35.364 140.78 
z
" clip-path="url(#p1f642f271e)" style="fill: #ffffff; stroke: #000000; stroke-width: 2; stroke-linejoin: miter"/>
   </g>
   <g id="patch_6">
    <path d="M 251.364 140.78 
C 252.080048 140.78 252.766866 140.495511 253.273188 139.989188 
C 253.779511 139.482866 254.064 138.796048 254.064 138.08 
C 254.064 137.363952 253.779511 136.677134 253.273188 136.170812 
C 252.766866 135.664489 252.080048 135.38 251.364 135.38 
C 250.647952 135.38 249.961134 135.664489 249.454812 136.170812 
C 248.948489 136.677134 248.664 137.363952 248.664 138.08 
C 248.664 138.796048 248.948489 139.482866 249.454812 139.989188 
C 249.961134 140.495511 250.647952 140.78 251.364 140.78 
z
" clip-path="url(#p1f642f271e)" style="stroke: #000000; stroke-width: 2; stroke-linejoin: miter"/>
   </g>
   <g id="patch_7">
    <path d="M 287.364 68.78 
C 288.080048 68.78 288.766866 68.495511 289.273188 67.989188 
C 289.779511 67.482866 290.064 66.796048 290.064 66.08 
C 290.064 65.363952 289.779511 64.677134 289.273188 64.170812 
C 288.766866 63.664489 288.080048 63.38 287.364 63.38 
C 286.647952 63.38 285.961134 63.664489 285.454812 64.170812 
C 284.948489 64.677134 284.664 65.363952 284.664 66.08 
C 284.664 66.796048 284.948489 67.482866 285.454812 67.989188 
C 285.961134 68.495511 286.647952 68.78 287.364 68.78 
z
" clip-path="url(#p1f642f271e)" style="stroke: #000000; stroke-width: 2; stroke-linejoin: miter"/>
   </g>
   <g id="patch_8">
    <path d="M 359.364 68.78 
C 360.080048 68.78 360.766866 68.495511 361.273188 67.989188 
C 361.779511 67.482866 362.064 66.796048 362.064 66.08 
C 362.064 65.363952 361.779511 64.677134 361.273188 64.170812 
C 360.766866 63.664489 360.080048 63.38 359.364 63.38 
C 358.647952 63.38 357.961134 63.664489 357.454812 64.170812 
C 356.948489 64.677134 356.664 65.363952 356.664 66.08 
C 356.664 66.796048 356.948489 67.482866 357.454812 67.989188 
C 357.961134 68.495511 358.647952 68.78 359.364 68.78 
z
" clip-path="url(#p1f642f271e)" style="fill: #ffffff; stroke: #000000; stroke-width: 2; stroke-linejoin: miter"/>
   </g>
   <g id="patch_9">
    <path d="M 359.364 140.78 
C 360.080048 140.78 360.766866 140.495511 361.273188 139.989188 
C 361.779511 139.482866 362.064 138.796048 362.064 138.08 
C 362.064 137.363952 361.779511 136.677134 361.273188 136.170812 
C 360.766866 135.664489 360.080048 135.38 359.364 135.38 
C 358.647952 135.38 357.961134 135.664489 357.454812 136.170812 
C 356.948489 136.677134 356.664 137.363952 356.664 138.08 
C 356.664 138.796048 356.948489 139.482866 357.454812 139.989188 
C 357.961134 140.495511 358.647952 140.78 359.364 140.78 
z
" clip-path="url(#p1f642f271e)" style="fill: #ffffff; stroke: #000000; stroke-width: 2; stroke-linejoin: miter"/>
   </g>
  </g>
 </g>
 <defs>
  <clipPath id="p1f642f271e">
   <rect x="0" y="-0" width="407.796" height="165.8"/>
  </clipPath>
 </defs>
</svg>
