<?xml version="1.0" encoding="utf-8" standalone="no"?>
<!DOCTYPE svg PUBLIC "-//W3C//DTD SVG 1.1//EN"
  "http://www.w3.org/Graphics/SVG/1.1/DTD/svg11.dtd">
<svg xmlns:xlink="http://www.w3.org/1999/xlink" width="461.88pt" height="345.6pt" viewBox="0 0 461.88 345.6" xmlns="http://www.w3.org/2000/svg" version="1.1">
 <metadata>
  <rdf:RDF xmlns:dc="http://purl.org/dc/elements/1.1/" xmlns:cc="http://creativecommons.org/ns#" xmlns:rdf="http://www.w3.org/1999/02/22-rdf-syntax-ns#">
   <cc:Work>
    <dc:type rdf:resource="http://purl.org/dc/dcmitype/StillImage"/>
    <dc:date>2025-03-25T17:47:25.683180</dc:date>
    <dc:format>image/svg+xml</dc:format>
    <dc:creator>
     <cc:Agent>
      <dc:title>Matplotlib v3.9.2, https://matplotlib.org/</dc:title>
     </cc:Agent>
    </dc:creator>
   </cc:Work>
  </rdf:RDF>
 </metadata>
 <defs>
  <style type="text/css">*{stroke-linejoin: round; stroke-linecap: butt}</style>
 </defs>
 <g id="figure_1">
  <g id="patch_1">
   <path d="M 0 345.6 
L 461.88 345.6 
L 461.88 0 
L 0 0 
z
" style="fill: #ffffff"/>
  </g>
  <g id="axes_1">
   <g id="patch_2">
    <path d="M 147.048 173.88 
C 151.821656 173.88 156.400438 171.983406 159.775922 168.607922 
C 163.151406 165.232438 165.048 160.653656 165.048 155.88 
C 165.048 151.106344 163.151406 146.527562 159.775922 143.152078 
C 156.400438 139.776594 151.821656 137.88 147.048 137.88 
C 142.274344 137.88 137.695562 139.776594 134.320078 143.152078 
C 130.944594 146.527562 129.048 151.106344 129.048 155.88 
C 129.048 160.653656 130.944594 165.232438 134.320078 168.607922 
C 137.695562 171.983406 142.274344 173.88 147.048 173.88 
L 147.048 173.88 
z
" clip-path="url(#pad3c3e171a)" style="fill: none; stroke: #000000; stroke-width: 2; stroke-linejoin: miter"/>
   </g>
   <g id="patch_3">
    <path d="M 341.6669 174.002142 
C 343.819771 176.30193 346.369655 178.301086 349.226639 179.929118 
C 352.083622 181.55715 355.213726 182.794693 358.506578 183.598112 
C 361.799431 184.401531 365.215868 184.761268 368.635421 184.66464 
C 372.054975 184.568012 375.436974 184.016168 378.662166 183.028566 
C 381.887357 182.040964 384.917381 180.62935 387.645396 178.8435 
C 390.373411 177.057651 392.76697 174.918805 394.741673 172.502382 
C 396.716376 170.085959 398.248738 167.420698 399.284724 164.600581 
C 400.32071 161.780463 400.848 158.83903 400.848 155.88 
C 400.848 152.92097 400.32071 149.979537 399.284724 147.159419 
C 398.248738 144.339302 396.716376 141.674041 394.741673 139.257618 
C 392.76697 136.841195 390.373411 134.702349 387.645396 132.9165 
C 384.917381 131.13065 381.887357 129.719036 378.662166 128.731434 
C 375.436974 127.743832 372.054975 127.191988 368.635421 127.09536 
C 365.215868 126.998732 361.799431 127.358469 358.506578 128.161888 
C 355.213726 128.965307 352.083622 130.20285 349.226639 131.830882 
C 346.369655 133.458914 343.819771 135.45807 341.6669 137.757858 
" clip-path="url(#pad3c3e171a)" style="fill: none; stroke: #0000ff; stroke-width: 2; stroke-linejoin: miter"/>
   </g>
   <g id="patch_4">
    <path d="M 335.957772 145.190056 
L 339.299182 136.407973 
L 341.426098 138.041788 
L 341.652625 137.746893 
L 341.681174 137.768824 
L 341.454647 138.063718 
L 343.581564 139.697533 
z
" clip-path="url(#pad3c3e171a)" style="fill: #0000ff; stroke: #0000ff; stroke-linejoin: miter"/>
   </g>
   <g id="line2d_1">
    <path d="M 147.048 119.88 
L 147.048 137.88 
L 147.048 137.88 
M 147.048 173.88 
L 147.048 173.88 
L 147.048 191.88 
" clip-path="url(#pad3c3e171a)" style="fill: none; stroke: #000000; stroke-width: 2; stroke-linecap: round"/>
   </g>
   <g id="line2d_2">
    <path d="M 150.648 164.88 
L 143.448 164.88 
" clip-path="url(#pad3c3e171a)" style="fill: none; stroke: #000000; stroke-width: 2; stroke-linecap: round"/>
   </g>
   <g id="line2d_3">
    <path d="M 147.048 143.28 
L 147.048 150.48 
" clip-path="url(#pad3c3e171a)" style="fill: none; stroke: #000000; stroke-width: 2; stroke-linecap: round"/>
   </g>
   <g id="line2d_4">
    <path d="M 150.648 146.88 
L 143.448 146.88 
" clip-path="url(#pad3c3e171a)" style="fill: none; stroke: #000000; stroke-width: 2; stroke-linecap: round"/>
   </g>
   <g id="line2d_5">
    <path d="M 147.048 191.88 
L 147.048 206.28 
L 138.048 206.28 
L 156.048 206.28 
M 140.748 210.6 
L 153.348 210.6 
M 145.248 214.92 
L 148.848 214.92 
" clip-path="url(#pad3c3e171a)" style="fill: none; stroke: #000000; stroke-width: 2; stroke-linecap: round"/>
   </g>
   <g id="line2d_6">
    <path d="M 75.048 191.88 
L 75.048 206.28 
L 66.048 206.28 
L 84.048 206.28 
M 68.748 210.6 
L 81.348 210.6 
M 73.248 214.92 
L 76.848 214.92 
" clip-path="url(#pad3c3e171a)" style="fill: none; stroke: #000000; stroke-width: 2; stroke-linecap: round"/>
   </g>
   <g id="line2d_7">
    <path d="M 75.048 191.88 
L 75.048 173.88 
L 57.048 155.88 
L 75.048 137.88 
L 93.048 155.88 
L 75.048 173.88 
M 75.048 137.88 
L 75.048 119.88 
" clip-path="url(#pad3c3e171a)" style="fill: none; stroke: #000000; stroke-width: 2; stroke-linecap: round"/>
   </g>
   <g id="line2d_8">
    <path d="M 78.648 164.88 
L 71.448 164.88 
" clip-path="url(#pad3c3e171a)" style="fill: none; stroke: #000000; stroke-width: 2; stroke-linecap: round"/>
   </g>
   <g id="line2d_9">
    <path d="M 75.048 150.48 
L 75.048 143.28 
" clip-path="url(#pad3c3e171a)" style="fill: none; stroke: #000000; stroke-width: 2; stroke-linecap: round"/>
   </g>
   <g id="line2d_10">
    <path d="M 78.648 146.88 
L 71.448 146.88 
" clip-path="url(#pad3c3e171a)" style="fill: none; stroke: #000000; stroke-width: 2; stroke-linecap: round"/>
   </g>
   <g id="line2d_11">
    <path d="M 75.048 119.88 
L 93.048 119.88 
L 111.048 119.88 
" clip-path="url(#pad3c3e171a)" style="fill: none; stroke: #000000; stroke-width: 2; stroke-linecap: round"/>
   </g>
   <g id="line2d_12">
    <path d="M 147.048 119.88 
L 174.048 119.88 
L 201.048 119.88 
" clip-path="url(#pad3c3e171a)" style="fill: none; stroke: #000000; stroke-width: 2; stroke-linecap: round"/>
   </g>
   <g id="line2d_13">
    <path d="M 309.048 119.88 
L 309.048 137.88 
L 327.048 155.88 
L 309.048 173.88 
L 291.048 155.88 
L 309.048 137.88 
M 309.048 173.88 
L 309.048 191.88 
" clip-path="url(#pad3c3e171a)" style="fill: none; stroke: #000000; stroke-width: 2; stroke-linecap: round"/>
   </g>
   <g id="line2d_14">
    <path d="M 309.048 146.88 
L 309.048 155.88 
" clip-path="url(#pad3c3e171a)" style="fill: none; stroke: #000000; stroke-width: 2; stroke-linecap: round"/>
   </g>
   <g id="patch_5">
    <path d="M 311.748 155.88 
L 309.048 164.88 
L 306.348 155.88 
z
" clip-path="url(#pad3c3e171a)"/>
   </g>
   <g id="line2d_15">
    <path d="M 309.048 191.88 
L 309.048 209.88 
L 309.048 227.88 
" clip-path="url(#pad3c3e171a)" style="fill: none; stroke: #000000; stroke-width: 2; stroke-linecap: round"/>
   </g>
   <g id="line2d_16">
    <path d="M 309.048 227.88 
L 363.048 227.88 
L 417.048 227.88 
" clip-path="url(#pad3c3e171a)" style="fill: none; stroke: #000000; stroke-width: 2; stroke-linecap: round"/>
   </g>
   <g id="line2d_17">
    <path d="M 417.048 227.88 
L 417.048 209.88 
L 417.048 191.88 
" clip-path="url(#pad3c3e171a)" style="fill: none; stroke: #000000; stroke-width: 2; stroke-linecap: round"/>
   </g>
   <g id="line2d_18">
    <path d="M 417.048 191.88 
L 417.048 173.88 
L 408.048 170.88 
L 426.048 164.88 
L 408.048 158.88 
L 426.048 152.88 
L 408.048 146.88 
L 426.048 140.88 
L 417.048 137.88 
L 417.048 119.88 
" clip-path="url(#pad3c3e171a)" style="fill: none; stroke: #000000; stroke-width: 2; stroke-linecap: round"/>
   </g>
   <g id="line2d_19">
    <path d="M 417.048 119.88 
L 417.048 101.88 
L 417.048 83.88 
" clip-path="url(#pad3c3e171a)" style="fill: none; stroke: #000000; stroke-width: 2; stroke-linecap: round"/>
   </g>
   <g id="line2d_20">
    <path d="M 417.048 83.88 
L 363.048 83.88 
L 309.048 83.88 
" clip-path="url(#pad3c3e171a)" style="fill: none; stroke: #000000; stroke-width: 2; stroke-linecap: round"/>
   </g>
   <g id="line2d_21">
    <path d="M 309.048 83.88 
L 309.048 101.88 
L 309.048 119.88 
" clip-path="url(#pad3c3e171a)" style="fill: none; stroke: #000000; stroke-width: 2; stroke-linecap: round"/>
   </g>
   <g id="line2d_22">
    <path d="M 309.048 227.88 
L 309.048 236.88 
L 309.048 245.88 
" clip-path="url(#pad3c3e171a)" style="fill: none; stroke: #000000; stroke-width: 2; stroke-linecap: round"/>
   </g>
   <g id="line2d_23">
    <path d="M 309.048 245.88 
L 309.048 263.88 
L 318.048 266.88 
L 300.048 272.88 
L 318.048 278.88 
L 300.048 284.88 
L 318.048 290.88 
L 300.048 296.88 
L 309.048 299.88 
L 309.048 317.88 
" clip-path="url(#pad3c3e171a)" style="fill: none; stroke: #000000; stroke-width: 2; stroke-linecap: round"/>
   </g>
   <g id="line2d_24">
    <path d="M 309.048 317.88 
L 309.048 332.28 
L 300.048 332.28 
L 318.048 332.28 
M 302.748 336.6 
L 315.348 336.6 
M 307.248 340.92 
L 310.848 340.92 
" clip-path="url(#pad3c3e171a)" style="fill: none; stroke: #000000; stroke-width: 2; stroke-linecap: round"/>
   </g>
   <g id="line2d_25">
    <path d="M 292.848 245.88 
L 292.848 307.08 
" clip-path="url(#pad3c3e171a)" style="fill: none; stroke: #ff0000; stroke-width: 2; stroke-linecap: round"/>
   </g>
   <g id="patch_6">
    <path d="M 296.448 307.08 
L 292.848 317.88 
L 289.248 307.08 
z
" clip-path="url(#pad3c3e171a)" style="fill: #ff0000"/>
   </g>
   <g id="line2d_26">
    <path d="M 309.048 83.88 
L 309.048 47.88 
L 309.048 11.88 
" clip-path="url(#pad3c3e171a)" style="fill: none; stroke: #000000; stroke-width: 2; stroke-linecap: round"/>
   </g>
   <g id="line2d_27">
    <path d="M 294.648 73.08 
L 294.648 11.88 
" clip-path="url(#pad3c3e171a)" style="fill: none; stroke: #ff0000; stroke-width: 2; stroke-linecap: round"/>
   </g>
   <g id="patch_7">
    <path d="M 298.248 73.08 
L 294.648 83.88 
L 291.048 73.08 
z
" clip-path="url(#pad3c3e171a)" style="fill: #ff0000"/>
   </g>
   <g id="line2d_28">
    <path d="M 309.048 227.88 
L 165.048 227.88 
L 21.048 227.88 
" clip-path="url(#pad3c3e171a)" style="fill: none; stroke: #000000; stroke-width: 2; stroke-linecap: round"/>
   </g>
   <g id="line2d_29">
    <path d="M 21.048 299.88 
L 21.048 308.88 
L 21.048 317.88 
" clip-path="url(#pad3c3e171a)" style="fill: none; stroke: #000000; stroke-width: 2; stroke-linecap: round"/>
   </g>
   <g id="line2d_30">
    <path d="M 21.048 317.88 
L 21.048 332.28 
L 12.048 332.28 
L 30.048 332.28 
M 14.748 336.6 
L 27.348 336.6 
M 19.248 340.92 
L 22.848 340.92 
" clip-path="url(#pad3c3e171a)" style="fill: none; stroke: #000000; stroke-width: 2; stroke-linecap: round"/>
   </g>
   <g id="text_1">
    <!-- $v_t$ -->
    <g transform="translate(168.648 160.295) scale(0.16 -0.16)">
     <defs>
      <path id="DejaVuSans-Oblique-76" d="M 459 3500 
L 1069 3500 
L 1581 525 
L 3256 3500 
L 3866 3500 
L 1875 0 
L 1100 0 
L 459 3500 
z
" transform="scale(0.015625)"/>
      <path id="DejaVuSans-Oblique-74" d="M 2706 3500 
L 2619 3053 
L 1472 3053 
L 1100 1153 
Q 1081 1047 1072 975 
Q 1063 903 1063 863 
Q 1063 663 1183 572 
Q 1303 481 1569 481 
L 2150 481 
L 2053 0 
L 1503 0 
Q 991 0 739 200 
Q 488 400 488 806 
Q 488 878 497 964 
Q 506 1050 525 1153 
L 897 3053 
L 409 3053 
L 500 3500 
L 978 3500 
L 1172 4494 
L 1747 4494 
L 1556 3500 
L 2706 3500 
z
" transform="scale(0.015625)"/>
     </defs>
     <use xlink:href="#DejaVuSans-Oblique-76" transform="translate(0 0.3125)"/>
     <use xlink:href="#DejaVuSans-Oblique-74" transform="translate(59.179688 -16.09375) scale(0.7)"/>
    </g>
   </g>
   <g id="text_2">
    <!-- $a_v v_d$ -->
    <g transform="translate(19.528 160.295) scale(0.16 -0.16)">
     <defs>
      <path id="DejaVuSans-Oblique-61" d="M 3438 1997 
L 3047 0 
L 2472 0 
L 2578 531 
Q 2325 219 2001 64 
Q 1678 -91 1281 -91 
Q 834 -91 548 182 
Q 263 456 263 884 
Q 263 1497 752 1853 
Q 1241 2209 2100 2209 
L 2900 2209 
L 2931 2363 
Q 2938 2388 2941 2417 
Q 2944 2447 2944 2509 
Q 2944 2788 2717 2942 
Q 2491 3097 2081 3097 
Q 1800 3097 1504 3025 
Q 1209 2953 897 2809 
L 997 3341 
Q 1322 3463 1633 3523 
Q 1944 3584 2234 3584 
Q 2853 3584 3176 3315 
Q 3500 3047 3500 2534 
Q 3500 2431 3484 2292 
Q 3469 2153 3438 1997 
z
M 2816 1759 
L 2241 1759 
Q 1534 1759 1195 1570 
Q 856 1381 856 984 
Q 856 709 1029 553 
Q 1203 397 1509 397 
Q 1978 397 2328 733 
Q 2678 1069 2791 1631 
L 2816 1759 
z
" transform="scale(0.015625)"/>
      <path id="DejaVuSans-Oblique-64" d="M 2675 525 
Q 2444 222 2128 65 
Q 1813 -91 1428 -91 
Q 903 -91 598 267 
Q 294 625 294 1247 
Q 294 1766 478 2236 
Q 663 2706 1013 3078 
Q 1244 3325 1534 3454 
Q 1825 3584 2144 3584 
Q 2481 3584 2739 3421 
Q 2997 3259 3138 2956 
L 3513 4863 
L 4091 4863 
L 3144 0 
L 2566 0 
L 2675 525 
z
M 891 1350 
Q 891 897 1095 644 
Q 1300 391 1663 391 
Q 1931 391 2161 520 
Q 2391 650 2566 903 
Q 2750 1166 2856 1509 
Q 2963 1853 2963 2188 
Q 2963 2622 2758 2865 
Q 2553 3109 2194 3109 
Q 1922 3109 1687 2981 
Q 1453 2853 1288 2613 
Q 1106 2353 998 2009 
Q 891 1666 891 1350 
z
" transform="scale(0.015625)"/>
     </defs>
     <use xlink:href="#DejaVuSans-Oblique-61"/>
     <use xlink:href="#DejaVuSans-Oblique-76" transform="translate(61.279297 -16.40625) scale(0.7)"/>
     <use xlink:href="#DejaVuSans-Oblique-76" transform="translate(105.439453 0)"/>
     <use xlink:href="#DejaVuSans-Oblique-64" transform="translate(164.619141 -16.40625) scale(0.7)"/>
    </g>
   </g>
   <g id="text_3">
    <!-- $v_r$ -->
    <g style="fill: #ff0000" transform="translate(85.768 112.9525) scale(0.16 -0.16)">
     <defs>
      <path id="DejaVuSans-Oblique-72" d="M 2853 2969 
Q 2766 3016 2653 3041 
Q 2541 3066 2413 3066 
Q 1953 3066 1609 2717 
Q 1266 2369 1153 1784 
L 800 0 
L 225 0 
L 909 3500 
L 1484 3500 
L 1375 2956 
Q 1603 3259 1920 3421 
Q 2238 3584 2597 3584 
Q 2691 3584 2781 3573 
Q 2872 3563 2963 3538 
L 2853 2969 
z
" transform="scale(0.015625)"/>
     </defs>
     <use xlink:href="#DejaVuSans-Oblique-76" transform="translate(0 0.3125)"/>
     <use xlink:href="#DejaVuSans-Oblique-72" transform="translate(59.179688 -16.09375) scale(0.7)"/>
    </g>
   </g>
   <g id="patch_8">
    <path d="M 201.048 122.58 
C 201.764048 122.58 202.450866 122.295511 202.957188 121.789188 
C 203.463511 121.282866 203.748 120.596048 203.748 119.88 
C 203.748 119.163952 203.463511 118.477134 202.957188 117.970812 
C 202.450866 117.464489 201.764048 117.18 201.048 117.18 
C 200.331952 117.18 199.645134 117.464489 199.138812 117.970812 
C 198.632489 118.477134 198.348 119.163952 198.348 119.88 
C 198.348 120.596048 198.632489 121.282866 199.138812 121.789188 
C 199.645134 122.295511 200.331952 122.58 201.048 122.58 
z
" clip-path="url(#pad3c3e171a)" style="fill: #ffffff; stroke: #000000; stroke-width: 2; stroke-linejoin: miter"/>
   </g>
   <g id="text_4">
    <!-- $v_t$ -->
    <g style="fill: #ff0000" transform="translate(168.198 110.2525) scale(0.16 -0.16)">
     <use xlink:href="#DejaVuSans-Oblique-76" transform="translate(0 0.3125)"/>
     <use xlink:href="#DejaVuSans-Oblique-74" transform="translate(59.179688 -16.09375) scale(0.7)"/>
    </g>
   </g>
   <g id="text_5">
    <!-- $G_2$ -->
    <g transform="translate(207.348 124.295) scale(0.16 -0.16)">
     <defs>
      <path id="DejaVuSans-Oblique-47" d="M 3494 697 
L 3738 1919 
L 2700 1919 
L 2797 2438 
L 4453 2438 
L 4050 384 
Q 3634 156 3143 32 
Q 2653 -91 2156 -91 
Q 1278 -91 783 396 
Q 288 884 288 1753 
Q 288 2475 589 3126 
Q 891 3778 1422 4213 
Q 1756 4484 2153 4617 
Q 2550 4750 3034 4750 
Q 3472 4750 3873 4639 
Q 4275 4528 4641 4306 
L 4513 3634 
Q 4231 3928 3853 4083 
Q 3475 4238 3047 4238 
Q 2550 4238 2172 4048 
Q 1794 3859 1497 3463 
Q 1244 3125 1098 2667 
Q 953 2209 953 1734 
Q 953 1081 1287 751 
Q 1622 422 2284 422 
Q 2616 422 2925 492 
Q 3234 563 3494 697 
z
" transform="scale(0.015625)"/>
      <path id="DejaVuSans-32" d="M 1228 531 
L 3431 531 
L 3431 0 
L 469 0 
L 469 531 
Q 828 903 1448 1529 
Q 2069 2156 2228 2338 
Q 2531 2678 2651 2914 
Q 2772 3150 2772 3378 
Q 2772 3750 2511 3984 
Q 2250 4219 1831 4219 
Q 1534 4219 1204 4116 
Q 875 4013 500 3803 
L 500 4441 
Q 881 4594 1212 4672 
Q 1544 4750 1819 4750 
Q 2544 4750 2975 4387 
Q 3406 4025 3406 3419 
Q 3406 3131 3298 2873 
Q 3191 2616 2906 2266 
Q 2828 2175 2409 1742 
Q 1991 1309 1228 531 
z
" transform="scale(0.015625)"/>
     </defs>
     <use xlink:href="#DejaVuSans-Oblique-47" transform="translate(0 0.78125)"/>
     <use xlink:href="#DejaVuSans-32" transform="translate(77.490234 -15.625) scale(0.7)"/>
    </g>
   </g>
   <g id="text_6">
    <!-- $r_{o2}$ -->
    <g transform="translate(429.648 160.295) scale(0.16 -0.16)">
     <defs>
      <path id="DejaVuSans-Oblique-6f" d="M 1625 -91 
Q 1009 -91 651 289 
Q 294 669 294 1325 
Q 294 1706 417 2101 
Q 541 2497 738 2766 
Q 1047 3184 1428 3384 
Q 1809 3584 2291 3584 
Q 2888 3584 3255 3212 
Q 3622 2841 3622 2241 
Q 3622 1825 3500 1412 
Q 3378 1000 3181 728 
Q 2875 309 2494 109 
Q 2113 -91 1625 -91 
z
M 891 1344 
Q 891 869 1089 633 
Q 1288 397 1691 397 
Q 2269 397 2648 901 
Q 3028 1406 3028 2181 
Q 3028 2634 2825 2865 
Q 2622 3097 2228 3097 
Q 1903 3097 1650 2945 
Q 1397 2794 1197 2484 
Q 1050 2253 970 1956 
Q 891 1659 891 1344 
z
" transform="scale(0.015625)"/>
     </defs>
     <use xlink:href="#DejaVuSans-Oblique-72"/>
     <use xlink:href="#DejaVuSans-Oblique-6f" transform="translate(41.113281 -16.40625) scale(0.7)"/>
     <use xlink:href="#DejaVuSans-32" transform="translate(83.94043 -16.40625) scale(0.7)"/>
    </g>
   </g>
   <g id="text_7">
    <!--   -->
    <g transform="translate(365.0055 160.295) scale(0.16 -0.16)">
     <defs>
      <path id="DejaVuSans-20" transform="scale(0.015625)"/>
     </defs>
     <use xlink:href="#DejaVuSans-20"/>
    </g>
   </g>
   <g id="text_8">
    <!-- $r_{o1}$ -->
    <g transform="translate(321.648 286.295) scale(0.16 -0.16)">
     <defs>
      <path id="DejaVuSans-31" d="M 794 531 
L 1825 531 
L 1825 4091 
L 703 3866 
L 703 4441 
L 1819 4666 
L 2450 4666 
L 2450 531 
L 3481 531 
L 3481 0 
L 794 0 
L 794 531 
z
" transform="scale(0.015625)"/>
     </defs>
     <use xlink:href="#DejaVuSans-Oblique-72"/>
     <use xlink:href="#DejaVuSans-Oblique-6f" transform="translate(41.113281 -16.40625) scale(0.7)"/>
     <use xlink:href="#DejaVuSans-31" transform="translate(83.94043 -16.40625) scale(0.7)"/>
    </g>
   </g>
   <g id="text_9">
    <!-- $i=0$ -->
    <g style="fill: #ff0000" transform="translate(254.848 286.295) scale(0.16 -0.16)">
     <defs>
      <path id="DejaVuSans-Oblique-69" d="M 1172 4863 
L 1747 4863 
L 1606 4134 
L 1031 4134 
L 1172 4863 
z
M 909 3500 
L 1484 3500 
L 800 0 
L 225 0 
L 909 3500 
z
" transform="scale(0.015625)"/>
      <path id="DejaVuSans-3d" d="M 678 2906 
L 4684 2906 
L 4684 2381 
L 678 2381 
L 678 2906 
z
M 678 1631 
L 4684 1631 
L 4684 1100 
L 678 1100 
L 678 1631 
z
" transform="scale(0.015625)"/>
      <path id="DejaVuSans-30" d="M 2034 4250 
Q 1547 4250 1301 3770 
Q 1056 3291 1056 2328 
Q 1056 1369 1301 889 
Q 1547 409 2034 409 
Q 2525 409 2770 889 
Q 3016 1369 3016 2328 
Q 3016 3291 2770 3770 
Q 2525 4250 2034 4250 
z
M 2034 4750 
Q 2819 4750 3233 4129 
Q 3647 3509 3647 2328 
Q 3647 1150 3233 529 
Q 2819 -91 2034 -91 
Q 1250 -91 836 529 
Q 422 1150 422 2328 
Q 422 3509 836 4129 
Q 1250 4750 2034 4750 
z
" transform="scale(0.015625)"/>
     </defs>
     <use xlink:href="#DejaVuSans-Oblique-69" transform="translate(0 0.015625)"/>
     <use xlink:href="#DejaVuSans-3d" transform="translate(47.265625 0.015625)"/>
     <use xlink:href="#DejaVuSans-30" transform="translate(150.537109 0.015625)"/>
    </g>
   </g>
   <g id="text_10">
    <!-- $floating$ -->
    <g transform="translate(312.648 52.28) scale(0.16 -0.16)">
     <defs>
      <path id="DejaVuSans-Oblique-66" d="M 3059 4863 
L 2969 4384 
L 2419 4384 
Q 2106 4384 1964 4261 
Q 1822 4138 1753 3809 
L 1691 3500 
L 2638 3500 
L 2553 3053 
L 1606 3053 
L 1013 0 
L 434 0 
L 1031 3053 
L 481 3053 
L 563 3500 
L 1113 3500 
L 1159 3744 
Q 1278 4363 1576 4613 
Q 1875 4863 2516 4863 
L 3059 4863 
z
" transform="scale(0.015625)"/>
      <path id="DejaVuSans-Oblique-6c" d="M 1172 4863 
L 1747 4863 
L 800 0 
L 225 0 
L 1172 4863 
z
" transform="scale(0.015625)"/>
      <path id="DejaVuSans-Oblique-6e" d="M 3566 2113 
L 3156 0 
L 2578 0 
L 2988 2091 
Q 3016 2238 3031 2350 
Q 3047 2463 3047 2528 
Q 3047 2791 2881 2937 
Q 2716 3084 2419 3084 
Q 1956 3084 1622 2776 
Q 1288 2469 1184 1941 
L 800 0 
L 225 0 
L 903 3500 
L 1478 3500 
L 1363 2950 
Q 1603 3253 1940 3418 
Q 2278 3584 2650 3584 
Q 3113 3584 3367 3334 
Q 3622 3084 3622 2631 
Q 3622 2519 3608 2391 
Q 3594 2263 3566 2113 
z
" transform="scale(0.015625)"/>
      <path id="DejaVuSans-Oblique-67" d="M 3816 3500 
L 3219 434 
Q 3047 -456 2561 -893 
Q 2075 -1331 1253 -1331 
Q 950 -1331 690 -1286 
Q 431 -1241 206 -1147 
L 313 -588 
Q 525 -725 762 -790 
Q 1000 -856 1269 -856 
Q 1816 -856 2167 -557 
Q 2519 -259 2631 300 
L 2681 563 
Q 2441 288 2122 144 
Q 1803 0 1434 0 
Q 903 0 598 351 
Q 294 703 294 1319 
Q 294 1803 478 2267 
Q 663 2731 997 3091 
Q 1219 3328 1514 3456 
Q 1809 3584 2131 3584 
Q 2484 3584 2746 3420 
Q 3009 3256 3138 2956 
L 3238 3500 
L 3816 3500 
z
M 2950 2216 
Q 2950 2641 2750 2872 
Q 2550 3103 2181 3103 
Q 1953 3103 1747 3012 
Q 1541 2922 1394 2759 
Q 1156 2491 1023 2127 
Q 891 1763 891 1375 
Q 891 944 1092 712 
Q 1294 481 1672 481 
Q 2219 481 2584 976 
Q 2950 1472 2950 2216 
z
" transform="scale(0.015625)"/>
     </defs>
     <use xlink:href="#DejaVuSans-Oblique-66" transform="translate(0 0.015625)"/>
     <use xlink:href="#DejaVuSans-Oblique-6c" transform="translate(35.205078 0.015625)"/>
     <use xlink:href="#DejaVuSans-Oblique-6f" transform="translate(62.988281 0.015625)"/>
     <use xlink:href="#DejaVuSans-Oblique-61" transform="translate(124.169922 0.015625)"/>
     <use xlink:href="#DejaVuSans-Oblique-74" transform="translate(185.449219 0.015625)"/>
     <use xlink:href="#DejaVuSans-Oblique-69" transform="translate(224.658203 0.015625)"/>
     <use xlink:href="#DejaVuSans-Oblique-6e" transform="translate(252.441406 0.015625)"/>
     <use xlink:href="#DejaVuSans-Oblique-67" transform="translate(315.820312 0.015625)"/>
    </g>
   </g>
   <g id="text_11">
    <!-- $i=0$ -->
    <g style="fill: #ff0000" transform="translate(256.648 52.295) scale(0.16 -0.16)">
     <use xlink:href="#DejaVuSans-Oblique-69" transform="translate(0 0.015625)"/>
     <use xlink:href="#DejaVuSans-3d" transform="translate(47.265625 0.015625)"/>
     <use xlink:href="#DejaVuSans-30" transform="translate(150.537109 0.015625)"/>
    </g>
   </g>
   <g id="text_12">
    <!-- $v_x=0$ -->
    <g style="fill: #0000ff" transform="translate(141.848 243.6375) scale(0.16 -0.16)">
     <defs>
      <path id="DejaVuSans-Oblique-78" d="M 3841 3500 
L 2234 1784 
L 3219 0 
L 2559 0 
L 1819 1388 
L 531 0 
L -166 0 
L 1556 1844 
L 641 3500 
L 1300 3500 
L 1972 2234 
L 3144 3500 
L 3841 3500 
z
" transform="scale(0.015625)"/>
     </defs>
     <use xlink:href="#DejaVuSans-Oblique-76" transform="translate(0 0.78125)"/>
     <use xlink:href="#DejaVuSans-Oblique-78" transform="translate(59.179688 -15.625) scale(0.7)"/>
     <use xlink:href="#DejaVuSans-3d" transform="translate(122.822266 0.78125)"/>
     <use xlink:href="#DejaVuSans-30" transform="translate(226.09375 0.78125)"/>
    </g>
   </g>
   <g id="text_13">
    <!-- $-$ -->
    <g transform="translate(14.328 244.295) scale(0.16 -0.16)">
     <defs>
      <path id="DejaVuSans-2212" d="M 678 2272 
L 4684 2272 
L 4684 1741 
L 678 1741 
L 678 2272 
z
" transform="scale(0.015625)"/>
     </defs>
     <use xlink:href="#DejaVuSans-2212" transform="translate(0 0.5)"/>
    </g>
   </g>
   <g id="text_14">
    <!--   -->
    <g transform="translate(18.5055 256.295) scale(0.16 -0.16)">
     <use xlink:href="#DejaVuSans-20"/>
    </g>
   </g>
   <g id="text_15">
    <!-- $v_{d}$ -->
    <g transform="translate(12.488 268.295) scale(0.16 -0.16)">
     <use xlink:href="#DejaVuSans-Oblique-76" transform="translate(0 0.3125)"/>
     <use xlink:href="#DejaVuSans-Oblique-64" transform="translate(59.179688 -16.09375) scale(0.7)"/>
    </g>
   </g>
   <g id="text_16">
    <!--   -->
    <g transform="translate(18.5055 280.295) scale(0.16 -0.16)">
     <use xlink:href="#DejaVuSans-20"/>
    </g>
   </g>
   <g id="text_17">
    <!-- $+$ -->
    <g transform="translate(14.328 292.295) scale(0.16 -0.16)">
     <defs>
      <path id="DejaVuSans-2b" d="M 2944 4013 
L 2944 2272 
L 4684 2272 
L 4684 1741 
L 2944 1741 
L 2944 0 
L 2419 0 
L 2419 1741 
L 678 1741 
L 678 2272 
L 2419 2272 
L 2419 4013 
L 2944 4013 
z
" transform="scale(0.015625)"/>
     </defs>
     <use xlink:href="#DejaVuSans-2b" transform="translate(0 0.296875)"/>
    </g>
   </g>
   <g id="text_18">
    <!-- $V_{BIAS}=0$ -->
    <g transform="translate(33.648 333.815) scale(0.16 -0.16)">
     <defs>
      <path id="DejaVuSans-Oblique-56" d="M 1319 0 
L 500 4666 
L 1119 4666 
L 1797 653 
L 4063 4666 
L 4750 4666 
L 2053 0 
L 1319 0 
z
" transform="scale(0.015625)"/>
      <path id="DejaVuSans-Oblique-42" d="M 1081 4666 
L 2694 4666 
Q 3350 4666 3675 4422 
Q 4000 4178 4000 3688 
Q 4000 3238 3720 2911 
Q 3441 2584 2988 2516 
Q 3375 2428 3569 2181 
Q 3763 1934 3763 1522 
Q 3763 819 3242 409 
Q 2722 0 1819 0 
L 172 0 
L 1081 4666 
z
M 1234 2228 
L 903 519 
L 1919 519 
Q 2491 519 2800 781 
Q 3109 1044 3109 1522 
Q 3109 1891 2904 2059 
Q 2700 2228 2247 2228 
L 1234 2228 
z
M 1606 4147 
L 1331 2741 
L 2272 2741 
Q 2775 2741 3058 2959 
Q 3341 3178 3341 3566 
Q 3341 3869 3150 4008 
Q 2959 4147 2541 4147 
L 1606 4147 
z
" transform="scale(0.015625)"/>
      <path id="DejaVuSans-Oblique-49" d="M 1081 4666 
L 1716 4666 
L 806 0 
L 172 0 
L 1081 4666 
z
" transform="scale(0.015625)"/>
      <path id="DejaVuSans-Oblique-41" d="M 2356 4666 
L 3072 4666 
L 3938 0 
L 3278 0 
L 3084 1197 
L 984 1197 
L 325 0 
L -341 0 
L 2356 4666 
z
M 2584 4044 
L 1275 1722 
L 2988 1722 
L 2584 4044 
z
" transform="scale(0.015625)"/>
      <path id="DejaVuSans-Oblique-53" d="M 3859 4513 
L 3738 3897 
Q 3422 4066 3111 4152 
Q 2800 4238 2509 4238 
Q 1944 4238 1609 3991 
Q 1275 3744 1275 3334 
Q 1275 3109 1398 2989 
Q 1522 2869 2034 2731 
L 2413 2638 
Q 3053 2472 3303 2217 
Q 3553 1963 3553 1503 
Q 3553 797 2998 353 
Q 2444 -91 1538 -91 
Q 1166 -91 791 -17 
Q 416 56 38 206 
L 166 856 
Q 513 641 861 531 
Q 1209 422 1556 422 
Q 2147 422 2503 684 
Q 2859 947 2859 1369 
Q 2859 1650 2717 1795 
Q 2575 1941 2106 2059 
L 1728 2156 
Q 1081 2325 845 2545 
Q 609 2766 609 3163 
Q 609 3859 1145 4304 
Q 1681 4750 2541 4750 
Q 2875 4750 3203 4690 
Q 3531 4631 3859 4513 
z
" transform="scale(0.015625)"/>
     </defs>
     <use xlink:href="#DejaVuSans-Oblique-56" transform="translate(0 0.78125)"/>
     <use xlink:href="#DejaVuSans-Oblique-42" transform="translate(68.408203 -15.625) scale(0.7)"/>
     <use xlink:href="#DejaVuSans-Oblique-49" transform="translate(116.430664 -15.625) scale(0.7)"/>
     <use xlink:href="#DejaVuSans-Oblique-41" transform="translate(137.075195 -15.625) scale(0.7)"/>
     <use xlink:href="#DejaVuSans-Oblique-53" transform="translate(184.960938 -15.625) scale(0.7)"/>
     <use xlink:href="#DejaVuSans-3d" transform="translate(251.611328 0.78125)"/>
     <use xlink:href="#DejaVuSans-30" transform="translate(354.882812 0.78125)"/>
    </g>
   </g>
   <g id="text_19">
    <!-- $+$ -->
    <g transform="translate(221.328 151.295) scale(0.16 -0.16)">
     <use xlink:href="#DejaVuSans-2b" transform="translate(0 0.296875)"/>
    </g>
   </g>
   <g id="text_20">
    <!-- $v_{gs2}$ -->
    <g transform="translate(240.008 176.6625) scale(0.16 -0.16)">
     <defs>
      <path id="DejaVuSans-Oblique-73" d="M 3200 3397 
L 3091 2853 
Q 2863 2978 2609 3040 
Q 2356 3103 2088 3103 
Q 1634 3103 1373 2948 
Q 1113 2794 1113 2528 
Q 1113 2219 1719 2053 
Q 1766 2041 1788 2034 
L 1972 1978 
Q 2547 1819 2739 1644 
Q 2931 1469 2931 1166 
Q 2931 609 2489 259 
Q 2047 -91 1331 -91 
Q 1053 -91 747 -37 
Q 441 16 72 128 
L 184 722 
Q 500 559 806 475 
Q 1113 391 1394 391 
Q 1816 391 2080 572 
Q 2344 753 2344 1031 
Q 2344 1331 1650 1516 
L 1591 1531 
L 1394 1581 
Q 956 1697 753 1886 
Q 550 2075 550 2369 
Q 550 2928 970 3256 
Q 1391 3584 2113 3584 
Q 2397 3584 2667 3537 
Q 2938 3491 3200 3397 
z
" transform="scale(0.015625)"/>
     </defs>
     <use xlink:href="#DejaVuSans-Oblique-76" transform="translate(0 0.3125)"/>
     <use xlink:href="#DejaVuSans-Oblique-67" transform="translate(59.179688 -16.09375) scale(0.7)"/>
     <use xlink:href="#DejaVuSans-Oblique-73" transform="translate(103.613281 -16.09375) scale(0.7)"/>
     <use xlink:href="#DejaVuSans-32" transform="translate(140.083008 -16.09375) scale(0.7)"/>
    </g>
   </g>
   <g id="text_21">
    <!-- $-$ -->
    <g transform="translate(275.328 205.295) scale(0.16 -0.16)">
     <use xlink:href="#DejaVuSans-2212" transform="translate(0 0.5)"/>
    </g>
   </g>
   <g id="patch_9">
    <path d="M 309.048 86.58 
C 309.764048 86.58 310.450866 86.295511 310.957188 85.789188 
C 311.463511 85.282866 311.748 84.596048 311.748 83.88 
C 311.748 83.163952 311.463511 82.477134 310.957188 81.970812 
C 310.450866 81.464489 309.764048 81.18 309.048 81.18 
C 308.331952 81.18 307.645134 81.464489 307.138812 81.970812 
C 306.632489 82.477134 306.348 83.163952 306.348 83.88 
C 306.348 84.596048 306.632489 85.282866 307.138812 85.789188 
C 307.645134 86.295511 308.331952 86.58 309.048 86.58 
z
" clip-path="url(#pad3c3e171a)" style="fill: #ff1493; stroke: #ff1493; stroke-width: 2; stroke-linejoin: miter"/>
   </g>
   <g id="text_22">
    <!-- $D_2$ -->
    <g transform="translate(315.348 77.495) scale(0.16 -0.16)">
     <defs>
      <path id="DejaVuSans-Oblique-44" d="M 1081 4666 
L 2438 4666 
Q 3519 4666 4070 4208 
Q 4622 3750 4622 2847 
Q 4622 2250 4412 1698 
Q 4203 1147 3834 769 
Q 3463 381 2891 190 
Q 2319 0 1538 0 
L 172 0 
L 1081 4666 
z
M 1613 4147 
L 909 519 
L 1734 519 
Q 2794 519 3375 1128 
Q 3956 1738 3956 2847 
Q 3956 3519 3581 3833 
Q 3206 4147 2406 4147 
L 1613 4147 
z
" transform="scale(0.015625)"/>
     </defs>
     <use xlink:href="#DejaVuSans-Oblique-44" transform="translate(0 0.09375)"/>
     <use xlink:href="#DejaVuSans-32" transform="translate(77.001953 -16.3125) scale(0.7)"/>
    </g>
   </g>
   <g id="patch_10">
    <path d="M 309.048 230.58 
C 309.764048 230.58 310.450866 230.295511 310.957188 229.789188 
C 311.463511 229.282866 311.748 228.596048 311.748 227.88 
C 311.748 227.163952 311.463511 226.477134 310.957188 225.970812 
C 310.450866 225.464489 309.764048 225.18 309.048 225.18 
C 308.331952 225.18 307.645134 225.464489 307.138812 225.970812 
C 306.632489 226.477134 306.348 227.163952 306.348 227.88 
C 306.348 228.596048 306.632489 229.282866 307.138812 229.789188 
C 307.645134 230.295511 308.331952 230.58 309.048 230.58 
z
" clip-path="url(#pad3c3e171a)" style="fill: #ff1493; stroke: #ff1493; stroke-width: 2; stroke-linejoin: miter"/>
   </g>
   <g id="text_23">
    <!-- $S_2$ -->
    <g transform="translate(314.568 221.8525) scale(0.16 -0.16)">
     <use xlink:href="#DejaVuSans-Oblique-53" transform="translate(0 0.78125)"/>
     <use xlink:href="#DejaVuSans-32" transform="translate(63.476562 -15.625) scale(0.7)"/>
    </g>
   </g>
  </g>
 </g>
 <defs>
  <clipPath id="pad3c3e171a">
   <rect x="0" y="-0" width="461.88" height="345.6"/>
  </clipPath>
 </defs>
</svg>
