<?xml version="1.0" encoding="utf-8" standalone="no"?>
<!DOCTYPE svg PUBLIC "-//W3C//DTD SVG 1.1//EN"
  "http://www.w3.org/Graphics/SVG/1.1/DTD/svg11.dtd">
<svg xmlns:xlink="http://www.w3.org/1999/xlink" width="781.372573pt" height="239.56pt" viewBox="0 0 781.372573 239.56" xmlns="http://www.w3.org/2000/svg" version="1.1">
 <metadata>
  <rdf:RDF xmlns:dc="http://purl.org/dc/elements/1.1/" xmlns:cc="http://creativecommons.org/ns#" xmlns:rdf="http://www.w3.org/1999/02/22-rdf-syntax-ns#">
   <cc:Work>
    <dc:type rdf:resource="http://purl.org/dc/dcmitype/StillImage"/>
    <dc:date>2025-03-25T23:31:46.809449</dc:date>
    <dc:format>image/svg+xml</dc:format>
    <dc:creator>
     <cc:Agent>
      <dc:title>Matplotlib v3.9.2, https://matplotlib.org/</dc:title>
     </cc:Agent>
    </dc:creator>
   </cc:Work>
  </rdf:RDF>
 </metadata>
 <defs>
  <style type="text/css">*{stroke-linejoin: round; stroke-linecap: butt}</style>
 </defs>
 <g id="figure_1">
  <g id="patch_1">
   <path d="M 0 239.56 
L 781.372573 239.56 
L 781.372573 0 
L 0 0 
z
" style="fill: #ffffff"/>
  </g>
  <g id="axes_1">
   <g id="line2d_1">
    <path d="M 136.956 88.58 
L 136.956 43.58 
L 214.898286 88.58 
L 136.956 133.58 
L 136.956 88.58 
M 214.898286 88.58 
" clip-path="url(#pa106dad38d)" style="fill: none; stroke: #000000; stroke-width: 2; stroke-linecap: round"/>
   </g>
   <g id="line2d_2">
    <path d="M 143.098786 66.08 
L 150.298786 66.08 
" clip-path="url(#pa106dad38d)" style="fill: none; stroke: #000000; stroke-width: 2; stroke-linecap: round"/>
   </g>
   <g id="line2d_3">
    <path d="M 143.098786 111.08 
L 150.298786 111.08 
" clip-path="url(#pa106dad38d)" style="fill: none; stroke: #000000; stroke-width: 2; stroke-linecap: round"/>
   </g>
   <g id="line2d_4">
    <path d="M 146.698786 114.68 
L 146.698786 107.48 
" clip-path="url(#pa106dad38d)" style="fill: none; stroke: #000000; stroke-width: 2; stroke-linecap: round"/>
   </g>
   <g id="line2d_5">
    <path d="M 114.456 66.08 
L 136.956 66.08 
" clip-path="url(#pa106dad38d)" style="fill: none; stroke: #000000; stroke-width: 2; stroke-linecap: round"/>
   </g>
   <g id="line2d_6">
    <path d="M 114.456 111.08 
L 136.956 111.08 
" clip-path="url(#pa106dad38d)" style="fill: none; stroke: #000000; stroke-width: 2; stroke-linecap: round"/>
   </g>
   <g id="line2d_7">
    <path d="M 214.898286 88.58 
L 237.398286 88.58 
" clip-path="url(#pa106dad38d)" style="fill: none; stroke: #000000; stroke-width: 2; stroke-linecap: round"/>
   </g>
   <g id="line2d_8">
    <path d="M 114.456 111.08 
L 114.456 120.08 
L 114.456 129.08 
" clip-path="url(#pa106dad38d)" style="fill: none; stroke: #000000; stroke-width: 2; stroke-linecap: round"/>
   </g>
   <g id="line2d_9">
    <path d="M 114.456 129.08 
L 114.456 129.08 
L 105.456 129.08 
L 123.456 129.08 
M 108.156 133.4 
L 120.756 133.4 
M 112.656 137.72 
L 116.256 137.72 
" clip-path="url(#pa106dad38d)" style="fill: none; stroke: #000000; stroke-width: 2; stroke-linecap: round"/>
   </g>
   <g id="line2d_10">
    <path d="M 114.456 66.08 
L 96.456 66.08 
L 93.456 75.08 
L 87.456 57.08 
L 81.456 75.08 
L 75.456 57.08 
L 69.456 75.08 
L 63.456 57.08 
L 60.456 66.08 
L 42.456 66.08 
" clip-path="url(#pa106dad38d)" style="fill: none; stroke: #000000; stroke-width: 2; stroke-linecap: round"/>
   </g>
   <g id="line2d_11">
    <path d="M 114.456 66.08 
L 114.456 48.08 
L 114.456 30.08 
" clip-path="url(#pa106dad38d)" style="fill: none; stroke: #000000; stroke-width: 2; stroke-linecap: round"/>
   </g>
   <g id="line2d_12">
    <path d="M 114.456 30.08 
L 157.927143 30.08 
L 160.927143 21.08 
L 166.927143 39.08 
L 172.927143 21.08 
L 178.927143 39.08 
L 184.927143 21.08 
L 190.927143 39.08 
L 193.927143 30.08 
L 237.398286 30.08 
" clip-path="url(#pa106dad38d)" style="fill: none; stroke: #000000; stroke-width: 2; stroke-linecap: round"/>
   </g>
   <g id="line2d_13">
    <path d="M 237.398286 30.08 
L 237.398286 59.33 
L 237.398286 88.58 
" clip-path="url(#pa106dad38d)" style="fill: none; stroke: #000000; stroke-width: 2; stroke-linecap: round"/>
   </g>
   <g id="line2d_14">
    <path d="M 237.398286 88.58 
L 246.398286 88.58 
L 255.398286 88.58 
" clip-path="url(#pa106dad38d)" style="fill: none; stroke: #000000; stroke-width: 2; stroke-linecap: round"/>
   </g>
   <g id="line2d_15">
    <path d="M 619.898286 88.58 
L 619.898286 43.58 
L 697.840573 88.58 
L 619.898286 133.58 
L 619.898286 88.58 
M 697.840573 88.58 
" clip-path="url(#pa106dad38d)" style="fill: none; stroke: #000000; stroke-width: 2; stroke-linecap: round"/>
   </g>
   <g id="line2d_16">
    <path d="M 626.041072 66.08 
L 633.241072 66.08 
" clip-path="url(#pa106dad38d)" style="fill: none; stroke: #000000; stroke-width: 2; stroke-linecap: round"/>
   </g>
   <g id="line2d_17">
    <path d="M 626.041072 111.08 
L 633.241072 111.08 
" clip-path="url(#pa106dad38d)" style="fill: none; stroke: #000000; stroke-width: 2; stroke-linecap: round"/>
   </g>
   <g id="line2d_18">
    <path d="M 629.641072 114.68 
L 629.641072 107.48 
" clip-path="url(#pa106dad38d)" style="fill: none; stroke: #000000; stroke-width: 2; stroke-linecap: round"/>
   </g>
   <g id="line2d_19">
    <path d="M 597.398286 66.08 
L 619.898286 66.08 
" clip-path="url(#pa106dad38d)" style="fill: none; stroke: #000000; stroke-width: 2; stroke-linecap: round"/>
   </g>
   <g id="line2d_20">
    <path d="M 597.398286 111.08 
L 619.898286 111.08 
" clip-path="url(#pa106dad38d)" style="fill: none; stroke: #000000; stroke-width: 2; stroke-linecap: round"/>
   </g>
   <g id="line2d_21">
    <path d="M 697.840573 88.58 
L 720.340573 88.58 
" clip-path="url(#pa106dad38d)" style="fill: none; stroke: #000000; stroke-width: 2; stroke-linecap: round"/>
   </g>
   <g id="line2d_22">
    <path d="M 597.398286 111.08 
L 588.398286 111.08 
L 579.398286 111.08 
" clip-path="url(#pa106dad38d)" style="fill: none; stroke: #000000; stroke-width: 2; stroke-linecap: round"/>
   </g>
   <g id="line2d_23">
    <path d="M 597.398286 66.08 
L 579.398286 66.08 
L 576.398286 75.08 
L 570.398286 57.08 
L 564.398286 75.08 
L 558.398286 57.08 
L 552.398286 75.08 
L 546.398286 57.08 
L 543.398286 66.08 
L 525.398286 66.08 
" clip-path="url(#pa106dad38d)" style="fill: none; stroke: #000000; stroke-width: 2; stroke-linecap: round"/>
   </g>
   <g id="line2d_24">
    <path d="M 525.398286 66.08 
L 525.398286 66.08 
L 525.398286 57.08 
L 525.398286 75.08 
M 521.078286 59.78 
L 521.078286 72.38 
M 516.758286 64.28 
L 516.758286 67.88 
" clip-path="url(#pa106dad38d)" style="fill: none; stroke: #000000; stroke-width: 2; stroke-linecap: round"/>
   </g>
   <g id="line2d_25">
    <path d="M 597.398286 66.08 
L 597.398286 48.08 
L 597.398286 30.08 
" clip-path="url(#pa106dad38d)" style="fill: none; stroke: #000000; stroke-width: 2; stroke-linecap: round"/>
   </g>
   <g id="line2d_26">
    <path d="M 597.398286 30.08 
L 640.86943 30.08 
L 643.86943 21.08 
L 649.86943 39.08 
L 655.86943 21.08 
L 661.86943 39.08 
L 667.86943 21.08 
L 673.86943 39.08 
L 676.86943 30.08 
L 720.340573 30.08 
" clip-path="url(#pa106dad38d)" style="fill: none; stroke: #000000; stroke-width: 2; stroke-linecap: round"/>
   </g>
   <g id="line2d_27">
    <path d="M 720.340573 30.08 
L 720.340573 59.33 
L 720.340573 88.58 
" clip-path="url(#pa106dad38d)" style="fill: none; stroke: #000000; stroke-width: 2; stroke-linecap: round"/>
   </g>
   <g id="line2d_28">
    <path d="M 720.340573 88.58 
L 729.340573 88.58 
L 738.340573 88.58 
" clip-path="url(#pa106dad38d)" style="fill: none; stroke: #000000; stroke-width: 2; stroke-linecap: round"/>
   </g>
   <g id="text_1">
    <!-- $a_D$ -->
    <g transform="translate(157.407143 92.995) scale(0.16 -0.16)">
     <defs>
      <path id="DejaVuSerif-Italic-61" d="M 2325 519 
Q 1909 -91 1238 -91 
Q 688 -91 409 281 
Q 216 544 216 919 
Q 216 1078 250 1256 
Q 463 2359 1231 2928 
Q 1884 3413 2675 3413 
Q 3206 3413 3388 3322 
L 2806 331 
L 3300 331 
L 3238 0 
L 2225 0 
L 2325 519 
z
M 822 938 
Q 822 269 1469 269 
Q 1863 269 2130 583 
Q 2397 897 2516 1497 
L 2806 3003 
L 2806 3003 
Q 2806 3094 2556 3094 
Q 1956 3094 1491 2625 
Q 1028 2153 863 1297 
Q 822 1097 822 938 
z
" transform="scale(0.015625)"/>
      <path id="DejaVuSerif-Italic-44" d="M 1194 331 
L 1775 331 
Q 2684 331 3271 850 
Q 3859 1369 4048 2337 
Q 4238 3306 3852 3818 
Q 3466 4331 2553 4331 
L 1972 4331 
L 1194 331 
z
M -97 0 
L -34 331 
L 559 331 
L 1338 4331 
L 744 4331 
L 809 4666 
L 2666 4666 
Q 3872 4666 4426 4050 
Q 4981 3434 4766 2338 
Q 4553 1238 3758 619 
Q 2963 0 1759 0 
L -97 0 
z
" transform="scale(0.015625)"/>
     </defs>
     <use xlink:href="#DejaVuSerif-Italic-61" transform="translate(0 0.671875)"/>
     <use xlink:href="#DejaVuSerif-Italic-44" transform="translate(59.619141 -14.9) scale(0.7)"/>
    </g>
   </g>
   <g id="patch_2">
    <path d="M 114.456 68.78 
C 115.172048 68.78 115.858866 68.495511 116.365188 67.989188 
C 116.871511 67.482866 117.156 66.796048 117.156 66.08 
C 117.156 65.363952 116.871511 64.677134 116.365188 64.170812 
C 115.858866 63.664489 115.172048 63.38 114.456 63.38 
C 113.739952 63.38 113.053134 63.664489 112.546812 64.170812 
C 112.040489 64.677134 111.756 65.363952 111.756 66.08 
C 111.756 66.796048 112.040489 67.482866 112.546812 67.989188 
C 113.053134 68.495511 113.739952 68.78 114.456 68.78 
z
" clip-path="url(#pa106dad38d)" style="stroke: #000000; stroke-width: 2; stroke-linejoin: miter"/>
   </g>
   <g id="text_2">
    <!-- $R_{1}$ -->
    <g transform="translate(70.446 90.8375) scale(0.16 -0.16)">
     <defs>
      <path id="DejaVuSans-Oblique-52" d="M 1613 4147 
L 1294 2491 
L 2106 2491 
Q 2584 2491 2879 2755 
Q 3175 3019 3175 3444 
Q 3175 3784 2976 3965 
Q 2778 4147 2406 4147 
L 1613 4147 
z
M 2772 2241 
Q 2972 2194 3105 2009 
Q 3238 1825 3413 1275 
L 3809 0 
L 3144 0 
L 2778 1197 
Q 2638 1659 2453 1815 
Q 2269 1972 1888 1972 
L 1191 1972 
L 806 0 
L 172 0 
L 1081 4666 
L 2503 4666 
Q 3150 4666 3495 4373 
Q 3841 4081 3841 3531 
Q 3841 3044 3547 2687 
Q 3253 2331 2772 2241 
z
" transform="scale(0.015625)"/>
      <path id="DejaVuSans-31" d="M 794 531 
L 1825 531 
L 1825 4091 
L 703 3866 
L 703 4441 
L 1819 4666 
L 2450 4666 
L 2450 531 
L 3481 531 
L 3481 0 
L 794 0 
L 794 531 
z
" transform="scale(0.015625)"/>
     </defs>
     <use xlink:href="#DejaVuSans-Oblique-52" transform="translate(0 0.09375)"/>
     <use xlink:href="#DejaVuSans-31" transform="translate(69.482422 -16.3125) scale(0.7)"/>
    </g>
   </g>
   <g id="text_3">
    <!-- $v_{in}$ -->
    <g transform="translate(18.696 70.495) scale(0.16 -0.16)">
     <defs>
      <path id="DejaVuSans-Oblique-76" d="M 459 3500 
L 1069 3500 
L 1581 525 
L 3256 3500 
L 3866 3500 
L 1875 0 
L 1100 0 
L 459 3500 
z
" transform="scale(0.015625)"/>
      <path id="DejaVuSans-Oblique-69" d="M 1172 4863 
L 1747 4863 
L 1606 4134 
L 1031 4134 
L 1172 4863 
z
M 909 3500 
L 1484 3500 
L 800 0 
L 225 0 
L 909 3500 
z
" transform="scale(0.015625)"/>
      <path id="DejaVuSans-Oblique-6e" d="M 3566 2113 
L 3156 0 
L 2578 0 
L 2988 2091 
Q 3016 2238 3031 2350 
Q 3047 2463 3047 2528 
Q 3047 2791 2881 2937 
Q 2716 3084 2419 3084 
Q 1956 3084 1622 2776 
Q 1288 2469 1184 1941 
L 800 0 
L 225 0 
L 903 3500 
L 1478 3500 
L 1363 2950 
Q 1603 3253 1940 3418 
Q 2278 3584 2650 3584 
Q 3113 3584 3367 3334 
Q 3622 3084 3622 2631 
Q 3622 2519 3608 2391 
Q 3594 2263 3566 2113 
z
" transform="scale(0.015625)"/>
     </defs>
     <use xlink:href="#DejaVuSans-Oblique-76" transform="translate(0 0.3125)"/>
     <use xlink:href="#DejaVuSans-Oblique-69" transform="translate(59.179688 -16.09375) scale(0.7)"/>
     <use xlink:href="#DejaVuSans-Oblique-6e" transform="translate(78.62793 -16.09375) scale(0.7)"/>
    </g>
   </g>
   <g id="text_4">
    <!-- $R_2$ -->
    <g transform="translate(166.567143 14.1525) scale(0.16 -0.16)">
     <defs>
      <path id="DejaVuSans-32" d="M 1228 531 
L 3431 531 
L 3431 0 
L 469 0 
L 469 531 
Q 828 903 1448 1529 
Q 2069 2156 2228 2338 
Q 2531 2678 2651 2914 
Q 2772 3150 2772 3378 
Q 2772 3750 2511 3984 
Q 2250 4219 1831 4219 
Q 1534 4219 1204 4116 
Q 875 4013 500 3803 
L 500 4441 
Q 881 4594 1212 4672 
Q 1544 4750 1819 4750 
Q 2544 4750 2975 4387 
Q 3406 4025 3406 3419 
Q 3406 3131 3298 2873 
Q 3191 2616 2906 2266 
Q 2828 2175 2409 1742 
Q 1991 1309 1228 531 
z
" transform="scale(0.015625)"/>
     </defs>
     <use xlink:href="#DejaVuSans-Oblique-52" transform="translate(0 0.09375)"/>
     <use xlink:href="#DejaVuSans-32" transform="translate(69.482422 -16.3125) scale(0.7)"/>
    </g>
   </g>
   <g id="patch_3">
    <path d="M 237.398286 91.28 
C 238.114335 91.28 238.801152 90.995511 239.307475 90.489188 
C 239.813797 89.982866 240.098286 89.296048 240.098286 88.58 
C 240.098286 87.863952 239.813797 87.177134 239.307475 86.670812 
C 238.801152 86.164489 238.114335 85.88 237.398286 85.88 
C 236.682238 85.88 235.995421 86.164489 235.489098 86.670812 
C 234.982775 87.177134 234.698286 87.863952 234.698286 88.58 
C 234.698286 89.296048 234.982775 89.982866 235.489098 90.489188 
C 235.995421 90.995511 236.682238 91.28 237.398286 91.28 
z
" clip-path="url(#pa106dad38d)" style="stroke: #000000; stroke-width: 2; stroke-linejoin: miter"/>
   </g>
   <g id="text_5">
    <!-- $v_{out}$ -->
    <g transform="translate(258.998286 92.995) scale(0.16 -0.16)">
     <defs>
      <path id="DejaVuSans-Oblique-6f" d="M 1625 -91 
Q 1009 -91 651 289 
Q 294 669 294 1325 
Q 294 1706 417 2101 
Q 541 2497 738 2766 
Q 1047 3184 1428 3384 
Q 1809 3584 2291 3584 
Q 2888 3584 3255 3212 
Q 3622 2841 3622 2241 
Q 3622 1825 3500 1412 
Q 3378 1000 3181 728 
Q 2875 309 2494 109 
Q 2113 -91 1625 -91 
z
M 891 1344 
Q 891 869 1089 633 
Q 1288 397 1691 397 
Q 2269 397 2648 901 
Q 3028 1406 3028 2181 
Q 3028 2634 2825 2865 
Q 2622 3097 2228 3097 
Q 1903 3097 1650 2945 
Q 1397 2794 1197 2484 
Q 1050 2253 970 1956 
Q 891 1659 891 1344 
z
" transform="scale(0.015625)"/>
      <path id="DejaVuSans-Oblique-75" d="M 428 1388 
L 838 3500 
L 1416 3500 
L 1006 1409 
Q 975 1256 961 1147 
Q 947 1038 947 966 
Q 947 700 1109 554 
Q 1272 409 1569 409 
Q 2031 409 2368 721 
Q 2706 1034 2809 1563 
L 3194 3500 
L 3769 3500 
L 3091 0 
L 2516 0 
L 2631 550 
Q 2388 244 2052 76 
Q 1716 -91 1338 -91 
Q 878 -91 622 161 
Q 366 413 366 863 
Q 366 956 381 1097 
Q 397 1238 428 1388 
z
" transform="scale(0.015625)"/>
      <path id="DejaVuSans-Oblique-74" d="M 2706 3500 
L 2619 3053 
L 1472 3053 
L 1100 1153 
Q 1081 1047 1072 975 
Q 1063 903 1063 863 
Q 1063 663 1183 572 
Q 1303 481 1569 481 
L 2150 481 
L 2053 0 
L 1503 0 
Q 991 0 739 200 
Q 488 400 488 806 
Q 488 878 497 964 
Q 506 1050 525 1153 
L 897 3053 
L 409 3053 
L 500 3500 
L 978 3500 
L 1172 4494 
L 1747 4494 
L 1556 3500 
L 2706 3500 
z
" transform="scale(0.015625)"/>
     </defs>
     <use xlink:href="#DejaVuSans-Oblique-76" transform="translate(0 0.3125)"/>
     <use xlink:href="#DejaVuSans-Oblique-6f" transform="translate(59.179688 -16.09375) scale(0.7)"/>
     <use xlink:href="#DejaVuSans-Oblique-75" transform="translate(102.006836 -16.09375) scale(0.7)"/>
     <use xlink:href="#DejaVuSans-Oblique-74" transform="translate(146.37207 -16.09375) scale(0.7)"/>
    </g>
   </g>
   <g id="text_6">
    <!-- $L = \dfrac{R_1}{R_1 + R_2} \cdot a_D$ -->
    <g transform="translate(57.416 173.24) scale(0.16 -0.16)">
     <defs>
      <path id="DejaVuSerif-Italic-4c" d="M -97 0 
L -34 331 
L 559 331 
L 1338 4331 
L 744 4331 
L 809 4666 
L 2631 4666 
L 2566 4331 
L 1972 4331 
L 1206 384 
L 3338 384 
L 3488 1166 
L 3872 1166 
L 3647 0 
L -97 0 
z
" transform="scale(0.015625)"/>
      <path id="DejaVuSerif-3d" d="M 678 2894 
L 4684 2894 
L 4684 2394 
L 678 2394 
L 678 2894 
z
M 678 1619 
L 4684 1619 
L 4684 1119 
L 678 1119 
L 678 1619 
z
" transform="scale(0.015625)"/>
      <path id="DejaVuSerif-Italic-52" d="M 3066 2316 
Q 3272 2256 3403 2114 
Q 3534 1972 3609 1716 
L 4016 331 
L 4584 331 
L 4522 0 
L 3422 0 
L 2981 1484 
Q 2856 1916 2706 2042 
Q 2556 2169 2250 2169 
L 1553 2169 
L 1194 331 
L 1853 331 
L 1791 0 
L -97 0 
L -34 331 
L 559 331 
L 1338 4331 
L 744 4331 
L 809 4666 
L 3175 4666 
Q 3856 4666 4164 4341 
Q 4472 4016 4356 3419 
Q 4263 2938 3938 2661 
Q 3613 2384 3066 2316 
z
M 1619 2503 
L 2541 2503 
Q 3013 2503 3280 2726 
Q 3547 2950 3639 3419 
Q 3731 3888 3548 4109 
Q 3366 4331 2894 4331 
L 1972 4331 
L 1619 2503 
z
" transform="scale(0.015625)"/>
      <path id="DejaVuSerif-31" d="M 909 0 
L 909 331 
L 1722 331 
L 1722 4213 
L 781 3603 
L 781 4013 
L 1919 4750 
L 2350 4750 
L 2350 331 
L 3163 331 
L 3163 0 
L 909 0 
z
" transform="scale(0.015625)"/>
      <path id="DejaVuSerif-2b" d="M 2931 4013 
L 2931 2259 
L 4684 2259 
L 4684 1753 
L 2931 1753 
L 2931 0 
L 2431 0 
L 2431 1753 
L 678 1753 
L 678 2259 
L 2431 2259 
L 2431 4013 
L 2931 4013 
z
" transform="scale(0.015625)"/>
      <path id="DejaVuSerif-32" d="M 819 3553 
L 469 3553 
L 469 4384 
Q 803 4563 1142 4656 
Q 1481 4750 1806 4750 
Q 2534 4750 2956 4397 
Q 3378 4044 3378 3438 
Q 3378 2753 2422 1800 
Q 2347 1728 2309 1691 
L 1131 513 
L 3078 513 
L 3078 1088 
L 3444 1088 
L 3444 0 
L 434 0 
L 434 341 
L 1850 1753 
Q 2319 2222 2519 2614 
Q 2719 3006 2719 3438 
Q 2719 3909 2473 4175 
Q 2228 4441 1797 4441 
Q 1350 4441 1106 4219 
Q 863 3997 819 3553 
z
" transform="scale(0.015625)"/>
      <path id="DejaVuSerif-22c5" d="M 678 2222 
Q 678 2397 798 2517 
Q 919 2638 1097 2638 
Q 1269 2638 1391 2516 
Q 1513 2394 1513 2222 
Q 1513 2047 1391 1926 
Q 1269 1806 1097 1806 
Q 919 1806 798 1925 
Q 678 2044 678 2222 
z
" transform="scale(0.015625)"/>
     </defs>
     <use xlink:href="#DejaVuSerif-Italic-4c" transform="translate(0 0.670312)"/>
     <use xlink:href="#DejaVuSerif-3d" transform="translate(85.371094 0.670312)"/>
     <use xlink:href="#DejaVuSerif-Italic-52" transform="translate(310.125 60.09375)"/>
     <use xlink:href="#DejaVuSerif-31" transform="translate(385.417969 44.521875) scale(0.7)"/>
     <use xlink:href="#DejaVuSerif-Italic-52" transform="translate(188.125 -59.634375)"/>
     <use xlink:href="#DejaVuSerif-31" transform="translate(263.417969 -75.20625) scale(0.7)"/>
     <use xlink:href="#DejaVuSerif-2b" transform="translate(329.514258 -59.634375)"/>
     <use xlink:href="#DejaVuSerif-Italic-52" transform="translate(432.268164 -59.634375)"/>
     <use xlink:href="#DejaVuSerif-32" transform="translate(507.561133 -75.20625) scale(0.7)"/>
     <use xlink:href="#DejaVuSerif-22c5" transform="translate(586.157422 0.670312)"/>
     <use xlink:href="#DejaVuSerif-Italic-61" transform="translate(639.350781 0.670312)"/>
     <use xlink:href="#DejaVuSerif-Italic-44" transform="translate(698.969922 -14.901563) scale(0.7)"/>
     <path d="M 188.125 19.521875 
L 188.125 25.771875 
L 554.692578 25.771875 
L 554.692578 19.521875 
L 188.125 19.521875 
z
"/>
    </g>
   </g>
   <g id="text_7">
    <!-- $A_{ideal} = -\dfrac{R_2}{R_1}$ -->
    <g transform="translate(68.776 227.24) scale(0.16 -0.16)">
     <defs>
      <path id="DejaVuSans-Oblique-41" d="M 2356 4666 
L 3072 4666 
L 3938 0 
L 3278 0 
L 3084 1197 
L 984 1197 
L 325 0 
L -341 0 
L 2356 4666 
z
M 2584 4044 
L 1275 1722 
L 2988 1722 
L 2584 4044 
z
" transform="scale(0.015625)"/>
      <path id="DejaVuSans-Oblique-64" d="M 2675 525 
Q 2444 222 2128 65 
Q 1813 -91 1428 -91 
Q 903 -91 598 267 
Q 294 625 294 1247 
Q 294 1766 478 2236 
Q 663 2706 1013 3078 
Q 1244 3325 1534 3454 
Q 1825 3584 2144 3584 
Q 2481 3584 2739 3421 
Q 2997 3259 3138 2956 
L 3513 4863 
L 4091 4863 
L 3144 0 
L 2566 0 
L 2675 525 
z
M 891 1350 
Q 891 897 1095 644 
Q 1300 391 1663 391 
Q 1931 391 2161 520 
Q 2391 650 2566 903 
Q 2750 1166 2856 1509 
Q 2963 1853 2963 2188 
Q 2963 2622 2758 2865 
Q 2553 3109 2194 3109 
Q 1922 3109 1687 2981 
Q 1453 2853 1288 2613 
Q 1106 2353 998 2009 
Q 891 1666 891 1350 
z
" transform="scale(0.015625)"/>
      <path id="DejaVuSans-Oblique-65" d="M 3078 2063 
Q 3088 2113 3092 2166 
Q 3097 2219 3097 2272 
Q 3097 2653 2873 2875 
Q 2650 3097 2266 3097 
Q 1838 3097 1509 2826 
Q 1181 2556 1013 2059 
L 3078 2063 
z
M 3578 1613 
L 903 1613 
Q 884 1494 878 1425 
Q 872 1356 872 1306 
Q 872 872 1139 634 
Q 1406 397 1894 397 
Q 2269 397 2603 481 
Q 2938 566 3225 728 
L 3116 159 
Q 2806 34 2476 -28 
Q 2147 -91 1806 -91 
Q 1078 -91 686 257 
Q 294 606 294 1247 
Q 294 1794 489 2264 
Q 684 2734 1063 3103 
Q 1306 3334 1642 3459 
Q 1978 3584 2356 3584 
Q 2950 3584 3301 3228 
Q 3653 2872 3653 2272 
Q 3653 2128 3634 1964 
Q 3616 1800 3578 1613 
z
" transform="scale(0.015625)"/>
      <path id="DejaVuSans-Oblique-61" d="M 3438 1997 
L 3047 0 
L 2472 0 
L 2578 531 
Q 2325 219 2001 64 
Q 1678 -91 1281 -91 
Q 834 -91 548 182 
Q 263 456 263 884 
Q 263 1497 752 1853 
Q 1241 2209 2100 2209 
L 2900 2209 
L 2931 2363 
Q 2938 2388 2941 2417 
Q 2944 2447 2944 2509 
Q 2944 2788 2717 2942 
Q 2491 3097 2081 3097 
Q 1800 3097 1504 3025 
Q 1209 2953 897 2809 
L 997 3341 
Q 1322 3463 1633 3523 
Q 1944 3584 2234 3584 
Q 2853 3584 3176 3315 
Q 3500 3047 3500 2534 
Q 3500 2431 3484 2292 
Q 3469 2153 3438 1997 
z
M 2816 1759 
L 2241 1759 
Q 1534 1759 1195 1570 
Q 856 1381 856 984 
Q 856 709 1029 553 
Q 1203 397 1509 397 
Q 1978 397 2328 733 
Q 2678 1069 2791 1631 
L 2816 1759 
z
" transform="scale(0.015625)"/>
      <path id="DejaVuSans-Oblique-6c" d="M 1172 4863 
L 1747 4863 
L 800 0 
L 225 0 
L 1172 4863 
z
" transform="scale(0.015625)"/>
      <path id="DejaVuSans-3d" d="M 678 2906 
L 4684 2906 
L 4684 2381 
L 678 2381 
L 678 2906 
z
M 678 1631 
L 4684 1631 
L 4684 1100 
L 678 1100 
L 678 1631 
z
" transform="scale(0.015625)"/>
      <path id="DejaVuSans-2212" d="M 678 2272 
L 4684 2272 
L 4684 1741 
L 678 1741 
L 678 2272 
z
" transform="scale(0.015625)"/>
     </defs>
     <use xlink:href="#DejaVuSans-Oblique-41" transform="translate(0 0.890625)"/>
     <use xlink:href="#DejaVuSans-Oblique-69" transform="translate(68.408203 -15.515625) scale(0.7)"/>
     <use xlink:href="#DejaVuSans-Oblique-64" transform="translate(87.856445 -15.515625) scale(0.7)"/>
     <use xlink:href="#DejaVuSans-Oblique-65" transform="translate(132.290039 -15.515625) scale(0.7)"/>
     <use xlink:href="#DejaVuSans-Oblique-61" transform="translate(175.356445 -15.515625) scale(0.7)"/>
     <use xlink:href="#DejaVuSans-Oblique-6c" transform="translate(218.251953 -15.515625) scale(0.7)"/>
     <use xlink:href="#DejaVuSans-3d" transform="translate(259.916992 0.890625)"/>
     <use xlink:href="#DejaVuSans-2212" transform="translate(382.670898 0.890625)"/>
     <use xlink:href="#DejaVuSans-Oblique-52" transform="translate(485.942383 61.09375)"/>
     <use xlink:href="#DejaVuSans-32" transform="translate(555.424805 44.6875) scale(0.7)"/>
     <use xlink:href="#DejaVuSans-Oblique-52" transform="translate(485.942383 -59.46875)"/>
     <use xlink:href="#DejaVuSans-31" transform="translate(555.424805 -75.875) scale(0.7)"/>
     <path d="M 485.942383 19.6875 
L 485.942383 25.9375 
L 602.695312 25.9375 
L 602.695312 19.6875 
L 485.942383 19.6875 
z
"/>
    </g>
   </g>
   <g id="text_8">
    <!-- $a_D$ -->
    <g transform="translate(640.34943 92.995) scale(0.16 -0.16)">
     <use xlink:href="#DejaVuSerif-Italic-61" transform="translate(0 0.671875)"/>
     <use xlink:href="#DejaVuSerif-Italic-44" transform="translate(59.619141 -14.9) scale(0.7)"/>
    </g>
   </g>
   <g id="text_9">
    <!-- $v_{in}$ -->
    <g transform="translate(555.638286 115.495) scale(0.16 -0.16)">
     <use xlink:href="#DejaVuSans-Oblique-76" transform="translate(0 0.3125)"/>
     <use xlink:href="#DejaVuSans-Oblique-69" transform="translate(59.179688 -16.09375) scale(0.7)"/>
     <use xlink:href="#DejaVuSans-Oblique-6e" transform="translate(78.62793 -16.09375) scale(0.7)"/>
    </g>
   </g>
   <g id="patch_4">
    <path d="M 597.398286 68.78 
C 598.114335 68.78 598.801152 68.495511 599.307475 67.989188 
C 599.813797 67.482866 600.098286 66.796048 600.098286 66.08 
C 600.098286 65.363952 599.813797 64.677134 599.307475 64.170812 
C 598.801152 63.664489 598.114335 63.38 597.398286 63.38 
C 596.682238 63.38 595.995421 63.664489 595.489098 64.170812 
C 594.982775 64.677134 594.698286 65.363952 594.698286 66.08 
C 594.698286 66.796048 594.982775 67.482866 595.489098 67.989188 
C 595.995421 68.495511 596.682238 68.78 597.398286 68.78 
z
" clip-path="url(#pa106dad38d)" style="stroke: #000000; stroke-width: 2; stroke-linejoin: miter"/>
   </g>
   <g id="text_10">
    <!-- $R_{1}$ -->
    <g transform="translate(553.388286 90.8375) scale(0.16 -0.16)">
     <use xlink:href="#DejaVuSans-Oblique-52" transform="translate(0 0.09375)"/>
     <use xlink:href="#DejaVuSans-31" transform="translate(69.482422 -16.3125) scale(0.7)"/>
    </g>
   </g>
   <g id="text_11">
    <!-- $R_2$ -->
    <g transform="translate(649.50943 14.1525) scale(0.16 -0.16)">
     <use xlink:href="#DejaVuSans-Oblique-52" transform="translate(0 0.09375)"/>
     <use xlink:href="#DejaVuSans-32" transform="translate(69.482422 -16.3125) scale(0.7)"/>
    </g>
   </g>
   <g id="patch_5">
    <path d="M 720.340573 91.28 
C 721.056621 91.28 721.743438 90.995511 722.249761 90.489188 
C 722.756084 89.982866 723.040573 89.296048 723.040573 88.58 
C 723.040573 87.863952 722.756084 87.177134 722.249761 86.670812 
C 721.743438 86.164489 721.056621 85.88 720.340573 85.88 
C 719.624524 85.88 718.937707 86.164489 718.431384 86.670812 
C 717.925062 87.177134 717.640573 87.863952 717.640573 88.58 
C 717.640573 89.296048 717.925062 89.982866 718.431384 90.489188 
C 718.937707 90.995511 719.624524 91.28 720.340573 91.28 
z
" clip-path="url(#pa106dad38d)" style="stroke: #000000; stroke-width: 2; stroke-linejoin: miter"/>
   </g>
   <g id="text_12">
    <!-- $v_{out}$ -->
    <g transform="translate(741.940573 92.995) scale(0.16 -0.16)">
     <use xlink:href="#DejaVuSans-Oblique-76" transform="translate(0 0.3125)"/>
     <use xlink:href="#DejaVuSans-Oblique-6f" transform="translate(59.179688 -16.09375) scale(0.7)"/>
     <use xlink:href="#DejaVuSans-Oblique-75" transform="translate(102.006836 -16.09375) scale(0.7)"/>
     <use xlink:href="#DejaVuSans-Oblique-74" transform="translate(146.37207 -16.09375) scale(0.7)"/>
    </g>
   </g>
   <g id="text_13">
    <!-- $L = \dfrac{R_1}{R_1 + R_2} \cdot a_D$ -->
    <g transform="translate(540.358286 166.04) scale(0.16 -0.16)">
     <use xlink:href="#DejaVuSerif-Italic-4c" transform="translate(0 0.670312)"/>
     <use xlink:href="#DejaVuSerif-3d" transform="translate(85.371094 0.670312)"/>
     <use xlink:href="#DejaVuSerif-Italic-52" transform="translate(310.125 60.09375)"/>
     <use xlink:href="#DejaVuSerif-31" transform="translate(385.417969 44.521875) scale(0.7)"/>
     <use xlink:href="#DejaVuSerif-Italic-52" transform="translate(188.125 -59.634375)"/>
     <use xlink:href="#DejaVuSerif-31" transform="translate(263.417969 -75.20625) scale(0.7)"/>
     <use xlink:href="#DejaVuSerif-2b" transform="translate(329.514258 -59.634375)"/>
     <use xlink:href="#DejaVuSerif-Italic-52" transform="translate(432.268164 -59.634375)"/>
     <use xlink:href="#DejaVuSerif-32" transform="translate(507.561133 -75.20625) scale(0.7)"/>
     <use xlink:href="#DejaVuSerif-22c5" transform="translate(586.157422 0.670312)"/>
     <use xlink:href="#DejaVuSerif-Italic-61" transform="translate(639.350781 0.670312)"/>
     <use xlink:href="#DejaVuSerif-Italic-44" transform="translate(698.969922 -14.901563) scale(0.7)"/>
     <path d="M 188.125 19.521875 
L 188.125 25.771875 
L 554.692578 25.771875 
L 554.692578 19.521875 
L 188.125 19.521875 
z
"/>
    </g>
   </g>
   <g id="text_14">
    <!-- $A_{ideal} = \dfrac{R_1+R_2}{R_1}$ -->
    <g transform="translate(542.438286 220.04) scale(0.16 -0.16)">
     <defs>
      <path id="DejaVuSans-2b" d="M 2944 4013 
L 2944 2272 
L 4684 2272 
L 4684 1741 
L 2944 1741 
L 2944 0 
L 2419 0 
L 2419 1741 
L 678 1741 
L 678 2272 
L 2419 2272 
L 2419 4013 
L 2944 4013 
z
" transform="scale(0.015625)"/>
     </defs>
     <use xlink:href="#DejaVuSans-Oblique-41" transform="translate(0 0.890625)"/>
     <use xlink:href="#DejaVuSans-Oblique-69" transform="translate(68.408203 -15.515625) scale(0.7)"/>
     <use xlink:href="#DejaVuSans-Oblique-64" transform="translate(87.856445 -15.515625) scale(0.7)"/>
     <use xlink:href="#DejaVuSans-Oblique-65" transform="translate(132.290039 -15.515625) scale(0.7)"/>
     <use xlink:href="#DejaVuSans-Oblique-61" transform="translate(175.356445 -15.515625) scale(0.7)"/>
     <use xlink:href="#DejaVuSans-Oblique-6c" transform="translate(218.251953 -15.515625) scale(0.7)"/>
     <use xlink:href="#DejaVuSans-3d" transform="translate(259.916992 0.890625)"/>
     <use xlink:href="#DejaVuSans-Oblique-52" transform="translate(363.188477 61.09375)"/>
     <use xlink:href="#DejaVuSans-31" transform="translate(432.670898 44.6875) scale(0.7)"/>
     <use xlink:href="#DejaVuSans-2b" transform="translate(499.423828 61.09375)"/>
     <use xlink:href="#DejaVuSans-Oblique-52" transform="translate(602.695312 61.09375)"/>
     <use xlink:href="#DejaVuSans-32" transform="translate(672.177734 44.6875) scale(0.7)"/>
     <use xlink:href="#DejaVuSans-Oblique-52" transform="translate(483.188477 -59.46875)"/>
     <use xlink:href="#DejaVuSans-31" transform="translate(552.670898 -75.875) scale(0.7)"/>
     <path d="M 363.188477 19.6875 
L 363.188477 25.9375 
L 719.448242 25.9375 
L 719.448242 19.6875 
L 363.188477 19.6875 
z
"/>
    </g>
   </g>
  </g>
 </g>
 <defs>
  <clipPath id="pa106dad38d">
   <rect x="0" y="-0" width="781.372573" height="233.76"/>
  </clipPath>
 </defs>
</svg>
