<?xml version="1.0" encoding="utf-8" standalone="no"?>
<!DOCTYPE svg PUBLIC "-//W3C//DTD SVG 1.1//EN"
  "http://www.w3.org/Graphics/SVG/1.1/DTD/svg11.dtd">
<svg xmlns:xlink="http://www.w3.org/1999/xlink" width="335.64pt" height="153.8pt" viewBox="0 0 335.64 153.8" xmlns="http://www.w3.org/2000/svg" version="1.1">
 <metadata>
  <rdf:RDF xmlns:dc="http://purl.org/dc/elements/1.1/" xmlns:cc="http://creativecommons.org/ns#" xmlns:rdf="http://www.w3.org/1999/02/22-rdf-syntax-ns#">
   <cc:Work>
    <dc:type rdf:resource="http://purl.org/dc/dcmitype/StillImage"/>
    <dc:date>2025-03-25T17:47:25.967351</dc:date>
    <dc:format>image/svg+xml</dc:format>
    <dc:creator>
     <cc:Agent>
      <dc:title>Matplotlib v3.9.2, https://matplotlib.org/</dc:title>
     </cc:Agent>
    </dc:creator>
   </cc:Work>
  </rdf:RDF>
 </metadata>
 <defs>
  <style type="text/css">*{stroke-linejoin: round; stroke-linecap: butt}</style>
 </defs>
 <g id="figure_1">
  <g id="patch_1">
   <path d="M 0 153.8 
L 335.64 153.8 
L 335.64 0 
L 0 0 
z
" style="fill: #ffffff"/>
  </g>
  <g id="axes_1">
   <g id="patch_2">
    <path d="M 36.936 75.08 
C 41.709656 75.08 46.288438 73.183406 49.663922 69.807922 
C 53.039406 66.432438 54.936 61.853656 54.936 57.08 
C 54.936 52.306344 53.039406 47.727562 49.663922 44.352078 
C 46.288438 40.976594 41.709656 39.08 36.936 39.08 
C 32.162344 39.08 27.583562 40.976594 24.208078 44.352078 
C 20.832594 47.727562 18.936 52.306344 18.936 57.08 
C 18.936 61.853656 20.832594 66.432438 24.208078 69.807922 
C 27.583562 73.183406 32.162344 75.08 36.936 75.08 
L 36.936 75.08 
z
" clip-path="url(#p7e676cfe18)" style="fill: none; stroke: #000000; stroke-width: 2; stroke-linejoin: miter"/>
   </g>
   <g id="line2d_1">
    <path d="M 162.936 21.08 
L 177.936 21.08 
L 177.936 36.08 
L 207.936 36.08 
L 207.936 21.08 
L 222.936 21.08 
" clip-path="url(#p7e676cfe18)" style="fill: none; stroke: #000000; stroke-width: 2; stroke-linecap: round"/>
   </g>
   <g id="line2d_2">
    <path d="M 177.936 30.08 
L 177.936 36.08 
" clip-path="url(#p7e676cfe18)" style="fill: none; stroke: #000000; stroke-width: 2; stroke-linecap: round"/>
   </g>
   <g id="patch_3">
    <path d="M 173.436 30.08 
L 177.936 21.08 
L 182.436 30.08 
z
" clip-path="url(#p7e676cfe18)"/>
   </g>
   <g id="line2d_3">
    <path d="M 180.936 39.08 
L 204.936 39.08 
" clip-path="url(#p7e676cfe18)" style="fill: none; stroke: #000000; stroke-width: 2; stroke-linecap: round"/>
   </g>
   <g id="line2d_4">
    <path d="M 192.936 54.08 
L 192.936 39.08 
" clip-path="url(#p7e676cfe18)" style="fill: none; stroke: #000000; stroke-width: 2; stroke-linecap: round"/>
   </g>
   <g id="line2d_5">
    <path d="M 162.936 21.08 
L 126.936 21.08 
L 90.936 21.08 
" clip-path="url(#p7e676cfe18)" style="fill: none; stroke: #000000; stroke-width: 2; stroke-linecap: round"/>
   </g>
   <g id="line2d_6">
    <path d="M 90.936 21.08 
L 90.936 39.08 
L 99.936 42.08 
L 81.936 48.08 
L 99.936 54.08 
L 81.936 60.08 
L 99.936 66.08 
L 81.936 72.08 
L 90.936 75.08 
L 90.936 93.08 
" clip-path="url(#p7e676cfe18)" style="fill: none; stroke: #000000; stroke-width: 2; stroke-linecap: round"/>
   </g>
   <g id="line2d_7">
    <path d="M 90.936 93.08 
L 90.936 107.48 
L 81.936 107.48 
L 99.936 107.48 
M 84.636 111.8 
L 97.236 111.8 
M 89.136 116.12 
L 92.736 116.12 
" clip-path="url(#p7e676cfe18)" style="fill: none; stroke: #000000; stroke-width: 2; stroke-linecap: round"/>
   </g>
   <g id="line2d_8">
    <path d="M 90.936 21.08 
L 63.936 21.08 
L 36.936 21.08 
" clip-path="url(#p7e676cfe18)" style="fill: none; stroke: #000000; stroke-width: 2; stroke-linecap: round"/>
   </g>
   <g id="line2d_9">
    <path d="M 36.936 21.08 
L 36.936 39.08 
L 36.936 39.08 
M 36.936 75.08 
L 36.936 75.08 
L 36.936 93.08 
" clip-path="url(#p7e676cfe18)" style="fill: none; stroke: #000000; stroke-width: 2; stroke-linecap: round"/>
   </g>
   <g id="line2d_10">
    <path d="M 36.936 57.08 
L 36.936 66.08 
" clip-path="url(#p7e676cfe18)" style="fill: none; stroke: #000000; stroke-width: 2; stroke-linecap: round"/>
   </g>
   <g id="patch_4">
    <path d="M 34.236 57.08 
L 36.936 48.08 
L 39.636 57.08 
z
" clip-path="url(#p7e676cfe18)"/>
   </g>
   <g id="line2d_11">
    <path d="M 36.936 93.08 
L 36.936 107.48 
L 27.936 107.48 
L 45.936 107.48 
M 30.636 111.8 
L 43.236 111.8 
M 35.136 116.12 
L 38.736 116.12 
" clip-path="url(#p7e676cfe18)" style="fill: none; stroke: #000000; stroke-width: 2; stroke-linecap: round"/>
   </g>
   <g id="line2d_12">
    <path d="M 126.936 21.08 
L 126.936 37.28 
L 126.936 53.48 
" clip-path="url(#p7e676cfe18)" style="fill: none; stroke: #808080; stroke-width: 2; stroke-linecap: round"/>
   </g>
   <g id="line2d_13">
    <path d="M 126.936 53.48 
L 156.696134 53.750547 
M 156.777949 44.750919 
L 156.614319 62.750175 
M 163.257681 44.809825 
L 163.094051 62.809081 
M 163.175866 53.809453 
L 192.936 54.08 
" clip-path="url(#p7e676cfe18)" style="fill: none; stroke: #808080; stroke-width: 2; stroke-linecap: round"/>
   </g>
   <g id="line2d_14">
    <path d="M 192.936 54.08 
L 192.936 72.08 
L 201.936 75.08 
L 183.936 81.08 
L 201.936 87.08 
L 183.936 93.08 
L 201.936 99.08 
L 183.936 105.08 
L 192.936 108.08 
L 192.936 126.08 
" clip-path="url(#p7e676cfe18)" style="fill: none; stroke: #000000; stroke-width: 2; stroke-linecap: round"/>
   </g>
   <g id="line2d_15">
    <path d="M 192.936 126.08 
L 192.936 140.48 
L 183.936 140.48 
L 201.936 140.48 
M 186.636 144.8 
L 199.236 144.8 
M 191.136 149.12 
L 194.736 149.12 
" clip-path="url(#p7e676cfe18)" style="fill: none; stroke: #000000; stroke-width: 2; stroke-linecap: round"/>
   </g>
   <g id="line2d_16">
    <path d="M 222.936 21.08 
L 258.936 21.08 
L 294.936 21.08 
" clip-path="url(#p7e676cfe18)" style="fill: none; stroke: #000000; stroke-width: 2; stroke-linecap: round"/>
   </g>
   <g id="line2d_17">
    <path d="M 294.936 21.08 
L 294.936 39.08 
L 303.936 42.08 
L 285.936 48.08 
L 303.936 54.08 
L 285.936 60.08 
L 303.936 66.08 
L 285.936 72.08 
L 294.936 75.08 
L 294.936 93.08 
" clip-path="url(#p7e676cfe18)" style="fill: none; stroke: #000000; stroke-width: 2; stroke-linecap: round"/>
   </g>
   <g id="line2d_18">
    <path d="M 294.936 93.08 
L 294.936 107.48 
L 285.936 107.48 
L 303.936 107.48 
M 288.636 111.8 
L 301.236 111.8 
M 293.136 116.12 
L 296.736 116.12 
" clip-path="url(#p7e676cfe18)" style="fill: none; stroke: #000000; stroke-width: 2; stroke-linecap: round"/>
   </g>
   <g id="text_1">
    <!-- $M_{1}$ -->
    <g transform="translate(182.216 17.7525) scale(0.16 -0.16)">
     <defs>
      <path id="DejaVuSans-Oblique-4d" d="M 1081 4666 
L 2028 4666 
L 2572 1522 
L 4378 4666 
L 5350 4666 
L 4441 0 
L 3828 0 
L 4622 4091 
L 2791 897 
L 2175 897 
L 1581 4103 
L 788 0 
L 172 0 
L 1081 4666 
z
" transform="scale(0.015625)"/>
      <path id="DejaVuSans-31" d="M 794 531 
L 1825 531 
L 1825 4091 
L 703 3866 
L 703 4441 
L 1819 4666 
L 2450 4666 
L 2450 531 
L 3481 531 
L 3481 0 
L 794 0 
L 794 531 
z
" transform="scale(0.015625)"/>
     </defs>
     <use xlink:href="#DejaVuSans-Oblique-4d" transform="translate(0 0.09375)"/>
     <use xlink:href="#DejaVuSans-31" transform="translate(86.279297 -16.3125) scale(0.7)"/>
    </g>
   </g>
   <g id="text_2">
    <!-- $R_i$ -->
    <g transform="translate(63.616 61.495) scale(0.16 -0.16)">
     <defs>
      <path id="DejaVuSans-Oblique-52" d="M 1613 4147 
L 1294 2491 
L 2106 2491 
Q 2584 2491 2879 2755 
Q 3175 3019 3175 3444 
Q 3175 3784 2976 3965 
Q 2778 4147 2406 4147 
L 1613 4147 
z
M 2772 2241 
Q 2972 2194 3105 2009 
Q 3238 1825 3413 1275 
L 3809 0 
L 3144 0 
L 2778 1197 
Q 2638 1659 2453 1815 
Q 2269 1972 1888 1972 
L 1191 1972 
L 806 0 
L 172 0 
L 1081 4666 
L 2503 4666 
Q 3150 4666 3495 4373 
Q 3841 4081 3841 3531 
Q 3841 3044 3547 2687 
Q 3253 2331 2772 2241 
z
" transform="scale(0.015625)"/>
      <path id="DejaVuSans-Oblique-69" d="M 1172 4863 
L 1747 4863 
L 1606 4134 
L 1031 4134 
L 1172 4863 
z
M 909 3500 
L 1484 3500 
L 800 0 
L 225 0 
L 909 3500 
z
" transform="scale(0.015625)"/>
     </defs>
     <use xlink:href="#DejaVuSans-Oblique-52" transform="translate(0 0.09375)"/>
     <use xlink:href="#DejaVuSans-Oblique-69" transform="translate(69.482422 -16.3125) scale(0.7)"/>
    </g>
   </g>
   <g id="text_3">
    <!-- $i_i$ -->
    <g transform="translate(6.216 61.495) scale(0.16 -0.16)">
     <defs>
      <path id="DejaVuSerif-Italic-69" d="M 1009 4353 
Q 1038 4497 1163 4603 
Q 1288 4709 1434 4709 
Q 1578 4709 1663 4603 
Q 1728 4522 1728 4422 
Q 1728 4388 1719 4353 
Q 1691 4206 1567 4103 
Q 1444 4000 1297 4000 
Q 1150 4000 1066 4103 
Q 1003 4181 1003 4281 
Q 1003 4316 1009 4353 
z
M 963 331 
L 1506 331 
L 1444 0 
L 325 0 
L 903 2988 
L 353 2988 
L 419 3322 
L 1544 3322 
L 963 331 
z
" transform="scale(0.015625)"/>
     </defs>
     <use xlink:href="#DejaVuSerif-Italic-69" transform="translate(0 0.421875)"/>
     <use xlink:href="#DejaVuSerif-Italic-69" transform="translate(31.982422 -15.15) scale(0.7)"/>
    </g>
   </g>
   <g id="text_4">
    <!-- $C_{gs}$ -->
    <g style="fill: #808080" transform="translate(147.501459 78.379479) scale(0.16 -0.16)">
     <defs>
      <path id="DejaVuSans-Oblique-43" d="M 4447 4306 
L 4319 3641 
Q 4019 3944 3683 4091 
Q 3347 4238 2956 4238 
Q 2422 4238 2017 3981 
Q 1613 3725 1319 3200 
Q 1131 2863 1032 2486 
Q 934 2109 934 1728 
Q 934 1091 1264 756 
Q 1594 422 2222 422 
Q 2656 422 3056 561 
Q 3456 700 3834 978 
L 3688 231 
Q 3316 72 2936 -9 
Q 2556 -91 2175 -91 
Q 1278 -91 773 396 
Q 269 884 269 1753 
Q 269 2309 461 2846 
Q 653 3384 1013 3828 
Q 1394 4300 1883 4525 
Q 2372 4750 3022 4750 
Q 3422 4750 3780 4639 
Q 4138 4528 4447 4306 
z
" transform="scale(0.015625)"/>
      <path id="DejaVuSans-Oblique-67" d="M 3816 3500 
L 3219 434 
Q 3047 -456 2561 -893 
Q 2075 -1331 1253 -1331 
Q 950 -1331 690 -1286 
Q 431 -1241 206 -1147 
L 313 -588 
Q 525 -725 762 -790 
Q 1000 -856 1269 -856 
Q 1816 -856 2167 -557 
Q 2519 -259 2631 300 
L 2681 563 
Q 2441 288 2122 144 
Q 1803 0 1434 0 
Q 903 0 598 351 
Q 294 703 294 1319 
Q 294 1803 478 2267 
Q 663 2731 997 3091 
Q 1219 3328 1514 3456 
Q 1809 3584 2131 3584 
Q 2484 3584 2746 3420 
Q 3009 3256 3138 2956 
L 3238 3500 
L 3816 3500 
z
M 2950 2216 
Q 2950 2641 2750 2872 
Q 2550 3103 2181 3103 
Q 1953 3103 1747 3012 
Q 1541 2922 1394 2759 
Q 1156 2491 1023 2127 
Q 891 1763 891 1375 
Q 891 944 1092 712 
Q 1294 481 1672 481 
Q 2219 481 2584 976 
Q 2950 1472 2950 2216 
z
" transform="scale(0.015625)"/>
      <path id="DejaVuSans-Oblique-73" d="M 3200 3397 
L 3091 2853 
Q 2863 2978 2609 3040 
Q 2356 3103 2088 3103 
Q 1634 3103 1373 2948 
Q 1113 2794 1113 2528 
Q 1113 2219 1719 2053 
Q 1766 2041 1788 2034 
L 1972 1978 
Q 2547 1819 2739 1644 
Q 2931 1469 2931 1166 
Q 2931 609 2489 259 
Q 2047 -91 1331 -91 
Q 1053 -91 747 -37 
Q 441 16 72 128 
L 184 722 
Q 500 559 806 475 
Q 1113 391 1394 391 
Q 1816 391 2080 572 
Q 2344 753 2344 1031 
Q 2344 1331 1650 1516 
L 1591 1531 
L 1394 1581 
Q 956 1697 753 1886 
Q 550 2075 550 2369 
Q 550 2928 970 3256 
Q 1391 3584 2113 3584 
Q 2397 3584 2667 3537 
Q 2938 3491 3200 3397 
z
" transform="scale(0.015625)"/>
     </defs>
     <use xlink:href="#DejaVuSans-Oblique-43" transform="translate(0 0.78125)"/>
     <use xlink:href="#DejaVuSans-Oblique-67" transform="translate(69.824219 -15.625) scale(0.7)"/>
     <use xlink:href="#DejaVuSans-Oblique-73" transform="translate(114.257812 -15.625) scale(0.7)"/>
    </g>
   </g>
   <g id="text_5">
    <!-- $R_G$ -->
    <g transform="translate(205.536 94.495) scale(0.16 -0.16)">
     <defs>
      <path id="DejaVuSans-Oblique-47" d="M 3494 697 
L 3738 1919 
L 2700 1919 
L 2797 2438 
L 4453 2438 
L 4050 384 
Q 3634 156 3143 32 
Q 2653 -91 2156 -91 
Q 1278 -91 783 396 
Q 288 884 288 1753 
Q 288 2475 589 3126 
Q 891 3778 1422 4213 
Q 1756 4484 2153 4617 
Q 2550 4750 3034 4750 
Q 3472 4750 3873 4639 
Q 4275 4528 4641 4306 
L 4513 3634 
Q 4231 3928 3853 4083 
Q 3475 4238 3047 4238 
Q 2550 4238 2172 4048 
Q 1794 3859 1497 3463 
Q 1244 3125 1098 2667 
Q 953 2209 953 1734 
Q 953 1081 1287 751 
Q 1622 422 2284 422 
Q 2616 422 2925 492 
Q 3234 563 3494 697 
z
" transform="scale(0.015625)"/>
     </defs>
     <use xlink:href="#DejaVuSans-Oblique-52" transform="translate(0 0.09375)"/>
     <use xlink:href="#DejaVuSans-Oblique-47" transform="translate(69.482422 -16.3125) scale(0.7)"/>
    </g>
   </g>
   <g id="text_6">
    <!-- $v_{out}$ -->
    <g transform="translate(244.936 14.1525) scale(0.16 -0.16)">
     <defs>
      <path id="DejaVuSerif-Italic-76" d="M 1681 0 
L 1259 0 
L 619 2988 
L 241 2988 
L 303 3322 
L 1163 3322 
L 1725 703 
Q 2084 1016 2325 1413 
Q 2825 2238 3003 2988 
L 2622 2988 
L 2688 3322 
L 3547 3322 
Q 3206 2034 2775 1313 
Q 2400 688 1681 0 
z
" transform="scale(0.015625)"/>
      <path id="DejaVuSerif-Italic-6f" d="M 1644 219 
Q 2106 219 2414 584 
Q 2722 950 2859 1663 
Q 2922 1988 2922 2241 
Q 2922 2541 2834 2738 
Q 2669 3103 2206 3103 
Q 1744 3103 1436 2739 
Q 1128 2375 991 1663 
Q 928 1338 928 1088 
Q 928 784 1019 584 
Q 1184 219 1644 219 
z
M 1584 -91 
Q 859 -91 513 388 
Q 272 722 272 1203 
Q 272 1419 319 1663 
Q 472 2456 1005 2934 
Q 1538 3413 2266 3413 
Q 2994 3413 3341 2934 
Q 3578 2603 3578 2122 
Q 3578 1906 3531 1663 
Q 3378 869 2845 389 
Q 2313 -91 1584 -91 
z
" transform="scale(0.015625)"/>
      <path id="DejaVuSerif-Italic-75" d="M 3097 3322 
L 3672 3322 
L 3091 331 
L 3634 331 
L 3572 0 
L 2453 0 
L 2566 588 
Q 2341 256 2055 82 
Q 1769 -91 1434 -91 
Q 881 -91 681 225 
Q 559 413 559 734 
Q 559 944 613 1209 
L 956 2988 
L 438 2988 
L 503 3322 
L 1600 3322 
L 1225 1388 
Q 1163 1066 1163 853 
Q 1163 663 1213 556 
Q 1316 331 1697 331 
Q 2097 331 2364 625 
Q 2631 919 2738 1478 
L 3097 3322 
z
" transform="scale(0.015625)"/>
      <path id="DejaVuSerif-Italic-74" d="M 856 2988 
L 350 2988 
L 416 3322 
L 922 3322 
L 1122 4353 
L 1700 4353 
L 1500 3322 
L 2581 3322 
L 2516 2988 
L 1434 2988 
L 1025 878 
Q 978 631 978 488 
Q 978 388 1000 338 
Q 1059 219 1278 219 
Q 1503 219 1633 351 
Q 1763 484 1825 781 
L 2259 781 
Q 2147 328 1884 118 
Q 1622 -91 1169 -91 
Q 672 -91 506 131 
Q 406 266 406 516 
Q 406 675 447 878 
L 856 2988 
z
" transform="scale(0.015625)"/>
     </defs>
     <use xlink:href="#DejaVuSerif-Italic-76" transform="translate(0 0.09375)"/>
     <use xlink:href="#DejaVuSerif-Italic-6f" transform="translate(56.494141 -15.478125) scale(0.7)"/>
     <use xlink:href="#DejaVuSerif-Italic-75" transform="translate(98.637695 -15.478125) scale(0.7)"/>
     <use xlink:href="#DejaVuSerif-Italic-74" transform="translate(143.720703 -15.478125) scale(0.7)"/>
    </g>
   </g>
   <g id="text_7">
    <!-- $R_L$ -->
    <g transform="translate(307.536 61.495) scale(0.16 -0.16)">
     <defs>
      <path id="DejaVuSans-Oblique-4c" d="M 1075 4666 
L 1709 4666 
L 909 525 
L 3181 525 
L 3078 0 
L 172 0 
L 1075 4666 
z
" transform="scale(0.015625)"/>
     </defs>
     <use xlink:href="#DejaVuSans-Oblique-52" transform="translate(0 0.09375)"/>
     <use xlink:href="#DejaVuSans-Oblique-4c" transform="translate(69.482422 -16.3125) scale(0.7)"/>
    </g>
   </g>
   <g id="patch_5">
    <path d="M 90.936 23.78 
C 91.652048 23.78 92.338866 23.495511 92.845188 22.989188 
C 93.351511 22.482866 93.636 21.796048 93.636 21.08 
C 93.636 20.363952 93.351511 19.677134 92.845188 19.170812 
C 92.338866 18.664489 91.652048 18.38 90.936 18.38 
C 90.219952 18.38 89.533134 18.664489 89.026812 19.170812 
C 88.520489 19.677134 88.236 20.363952 88.236 21.08 
C 88.236 21.796048 88.520489 22.482866 89.026812 22.989188 
C 89.533134 23.495511 90.219952 23.78 90.936 23.78 
z
" clip-path="url(#p7e676cfe18)" style="stroke: #000000; stroke-width: 2; stroke-linejoin: miter"/>
   </g>
   <g id="patch_6">
    <path d="M 126.936 23.78 
C 127.652048 23.78 128.338866 23.495511 128.845188 22.989188 
C 129.351511 22.482866 129.636 21.796048 129.636 21.08 
C 129.636 20.363952 129.351511 19.677134 128.845188 19.170812 
C 128.338866 18.664489 127.652048 18.38 126.936 18.38 
C 126.219952 18.38 125.533134 18.664489 125.026812 19.170812 
C 124.520489 19.677134 124.236 20.363952 124.236 21.08 
C 124.236 21.796048 124.520489 22.482866 125.026812 22.989188 
C 125.533134 23.495511 126.219952 23.78 126.936 23.78 
z
" clip-path="url(#p7e676cfe18)" style="fill: #808080; stroke: #808080; stroke-width: 2; stroke-linejoin: miter"/>
   </g>
   <g id="patch_7">
    <path d="M 192.936 56.78 
C 193.652048 56.78 194.338866 56.495511 194.845188 55.989188 
C 195.351511 55.482866 195.636 54.796048 195.636 54.08 
C 195.636 53.363952 195.351511 52.677134 194.845188 52.170812 
C 194.338866 51.664489 193.652048 51.38 192.936 51.38 
C 192.219952 51.38 191.533134 51.664489 191.026812 52.170812 
C 190.520489 52.677134 190.236 53.363952 190.236 54.08 
C 190.236 54.796048 190.520489 55.482866 191.026812 55.989188 
C 191.533134 56.495511 192.219952 56.78 192.936 56.78 
z
" clip-path="url(#p7e676cfe18)" style="fill: #808080; stroke: #808080; stroke-width: 2; stroke-linejoin: miter"/>
   </g>
  </g>
 </g>
 <defs>
  <clipPath id="p7e676cfe18">
   <rect x="0" y="0" width="335.64" height="153.8"/>
  </clipPath>
 </defs>
</svg>
