<?xml version="1.0" encoding="utf-8" standalone="no"?>
<!DOCTYPE svg PUBLIC "-//W3C//DTD SVG 1.1//EN"
  "http://www.w3.org/Graphics/SVG/1.1/DTD/svg11.dtd">
<svg xmlns:xlink="http://www.w3.org/1999/xlink" width="339.648pt" height="267.2pt" viewBox="0 0 339.648 267.2" xmlns="http://www.w3.org/2000/svg" version="1.1">
 <metadata>
  <rdf:RDF xmlns:dc="http://purl.org/dc/elements/1.1/" xmlns:cc="http://creativecommons.org/ns#" xmlns:rdf="http://www.w3.org/1999/02/22-rdf-syntax-ns#">
   <cc:Work>
    <dc:type rdf:resource="http://purl.org/dc/dcmitype/StillImage"/>
    <dc:date>2025-03-25T17:47:24.933182</dc:date>
    <dc:format>image/svg+xml</dc:format>
    <dc:creator>
     <cc:Agent>
      <dc:title>Matplotlib v3.9.2, https://matplotlib.org/</dc:title>
     </cc:Agent>
    </dc:creator>
   </cc:Work>
  </rdf:RDF>
 </metadata>
 <defs>
  <style type="text/css">*{stroke-linejoin: round; stroke-linecap: butt}</style>
 </defs>
 <g id="figure_1">
  <g id="patch_1">
   <path d="M 0 267.2 
L 339.648 267.2 
L 339.648 0 
L 0 0 
z
" style="fill: #ffffff"/>
  </g>
  <g id="axes_1">
   <g id="patch_2">
    <path d="M 107.244 89.48 
C 112.017656 89.48 116.596438 87.583406 119.971922 84.207922 
C 123.347406 80.832438 125.244 76.253656 125.244 71.48 
C 125.244 66.706344 123.347406 62.127562 119.971922 58.752078 
C 116.596438 55.376594 112.017656 53.48 107.244 53.48 
C 102.470344 53.48 97.891562 55.376594 94.516078 58.752078 
C 91.140594 62.127562 89.244 66.706344 89.244 71.48 
C 89.244 76.253656 91.140594 80.832438 94.516078 84.207922 
C 97.891562 87.583406 102.470344 89.48 107.244 89.48 
L 107.244 89.48 
z
" clip-path="url(#pd3c223deb3)" style="fill: none; stroke: #000000; stroke-width: 2; stroke-linejoin: miter"/>
   </g>
   <g id="patch_3">
    <path d="M 107.244 221.48 
C 112.017656 221.48 116.596438 219.583406 119.971922 216.207922 
C 123.347406 212.832438 125.244 208.253656 125.244 203.48 
C 125.244 198.706344 123.347406 194.127562 119.971922 190.752078 
C 116.596438 187.376594 112.017656 185.48 107.244 185.48 
C 102.470344 185.48 97.891562 187.376594 94.516078 190.752078 
C 91.140594 194.127562 89.244 198.706344 89.244 203.48 
C 89.244 208.253656 91.140594 212.832438 94.516078 216.207922 
C 97.891562 219.583406 102.470344 221.48 107.244 221.48 
L 107.244 221.48 
z
" clip-path="url(#pd3c223deb3)" style="fill: none; stroke: #000000; stroke-width: 2; stroke-linejoin: miter"/>
   </g>
   <g id="line2d_1">
    <path d="M 107.244 35.48 
L 107.244 21.08 
" clip-path="url(#pd3c223deb3)" style="fill: none; stroke: #000000; stroke-width: 2; stroke-linecap: round"/>
   </g>
   <g id="line2d_2">
    <path d="M 107.244 21.08 
L 100.494 21.08 
" clip-path="url(#pd3c223deb3)" style="fill: none; stroke: #000000; stroke-width: 2; stroke-linecap: round"/>
   </g>
   <g id="line2d_3">
    <path d="M 107.244 21.08 
L 113.994 21.08 
" clip-path="url(#pd3c223deb3)" style="fill: none; stroke: #000000; stroke-width: 2; stroke-linecap: round"/>
   </g>
   <g id="line2d_4">
    <path d="M 107.244 35.48 
L 107.244 53.48 
L 107.244 53.48 
M 107.244 89.48 
L 107.244 89.48 
L 107.244 107.48 
" clip-path="url(#pd3c223deb3)" style="fill: none; stroke: #000000; stroke-width: 2; stroke-linecap: round"/>
   </g>
   <g id="line2d_5">
    <path d="M 107.244 62.48 
L 107.244 71.48 
" clip-path="url(#pd3c223deb3)" style="fill: none; stroke: #000000; stroke-width: 2; stroke-linecap: round"/>
   </g>
   <g id="patch_4">
    <path d="M 109.944 71.48 
L 107.244 80.48 
L 104.544 71.48 
z
" clip-path="url(#pd3c223deb3)"/>
   </g>
   <g id="line2d_6">
    <path d="M 107.244 167.48 
L 107.244 152.48 
L 92.244 152.48 
L 92.244 122.48 
L 107.244 122.48 
L 107.244 107.48 
" clip-path="url(#pd3c223deb3)" style="fill: none; stroke: #000000; stroke-width: 2; stroke-linecap: round"/>
   </g>
   <g id="line2d_7">
    <path d="M 101.244 122.48 
L 107.244 122.48 
" clip-path="url(#pd3c223deb3)" style="fill: none; stroke: #000000; stroke-width: 2; stroke-linecap: round"/>
   </g>
   <g id="patch_5">
    <path d="M 101.244 126.98 
L 92.244 122.48 
L 101.244 117.98 
z
" clip-path="url(#pd3c223deb3)"/>
   </g>
   <g id="line2d_8">
    <path d="M 89.244 149.48 
L 89.244 125.48 
" clip-path="url(#pd3c223deb3)" style="fill: none; stroke: #000000; stroke-width: 2; stroke-linecap: round"/>
   </g>
   <g id="line2d_9">
    <path d="M 74.244 137.48 
L 89.244 137.48 
" clip-path="url(#pd3c223deb3)" style="fill: none; stroke: #000000; stroke-width: 2; stroke-linecap: round"/>
   </g>
   <g id="line2d_10">
    <path d="M 74.244 137.48 
L 56.244 137.48 
L 38.244 137.48 
" clip-path="url(#pd3c223deb3)" style="fill: none; stroke: #000000; stroke-width: 2; stroke-linecap: round"/>
   </g>
   <g id="line2d_11">
    <path d="M 107.244 167.48 
L 107.244 185.48 
L 107.244 185.48 
M 107.244 221.48 
L 107.244 221.48 
L 107.244 239.48 
" clip-path="url(#pd3c223deb3)" style="fill: none; stroke: #000000; stroke-width: 2; stroke-linecap: round"/>
   </g>
   <g id="line2d_12">
    <path d="M 107.244 194.48 
L 107.244 203.48 
" clip-path="url(#pd3c223deb3)" style="fill: none; stroke: #000000; stroke-width: 2; stroke-linecap: round"/>
   </g>
   <g id="patch_6">
    <path d="M 109.944 203.48 
L 107.244 212.48 
L 104.544 203.48 
z
" clip-path="url(#pd3c223deb3)"/>
   </g>
   <g id="line2d_13">
    <path d="M 107.244 239.48 
L 107.244 253.88 
L 98.244 253.88 
L 116.244 253.88 
M 100.944 258.2 
L 113.544 258.2 
M 105.444 262.52 
L 109.044 262.52 
" clip-path="url(#pd3c223deb3)" style="fill: none; stroke: #000000; stroke-width: 2; stroke-linecap: round"/>
   </g>
   <g id="line2d_14">
    <path d="M 107.244 167.48 
L 143.244 167.48 
L 179.244 167.48 
" clip-path="url(#pd3c223deb3)" style="fill: none; stroke: #000000; stroke-width: 2; stroke-linecap: round"/>
   </g>
   <g id="line2d_15">
    <path d="M 212.244 197.48 
L 212.244 182.48 
L 197.244 182.48 
L 197.244 152.48 
L 212.244 152.48 
L 212.244 137.48 
" clip-path="url(#pd3c223deb3)" style="fill: none; stroke: #000000; stroke-width: 2; stroke-linecap: round"/>
   </g>
   <g id="line2d_16">
    <path d="M 203.244 182.48 
L 197.244 182.48 
" clip-path="url(#pd3c223deb3)" style="fill: none; stroke: #000000; stroke-width: 2; stroke-linecap: round"/>
   </g>
   <g id="patch_7">
    <path d="M 203.244 177.98 
L 212.244 182.48 
L 203.244 186.98 
z
" clip-path="url(#pd3c223deb3)"/>
   </g>
   <g id="line2d_17">
    <path d="M 194.244 179.48 
L 194.244 155.48 
" clip-path="url(#pd3c223deb3)" style="fill: none; stroke: #000000; stroke-width: 2; stroke-linecap: round"/>
   </g>
   <g id="line2d_18">
    <path d="M 179.244 167.48 
L 194.244 167.48 
" clip-path="url(#pd3c223deb3)" style="fill: none; stroke: #000000; stroke-width: 2; stroke-linecap: round"/>
   </g>
   <g id="line2d_19">
    <path d="M 107.244 107.48 
L 159.444 107.48 
L 211.644 107.48 
" clip-path="url(#pd3c223deb3)" style="fill: none; stroke: #000000; stroke-width: 2; stroke-linecap: round"/>
   </g>
   <g id="line2d_20">
    <path d="M 211.644 107.48 
L 211.944 122.48 
L 212.244 137.48 
" clip-path="url(#pd3c223deb3)" style="fill: none; stroke: #000000; stroke-width: 2; stroke-linecap: round"/>
   </g>
   <g id="line2d_21">
    <path d="M 211.644 107.48 
L 247.644 107.48 
L 283.644 107.48 
" clip-path="url(#pd3c223deb3)" style="fill: none; stroke: #000000; stroke-width: 2; stroke-linecap: round"/>
   </g>
   <g id="line2d_22">
    <path d="M 107.244 239.48 
L 212.244 239.48 
L 212.244 197.48 
" clip-path="url(#pd3c223deb3)" style="fill: none; stroke: #000000; stroke-width: 2; stroke-linecap: round"/>
   </g>
   <g id="line2d_23">
    <path d="M 212.244 197.48 
" clip-path="url(#pd3c223deb3)" style="fill: none; stroke: #000000; stroke-width: 2; stroke-linecap: round"/>
   </g>
   <g id="text_1">
    <!-- $V_{DD}$ -->
    <g transform="translate(92.924 14.1525) scale(0.16 -0.16)">
     <defs>
      <path id="DejaVuSans-Oblique-56" d="M 1319 0 
L 500 4666 
L 1119 4666 
L 1797 653 
L 4063 4666 
L 4750 4666 
L 2053 0 
L 1319 0 
z
" transform="scale(0.015625)"/>
      <path id="DejaVuSans-Oblique-44" d="M 1081 4666 
L 2438 4666 
Q 3519 4666 4070 4208 
Q 4622 3750 4622 2847 
Q 4622 2250 4412 1698 
Q 4203 1147 3834 769 
Q 3463 381 2891 190 
Q 2319 0 1538 0 
L 172 0 
L 1081 4666 
z
M 1613 4147 
L 909 519 
L 1734 519 
Q 2794 519 3375 1128 
Q 3956 1738 3956 2847 
Q 3956 3519 3581 3833 
Q 3206 4147 2406 4147 
L 1613 4147 
z
" transform="scale(0.015625)"/>
     </defs>
     <use xlink:href="#DejaVuSans-Oblique-56" transform="translate(0 0.09375)"/>
     <use xlink:href="#DejaVuSans-Oblique-44" transform="translate(68.408203 -16.3125) scale(0.7)"/>
     <use xlink:href="#DejaVuSans-Oblique-44" transform="translate(122.30957 -16.3125) scale(0.7)"/>
    </g>
   </g>
   <g id="text_2">
    <!-- $I_2$ -->
    <g transform="translate(73.324 75.895) scale(0.16 -0.16)">
     <defs>
      <path id="DejaVuSans-Oblique-49" d="M 1081 4666 
L 1716 4666 
L 806 0 
L 172 0 
L 1081 4666 
z
" transform="scale(0.015625)"/>
      <path id="DejaVuSans-32" d="M 1228 531 
L 3431 531 
L 3431 0 
L 469 0 
L 469 531 
Q 828 903 1448 1529 
Q 2069 2156 2228 2338 
Q 2531 2678 2651 2914 
Q 2772 3150 2772 3378 
Q 2772 3750 2511 3984 
Q 2250 4219 1831 4219 
Q 1534 4219 1204 4116 
Q 875 4013 500 3803 
L 500 4441 
Q 881 4594 1212 4672 
Q 1544 4750 1819 4750 
Q 2544 4750 2975 4387 
Q 3406 4025 3406 3419 
Q 3406 3131 3298 2873 
Q 3191 2616 2906 2266 
Q 2828 2175 2409 1742 
Q 1991 1309 1228 531 
z
" transform="scale(0.015625)"/>
     </defs>
     <use xlink:href="#DejaVuSans-Oblique-49" transform="translate(0 0.09375)"/>
     <use xlink:href="#DejaVuSans-32" transform="translate(29.492188 -16.3125) scale(0.7)"/>
    </g>
   </g>
   <g id="text_3">
    <!-- $M_{1}$ -->
    <g transform="translate(107.244 141.895) scale(0.16 -0.16)">
     <defs>
      <path id="DejaVuSans-Oblique-4d" d="M 1081 4666 
L 2028 4666 
L 2572 1522 
L 4378 4666 
L 5350 4666 
L 4441 0 
L 3828 0 
L 4622 4091 
L 2791 897 
L 2175 897 
L 1581 4103 
L 788 0 
L 172 0 
L 1081 4666 
z
" transform="scale(0.015625)"/>
      <path id="DejaVuSans-31" d="M 794 531 
L 1825 531 
L 1825 4091 
L 703 3866 
L 703 4441 
L 1819 4666 
L 2450 4666 
L 2450 531 
L 3481 531 
L 3481 0 
L 794 0 
L 794 531 
z
" transform="scale(0.015625)"/>
     </defs>
     <use xlink:href="#DejaVuSans-Oblique-4d" transform="translate(0 0.09375)"/>
     <use xlink:href="#DejaVuSans-31" transform="translate(86.279297 -16.3125) scale(0.7)"/>
    </g>
   </g>
   <g id="patch_8">
    <path d="M 38.244 140.18 
C 38.960048 140.18 39.646866 139.895511 40.153188 139.389188 
C 40.659511 138.882866 40.944 138.196048 40.944 137.48 
C 40.944 136.763952 40.659511 136.077134 40.153188 135.570812 
C 39.646866 135.064489 38.960048 134.78 38.244 134.78 
C 37.527952 134.78 36.841134 135.064489 36.334812 135.570812 
C 35.828489 136.077134 35.544 136.763952 35.544 137.48 
C 35.544 138.196048 35.828489 138.882866 36.334812 139.389188 
C 36.841134 139.895511 37.527952 140.18 38.244 140.18 
z
" clip-path="url(#pd3c223deb3)" style="fill: #ffffff; stroke: #000000; stroke-width: 2; stroke-linejoin: miter"/>
   </g>
   <g id="text_4">
    <!-- $v_{IN}$ -->
    <g transform="translate(8.264 141.895) scale(0.16 -0.16)">
     <defs>
      <path id="DejaVuSerif-Italic-76" d="M 1681 0 
L 1259 0 
L 619 2988 
L 241 2988 
L 303 3322 
L 1163 3322 
L 1725 703 
Q 2084 1016 2325 1413 
Q 2825 2238 3003 2988 
L 2622 2988 
L 2688 3322 
L 3547 3322 
Q 3206 2034 2775 1313 
Q 2400 688 1681 0 
z
" transform="scale(0.015625)"/>
      <path id="DejaVuSerif-Italic-49" d="M 1194 331 
L 1788 331 
L 1725 0 
L -97 0 
L -34 331 
L 559 331 
L 1338 4331 
L 744 4331 
L 809 4666 
L 2631 4666 
L 2566 4331 
L 1972 4331 
L 1194 331 
z
" transform="scale(0.015625)"/>
      <path id="DejaVuSerif-Italic-4e" d="M -128 0 
L -66 331 
L 563 331 
L 1341 4331 
L 713 4331 
L 778 4666 
L 1975 4666 
L 4056 984 
L 4706 4331 
L 4081 4331 
L 4147 4666 
L 5784 4666 
L 5719 4331 
L 5091 4331 
L 4231 -91 
L 3853 -91 
L 1631 3841 
L 947 331 
L 1575 331 
L 1513 0 
L -128 0 
z
" transform="scale(0.015625)"/>
     </defs>
     <use xlink:href="#DejaVuSerif-Italic-76" transform="translate(0 0.09375)"/>
     <use xlink:href="#DejaVuSerif-Italic-49" transform="translate(56.494141 -15.478125) scale(0.7)"/>
     <use xlink:href="#DejaVuSerif-Italic-4e" transform="translate(84.145508 -15.478125) scale(0.7)"/>
    </g>
   </g>
   <g id="patch_9">
    <path d="M 107.244 242.18 
C 107.960048 242.18 108.646866 241.895511 109.153188 241.389188 
C 109.659511 240.882866 109.944 240.196048 109.944 239.48 
C 109.944 238.763952 109.659511 238.077134 109.153188 237.570812 
C 108.646866 237.064489 107.960048 236.78 107.244 236.78 
C 106.527952 236.78 105.841134 237.064489 105.334812 237.570812 
C 104.828489 238.077134 104.544 238.763952 104.544 239.48 
C 104.544 240.196048 104.828489 240.882866 105.334812 241.389188 
C 105.841134 241.895511 106.527952 242.18 107.244 242.18 
z
" clip-path="url(#pd3c223deb3)" style="stroke: #000000; stroke-width: 2; stroke-linejoin: miter"/>
   </g>
   <g id="text_5">
    <!-- $I_1$ -->
    <g transform="translate(73.324 209.245) scale(0.16 -0.16)">
     <use xlink:href="#DejaVuSans-Oblique-49" transform="translate(0 0.09375)"/>
     <use xlink:href="#DejaVuSans-31" transform="translate(29.492188 -16.3125) scale(0.7)"/>
    </g>
   </g>
   <g id="text_6">
    <!-- $M_2$ -->
    <g transform="translate(215.844 171.895) scale(0.16 -0.16)">
     <use xlink:href="#DejaVuSans-Oblique-4d" transform="translate(0 0.09375)"/>
     <use xlink:href="#DejaVuSans-32" transform="translate(86.279297 -16.3125) scale(0.7)"/>
    </g>
   </g>
   <g id="patch_10">
    <path d="M 283.644 110.18 
C 284.360048 110.18 285.046866 109.895511 285.553188 109.389188 
C 286.059511 108.882866 286.344 108.196048 286.344 107.48 
C 286.344 106.763952 286.059511 106.077134 285.553188 105.570812 
C 285.046866 105.064489 284.360048 104.78 283.644 104.78 
C 282.927952 104.78 282.241134 105.064489 281.734812 105.570812 
C 281.228489 106.077134 280.944 106.763952 280.944 107.48 
C 280.944 108.196048 281.228489 108.882866 281.734812 109.389188 
C 282.241134 109.895511 282.927952 110.18 283.644 110.18 
z
" clip-path="url(#pd3c223deb3)" style="fill: #ffffff; stroke: #000000; stroke-width: 2; stroke-linejoin: miter"/>
   </g>
   <g id="text_7">
    <!-- $v_{OUT}$ -->
    <g transform="translate(289.944 111.895) scale(0.16 -0.16)">
     <defs>
      <path id="DejaVuSerif-Italic-4f" d="M 2219 244 
Q 2984 244 3478 770 
Q 3972 1297 4172 2328 
Q 4372 3363 4084 3889 
Q 3797 4416 3031 4416 
Q 2263 4416 1769 3889 
Q 1275 3363 1075 2328 
Q 875 1297 1162 770 
Q 1450 244 2219 244 
z
M 2153 -91 
Q 1678 -91 1311 65 
Q 944 222 700 525 
Q 419 875 334 1319 
Q 250 1763 359 2328 
Q 469 2894 725 3339 
Q 981 3784 1400 4134 
Q 1766 4441 2191 4595 
Q 2616 4750 3097 4750 
Q 4113 4750 4608 4084 
Q 5103 3419 4891 2328 
Q 4781 1769 4522 1320 
Q 4263 872 3847 525 
Q 3481 219 3056 64 
Q 2631 -91 2153 -91 
z
" transform="scale(0.015625)"/>
      <path id="DejaVuSerif-Italic-55" d="M 1294 4331 
L 697 4331 
L 763 4666 
L 2588 4666 
L 2522 4331 
L 1925 4331 
L 1456 1919 
Q 1281 1025 1506 672 
Q 1731 319 2447 319 
Q 3163 319 3522 672 
Q 3881 1025 4056 1919 
L 4525 4331 
L 3928 4331 
L 3994 4666 
L 5569 4666 
L 5503 4331 
L 4909 4331 
L 4428 1856 
Q 4222 791 3726 350 
Q 3231 -91 2250 -91 
Q 1269 -91 937 353 
Q 606 797 813 1856 
L 1294 4331 
z
" transform="scale(0.015625)"/>
      <path id="DejaVuSerif-Italic-54" d="M 769 0 
L 831 331 
L 1428 331 
L 2200 4294 
L 828 4294 
L 688 3566 
L 303 3566 
L 516 4666 
L 4659 4666 
L 4447 3566 
L 4063 3566 
L 4203 4294 
L 2831 4294 
L 2059 331 
L 2656 331 
L 2594 0 
L 769 0 
z
" transform="scale(0.015625)"/>
     </defs>
     <use xlink:href="#DejaVuSerif-Italic-76" transform="translate(0 0.09375)"/>
     <use xlink:href="#DejaVuSerif-Italic-4f" transform="translate(56.494141 -15.478125) scale(0.7)"/>
     <use xlink:href="#DejaVuSerif-Italic-55" transform="translate(113.881836 -15.478125) scale(0.7)"/>
     <use xlink:href="#DejaVuSerif-Italic-54" transform="translate(172.875977 -15.478125) scale(0.7)"/>
    </g>
   </g>
   <g id="patch_11">
    <path d="M 107.244 170.18 
C 107.960048 170.18 108.646866 169.895511 109.153188 169.389188 
C 109.659511 168.882866 109.944 168.196048 109.944 167.48 
C 109.944 166.763952 109.659511 166.077134 109.153188 165.570812 
C 108.646866 165.064489 107.960048 164.78 107.244 164.78 
C 106.527952 164.78 105.841134 165.064489 105.334812 165.570812 
C 104.828489 166.077134 104.544 166.763952 104.544 167.48 
C 104.544 168.196048 104.828489 168.882866 105.334812 169.389188 
C 105.841134 169.895511 106.527952 170.18 107.244 170.18 
z
" clip-path="url(#pd3c223deb3)" style="stroke: #000000; stroke-width: 2; stroke-linejoin: miter"/>
   </g>
   <g id="patch_12">
    <path d="M 107.244 110.18 
C 107.960048 110.18 108.646866 109.895511 109.153188 109.389188 
C 109.659511 108.882866 109.944 108.196048 109.944 107.48 
C 109.944 106.763952 109.659511 106.077134 109.153188 105.570812 
C 108.646866 105.064489 107.960048 104.78 107.244 104.78 
C 106.527952 104.78 105.841134 105.064489 105.334812 105.570812 
C 104.828489 106.077134 104.544 106.763952 104.544 107.48 
C 104.544 108.196048 104.828489 108.882866 105.334812 109.389188 
C 105.841134 109.895511 106.527952 110.18 107.244 110.18 
z
" clip-path="url(#pd3c223deb3)" style="stroke: #000000; stroke-width: 2; stroke-linejoin: miter"/>
   </g>
   <g id="patch_13">
    <path d="M 211.644 110.18 
C 212.360048 110.18 213.046866 109.895511 213.553188 109.389188 
C 214.059511 108.882866 214.344 108.196048 214.344 107.48 
C 214.344 106.763952 214.059511 106.077134 213.553188 105.570812 
C 213.046866 105.064489 212.360048 104.78 211.644 104.78 
C 210.927952 104.78 210.241134 105.064489 209.734812 105.570812 
C 209.228489 106.077134 208.944 106.763952 208.944 107.48 
C 208.944 108.196048 209.228489 108.882866 209.734812 109.389188 
C 210.241134 109.895511 210.927952 110.18 211.644 110.18 
z
" clip-path="url(#pd3c223deb3)" style="stroke: #000000; stroke-width: 2; stroke-linejoin: miter"/>
   </g>
   <g id="line2d_24">
    <path d="M 211.944 122.48 
L 211.944 122.48 
" clip-path="url(#pd3c223deb3)" style="fill: none; stroke: #000000; stroke-width: 2; stroke-linecap: round"/>
   </g>
   <g id="patch_14">
    <path d="M 217.34292 122.372022 
L 212.159957 133.277841 
L 206.54508 122.587978 
z
" clip-path="url(#pd3c223deb3)"/>
   </g>
   <g id="text_8">
    <!-- $I_2-I_1$ -->
    <g transform="translate(218.578242 134.061615) scale(0.16 -0.16)">
     <defs>
      <path id="DejaVuSans-2212" d="M 678 2272 
L 4684 2272 
L 4684 1741 
L 678 1741 
L 678 2272 
z
" transform="scale(0.015625)"/>
     </defs>
     <use xlink:href="#DejaVuSans-Oblique-49" transform="translate(0 0.09375)"/>
     <use xlink:href="#DejaVuSans-32" transform="translate(29.492188 -16.3125) scale(0.7)"/>
     <use xlink:href="#DejaVuSans-2212" transform="translate(96.245117 0.09375)"/>
     <use xlink:href="#DejaVuSans-Oblique-49" transform="translate(199.516602 0.09375)"/>
     <use xlink:href="#DejaVuSans-31" transform="translate(229.008789 -16.3125) scale(0.7)"/>
    </g>
   </g>
  </g>
 </g>
 <defs>
  <clipPath id="pd3c223deb3">
   <rect x="0" y="0" width="339.648" height="267.2"/>
  </clipPath>
 </defs>
</svg>
