<?xml version="1.0" encoding="utf-8" standalone="no"?>
<!DOCTYPE svg PUBLIC "-//W3C//DTD SVG 1.1//EN"
  "http://www.w3.org/Graphics/SVG/1.1/DTD/svg11.dtd">
<svg xmlns:xlink="http://www.w3.org/1999/xlink" width="556.152pt" height="361.44pt" viewBox="0 0 556.152 361.44" xmlns="http://www.w3.org/2000/svg" version="1.1">
 <metadata>
  <rdf:RDF xmlns:dc="http://purl.org/dc/elements/1.1/" xmlns:cc="http://creativecommons.org/ns#" xmlns:rdf="http://www.w3.org/1999/02/22-rdf-syntax-ns#">
   <cc:Work>
    <dc:type rdf:resource="http://purl.org/dc/dcmitype/StillImage"/>
    <dc:date>2025-03-25T23:31:58.608037</dc:date>
    <dc:format>image/svg+xml</dc:format>
    <dc:creator>
     <cc:Agent>
      <dc:title>Matplotlib v3.9.2, https://matplotlib.org/</dc:title>
     </cc:Agent>
    </dc:creator>
   </cc:Work>
  </rdf:RDF>
 </metadata>
 <defs>
  <style type="text/css">*{stroke-linejoin: round; stroke-linecap: butt}</style>
 </defs>
 <g id="figure_1">
  <g id="patch_1">
   <path d="M 0 361.44 
L 556.152 361.44 
L 556.152 0 
L 0 0 
z
" style="fill: #ffffff"/>
  </g>
  <g id="axes_1">
   <g id="patch_2">
    <path d="M 147.048 189.72 
C 151.821656 189.72 156.400438 187.823406 159.775922 184.447922 
C 163.151406 181.072438 165.048 176.493656 165.048 171.72 
C 165.048 166.946344 163.151406 162.367562 159.775922 158.992078 
C 156.400438 155.616594 151.821656 153.72 147.048 153.72 
C 142.274344 153.72 137.695562 155.616594 134.320078 158.992078 
C 130.944594 162.367562 129.048 166.946344 129.048 171.72 
C 129.048 176.493656 130.944594 181.072438 134.320078 184.447922 
C 137.695562 187.823406 142.274344 189.72 147.048 189.72 
L 147.048 189.72 
z
" clip-path="url(#p62847a0d99)" style="fill: none; stroke: #000000; stroke-width: 2; stroke-linejoin: miter"/>
   </g>
   <g id="line2d_1">
    <path d="M 147.048 135.72 
L 147.048 153.72 
L 147.048 153.72 
M 147.048 189.72 
L 147.048 189.72 
L 147.048 207.72 
" clip-path="url(#p62847a0d99)" style="fill: none; stroke: #000000; stroke-width: 2; stroke-linecap: round"/>
   </g>
   <g id="line2d_2">
    <path d="M 150.648 180.72 
L 143.448 180.72 
" clip-path="url(#p62847a0d99)" style="fill: none; stroke: #000000; stroke-width: 2; stroke-linecap: round"/>
   </g>
   <g id="line2d_3">
    <path d="M 147.048 159.12 
L 147.048 166.32 
" clip-path="url(#p62847a0d99)" style="fill: none; stroke: #000000; stroke-width: 2; stroke-linecap: round"/>
   </g>
   <g id="line2d_4">
    <path d="M 150.648 162.72 
L 143.448 162.72 
" clip-path="url(#p62847a0d99)" style="fill: none; stroke: #000000; stroke-width: 2; stroke-linecap: round"/>
   </g>
   <g id="line2d_5">
    <path d="M 147.048 207.72 
L 147.048 222.12 
L 138.048 222.12 
L 156.048 222.12 
M 140.748 226.44 
L 153.348 226.44 
M 145.248 230.76 
L 148.848 230.76 
" clip-path="url(#p62847a0d99)" style="fill: none; stroke: #000000; stroke-width: 2; stroke-linecap: round"/>
   </g>
   <g id="line2d_6">
    <path d="M 75.048 207.72 
L 75.048 222.12 
L 66.048 222.12 
L 84.048 222.12 
M 68.748 226.44 
L 81.348 226.44 
M 73.248 230.76 
L 76.848 230.76 
" clip-path="url(#p62847a0d99)" style="fill: none; stroke: #000000; stroke-width: 2; stroke-linecap: round"/>
   </g>
   <g id="line2d_7">
    <path d="M 75.048 207.72 
L 75.048 189.72 
L 57.048 171.72 
L 75.048 153.72 
L 93.048 171.72 
L 75.048 189.72 
M 75.048 153.72 
L 75.048 135.72 
" clip-path="url(#p62847a0d99)" style="fill: none; stroke: #000000; stroke-width: 2; stroke-linecap: round"/>
   </g>
   <g id="line2d_8">
    <path d="M 78.648 180.72 
L 71.448 180.72 
" clip-path="url(#p62847a0d99)" style="fill: none; stroke: #000000; stroke-width: 2; stroke-linecap: round"/>
   </g>
   <g id="line2d_9">
    <path d="M 75.048 166.32 
L 75.048 159.12 
" clip-path="url(#p62847a0d99)" style="fill: none; stroke: #000000; stroke-width: 2; stroke-linecap: round"/>
   </g>
   <g id="line2d_10">
    <path d="M 78.648 162.72 
L 71.448 162.72 
" clip-path="url(#p62847a0d99)" style="fill: none; stroke: #000000; stroke-width: 2; stroke-linecap: round"/>
   </g>
   <g id="line2d_11">
    <path d="M 75.048 135.72 
L 93.048 135.72 
L 111.048 135.72 
" clip-path="url(#p62847a0d99)" style="fill: none; stroke: #000000; stroke-width: 2; stroke-linecap: round"/>
   </g>
   <g id="line2d_12">
    <path d="M 147.048 135.72 
L 174.048 135.72 
L 201.048 135.72 
" clip-path="url(#p62847a0d99)" style="fill: none; stroke: #000000; stroke-width: 2; stroke-linecap: round"/>
   </g>
   <g id="line2d_13">
    <path d="M 309.048 135.72 
L 309.048 153.72 
L 327.048 171.72 
L 309.048 189.72 
L 291.048 171.72 
L 309.048 153.72 
M 309.048 189.72 
L 309.048 207.72 
" clip-path="url(#p62847a0d99)" style="fill: none; stroke: #000000; stroke-width: 2; stroke-linecap: round"/>
   </g>
   <g id="line2d_14">
    <path d="M 309.048 162.72 
L 309.048 171.72 
" clip-path="url(#p62847a0d99)" style="fill: none; stroke: #000000; stroke-width: 2; stroke-linecap: round"/>
   </g>
   <g id="patch_3">
    <path d="M 311.748 171.72 
L 309.048 180.72 
L 306.348 171.72 
z
" clip-path="url(#p62847a0d99)"/>
   </g>
   <g id="line2d_15">
    <path d="M 309.048 207.72 
L 309.048 225.72 
L 309.048 243.72 
" clip-path="url(#p62847a0d99)" style="fill: none; stroke: #000000; stroke-width: 2; stroke-linecap: round"/>
   </g>
   <g id="line2d_16">
    <path d="M 309.048 243.72 
L 363.048 243.72 
L 417.048 243.72 
" clip-path="url(#p62847a0d99)" style="fill: none; stroke: #000000; stroke-width: 2; stroke-linecap: round"/>
   </g>
   <g id="line2d_17">
    <path d="M 417.048 243.72 
L 417.048 225.72 
L 417.048 207.72 
" clip-path="url(#p62847a0d99)" style="fill: none; stroke: #000000; stroke-width: 2; stroke-linecap: round"/>
   </g>
   <g id="line2d_18">
    <path d="M 417.048 207.72 
L 417.048 189.72 
L 408.048 186.72 
L 426.048 180.72 
L 408.048 174.72 
L 426.048 168.72 
L 408.048 162.72 
L 426.048 156.72 
L 417.048 153.72 
L 417.048 135.72 
" clip-path="url(#p62847a0d99)" style="fill: none; stroke: #000000; stroke-width: 2; stroke-linecap: round"/>
   </g>
   <g id="line2d_19">
    <path d="M 417.048 135.72 
L 417.048 117.72 
L 417.048 99.72 
" clip-path="url(#p62847a0d99)" style="fill: none; stroke: #000000; stroke-width: 2; stroke-linecap: round"/>
   </g>
   <g id="line2d_20">
    <path d="M 417.048 99.72 
L 363.048 99.72 
L 309.048 99.72 
" clip-path="url(#p62847a0d99)" style="fill: none; stroke: #000000; stroke-width: 2; stroke-linecap: round"/>
   </g>
   <g id="line2d_21">
    <path d="M 309.048 99.72 
L 309.048 117.72 
L 309.048 135.72 
" clip-path="url(#p62847a0d99)" style="fill: none; stroke: #000000; stroke-width: 2; stroke-linecap: round"/>
   </g>
   <g id="line2d_22">
    <path d="M 309.048 243.72 
L 309.048 252.72 
L 309.048 261.72 
" clip-path="url(#p62847a0d99)" style="fill: none; stroke: #000000; stroke-width: 2; stroke-linecap: round"/>
   </g>
   <g id="line2d_23">
    <path d="M 309.048 261.72 
L 309.048 279.72 
L 318.048 282.72 
L 300.048 288.72 
L 318.048 294.72 
L 300.048 300.72 
L 318.048 306.72 
L 300.048 312.72 
L 309.048 315.72 
L 309.048 333.72 
" clip-path="url(#p62847a0d99)" style="fill: none; stroke: #000000; stroke-width: 2; stroke-linecap: round"/>
   </g>
   <g id="line2d_24">
    <path d="M 309.048 333.72 
L 309.048 348.12 
L 300.048 348.12 
L 318.048 348.12 
M 302.748 352.44 
L 315.348 352.44 
M 307.248 356.76 
L 310.848 356.76 
" clip-path="url(#p62847a0d99)" style="fill: none; stroke: #000000; stroke-width: 2; stroke-linecap: round"/>
   </g>
   <g id="line2d_25">
    <path d="M 309.048 99.72 
L 309.048 63.72 
L 309.048 27.72 
" clip-path="url(#p62847a0d99)" style="fill: none; stroke: #000000; stroke-width: 2; stroke-linecap: round"/>
   </g>
   <g id="line2d_26">
    <path d="M 309.048 243.72 
L 165.048 243.72 
L 21.048 243.72 
" clip-path="url(#p62847a0d99)" style="fill: none; stroke: #000000; stroke-width: 2; stroke-linecap: round"/>
   </g>
   <g id="line2d_27">
    <path d="M 21.048 315.72 
L 21.048 324.72 
L 21.048 333.72 
" clip-path="url(#p62847a0d99)" style="fill: none; stroke: #000000; stroke-width: 2; stroke-linecap: round"/>
   </g>
   <g id="line2d_28">
    <path d="M 21.048 333.72 
L 21.048 348.12 
L 12.048 348.12 
L 30.048 348.12 
M 14.748 352.44 
L 27.348 352.44 
M 19.248 356.76 
L 22.848 356.76 
" clip-path="url(#p62847a0d99)" style="fill: none; stroke: #000000; stroke-width: 2; stroke-linecap: round"/>
   </g>
   <g id="line2d_29">
    <path d="M 309.048 27.72 
L 309.048 13.32 
L 318.048 13.32 
L 300.048 13.32 
M 315.348 9 
L 302.748 9 
M 310.848 4.68 
L 307.248 4.68 
" clip-path="url(#p62847a0d99)" style="fill: none; stroke: #000000; stroke-width: 2; stroke-linecap: round"/>
   </g>
   <g id="line2d_30">
    <path d="M 417.048 243.72 
L 417.048 252.72 
L 417.048 261.72 
" clip-path="url(#p62847a0d99)" style="fill: none; stroke: #000000; stroke-width: 2; stroke-linecap: round"/>
   </g>
   <g id="line2d_31">
    <path d="M 417.048 261.72 
L 417.048 279.72 
L 426.048 282.72 
L 408.048 288.72 
L 426.048 294.72 
L 408.048 300.72 
L 426.048 306.72 
L 408.048 312.72 
L 417.048 315.72 
L 417.048 333.72 
" clip-path="url(#p62847a0d99)" style="fill: none; stroke: #000000; stroke-width: 2; stroke-linecap: round"/>
   </g>
   <g id="line2d_32">
    <path d="M 417.048 333.72 
L 417.048 348.12 
L 408.048 348.12 
L 426.048 348.12 
M 410.748 352.44 
L 423.348 352.44 
M 415.248 356.76 
L 418.848 356.76 
" clip-path="url(#p62847a0d99)" style="fill: none; stroke: #000000; stroke-width: 2; stroke-linecap: round"/>
   </g>
   <g id="text_1">
    <!-- $v_t$ -->
    <g transform="translate(168.648 176.135) scale(0.16 -0.16)">
     <defs>
      <path id="DejaVuSans-Oblique-76" d="M 459 3500 
L 1069 3500 
L 1581 525 
L 3256 3500 
L 3866 3500 
L 1875 0 
L 1100 0 
L 459 3500 
z
" transform="scale(0.015625)"/>
      <path id="DejaVuSans-Oblique-74" d="M 2706 3500 
L 2619 3053 
L 1472 3053 
L 1100 1153 
Q 1081 1047 1072 975 
Q 1063 903 1063 863 
Q 1063 663 1183 572 
Q 1303 481 1569 481 
L 2150 481 
L 2053 0 
L 1503 0 
Q 991 0 739 200 
Q 488 400 488 806 
Q 488 878 497 964 
Q 506 1050 525 1153 
L 897 3053 
L 409 3053 
L 500 3500 
L 978 3500 
L 1172 4494 
L 1747 4494 
L 1556 3500 
L 2706 3500 
z
" transform="scale(0.015625)"/>
     </defs>
     <use xlink:href="#DejaVuSans-Oblique-76" transform="translate(0 0.3125)"/>
     <use xlink:href="#DejaVuSans-Oblique-74" transform="translate(59.179688 -16.09375) scale(0.7)"/>
    </g>
   </g>
   <g id="text_2">
    <!-- $a_v v_d$ -->
    <g transform="translate(19.528 176.135) scale(0.16 -0.16)">
     <defs>
      <path id="DejaVuSans-Oblique-61" d="M 3438 1997 
L 3047 0 
L 2472 0 
L 2578 531 
Q 2325 219 2001 64 
Q 1678 -91 1281 -91 
Q 834 -91 548 182 
Q 263 456 263 884 
Q 263 1497 752 1853 
Q 1241 2209 2100 2209 
L 2900 2209 
L 2931 2363 
Q 2938 2388 2941 2417 
Q 2944 2447 2944 2509 
Q 2944 2788 2717 2942 
Q 2491 3097 2081 3097 
Q 1800 3097 1504 3025 
Q 1209 2953 897 2809 
L 997 3341 
Q 1322 3463 1633 3523 
Q 1944 3584 2234 3584 
Q 2853 3584 3176 3315 
Q 3500 3047 3500 2534 
Q 3500 2431 3484 2292 
Q 3469 2153 3438 1997 
z
M 2816 1759 
L 2241 1759 
Q 1534 1759 1195 1570 
Q 856 1381 856 984 
Q 856 709 1029 553 
Q 1203 397 1509 397 
Q 1978 397 2328 733 
Q 2678 1069 2791 1631 
L 2816 1759 
z
" transform="scale(0.015625)"/>
      <path id="DejaVuSans-Oblique-64" d="M 2675 525 
Q 2444 222 2128 65 
Q 1813 -91 1428 -91 
Q 903 -91 598 267 
Q 294 625 294 1247 
Q 294 1766 478 2236 
Q 663 2706 1013 3078 
Q 1244 3325 1534 3454 
Q 1825 3584 2144 3584 
Q 2481 3584 2739 3421 
Q 2997 3259 3138 2956 
L 3513 4863 
L 4091 4863 
L 3144 0 
L 2566 0 
L 2675 525 
z
M 891 1350 
Q 891 897 1095 644 
Q 1300 391 1663 391 
Q 1931 391 2161 520 
Q 2391 650 2566 903 
Q 2750 1166 2856 1509 
Q 2963 1853 2963 2188 
Q 2963 2622 2758 2865 
Q 2553 3109 2194 3109 
Q 1922 3109 1687 2981 
Q 1453 2853 1288 2613 
Q 1106 2353 998 2009 
Q 891 1666 891 1350 
z
" transform="scale(0.015625)"/>
     </defs>
     <use xlink:href="#DejaVuSans-Oblique-61"/>
     <use xlink:href="#DejaVuSans-Oblique-76" transform="translate(61.279297 -16.40625) scale(0.7)"/>
     <use xlink:href="#DejaVuSans-Oblique-76" transform="translate(105.439453 0)"/>
     <use xlink:href="#DejaVuSans-Oblique-64" transform="translate(164.619141 -16.40625) scale(0.7)"/>
    </g>
   </g>
   <g id="text_3">
    <!-- $v_r$ -->
    <g style="fill: #ff0000" transform="translate(85.768 128.7925) scale(0.16 -0.16)">
     <defs>
      <path id="DejaVuSans-Oblique-72" d="M 2853 2969 
Q 2766 3016 2653 3041 
Q 2541 3066 2413 3066 
Q 1953 3066 1609 2717 
Q 1266 2369 1153 1784 
L 800 0 
L 225 0 
L 909 3500 
L 1484 3500 
L 1375 2956 
Q 1603 3259 1920 3421 
Q 2238 3584 2597 3584 
Q 2691 3584 2781 3573 
Q 2872 3563 2963 3538 
L 2853 2969 
z
" transform="scale(0.015625)"/>
     </defs>
     <use xlink:href="#DejaVuSans-Oblique-76" transform="translate(0 0.3125)"/>
     <use xlink:href="#DejaVuSans-Oblique-72" transform="translate(59.179688 -16.09375) scale(0.7)"/>
    </g>
   </g>
   <g id="patch_4">
    <path d="M 201.048 138.42 
C 201.764048 138.42 202.450866 138.135511 202.957188 137.629188 
C 203.463511 137.122866 203.748 136.436048 203.748 135.72 
C 203.748 135.003952 203.463511 134.317134 202.957188 133.810812 
C 202.450866 133.304489 201.764048 133.02 201.048 133.02 
C 200.331952 133.02 199.645134 133.304489 199.138812 133.810812 
C 198.632489 134.317134 198.348 135.003952 198.348 135.72 
C 198.348 136.436048 198.632489 137.122866 199.138812 137.629188 
C 199.645134 138.135511 200.331952 138.42 201.048 138.42 
z
" clip-path="url(#p62847a0d99)" style="fill: #ffffff; stroke: #000000; stroke-width: 2; stroke-linejoin: miter"/>
   </g>
   <g id="text_4">
    <!-- $v_t$ -->
    <g style="fill: #ff0000" transform="translate(168.198 126.0925) scale(0.16 -0.16)">
     <use xlink:href="#DejaVuSans-Oblique-76" transform="translate(0 0.3125)"/>
     <use xlink:href="#DejaVuSans-Oblique-74" transform="translate(59.179688 -16.09375) scale(0.7)"/>
    </g>
   </g>
   <g id="text_5">
    <!-- $G_2$ -->
    <g transform="translate(207.348 140.135) scale(0.16 -0.16)">
     <defs>
      <path id="DejaVuSans-Oblique-47" d="M 3494 697 
L 3738 1919 
L 2700 1919 
L 2797 2438 
L 4453 2438 
L 4050 384 
Q 3634 156 3143 32 
Q 2653 -91 2156 -91 
Q 1278 -91 783 396 
Q 288 884 288 1753 
Q 288 2475 589 3126 
Q 891 3778 1422 4213 
Q 1756 4484 2153 4617 
Q 2550 4750 3034 4750 
Q 3472 4750 3873 4639 
Q 4275 4528 4641 4306 
L 4513 3634 
Q 4231 3928 3853 4083 
Q 3475 4238 3047 4238 
Q 2550 4238 2172 4048 
Q 1794 3859 1497 3463 
Q 1244 3125 1098 2667 
Q 953 2209 953 1734 
Q 953 1081 1287 751 
Q 1622 422 2284 422 
Q 2616 422 2925 492 
Q 3234 563 3494 697 
z
" transform="scale(0.015625)"/>
      <path id="DejaVuSans-32" d="M 1228 531 
L 3431 531 
L 3431 0 
L 469 0 
L 469 531 
Q 828 903 1448 1529 
Q 2069 2156 2228 2338 
Q 2531 2678 2651 2914 
Q 2772 3150 2772 3378 
Q 2772 3750 2511 3984 
Q 2250 4219 1831 4219 
Q 1534 4219 1204 4116 
Q 875 4013 500 3803 
L 500 4441 
Q 881 4594 1212 4672 
Q 1544 4750 1819 4750 
Q 2544 4750 2975 4387 
Q 3406 4025 3406 3419 
Q 3406 3131 3298 2873 
Q 3191 2616 2906 2266 
Q 2828 2175 2409 1742 
Q 1991 1309 1228 531 
z
" transform="scale(0.015625)"/>
     </defs>
     <use xlink:href="#DejaVuSans-Oblique-47" transform="translate(0 0.78125)"/>
     <use xlink:href="#DejaVuSans-32" transform="translate(77.490234 -15.625) scale(0.7)"/>
    </g>
   </g>
   <g id="text_6">
    <!-- $g_{m2}v_{gs2}$ -->
    <g transform="translate(330.648 174.5025) scale(0.16 -0.16)">
     <defs>
      <path id="DejaVuSans-Oblique-67" d="M 3816 3500 
L 3219 434 
Q 3047 -456 2561 -893 
Q 2075 -1331 1253 -1331 
Q 950 -1331 690 -1286 
Q 431 -1241 206 -1147 
L 313 -588 
Q 525 -725 762 -790 
Q 1000 -856 1269 -856 
Q 1816 -856 2167 -557 
Q 2519 -259 2631 300 
L 2681 563 
Q 2441 288 2122 144 
Q 1803 0 1434 0 
Q 903 0 598 351 
Q 294 703 294 1319 
Q 294 1803 478 2267 
Q 663 2731 997 3091 
Q 1219 3328 1514 3456 
Q 1809 3584 2131 3584 
Q 2484 3584 2746 3420 
Q 3009 3256 3138 2956 
L 3238 3500 
L 3816 3500 
z
M 2950 2216 
Q 2950 2641 2750 2872 
Q 2550 3103 2181 3103 
Q 1953 3103 1747 3012 
Q 1541 2922 1394 2759 
Q 1156 2491 1023 2127 
Q 891 1763 891 1375 
Q 891 944 1092 712 
Q 1294 481 1672 481 
Q 2219 481 2584 976 
Q 2950 1472 2950 2216 
z
" transform="scale(0.015625)"/>
      <path id="DejaVuSans-Oblique-6d" d="M 5747 2113 
L 5338 0 
L 4763 0 
L 5166 2094 
Q 5191 2228 5203 2325 
Q 5216 2422 5216 2491 
Q 5216 2772 5059 2928 
Q 4903 3084 4622 3084 
Q 4203 3084 3875 2770 
Q 3547 2456 3450 1953 
L 3066 0 
L 2491 0 
L 2900 2094 
Q 2925 2209 2937 2307 
Q 2950 2406 2950 2484 
Q 2950 2769 2794 2926 
Q 2638 3084 2363 3084 
Q 1938 3084 1609 2770 
Q 1281 2456 1184 1953 
L 800 0 
L 225 0 
L 909 3500 
L 1484 3500 
L 1375 2956 
Q 1609 3263 1923 3423 
Q 2238 3584 2597 3584 
Q 2978 3584 3223 3384 
Q 3469 3184 3519 2828 
Q 3781 3197 4126 3390 
Q 4472 3584 4856 3584 
Q 5306 3584 5551 3325 
Q 5797 3066 5797 2591 
Q 5797 2488 5784 2364 
Q 5772 2241 5747 2113 
z
" transform="scale(0.015625)"/>
      <path id="DejaVuSans-Oblique-73" d="M 3200 3397 
L 3091 2853 
Q 2863 2978 2609 3040 
Q 2356 3103 2088 3103 
Q 1634 3103 1373 2948 
Q 1113 2794 1113 2528 
Q 1113 2219 1719 2053 
Q 1766 2041 1788 2034 
L 1972 1978 
Q 2547 1819 2739 1644 
Q 2931 1469 2931 1166 
Q 2931 609 2489 259 
Q 2047 -91 1331 -91 
Q 1053 -91 747 -37 
Q 441 16 72 128 
L 184 722 
Q 500 559 806 475 
Q 1113 391 1394 391 
Q 1816 391 2080 572 
Q 2344 753 2344 1031 
Q 2344 1331 1650 1516 
L 1591 1531 
L 1394 1581 
Q 956 1697 753 1886 
Q 550 2075 550 2369 
Q 550 2928 970 3256 
Q 1391 3584 2113 3584 
Q 2397 3584 2667 3537 
Q 2938 3491 3200 3397 
z
" transform="scale(0.015625)"/>
     </defs>
     <use xlink:href="#DejaVuSans-Oblique-67"/>
     <use xlink:href="#DejaVuSans-Oblique-6d" transform="translate(63.476562 -16.40625) scale(0.7)"/>
     <use xlink:href="#DejaVuSans-32" transform="translate(131.665039 -16.40625) scale(0.7)"/>
     <use xlink:href="#DejaVuSans-Oblique-76" transform="translate(178.935547 0)"/>
     <use xlink:href="#DejaVuSans-Oblique-67" transform="translate(238.115234 -16.40625) scale(0.7)"/>
     <use xlink:href="#DejaVuSans-Oblique-73" transform="translate(282.548828 -16.40625) scale(0.7)"/>
     <use xlink:href="#DejaVuSans-32" transform="translate(319.018555 -16.40625) scale(0.7)"/>
    </g>
   </g>
   <g id="text_7">
    <!-- $r_{o2}$ -->
    <g transform="translate(429.648 176.135) scale(0.16 -0.16)">
     <defs>
      <path id="DejaVuSans-Oblique-6f" d="M 1625 -91 
Q 1009 -91 651 289 
Q 294 669 294 1325 
Q 294 1706 417 2101 
Q 541 2497 738 2766 
Q 1047 3184 1428 3384 
Q 1809 3584 2291 3584 
Q 2888 3584 3255 3212 
Q 3622 2841 3622 2241 
Q 3622 1825 3500 1412 
Q 3378 1000 3181 728 
Q 2875 309 2494 109 
Q 2113 -91 1625 -91 
z
M 891 1344 
Q 891 869 1089 633 
Q 1288 397 1691 397 
Q 2269 397 2648 901 
Q 3028 1406 3028 2181 
Q 3028 2634 2825 2865 
Q 2622 3097 2228 3097 
Q 1903 3097 1650 2945 
Q 1397 2794 1197 2484 
Q 1050 2253 970 1956 
Q 891 1659 891 1344 
z
" transform="scale(0.015625)"/>
     </defs>
     <use xlink:href="#DejaVuSans-Oblique-72"/>
     <use xlink:href="#DejaVuSans-Oblique-6f" transform="translate(41.113281 -16.40625) scale(0.7)"/>
     <use xlink:href="#DejaVuSans-32" transform="translate(83.94043 -16.40625) scale(0.7)"/>
    </g>
   </g>
   <g id="text_8">
    <!-- $r_{o1}$ -->
    <g transform="translate(321.648 302.135) scale(0.16 -0.16)">
     <defs>
      <path id="DejaVuSans-31" d="M 794 531 
L 1825 531 
L 1825 4091 
L 703 3866 
L 703 4441 
L 1819 4666 
L 2450 4666 
L 2450 531 
L 3481 531 
L 3481 0 
L 794 0 
L 794 531 
z
" transform="scale(0.015625)"/>
     </defs>
     <use xlink:href="#DejaVuSans-Oblique-72"/>
     <use xlink:href="#DejaVuSans-Oblique-6f" transform="translate(41.113281 -16.40625) scale(0.7)"/>
     <use xlink:href="#DejaVuSans-31" transform="translate(83.94043 -16.40625) scale(0.7)"/>
    </g>
   </g>
   <g id="text_9">
    <!-- $grounded$ -->
    <g transform="translate(228.328 68.12) scale(0.16 -0.16)">
     <defs>
      <path id="DejaVuSans-Oblique-75" d="M 428 1388 
L 838 3500 
L 1416 3500 
L 1006 1409 
Q 975 1256 961 1147 
Q 947 1038 947 966 
Q 947 700 1109 554 
Q 1272 409 1569 409 
Q 2031 409 2368 721 
Q 2706 1034 2809 1563 
L 3194 3500 
L 3769 3500 
L 3091 0 
L 2516 0 
L 2631 550 
Q 2388 244 2052 76 
Q 1716 -91 1338 -91 
Q 878 -91 622 161 
Q 366 413 366 863 
Q 366 956 381 1097 
Q 397 1238 428 1388 
z
" transform="scale(0.015625)"/>
      <path id="DejaVuSans-Oblique-6e" d="M 3566 2113 
L 3156 0 
L 2578 0 
L 2988 2091 
Q 3016 2238 3031 2350 
Q 3047 2463 3047 2528 
Q 3047 2791 2881 2937 
Q 2716 3084 2419 3084 
Q 1956 3084 1622 2776 
Q 1288 2469 1184 1941 
L 800 0 
L 225 0 
L 903 3500 
L 1478 3500 
L 1363 2950 
Q 1603 3253 1940 3418 
Q 2278 3584 2650 3584 
Q 3113 3584 3367 3334 
Q 3622 3084 3622 2631 
Q 3622 2519 3608 2391 
Q 3594 2263 3566 2113 
z
" transform="scale(0.015625)"/>
      <path id="DejaVuSans-Oblique-65" d="M 3078 2063 
Q 3088 2113 3092 2166 
Q 3097 2219 3097 2272 
Q 3097 2653 2873 2875 
Q 2650 3097 2266 3097 
Q 1838 3097 1509 2826 
Q 1181 2556 1013 2059 
L 3078 2063 
z
M 3578 1613 
L 903 1613 
Q 884 1494 878 1425 
Q 872 1356 872 1306 
Q 872 872 1139 634 
Q 1406 397 1894 397 
Q 2269 397 2603 481 
Q 2938 566 3225 728 
L 3116 159 
Q 2806 34 2476 -28 
Q 2147 -91 1806 -91 
Q 1078 -91 686 257 
Q 294 606 294 1247 
Q 294 1794 489 2264 
Q 684 2734 1063 3103 
Q 1306 3334 1642 3459 
Q 1978 3584 2356 3584 
Q 2950 3584 3301 3228 
Q 3653 2872 3653 2272 
Q 3653 2128 3634 1964 
Q 3616 1800 3578 1613 
z
" transform="scale(0.015625)"/>
     </defs>
     <use xlink:href="#DejaVuSans-Oblique-67" transform="translate(0 0.015625)"/>
     <use xlink:href="#DejaVuSans-Oblique-72" transform="translate(63.476562 0.015625)"/>
     <use xlink:href="#DejaVuSans-Oblique-6f" transform="translate(104.589844 0.015625)"/>
     <use xlink:href="#DejaVuSans-Oblique-75" transform="translate(165.771484 0.015625)"/>
     <use xlink:href="#DejaVuSans-Oblique-6e" transform="translate(229.150391 0.015625)"/>
     <use xlink:href="#DejaVuSans-Oblique-64" transform="translate(292.529297 0.015625)"/>
     <use xlink:href="#DejaVuSans-Oblique-65" transform="translate(356.005859 0.015625)"/>
     <use xlink:href="#DejaVuSans-Oblique-64" transform="translate(417.529297 0.015625)"/>
    </g>
   </g>
   <g id="text_10">
    <!-- $v_x=-v_d$ -->
    <g style="fill: #0000ff" transform="translate(128.568 259.4775) scale(0.16 -0.16)">
     <defs>
      <path id="DejaVuSans-Oblique-78" d="M 3841 3500 
L 2234 1784 
L 3219 0 
L 2559 0 
L 1819 1388 
L 531 0 
L -166 0 
L 1556 1844 
L 641 3500 
L 1300 3500 
L 1972 2234 
L 3144 3500 
L 3841 3500 
z
" transform="scale(0.015625)"/>
      <path id="DejaVuSans-3d" d="M 678 2906 
L 4684 2906 
L 4684 2381 
L 678 2381 
L 678 2906 
z
M 678 1631 
L 4684 1631 
L 4684 1100 
L 678 1100 
L 678 1631 
z
" transform="scale(0.015625)"/>
      <path id="DejaVuSans-2212" d="M 678 2272 
L 4684 2272 
L 4684 1741 
L 678 1741 
L 678 2272 
z
" transform="scale(0.015625)"/>
     </defs>
     <use xlink:href="#DejaVuSans-Oblique-76" transform="translate(0 0.3125)"/>
     <use xlink:href="#DejaVuSans-Oblique-78" transform="translate(59.179688 -16.09375) scale(0.7)"/>
     <use xlink:href="#DejaVuSans-3d" transform="translate(122.822266 0.3125)"/>
     <use xlink:href="#DejaVuSans-2212" transform="translate(245.576172 0.3125)"/>
     <use xlink:href="#DejaVuSans-Oblique-76" transform="translate(348.847656 0.3125)"/>
     <use xlink:href="#DejaVuSans-Oblique-64" transform="translate(408.027344 -16.09375) scale(0.7)"/>
    </g>
   </g>
   <g id="text_11">
    <!-- $-$ -->
    <g transform="translate(14.328 260.135) scale(0.16 -0.16)">
     <use xlink:href="#DejaVuSans-2212" transform="translate(0 0.5)"/>
    </g>
   </g>
   <g id="text_12">
    <!--   -->
    <g transform="translate(18.5055 272.135) scale(0.16 -0.16)">
     <defs>
      <path id="DejaVuSans-20" transform="scale(0.015625)"/>
     </defs>
     <use xlink:href="#DejaVuSans-20"/>
    </g>
   </g>
   <g id="text_13">
    <!-- $v_{d}$ -->
    <g transform="translate(12.488 284.135) scale(0.16 -0.16)">
     <use xlink:href="#DejaVuSans-Oblique-76" transform="translate(0 0.3125)"/>
     <use xlink:href="#DejaVuSans-Oblique-64" transform="translate(59.179688 -16.09375) scale(0.7)"/>
    </g>
   </g>
   <g id="text_14">
    <!--   -->
    <g transform="translate(18.5055 296.135) scale(0.16 -0.16)">
     <use xlink:href="#DejaVuSans-20"/>
    </g>
   </g>
   <g id="text_15">
    <!-- $+$ -->
    <g transform="translate(14.328 308.135) scale(0.16 -0.16)">
     <defs>
      <path id="DejaVuSans-2b" d="M 2944 4013 
L 2944 2272 
L 4684 2272 
L 4684 1741 
L 2944 1741 
L 2944 0 
L 2419 0 
L 2419 1741 
L 678 1741 
L 678 2272 
L 2419 2272 
L 2419 4013 
L 2944 4013 
z
" transform="scale(0.015625)"/>
     </defs>
     <use xlink:href="#DejaVuSans-2b" transform="translate(0 0.296875)"/>
    </g>
   </g>
   <g id="text_16">
    <!-- $V_{BIAS}=0$ -->
    <g transform="translate(33.648 349.655) scale(0.16 -0.16)">
     <defs>
      <path id="DejaVuSans-Oblique-56" d="M 1319 0 
L 500 4666 
L 1119 4666 
L 1797 653 
L 4063 4666 
L 4750 4666 
L 2053 0 
L 1319 0 
z
" transform="scale(0.015625)"/>
      <path id="DejaVuSans-Oblique-42" d="M 1081 4666 
L 2694 4666 
Q 3350 4666 3675 4422 
Q 4000 4178 4000 3688 
Q 4000 3238 3720 2911 
Q 3441 2584 2988 2516 
Q 3375 2428 3569 2181 
Q 3763 1934 3763 1522 
Q 3763 819 3242 409 
Q 2722 0 1819 0 
L 172 0 
L 1081 4666 
z
M 1234 2228 
L 903 519 
L 1919 519 
Q 2491 519 2800 781 
Q 3109 1044 3109 1522 
Q 3109 1891 2904 2059 
Q 2700 2228 2247 2228 
L 1234 2228 
z
M 1606 4147 
L 1331 2741 
L 2272 2741 
Q 2775 2741 3058 2959 
Q 3341 3178 3341 3566 
Q 3341 3869 3150 4008 
Q 2959 4147 2541 4147 
L 1606 4147 
z
" transform="scale(0.015625)"/>
      <path id="DejaVuSans-Oblique-49" d="M 1081 4666 
L 1716 4666 
L 806 0 
L 172 0 
L 1081 4666 
z
" transform="scale(0.015625)"/>
      <path id="DejaVuSans-Oblique-41" d="M 2356 4666 
L 3072 4666 
L 3938 0 
L 3278 0 
L 3084 1197 
L 984 1197 
L 325 0 
L -341 0 
L 2356 4666 
z
M 2584 4044 
L 1275 1722 
L 2988 1722 
L 2584 4044 
z
" transform="scale(0.015625)"/>
      <path id="DejaVuSans-Oblique-53" d="M 3859 4513 
L 3738 3897 
Q 3422 4066 3111 4152 
Q 2800 4238 2509 4238 
Q 1944 4238 1609 3991 
Q 1275 3744 1275 3334 
Q 1275 3109 1398 2989 
Q 1522 2869 2034 2731 
L 2413 2638 
Q 3053 2472 3303 2217 
Q 3553 1963 3553 1503 
Q 3553 797 2998 353 
Q 2444 -91 1538 -91 
Q 1166 -91 791 -17 
Q 416 56 38 206 
L 166 856 
Q 513 641 861 531 
Q 1209 422 1556 422 
Q 2147 422 2503 684 
Q 2859 947 2859 1369 
Q 2859 1650 2717 1795 
Q 2575 1941 2106 2059 
L 1728 2156 
Q 1081 2325 845 2545 
Q 609 2766 609 3163 
Q 609 3859 1145 4304 
Q 1681 4750 2541 4750 
Q 2875 4750 3203 4690 
Q 3531 4631 3859 4513 
z
" transform="scale(0.015625)"/>
      <path id="DejaVuSans-30" d="M 2034 4250 
Q 1547 4250 1301 3770 
Q 1056 3291 1056 2328 
Q 1056 1369 1301 889 
Q 1547 409 2034 409 
Q 2525 409 2770 889 
Q 3016 1369 3016 2328 
Q 3016 3291 2770 3770 
Q 2525 4250 2034 4250 
z
M 2034 4750 
Q 2819 4750 3233 4129 
Q 3647 3509 3647 2328 
Q 3647 1150 3233 529 
Q 2819 -91 2034 -91 
Q 1250 -91 836 529 
Q 422 1150 422 2328 
Q 422 3509 836 4129 
Q 1250 4750 2034 4750 
z
" transform="scale(0.015625)"/>
     </defs>
     <use xlink:href="#DejaVuSans-Oblique-56" transform="translate(0 0.78125)"/>
     <use xlink:href="#DejaVuSans-Oblique-42" transform="translate(68.408203 -15.625) scale(0.7)"/>
     <use xlink:href="#DejaVuSans-Oblique-49" transform="translate(116.430664 -15.625) scale(0.7)"/>
     <use xlink:href="#DejaVuSans-Oblique-41" transform="translate(137.075195 -15.625) scale(0.7)"/>
     <use xlink:href="#DejaVuSans-Oblique-53" transform="translate(184.960938 -15.625) scale(0.7)"/>
     <use xlink:href="#DejaVuSans-3d" transform="translate(251.611328 0.78125)"/>
     <use xlink:href="#DejaVuSans-30" transform="translate(354.882812 0.78125)"/>
    </g>
   </g>
   <g id="text_17">
    <!-- $\dfrac{1}{g_{mb2}}$ -->
    <g transform="translate(429.648 301.88) scale(0.16 -0.16)">
     <defs>
      <path id="DejaVuSans-Oblique-62" d="M 3169 2138 
Q 3169 2591 2961 2847 
Q 2753 3103 2388 3103 
Q 2122 3103 1889 2973 
Q 1656 2844 1484 2597 
Q 1303 2338 1198 1995 
Q 1094 1653 1094 1313 
Q 1094 881 1298 636 
Q 1503 391 1863 391 
Q 2134 391 2365 517 
Q 2597 644 2772 891 
Q 2950 1147 3059 1487 
Q 3169 1828 3169 2138 
z
M 1381 2969 
Q 1594 3256 1914 3420 
Q 2234 3584 2584 3584 
Q 3122 3584 3439 3221 
Q 3756 2859 3756 2241 
Q 3756 1734 3570 1259 
Q 3384 784 3041 416 
Q 2816 172 2522 40 
Q 2228 -91 1906 -91 
Q 1566 -91 1316 65 
Q 1066 222 909 531 
L 806 0 
L 231 0 
L 1178 4863 
L 1753 4863 
L 1381 2969 
z
" transform="scale(0.015625)"/>
     </defs>
     <use xlink:href="#DejaVuSans-31" transform="translate(80 44.09375)"/>
     <use xlink:href="#DejaVuSans-Oblique-67" transform="translate(0 -43.15625)"/>
     <use xlink:href="#DejaVuSans-Oblique-6d" transform="translate(63.476562 -59.5625) scale(0.7)"/>
     <use xlink:href="#DejaVuSans-Oblique-62" transform="translate(131.665039 -59.5625) scale(0.7)"/>
     <use xlink:href="#DejaVuSans-32" transform="translate(176.098633 -59.5625) scale(0.7)"/>
     <path d="M 0 19.09375 
L 0 25.34375 
L 223.369141 25.34375 
L 223.369141 19.09375 
L 0 19.09375 
z
"/>
    </g>
   </g>
   <g id="text_18">
    <!-- $B_2$ -->
    <g transform="translate(429.648 349.655) scale(0.16 -0.16)">
     <use xlink:href="#DejaVuSans-Oblique-42" transform="translate(0 0.09375)"/>
     <use xlink:href="#DejaVuSans-32" transform="translate(68.603516 -16.3125) scale(0.7)"/>
    </g>
   </g>
   <g id="text_19">
    <!-- $+$ -->
    <g transform="translate(221.328 167.135) scale(0.16 -0.16)">
     <use xlink:href="#DejaVuSans-2b" transform="translate(0 0.296875)"/>
    </g>
   </g>
   <g id="text_20">
    <!-- $v_{gs2}$ -->
    <g transform="translate(240.008 192.5025) scale(0.16 -0.16)">
     <use xlink:href="#DejaVuSans-Oblique-76" transform="translate(0 0.3125)"/>
     <use xlink:href="#DejaVuSans-Oblique-67" transform="translate(59.179688 -16.09375) scale(0.7)"/>
     <use xlink:href="#DejaVuSans-Oblique-73" transform="translate(103.613281 -16.09375) scale(0.7)"/>
     <use xlink:href="#DejaVuSans-32" transform="translate(140.083008 -16.09375) scale(0.7)"/>
    </g>
   </g>
   <g id="text_21">
    <!-- $-$ -->
    <g transform="translate(275.328 221.135) scale(0.16 -0.16)">
     <use xlink:href="#DejaVuSans-2212" transform="translate(0 0.5)"/>
    </g>
   </g>
   <g id="patch_5">
    <path d="M 309.048 102.42 
C 309.764048 102.42 310.450866 102.135511 310.957188 101.629188 
C 311.463511 101.122866 311.748 100.436048 311.748 99.72 
C 311.748 99.003952 311.463511 98.317134 310.957188 97.810812 
C 310.450866 97.304489 309.764048 97.02 309.048 97.02 
C 308.331952 97.02 307.645134 97.304489 307.138812 97.810812 
C 306.632489 98.317134 306.348 99.003952 306.348 99.72 
C 306.348 100.436048 306.632489 101.122866 307.138812 101.629188 
C 307.645134 102.135511 308.331952 102.42 309.048 102.42 
z
" clip-path="url(#p62847a0d99)" style="fill: #ff1493; stroke: #ff1493; stroke-width: 2; stroke-linejoin: miter"/>
   </g>
   <g id="text_22">
    <!-- $D_2$ -->
    <g transform="translate(315.348 93.335) scale(0.16 -0.16)">
     <defs>
      <path id="DejaVuSans-Oblique-44" d="M 1081 4666 
L 2438 4666 
Q 3519 4666 4070 4208 
Q 4622 3750 4622 2847 
Q 4622 2250 4412 1698 
Q 4203 1147 3834 769 
Q 3463 381 2891 190 
Q 2319 0 1538 0 
L 172 0 
L 1081 4666 
z
M 1613 4147 
L 909 519 
L 1734 519 
Q 2794 519 3375 1128 
Q 3956 1738 3956 2847 
Q 3956 3519 3581 3833 
Q 3206 4147 2406 4147 
L 1613 4147 
z
" transform="scale(0.015625)"/>
     </defs>
     <use xlink:href="#DejaVuSans-Oblique-44" transform="translate(0 0.09375)"/>
     <use xlink:href="#DejaVuSans-32" transform="translate(77.001953 -16.3125) scale(0.7)"/>
    </g>
   </g>
   <g id="patch_6">
    <path d="M 309.048 246.42 
C 309.764048 246.42 310.450866 246.135511 310.957188 245.629188 
C 311.463511 245.122866 311.748 244.436048 311.748 243.72 
C 311.748 243.003952 311.463511 242.317134 310.957188 241.810812 
C 310.450866 241.304489 309.764048 241.02 309.048 241.02 
C 308.331952 241.02 307.645134 241.304489 307.138812 241.810812 
C 306.632489 242.317134 306.348 243.003952 306.348 243.72 
C 306.348 244.436048 306.632489 245.122866 307.138812 245.629188 
C 307.645134 246.135511 308.331952 246.42 309.048 246.42 
z
" clip-path="url(#p62847a0d99)" style="fill: #ff1493; stroke: #ff1493; stroke-width: 2; stroke-linejoin: miter"/>
   </g>
   <g id="text_23">
    <!-- $S_2$ -->
    <g transform="translate(314.568 237.6925) scale(0.16 -0.16)">
     <use xlink:href="#DejaVuSans-Oblique-53" transform="translate(0 0.78125)"/>
     <use xlink:href="#DejaVuSans-32" transform="translate(63.476562 -15.625) scale(0.7)"/>
    </g>
   </g>
   <g id="patch_7">
    <path d="M 417.048 246.42 
C 417.764048 246.42 418.450866 246.135511 418.957188 245.629188 
C 419.463511 245.122866 419.748 244.436048 419.748 243.72 
C 419.748 243.003952 419.463511 242.317134 418.957188 241.810812 
C 418.450866 241.304489 417.764048 241.02 417.048 241.02 
C 416.331952 241.02 415.645134 241.304489 415.138812 241.810812 
C 414.632489 242.317134 414.348 243.003952 414.348 243.72 
C 414.348 244.436048 414.632489 245.122866 415.138812 245.629188 
C 415.645134 246.135511 416.331952 246.42 417.048 246.42 
z
" clip-path="url(#p62847a0d99)" style="stroke: #000000; stroke-width: 2; stroke-linejoin: miter"/>
   </g>
  </g>
 </g>
 <defs>
  <clipPath id="p62847a0d99">
   <rect x="0" y="-0" width="556.152" height="361.44"/>
  </clipPath>
 </defs>
</svg>
