<?xml version="1.0" encoding="utf-8" standalone="no"?>
<!DOCTYPE svg PUBLIC "-//W3C//DTD SVG 1.1//EN"
  "http://www.w3.org/Graphics/SVG/1.1/DTD/svg11.dtd">
<svg xmlns:xlink="http://www.w3.org/1999/xlink" width="398.928pt" height="144.56pt" viewBox="0 0 398.928 144.56" xmlns="http://www.w3.org/2000/svg" version="1.1">
 <metadata>
  <rdf:RDF xmlns:dc="http://purl.org/dc/elements/1.1/" xmlns:cc="http://creativecommons.org/ns#" xmlns:rdf="http://www.w3.org/1999/02/22-rdf-syntax-ns#">
   <cc:Work>
    <dc:type rdf:resource="http://purl.org/dc/dcmitype/StillImage"/>
    <dc:date>2025-03-25T23:31:43.958187</dc:date>
    <dc:format>image/svg+xml</dc:format>
    <dc:creator>
     <cc:Agent>
      <dc:title>Matplotlib v3.9.2, https://matplotlib.org/</dc:title>
     </cc:Agent>
    </dc:creator>
   </cc:Work>
  </rdf:RDF>
 </metadata>
 <defs>
  <style type="text/css">*{stroke-linejoin: round; stroke-linecap: butt}</style>
 </defs>
 <g id="figure_1">
  <g id="patch_1">
   <path d="M 0 144.56 
L 398.928 144.56 
L 398.928 0 
L 0 0 
z
" style="fill: #ffffff"/>
  </g>
  <g id="axes_1">
   <g id="patch_2">
    <path d="M 106.872 44.48 
C 111.645656 44.48 116.224438 42.583406 119.599922 39.207922 
C 122.975406 35.832438 124.872 31.253656 124.872 26.48 
C 124.872 21.706344 122.975406 17.127562 119.599922 13.752078 
C 116.224438 10.376594 111.645656 8.48 106.872 8.48 
C 102.098344 8.48 97.519562 10.376594 94.144078 13.752078 
C 90.768594 17.127562 88.872 21.706344 88.872 26.48 
C 88.872 31.253656 90.768594 35.832438 94.144078 39.207922 
C 97.519562 42.583406 102.098344 44.48 106.872 44.48 
L 106.872 44.48 
z
" clip-path="url(#pee8b8e3ee9)" style="fill: none; stroke: #000000; stroke-width: 2; stroke-linejoin: miter"/>
   </g>
   <g id="line2d_1">
    <path d="M 16.872 26.48 
L 52.872 26.48 
L 88.872 26.48 
" clip-path="url(#pee8b8e3ee9)" style="fill: none; stroke: #000000; stroke-width: 2; stroke-linecap: round"/>
   </g>
   <g id="line2d_2">
    <path d="M 124.872 26.48 
L 160.872 26.48 
L 187.872 26.48 
" clip-path="url(#pee8b8e3ee9)" style="fill: none; stroke: #000000; stroke-width: 2; stroke-linecap: round"/>
   </g>
   <g id="patch_3">
    <path d="M 187.872 23.78 
L 196.872 26.48 
L 187.872 29.18 
z
" clip-path="url(#pee8b8e3ee9)"/>
   </g>
   <g id="line2d_3">
    <path d="M 196.872 26.48 
L 196.872 8.48 
L 232.872 8.48 
L 232.872 44.48 
L 196.872 44.48 
L 196.872 26.48 
" clip-path="url(#pee8b8e3ee9)" style="fill: none; stroke: #000000; stroke-width: 2; stroke-linecap: round"/>
   </g>
   <g id="line2d_4">
    <path d="M 232.872 26.48 
L 268.872 26.48 
L 304.872 26.48 
" clip-path="url(#pee8b8e3ee9)" style="fill: none; stroke: #000000; stroke-width: 2; stroke-linecap: round"/>
   </g>
   <g id="line2d_5">
    <path d="M 304.872 26.48 
L 340.872 26.48 
L 376.872 26.48 
" clip-path="url(#pee8b8e3ee9)" style="fill: none; stroke: #000000; stroke-width: 2; stroke-linecap: round"/>
   </g>
   <g id="line2d_6">
    <path d="M 304.872 26.48 
L 304.872 80.48 
L 304.872 134.48 
" clip-path="url(#pee8b8e3ee9)" style="fill: none; stroke: #000000; stroke-width: 2; stroke-linecap: round"/>
   </g>
   <g id="line2d_7">
    <path d="M 304.872 134.48 
L 268.872 134.48 
L 241.872 134.48 
" clip-path="url(#pee8b8e3ee9)" style="fill: none; stroke: #000000; stroke-width: 2; stroke-linecap: round"/>
   </g>
   <g id="patch_4">
    <path d="M 241.872 137.18 
L 232.872 134.48 
L 241.872 131.78 
z
" clip-path="url(#pee8b8e3ee9)"/>
   </g>
   <g id="line2d_8">
    <path d="M 232.872 134.48 
L 169.872 134.48 
L 106.872 134.48 
" clip-path="url(#pee8b8e3ee9)" style="fill: none; stroke: #000000; stroke-width: 2; stroke-linecap: round"/>
   </g>
   <g id="line2d_9">
    <path d="M 106.872 134.48 
L 106.872 116.48 
L 106.872 98.48 
" clip-path="url(#pee8b8e3ee9)" style="fill: none; stroke: #000000; stroke-width: 2; stroke-linecap: round"/>
   </g>
   <g id="line2d_10">
    <path d="M 106.872 98.48 
L 106.872 71.48 
L 106.872 53.48 
" clip-path="url(#pee8b8e3ee9)" style="fill: none; stroke: #000000; stroke-width: 2; stroke-linecap: round"/>
   </g>
   <g id="patch_5">
    <path d="M 104.172 53.48 
L 106.872 44.48 
L 109.572 53.48 
z
" clip-path="url(#pee8b8e3ee9)"/>
   </g>
   <g id="text_1">
    <!-- $_+$ -->
    <g transform="translate(70.872 34.495) scale(0.16 -0.16)">
     <defs>
      <path id="DejaVuSans-2b" d="M 2944 4013 
L 2944 2272 
L 4684 2272 
L 4684 1741 
L 2944 1741 
L 2944 0 
L 2419 0 
L 2419 1741 
L 678 1741 
L 678 2272 
L 2419 2272 
L 2419 4013 
L 2944 4013 
z
" transform="scale(0.015625)"/>
     </defs>
     <use xlink:href="#DejaVuSans-2b" transform="translate(14.594727 -15.892187) scale(0.7)"/>
    </g>
   </g>
   <g id="text_2">
    <!-- $\Sigma$ -->
    <g transform="translate(100.592 30.343125) scale(0.14 -0.14)">
     <defs>
      <path id="DejaVuSans-3a3" d="M 1353 531 
L 3634 531 
L 3634 0 
L 628 0 
L 628 531 
L 2125 2481 
L 628 4134 
L 628 4666 
L 3578 4666 
L 3578 4134 
L 1353 4134 
L 2850 2494 
L 1353 531 
z
" transform="scale(0.015625)"/>
     </defs>
     <use xlink:href="#DejaVuSans-3a3" transform="translate(0 0.09375)"/>
    </g>
   </g>
   <g id="text_3">
    <!-- $v_{\epsilon}$ -->
    <g transform="translate(152.872 14.1525) scale(0.16 -0.16)">
     <defs>
      <path id="DejaVuSans-Oblique-76" d="M 459 3500 
L 1069 3500 
L 1581 525 
L 3256 3500 
L 3866 3500 
L 1875 0 
L 1100 0 
L 459 3500 
z
" transform="scale(0.015625)"/>
      <path id="DejaVuSans-Oblique-3b5" d="M 1263 1888 
Q 925 1963 778 2166 
Q 669 2309 669 2503 
Q 669 3034 1175 3344 
Q 1575 3588 2188 3588 
Q 2425 3588 2684 3550 
Q 2944 3513 3234 3438 
L 3134 2916 
Q 2847 3006 2606 3047 
Q 2359 3088 2138 3088 
Q 1766 3088 1522 2944 
Q 1228 2772 1228 2522 
Q 1228 2356 1381 2241 
Q 1563 2103 1925 2103 
L 2409 2103 
L 2319 1628 
L 1856 1628 
Q 1425 1628 1172 1469 
Q 828 1253 828 916 
Q 828 703 1013 563 
Q 1244 388 1716 388 
Q 2006 388 2284 444 
Q 2563 503 2806 619 
L 2700 84 
Q 2403 -3 2131 -47 
Q 1859 -91 1609 -91 
Q 866 -91 516 194 
Q 250 413 250 781 
Q 250 1278 600 1584 
Q 859 1813 1263 1888 
z
" transform="scale(0.015625)"/>
     </defs>
     <use xlink:href="#DejaVuSans-Oblique-76" transform="translate(0 0.3125)"/>
     <use xlink:href="#DejaVuSans-Oblique-3b5" transform="translate(59.179688 -16.09375) scale(0.7)"/>
    </g>
   </g>
   <g id="text_4">
    <!-- $a$ -->
    <g transform="translate(210.072 30.895) scale(0.16 -0.16)">
     <defs>
      <path id="DejaVuSerif-Italic-61" d="M 2325 519 
Q 1909 -91 1238 -91 
Q 688 -91 409 281 
Q 216 544 216 919 
Q 216 1078 250 1256 
Q 463 2359 1231 2928 
Q 1884 3413 2675 3413 
Q 3206 3413 3388 3322 
L 2806 331 
L 3300 331 
L 3238 0 
L 2225 0 
L 2325 519 
z
M 822 938 
Q 822 269 1469 269 
Q 1863 269 2130 583 
Q 2397 897 2516 1497 
L 2806 3003 
L 2806 3003 
Q 2806 3094 2556 3094 
Q 1956 3094 1491 2625 
Q 1028 2153 863 1297 
Q 822 1097 822 938 
z
" transform="scale(0.015625)"/>
     </defs>
     <use xlink:href="#DejaVuSerif-Italic-61" transform="translate(0 0.671875)"/>
    </g>
   </g>
   <g id="text_5">
    <!-- $v_f$ -->
    <g transform="translate(162.912 127.5525) scale(0.16 -0.16)">
     <defs>
      <path id="DejaVuSans-Oblique-66" d="M 3059 4863 
L 2969 4384 
L 2419 4384 
Q 2106 4384 1964 4261 
Q 1822 4138 1753 3809 
L 1691 3500 
L 2638 3500 
L 2553 3053 
L 1606 3053 
L 1013 0 
L 434 0 
L 1031 3053 
L 481 3053 
L 563 3500 
L 1113 3500 
L 1159 3744 
Q 1278 4363 1576 4613 
Q 1875 4863 2516 4863 
L 3059 4863 
z
" transform="scale(0.015625)"/>
     </defs>
     <use xlink:href="#DejaVuSans-Oblique-76" transform="translate(0 0.3125)"/>
     <use xlink:href="#DejaVuSans-Oblique-66" transform="translate(59.179688 -16.09375) scale(0.7)"/>
    </g>
   </g>
   <g id="text_6">
    <!-- $_-$ -->
    <g transform="translate(112.272 50.695) scale(0.16 -0.16)">
     <defs>
      <path id="DejaVuSans-2212" d="M 678 2272 
L 4684 2272 
L 4684 1741 
L 678 1741 
L 678 2272 
z
" transform="scale(0.015625)"/>
     </defs>
     <use xlink:href="#DejaVuSans-2212" transform="translate(14.594727 -15.85) scale(0.7)"/>
    </g>
   </g>
   <g id="patch_6">
    <path d="M 16.872 29.18 
C 17.588048 29.18 18.274866 28.895511 18.781188 28.389188 
C 19.287511 27.882866 19.572 27.196048 19.572 26.48 
C 19.572 25.763952 19.287511 25.077134 18.781188 24.570812 
C 18.274866 24.064489 17.588048 23.78 16.872 23.78 
C 16.155952 23.78 15.469134 24.064489 14.962812 24.570812 
C 14.456489 25.077134 14.172 25.763952 14.172 26.48 
C 14.172 27.196048 14.456489 27.882866 14.962812 28.389188 
C 15.469134 28.895511 16.155952 29.18 16.872 29.18 
z
" clip-path="url(#pee8b8e3ee9)" style="fill: #ffffff; stroke: #000000; stroke-width: 2; stroke-linejoin: miter"/>
   </g>
   <g id="text_7">
    <!-- $v_{in}$ -->
    <g transform="translate(6.792 16.8525) scale(0.16 -0.16)">
     <defs>
      <path id="DejaVuSans-Oblique-69" d="M 1172 4863 
L 1747 4863 
L 1606 4134 
L 1031 4134 
L 1172 4863 
z
M 909 3500 
L 1484 3500 
L 800 0 
L 225 0 
L 909 3500 
z
" transform="scale(0.015625)"/>
      <path id="DejaVuSans-Oblique-6e" d="M 3566 2113 
L 3156 0 
L 2578 0 
L 2988 2091 
Q 3016 2238 3031 2350 
Q 3047 2463 3047 2528 
Q 3047 2791 2881 2937 
Q 2716 3084 2419 3084 
Q 1956 3084 1622 2776 
Q 1288 2469 1184 1941 
L 800 0 
L 225 0 
L 903 3500 
L 1478 3500 
L 1363 2950 
Q 1603 3253 1940 3418 
Q 2278 3584 2650 3584 
Q 3113 3584 3367 3334 
Q 3622 3084 3622 2631 
Q 3622 2519 3608 2391 
Q 3594 2263 3566 2113 
z
" transform="scale(0.015625)"/>
     </defs>
     <use xlink:href="#DejaVuSans-Oblique-76" transform="translate(0 0.3125)"/>
     <use xlink:href="#DejaVuSans-Oblique-69" transform="translate(59.179688 -16.09375) scale(0.7)"/>
     <use xlink:href="#DejaVuSans-Oblique-6e" transform="translate(78.62793 -16.09375) scale(0.7)"/>
    </g>
   </g>
   <g id="patch_7">
    <path d="M 304.872 29.18 
C 305.588048 29.18 306.274866 28.895511 306.781188 28.389188 
C 307.287511 27.882866 307.572 27.196048 307.572 26.48 
C 307.572 25.763952 307.287511 25.077134 306.781188 24.570812 
C 306.274866 24.064489 305.588048 23.78 304.872 23.78 
C 304.155952 23.78 303.469134 24.064489 302.962812 24.570812 
C 302.456489 25.077134 302.172 25.763952 302.172 26.48 
C 302.172 27.196048 302.456489 27.882866 302.962812 28.389188 
C 303.469134 28.895511 304.155952 29.18 304.872 29.18 
z
" clip-path="url(#pee8b8e3ee9)" style="stroke: #000000; stroke-width: 2; stroke-linejoin: miter"/>
   </g>
   <g id="patch_8">
    <path d="M 376.872 29.18 
C 377.588048 29.18 378.274866 28.895511 378.781188 28.389188 
C 379.287511 27.882866 379.572 27.196048 379.572 26.48 
C 379.572 25.763952 379.287511 25.077134 378.781188 24.570812 
C 378.274866 24.064489 377.588048 23.78 376.872 23.78 
C 376.155952 23.78 375.469134 24.064489 374.962812 24.570812 
C 374.456489 25.077134 374.172 25.763952 374.172 26.48 
C 374.172 27.196048 374.456489 27.882866 374.962812 28.389188 
C 375.469134 28.895511 376.155952 29.18 376.872 29.18 
z
" clip-path="url(#pee8b8e3ee9)" style="fill: #ffffff; stroke: #000000; stroke-width: 2; stroke-linejoin: miter"/>
   </g>
   <g id="text_8">
    <!-- $v_{out}$ -->
    <g transform="translate(362.712 16.8525) scale(0.16 -0.16)">
     <defs>
      <path id="DejaVuSans-Oblique-6f" d="M 1625 -91 
Q 1009 -91 651 289 
Q 294 669 294 1325 
Q 294 1706 417 2101 
Q 541 2497 738 2766 
Q 1047 3184 1428 3384 
Q 1809 3584 2291 3584 
Q 2888 3584 3255 3212 
Q 3622 2841 3622 2241 
Q 3622 1825 3500 1412 
Q 3378 1000 3181 728 
Q 2875 309 2494 109 
Q 2113 -91 1625 -91 
z
M 891 1344 
Q 891 869 1089 633 
Q 1288 397 1691 397 
Q 2269 397 2648 901 
Q 3028 1406 3028 2181 
Q 3028 2634 2825 2865 
Q 2622 3097 2228 3097 
Q 1903 3097 1650 2945 
Q 1397 2794 1197 2484 
Q 1050 2253 970 1956 
Q 891 1659 891 1344 
z
" transform="scale(0.015625)"/>
      <path id="DejaVuSans-Oblique-75" d="M 428 1388 
L 838 3500 
L 1416 3500 
L 1006 1409 
Q 975 1256 961 1147 
Q 947 1038 947 966 
Q 947 700 1109 554 
Q 1272 409 1569 409 
Q 2031 409 2368 721 
Q 2706 1034 2809 1563 
L 3194 3500 
L 3769 3500 
L 3091 0 
L 2516 0 
L 2631 550 
Q 2388 244 2052 76 
Q 1716 -91 1338 -91 
Q 878 -91 622 161 
Q 366 413 366 863 
Q 366 956 381 1097 
Q 397 1238 428 1388 
z
" transform="scale(0.015625)"/>
      <path id="DejaVuSans-Oblique-74" d="M 2706 3500 
L 2619 3053 
L 1472 3053 
L 1100 1153 
Q 1081 1047 1072 975 
Q 1063 903 1063 863 
Q 1063 663 1183 572 
Q 1303 481 1569 481 
L 2150 481 
L 2053 0 
L 1503 0 
Q 991 0 739 200 
Q 488 400 488 806 
Q 488 878 497 964 
Q 506 1050 525 1153 
L 897 3053 
L 409 3053 
L 500 3500 
L 978 3500 
L 1172 4494 
L 1747 4494 
L 1556 3500 
L 2706 3500 
z
" transform="scale(0.015625)"/>
     </defs>
     <use xlink:href="#DejaVuSans-Oblique-76" transform="translate(0 0.3125)"/>
     <use xlink:href="#DejaVuSans-Oblique-6f" transform="translate(59.179688 -16.09375) scale(0.7)"/>
     <use xlink:href="#DejaVuSans-Oblique-75" transform="translate(102.006836 -16.09375) scale(0.7)"/>
     <use xlink:href="#DejaVuSans-Oblique-74" transform="translate(146.37207 -16.09375) scale(0.7)"/>
    </g>
   </g>
  </g>
 </g>
 <defs>
  <clipPath id="pee8b8e3ee9">
   <rect x="0" y="0" width="398.928" height="144.56"/>
  </clipPath>
 </defs>
</svg>
