<?xml version="1.0" encoding="utf-8" standalone="no"?>
<!DOCTYPE svg PUBLIC "-//W3C//DTD SVG 1.1//EN"
  "http://www.w3.org/Graphics/SVG/1.1/DTD/svg11.dtd">
<svg xmlns:xlink="http://www.w3.org/1999/xlink" width="490.142286pt" height="221.4pt" viewBox="0 0 490.142286 221.4" xmlns="http://www.w3.org/2000/svg" version="1.1">
 <metadata>
  <rdf:RDF xmlns:dc="http://purl.org/dc/elements/1.1/" xmlns:cc="http://creativecommons.org/ns#" xmlns:rdf="http://www.w3.org/1999/02/22-rdf-syntax-ns#">
   <cc:Work>
    <dc:type rdf:resource="http://purl.org/dc/dcmitype/StillImage"/>
    <dc:date>2025-03-25T23:31:44.535061</dc:date>
    <dc:format>image/svg+xml</dc:format>
    <dc:creator>
     <cc:Agent>
      <dc:title>Matplotlib v3.9.2, https://matplotlib.org/</dc:title>
     </cc:Agent>
    </dc:creator>
   </cc:Work>
  </rdf:RDF>
 </metadata>
 <defs>
  <style type="text/css">*{stroke-linejoin: round; stroke-linecap: butt}</style>
 </defs>
 <g id="figure_1">
  <g id="patch_1">
   <path d="M 0 221.4 
L 490.142286 221.4 
L 490.142286 0 
L 0 0 
z
" style="fill: #ffffff"/>
  </g>
  <g id="axes_1">
   <g id="line2d_1">
    <path d="M 182.916 49.68 
L 182.916 94.68 
L 260.858286 49.68 
L 182.916 4.68 
L 182.916 49.68 
M 260.858286 49.68 
" clip-path="url(#pdf69f41f32)" style="fill: none; stroke: #000000; stroke-width: 2; stroke-linecap: round"/>
   </g>
   <g id="line2d_2">
    <path d="M 189.058786 72.18 
L 196.258786 72.18 
" clip-path="url(#pdf69f41f32)" style="fill: none; stroke: #000000; stroke-width: 2; stroke-linecap: round"/>
   </g>
   <g id="line2d_3">
    <path d="M 189.058786 27.18 
L 196.258786 27.18 
" clip-path="url(#pdf69f41f32)" style="fill: none; stroke: #000000; stroke-width: 2; stroke-linecap: round"/>
   </g>
   <g id="line2d_4">
    <path d="M 192.658786 23.58 
L 192.658786 30.78 
" clip-path="url(#pdf69f41f32)" style="fill: none; stroke: #000000; stroke-width: 2; stroke-linecap: round"/>
   </g>
   <g id="line2d_5">
    <path d="M 182.916 27.18 
L 146.916 27.18 
L 110.916 27.18 
" clip-path="url(#pdf69f41f32)" style="fill: none; stroke: #000000; stroke-width: 2; stroke-linecap: round"/>
   </g>
   <g id="line2d_6">
    <path d="M 260.858286 49.68 
L 278.858286 49.68 
L 296.858286 49.68 
" clip-path="url(#pdf69f41f32)" style="fill: none; stroke: #000000; stroke-width: 2; stroke-linecap: round"/>
   </g>
   <g id="line2d_7">
    <path d="M 296.858286 49.68 
L 332.858286 49.68 
L 368.858286 49.68 
" clip-path="url(#pdf69f41f32)" style="fill: none; stroke: #000000; stroke-width: 2; stroke-linecap: round"/>
   </g>
   <g id="line2d_8">
    <path d="M 296.858286 49.68 
L 296.858286 67.68 
L 305.858286 70.68 
L 287.858286 76.68 
L 305.858286 82.68 
L 287.858286 88.68 
L 305.858286 94.68 
L 287.858286 100.68 
L 296.858286 103.68 
L 296.858286 121.68 
" clip-path="url(#pdf69f41f32)" style="fill: none; stroke: #000000; stroke-width: 2; stroke-linecap: round"/>
   </g>
   <g id="line2d_9">
    <path d="M 296.858286 121.68 
L 296.858286 139.68 
L 305.858286 142.68 
L 287.858286 148.68 
L 305.858286 154.68 
L 287.858286 160.68 
L 305.858286 166.68 
L 287.858286 172.68 
L 296.858286 175.68 
L 296.858286 193.68 
" clip-path="url(#pdf69f41f32)" style="fill: none; stroke: #000000; stroke-width: 2; stroke-linecap: round"/>
   </g>
   <g id="line2d_10">
    <path d="M 296.858286 193.68 
L 296.858286 208.08 
L 287.858286 208.08 
L 305.858286 208.08 
M 290.558286 212.4 
L 303.158286 212.4 
M 295.058286 216.72 
L 298.658286 216.72 
" clip-path="url(#pdf69f41f32)" style="fill: none; stroke: #000000; stroke-width: 2; stroke-linecap: round"/>
   </g>
   <g id="line2d_11">
    <path d="M 296.858286 121.68 
L 224.858286 121.68 
L 152.858286 121.68 
" clip-path="url(#pdf69f41f32)" style="fill: none; stroke: #000000; stroke-width: 2; stroke-linecap: round"/>
   </g>
   <g id="line2d_12">
    <path d="M 152.858286 121.68 
L 152.858286 96.93 
L 152.858286 72.18 
" clip-path="url(#pdf69f41f32)" style="fill: none; stroke: #000000; stroke-width: 2; stroke-linecap: round"/>
   </g>
   <g id="line2d_13">
    <path d="M 152.858286 72.18 
L 167.887143 72.18 
L 182.916 72.18 
" clip-path="url(#pdf69f41f32)" style="fill: none; stroke: #000000; stroke-width: 2; stroke-linecap: round"/>
   </g>
   <g id="patch_2">
    <path d="M 110.916 29.88 
C 111.632048 29.88 112.318866 29.595511 112.825188 29.089188 
C 113.331511 28.582866 113.616 27.896048 113.616 27.18 
C 113.616 26.463952 113.331511 25.777134 112.825188 25.270812 
C 112.318866 24.764489 111.632048 24.48 110.916 24.48 
C 110.199952 24.48 109.513134 24.764489 109.006812 25.270812 
C 108.500489 25.777134 108.216 26.463952 108.216 27.18 
C 108.216 27.896048 108.500489 28.582866 109.006812 29.089188 
C 109.513134 29.595511 110.199952 29.88 110.916 29.88 
z
" clip-path="url(#pdf69f41f32)" style="fill: #ffffff; stroke: #000000; stroke-width: 2; stroke-linejoin: miter"/>
   </g>
   <g id="text_1">
    <!-- $v_\mathrm{in}$ -->
    <g transform="translate(84.456 31.595) scale(0.16 -0.16)">
     <defs>
      <path id="DejaVuSans-Oblique-76" d="M 459 3500 
L 1069 3500 
L 1581 525 
L 3256 3500 
L 3866 3500 
L 1875 0 
L 1100 0 
L 459 3500 
z
" transform="scale(0.015625)"/>
      <path id="DejaVuSans-69" d="M 603 3500 
L 1178 3500 
L 1178 0 
L 603 0 
L 603 3500 
z
M 603 4863 
L 1178 4863 
L 1178 4134 
L 603 4134 
L 603 4863 
z
" transform="scale(0.015625)"/>
      <path id="DejaVuSans-6e" d="M 3513 2113 
L 3513 0 
L 2938 0 
L 2938 2094 
Q 2938 2591 2744 2837 
Q 2550 3084 2163 3084 
Q 1697 3084 1428 2787 
Q 1159 2491 1159 1978 
L 1159 0 
L 581 0 
L 581 3500 
L 1159 3500 
L 1159 2956 
Q 1366 3272 1645 3428 
Q 1925 3584 2291 3584 
Q 2894 3584 3203 3211 
Q 3513 2838 3513 2113 
z
" transform="scale(0.015625)"/>
     </defs>
     <use xlink:href="#DejaVuSans-Oblique-76" transform="translate(0 0.3125)"/>
     <use xlink:href="#DejaVuSans-69" transform="translate(59.179688 -16.09375) scale(0.7)"/>
     <use xlink:href="#DejaVuSans-6e" transform="translate(78.62793 -16.09375) scale(0.7)"/>
    </g>
   </g>
   <g id="patch_3">
    <path d="M 296.858286 52.38 
C 297.574335 52.38 298.261152 52.095511 298.767475 51.589188 
C 299.273797 51.082866 299.558286 50.396048 299.558286 49.68 
C 299.558286 48.963952 299.273797 48.277134 298.767475 47.770812 
C 298.261152 47.264489 297.574335 46.98 296.858286 46.98 
C 296.142238 46.98 295.455421 47.264489 294.949098 47.770812 
C 294.442775 48.277134 294.158286 48.963952 294.158286 49.68 
C 294.158286 50.396048 294.442775 51.082866 294.949098 51.589188 
C 295.455421 52.095511 296.142238 52.38 296.858286 52.38 
z
" clip-path="url(#pdf69f41f32)" style="stroke: #000000; stroke-width: 2; stroke-linejoin: miter"/>
   </g>
   <g id="patch_4">
    <path d="M 368.858286 52.38 
C 369.574335 52.38 370.261152 52.095511 370.767475 51.589188 
C 371.273797 51.082866 371.558286 50.396048 371.558286 49.68 
C 371.558286 48.963952 371.273797 48.277134 370.767475 47.770812 
C 370.261152 47.264489 369.574335 46.98 368.858286 46.98 
C 368.142238 46.98 367.455421 47.264489 366.949098 47.770812 
C 366.442775 48.277134 366.158286 48.963952 366.158286 49.68 
C 366.158286 50.396048 366.442775 51.082866 366.949098 51.589188 
C 367.455421 52.095511 368.142238 52.38 368.858286 52.38 
z
" clip-path="url(#pdf69f41f32)" style="fill: #ffffff; stroke: #000000; stroke-width: 2; stroke-linejoin: miter"/>
   </g>
   <g id="text_2">
    <!-- $v_\mathrm{out}$ -->
    <g transform="translate(375.158286 54.095) scale(0.16 -0.16)">
     <defs>
      <path id="DejaVuSans-6f" d="M 1959 3097 
Q 1497 3097 1228 2736 
Q 959 2375 959 1747 
Q 959 1119 1226 758 
Q 1494 397 1959 397 
Q 2419 397 2687 759 
Q 2956 1122 2956 1747 
Q 2956 2369 2687 2733 
Q 2419 3097 1959 3097 
z
M 1959 3584 
Q 2709 3584 3137 3096 
Q 3566 2609 3566 1747 
Q 3566 888 3137 398 
Q 2709 -91 1959 -91 
Q 1206 -91 779 398 
Q 353 888 353 1747 
Q 353 2609 779 3096 
Q 1206 3584 1959 3584 
z
" transform="scale(0.015625)"/>
      <path id="DejaVuSans-75" d="M 544 1381 
L 544 3500 
L 1119 3500 
L 1119 1403 
Q 1119 906 1312 657 
Q 1506 409 1894 409 
Q 2359 409 2629 706 
Q 2900 1003 2900 1516 
L 2900 3500 
L 3475 3500 
L 3475 0 
L 2900 0 
L 2900 538 
Q 2691 219 2414 64 
Q 2138 -91 1772 -91 
Q 1169 -91 856 284 
Q 544 659 544 1381 
z
M 1991 3584 
L 1991 3584 
z
" transform="scale(0.015625)"/>
      <path id="DejaVuSans-74" d="M 1172 4494 
L 1172 3500 
L 2356 3500 
L 2356 3053 
L 1172 3053 
L 1172 1153 
Q 1172 725 1289 603 
Q 1406 481 1766 481 
L 2356 481 
L 2356 0 
L 1766 0 
Q 1100 0 847 248 
Q 594 497 594 1153 
L 594 3053 
L 172 3053 
L 172 3500 
L 594 3500 
L 594 4494 
L 1172 4494 
z
" transform="scale(0.015625)"/>
     </defs>
     <use xlink:href="#DejaVuSans-Oblique-76" transform="translate(0 0.3125)"/>
     <use xlink:href="#DejaVuSans-6f" transform="translate(59.179688 -16.09375) scale(0.7)"/>
     <use xlink:href="#DejaVuSans-75" transform="translate(102.006836 -16.09375) scale(0.7)"/>
     <use xlink:href="#DejaVuSans-74" transform="translate(146.37207 -16.09375) scale(0.7)"/>
    </g>
   </g>
   <g id="patch_5">
    <path d="M 296.858286 124.38 
C 297.574335 124.38 298.261152 124.095511 298.767475 123.589188 
C 299.273797 123.082866 299.558286 122.396048 299.558286 121.68 
C 299.558286 120.963952 299.273797 120.277134 298.767475 119.770812 
C 298.261152 119.264489 297.574335 118.98 296.858286 118.98 
C 296.142238 118.98 295.455421 119.264489 294.949098 119.770812 
C 294.442775 120.277134 294.158286 120.963952 294.158286 121.68 
C 294.158286 122.396048 294.442775 123.082866 294.949098 123.589188 
C 295.455421 124.095511 296.142238 124.38 296.858286 124.38 
z
" clip-path="url(#pdf69f41f32)" style="stroke: #000000; stroke-width: 2; stroke-linejoin: miter"/>
   </g>
   <g id="text_3">
    <!-- $R_2$ -->
    <g transform="translate(265.538286 91.445) scale(0.16 -0.16)">
     <defs>
      <path id="DejaVuSans-Oblique-52" d="M 1613 4147 
L 1294 2491 
L 2106 2491 
Q 2584 2491 2879 2755 
Q 3175 3019 3175 3444 
Q 3175 3784 2976 3965 
Q 2778 4147 2406 4147 
L 1613 4147 
z
M 2772 2241 
Q 2972 2194 3105 2009 
Q 3238 1825 3413 1275 
L 3809 0 
L 3144 0 
L 2778 1197 
Q 2638 1659 2453 1815 
Q 2269 1972 1888 1972 
L 1191 1972 
L 806 0 
L 172 0 
L 1081 4666 
L 2503 4666 
Q 3150 4666 3495 4373 
Q 3841 4081 3841 3531 
Q 3841 3044 3547 2687 
Q 3253 2331 2772 2241 
z
" transform="scale(0.015625)"/>
      <path id="DejaVuSans-32" d="M 1228 531 
L 3431 531 
L 3431 0 
L 469 0 
L 469 531 
Q 828 903 1448 1529 
Q 2069 2156 2228 2338 
Q 2531 2678 2651 2914 
Q 2772 3150 2772 3378 
Q 2772 3750 2511 3984 
Q 2250 4219 1831 4219 
Q 1534 4219 1204 4116 
Q 875 4013 500 3803 
L 500 4441 
Q 881 4594 1212 4672 
Q 1544 4750 1819 4750 
Q 2544 4750 2975 4387 
Q 3406 4025 3406 3419 
Q 3406 3131 3298 2873 
Q 3191 2616 2906 2266 
Q 2828 2175 2409 1742 
Q 1991 1309 1228 531 
z
" transform="scale(0.015625)"/>
     </defs>
     <use xlink:href="#DejaVuSans-Oblique-52" transform="translate(0 0.09375)"/>
     <use xlink:href="#DejaVuSans-32" transform="translate(69.482422 -16.3125) scale(0.7)"/>
    </g>
   </g>
   <g id="text_4">
    <!-- $R_1$ -->
    <g transform="translate(265.538286 162.095) scale(0.16 -0.16)">
     <defs>
      <path id="DejaVuSans-31" d="M 794 531 
L 1825 531 
L 1825 4091 
L 703 3866 
L 703 4441 
L 1819 4666 
L 2450 4666 
L 2450 531 
L 3481 531 
L 3481 0 
L 794 0 
L 794 531 
z
" transform="scale(0.015625)"/>
     </defs>
     <use xlink:href="#DejaVuSans-Oblique-52" transform="translate(0 0.09375)"/>
     <use xlink:href="#DejaVuSans-31" transform="translate(69.482422 -16.3125) scale(0.7)"/>
    </g>
   </g>
   <g id="text_5">
    <!-- $v_f$ -->
    <g transform="translate(217.898286 114.7525) scale(0.16 -0.16)">
     <defs>
      <path id="DejaVuSans-Oblique-66" d="M 3059 4863 
L 2969 4384 
L 2419 4384 
Q 2106 4384 1964 4261 
Q 1822 4138 1753 3809 
L 1691 3500 
L 2638 3500 
L 2553 3053 
L 1606 3053 
L 1013 0 
L 434 0 
L 1031 3053 
L 481 3053 
L 563 3500 
L 1113 3500 
L 1159 3744 
Q 1278 4363 1576 4613 
Q 1875 4863 2516 4863 
L 3059 4863 
z
" transform="scale(0.015625)"/>
     </defs>
     <use xlink:href="#DejaVuSans-Oblique-76" transform="translate(0 0.3125)"/>
     <use xlink:href="#DejaVuSans-Oblique-66" transform="translate(59.179688 -16.09375) scale(0.7)"/>
    </g>
   </g>
  </g>
 </g>
 <defs>
  <clipPath id="pdf69f41f32">
   <rect x="0" y="0" width="490.142286" height="221.4"/>
  </clipPath>
 </defs>
</svg>
