<?xml version="1.0" encoding="utf-8" standalone="no"?>
<!DOCTYPE svg PUBLIC "-//W3C//DTD SVG 1.1//EN"
  "http://www.w3.org/Graphics/SVG/1.1/DTD/svg11.dtd">
<svg xmlns:xlink="http://www.w3.org/1999/xlink" width="497.496pt" height="273.8pt" viewBox="0 0 497.496 273.8" xmlns="http://www.w3.org/2000/svg" version="1.1">
 <metadata>
  <rdf:RDF xmlns:dc="http://purl.org/dc/elements/1.1/" xmlns:cc="http://creativecommons.org/ns#" xmlns:rdf="http://www.w3.org/1999/02/22-rdf-syntax-ns#">
   <cc:Work>
    <dc:type rdf:resource="http://purl.org/dc/dcmitype/StillImage"/>
    <dc:date>2025-03-25T23:31:53.445471</dc:date>
    <dc:format>image/svg+xml</dc:format>
    <dc:creator>
     <cc:Agent>
      <dc:title>Matplotlib v3.9.2, https://matplotlib.org/</dc:title>
     </cc:Agent>
    </dc:creator>
   </cc:Work>
  </rdf:RDF>
 </metadata>
 <defs>
  <style type="text/css">*{stroke-linejoin: round; stroke-linecap: butt}</style>
 </defs>
 <g id="figure_1">
  <g id="patch_1">
   <path d="M 0 273.8 
L 497.496 273.8 
L 497.496 0 
L 0 0 
z
" style="fill: #ffffff"/>
  </g>
  <g id="axes_1">
   <g id="patch_2">
    <path d="M 348.792 84.08 
C 353.565656 84.08 358.144438 82.183406 361.519922 78.807922 
C 364.895406 75.432438 366.792 70.853656 366.792 66.08 
C 366.792 61.306344 364.895406 56.727562 361.519922 53.352078 
C 358.144438 49.976594 353.565656 48.08 348.792 48.08 
C 344.018344 48.08 339.439562 49.976594 336.064078 53.352078 
C 332.688594 56.727562 330.792 61.306344 330.792 66.08 
C 330.792 70.853656 332.688594 75.432438 336.064078 78.807922 
C 339.439562 82.183406 344.018344 84.08 348.792 84.08 
L 348.792 84.08 
z
" clip-path="url(#p821d954697)" style="fill: none; stroke: #000000; stroke-width: 2; stroke-linejoin: miter"/>
   </g>
   <g id="line2d_1">
    <path d="M 60.792 30.08 
L 69.792 30.08 
L 78.792 30.08 
" clip-path="url(#p821d954697)" style="fill: none; stroke: #000000; stroke-width: 2; stroke-linecap: round"/>
   </g>
   <g id="line2d_2">
    <path d="M 78.792 30.08 
L 87.792 30.08 
L 96.792 30.08 
" clip-path="url(#p821d954697)" style="fill: none; stroke: #000000; stroke-width: 2; stroke-linecap: round"/>
   </g>
   <g id="line2d_3">
    <path d="M 96.792 30.08 
L 96.792 48.08 
L 105.792 51.08 
L 87.792 57.08 
L 105.792 63.08 
L 87.792 69.08 
L 105.792 75.08 
L 87.792 81.08 
L 96.792 84.08 
L 96.792 102.08 
" clip-path="url(#p821d954697)" style="fill: none; stroke: #000000; stroke-width: 2; stroke-linecap: round"/>
   </g>
   <g id="line2d_4">
    <path d="M 96.792 102.08 
L 87.792 102.08 
L 78.792 102.08 
" clip-path="url(#p821d954697)" style="fill: none; stroke: #000000; stroke-width: 2; stroke-linecap: round"/>
   </g>
   <g id="line2d_5">
    <path d="M 78.792 102.08 
L 69.792 102.08 
L 60.792 102.08 
" clip-path="url(#p821d954697)" style="fill: none; stroke: #000000; stroke-width: 2; stroke-linecap: round"/>
   </g>
   <g id="line2d_6">
    <path d="M 60.792 102.08 
L 60.792 138.08 
L 60.792 174.08 
" clip-path="url(#p821d954697)" style="fill: none; stroke: #000000; stroke-width: 2; stroke-linecap: round"/>
   </g>
   <g id="line2d_7">
    <path d="M 60.792 174.08 
L 60.792 192.08 
L 69.792 195.08 
L 51.792 201.08 
L 69.792 207.08 
L 51.792 213.08 
L 69.792 219.08 
L 51.792 225.08 
L 60.792 228.08 
L 60.792 246.08 
" clip-path="url(#p821d954697)" style="fill: none; stroke: #000000; stroke-width: 2; stroke-linecap: round"/>
   </g>
   <g id="line2d_8">
    <path d="M 60.792 246.08 
L 60.792 260.48 
L 51.792 260.48 
L 69.792 260.48 
M 54.492 264.8 
L 67.092 264.8 
M 58.992 269.12 
L 62.592 269.12 
" clip-path="url(#p821d954697)" style="fill: none; stroke: #000000; stroke-width: 2; stroke-linecap: round"/>
   </g>
   <g id="line2d_9">
    <path d="M 60.792 174.08 
L 132.792 174.08 
L 204.792 174.08 
" clip-path="url(#p821d954697)" style="fill: none; stroke: #000000; stroke-width: 2; stroke-linecap: round"/>
   </g>
   <g id="line2d_10">
    <path d="M 204.792 174.08 
L 222.792 174.08 
L 225.792 165.08 
L 231.792 183.08 
L 237.792 165.08 
L 243.792 183.08 
L 249.792 165.08 
L 255.792 183.08 
L 258.792 174.08 
L 276.792 174.08 
" clip-path="url(#p821d954697)" style="fill: none; stroke: #000000; stroke-width: 2; stroke-linecap: round"/>
   </g>
   <g id="line2d_11">
    <path d="M 276.792 174.08 
L 348.792 174.08 
L 420.792 174.08 
" clip-path="url(#p821d954697)" style="fill: none; stroke: #000000; stroke-width: 2; stroke-linecap: round"/>
   </g>
   <g id="line2d_12">
    <path d="M 420.792 174.08 
L 420.792 102.08 
L 420.792 30.08 
" clip-path="url(#p821d954697)" style="fill: none; stroke: #000000; stroke-width: 2; stroke-linecap: round"/>
   </g>
   <g id="line2d_13">
    <path d="M 420.792 30.08 
L 402.792 30.08 
L 399.792 39.08 
L 393.792 21.08 
L 387.792 39.08 
L 381.792 21.08 
L 375.792 39.08 
L 369.792 21.08 
L 366.792 30.08 
L 348.792 30.08 
" clip-path="url(#p821d954697)" style="fill: none; stroke: #000000; stroke-width: 2; stroke-linecap: round"/>
   </g>
   <g id="line2d_14">
    <path d="M 348.792 30.08 
L 348.792 48.08 
L 348.792 48.08 
M 348.792 84.08 
L 348.792 84.08 
L 348.792 102.08 
" clip-path="url(#p821d954697)" style="fill: none; stroke: #000000; stroke-width: 2; stroke-linecap: round"/>
   </g>
   <g id="line2d_15">
    <path d="M 352.392 75.08 
L 345.192 75.08 
" clip-path="url(#p821d954697)" style="fill: none; stroke: #000000; stroke-width: 2; stroke-linecap: round"/>
   </g>
   <g id="line2d_16">
    <path d="M 348.792 53.48 
L 348.792 60.68 
" clip-path="url(#p821d954697)" style="fill: none; stroke: #000000; stroke-width: 2; stroke-linecap: round"/>
   </g>
   <g id="line2d_17">
    <path d="M 352.392 57.08 
L 345.192 57.08 
" clip-path="url(#p821d954697)" style="fill: none; stroke: #000000; stroke-width: 2; stroke-linecap: round"/>
   </g>
   <g id="line2d_18">
    <path d="M 348.792 102.08 
L 348.792 116.48 
L 339.792 116.48 
L 357.792 116.48 
M 342.492 120.8 
L 355.092 120.8 
M 346.992 125.12 
L 350.592 125.12 
" clip-path="url(#p821d954697)" style="fill: none; stroke: #000000; stroke-width: 2; stroke-linecap: round"/>
   </g>
   <g id="line2d_19">
    <path d="M 204.792 102.08 
L 204.792 116.48 
L 195.792 116.48 
L 213.792 116.48 
M 198.492 120.8 
L 211.092 120.8 
M 202.992 125.12 
L 206.592 125.12 
" clip-path="url(#p821d954697)" style="fill: none; stroke: #000000; stroke-width: 2; stroke-linecap: round"/>
   </g>
   <g id="line2d_20">
    <path d="M 204.792 102.08 
L 204.792 84.08 
L 186.792 66.08 
L 204.792 48.08 
L 222.792 66.08 
L 204.792 84.08 
M 204.792 48.08 
L 204.792 30.08 
" clip-path="url(#p821d954697)" style="fill: none; stroke: #000000; stroke-width: 2; stroke-linecap: round"/>
   </g>
   <g id="line2d_21">
    <path d="M 208.392 75.08 
L 201.192 75.08 
" clip-path="url(#p821d954697)" style="fill: none; stroke: #000000; stroke-width: 2; stroke-linecap: round"/>
   </g>
   <g id="line2d_22">
    <path d="M 204.792 60.68 
L 204.792 53.48 
" clip-path="url(#p821d954697)" style="fill: none; stroke: #000000; stroke-width: 2; stroke-linecap: round"/>
   </g>
   <g id="line2d_23">
    <path d="M 208.392 57.08 
L 201.192 57.08 
" clip-path="url(#p821d954697)" style="fill: none; stroke: #000000; stroke-width: 2; stroke-linecap: round"/>
   </g>
   <g id="line2d_24">
    <path d="M 204.792 30.08 
L 213.792 30.08 
L 222.792 30.08 
" clip-path="url(#p821d954697)" style="fill: none; stroke: #000000; stroke-width: 2; stroke-linecap: round"/>
   </g>
   <g id="line2d_25">
    <path d="M 420.792 30.08 
L 438.792 30.08 
L 456.792 30.08 
" clip-path="url(#p821d954697)" style="fill: none; stroke: #000000; stroke-width: 2; stroke-linecap: round"/>
   </g>
   <g id="line2d_26">
    <path d="M 456.792 30.08 
L 456.792 48.08 
L 465.792 51.08 
L 447.792 57.08 
L 465.792 63.08 
L 447.792 69.08 
L 465.792 75.08 
L 447.792 81.08 
L 456.792 84.08 
L 456.792 102.08 
" clip-path="url(#p821d954697)" style="fill: none; stroke: #000000; stroke-width: 2; stroke-linecap: round"/>
   </g>
   <g id="line2d_27">
    <path d="M 456.792 102.08 
L 456.792 116.48 
L 447.792 116.48 
L 465.792 116.48 
M 450.492 120.8 
L 463.092 120.8 
M 454.992 125.12 
L 458.592 125.12 
" clip-path="url(#p821d954697)" style="fill: none; stroke: #000000; stroke-width: 2; stroke-linecap: round"/>
   </g>
   <g id="text_1">
    <!-- $v_p$ -->
    <g transform="translate(54.032 46.72) scale(0.16 -0.16)">
     <defs>
      <path id="DejaVuSans-Oblique-76" d="M 459 3500 
L 1069 3500 
L 1581 525 
L 3256 3500 
L 3866 3500 
L 1875 0 
L 1100 0 
L 459 3500 
z
" transform="scale(0.015625)"/>
      <path id="DejaVuSans-Oblique-70" d="M 3175 2156 
Q 3175 2616 2975 2859 
Q 2775 3103 2400 3103 
Q 2144 3103 1911 2972 
Q 1678 2841 1497 2591 
Q 1319 2344 1212 1994 
Q 1106 1644 1106 1300 
Q 1106 863 1306 627 
Q 1506 391 1875 391 
Q 2147 391 2380 519 
Q 2613 647 2778 891 
Q 2956 1147 3065 1494 
Q 3175 1841 3175 2156 
z
M 1394 2969 
Q 1625 3272 1939 3428 
Q 2253 3584 2638 3584 
Q 3175 3584 3472 3232 
Q 3769 2881 3769 2247 
Q 3769 1728 3584 1258 
Q 3400 788 3053 416 
Q 2822 169 2531 39 
Q 2241 -91 1919 -91 
Q 1547 -91 1294 64 
Q 1041 219 916 525 
L 556 -1331 
L -19 -1331 
L 922 3500 
L 1497 3500 
L 1394 2969 
z
" transform="scale(0.015625)"/>
     </defs>
     <use xlink:href="#DejaVuSans-Oblique-76" transform="translate(0 0.3125)"/>
     <use xlink:href="#DejaVuSans-Oblique-70" transform="translate(59.179688 -16.09375) scale(0.7)"/>
    </g>
   </g>
   <g id="text_2">
    <!-- $+$ -->
    <g transform="translate(88.272 23.1525) scale(0.16 -0.16)">
     <defs>
      <path id="DejaVuSans-2b" d="M 2944 4013 
L 2944 2272 
L 4684 2272 
L 4684 1741 
L 2944 1741 
L 2944 0 
L 2419 0 
L 2419 1741 
L 678 1741 
L 678 2272 
L 2419 2272 
L 2419 4013 
L 2944 4013 
z
" transform="scale(0.015625)"/>
     </defs>
     <use xlink:href="#DejaVuSans-2b" transform="translate(0 0.296875)"/>
    </g>
   </g>
   <g id="text_3">
    <!-- $r_i$ -->
    <g transform="translate(109.392 70.495) scale(0.16 -0.16)">
     <defs>
      <path id="DejaVuSans-Oblique-72" d="M 2853 2969 
Q 2766 3016 2653 3041 
Q 2541 3066 2413 3066 
Q 1953 3066 1609 2717 
Q 1266 2369 1153 1784 
L 800 0 
L 225 0 
L 909 3500 
L 1484 3500 
L 1375 2956 
Q 1603 3259 1920 3421 
Q 2238 3584 2597 3584 
Q 2691 3584 2781 3573 
Q 2872 3563 2963 3538 
L 2853 2969 
z
" transform="scale(0.015625)"/>
      <path id="DejaVuSans-Oblique-69" d="M 1172 4863 
L 1747 4863 
L 1606 4134 
L 1031 4134 
L 1172 4863 
z
M 909 3500 
L 1484 3500 
L 800 0 
L 225 0 
L 909 3500 
z
" transform="scale(0.015625)"/>
     </defs>
     <use xlink:href="#DejaVuSans-Oblique-72"/>
     <use xlink:href="#DejaVuSans-Oblique-69" transform="translate(41.113281 -16.40625) scale(0.7)"/>
    </g>
   </g>
   <g id="text_4">
    <!-- $-$ -->
    <g transform="translate(88.272 117.8375) scale(0.16 -0.16)">
     <defs>
      <path id="DejaVuSans-2212" d="M 678 2272 
L 4684 2272 
L 4684 1741 
L 678 1741 
L 678 2272 
z
" transform="scale(0.015625)"/>
     </defs>
     <use xlink:href="#DejaVuSans-2212" transform="translate(0 0.5)"/>
    </g>
   </g>
   <g id="patch_3">
    <path d="M 60.792 104.78 
C 61.508048 104.78 62.194866 104.495511 62.701188 103.989188 
C 63.207511 103.482866 63.492 102.796048 63.492 102.08 
C 63.492 101.363952 63.207511 100.677134 62.701188 100.170812 
C 62.194866 99.664489 61.508048 99.38 60.792 99.38 
C 60.075952 99.38 59.389134 99.664489 58.882812 100.170812 
C 58.376489 100.677134 58.092 101.363952 58.092 102.08 
C 58.092 102.796048 58.376489 103.482866 58.882812 103.989188 
C 59.389134 104.495511 60.075952 104.78 60.792 104.78 
z
" clip-path="url(#p821d954697)" style="fill: #ffffff; stroke: #000000; stroke-width: 2; stroke-linejoin: miter"/>
   </g>
   <g id="text_5">
    <!-- $v_n$ -->
    <g transform="translate(52.682 92.4525) scale(0.16 -0.16)">
     <defs>
      <path id="DejaVuSans-Oblique-6e" d="M 3566 2113 
L 3156 0 
L 2578 0 
L 2988 2091 
Q 3016 2238 3031 2350 
Q 3047 2463 3047 2528 
Q 3047 2791 2881 2937 
Q 2716 3084 2419 3084 
Q 1956 3084 1622 2776 
Q 1288 2469 1184 1941 
L 800 0 
L 225 0 
L 903 3500 
L 1478 3500 
L 1363 2950 
Q 1603 3253 1940 3418 
Q 2278 3584 2650 3584 
Q 3113 3584 3367 3334 
Q 3622 3084 3622 2631 
Q 3622 2519 3608 2391 
Q 3594 2263 3566 2113 
z
" transform="scale(0.015625)"/>
     </defs>
     <use xlink:href="#DejaVuSans-Oblique-76" transform="translate(0 0.3125)"/>
     <use xlink:href="#DejaVuSans-Oblique-6e" transform="translate(59.179688 -16.09375) scale(0.7)"/>
    </g>
   </g>
   <g id="patch_4">
    <path d="M 60.792 176.78 
C 61.508048 176.78 62.194866 176.495511 62.701188 175.989188 
C 63.207511 175.482866 63.492 174.796048 63.492 174.08 
C 63.492 173.363952 63.207511 172.677134 62.701188 172.170812 
C 62.194866 171.664489 61.508048 171.38 60.792 171.38 
C 60.075952 171.38 59.389134 171.664489 58.882812 172.170812 
C 58.376489 172.677134 58.092 173.363952 58.092 174.08 
C 58.092 174.796048 58.376489 175.482866 58.882812 175.989188 
C 59.389134 176.495511 60.075952 176.78 60.792 176.78 
z
" clip-path="url(#p821d954697)" style="stroke: #000000; stroke-width: 2; stroke-linejoin: miter"/>
   </g>
   <g id="text_6">
    <!-- $R_1$ -->
    <g transform="translate(29.472 214.495) scale(0.16 -0.16)">
     <defs>
      <path id="DejaVuSans-Oblique-52" d="M 1613 4147 
L 1294 2491 
L 2106 2491 
Q 2584 2491 2879 2755 
Q 3175 3019 3175 3444 
Q 3175 3784 2976 3965 
Q 2778 4147 2406 4147 
L 1613 4147 
z
M 2772 2241 
Q 2972 2194 3105 2009 
Q 3238 1825 3413 1275 
L 3809 0 
L 3144 0 
L 2778 1197 
Q 2638 1659 2453 1815 
Q 2269 1972 1888 1972 
L 1191 1972 
L 806 0 
L 172 0 
L 1081 4666 
L 2503 4666 
Q 3150 4666 3495 4373 
Q 3841 4081 3841 3531 
Q 3841 3044 3547 2687 
Q 3253 2331 2772 2241 
z
" transform="scale(0.015625)"/>
      <path id="DejaVuSans-31" d="M 794 531 
L 1825 531 
L 1825 4091 
L 703 3866 
L 703 4441 
L 1819 4666 
L 2450 4666 
L 2450 531 
L 3481 531 
L 3481 0 
L 794 0 
L 794 531 
z
" transform="scale(0.015625)"/>
     </defs>
     <use xlink:href="#DejaVuSans-Oblique-52" transform="translate(0 0.09375)"/>
     <use xlink:href="#DejaVuSans-31" transform="translate(69.482422 -16.3125) scale(0.7)"/>
    </g>
   </g>
   <g id="text_7">
    <!-- $R_2$ -->
    <g transform="translate(231.432 158.1525) scale(0.16 -0.16)">
     <defs>
      <path id="DejaVuSans-32" d="M 1228 531 
L 3431 531 
L 3431 0 
L 469 0 
L 469 531 
Q 828 903 1448 1529 
Q 2069 2156 2228 2338 
Q 2531 2678 2651 2914 
Q 2772 3150 2772 3378 
Q 2772 3750 2511 3984 
Q 2250 4219 1831 4219 
Q 1534 4219 1204 4116 
Q 875 4013 500 3803 
L 500 4441 
Q 881 4594 1212 4672 
Q 1544 4750 1819 4750 
Q 2544 4750 2975 4387 
Q 3406 4025 3406 3419 
Q 3406 3131 3298 2873 
Q 3191 2616 2906 2266 
Q 2828 2175 2409 1742 
Q 1991 1309 1228 531 
z
" transform="scale(0.015625)"/>
     </defs>
     <use xlink:href="#DejaVuSans-Oblique-52" transform="translate(0 0.09375)"/>
     <use xlink:href="#DejaVuSans-32" transform="translate(69.482422 -16.3125) scale(0.7)"/>
    </g>
   </g>
   <g id="patch_5">
    <path d="M 420.792 32.78 
C 421.508048 32.78 422.194866 32.495511 422.701188 31.989188 
C 423.207511 31.482866 423.492 30.796048 423.492 30.08 
C 423.492 29.363952 423.207511 28.677134 422.701188 28.170812 
C 422.194866 27.664489 421.508048 27.38 420.792 27.38 
C 420.075952 27.38 419.389134 27.664489 418.882812 28.170812 
C 418.376489 28.677134 418.092 29.363952 418.092 30.08 
C 418.092 30.796048 418.376489 31.482866 418.882812 31.989188 
C 419.389134 32.495511 420.075952 32.78 420.792 32.78 
z
" clip-path="url(#p821d954697)" style="stroke: #000000; stroke-width: 2; stroke-linejoin: miter"/>
   </g>
   <g id="text_8">
    <!-- $r_o$ -->
    <g transform="translate(377.832 14.1525) scale(0.16 -0.16)">
     <defs>
      <path id="DejaVuSans-Oblique-6f" d="M 1625 -91 
Q 1009 -91 651 289 
Q 294 669 294 1325 
Q 294 1706 417 2101 
Q 541 2497 738 2766 
Q 1047 3184 1428 3384 
Q 1809 3584 2291 3584 
Q 2888 3584 3255 3212 
Q 3622 2841 3622 2241 
Q 3622 1825 3500 1412 
Q 3378 1000 3181 728 
Q 2875 309 2494 109 
Q 2113 -91 1625 -91 
z
M 891 1344 
Q 891 869 1089 633 
Q 1288 397 1691 397 
Q 2269 397 2648 901 
Q 3028 1406 3028 2181 
Q 3028 2634 2825 2865 
Q 2622 3097 2228 3097 
Q 1903 3097 1650 2945 
Q 1397 2794 1197 2484 
Q 1050 2253 970 1956 
Q 891 1659 891 1344 
z
" transform="scale(0.015625)"/>
     </defs>
     <use xlink:href="#DejaVuSans-Oblique-72"/>
     <use xlink:href="#DejaVuSans-Oblique-6f" transform="translate(41.113281 -16.40625) scale(0.7)"/>
    </g>
   </g>
   <g id="text_9">
    <!-- $v_{t}$ -->
    <g transform="translate(370.392 70.495) scale(0.16 -0.16)">
     <defs>
      <path id="DejaVuSans-Oblique-74" d="M 2706 3500 
L 2619 3053 
L 1472 3053 
L 1100 1153 
Q 1081 1047 1072 975 
Q 1063 903 1063 863 
Q 1063 663 1183 572 
Q 1303 481 1569 481 
L 2150 481 
L 2053 0 
L 1503 0 
Q 991 0 739 200 
Q 488 400 488 806 
Q 488 878 497 964 
Q 506 1050 525 1153 
L 897 3053 
L 409 3053 
L 500 3500 
L 978 3500 
L 1172 4494 
L 1747 4494 
L 1556 3500 
L 2706 3500 
z
" transform="scale(0.015625)"/>
     </defs>
     <use xlink:href="#DejaVuSans-Oblique-76" transform="translate(0 0.3125)"/>
     <use xlink:href="#DejaVuSans-Oblique-74" transform="translate(59.179688 -16.09375) scale(0.7)"/>
    </g>
   </g>
   <g id="text_10">
    <!-- $a_v \cdot (v_p-v_n)$ -->
    <g transform="translate(226.392 69.68) scale(0.16 -0.16)">
     <defs>
      <path id="DejaVuSans-Oblique-61" d="M 3438 1997 
L 3047 0 
L 2472 0 
L 2578 531 
Q 2325 219 2001 64 
Q 1678 -91 1281 -91 
Q 834 -91 548 182 
Q 263 456 263 884 
Q 263 1497 752 1853 
Q 1241 2209 2100 2209 
L 2900 2209 
L 2931 2363 
Q 2938 2388 2941 2417 
Q 2944 2447 2944 2509 
Q 2944 2788 2717 2942 
Q 2491 3097 2081 3097 
Q 1800 3097 1504 3025 
Q 1209 2953 897 2809 
L 997 3341 
Q 1322 3463 1633 3523 
Q 1944 3584 2234 3584 
Q 2853 3584 3176 3315 
Q 3500 3047 3500 2534 
Q 3500 2431 3484 2292 
Q 3469 2153 3438 1997 
z
M 2816 1759 
L 2241 1759 
Q 1534 1759 1195 1570 
Q 856 1381 856 984 
Q 856 709 1029 553 
Q 1203 397 1509 397 
Q 1978 397 2328 733 
Q 2678 1069 2791 1631 
L 2816 1759 
z
" transform="scale(0.015625)"/>
      <path id="DejaVuSans-22c5" d="M 684 2619 
L 1344 2619 
L 1344 1825 
L 684 1825 
L 684 2619 
z
" transform="scale(0.015625)"/>
      <path id="DejaVuSans-28" d="M 1984 4856 
Q 1566 4138 1362 3434 
Q 1159 2731 1159 2009 
Q 1159 1288 1364 580 
Q 1569 -128 1984 -844 
L 1484 -844 
Q 1016 -109 783 600 
Q 550 1309 550 2009 
Q 550 2706 781 3412 
Q 1013 4119 1484 4856 
L 1984 4856 
z
" transform="scale(0.015625)"/>
      <path id="DejaVuSans-29" d="M 513 4856 
L 1013 4856 
Q 1481 4119 1714 3412 
Q 1947 2706 1947 2009 
Q 1947 1309 1714 600 
Q 1481 -109 1013 -844 
L 513 -844 
Q 928 -128 1133 580 
Q 1338 1288 1338 2009 
Q 1338 2731 1133 3434 
Q 928 4138 513 4856 
z
" transform="scale(0.015625)"/>
     </defs>
     <use xlink:href="#DejaVuSans-Oblique-61" transform="translate(0 0.125)"/>
     <use xlink:href="#DejaVuSans-Oblique-76" transform="translate(61.279297 -16.28125) scale(0.7)"/>
     <use xlink:href="#DejaVuSans-22c5" transform="translate(124.921875 0.125)"/>
     <use xlink:href="#DejaVuSans-28" transform="translate(176.191406 0.125)"/>
     <use xlink:href="#DejaVuSans-Oblique-76" transform="translate(215.205078 0.125)"/>
     <use xlink:href="#DejaVuSans-Oblique-70" transform="translate(274.384766 -16.28125) scale(0.7)"/>
     <use xlink:href="#DejaVuSans-2212" transform="translate(341.035156 0.125)"/>
     <use xlink:href="#DejaVuSans-Oblique-76" transform="translate(444.306641 0.125)"/>
     <use xlink:href="#DejaVuSans-Oblique-6e" transform="translate(503.486328 -16.28125) scale(0.7)"/>
     <use xlink:href="#DejaVuSans-29" transform="translate(550.585938 0.125)"/>
    </g>
   </g>
   <g id="patch_6">
    <path d="M 222.792 32.78 
C 223.508048 32.78 224.194866 32.495511 224.701188 31.989188 
C 225.207511 31.482866 225.492 30.796048 225.492 30.08 
C 225.492 29.363952 225.207511 28.677134 224.701188 28.170812 
C 224.194866 27.664489 223.508048 27.38 222.792 27.38 
C 222.075952 27.38 221.389134 27.664489 220.882812 28.170812 
C 220.376489 28.677134 220.092 29.363952 220.092 30.08 
C 220.092 30.796048 220.376489 31.482866 220.882812 31.989188 
C 221.389134 32.495511 222.075952 32.78 222.792 32.78 
z
" clip-path="url(#p821d954697)" style="fill: #ffffff; stroke: #000000; stroke-width: 2; stroke-linejoin: miter"/>
   </g>
   <g id="text_11">
    <!-- $v_r$ -->
    <g transform="translate(207.862 20.4525) scale(0.16 -0.16)">
     <use xlink:href="#DejaVuSans-Oblique-76" transform="translate(0 0.3125)"/>
     <use xlink:href="#DejaVuSans-Oblique-72" transform="translate(59.179688 -16.09375) scale(0.7)"/>
    </g>
   </g>
   <g id="text_12">
    <!-- $R_L$ -->
    <g transform="translate(469.392 70.495) scale(0.16 -0.16)">
     <defs>
      <path id="DejaVuSans-Oblique-4c" d="M 1075 4666 
L 1709 4666 
L 909 525 
L 3181 525 
L 3078 0 
L 172 0 
L 1075 4666 
z
" transform="scale(0.015625)"/>
     </defs>
     <use xlink:href="#DejaVuSans-Oblique-52" transform="translate(0 0.09375)"/>
     <use xlink:href="#DejaVuSans-Oblique-4c" transform="translate(69.482422 -16.3125) scale(0.7)"/>
    </g>
   </g>
   <g id="patch_7">
    <path d="M 60.792 32.78 
C 61.508048 32.78 62.194866 32.495511 62.701188 31.989188 
C 63.207511 31.482866 63.492 30.796048 63.492 30.08 
C 63.492 29.363952 63.207511 28.677134 62.701188 28.170812 
C 62.194866 27.664489 61.508048 27.38 60.792 27.38 
C 60.075952 27.38 59.389134 27.664489 58.882812 28.170812 
C 58.376489 28.677134 58.092 29.363952 58.092 30.08 
C 58.092 30.796048 58.376489 31.482866 58.882812 31.989188 
C 59.389134 32.495511 60.075952 32.78 60.792 32.78 
z
" clip-path="url(#p821d954697)" style="fill: #ffffff; stroke: #000000; stroke-width: 2; stroke-linejoin: miter"/>
   </g>
   <g id="line2d_28">
    <path d="M 60.792 145.28 
L 60.792 145.28 
" clip-path="url(#p821d954697)" style="fill: none; stroke: #000000; stroke-width: 2; stroke-linecap: round"/>
   </g>
   <g id="patch_8">
    <path d="M 55.392 145.28 
L 60.792 134.48 
L 66.192 145.28 
z
" clip-path="url(#p821d954697)"/>
   </g>
   <g id="text_13">
    <!-- $i_{ri} = 0$ -->
    <g transform="translate(7.432 144.295) scale(0.16 -0.16)">
     <defs>
      <path id="DejaVuSans-3d" d="M 678 2906 
L 4684 2906 
L 4684 2381 
L 678 2381 
L 678 2906 
z
M 678 1631 
L 4684 1631 
L 4684 1100 
L 678 1100 
L 678 1631 
z
" transform="scale(0.015625)"/>
      <path id="DejaVuSans-30" d="M 2034 4250 
Q 1547 4250 1301 3770 
Q 1056 3291 1056 2328 
Q 1056 1369 1301 889 
Q 1547 409 2034 409 
Q 2525 409 2770 889 
Q 3016 1369 3016 2328 
Q 3016 3291 2770 3770 
Q 2525 4250 2034 4250 
z
M 2034 4750 
Q 2819 4750 3233 4129 
Q 3647 3509 3647 2328 
Q 3647 1150 3233 529 
Q 2819 -91 2034 -91 
Q 1250 -91 836 529 
Q 422 1150 422 2328 
Q 422 3509 836 4129 
Q 1250 4750 2034 4750 
z
" transform="scale(0.015625)"/>
     </defs>
     <use xlink:href="#DejaVuSans-Oblique-69" transform="translate(0 0.015625)"/>
     <use xlink:href="#DejaVuSans-Oblique-72" transform="translate(27.783203 -16.390625) scale(0.7)"/>
     <use xlink:href="#DejaVuSans-Oblique-69" transform="translate(56.5625 -16.390625) scale(0.7)"/>
     <use xlink:href="#DejaVuSans-3d" transform="translate(98.227539 0.015625)"/>
     <use xlink:href="#DejaVuSans-30" transform="translate(201.499023 0.015625)"/>
    </g>
   </g>
  </g>
 </g>
 <defs>
  <clipPath id="p821d954697">
   <rect x="0" y="0" width="497.496" height="273.8"/>
  </clipPath>
 </defs>
</svg>
