<?xml version="1.0" encoding="utf-8" standalone="no"?>
<!DOCTYPE svg PUBLIC "-//W3C//DTD SVG 1.1//EN"
  "http://www.w3.org/Graphics/SVG/1.1/DTD/svg11.dtd">
<svg xmlns:xlink="http://www.w3.org/1999/xlink" width="391.776pt" height="157.16pt" viewBox="0 0 391.776 157.16" xmlns="http://www.w3.org/2000/svg" version="1.1">
 <metadata>
  <rdf:RDF xmlns:dc="http://purl.org/dc/elements/1.1/" xmlns:cc="http://creativecommons.org/ns#" xmlns:rdf="http://www.w3.org/1999/02/22-rdf-syntax-ns#">
   <cc:Work>
    <dc:type rdf:resource="http://purl.org/dc/dcmitype/StillImage"/>
    <dc:date>2025-03-25T17:47:21.914175</dc:date>
    <dc:format>image/svg+xml</dc:format>
    <dc:creator>
     <cc:Agent>
      <dc:title>Matplotlib v3.9.2, https://matplotlib.org/</dc:title>
     </cc:Agent>
    </dc:creator>
   </cc:Work>
  </rdf:RDF>
 </metadata>
 <defs>
  <style type="text/css">*{stroke-linejoin: round; stroke-linecap: butt}</style>
 </defs>
 <g id="figure_1">
  <g id="patch_1">
   <path d="M 0 157.16 
L 391.776 157.16 
L 391.776 0 
L 0 0 
z
" style="fill: #ffffff"/>
  </g>
  <g id="axes_1">
   <g id="patch_2">
    <path d="M 81.72 44.48 
C 86.493656 44.48 91.072438 42.583406 94.447922 39.207922 
C 97.823406 35.832438 99.72 31.253656 99.72 26.48 
C 99.72 21.706344 97.823406 17.127562 94.447922 13.752078 
C 91.072438 10.376594 86.493656 8.48 81.72 8.48 
C 76.946344 8.48 72.367562 10.376594 68.992078 13.752078 
C 65.616594 17.127562 63.72 21.706344 63.72 26.48 
C 63.72 31.253656 65.616594 35.832438 68.992078 39.207922 
C 72.367562 42.583406 76.946344 44.48 81.72 44.48 
L 81.72 44.48 
z
" clip-path="url(#padd9c7b535)" style="fill: none; stroke: #000000; stroke-width: 2; stroke-linejoin: miter"/>
   </g>
   <g id="patch_3">
    <path d="M 297.72 80.48 
C 302.493656 80.48 307.072438 78.583406 310.447922 75.207922 
C 313.823406 71.832438 315.72 67.253656 315.72 62.48 
C 315.72 57.706344 313.823406 53.127562 310.447922 49.752078 
C 307.072438 46.376594 302.493656 44.48 297.72 44.48 
C 292.946344 44.48 288.367562 46.376594 284.992078 49.752078 
C 281.616594 53.127562 279.72 57.706344 279.72 62.48 
C 279.72 67.253656 281.616594 71.832438 284.992078 75.207922 
C 288.367562 78.583406 292.946344 80.48 297.72 80.48 
L 297.72 80.48 
z
" clip-path="url(#padd9c7b535)" style="fill: none; stroke: #000000; stroke-width: 2; stroke-linejoin: miter"/>
   </g>
   <g id="line2d_1">
    <path d="M 27.72 26.48 
L 13.32 26.48 
L 13.32 17.48 
L 13.32 35.48 
M 9 20.18 
L 9 32.78 
M 4.68 24.68 
L 4.68 28.28 
" clip-path="url(#padd9c7b535)" style="fill: none; stroke: #000000; stroke-width: 2; stroke-linecap: round"/>
   </g>
   <g id="line2d_2">
    <path d="M 27.72 26.48 
L 45.72 26.48 
L 63.72 26.48 
" clip-path="url(#padd9c7b535)" style="fill: none; stroke: #000000; stroke-width: 2; stroke-linecap: round"/>
   </g>
   <g id="line2d_3">
    <path d="M 99.72 26.48 
L 135.72 26.48 
L 162.72 26.48 
" clip-path="url(#padd9c7b535)" style="fill: none; stroke: #000000; stroke-width: 2; stroke-linecap: round"/>
   </g>
   <g id="patch_4">
    <path d="M 162.72 23.78 
L 171.72 26.48 
L 162.72 29.18 
z
" clip-path="url(#padd9c7b535)"/>
   </g>
   <g id="line2d_4">
    <path d="M 171.72 26.48 
L 171.72 8.48 
L 207.72 8.48 
L 207.72 44.48 
L 171.72 44.48 
L 171.72 26.48 
" clip-path="url(#padd9c7b535)" style="fill: none; stroke: #000000; stroke-width: 2; stroke-linecap: round"/>
   </g>
   <g id="line2d_5">
    <path d="M 207.72 26.48 
L 225.72 26.48 
L 243.72 26.48 
" clip-path="url(#padd9c7b535)" style="fill: none; stroke: #000000; stroke-width: 2; stroke-linecap: round"/>
   </g>
   <g id="line2d_6">
    <path d="M 243.72 98.48 
L 243.72 112.88 
L 234.72 112.88 
L 252.72 112.88 
M 237.42 117.2 
L 250.02 117.2 
M 241.92 121.52 
L 245.52 121.52 
" clip-path="url(#padd9c7b535)" style="fill: none; stroke: #000000; stroke-width: 2; stroke-linecap: round"/>
   </g>
   <g id="line2d_7">
    <path d="M 297.72 26.48 
L 297.72 44.48 
L 297.72 44.48 
M 297.72 80.48 
L 297.72 80.48 
L 297.72 98.48 
" clip-path="url(#padd9c7b535)" style="fill: none; stroke: #000000; stroke-width: 2; stroke-linecap: round"/>
   </g>
   <g id="line2d_8">
    <path d="M 301.32 71.48 
L 294.12 71.48 
" clip-path="url(#padd9c7b535)" style="fill: none; stroke: #000000; stroke-width: 2; stroke-linecap: round"/>
   </g>
   <g id="line2d_9">
    <path d="M 297.72 49.88 
L 297.72 57.08 
" clip-path="url(#padd9c7b535)" style="fill: none; stroke: #000000; stroke-width: 2; stroke-linecap: round"/>
   </g>
   <g id="line2d_10">
    <path d="M 301.32 53.48 
L 294.12 53.48 
" clip-path="url(#padd9c7b535)" style="fill: none; stroke: #000000; stroke-width: 2; stroke-linecap: round"/>
   </g>
   <g id="line2d_11">
    <path d="M 297.72 98.48 
L 297.72 112.88 
L 288.72 112.88 
L 306.72 112.88 
M 291.42 117.2 
L 304.02 117.2 
M 295.92 121.52 
L 299.52 121.52 
" clip-path="url(#padd9c7b535)" style="fill: none; stroke: #000000; stroke-width: 2; stroke-linecap: round"/>
   </g>
   <g id="line2d_12">
    <path d="M 297.72 26.48 
L 315.72 26.48 
L 333.72 26.48 
" clip-path="url(#padd9c7b535)" style="fill: none; stroke: #000000; stroke-width: 2; stroke-linecap: round"/>
   </g>
   <g id="line2d_13">
    <path d="M 333.72 26.48 
L 351.72 26.48 
L 369.72 26.48 
" clip-path="url(#padd9c7b535)" style="fill: none; stroke: #000000; stroke-width: 2; stroke-linecap: round"/>
   </g>
   <g id="line2d_14">
    <path d="M 333.72 26.48 
L 333.72 80.48 
L 333.72 134.48 
" clip-path="url(#padd9c7b535)" style="fill: none; stroke: #000000; stroke-width: 2; stroke-linecap: round"/>
   </g>
   <g id="line2d_15">
    <path d="M 333.72 134.48 
L 270.72 134.48 
L 216.72 134.48 
" clip-path="url(#padd9c7b535)" style="fill: none; stroke: #000000; stroke-width: 2; stroke-linecap: round"/>
   </g>
   <g id="patch_5">
    <path d="M 216.72 137.18 
L 207.72 134.48 
L 216.72 131.78 
z
" clip-path="url(#padd9c7b535)"/>
   </g>
   <g id="line2d_16">
    <path d="M 171.72 134.48 
L 171.72 116.48 
L 207.72 116.48 
L 207.72 152.48 
L 171.72 152.48 
L 171.72 134.48 
" clip-path="url(#padd9c7b535)" style="fill: none; stroke: #000000; stroke-width: 2; stroke-linecap: round"/>
   </g>
   <g id="line2d_17">
    <path d="M 171.72 134.48 
L 126.72 134.48 
L 81.72 134.48 
" clip-path="url(#padd9c7b535)" style="fill: none; stroke: #000000; stroke-width: 2; stroke-linecap: round"/>
   </g>
   <g id="line2d_18">
    <path d="M 81.72 134.48 
L 81.72 116.48 
L 81.72 98.48 
" clip-path="url(#padd9c7b535)" style="fill: none; stroke: #000000; stroke-width: 2; stroke-linecap: round"/>
   </g>
   <g id="line2d_19">
    <path d="M 81.72 98.48 
L 81.72 71.48 
L 81.72 53.48 
" clip-path="url(#padd9c7b535)" style="fill: none; stroke: #000000; stroke-width: 2; stroke-linecap: round"/>
   </g>
   <g id="patch_6">
    <path d="M 79.02 53.48 
L 81.72 44.48 
L 84.42 53.48 
z
" clip-path="url(#padd9c7b535)"/>
   </g>
   <g id="text_1">
    <!-- $_+$ -->
    <g transform="translate(45.72 34.495) scale(0.16 -0.16)">
     <defs>
      <path id="DejaVuSans-2b" d="M 2944 4013 
L 2944 2272 
L 4684 2272 
L 4684 1741 
L 2944 1741 
L 2944 0 
L 2419 0 
L 2419 1741 
L 678 1741 
L 678 2272 
L 2419 2272 
L 2419 4013 
L 2944 4013 
z
" transform="scale(0.015625)"/>
     </defs>
     <use xlink:href="#DejaVuSans-2b" transform="translate(14.594727 -15.892187) scale(0.7)"/>
    </g>
   </g>
   <g id="text_2">
    <!-- $\Sigma$ -->
    <g transform="translate(75.44 30.343125) scale(0.14 -0.14)">
     <defs>
      <path id="DejaVuSans-3a3" d="M 1353 531 
L 3634 531 
L 3634 0 
L 628 0 
L 628 531 
L 2125 2481 
L 628 4134 
L 628 4666 
L 3578 4666 
L 3578 4134 
L 1353 4134 
L 2850 2494 
L 1353 531 
z
" transform="scale(0.015625)"/>
     </defs>
     <use xlink:href="#DejaVuSans-3a3" transform="translate(0 0.09375)"/>
    </g>
   </g>
   <g id="text_3">
    <!-- $v_\epsilon \equiv v_d$ -->
    <g transform="translate(109.4 14.1525) scale(0.16 -0.16)">
     <defs>
      <path id="DejaVuSans-Oblique-76" d="M 459 3500 
L 1069 3500 
L 1581 525 
L 3256 3500 
L 3866 3500 
L 1875 0 
L 1100 0 
L 459 3500 
z
" transform="scale(0.015625)"/>
      <path id="DejaVuSans-Oblique-3b5" d="M 1263 1888 
Q 925 1963 778 2166 
Q 669 2309 669 2503 
Q 669 3034 1175 3344 
Q 1575 3588 2188 3588 
Q 2425 3588 2684 3550 
Q 2944 3513 3234 3438 
L 3134 2916 
Q 2847 3006 2606 3047 
Q 2359 3088 2138 3088 
Q 1766 3088 1522 2944 
Q 1228 2772 1228 2522 
Q 1228 2356 1381 2241 
Q 1563 2103 1925 2103 
L 2409 2103 
L 2319 1628 
L 1856 1628 
Q 1425 1628 1172 1469 
Q 828 1253 828 916 
Q 828 703 1013 563 
Q 1244 388 1716 388 
Q 2006 388 2284 444 
Q 2563 503 2806 619 
L 2700 84 
Q 2403 -3 2131 -47 
Q 1859 -91 1609 -91 
Q 866 -91 516 194 
Q 250 413 250 781 
Q 250 1278 600 1584 
Q 859 1813 1263 1888 
z
" transform="scale(0.015625)"/>
      <path id="DejaVuSans-2261" d="M 678 2272 
L 4684 2272 
L 4684 1741 
L 678 1741 
L 678 2272 
z
M 678 3438 
L 4684 3438 
L 4684 2906 
L 678 2906 
L 678 3438 
z
M 678 1106 
L 4684 1106 
L 4684 575 
L 678 575 
L 678 1106 
z
" transform="scale(0.015625)"/>
      <path id="DejaVuSans-Oblique-64" d="M 2675 525 
Q 2444 222 2128 65 
Q 1813 -91 1428 -91 
Q 903 -91 598 267 
Q 294 625 294 1247 
Q 294 1766 478 2236 
Q 663 2706 1013 3078 
Q 1244 3325 1534 3454 
Q 1825 3584 2144 3584 
Q 2481 3584 2739 3421 
Q 2997 3259 3138 2956 
L 3513 4863 
L 4091 4863 
L 3144 0 
L 2566 0 
L 2675 525 
z
M 891 1350 
Q 891 897 1095 644 
Q 1300 391 1663 391 
Q 1931 391 2161 520 
Q 2391 650 2566 903 
Q 2750 1166 2856 1509 
Q 2963 1853 2963 2188 
Q 2963 2622 2758 2865 
Q 2553 3109 2194 3109 
Q 1922 3109 1687 2981 
Q 1453 2853 1288 2613 
Q 1106 2353 998 2009 
Q 891 1666 891 1350 
z
" transform="scale(0.015625)"/>
     </defs>
     <use xlink:href="#DejaVuSans-Oblique-76" transform="translate(0 0.3125)"/>
     <use xlink:href="#DejaVuSans-Oblique-3b5" transform="translate(59.179688 -16.09375) scale(0.7)"/>
     <use xlink:href="#DejaVuSans-2261" transform="translate(119.233398 0.3125)"/>
     <use xlink:href="#DejaVuSans-Oblique-76" transform="translate(222.504883 0.3125)"/>
     <use xlink:href="#DejaVuSans-Oblique-64" transform="translate(281.68457 -16.09375) scale(0.7)"/>
    </g>
   </g>
   <g id="text_4">
    <!-- $a$ -->
    <g transform="translate(184.92 30.895) scale(0.16 -0.16)">
     <defs>
      <path id="DejaVuSerif-Italic-61" d="M 2325 519 
Q 1909 -91 1238 -91 
Q 688 -91 409 281 
Q 216 544 216 919 
Q 216 1078 250 1256 
Q 463 2359 1231 2928 
Q 1884 3413 2675 3413 
Q 3206 3413 3388 3322 
L 2806 331 
L 3300 331 
L 3238 0 
L 2225 0 
L 2325 519 
z
M 822 938 
Q 822 269 1469 269 
Q 1863 269 2130 583 
Q 2397 897 2516 1497 
L 2806 3003 
L 2806 3003 
Q 2806 3094 2556 3094 
Q 1956 3094 1491 2625 
Q 1028 2153 863 1297 
Q 822 1097 822 938 
z
" transform="scale(0.015625)"/>
     </defs>
     <use xlink:href="#DejaVuSerif-Italic-61" transform="translate(0 0.671875)"/>
    </g>
   </g>
   <g id="text_5">
    <!-- + -->
    <g transform="translate(237.01625 48.895) scale(0.16 -0.16)">
     <use xlink:href="#DejaVuSans-2b"/>
    </g>
   </g>
   <g id="text_6">
    <!-- $v_r$ -->
    <g transform="translate(236.44 66.895) scale(0.16 -0.16)">
     <defs>
      <path id="DejaVuSans-Oblique-72" d="M 2853 2969 
Q 2766 3016 2653 3041 
Q 2541 3066 2413 3066 
Q 1953 3066 1609 2717 
Q 1266 2369 1153 1784 
L 800 0 
L 225 0 
L 909 3500 
L 1484 3500 
L 1375 2956 
Q 1603 3259 1920 3421 
Q 2238 3584 2597 3584 
Q 2691 3584 2781 3573 
Q 2872 3563 2963 3538 
L 2853 2969 
z
" transform="scale(0.015625)"/>
     </defs>
     <use xlink:href="#DejaVuSans-Oblique-76" transform="translate(0 0.3125)"/>
     <use xlink:href="#DejaVuSans-Oblique-72" transform="translate(59.179688 -16.09375) scale(0.7)"/>
    </g>
   </g>
   <g id="text_7">
    <!-- $-$ -->
    <g transform="translate(237 84.895) scale(0.16 -0.16)">
     <defs>
      <path id="DejaVuSans-2212" d="M 678 2272 
L 4684 2272 
L 4684 1741 
L 678 1741 
L 678 2272 
z
" transform="scale(0.015625)"/>
     </defs>
     <use xlink:href="#DejaVuSans-2212" transform="translate(0 0.5)"/>
    </g>
   </g>
   <g id="text_8">
    <!-- $v_t$ -->
    <g transform="translate(261.72 66.895) scale(0.16 -0.16)">
     <defs>
      <path id="DejaVuSans-Oblique-74" d="M 2706 3500 
L 2619 3053 
L 1472 3053 
L 1100 1153 
Q 1081 1047 1072 975 
Q 1063 903 1063 863 
Q 1063 663 1183 572 
Q 1303 481 1569 481 
L 2150 481 
L 2053 0 
L 1503 0 
Q 991 0 739 200 
Q 488 400 488 806 
Q 488 878 497 964 
Q 506 1050 525 1153 
L 897 3053 
L 409 3053 
L 500 3500 
L 978 3500 
L 1172 4494 
L 1747 4494 
L 1556 3500 
L 2706 3500 
z
" transform="scale(0.015625)"/>
     </defs>
     <use xlink:href="#DejaVuSans-Oblique-76" transform="translate(0 0.3125)"/>
     <use xlink:href="#DejaVuSans-Oblique-74" transform="translate(59.179688 -16.09375) scale(0.7)"/>
    </g>
   </g>
   <g id="patch_7">
    <path d="M 333.72 29.18 
C 334.436048 29.18 335.122866 28.895511 335.629188 28.389188 
C 336.135511 27.882866 336.42 27.196048 336.42 26.48 
C 336.42 25.763952 336.135511 25.077134 335.629188 24.570812 
C 335.122866 24.064489 334.436048 23.78 333.72 23.78 
C 333.003952 23.78 332.317134 24.064489 331.810812 24.570812 
C 331.304489 25.077134 331.02 25.763952 331.02 26.48 
C 331.02 27.196048 331.304489 27.882866 331.810812 28.389188 
C 332.317134 28.895511 333.003952 29.18 333.72 29.18 
z
" clip-path="url(#padd9c7b535)" style="stroke: #000000; stroke-width: 2; stroke-linejoin: miter"/>
   </g>
   <g id="text_9">
    <!-- $b$ -->
    <g transform="translate(184.6 138.895) scale(0.16 -0.16)">
     <defs>
      <path id="DejaVuSans-Oblique-62" d="M 3169 2138 
Q 3169 2591 2961 2847 
Q 2753 3103 2388 3103 
Q 2122 3103 1889 2973 
Q 1656 2844 1484 2597 
Q 1303 2338 1198 1995 
Q 1094 1653 1094 1313 
Q 1094 881 1298 636 
Q 1503 391 1863 391 
Q 2134 391 2365 517 
Q 2597 644 2772 891 
Q 2950 1147 3059 1487 
Q 3169 1828 3169 2138 
z
M 1381 2969 
Q 1594 3256 1914 3420 
Q 2234 3584 2584 3584 
Q 3122 3584 3439 3221 
Q 3756 2859 3756 2241 
Q 3756 1734 3570 1259 
Q 3384 784 3041 416 
Q 2816 172 2522 40 
Q 2228 -91 1906 -91 
Q 1566 -91 1316 65 
Q 1066 222 909 531 
L 806 0 
L 231 0 
L 1178 4863 
L 1753 4863 
L 1381 2969 
z
" transform="scale(0.015625)"/>
     </defs>
     <use xlink:href="#DejaVuSans-Oblique-62" transform="translate(0 0.015625)"/>
    </g>
   </g>
   <g id="text_10">
    <!-- $v_f$ -->
    <g transform="translate(119.76 127.5525) scale(0.16 -0.16)">
     <defs>
      <path id="DejaVuSans-Oblique-66" d="M 3059 4863 
L 2969 4384 
L 2419 4384 
Q 2106 4384 1964 4261 
Q 1822 4138 1753 3809 
L 1691 3500 
L 2638 3500 
L 2553 3053 
L 1606 3053 
L 1013 0 
L 434 0 
L 1031 3053 
L 481 3053 
L 563 3500 
L 1113 3500 
L 1159 3744 
Q 1278 4363 1576 4613 
Q 1875 4863 2516 4863 
L 3059 4863 
z
" transform="scale(0.015625)"/>
     </defs>
     <use xlink:href="#DejaVuSans-Oblique-76" transform="translate(0 0.3125)"/>
     <use xlink:href="#DejaVuSans-Oblique-66" transform="translate(59.179688 -16.09375) scale(0.7)"/>
    </g>
   </g>
   <g id="text_11">
    <!-- $_-$ -->
    <g transform="translate(87.12 50.695) scale(0.16 -0.16)">
     <use xlink:href="#DejaVuSans-2212" transform="translate(14.594727 -15.85) scale(0.7)"/>
    </g>
   </g>
   <g id="patch_8">
    <path d="M 27.72 29.18 
C 28.436048 29.18 29.122866 28.895511 29.629188 28.389188 
C 30.135511 27.882866 30.42 27.196048 30.42 26.48 
C 30.42 25.763952 30.135511 25.077134 29.629188 24.570812 
C 29.122866 24.064489 28.436048 23.78 27.72 23.78 
C 27.003952 23.78 26.317134 24.064489 25.810812 24.570812 
C 25.304489 25.077134 25.02 25.763952 25.02 26.48 
C 25.02 27.196048 25.304489 27.882866 25.810812 28.389188 
C 26.317134 28.895511 27.003952 29.18 27.72 29.18 
z
" clip-path="url(#padd9c7b535)" style="fill: #ffffff; stroke: #000000; stroke-width: 2; stroke-linejoin: miter"/>
   </g>
   <g id="text_12">
    <!-- $v_{in}$ -->
    <g transform="translate(17.64 16.8525) scale(0.16 -0.16)">
     <defs>
      <path id="DejaVuSans-Oblique-69" d="M 1172 4863 
L 1747 4863 
L 1606 4134 
L 1031 4134 
L 1172 4863 
z
M 909 3500 
L 1484 3500 
L 800 0 
L 225 0 
L 909 3500 
z
" transform="scale(0.015625)"/>
      <path id="DejaVuSans-Oblique-6e" d="M 3566 2113 
L 3156 0 
L 2578 0 
L 2988 2091 
Q 3016 2238 3031 2350 
Q 3047 2463 3047 2528 
Q 3047 2791 2881 2937 
Q 2716 3084 2419 3084 
Q 1956 3084 1622 2776 
Q 1288 2469 1184 1941 
L 800 0 
L 225 0 
L 903 3500 
L 1478 3500 
L 1363 2950 
Q 1603 3253 1940 3418 
Q 2278 3584 2650 3584 
Q 3113 3584 3367 3334 
Q 3622 3084 3622 2631 
Q 3622 2519 3608 2391 
Q 3594 2263 3566 2113 
z
" transform="scale(0.015625)"/>
     </defs>
     <use xlink:href="#DejaVuSans-Oblique-76" transform="translate(0 0.3125)"/>
     <use xlink:href="#DejaVuSans-Oblique-69" transform="translate(59.179688 -16.09375) scale(0.7)"/>
     <use xlink:href="#DejaVuSans-Oblique-6e" transform="translate(78.62793 -16.09375) scale(0.7)"/>
    </g>
   </g>
   <g id="patch_9">
    <path d="M 243.72 29.18 
C 244.436048 29.18 245.122866 28.895511 245.629188 28.389188 
C 246.135511 27.882866 246.42 27.196048 246.42 26.48 
C 246.42 25.763952 246.135511 25.077134 245.629188 24.570812 
C 245.122866 24.064489 244.436048 23.78 243.72 23.78 
C 243.003952 23.78 242.317134 24.064489 241.810812 24.570812 
C 241.304489 25.077134 241.02 25.763952 241.02 26.48 
C 241.02 27.196048 241.304489 27.882866 241.810812 28.389188 
C 242.317134 28.895511 243.003952 29.18 243.72 29.18 
z
" clip-path="url(#padd9c7b535)" style="fill: #ffffff; stroke: #000000; stroke-width: 2; stroke-linejoin: miter"/>
   </g>
   <g id="patch_10">
    <path d="M 369.72 29.18 
C 370.436048 29.18 371.122866 28.895511 371.629188 28.389188 
C 372.135511 27.882866 372.42 27.196048 372.42 26.48 
C 372.42 25.763952 372.135511 25.077134 371.629188 24.570812 
C 371.122866 24.064489 370.436048 23.78 369.72 23.78 
C 369.003952 23.78 368.317134 24.064489 367.810812 24.570812 
C 367.304489 25.077134 367.02 25.763952 367.02 26.48 
C 367.02 27.196048 367.304489 27.882866 367.810812 28.389188 
C 368.317134 28.895511 369.003952 29.18 369.72 29.18 
z
" clip-path="url(#padd9c7b535)" style="fill: #ffffff; stroke: #000000; stroke-width: 2; stroke-linejoin: miter"/>
   </g>
   <g id="text_13">
    <!-- $v_{out}$ -->
    <g transform="translate(355.56 16.8525) scale(0.16 -0.16)">
     <defs>
      <path id="DejaVuSans-Oblique-6f" d="M 1625 -91 
Q 1009 -91 651 289 
Q 294 669 294 1325 
Q 294 1706 417 2101 
Q 541 2497 738 2766 
Q 1047 3184 1428 3384 
Q 1809 3584 2291 3584 
Q 2888 3584 3255 3212 
Q 3622 2841 3622 2241 
Q 3622 1825 3500 1412 
Q 3378 1000 3181 728 
Q 2875 309 2494 109 
Q 2113 -91 1625 -91 
z
M 891 1344 
Q 891 869 1089 633 
Q 1288 397 1691 397 
Q 2269 397 2648 901 
Q 3028 1406 3028 2181 
Q 3028 2634 2825 2865 
Q 2622 3097 2228 3097 
Q 1903 3097 1650 2945 
Q 1397 2794 1197 2484 
Q 1050 2253 970 1956 
Q 891 1659 891 1344 
z
" transform="scale(0.015625)"/>
      <path id="DejaVuSans-Oblique-75" d="M 428 1388 
L 838 3500 
L 1416 3500 
L 1006 1409 
Q 975 1256 961 1147 
Q 947 1038 947 966 
Q 947 700 1109 554 
Q 1272 409 1569 409 
Q 2031 409 2368 721 
Q 2706 1034 2809 1563 
L 3194 3500 
L 3769 3500 
L 3091 0 
L 2516 0 
L 2631 550 
Q 2388 244 2052 76 
Q 1716 -91 1338 -91 
Q 878 -91 622 161 
Q 366 413 366 863 
Q 366 956 381 1097 
Q 397 1238 428 1388 
z
" transform="scale(0.015625)"/>
     </defs>
     <use xlink:href="#DejaVuSans-Oblique-76" transform="translate(0 0.3125)"/>
     <use xlink:href="#DejaVuSans-Oblique-6f" transform="translate(59.179688 -16.09375) scale(0.7)"/>
     <use xlink:href="#DejaVuSans-Oblique-75" transform="translate(102.006836 -16.09375) scale(0.7)"/>
     <use xlink:href="#DejaVuSans-Oblique-74" transform="translate(146.37207 -16.09375) scale(0.7)"/>
    </g>
   </g>
  </g>
 </g>
 <defs>
  <clipPath id="padd9c7b535">
   <rect x="0" y="-0" width="391.776" height="157.16"/>
  </clipPath>
 </defs>
</svg>
