<?xml version="1.0" encoding="utf-8" standalone="no"?>
<!DOCTYPE svg PUBLIC "-//W3C//DTD SVG 1.1//EN"
  "http://www.w3.org/Graphics/SVG/1.1/DTD/svg11.dtd">
<svg xmlns:xlink="http://www.w3.org/1999/xlink" width="536.412pt" height="192.8pt" viewBox="0 0 536.412 192.8" xmlns="http://www.w3.org/2000/svg" version="1.1">
 <metadata>
  <rdf:RDF xmlns:dc="http://purl.org/dc/elements/1.1/" xmlns:cc="http://creativecommons.org/ns#" xmlns:rdf="http://www.w3.org/1999/02/22-rdf-syntax-ns#">
   <cc:Work>
    <dc:type rdf:resource="http://purl.org/dc/dcmitype/StillImage"/>
    <dc:date>2025-03-25T23:31:55.962930</dc:date>
    <dc:format>image/svg+xml</dc:format>
    <dc:creator>
     <cc:Agent>
      <dc:title>Matplotlib v3.9.2, https://matplotlib.org/</dc:title>
     </cc:Agent>
    </dc:creator>
   </cc:Work>
  </rdf:RDF>
 </metadata>
 <defs>
  <style type="text/css">*{stroke-linejoin: round; stroke-linecap: butt}</style>
 </defs>
 <g id="figure_1">
  <g id="patch_1">
   <path d="M 0 192.8 
L 536.412 192.8 
L 536.412 0 
L 0 0 
z
" style="fill: #ffffff"/>
  </g>
  <g id="axes_1">
   <g id="patch_2">
    <path d="M 22.68 147.08 
C 27.453656 147.08 32.032438 145.183406 35.407922 141.807922 
C 38.783406 138.432438 40.68 133.853656 40.68 129.08 
C 40.68 124.306344 38.783406 119.727562 35.407922 116.352078 
C 32.032438 112.976594 27.453656 111.08 22.68 111.08 
C 17.906344 111.08 13.327562 112.976594 9.952078 116.352078 
C 6.576594 119.727562 4.68 124.306344 4.68 129.08 
C 4.68 133.853656 6.576594 138.432438 9.952078 141.807922 
C 13.327562 145.183406 17.906344 147.08 22.68 147.08 
L 22.68 147.08 
z
" clip-path="url(#p861de02e58)" style="fill: none; stroke: #000000; stroke-width: 2; stroke-linejoin: miter"/>
   </g>
   <g id="line2d_1">
    <path d="M 22.68 93.08 
L 22.68 111.08 
L 22.68 111.08 
M 22.68 147.08 
L 22.68 147.08 
L 22.68 165.08 
" clip-path="url(#p861de02e58)" style="fill: none; stroke: #000000; stroke-width: 2; stroke-linecap: round"/>
   </g>
   <g id="line2d_2">
    <path d="M 26.28 138.08 
L 19.08 138.08 
" clip-path="url(#p861de02e58)" style="fill: none; stroke: #000000; stroke-width: 2; stroke-linecap: round"/>
   </g>
   <g id="line2d_3">
    <path d="M 22.68 116.48 
L 22.68 123.68 
" clip-path="url(#p861de02e58)" style="fill: none; stroke: #000000; stroke-width: 2; stroke-linecap: round"/>
   </g>
   <g id="line2d_4">
    <path d="M 26.28 120.08 
L 19.08 120.08 
" clip-path="url(#p861de02e58)" style="fill: none; stroke: #000000; stroke-width: 2; stroke-linecap: round"/>
   </g>
   <g id="line2d_5">
    <path d="M 22.68 93.08 
L 58.68 93.08 
L 94.68 93.08 
" clip-path="url(#p861de02e58)" style="fill: none; stroke: #000000; stroke-width: 2; stroke-linecap: round"/>
   </g>
   <g id="line2d_6">
    <path d="M 22.68 165.08 
L 58.68 165.08 
L 94.68 165.08 
" clip-path="url(#p861de02e58)" style="fill: none; stroke: #000000; stroke-width: 2; stroke-linecap: round"/>
   </g>
   <g id="line2d_7">
    <path d="M 94.68 165.08 
L 94.68 179.48 
L 85.68 179.48 
L 103.68 179.48 
M 88.38 183.8 
L 100.98 183.8 
M 92.88 188.12 
L 96.48 188.12 
" clip-path="url(#p861de02e58)" style="fill: none; stroke: #000000; stroke-width: 2; stroke-linecap: round"/>
   </g>
   <g id="line2d_8">
    <path d="M 166.68 93.08 
L 166.68 75.08 
L 148.68 57.08 
L 166.68 39.08 
L 184.68 57.08 
L 166.68 75.08 
M 166.68 39.08 
L 166.68 21.08 
" clip-path="url(#p861de02e58)" style="fill: none; stroke: #000000; stroke-width: 2; stroke-linecap: round"/>
   </g>
   <g id="line2d_9">
    <path d="M 166.68 66.08 
L 166.68 57.08 
" clip-path="url(#p861de02e58)" style="fill: none; stroke: #000000; stroke-width: 2; stroke-linecap: round"/>
   </g>
   <g id="patch_3">
    <path d="M 163.98 57.08 
L 166.68 48.08 
L 169.38 57.08 
z
" clip-path="url(#p861de02e58)"/>
   </g>
   <g id="line2d_10">
    <path d="M 166.68 21.08 
L 220.68 21.08 
L 274.68 21.08 
" clip-path="url(#p861de02e58)" style="fill: none; stroke: #000000; stroke-width: 2; stroke-linecap: round"/>
   </g>
   <g id="line2d_11">
    <path d="M 274.68 21.08 
L 274.68 39.08 
L 283.68 42.08 
L 265.68 48.08 
L 283.68 54.08 
L 265.68 60.08 
L 283.68 66.08 
L 265.68 72.08 
L 274.68 75.08 
L 274.68 93.08 
" clip-path="url(#p861de02e58)" style="fill: none; stroke: #000000; stroke-width: 2; stroke-linecap: round"/>
   </g>
   <g id="line2d_12">
    <path d="M 274.68 93.08 
L 220.68 93.08 
L 166.68 93.08 
" clip-path="url(#p861de02e58)" style="fill: none; stroke: #000000; stroke-width: 2; stroke-linecap: round"/>
   </g>
   <g id="line2d_13">
    <path d="M 166.68 21.08 
L 130.68 21.08 
L 94.68 21.08 
" clip-path="url(#p861de02e58)" style="fill: none; stroke: #000000; stroke-width: 2; stroke-linecap: round"/>
   </g>
   <g id="line2d_14">
    <path d="M 274.68 21.08 
L 328.68 21.08 
L 382.68 21.08 
" clip-path="url(#p861de02e58)" style="fill: none; stroke: #000000; stroke-width: 2; stroke-linecap: round"/>
   </g>
   <g id="line2d_15">
    <path d="M 382.68 21.08 
L 382.68 57.08 
L 382.68 93.08 
" clip-path="url(#p861de02e58)" style="fill: none; stroke: #000000; stroke-width: 2; stroke-linecap: round"/>
   </g>
   <g id="line2d_16">
    <path d="M 382.68 93.08 
L 382.68 111.08 
L 400.68 129.08 
L 382.68 147.08 
L 364.68 129.08 
L 382.68 111.08 
M 382.68 147.08 
L 382.68 165.08 
" clip-path="url(#p861de02e58)" style="fill: none; stroke: #000000; stroke-width: 2; stroke-linecap: round"/>
   </g>
   <g id="line2d_17">
    <path d="M 382.68 120.08 
L 382.68 129.08 
" clip-path="url(#p861de02e58)" style="fill: none; stroke: #000000; stroke-width: 2; stroke-linecap: round"/>
   </g>
   <g id="patch_4">
    <path d="M 385.38 129.08 
L 382.68 138.08 
L 379.98 129.08 
z
" clip-path="url(#p861de02e58)"/>
   </g>
   <g id="line2d_18">
    <path d="M 382.68 165.08 
L 346.68 165.08 
L 310.68 165.08 
" clip-path="url(#p861de02e58)" style="fill: none; stroke: #000000; stroke-width: 2; stroke-linecap: round"/>
   </g>
   <g id="line2d_19">
    <path d="M 274.68 93.08 
L 292.68 93.08 
L 310.68 93.08 
" clip-path="url(#p861de02e58)" style="fill: none; stroke: #000000; stroke-width: 2; stroke-linecap: round"/>
   </g>
   <g id="line2d_20">
    <path d="M 382.68 165.08 
L 382.68 179.48 
L 373.68 179.48 
L 391.68 179.48 
M 376.38 183.8 
L 388.98 183.8 
M 380.88 188.12 
L 384.48 188.12 
" clip-path="url(#p861de02e58)" style="fill: none; stroke: #000000; stroke-width: 2; stroke-linecap: round"/>
   </g>
   <g id="line2d_21">
    <path d="M 382.68 93.08 
L 436.68 93.08 
L 490.68 93.08 
" clip-path="url(#p861de02e58)" style="fill: none; stroke: #000000; stroke-width: 2; stroke-linecap: round"/>
   </g>
   <g id="line2d_22">
    <path d="M 490.68 93.08 
L 490.68 111.08 
L 499.68 114.08 
L 481.68 120.08 
L 499.68 126.08 
L 481.68 132.08 
L 499.68 138.08 
L 481.68 144.08 
L 490.68 147.08 
L 490.68 165.08 
" clip-path="url(#p861de02e58)" style="fill: none; stroke: #000000; stroke-width: 2; stroke-linecap: round"/>
   </g>
   <g id="line2d_23">
    <path d="M 490.68 165.08 
L 436.68 165.08 
L 382.68 165.08 
" clip-path="url(#p861de02e58)" style="fill: none; stroke: #000000; stroke-width: 2; stroke-linecap: round"/>
   </g>
   <g id="line2d_24">
    <path d="M 382.68 21.08 
L 436.68 21.08 
L 490.68 21.08 
" clip-path="url(#p861de02e58)" style="fill: none; stroke: #000000; stroke-width: 2; stroke-linecap: round"/>
   </g>
   <g id="text_1">
    <!-- $v_{in}$ -->
    <g transform="translate(44.28 133.495) scale(0.16 -0.16)">
     <defs>
      <path id="DejaVuSans-Oblique-76" d="M 459 3500 
L 1069 3500 
L 1581 525 
L 3256 3500 
L 3866 3500 
L 1875 0 
L 1100 0 
L 459 3500 
z
" transform="scale(0.015625)"/>
      <path id="DejaVuSans-Oblique-69" d="M 1172 4863 
L 1747 4863 
L 1606 4134 
L 1031 4134 
L 1172 4863 
z
M 909 3500 
L 1484 3500 
L 800 0 
L 225 0 
L 909 3500 
z
" transform="scale(0.015625)"/>
      <path id="DejaVuSans-Oblique-6e" d="M 3566 2113 
L 3156 0 
L 2578 0 
L 2988 2091 
Q 3016 2238 3031 2350 
Q 3047 2463 3047 2528 
Q 3047 2791 2881 2937 
Q 2716 3084 2419 3084 
Q 1956 3084 1622 2776 
Q 1288 2469 1184 1941 
L 800 0 
L 225 0 
L 903 3500 
L 1478 3500 
L 1363 2950 
Q 1603 3253 1940 3418 
Q 2278 3584 2650 3584 
Q 3113 3584 3367 3334 
Q 3622 3084 3622 2631 
Q 3622 2519 3608 2391 
Q 3594 2263 3566 2113 
z
" transform="scale(0.015625)"/>
     </defs>
     <use xlink:href="#DejaVuSans-Oblique-76" transform="translate(0 0.3125)"/>
     <use xlink:href="#DejaVuSans-Oblique-69" transform="translate(59.179688 -16.09375) scale(0.7)"/>
     <use xlink:href="#DejaVuSans-Oblique-6e" transform="translate(78.62793 -16.09375) scale(0.7)"/>
    </g>
   </g>
   <g id="text_2">
    <!-- $g_{m1} \cdot v_{1}$ -->
    <g transform="translate(188.28 61.4625) scale(0.16 -0.16)">
     <defs>
      <path id="DejaVuSans-Oblique-67" d="M 3816 3500 
L 3219 434 
Q 3047 -456 2561 -893 
Q 2075 -1331 1253 -1331 
Q 950 -1331 690 -1286 
Q 431 -1241 206 -1147 
L 313 -588 
Q 525 -725 762 -790 
Q 1000 -856 1269 -856 
Q 1816 -856 2167 -557 
Q 2519 -259 2631 300 
L 2681 563 
Q 2441 288 2122 144 
Q 1803 0 1434 0 
Q 903 0 598 351 
Q 294 703 294 1319 
Q 294 1803 478 2267 
Q 663 2731 997 3091 
Q 1219 3328 1514 3456 
Q 1809 3584 2131 3584 
Q 2484 3584 2746 3420 
Q 3009 3256 3138 2956 
L 3238 3500 
L 3816 3500 
z
M 2950 2216 
Q 2950 2641 2750 2872 
Q 2550 3103 2181 3103 
Q 1953 3103 1747 3012 
Q 1541 2922 1394 2759 
Q 1156 2491 1023 2127 
Q 891 1763 891 1375 
Q 891 944 1092 712 
Q 1294 481 1672 481 
Q 2219 481 2584 976 
Q 2950 1472 2950 2216 
z
" transform="scale(0.015625)"/>
      <path id="DejaVuSans-Oblique-6d" d="M 5747 2113 
L 5338 0 
L 4763 0 
L 5166 2094 
Q 5191 2228 5203 2325 
Q 5216 2422 5216 2491 
Q 5216 2772 5059 2928 
Q 4903 3084 4622 3084 
Q 4203 3084 3875 2770 
Q 3547 2456 3450 1953 
L 3066 0 
L 2491 0 
L 2900 2094 
Q 2925 2209 2937 2307 
Q 2950 2406 2950 2484 
Q 2950 2769 2794 2926 
Q 2638 3084 2363 3084 
Q 1938 3084 1609 2770 
Q 1281 2456 1184 1953 
L 800 0 
L 225 0 
L 909 3500 
L 1484 3500 
L 1375 2956 
Q 1609 3263 1923 3423 
Q 2238 3584 2597 3584 
Q 2978 3584 3223 3384 
Q 3469 3184 3519 2828 
Q 3781 3197 4126 3390 
Q 4472 3584 4856 3584 
Q 5306 3584 5551 3325 
Q 5797 3066 5797 2591 
Q 5797 2488 5784 2364 
Q 5772 2241 5747 2113 
z
" transform="scale(0.015625)"/>
      <path id="DejaVuSans-31" d="M 794 531 
L 1825 531 
L 1825 4091 
L 703 3866 
L 703 4441 
L 1819 4666 
L 2450 4666 
L 2450 531 
L 3481 531 
L 3481 0 
L 794 0 
L 794 531 
z
" transform="scale(0.015625)"/>
      <path id="DejaVuSans-22c5" d="M 684 2619 
L 1344 2619 
L 1344 1825 
L 684 1825 
L 684 2619 
z
" transform="scale(0.015625)"/>
     </defs>
     <use xlink:href="#DejaVuSans-Oblique-67"/>
     <use xlink:href="#DejaVuSans-Oblique-6d" transform="translate(63.476562 -16.40625) scale(0.7)"/>
     <use xlink:href="#DejaVuSans-31" transform="translate(131.665039 -16.40625) scale(0.7)"/>
     <use xlink:href="#DejaVuSans-22c5" transform="translate(198.417969 0)"/>
     <use xlink:href="#DejaVuSans-Oblique-76" transform="translate(249.6875 0)"/>
     <use xlink:href="#DejaVuSans-31" transform="translate(308.867188 -16.40625) scale(0.7)"/>
    </g>
   </g>
   <g id="text_3">
    <!-- $(v_x)$ -->
    <g style="fill: #0000ff" transform="translate(206.12 14.1525) scale(0.16 -0.16)">
     <defs>
      <path id="DejaVuSans-28" d="M 1984 4856 
Q 1566 4138 1362 3434 
Q 1159 2731 1159 2009 
Q 1159 1288 1364 580 
Q 1569 -128 1984 -844 
L 1484 -844 
Q 1016 -109 783 600 
Q 550 1309 550 2009 
Q 550 2706 781 3412 
Q 1013 4119 1484 4856 
L 1984 4856 
z
" transform="scale(0.015625)"/>
      <path id="DejaVuSans-Oblique-78" d="M 3841 3500 
L 2234 1784 
L 3219 0 
L 2559 0 
L 1819 1388 
L 531 0 
L -166 0 
L 1556 1844 
L 641 3500 
L 1300 3500 
L 1972 2234 
L 3144 3500 
L 3841 3500 
z
" transform="scale(0.015625)"/>
      <path id="DejaVuSans-29" d="M 513 4856 
L 1013 4856 
Q 1481 4119 1714 3412 
Q 1947 2706 1947 2009 
Q 1947 1309 1714 600 
Q 1481 -109 1013 -844 
L 513 -844 
Q 928 -128 1133 580 
Q 1338 1288 1338 2009 
Q 1338 2731 1133 3434 
Q 928 4138 513 4856 
z
" transform="scale(0.015625)"/>
     </defs>
     <use xlink:href="#DejaVuSans-28" transform="translate(0 0.125)"/>
     <use xlink:href="#DejaVuSans-Oblique-76" transform="translate(39.013672 0.125)"/>
     <use xlink:href="#DejaVuSans-Oblique-78" transform="translate(98.193359 -16.28125) scale(0.7)"/>
     <use xlink:href="#DejaVuSans-29" transform="translate(142.353516 0.125)"/>
    </g>
   </g>
   <g id="text_4">
    <!-- $r_{o1}$ -->
    <g transform="translate(287.28 61.495) scale(0.16 -0.16)">
     <defs>
      <path id="DejaVuSans-Oblique-72" d="M 2853 2969 
Q 2766 3016 2653 3041 
Q 2541 3066 2413 3066 
Q 1953 3066 1609 2717 
Q 1266 2369 1153 1784 
L 800 0 
L 225 0 
L 909 3500 
L 1484 3500 
L 1375 2956 
Q 1603 3259 1920 3421 
Q 2238 3584 2597 3584 
Q 2691 3584 2781 3573 
Q 2872 3563 2963 3538 
L 2853 2969 
z
" transform="scale(0.015625)"/>
      <path id="DejaVuSans-Oblique-6f" d="M 1625 -91 
Q 1009 -91 651 289 
Q 294 669 294 1325 
Q 294 1706 417 2101 
Q 541 2497 738 2766 
Q 1047 3184 1428 3384 
Q 1809 3584 2291 3584 
Q 2888 3584 3255 3212 
Q 3622 2841 3622 2241 
Q 3622 1825 3500 1412 
Q 3378 1000 3181 728 
Q 2875 309 2494 109 
Q 2113 -91 1625 -91 
z
M 891 1344 
Q 891 869 1089 633 
Q 1288 397 1691 397 
Q 2269 397 2648 901 
Q 3028 1406 3028 2181 
Q 3028 2634 2825 2865 
Q 2622 3097 2228 3097 
Q 1903 3097 1650 2945 
Q 1397 2794 1197 2484 
Q 1050 2253 970 1956 
Q 891 1659 891 1344 
z
" transform="scale(0.015625)"/>
     </defs>
     <use xlink:href="#DejaVuSans-Oblique-72"/>
     <use xlink:href="#DejaVuSans-Oblique-6f" transform="translate(41.113281 -16.40625) scale(0.7)"/>
     <use xlink:href="#DejaVuSans-31" transform="translate(83.94043 -16.40625) scale(0.7)"/>
    </g>
   </g>
   <g id="text_5">
    <!-- $(v_y)$ -->
    <g style="fill: #0000ff" transform="translate(206.12 108.84) scale(0.16 -0.16)">
     <defs>
      <path id="DejaVuSans-Oblique-79" d="M 1588 -325 
Q 1188 -997 936 -1164 
Q 684 -1331 294 -1331 
L -159 -1331 
L -63 -850 
L 269 -850 
Q 509 -850 678 -719 
Q 847 -588 1056 -206 
L 1234 128 
L 459 3500 
L 1069 3500 
L 1650 819 
L 3256 3500 
L 3859 3500 
L 1588 -325 
z
" transform="scale(0.015625)"/>
     </defs>
     <use xlink:href="#DejaVuSans-28" transform="translate(0 0.125)"/>
     <use xlink:href="#DejaVuSans-Oblique-76" transform="translate(39.013672 0.125)"/>
     <use xlink:href="#DejaVuSans-Oblique-79" transform="translate(98.193359 -16.28125) scale(0.7)"/>
     <use xlink:href="#DejaVuSans-29" transform="translate(142.353516 0.125)"/>
    </g>
   </g>
   <g id="text_6">
    <!-- $-$ -->
    <g transform="translate(87.96 43.495) scale(0.16 -0.16)">
     <defs>
      <path id="DejaVuSans-2212" d="M 678 2272 
L 4684 2272 
L 4684 1741 
L 678 1741 
L 678 2272 
z
" transform="scale(0.015625)"/>
     </defs>
     <use xlink:href="#DejaVuSans-2212" transform="translate(0 0.5)"/>
    </g>
   </g>
   <g id="text_7">
    <!-- $v_1$ -->
    <g transform="translate(86.12 61.495) scale(0.16 -0.16)">
     <use xlink:href="#DejaVuSans-Oblique-76" transform="translate(0 0.3125)"/>
     <use xlink:href="#DejaVuSans-31" transform="translate(59.179688 -16.09375) scale(0.7)"/>
    </g>
   </g>
   <g id="text_8">
    <!-- $+$ -->
    <g transform="translate(87.96 79.495) scale(0.16 -0.16)">
     <defs>
      <path id="DejaVuSans-2b" d="M 2944 4013 
L 2944 2272 
L 4684 2272 
L 4684 1741 
L 2944 1741 
L 2944 0 
L 2419 0 
L 2419 1741 
L 678 1741 
L 678 2272 
L 2419 2272 
L 2419 4013 
L 2944 4013 
z
" transform="scale(0.015625)"/>
     </defs>
     <use xlink:href="#DejaVuSans-2b" transform="translate(0 0.296875)"/>
    </g>
   </g>
   <g id="patch_5">
    <path d="M 382.68 23.78 
C 383.396048 23.78 384.082866 23.495511 384.589188 22.989188 
C 385.095511 22.482866 385.38 21.796048 385.38 21.08 
C 385.38 20.363952 385.095511 19.677134 384.589188 19.170812 
C 384.082866 18.664489 383.396048 18.38 382.68 18.38 
C 381.963952 18.38 381.277134 18.664489 380.770812 19.170812 
C 380.264489 19.677134 379.98 20.363952 379.98 21.08 
C 379.98 21.796048 380.264489 22.482866 380.770812 22.989188 
C 381.277134 23.495511 381.963952 23.78 382.68 23.78 
z
" clip-path="url(#p861de02e58)" style="stroke: #000000; stroke-width: 2; stroke-linejoin: miter"/>
   </g>
   <g id="patch_6">
    <path d="M 382.68 167.78 
C 383.396048 167.78 384.082866 167.495511 384.589188 166.989188 
C 385.095511 166.482866 385.38 165.796048 385.38 165.08 
C 385.38 164.363952 385.095511 163.677134 384.589188 163.170812 
C 384.082866 162.664489 383.396048 162.38 382.68 162.38 
C 381.963952 162.38 381.277134 162.664489 380.770812 163.170812 
C 380.264489 163.677134 379.98 164.363952 379.98 165.08 
C 379.98 165.796048 380.264489 166.482866 380.770812 166.989188 
C 381.277134 167.495511 381.963952 167.78 382.68 167.78 
z
" clip-path="url(#p861de02e58)" style="stroke: #000000; stroke-width: 2; stroke-linejoin: miter"/>
   </g>
   <g id="text_9">
    <!-- $g_{m2} \cdot v_{2}$ -->
    <g transform="translate(404.28 134.8125) scale(0.16 -0.16)">
     <defs>
      <path id="DejaVuSans-32" d="M 1228 531 
L 3431 531 
L 3431 0 
L 469 0 
L 469 531 
Q 828 903 1448 1529 
Q 2069 2156 2228 2338 
Q 2531 2678 2651 2914 
Q 2772 3150 2772 3378 
Q 2772 3750 2511 3984 
Q 2250 4219 1831 4219 
Q 1534 4219 1204 4116 
Q 875 4013 500 3803 
L 500 4441 
Q 881 4594 1212 4672 
Q 1544 4750 1819 4750 
Q 2544 4750 2975 4387 
Q 3406 4025 3406 3419 
Q 3406 3131 3298 2873 
Q 3191 2616 2906 2266 
Q 2828 2175 2409 1742 
Q 1991 1309 1228 531 
z
" transform="scale(0.015625)"/>
     </defs>
     <use xlink:href="#DejaVuSans-Oblique-67"/>
     <use xlink:href="#DejaVuSans-Oblique-6d" transform="translate(63.476562 -16.40625) scale(0.7)"/>
     <use xlink:href="#DejaVuSans-32" transform="translate(131.665039 -16.40625) scale(0.7)"/>
     <use xlink:href="#DejaVuSans-22c5" transform="translate(198.417969 0)"/>
     <use xlink:href="#DejaVuSans-Oblique-76" transform="translate(249.6875 0)"/>
     <use xlink:href="#DejaVuSans-32" transform="translate(308.867188 -16.40625) scale(0.7)"/>
    </g>
   </g>
   <g id="text_10">
    <!-- $-$ -->
    <g transform="translate(303.96 151.495) scale(0.16 -0.16)">
     <use xlink:href="#DejaVuSans-2212" transform="translate(0 0.5)"/>
    </g>
   </g>
   <g id="text_11">
    <!-- $v_2$ -->
    <g transform="translate(302.12 133.495) scale(0.16 -0.16)">
     <use xlink:href="#DejaVuSans-Oblique-76" transform="translate(0 0.3125)"/>
     <use xlink:href="#DejaVuSans-32" transform="translate(59.179688 -16.09375) scale(0.7)"/>
    </g>
   </g>
   <g id="text_12">
    <!-- $+$ -->
    <g transform="translate(303.96 115.495) scale(0.16 -0.16)">
     <use xlink:href="#DejaVuSans-2b" transform="translate(0 0.296875)"/>
    </g>
   </g>
   <g id="text_13">
    <!-- $r_{o2}$ -->
    <g transform="translate(503.28 133.495) scale(0.16 -0.16)">
     <use xlink:href="#DejaVuSans-Oblique-72"/>
     <use xlink:href="#DejaVuSans-Oblique-6f" transform="translate(41.113281 -16.40625) scale(0.7)"/>
     <use xlink:href="#DejaVuSans-32" transform="translate(83.94043 -16.40625) scale(0.7)"/>
    </g>
   </g>
   <g id="patch_7">
    <path d="M 490.68 23.78 
C 491.396048 23.78 492.082866 23.495511 492.589188 22.989188 
C 493.095511 22.482866 493.38 21.796048 493.38 21.08 
C 493.38 20.363952 493.095511 19.677134 492.589188 19.170812 
C 492.082866 18.664489 491.396048 18.38 490.68 18.38 
C 489.963952 18.38 489.277134 18.664489 488.770812 19.170812 
C 488.264489 19.677134 487.98 20.363952 487.98 21.08 
C 487.98 21.796048 488.264489 22.482866 488.770812 22.989188 
C 489.277134 23.495511 489.963952 23.78 490.68 23.78 
z
" clip-path="url(#p861de02e58)" style="fill: #ffffff; stroke: #000000; stroke-width: 2; stroke-linejoin: miter"/>
   </g>
   <g id="text_14">
    <!-- $v_{out}$ -->
    <g transform="translate(496.98 25.495) scale(0.16 -0.16)">
     <defs>
      <path id="DejaVuSans-Oblique-75" d="M 428 1388 
L 838 3500 
L 1416 3500 
L 1006 1409 
Q 975 1256 961 1147 
Q 947 1038 947 966 
Q 947 700 1109 554 
Q 1272 409 1569 409 
Q 2031 409 2368 721 
Q 2706 1034 2809 1563 
L 3194 3500 
L 3769 3500 
L 3091 0 
L 2516 0 
L 2631 550 
Q 2388 244 2052 76 
Q 1716 -91 1338 -91 
Q 878 -91 622 161 
Q 366 413 366 863 
Q 366 956 381 1097 
Q 397 1238 428 1388 
z
" transform="scale(0.015625)"/>
      <path id="DejaVuSans-Oblique-74" d="M 2706 3500 
L 2619 3053 
L 1472 3053 
L 1100 1153 
Q 1081 1047 1072 975 
Q 1063 903 1063 863 
Q 1063 663 1183 572 
Q 1303 481 1569 481 
L 2150 481 
L 2053 0 
L 1503 0 
Q 991 0 739 200 
Q 488 400 488 806 
Q 488 878 497 964 
Q 506 1050 525 1153 
L 897 3053 
L 409 3053 
L 500 3500 
L 978 3500 
L 1172 4494 
L 1747 4494 
L 1556 3500 
L 2706 3500 
z
" transform="scale(0.015625)"/>
     </defs>
     <use xlink:href="#DejaVuSans-Oblique-76" transform="translate(0 0.3125)"/>
     <use xlink:href="#DejaVuSans-Oblique-6f" transform="translate(59.179688 -16.09375) scale(0.7)"/>
     <use xlink:href="#DejaVuSans-Oblique-75" transform="translate(102.006836 -16.09375) scale(0.7)"/>
     <use xlink:href="#DejaVuSans-Oblique-74" transform="translate(146.37207 -16.09375) scale(0.7)"/>
    </g>
   </g>
   <g id="patch_8">
    <path d="M 382.68 95.78 
C 383.396048 95.78 384.082866 95.495511 384.589188 94.989188 
C 385.095511 94.482866 385.38 93.796048 385.38 93.08 
C 385.38 92.363952 385.095511 91.677134 384.589188 91.170812 
C 384.082866 90.664489 383.396048 90.38 382.68 90.38 
C 381.963952 90.38 381.277134 90.664489 380.770812 91.170812 
C 380.264489 91.677134 379.98 92.363952 379.98 93.08 
C 379.98 93.796048 380.264489 94.482866 380.770812 94.989188 
C 381.277134 95.495511 381.963952 95.78 382.68 95.78 
z
" clip-path="url(#p861de02e58)" style="stroke: #000000; stroke-width: 2; stroke-linejoin: miter"/>
   </g>
   <g id="patch_9">
    <path d="M 166.68 23.78 
C 167.396048 23.78 168.082866 23.495511 168.589188 22.989188 
C 169.095511 22.482866 169.38 21.796048 169.38 21.08 
C 169.38 20.363952 169.095511 19.677134 168.589188 19.170812 
C 168.082866 18.664489 167.396048 18.38 166.68 18.38 
C 165.963952 18.38 165.277134 18.664489 164.770812 19.170812 
C 164.264489 19.677134 163.98 20.363952 163.98 21.08 
C 163.98 21.796048 164.264489 22.482866 164.770812 22.989188 
C 165.277134 23.495511 165.963952 23.78 166.68 23.78 
z
" clip-path="url(#p861de02e58)" style="stroke: #000000; stroke-width: 2; stroke-linejoin: miter"/>
   </g>
   <g id="patch_10">
    <path d="M 274.68 23.78 
C 275.396048 23.78 276.082866 23.495511 276.589188 22.989188 
C 277.095511 22.482866 277.38 21.796048 277.38 21.08 
C 277.38 20.363952 277.095511 19.677134 276.589188 19.170812 
C 276.082866 18.664489 275.396048 18.38 274.68 18.38 
C 273.963952 18.38 273.277134 18.664489 272.770812 19.170812 
C 272.264489 19.677134 271.98 20.363952 271.98 21.08 
C 271.98 21.796048 272.264489 22.482866 272.770812 22.989188 
C 273.277134 23.495511 273.963952 23.78 274.68 23.78 
z
" clip-path="url(#p861de02e58)" style="stroke: #000000; stroke-width: 2; stroke-linejoin: miter"/>
   </g>
   <g id="patch_11">
    <path d="M 274.68 95.78 
C 275.396048 95.78 276.082866 95.495511 276.589188 94.989188 
C 277.095511 94.482866 277.38 93.796048 277.38 93.08 
C 277.38 92.363952 277.095511 91.677134 276.589188 91.170812 
C 276.082866 90.664489 275.396048 90.38 274.68 90.38 
C 273.963952 90.38 273.277134 90.664489 272.770812 91.170812 
C 272.264489 91.677134 271.98 92.363952 271.98 93.08 
C 271.98 93.796048 272.264489 94.482866 272.770812 94.989188 
C 273.277134 95.495511 273.963952 95.78 274.68 95.78 
z
" clip-path="url(#p861de02e58)" style="stroke: #000000; stroke-width: 2; stroke-linejoin: miter"/>
   </g>
  </g>
 </g>
 <defs>
  <clipPath id="p861de02e58">
   <rect x="0" y="-0" width="536.412" height="192.8"/>
  </clipPath>
 </defs>
</svg>
