<?xml version="1.0" encoding="utf-8" standalone="no"?>
<!DOCTYPE svg PUBLIC "-//W3C//DTD SVG 1.1//EN"
  "http://www.w3.org/Graphics/SVG/1.1/DTD/svg11.dtd">
<svg xmlns:xlink="http://www.w3.org/1999/xlink" width="515.808pt" height="248.4pt" viewBox="0 0 515.808 248.4" xmlns="http://www.w3.org/2000/svg" version="1.1">
 <metadata>
  <rdf:RDF xmlns:dc="http://purl.org/dc/elements/1.1/" xmlns:cc="http://creativecommons.org/ns#" xmlns:rdf="http://www.w3.org/1999/02/22-rdf-syntax-ns#">
   <cc:Work>
    <dc:type rdf:resource="http://purl.org/dc/dcmitype/StillImage"/>
    <dc:date>2025-03-25T23:31:55.402434</dc:date>
    <dc:format>image/svg+xml</dc:format>
    <dc:creator>
     <cc:Agent>
      <dc:title>Matplotlib v3.9.2, https://matplotlib.org/</dc:title>
     </cc:Agent>
    </dc:creator>
   </cc:Work>
  </rdf:RDF>
 </metadata>
 <defs>
  <style type="text/css">*{stroke-linejoin: round; stroke-linecap: butt}</style>
 </defs>
 <g id="figure_1">
  <g id="patch_1">
   <path d="M 0 248.4 
L 515.808 248.4 
L 515.808 0 
L 0 0 
z
" style="fill: #ffffff"/>
  </g>
  <g id="axes_1">
   <g id="patch_2">
    <path d="M 279.768 202.68 
C 284.541656 202.68 289.120438 200.783406 292.495922 197.407922 
C 295.871406 194.032438 297.768 189.453656 297.768 184.68 
C 297.768 179.906344 295.871406 175.327562 292.495922 171.952078 
C 289.120438 168.576594 284.541656 166.68 279.768 166.68 
C 274.994344 166.68 270.415562 168.576594 267.040078 171.952078 
C 263.664594 175.327562 261.768 179.906344 261.768 184.68 
C 261.768 189.453656 263.664594 194.032438 267.040078 197.407922 
C 270.415562 200.783406 274.994344 202.68 279.768 202.68 
L 279.768 202.68 
z
" clip-path="url(#pb16ae54449)" style="fill: none; stroke: #000000; stroke-width: 2; stroke-linejoin: miter"/>
   </g>
   <g id="line2d_1">
    <path d="M 27.768 112.68 
L 63.768 112.68 
L 99.768 112.68 
" clip-path="url(#pb16ae54449)" style="fill: none; stroke: #000000; stroke-width: 2; stroke-linecap: round"/>
   </g>
   <g id="line2d_2">
    <path d="M 99.768 184.68 
L 63.768 184.68 
L 27.768 184.68 
" clip-path="url(#pb16ae54449)" style="fill: none; stroke: #000000; stroke-width: 2; stroke-linecap: round"/>
   </g>
   <g id="line2d_3">
    <path d="M 27.768 184.68 
L 27.768 199.08 
L 18.768 199.08 
L 36.768 199.08 
M 21.468 203.4 
L 34.068 203.4 
M 25.968 207.72 
L 29.568 207.72 
" clip-path="url(#pb16ae54449)" style="fill: none; stroke: #000000; stroke-width: 2; stroke-linecap: round"/>
   </g>
   <g id="line2d_4">
    <path d="M 27.768 112.68 
L 27.768 94.68 
L 27.768 76.68 
" clip-path="url(#pb16ae54449)" style="fill: none; stroke: #000000; stroke-width: 2; stroke-linecap: round"/>
   </g>
   <g id="line2d_5">
    <path d="M 27.768 76.68 
L 207.768 76.68 
L 387.768 76.68 
" clip-path="url(#pb16ae54449)" style="fill: none; stroke: #000000; stroke-width: 2; stroke-linecap: round"/>
   </g>
   <g id="line2d_6">
    <path d="M 387.768 76.68 
L 387.768 40.68 
L 387.768 4.68 
" clip-path="url(#pb16ae54449)" style="fill: none; stroke: #000000; stroke-width: 2; stroke-linecap: round"/>
   </g>
   <g id="line2d_7">
    <path d="M 387.768 76.68 
L 387.768 94.68 
M 387.768 130.68 
L 369.768 112.68 
L 387.768 94.68 
L 405.768 112.68 
L 387.768 130.68 
L 387.768 148.68 
" clip-path="url(#pb16ae54449)" style="fill: none; stroke: #000000; stroke-width: 2; stroke-linecap: round"/>
   </g>
   <g id="line2d_8">
    <path d="M 387.768 112.68 
L 387.768 121.68 
" clip-path="url(#pb16ae54449)" style="fill: none; stroke: #000000; stroke-width: 2; stroke-linecap: round"/>
   </g>
   <g id="patch_3">
    <path d="M 385.068 112.68 
L 387.768 103.68 
L 390.468 112.68 
z
" clip-path="url(#pb16ae54449)"/>
   </g>
   <g id="line2d_9">
    <path d="M 315.768 148.68 
L 297.768 148.68 
L 279.768 148.68 
" clip-path="url(#pb16ae54449)" style="fill: none; stroke: #000000; stroke-width: 2; stroke-linecap: round"/>
   </g>
   <g id="line2d_10">
    <path d="M 279.768 148.68 
L 279.768 166.68 
L 279.768 166.68 
M 279.768 202.68 
L 279.768 202.68 
L 279.768 220.68 
" clip-path="url(#pb16ae54449)" style="fill: none; stroke: #000000; stroke-width: 2; stroke-linecap: round"/>
   </g>
   <g id="line2d_11">
    <path d="M 283.368 193.68 
L 276.168 193.68 
" clip-path="url(#pb16ae54449)" style="fill: none; stroke: #000000; stroke-width: 2; stroke-linecap: round"/>
   </g>
   <g id="line2d_12">
    <path d="M 279.768 172.08 
L 279.768 179.28 
" clip-path="url(#pb16ae54449)" style="fill: none; stroke: #000000; stroke-width: 2; stroke-linecap: round"/>
   </g>
   <g id="line2d_13">
    <path d="M 283.368 175.68 
L 276.168 175.68 
" clip-path="url(#pb16ae54449)" style="fill: none; stroke: #000000; stroke-width: 2; stroke-linecap: round"/>
   </g>
   <g id="line2d_14">
    <path d="M 279.768 220.68 
L 279.768 235.08 
L 270.768 235.08 
L 288.768 235.08 
M 273.468 239.4 
L 286.068 239.4 
M 277.968 243.72 
L 281.568 243.72 
" clip-path="url(#pb16ae54449)" style="fill: none; stroke: #000000; stroke-width: 2; stroke-linecap: round"/>
   </g>
   <g id="line2d_15">
    <path d="M 207.768 220.68 
L 207.768 235.08 
L 198.768 235.08 
L 216.768 235.08 
M 201.468 239.4 
L 214.068 239.4 
M 205.968 243.72 
L 209.568 243.72 
" clip-path="url(#pb16ae54449)" style="fill: none; stroke: #000000; stroke-width: 2; stroke-linecap: round"/>
   </g>
   <g id="line2d_16">
    <path d="M 207.768 220.68 
L 207.768 202.68 
L 189.768 184.68 
L 207.768 166.68 
L 225.768 184.68 
L 207.768 202.68 
M 207.768 166.68 
L 207.768 148.68 
" clip-path="url(#pb16ae54449)" style="fill: none; stroke: #000000; stroke-width: 2; stroke-linecap: round"/>
   </g>
   <g id="line2d_17">
    <path d="M 211.368 193.68 
L 204.168 193.68 
" clip-path="url(#pb16ae54449)" style="fill: none; stroke: #000000; stroke-width: 2; stroke-linecap: round"/>
   </g>
   <g id="line2d_18">
    <path d="M 207.768 179.28 
L 207.768 172.08 
" clip-path="url(#pb16ae54449)" style="fill: none; stroke: #000000; stroke-width: 2; stroke-linecap: round"/>
   </g>
   <g id="line2d_19">
    <path d="M 211.368 175.68 
L 204.168 175.68 
" clip-path="url(#pb16ae54449)" style="fill: none; stroke: #000000; stroke-width: 2; stroke-linecap: round"/>
   </g>
   <g id="line2d_20">
    <path d="M 207.768 148.68 
L 225.768 148.68 
L 243.768 148.68 
" clip-path="url(#pb16ae54449)" style="fill: none; stroke: #000000; stroke-width: 2; stroke-linecap: round"/>
   </g>
   <g id="line2d_21">
    <path d="M 387.768 148.68 
L 387.768 184.68 
L 387.768 220.68 
" clip-path="url(#pb16ae54449)" style="fill: none; stroke: #000000; stroke-width: 2; stroke-linecap: round"/>
   </g>
   <g id="line2d_22">
    <path d="M 387.768 220.68 
L 387.768 235.08 
L 378.768 235.08 
L 396.768 235.08 
M 381.468 239.4 
L 394.068 239.4 
M 385.968 243.72 
L 389.568 243.72 
" clip-path="url(#pb16ae54449)" style="fill: none; stroke: #000000; stroke-width: 2; stroke-linecap: round"/>
   </g>
   <g id="text_1">
    <!-- $-$ -->
    <g transform="translate(93.048 135.095) scale(0.16 -0.16)">
     <defs>
      <path id="DejaVuSans-2212" d="M 678 2272 
L 4684 2272 
L 4684 1741 
L 678 1741 
L 678 2272 
z
" transform="scale(0.015625)"/>
     </defs>
     <use xlink:href="#DejaVuSans-2212" transform="translate(0 0.5)"/>
    </g>
   </g>
   <g id="text_2">
    <!-- $v_d$ -->
    <g transform="translate(91.208 153.095) scale(0.16 -0.16)">
     <defs>
      <path id="DejaVuSans-Oblique-76" d="M 459 3500 
L 1069 3500 
L 1581 525 
L 3256 3500 
L 3866 3500 
L 1875 0 
L 1100 0 
L 459 3500 
z
" transform="scale(0.015625)"/>
      <path id="DejaVuSans-Oblique-64" d="M 2675 525 
Q 2444 222 2128 65 
Q 1813 -91 1428 -91 
Q 903 -91 598 267 
Q 294 625 294 1247 
Q 294 1766 478 2236 
Q 663 2706 1013 3078 
Q 1244 3325 1534 3454 
Q 1825 3584 2144 3584 
Q 2481 3584 2739 3421 
Q 2997 3259 3138 2956 
L 3513 4863 
L 4091 4863 
L 3144 0 
L 2566 0 
L 2675 525 
z
M 891 1350 
Q 891 897 1095 644 
Q 1300 391 1663 391 
Q 1931 391 2161 520 
Q 2391 650 2566 903 
Q 2750 1166 2856 1509 
Q 2963 1853 2963 2188 
Q 2963 2622 2758 2865 
Q 2553 3109 2194 3109 
Q 1922 3109 1687 2981 
Q 1453 2853 1288 2613 
Q 1106 2353 998 2009 
Q 891 1666 891 1350 
z
" transform="scale(0.015625)"/>
     </defs>
     <use xlink:href="#DejaVuSans-Oblique-76" transform="translate(0 0.3125)"/>
     <use xlink:href="#DejaVuSans-Oblique-64" transform="translate(59.179688 -16.09375) scale(0.7)"/>
    </g>
   </g>
   <g id="text_3">
    <!-- $+$ -->
    <g transform="translate(93.048 171.095) scale(0.16 -0.16)">
     <defs>
      <path id="DejaVuSans-2b" d="M 2944 4013 
L 2944 2272 
L 4684 2272 
L 4684 1741 
L 2944 1741 
L 2944 0 
L 2419 0 
L 2419 1741 
L 678 1741 
L 678 2272 
L 2419 2272 
L 2419 4013 
L 2944 4013 
z
" transform="scale(0.015625)"/>
     </defs>
     <use xlink:href="#DejaVuSans-2b" transform="translate(0 0.296875)"/>
    </g>
   </g>
   <g id="text_4">
    <!-- $v_{in}=0$ -->
    <g transform="translate(2.728 177.7525) scale(0.16 -0.16)">
     <defs>
      <path id="DejaVuSans-Oblique-69" d="M 1172 4863 
L 1747 4863 
L 1606 4134 
L 1031 4134 
L 1172 4863 
z
M 909 3500 
L 1484 3500 
L 800 0 
L 225 0 
L 909 3500 
z
" transform="scale(0.015625)"/>
      <path id="DejaVuSans-Oblique-6e" d="M 3566 2113 
L 3156 0 
L 2578 0 
L 2988 2091 
Q 3016 2238 3031 2350 
Q 3047 2463 3047 2528 
Q 3047 2791 2881 2937 
Q 2716 3084 2419 3084 
Q 1956 3084 1622 2776 
Q 1288 2469 1184 1941 
L 800 0 
L 225 0 
L 903 3500 
L 1478 3500 
L 1363 2950 
Q 1603 3253 1940 3418 
Q 2278 3584 2650 3584 
Q 3113 3584 3367 3334 
Q 3622 3084 3622 2631 
Q 3622 2519 3608 2391 
Q 3594 2263 3566 2113 
z
" transform="scale(0.015625)"/>
      <path id="DejaVuSans-3d" d="M 678 2906 
L 4684 2906 
L 4684 2381 
L 678 2381 
L 678 2906 
z
M 678 1631 
L 4684 1631 
L 4684 1100 
L 678 1100 
L 678 1631 
z
" transform="scale(0.015625)"/>
      <path id="DejaVuSans-30" d="M 2034 4250 
Q 1547 4250 1301 3770 
Q 1056 3291 1056 2328 
Q 1056 1369 1301 889 
Q 1547 409 2034 409 
Q 2525 409 2770 889 
Q 3016 1369 3016 2328 
Q 3016 3291 2770 3770 
Q 2525 4250 2034 4250 
z
M 2034 4750 
Q 2819 4750 3233 4129 
Q 3647 3509 3647 2328 
Q 3647 1150 3233 529 
Q 2819 -91 2034 -91 
Q 1250 -91 836 529 
Q 422 1150 422 2328 
Q 422 3509 836 4129 
Q 1250 4750 2034 4750 
z
" transform="scale(0.015625)"/>
     </defs>
     <use xlink:href="#DejaVuSans-Oblique-76" transform="translate(0 0.78125)"/>
     <use xlink:href="#DejaVuSans-Oblique-69" transform="translate(59.179688 -15.625) scale(0.7)"/>
     <use xlink:href="#DejaVuSans-Oblique-6e" transform="translate(78.62793 -15.625) scale(0.7)"/>
     <use xlink:href="#DejaVuSans-3d" transform="translate(145.209961 0.78125)"/>
     <use xlink:href="#DejaVuSans-30" transform="translate(248.481445 0.78125)"/>
    </g>
   </g>
   <g id="text_5">
    <!-- $-v_d$ -->
    <g transform="translate(192.488 69.7525) scale(0.16 -0.16)">
     <use xlink:href="#DejaVuSans-2212" transform="translate(0 0.3125)"/>
     <use xlink:href="#DejaVuSans-Oblique-76" transform="translate(83.789062 0.3125)"/>
     <use xlink:href="#DejaVuSans-Oblique-64" transform="translate(142.96875 -16.09375) scale(0.7)"/>
    </g>
   </g>
   <g id="text_6">
    <!-- $floating$ -->
    <g transform="translate(323.368 45.08) scale(0.16 -0.16)">
     <defs>
      <path id="DejaVuSans-Oblique-66" d="M 3059 4863 
L 2969 4384 
L 2419 4384 
Q 2106 4384 1964 4261 
Q 1822 4138 1753 3809 
L 1691 3500 
L 2638 3500 
L 2553 3053 
L 1606 3053 
L 1013 0 
L 434 0 
L 1031 3053 
L 481 3053 
L 563 3500 
L 1113 3500 
L 1159 3744 
Q 1278 4363 1576 4613 
Q 1875 4863 2516 4863 
L 3059 4863 
z
" transform="scale(0.015625)"/>
      <path id="DejaVuSans-Oblique-6c" d="M 1172 4863 
L 1747 4863 
L 800 0 
L 225 0 
L 1172 4863 
z
" transform="scale(0.015625)"/>
      <path id="DejaVuSans-Oblique-6f" d="M 1625 -91 
Q 1009 -91 651 289 
Q 294 669 294 1325 
Q 294 1706 417 2101 
Q 541 2497 738 2766 
Q 1047 3184 1428 3384 
Q 1809 3584 2291 3584 
Q 2888 3584 3255 3212 
Q 3622 2841 3622 2241 
Q 3622 1825 3500 1412 
Q 3378 1000 3181 728 
Q 2875 309 2494 109 
Q 2113 -91 1625 -91 
z
M 891 1344 
Q 891 869 1089 633 
Q 1288 397 1691 397 
Q 2269 397 2648 901 
Q 3028 1406 3028 2181 
Q 3028 2634 2825 2865 
Q 2622 3097 2228 3097 
Q 1903 3097 1650 2945 
Q 1397 2794 1197 2484 
Q 1050 2253 970 1956 
Q 891 1659 891 1344 
z
" transform="scale(0.015625)"/>
      <path id="DejaVuSans-Oblique-61" d="M 3438 1997 
L 3047 0 
L 2472 0 
L 2578 531 
Q 2325 219 2001 64 
Q 1678 -91 1281 -91 
Q 834 -91 548 182 
Q 263 456 263 884 
Q 263 1497 752 1853 
Q 1241 2209 2100 2209 
L 2900 2209 
L 2931 2363 
Q 2938 2388 2941 2417 
Q 2944 2447 2944 2509 
Q 2944 2788 2717 2942 
Q 2491 3097 2081 3097 
Q 1800 3097 1504 3025 
Q 1209 2953 897 2809 
L 997 3341 
Q 1322 3463 1633 3523 
Q 1944 3584 2234 3584 
Q 2853 3584 3176 3315 
Q 3500 3047 3500 2534 
Q 3500 2431 3484 2292 
Q 3469 2153 3438 1997 
z
M 2816 1759 
L 2241 1759 
Q 1534 1759 1195 1570 
Q 856 1381 856 984 
Q 856 709 1029 553 
Q 1203 397 1509 397 
Q 1978 397 2328 733 
Q 2678 1069 2791 1631 
L 2816 1759 
z
" transform="scale(0.015625)"/>
      <path id="DejaVuSans-Oblique-74" d="M 2706 3500 
L 2619 3053 
L 1472 3053 
L 1100 1153 
Q 1081 1047 1072 975 
Q 1063 903 1063 863 
Q 1063 663 1183 572 
Q 1303 481 1569 481 
L 2150 481 
L 2053 0 
L 1503 0 
Q 991 0 739 200 
Q 488 400 488 806 
Q 488 878 497 964 
Q 506 1050 525 1153 
L 897 3053 
L 409 3053 
L 500 3500 
L 978 3500 
L 1172 4494 
L 1747 4494 
L 1556 3500 
L 2706 3500 
z
" transform="scale(0.015625)"/>
      <path id="DejaVuSans-Oblique-67" d="M 3816 3500 
L 3219 434 
Q 3047 -456 2561 -893 
Q 2075 -1331 1253 -1331 
Q 950 -1331 690 -1286 
Q 431 -1241 206 -1147 
L 313 -588 
Q 525 -725 762 -790 
Q 1000 -856 1269 -856 
Q 1816 -856 2167 -557 
Q 2519 -259 2631 300 
L 2681 563 
Q 2441 288 2122 144 
Q 1803 0 1434 0 
Q 903 0 598 351 
Q 294 703 294 1319 
Q 294 1803 478 2267 
Q 663 2731 997 3091 
Q 1219 3328 1514 3456 
Q 1809 3584 2131 3584 
Q 2484 3584 2746 3420 
Q 3009 3256 3138 2956 
L 3238 3500 
L 3816 3500 
z
M 2950 2216 
Q 2950 2641 2750 2872 
Q 2550 3103 2181 3103 
Q 1953 3103 1747 3012 
Q 1541 2922 1394 2759 
Q 1156 2491 1023 2127 
Q 891 1763 891 1375 
Q 891 944 1092 712 
Q 1294 481 1672 481 
Q 2219 481 2584 976 
Q 2950 1472 2950 2216 
z
" transform="scale(0.015625)"/>
     </defs>
     <use xlink:href="#DejaVuSans-Oblique-66" transform="translate(0 0.015625)"/>
     <use xlink:href="#DejaVuSans-Oblique-6c" transform="translate(35.205078 0.015625)"/>
     <use xlink:href="#DejaVuSans-Oblique-6f" transform="translate(62.988281 0.015625)"/>
     <use xlink:href="#DejaVuSans-Oblique-61" transform="translate(124.169922 0.015625)"/>
     <use xlink:href="#DejaVuSans-Oblique-74" transform="translate(185.449219 0.015625)"/>
     <use xlink:href="#DejaVuSans-Oblique-69" transform="translate(224.658203 0.015625)"/>
     <use xlink:href="#DejaVuSans-Oblique-6e" transform="translate(252.441406 0.015625)"/>
     <use xlink:href="#DejaVuSans-Oblique-67" transform="translate(315.820312 0.015625)"/>
    </g>
   </g>
   <g id="text_7">
    <!-- $g_m \cdot v_{gs}$ -->
    <g transform="translate(409.368 115.4625) scale(0.16 -0.16)">
     <defs>
      <path id="DejaVuSans-Oblique-6d" d="M 5747 2113 
L 5338 0 
L 4763 0 
L 5166 2094 
Q 5191 2228 5203 2325 
Q 5216 2422 5216 2491 
Q 5216 2772 5059 2928 
Q 4903 3084 4622 3084 
Q 4203 3084 3875 2770 
Q 3547 2456 3450 1953 
L 3066 0 
L 2491 0 
L 2900 2094 
Q 2925 2209 2937 2307 
Q 2950 2406 2950 2484 
Q 2950 2769 2794 2926 
Q 2638 3084 2363 3084 
Q 1938 3084 1609 2770 
Q 1281 2456 1184 1953 
L 800 0 
L 225 0 
L 909 3500 
L 1484 3500 
L 1375 2956 
Q 1609 3263 1923 3423 
Q 2238 3584 2597 3584 
Q 2978 3584 3223 3384 
Q 3469 3184 3519 2828 
Q 3781 3197 4126 3390 
Q 4472 3584 4856 3584 
Q 5306 3584 5551 3325 
Q 5797 3066 5797 2591 
Q 5797 2488 5784 2364 
Q 5772 2241 5747 2113 
z
" transform="scale(0.015625)"/>
      <path id="DejaVuSans-22c5" d="M 684 2619 
L 1344 2619 
L 1344 1825 
L 684 1825 
L 684 2619 
z
" transform="scale(0.015625)"/>
      <path id="DejaVuSans-Oblique-73" d="M 3200 3397 
L 3091 2853 
Q 2863 2978 2609 3040 
Q 2356 3103 2088 3103 
Q 1634 3103 1373 2948 
Q 1113 2794 1113 2528 
Q 1113 2219 1719 2053 
Q 1766 2041 1788 2034 
L 1972 1978 
Q 2547 1819 2739 1644 
Q 2931 1469 2931 1166 
Q 2931 609 2489 259 
Q 2047 -91 1331 -91 
Q 1053 -91 747 -37 
Q 441 16 72 128 
L 184 722 
Q 500 559 806 475 
Q 1113 391 1394 391 
Q 1816 391 2080 572 
Q 2344 753 2344 1031 
Q 2344 1331 1650 1516 
L 1591 1531 
L 1394 1581 
Q 956 1697 753 1886 
Q 550 2075 550 2369 
Q 550 2928 970 3256 
Q 1391 3584 2113 3584 
Q 2397 3584 2667 3537 
Q 2938 3491 3200 3397 
z
" transform="scale(0.015625)"/>
     </defs>
     <use xlink:href="#DejaVuSans-Oblique-67"/>
     <use xlink:href="#DejaVuSans-Oblique-6d" transform="translate(63.476562 -16.40625) scale(0.7)"/>
     <use xlink:href="#DejaVuSans-22c5" transform="translate(153.881836 0)"/>
     <use xlink:href="#DejaVuSans-Oblique-76" transform="translate(205.151367 0)"/>
     <use xlink:href="#DejaVuSans-Oblique-67" transform="translate(264.331055 -16.40625) scale(0.7)"/>
     <use xlink:href="#DejaVuSans-Oblique-73" transform="translate(308.764648 -16.40625) scale(0.7)"/>
    </g>
   </g>
   <g id="text_8">
    <!-- $v_t$ -->
    <g style="fill: #ff0000" transform="translate(301.368 189.095) scale(0.16 -0.16)">
     <use xlink:href="#DejaVuSans-Oblique-76" transform="translate(0 0.3125)"/>
     <use xlink:href="#DejaVuSans-Oblique-74" transform="translate(59.179688 -16.09375) scale(0.7)"/>
    </g>
   </g>
   <g id="text_9">
    <!-- $a_v v_d$ -->
    <g transform="translate(152.248 189.095) scale(0.16 -0.16)">
     <use xlink:href="#DejaVuSans-Oblique-61"/>
     <use xlink:href="#DejaVuSans-Oblique-76" transform="translate(61.279297 -16.40625) scale(0.7)"/>
     <use xlink:href="#DejaVuSans-Oblique-76" transform="translate(105.439453 0)"/>
     <use xlink:href="#DejaVuSans-Oblique-64" transform="translate(164.619141 -16.40625) scale(0.7)"/>
    </g>
   </g>
   <g id="text_10">
    <!-- $v_r$ -->
    <g style="fill: #ff0000" transform="translate(218.488 141.7525) scale(0.16 -0.16)">
     <defs>
      <path id="DejaVuSans-Oblique-72" d="M 2853 2969 
Q 2766 3016 2653 3041 
Q 2541 3066 2413 3066 
Q 1953 3066 1609 2717 
Q 1266 2369 1153 1784 
L 800 0 
L 225 0 
L 909 3500 
L 1484 3500 
L 1375 2956 
Q 1603 3259 1920 3421 
Q 2238 3584 2597 3584 
Q 2691 3584 2781 3573 
Q 2872 3563 2963 3538 
L 2853 2969 
z
" transform="scale(0.015625)"/>
     </defs>
     <use xlink:href="#DejaVuSans-Oblique-76" transform="translate(0 0.3125)"/>
     <use xlink:href="#DejaVuSans-Oblique-72" transform="translate(59.179688 -16.09375) scale(0.7)"/>
    </g>
   </g>
   <g id="text_11">
    <!-- $+$ -->
    <g transform="translate(309.048 135.095) scale(0.16 -0.16)">
     <use xlink:href="#DejaVuSans-2b" transform="translate(0 0.296875)"/>
    </g>
   </g>
   <g id="text_12">
    <!-- $v_{gs}$ -->
    <g transform="translate(304.328 115.4625) scale(0.16 -0.16)">
     <use xlink:href="#DejaVuSans-Oblique-76" transform="translate(0 0.3125)"/>
     <use xlink:href="#DejaVuSans-Oblique-67" transform="translate(59.179688 -16.09375) scale(0.7)"/>
     <use xlink:href="#DejaVuSans-Oblique-73" transform="translate(103.613281 -16.09375) scale(0.7)"/>
    </g>
   </g>
   <g id="text_13">
    <!-- $-$ -->
    <g transform="translate(309.048 99.095) scale(0.16 -0.16)">
     <use xlink:href="#DejaVuSans-2212" transform="translate(0 0.5)"/>
    </g>
   </g>
   <g id="patch_4">
    <path d="M 387.768 79.38 
C 388.484048 79.38 389.170866 79.095511 389.677188 78.589188 
C 390.183511 78.082866 390.468 77.396048 390.468 76.68 
C 390.468 75.963952 390.183511 75.277134 389.677188 74.770812 
C 389.170866 74.264489 388.484048 73.98 387.768 73.98 
C 387.051952 73.98 386.365134 74.264489 385.858812 74.770812 
C 385.352489 75.277134 385.068 75.963952 385.068 76.68 
C 385.068 77.396048 385.352489 78.082866 385.858812 78.589188 
C 386.365134 79.095511 387.051952 79.38 387.768 79.38 
z
" clip-path="url(#pb16ae54449)" style="fill: #0000ff; stroke: #0000ff; stroke-width: 2; stroke-linejoin: miter"/>
   </g>
   <g id="text_14">
    <!-- $v_{out}$ -->
    <g transform="translate(394.068 81.095) scale(0.16 -0.16)">
     <defs>
      <path id="DejaVuSans-Oblique-75" d="M 428 1388 
L 838 3500 
L 1416 3500 
L 1006 1409 
Q 975 1256 961 1147 
Q 947 1038 947 966 
Q 947 700 1109 554 
Q 1272 409 1569 409 
Q 2031 409 2368 721 
Q 2706 1034 2809 1563 
L 3194 3500 
L 3769 3500 
L 3091 0 
L 2516 0 
L 2631 550 
Q 2388 244 2052 76 
Q 1716 -91 1338 -91 
Q 878 -91 622 161 
Q 366 413 366 863 
Q 366 956 381 1097 
Q 397 1238 428 1388 
z
" transform="scale(0.015625)"/>
     </defs>
     <use xlink:href="#DejaVuSans-Oblique-76" transform="translate(0 0.3125)"/>
     <use xlink:href="#DejaVuSans-Oblique-6f" transform="translate(59.179688 -16.09375) scale(0.7)"/>
     <use xlink:href="#DejaVuSans-Oblique-75" transform="translate(102.006836 -16.09375) scale(0.7)"/>
     <use xlink:href="#DejaVuSans-Oblique-74" transform="translate(146.37207 -16.09375) scale(0.7)"/>
    </g>
   </g>
  </g>
 </g>
 <defs>
  <clipPath id="pb16ae54449">
   <rect x="0" y="-0" width="515.808" height="248.4"/>
  </clipPath>
 </defs>
</svg>
