<?xml version="1.0" encoding="utf-8" standalone="no"?>
<!DOCTYPE svg PUBLIC "-//W3C//DTD SVG 1.1//EN"
  "http://www.w3.org/Graphics/SVG/1.1/DTD/svg11.dtd">
<svg xmlns:xlink="http://www.w3.org/1999/xlink" width="695.7321pt" height="276.655496pt" viewBox="0 0 695.7321 276.655496" xmlns="http://www.w3.org/2000/svg" version="1.1">
 <metadata>
  <rdf:RDF xmlns:dc="http://purl.org/dc/elements/1.1/" xmlns:cc="http://creativecommons.org/ns#" xmlns:rdf="http://www.w3.org/1999/02/22-rdf-syntax-ns#">
   <cc:Work>
    <dc:type rdf:resource="http://purl.org/dc/dcmitype/StillImage"/>
    <dc:date>2025-08-22T03:45:11.587490</dc:date>
    <dc:format>image/svg+xml</dc:format>
    <dc:creator>
     <cc:Agent>
      <dc:title>Matplotlib v3.9.2, https://matplotlib.org/</dc:title>
     </cc:Agent>
    </dc:creator>
   </cc:Work>
  </rdf:RDF>
 </metadata>
 <defs>
  <style type="text/css">*{stroke-linejoin: round; stroke-linecap: butt}</style>
 </defs>
 <g id="figure_1">
  <g id="patch_1">
   <path d="M 0 276.655496 
L 695.7321 276.655496 
L 695.7321 0 
L 0 0 
z
" style="fill: #ffffff"/>
  </g>
  <g id="axes_1">
   <g id="line2d_1">
    <path d="M 114.72 133.8428 
L 114.72 147.147148 
L 123.72 150.147148 
L 105.72 156.147148 
L 123.72 162.147148 
L 105.72 168.147148 
L 123.72 174.147148 
L 105.72 180.147148 
L 114.72 183.147148 
L 114.72 196.451496 
" clip-path="url(#pafbfcaef38)" style="fill: none; stroke-dasharray: 7.4,3.2; stroke-dashoffset: 0; stroke: #808080; stroke-width: 2"/>
   </g>
   <g id="line2d_2">
    <path d="M 114.72 196.451496 
L 96.72 196.451496 
L 78.72 196.451496 
" clip-path="url(#pafbfcaef38)" style="fill: none; stroke-dasharray: 7.4,3.2; stroke-dashoffset: 0; stroke: #808080; stroke-width: 2"/>
   </g>
   <g id="line2d_3">
    <path d="M 78.72 196.451496 
L 78.72 181.451496 
L 63.72 181.451496 
L 63.72 151.451496 
L 78.72 151.451496 
L 78.72 136.451496 
" clip-path="url(#pafbfcaef38)" style="fill: none; stroke: #000000; stroke-width: 2; stroke-linecap: round"/>
   </g>
   <g id="line2d_4">
    <path d="M 69.72 181.451496 
L 63.72 181.451496 
" clip-path="url(#pafbfcaef38)" style="fill: none; stroke: #000000; stroke-width: 2; stroke-linecap: round"/>
   </g>
   <g id="patch_2">
    <path d="M 69.72 176.951496 
L 78.72 181.451496 
L 69.72 185.951496 
z
" clip-path="url(#pafbfcaef38)"/>
   </g>
   <g id="line2d_5">
    <path d="M 60.72 178.451496 
L 60.72 154.451496 
" clip-path="url(#pafbfcaef38)" style="fill: none; stroke: #000000; stroke-width: 2; stroke-linecap: round"/>
   </g>
   <g id="line2d_6">
    <path d="M 45.72 166.451496 
L 60.72 166.451496 
" clip-path="url(#pafbfcaef38)" style="fill: none; stroke: #000000; stroke-width: 2; stroke-linecap: round"/>
   </g>
   <g id="line2d_7">
    <path d="M 114.72 133.8428 
L 96.72 133.8428 
L 78.72 133.8428 
" clip-path="url(#pafbfcaef38)" style="fill: none; stroke-dasharray: 7.4,3.2; stroke-dashoffset: 0; stroke: #808080; stroke-width: 2"/>
   </g>
   <g id="line2d_8">
    <path d="M 78.72 196.451496 
L 78.72 209.951496 
L 78.72 223.451496 
" clip-path="url(#pafbfcaef38)" style="fill: none; stroke: #000000; stroke-width: 2; stroke-linecap: round"/>
   </g>
   <g id="line2d_9">
    <path d="M 78.72 223.451496 
L 78.72 237.851496 
L 69.72 237.851496 
L 87.72 237.851496 
M 72.42 242.171496 
L 85.02 242.171496 
M 76.92 246.491496 
L 80.52 246.491496 
" clip-path="url(#pafbfcaef38)" style="fill: none; stroke: #000000; stroke-width: 2; stroke-linecap: round"/>
   </g>
   <g id="line2d_10">
    <path d="M 45.72 166.451496 
L 36.72 166.451496 
L 27.72 166.451496 
" clip-path="url(#pafbfcaef38)" style="fill: none; stroke: #000000; stroke-width: 2; stroke-linecap: round"/>
   </g>
   <g id="line2d_11">
    <path d="M 27.72 166.451496 
L 13.32 166.451496 
L 13.32 157.451496 
L 13.32 175.451496 
M 9 160.151496 
L 9 172.751496 
M 4.68 164.651496 
L 4.68 168.251496 
" clip-path="url(#pafbfcaef38)" style="fill: none; stroke: #000000; stroke-width: 2; stroke-linecap: round"/>
   </g>
   <g id="line2d_12">
    <path d="M 78.72 136.451496 
L 78.72 122.951496 
L 78.72 109.451496 
" clip-path="url(#pafbfcaef38)" style="fill: none; stroke: #000000; stroke-width: 2; stroke-linecap: round"/>
   </g>
   <g id="line2d_13">
    <path d="M 78.72 109.451496 
L 78.72 100.451496 
L 78.72 91.451496 
" clip-path="url(#pafbfcaef38)" style="fill: none; stroke: #000000; stroke-width: 2; stroke-linecap: round"/>
   </g>
   <g id="line2d_14">
    <path d="M 78.72 91.451496 
L 78.72 76.451496 
L 63.72 76.451496 
L 63.72 46.451496 
L 78.72 46.451496 
L 78.72 31.451496 
" clip-path="url(#pafbfcaef38)" style="fill: none; stroke: #000000; stroke-width: 2; stroke-linecap: round"/>
   </g>
   <g id="line2d_15">
    <path d="M 69.72 76.451496 
L 63.72 76.451496 
" clip-path="url(#pafbfcaef38)" style="fill: none; stroke: #000000; stroke-width: 2; stroke-linecap: round"/>
   </g>
   <g id="patch_3">
    <path d="M 69.72 71.951496 
L 78.72 76.451496 
L 69.72 80.951496 
z
" clip-path="url(#pafbfcaef38)"/>
   </g>
   <g id="line2d_16">
    <path d="M 60.72 73.451496 
L 60.72 49.451496 
" clip-path="url(#pafbfcaef38)" style="fill: none; stroke: #000000; stroke-width: 2; stroke-linecap: round"/>
   </g>
   <g id="line2d_17">
    <path d="M 45.72 61.451496 
L 60.72 61.451496 
" clip-path="url(#pafbfcaef38)" style="fill: none; stroke: #000000; stroke-width: 2; stroke-linecap: round"/>
   </g>
   <g id="line2d_18">
    <path d="M 78.72 91.451496 
L 96.72 91.451496 
L 114.72 91.451496 
" clip-path="url(#pafbfcaef38)" style="fill: none; stroke-dasharray: 7.4,3.2; stroke-dashoffset: 0; stroke: #808080; stroke-width: 2"/>
   </g>
   <g id="line2d_19">
    <path d="M 114.72 91.451496 
L 114.72 78.147148 
L 105.72 75.147148 
L 123.72 69.147148 
L 105.72 63.147148 
L 123.72 57.147148 
L 105.72 51.147148 
L 123.72 45.147148 
L 114.72 42.147148 
L 114.72 28.8428 
" clip-path="url(#pafbfcaef38)" style="fill: none; stroke-dasharray: 7.4,3.2; stroke-dashoffset: 0; stroke: #808080; stroke-width: 2"/>
   </g>
   <g id="line2d_20">
    <path d="M 114.72 28.8428 
L 96.72 28.8428 
L 78.72 28.8428 
" clip-path="url(#pafbfcaef38)" style="fill: none; stroke-dasharray: 7.4,3.2; stroke-dashoffset: 0; stroke: #808080; stroke-width: 2"/>
   </g>
   <g id="line2d_21">
    <path d="M 78.72 28.8428 
L 78.72 19.8428 
L 78.72 10.8428 
" clip-path="url(#pafbfcaef38)" style="fill: none; stroke: #000000; stroke-width: 2; stroke-linecap: round"/>
   </g>
   <g id="line2d_22">
    <path d="M 45.72 61.451496 
L 36.72 61.451496 
L 27.72 61.451496 
" clip-path="url(#pafbfcaef38)" style="fill: none; stroke: #000000; stroke-width: 2; stroke-linecap: round"/>
   </g>
   <g id="line2d_23">
    <path d="M 27.72 61.451496 
L 13.32 61.451496 
L 13.32 52.451496 
L 13.32 70.451496 
M 9 55.151496 
L 9 67.751496 
M 4.68 59.651496 
L 4.68 63.251496 
" clip-path="url(#pafbfcaef38)" style="fill: none; stroke: #000000; stroke-width: 2; stroke-linecap: round"/>
   </g>
   <g id="line2d_24">
    <path d="M 315.72 153.851496 
L 315.72 171.851496 
L 324.72 174.851496 
L 306.72 180.851496 
L 324.72 186.851496 
L 306.72 192.851496 
L 324.72 198.851496 
L 306.72 204.851496 
L 315.72 207.851496 
L 315.72 225.851496 
" clip-path="url(#pafbfcaef38)" style="fill: none; stroke: #000000; stroke-width: 2; stroke-linecap: round"/>
   </g>
   <g id="line2d_25">
    <path d="M 315.72 225.851496 
L 315.72 240.251496 
L 306.72 240.251496 
L 324.72 240.251496 
M 309.42 244.571496 
L 322.02 244.571496 
M 313.92 248.891496 
L 317.52 248.891496 
" clip-path="url(#pafbfcaef38)" style="fill: none; stroke: #000000; stroke-width: 2; stroke-linecap: round"/>
   </g>
   <g id="line2d_26">
    <path d="M 315.72 81.851496 
L 315.72 99.851496 
M 315.72 135.851496 
L 297.72 117.851496 
L 315.72 99.851496 
L 333.72 117.851496 
L 315.72 135.851496 
L 315.72 153.851496 
" clip-path="url(#pafbfcaef38)" style="fill: none; stroke: #000000; stroke-width: 2; stroke-linecap: round"/>
   </g>
   <g id="line2d_27">
    <path d="M 315.72 117.851496 
L 315.72 126.851496 
" clip-path="url(#pafbfcaef38)" style="fill: none; stroke: #000000; stroke-width: 2; stroke-linecap: round"/>
   </g>
   <g id="patch_4">
    <path d="M 313.02 117.851496 
L 315.72 108.851496 
L 318.42 117.851496 
z
" clip-path="url(#pafbfcaef38)"/>
   </g>
   <g id="line2d_28">
    <path d="M 315.72 153.851496 
L 351.72 153.851496 
L 387.72 153.851496 
" clip-path="url(#pafbfcaef38)" style="fill: none; stroke: #000000; stroke-width: 2; stroke-linecap: round"/>
   </g>
   <g id="line2d_29">
    <path d="M 387.72 153.851496 
L 387.72 135.851496 
L 378.72 132.851496 
L 396.72 126.851496 
L 378.72 120.851496 
L 396.72 114.851496 
L 378.72 108.851496 
L 396.72 102.851496 
L 387.72 99.851496 
L 387.72 81.851496 
" clip-path="url(#pafbfcaef38)" style="fill: none; stroke: #000000; stroke-width: 2; stroke-linecap: round"/>
   </g>
   <g id="line2d_30">
    <path d="M 387.72 81.851496 
L 351.72 81.851496 
L 315.72 81.851496 
" clip-path="url(#pafbfcaef38)" style="fill: none; stroke: #000000; stroke-width: 2; stroke-linecap: round"/>
   </g>
   <g id="line2d_31">
    <path d="M 315.72 81.851496 
L 315.72 72.851496 
L 315.72 63.851496 
" clip-path="url(#pafbfcaef38)" style="fill: none; stroke: #000000; stroke-width: 2; stroke-linecap: round"/>
   </g>
   <g id="line2d_32">
    <path d="M 603.72 225.851496 
L 603.72 207.851496 
L 594.72 204.851496 
L 612.72 198.851496 
L 594.72 192.851496 
L 612.72 186.851496 
L 594.72 180.851496 
L 612.72 174.851496 
L 603.72 171.851496 
L 603.72 153.851496 
" clip-path="url(#pafbfcaef38)" style="fill: none; stroke: #000000; stroke-width: 2; stroke-linecap: round"/>
   </g>
   <g id="line2d_33">
    <path d="M 603.72 153.851496 
L 603.72 135.851496 
L 603.72 117.851496 
" clip-path="url(#pafbfcaef38)" style="fill: none; stroke: #000000; stroke-width: 2; stroke-linecap: round"/>
   </g>
   <g id="line2d_34">
    <path d="M 603.72 117.851496 
L 603.72 99.851496 
L 585.72 81.851496 
L 603.72 63.851496 
L 621.72 81.851496 
L 603.72 99.851496 
M 603.72 63.851496 
L 603.72 45.851496 
" clip-path="url(#pafbfcaef38)" style="fill: none; stroke: #000000; stroke-width: 2; stroke-linecap: round"/>
   </g>
   <g id="line2d_35">
    <path d="M 603.72 90.851496 
L 603.72 81.851496 
" clip-path="url(#pafbfcaef38)" style="fill: none; stroke: #000000; stroke-width: 2; stroke-linecap: round"/>
   </g>
   <g id="patch_5">
    <path d="M 601.02 81.851496 
L 603.72 72.851496 
L 606.42 81.851496 
z
" clip-path="url(#pafbfcaef38)"/>
   </g>
   <g id="line2d_36">
    <path d="M 603.72 153.851496 
L 639.72 153.851496 
L 675.72 153.851496 
" clip-path="url(#pafbfcaef38)" style="fill: none; stroke: #000000; stroke-width: 2; stroke-linecap: round"/>
   </g>
   <g id="line2d_37">
    <path d="M 675.72 153.851496 
L 675.72 135.851496 
L 675.72 117.851496 
" clip-path="url(#pafbfcaef38)" style="fill: none; stroke: #000000; stroke-width: 2; stroke-linecap: round"/>
   </g>
   <g id="line2d_38">
    <path d="M 675.72 117.851496 
L 675.72 99.851496 
L 666.72 96.851496 
L 684.72 90.851496 
L 666.72 84.851496 
L 684.72 78.851496 
L 666.72 72.851496 
L 684.72 66.851496 
L 675.72 63.851496 
L 675.72 45.851496 
" clip-path="url(#pafbfcaef38)" style="fill: none; stroke: #000000; stroke-width: 2; stroke-linecap: round"/>
   </g>
   <g id="line2d_39">
    <path d="M 621.72 138.251496 
L 585.72 138.251496 
L 585.72 129.251496 
" clip-path="url(#pafbfcaef38)" style="fill: none; stroke: #000000; stroke-width: 2; stroke-linecap: round"/>
   </g>
   <g id="patch_6">
    <path d="M 583.02 129.251496 
L 585.72 120.251496 
L 588.42 129.251496 
z
" clip-path="url(#pafbfcaef38)"/>
   </g>
   <g id="line2d_40">
    <path d="M 603.72 225.851496 
L 603.72 240.251496 
L 594.72 240.251496 
L 612.72 240.251496 
M 597.42 244.571496 
L 610.02 244.571496 
M 601.92 248.891496 
L 605.52 248.891496 
" clip-path="url(#pafbfcaef38)" style="fill: none; stroke: #000000; stroke-width: 2; stroke-linecap: round"/>
   </g>
   <g id="text_1">
    <!-- $r_{o1}$ -->
    <g style="fill: #808080" transform="translate(127.32 169.010273) scale(0.14 -0.14)">
     <defs>
      <path id="DejaVuSans-Oblique-72" d="M 2853 2969 
Q 2766 3016 2653 3041 
Q 2541 3066 2413 3066 
Q 1953 3066 1609 2717 
Q 1266 2369 1153 1784 
L 800 0 
L 225 0 
L 909 3500 
L 1484 3500 
L 1375 2956 
Q 1603 3259 1920 3421 
Q 2238 3584 2597 3584 
Q 2691 3584 2781 3573 
Q 2872 3563 2963 3538 
L 2853 2969 
z
" transform="scale(0.015625)"/>
      <path id="DejaVuSans-Oblique-6f" d="M 1625 -91 
Q 1009 -91 651 289 
Q 294 669 294 1325 
Q 294 1706 417 2101 
Q 541 2497 738 2766 
Q 1047 3184 1428 3384 
Q 1809 3584 2291 3584 
Q 2888 3584 3255 3212 
Q 3622 2841 3622 2241 
Q 3622 1825 3500 1412 
Q 3378 1000 3181 728 
Q 2875 309 2494 109 
Q 2113 -91 1625 -91 
z
M 891 1344 
Q 891 869 1089 633 
Q 1288 397 1691 397 
Q 2269 397 2648 901 
Q 3028 1406 3028 2181 
Q 3028 2634 2825 2865 
Q 2622 3097 2228 3097 
Q 1903 3097 1650 2945 
Q 1397 2794 1197 2484 
Q 1050 2253 970 1956 
Q 891 1659 891 1344 
z
" transform="scale(0.015625)"/>
      <path id="DejaVuSans-31" d="M 794 531 
L 1825 531 
L 1825 4091 
L 703 3866 
L 703 4441 
L 1819 4666 
L 2450 4666 
L 2450 531 
L 3481 531 
L 3481 0 
L 794 0 
L 794 531 
z
" transform="scale(0.015625)"/>
     </defs>
     <use xlink:href="#DejaVuSans-Oblique-72"/>
     <use xlink:href="#DejaVuSans-Oblique-6f" transform="translate(41.113281 -16.40625) scale(0.7)"/>
     <use xlink:href="#DejaVuSans-31" transform="translate(83.94043 -16.40625) scale(0.7)"/>
    </g>
   </g>
   <g id="text_2">
    <!-- $M_1$ -->
    <g transform="translate(82.32 170.314621) scale(0.14 -0.14)">
     <defs>
      <path id="DejaVuSans-Oblique-4d" d="M 1081 4666 
L 2028 4666 
L 2572 1522 
L 4378 4666 
L 5350 4666 
L 4441 0 
L 3828 0 
L 4622 4091 
L 2791 897 
L 2175 897 
L 1581 4103 
L 788 0 
L 172 0 
L 1081 4666 
z
" transform="scale(0.015625)"/>
     </defs>
     <use xlink:href="#DejaVuSans-Oblique-4d" transform="translate(0 0.09375)"/>
     <use xlink:href="#DejaVuSans-31" transform="translate(86.279297 -16.3125) scale(0.7)"/>
    </g>
   </g>
   <g id="text_3">
    <!-- $(a)$ -->
    <g transform="translate(72.52 266.914621) scale(0.14 -0.14)">
     <defs>
      <path id="DejaVuSans-28" d="M 1984 4856 
Q 1566 4138 1362 3434 
Q 1159 2731 1159 2009 
Q 1159 1288 1364 580 
Q 1569 -128 1984 -844 
L 1484 -844 
Q 1016 -109 783 600 
Q 550 1309 550 2009 
Q 550 2706 781 3412 
Q 1013 4119 1484 4856 
L 1984 4856 
z
" transform="scale(0.015625)"/>
      <path id="DejaVuSans-Oblique-61" d="M 3438 1997 
L 3047 0 
L 2472 0 
L 2578 531 
Q 2325 219 2001 64 
Q 1678 -91 1281 -91 
Q 834 -91 548 182 
Q 263 456 263 884 
Q 263 1497 752 1853 
Q 1241 2209 2100 2209 
L 2900 2209 
L 2931 2363 
Q 2938 2388 2941 2417 
Q 2944 2447 2944 2509 
Q 2944 2788 2717 2942 
Q 2491 3097 2081 3097 
Q 1800 3097 1504 3025 
Q 1209 2953 897 2809 
L 997 3341 
Q 1322 3463 1633 3523 
Q 1944 3584 2234 3584 
Q 2853 3584 3176 3315 
Q 3500 3047 3500 2534 
Q 3500 2431 3484 2292 
Q 3469 2153 3438 1997 
z
M 2816 1759 
L 2241 1759 
Q 1534 1759 1195 1570 
Q 856 1381 856 984 
Q 856 709 1029 553 
Q 1203 397 1509 397 
Q 1978 397 2328 733 
Q 2678 1069 2791 1631 
L 2816 1759 
z
" transform="scale(0.015625)"/>
      <path id="DejaVuSans-29" d="M 513 4856 
L 1013 4856 
Q 1481 4119 1714 3412 
Q 1947 2706 1947 2009 
Q 1947 1309 1714 600 
Q 1481 -109 1013 -844 
L 513 -844 
Q 928 -128 1133 580 
Q 1338 1288 1338 2009 
Q 1338 2731 1133 3434 
Q 928 4138 513 4856 
z
" transform="scale(0.015625)"/>
     </defs>
     <use xlink:href="#DejaVuSans-28" transform="translate(0 0.125)"/>
     <use xlink:href="#DejaVuSans-Oblique-61" transform="translate(39.013672 0.125)"/>
     <use xlink:href="#DejaVuSans-29" transform="translate(100.292969 0.125)"/>
    </g>
   </g>
   <g id="text_4">
    <!-- $M_2$ -->
    <g transform="translate(82.32 65.314621) scale(0.14 -0.14)">
     <defs>
      <path id="DejaVuSans-32" d="M 1228 531 
L 3431 531 
L 3431 0 
L 469 0 
L 469 531 
Q 828 903 1448 1529 
Q 2069 2156 2228 2338 
Q 2531 2678 2651 2914 
Q 2772 3150 2772 3378 
Q 2772 3750 2511 3984 
Q 2250 4219 1831 4219 
Q 1534 4219 1204 4116 
Q 875 4013 500 3803 
L 500 4441 
Q 881 4594 1212 4672 
Q 1544 4750 1819 4750 
Q 2544 4750 2975 4387 
Q 3406 4025 3406 3419 
Q 3406 3131 3298 2873 
Q 3191 2616 2906 2266 
Q 2828 2175 2409 1742 
Q 1991 1309 1228 531 
z
" transform="scale(0.015625)"/>
     </defs>
     <use xlink:href="#DejaVuSans-Oblique-4d" transform="translate(0 0.09375)"/>
     <use xlink:href="#DejaVuSans-32" transform="translate(86.279297 -16.3125) scale(0.7)"/>
    </g>
   </g>
   <g id="text_5">
    <!-- $r_{o2}$ -->
    <g style="fill: #808080" transform="translate(127.32 64.010273) scale(0.14 -0.14)">
     <use xlink:href="#DejaVuSans-Oblique-72"/>
     <use xlink:href="#DejaVuSans-Oblique-6f" transform="translate(41.113281 -16.40625) scale(0.7)"/>
     <use xlink:href="#DejaVuSans-32" transform="translate(83.94043 -16.40625) scale(0.7)"/>
    </g>
   </g>
   <g id="text_6">
    <!-- $r_\mathrm{o1}$ -->
    <g transform="translate(284.64 193.714621) scale(0.14 -0.14)">
     <defs>
      <path id="DejaVuSans-6f" d="M 1959 3097 
Q 1497 3097 1228 2736 
Q 959 2375 959 1747 
Q 959 1119 1226 758 
Q 1494 397 1959 397 
Q 2419 397 2687 759 
Q 2956 1122 2956 1747 
Q 2956 2369 2687 2733 
Q 2419 3097 1959 3097 
z
M 1959 3584 
Q 2709 3584 3137 3096 
Q 3566 2609 3566 1747 
Q 3566 888 3137 398 
Q 2709 -91 1959 -91 
Q 1206 -91 779 398 
Q 353 888 353 1747 
Q 353 2609 779 3096 
Q 1206 3584 1959 3584 
z
" transform="scale(0.015625)"/>
     </defs>
     <use xlink:href="#DejaVuSans-Oblique-72"/>
     <use xlink:href="#DejaVuSans-6f" transform="translate(41.113281 -16.40625) scale(0.7)"/>
     <use xlink:href="#DejaVuSans-31" transform="translate(83.94043 -16.40625) scale(0.7)"/>
    </g>
   </g>
   <g id="text_7">
    <!-- $(b)$ -->
    <g transform="translate(309.38 269.314621) scale(0.14 -0.14)">
     <defs>
      <path id="DejaVuSans-Oblique-62" d="M 3169 2138 
Q 3169 2591 2961 2847 
Q 2753 3103 2388 3103 
Q 2122 3103 1889 2973 
Q 1656 2844 1484 2597 
Q 1303 2338 1198 1995 
Q 1094 1653 1094 1313 
Q 1094 881 1298 636 
Q 1503 391 1863 391 
Q 2134 391 2365 517 
Q 2597 644 2772 891 
Q 2950 1147 3059 1487 
Q 3169 1828 3169 2138 
z
M 1381 2969 
Q 1594 3256 1914 3420 
Q 2234 3584 2584 3584 
Q 3122 3584 3439 3221 
Q 3756 2859 3756 2241 
Q 3756 1734 3570 1259 
Q 3384 784 3041 416 
Q 2816 172 2522 40 
Q 2228 -91 1906 -91 
Q 1566 -91 1316 65 
Q 1066 222 909 531 
L 806 0 
L 231 0 
L 1178 4863 
L 1753 4863 
L 1381 2969 
z
" transform="scale(0.015625)"/>
     </defs>
     <use xlink:href="#DejaVuSans-28" transform="translate(0 0.015625)"/>
     <use xlink:href="#DejaVuSans-Oblique-62" transform="translate(39.013672 0.015625)"/>
     <use xlink:href="#DejaVuSans-29" transform="translate(102.490234 0.015625)"/>
    </g>
   </g>
   <g id="text_8">
    <!-- $g ^\prime _\mathrm{m2} \Delta V_\mathrm{d1}$ -->
    <g transform="translate(237 121.351496) scale(0.14 -0.14)">
     <defs>
      <path id="DejaVuSans-Oblique-67" d="M 3816 3500 
L 3219 434 
Q 3047 -456 2561 -893 
Q 2075 -1331 1253 -1331 
Q 950 -1331 690 -1286 
Q 431 -1241 206 -1147 
L 313 -588 
Q 525 -725 762 -790 
Q 1000 -856 1269 -856 
Q 1816 -856 2167 -557 
Q 2519 -259 2631 300 
L 2681 563 
Q 2441 288 2122 144 
Q 1803 0 1434 0 
Q 903 0 598 351 
Q 294 703 294 1319 
Q 294 1803 478 2267 
Q 663 2731 997 3091 
Q 1219 3328 1514 3456 
Q 1809 3584 2131 3584 
Q 2484 3584 2746 3420 
Q 3009 3256 3138 2956 
L 3238 3500 
L 3816 3500 
z
M 2950 2216 
Q 2950 2641 2750 2872 
Q 2550 3103 2181 3103 
Q 1953 3103 1747 3012 
Q 1541 2922 1394 2759 
Q 1156 2491 1023 2127 
Q 891 1763 891 1375 
Q 891 944 1092 712 
Q 1294 481 1672 481 
Q 2219 481 2584 976 
Q 2950 1472 2950 2216 
z
" transform="scale(0.015625)"/>
      <path id="Cmsy10-30" d="M 225 347 
Q 184 359 184 409 
L 966 3316 
Q 1003 3434 1093 3506 
Q 1184 3578 1300 3578 
Q 1450 3578 1564 3479 
Q 1678 3381 1678 3231 
Q 1678 3166 1644 3084 
L 488 319 
Q 466 275 428 275 
Q 394 275 320 306 
Q 247 338 225 347 
z
" transform="scale(0.015625)"/>
      <path id="DejaVuSans-6d" d="M 3328 2828 
Q 3544 3216 3844 3400 
Q 4144 3584 4550 3584 
Q 5097 3584 5394 3201 
Q 5691 2819 5691 2113 
L 5691 0 
L 5113 0 
L 5113 2094 
Q 5113 2597 4934 2840 
Q 4756 3084 4391 3084 
Q 3944 3084 3684 2787 
Q 3425 2491 3425 1978 
L 3425 0 
L 2847 0 
L 2847 2094 
Q 2847 2600 2669 2842 
Q 2491 3084 2119 3084 
Q 1678 3084 1418 2786 
Q 1159 2488 1159 1978 
L 1159 0 
L 581 0 
L 581 3500 
L 1159 3500 
L 1159 2956 
Q 1356 3278 1631 3431 
Q 1906 3584 2284 3584 
Q 2666 3584 2933 3390 
Q 3200 3197 3328 2828 
z
" transform="scale(0.015625)"/>
      <path id="DejaVuSans-394" d="M 2188 4044 
L 906 525 
L 3472 525 
L 2188 4044 
z
M 50 0 
L 1831 4666 
L 2547 4666 
L 4325 0 
L 50 0 
z
" transform="scale(0.015625)"/>
      <path id="DejaVuSans-Oblique-56" d="M 1319 0 
L 500 4666 
L 1119 4666 
L 1797 653 
L 4063 4666 
L 4750 4666 
L 2053 0 
L 1319 0 
z
" transform="scale(0.015625)"/>
      <path id="DejaVuSans-64" d="M 2906 2969 
L 2906 4863 
L 3481 4863 
L 3481 0 
L 2906 0 
L 2906 525 
Q 2725 213 2448 61 
Q 2172 -91 1784 -91 
Q 1150 -91 751 415 
Q 353 922 353 1747 
Q 353 2572 751 3078 
Q 1150 3584 1784 3584 
Q 2172 3584 2448 3432 
Q 2725 3281 2906 2969 
z
M 947 1747 
Q 947 1113 1208 752 
Q 1469 391 1925 391 
Q 2381 391 2643 752 
Q 2906 1113 2906 1747 
Q 2906 2381 2643 2742 
Q 2381 3103 1925 3103 
Q 1469 3103 1208 2742 
Q 947 2381 947 1747 
z
" transform="scale(0.015625)"/>
     </defs>
     <use xlink:href="#DejaVuSans-Oblique-67" transform="translate(0 0.584375)"/>
     <use xlink:href="#Cmsy10-30" transform="translate(68.126458 38.865625) scale(0.7)"/>
     <use xlink:href="#DejaVuSans-6d" transform="translate(63.476562 -26.759375) scale(0.7)"/>
     <use xlink:href="#DejaVuSans-32" transform="translate(131.665039 -26.759375) scale(0.7)"/>
     <use xlink:href="#DejaVuSans-394" transform="translate(178.935547 0.584375)"/>
     <use xlink:href="#DejaVuSans-Oblique-56" transform="translate(247.34375 0.584375)"/>
     <use xlink:href="#DejaVuSans-64" transform="translate(315.751953 -15.821875) scale(0.7)"/>
     <use xlink:href="#DejaVuSans-31" transform="translate(360.185547 -15.821875) scale(0.7)"/>
    </g>
   </g>
   <g id="text_9">
    <!-- $\Delta V_\mathrm{d1}$ -->
    <g transform="translate(280.06 157.714621) scale(0.14 -0.14)">
     <use xlink:href="#DejaVuSans-394" transform="translate(0 0.09375)"/>
     <use xlink:href="#DejaVuSans-Oblique-56" transform="translate(68.408203 0.09375)"/>
     <use xlink:href="#DejaVuSans-64" transform="translate(136.816406 -16.3125) scale(0.7)"/>
     <use xlink:href="#DejaVuSans-31" transform="translate(181.25 -16.3125) scale(0.7)"/>
    </g>
   </g>
   <g id="text_10">
    <!-- $r_\mathrm{o2}$ -->
    <g transform="translate(356.64 121.714621) scale(0.14 -0.14)">
     <use xlink:href="#DejaVuSans-Oblique-72"/>
     <use xlink:href="#DejaVuSans-6f" transform="translate(41.113281 -16.40625) scale(0.7)"/>
     <use xlink:href="#DejaVuSans-32" transform="translate(83.94043 -16.40625) scale(0.7)"/>
    </g>
   </g>
   <g id="patch_7">
    <path d="M 315.72 84.551496 
C 316.436048 84.551496 317.122866 84.267007 317.629188 83.760684 
C 318.135511 83.254361 318.42 82.567544 318.42 81.851496 
C 318.42 81.135447 318.135511 80.44863 317.629188 79.942307 
C 317.122866 79.435985 316.436048 79.151496 315.72 79.151496 
C 315.003952 79.151496 314.317134 79.435985 313.810812 79.942307 
C 313.304489 80.44863 313.02 81.135447 313.02 81.851496 
C 313.02 82.567544 313.304489 83.254361 313.810812 83.760684 
C 314.317134 84.267007 315.003952 84.551496 315.72 84.551496 
z
" clip-path="url(#pafbfcaef38)" style="stroke: #000000; stroke-width: 2; stroke-linejoin: miter"/>
   </g>
   <g id="text_11">
    <!-- $r_\mathrm{o1}$ -->
    <g transform="translate(572.64 193.714621) scale(0.14 -0.14)">
     <use xlink:href="#DejaVuSans-Oblique-72"/>
     <use xlink:href="#DejaVuSans-6f" transform="translate(41.113281 -16.40625) scale(0.7)"/>
     <use xlink:href="#DejaVuSans-31" transform="translate(83.94043 -16.40625) scale(0.7)"/>
    </g>
   </g>
   <g id="text_12">
    <!-- $g ^\prime _\mathrm{m2} \Delta V_\mathrm{d1}$ -->
    <g transform="translate(525 85.351496) scale(0.14 -0.14)">
     <use xlink:href="#DejaVuSans-Oblique-67" transform="translate(0 0.584375)"/>
     <use xlink:href="#Cmsy10-30" transform="translate(68.126458 38.865625) scale(0.7)"/>
     <use xlink:href="#DejaVuSans-6d" transform="translate(63.476562 -26.759375) scale(0.7)"/>
     <use xlink:href="#DejaVuSans-32" transform="translate(131.665039 -26.759375) scale(0.7)"/>
     <use xlink:href="#DejaVuSans-394" transform="translate(178.935547 0.584375)"/>
     <use xlink:href="#DejaVuSans-Oblique-56" transform="translate(247.34375 0.584375)"/>
     <use xlink:href="#DejaVuSans-64" transform="translate(315.751953 -15.821875) scale(0.7)"/>
     <use xlink:href="#DejaVuSans-31" transform="translate(360.185547 -15.821875) scale(0.7)"/>
    </g>
   </g>
   <g id="text_13">
    <!-- $r_\mathrm{o2}$ -->
    <g transform="translate(644.64 85.714621) scale(0.14 -0.14)">
     <use xlink:href="#DejaVuSans-Oblique-72"/>
     <use xlink:href="#DejaVuSans-6f" transform="translate(41.113281 -16.40625) scale(0.7)"/>
     <use xlink:href="#DejaVuSans-32" transform="translate(83.94043 -16.40625) scale(0.7)"/>
    </g>
   </g>
   <g id="text_14">
    <!-- $1/g ^\prime _\mathrm{m2}$ -->
    <g transform="translate(614.93 132.971496) scale(0.14 -0.14)">
     <defs>
      <path id="DejaVuSans-2f" d="M 1625 4666 
L 2156 4666 
L 531 -594 
L 0 -594 
L 1625 4666 
z
" transform="scale(0.015625)"/>
     </defs>
     <use xlink:href="#DejaVuSans-31" transform="translate(0 0.584375)"/>
     <use xlink:href="#DejaVuSans-2f" transform="translate(63.623047 0.584375)"/>
     <use xlink:href="#DejaVuSans-Oblique-67" transform="translate(97.314453 0.584375)"/>
     <use xlink:href="#Cmsy10-30" transform="translate(165.440911 38.865625) scale(0.7)"/>
     <use xlink:href="#DejaVuSans-6d" transform="translate(160.791016 -26.759375) scale(0.7)"/>
     <use xlink:href="#DejaVuSans-32" transform="translate(228.979492 -26.759375) scale(0.7)"/>
    </g>
   </g>
   <g id="text_15">
    <!-- $(c)$ -->
    <g transform="translate(594.34 269.314621) scale(0.14 -0.14)">
     <defs>
      <path id="DejaVuSans-Oblique-63" d="M 3431 3366 
L 3316 2797 
Q 3109 2947 2876 3022 
Q 2644 3097 2394 3097 
Q 2119 3097 1870 3000 
Q 1622 2903 1453 2725 
Q 1184 2453 1037 2087 
Q 891 1722 891 1331 
Q 891 859 1127 628 
Q 1363 397 1844 397 
Q 2081 397 2348 469 
Q 2616 541 2906 684 
L 2797 116 
Q 2547 13 2283 -39 
Q 2019 -91 1741 -91 
Q 1044 -91 669 257 
Q 294 606 294 1253 
Q 294 1797 489 2255 
Q 684 2713 1069 3078 
Q 1331 3328 1684 3456 
Q 2038 3584 2456 3584 
Q 2700 3584 2940 3529 
Q 3181 3475 3431 3366 
z
" transform="scale(0.015625)"/>
     </defs>
     <use xlink:href="#DejaVuSans-28" transform="translate(0 0.125)"/>
     <use xlink:href="#DejaVuSans-Oblique-63" transform="translate(39.013672 0.125)"/>
     <use xlink:href="#DejaVuSans-29" transform="translate(93.994141 0.125)"/>
    </g>
   </g>
   <g id="patch_8">
    <path d="M 78.72 136.5428 
C 79.436048 136.5428 80.122866 136.258311 80.629188 135.751988 
C 81.135511 135.245666 81.42 134.558848 81.42 133.8428 
C 81.42 133.126752 81.135511 132.439934 80.629188 131.933612 
C 80.122866 131.427289 79.436048 131.1428 78.72 131.1428 
C 78.003952 131.1428 77.317134 131.427289 76.810812 131.933612 
C 76.304489 132.439934 76.02 133.126752 76.02 133.8428 
C 76.02 134.558848 76.304489 135.245666 76.810812 135.751988 
C 77.317134 136.258311 78.003952 136.5428 78.72 136.5428 
z
" clip-path="url(#pafbfcaef38)" style="stroke: #000000; stroke-width: 2; stroke-linejoin: miter"/>
   </g>
   <g id="patch_9">
    <path d="M 78.72 199.151496 
C 79.436048 199.151496 80.122866 198.867007 80.629188 198.360684 
C 81.135511 197.854361 81.42 197.167544 81.42 196.451496 
C 81.42 195.735447 81.135511 195.04863 80.629188 194.542307 
C 80.122866 194.035985 79.436048 193.751496 78.72 193.751496 
C 78.003952 193.751496 77.317134 194.035985 76.810812 194.542307 
C 76.304489 195.04863 76.02 195.735447 76.02 196.451496 
C 76.02 197.167544 76.304489 197.854361 76.810812 198.360684 
C 77.317134 198.867007 78.003952 199.151496 78.72 199.151496 
z
" clip-path="url(#pafbfcaef38)" style="stroke: #000000; stroke-width: 2; stroke-linejoin: miter"/>
   </g>
   <g id="patch_10">
    <path d="M 78.72 112.151496 
C 79.436048 112.151496 80.122866 111.867007 80.629188 111.360684 
C 81.135511 110.854361 81.42 110.167544 81.42 109.451496 
C 81.42 108.735447 81.135511 108.04863 80.629188 107.542307 
C 80.122866 107.035985 79.436048 106.751496 78.72 106.751496 
C 78.003952 106.751496 77.317134 107.035985 76.810812 107.542307 
C 76.304489 108.04863 76.02 108.735447 76.02 109.451496 
C 76.02 110.167544 76.304489 110.854361 76.810812 111.360684 
C 77.317134 111.867007 78.003952 112.151496 78.72 112.151496 
z
" clip-path="url(#pafbfcaef38)" style="fill: #ffffff; stroke: #000000; stroke-width: 2; stroke-linejoin: miter"/>
   </g>
   <g id="text_16">
    <!-- $\Delta V_{d1}$ -->
    <g transform="translate(85.02 113.314621) scale(0.14 -0.14)">
     <defs>
      <path id="DejaVuSans-Oblique-64" d="M 2675 525 
Q 2444 222 2128 65 
Q 1813 -91 1428 -91 
Q 903 -91 598 267 
Q 294 625 294 1247 
Q 294 1766 478 2236 
Q 663 2706 1013 3078 
Q 1244 3325 1534 3454 
Q 1825 3584 2144 3584 
Q 2481 3584 2739 3421 
Q 2997 3259 3138 2956 
L 3513 4863 
L 4091 4863 
L 3144 0 
L 2566 0 
L 2675 525 
z
M 891 1350 
Q 891 897 1095 644 
Q 1300 391 1663 391 
Q 1931 391 2161 520 
Q 2391 650 2566 903 
Q 2750 1166 2856 1509 
Q 2963 1853 2963 2188 
Q 2963 2622 2758 2865 
Q 2553 3109 2194 3109 
Q 1922 3109 1687 2981 
Q 1453 2853 1288 2613 
Q 1106 2353 998 2009 
Q 891 1666 891 1350 
z
" transform="scale(0.015625)"/>
     </defs>
     <use xlink:href="#DejaVuSans-394" transform="translate(0 0.09375)"/>
     <use xlink:href="#DejaVuSans-Oblique-56" transform="translate(68.408203 0.09375)"/>
     <use xlink:href="#DejaVuSans-Oblique-64" transform="translate(136.816406 -16.3125) scale(0.7)"/>
     <use xlink:href="#DejaVuSans-31" transform="translate(181.25 -16.3125) scale(0.7)"/>
    </g>
   </g>
   <g id="patch_11">
    <path d="M 78.72 94.151496 
C 79.436048 94.151496 80.122866 93.867007 80.629188 93.360684 
C 81.135511 92.854361 81.42 92.167544 81.42 91.451496 
C 81.42 90.735447 81.135511 90.04863 80.629188 89.542307 
C 80.122866 89.035985 79.436048 88.751496 78.72 88.751496 
C 78.003952 88.751496 77.317134 89.035985 76.810812 89.542307 
C 76.304489 90.04863 76.02 90.735447 76.02 91.451496 
C 76.02 92.167544 76.304489 92.854361 76.810812 93.360684 
C 77.317134 93.867007 78.003952 94.151496 78.72 94.151496 
z
" clip-path="url(#pafbfcaef38)" style="stroke: #000000; stroke-width: 2; stroke-linejoin: miter"/>
   </g>
   <g id="patch_12">
    <path d="M 78.72 31.5428 
C 79.436048 31.5428 80.122866 31.258311 80.629188 30.751988 
C 81.135511 30.245666 81.42 29.558848 81.42 28.8428 
C 81.42 28.126752 81.135511 27.439934 80.629188 26.933612 
C 80.122866 26.427289 79.436048 26.1428 78.72 26.1428 
C 78.003952 26.1428 77.317134 26.427289 76.810812 26.933612 
C 76.304489 27.439934 76.02 28.126752 76.02 28.8428 
C 76.02 29.558848 76.304489 30.245666 76.810812 30.751988 
C 77.317134 31.258311 78.003952 31.5428 78.72 31.5428 
z
" clip-path="url(#pafbfcaef38)" style="stroke: #000000; stroke-width: 2; stroke-linejoin: miter"/>
   </g>
   <g id="patch_13">
    <path d="M 78.72 13.5428 
C 79.436048 13.5428 80.122866 13.258311 80.629188 12.751988 
C 81.135511 12.245666 81.42 11.558848 81.42 10.8428 
C 81.42 10.126752 81.135511 9.439934 80.629188 8.933612 
C 80.122866 8.427289 79.436048 8.1428 78.72 8.1428 
C 78.003952 8.1428 77.317134 8.427289 76.810812 8.933612 
C 76.304489 9.439934 76.02 10.126752 76.02 10.8428 
C 76.02 11.558848 76.304489 12.245666 76.810812 12.751988 
C 77.317134 13.258311 78.003952 13.5428 78.72 13.5428 
z
" clip-path="url(#pafbfcaef38)" style="fill: #ffffff; stroke: #000000; stroke-width: 2; stroke-linejoin: miter"/>
   </g>
   <g id="text_17">
    <!-- $\Delta V_{out}$ -->
    <g transform="translate(85.02 14.705925) scale(0.14 -0.14)">
     <defs>
      <path id="DejaVuSans-Oblique-75" d="M 428 1388 
L 838 3500 
L 1416 3500 
L 1006 1409 
Q 975 1256 961 1147 
Q 947 1038 947 966 
Q 947 700 1109 554 
Q 1272 409 1569 409 
Q 2031 409 2368 721 
Q 2706 1034 2809 1563 
L 3194 3500 
L 3769 3500 
L 3091 0 
L 2516 0 
L 2631 550 
Q 2388 244 2052 76 
Q 1716 -91 1338 -91 
Q 878 -91 622 161 
Q 366 413 366 863 
Q 366 956 381 1097 
Q 397 1238 428 1388 
z
" transform="scale(0.015625)"/>
      <path id="DejaVuSans-Oblique-74" d="M 2706 3500 
L 2619 3053 
L 1472 3053 
L 1100 1153 
Q 1081 1047 1072 975 
Q 1063 903 1063 863 
Q 1063 663 1183 572 
Q 1303 481 1569 481 
L 2150 481 
L 2053 0 
L 1503 0 
Q 991 0 739 200 
Q 488 400 488 806 
Q 488 878 497 964 
Q 506 1050 525 1153 
L 897 3053 
L 409 3053 
L 500 3500 
L 978 3500 
L 1172 4494 
L 1747 4494 
L 1556 3500 
L 2706 3500 
z
" transform="scale(0.015625)"/>
     </defs>
     <use xlink:href="#DejaVuSans-394" transform="translate(0 0.09375)"/>
     <use xlink:href="#DejaVuSans-Oblique-56" transform="translate(68.408203 0.09375)"/>
     <use xlink:href="#DejaVuSans-Oblique-6f" transform="translate(136.816406 -16.3125) scale(0.7)"/>
     <use xlink:href="#DejaVuSans-Oblique-75" transform="translate(179.643555 -16.3125) scale(0.7)"/>
     <use xlink:href="#DejaVuSans-Oblique-74" transform="translate(224.008789 -16.3125) scale(0.7)"/>
    </g>
   </g>
   <g id="patch_14">
    <path d="M 315.72 156.551496 
C 316.436048 156.551496 317.122866 156.267007 317.629188 155.760684 
C 318.135511 155.254361 318.42 154.567544 318.42 153.851496 
C 318.42 153.135447 318.135511 152.44863 317.629188 151.942307 
C 317.122866 151.435985 316.436048 151.151496 315.72 151.151496 
C 315.003952 151.151496 314.317134 151.435985 313.810812 151.942307 
C 313.304489 152.44863 313.02 153.135447 313.02 153.851496 
C 313.02 154.567544 313.304489 155.254361 313.810812 155.760684 
C 314.317134 156.267007 315.003952 156.551496 315.72 156.551496 
z
" clip-path="url(#pafbfcaef38)" style="stroke: #000000; stroke-width: 2; stroke-linejoin: miter"/>
   </g>
   <g id="patch_15">
    <path d="M 315.72 156.551496 
C 316.436048 156.551496 317.122866 156.267007 317.629188 155.760684 
C 318.135511 155.254361 318.42 154.567544 318.42 153.851496 
C 318.42 153.135447 318.135511 152.44863 317.629188 151.942307 
C 317.122866 151.435985 316.436048 151.151496 315.72 151.151496 
C 315.003952 151.151496 314.317134 151.435985 313.810812 151.942307 
C 313.304489 152.44863 313.02 153.135447 313.02 153.851496 
C 313.02 154.567544 313.304489 155.254361 313.810812 155.760684 
C 314.317134 156.267007 315.003952 156.551496 315.72 156.551496 
z
" clip-path="url(#pafbfcaef38)" style="stroke: #000000; stroke-width: 2; stroke-linejoin: miter"/>
   </g>
   <g id="patch_16">
    <path d="M 315.72 66.551496 
C 316.436048 66.551496 317.122866 66.267007 317.629188 65.760684 
C 318.135511 65.254361 318.42 64.567544 318.42 63.851496 
C 318.42 63.135447 318.135511 62.44863 317.629188 61.942307 
C 317.122866 61.435985 316.436048 61.151496 315.72 61.151496 
C 315.003952 61.151496 314.317134 61.435985 313.810812 61.942307 
C 313.304489 62.44863 313.02 63.135447 313.02 63.851496 
C 313.02 64.567544 313.304489 65.254361 313.810812 65.760684 
C 314.317134 66.267007 315.003952 66.551496 315.72 66.551496 
z
" clip-path="url(#pafbfcaef38)" style="fill: #ffffff; stroke: #000000; stroke-width: 2; stroke-linejoin: miter"/>
   </g>
   <g id="text_18">
    <!-- $\Delta V_\mathrm{out}$ -->
    <g transform="translate(297.87 54.639933) scale(0.14 -0.14)">
     <defs>
      <path id="DejaVuSans-75" d="M 544 1381 
L 544 3500 
L 1119 3500 
L 1119 1403 
Q 1119 906 1312 657 
Q 1506 409 1894 409 
Q 2359 409 2629 706 
Q 2900 1003 2900 1516 
L 2900 3500 
L 3475 3500 
L 3475 0 
L 2900 0 
L 2900 538 
Q 2691 219 2414 64 
Q 2138 -91 1772 -91 
Q 1169 -91 856 284 
Q 544 659 544 1381 
z
M 1991 3584 
L 1991 3584 
z
" transform="scale(0.015625)"/>
      <path id="DejaVuSans-74" d="M 1172 4494 
L 1172 3500 
L 2356 3500 
L 2356 3053 
L 1172 3053 
L 1172 1153 
Q 1172 725 1289 603 
Q 1406 481 1766 481 
L 2356 481 
L 2356 0 
L 1766 0 
Q 1100 0 847 248 
Q 594 497 594 1153 
L 594 3053 
L 172 3053 
L 172 3500 
L 594 3500 
L 594 4494 
L 1172 4494 
z
" transform="scale(0.015625)"/>
     </defs>
     <use xlink:href="#DejaVuSans-394" transform="translate(0 0.09375)"/>
     <use xlink:href="#DejaVuSans-Oblique-56" transform="translate(68.408203 0.09375)"/>
     <use xlink:href="#DejaVuSans-6f" transform="translate(136.816406 -16.3125) scale(0.7)"/>
     <use xlink:href="#DejaVuSans-75" transform="translate(179.643555 -16.3125) scale(0.7)"/>
     <use xlink:href="#DejaVuSans-74" transform="translate(224.008789 -16.3125) scale(0.7)"/>
    </g>
   </g>
   <g id="patch_17">
    <path d="M 603.72 156.551496 
C 604.436048 156.551496 605.122866 156.267007 605.629188 155.760684 
C 606.135511 155.254361 606.42 154.567544 606.42 153.851496 
C 606.42 153.135447 606.135511 152.44863 605.629188 151.942307 
C 605.122866 151.435985 604.436048 151.151496 603.72 151.151496 
C 603.003952 151.151496 602.317134 151.435985 601.810812 151.942307 
C 601.304489 152.44863 601.02 153.135447 601.02 153.851496 
C 601.02 154.567544 601.304489 155.254361 601.810812 155.760684 
C 602.317134 156.267007 603.003952 156.551496 603.72 156.551496 
z
" clip-path="url(#pafbfcaef38)" style="stroke: #000000; stroke-width: 2; stroke-linejoin: miter"/>
   </g>
   <g id="text_19">
    <!-- $\Delta V_\mathrm{d1}$ -->
    <g transform="translate(565.36 157.714621) scale(0.14 -0.14)">
     <use xlink:href="#DejaVuSans-394" transform="translate(0 0.09375)"/>
     <use xlink:href="#DejaVuSans-Oblique-56" transform="translate(68.408203 0.09375)"/>
     <use xlink:href="#DejaVuSans-64" transform="translate(136.816406 -16.3125) scale(0.7)"/>
     <use xlink:href="#DejaVuSans-31" transform="translate(181.25 -16.3125) scale(0.7)"/>
    </g>
   </g>
   <g id="patch_18">
    <path d="M 603.72 48.551496 
C 604.436048 48.551496 605.122866 48.267007 605.629188 47.760684 
C 606.135511 47.254361 606.42 46.567544 606.42 45.851496 
C 606.42 45.135447 606.135511 44.44863 605.629188 43.942307 
C 605.122866 43.435985 604.436048 43.151496 603.72 43.151496 
C 603.003952 43.151496 602.317134 43.435985 601.810812 43.942307 
C 601.304489 44.44863 601.02 45.135447 601.02 45.851496 
C 601.02 46.567544 601.304489 47.254361 601.810812 47.760684 
C 602.317134 48.267007 603.003952 48.551496 603.72 48.551496 
z
" clip-path="url(#pafbfcaef38)" style="fill: #ffffff; stroke: #000000; stroke-width: 2; stroke-linejoin: miter"/>
   </g>
   <g id="text_20">
    <!-- $\Delta V_\mathrm{out}$ -->
    <g transform="translate(585.87 36.639933) scale(0.14 -0.14)">
     <use xlink:href="#DejaVuSans-394" transform="translate(0 0.09375)"/>
     <use xlink:href="#DejaVuSans-Oblique-56" transform="translate(68.408203 0.09375)"/>
     <use xlink:href="#DejaVuSans-6f" transform="translate(136.816406 -16.3125) scale(0.7)"/>
     <use xlink:href="#DejaVuSans-75" transform="translate(179.643555 -16.3125) scale(0.7)"/>
     <use xlink:href="#DejaVuSans-74" transform="translate(224.008789 -16.3125) scale(0.7)"/>
    </g>
   </g>
   <g id="patch_19">
    <path d="M 675.72 48.551496 
C 676.436048 48.551496 677.122866 48.267007 677.629188 47.760684 
C 678.135511 47.254361 678.42 46.567544 678.42 45.851496 
C 678.42 45.135447 678.135511 44.44863 677.629188 43.942307 
C 677.122866 43.435985 676.436048 43.151496 675.72 43.151496 
C 675.003952 43.151496 674.317134 43.435985 673.810812 43.942307 
C 673.304489 44.44863 673.02 45.135447 673.02 45.851496 
C 673.02 46.567544 673.304489 47.254361 673.810812 47.760684 
C 674.317134 48.267007 675.003952 48.551496 675.72 48.551496 
z
" clip-path="url(#pafbfcaef38)" style="fill: #ffffff; stroke: #000000; stroke-width: 2; stroke-linejoin: miter"/>
   </g>
   <g id="text_21">
    <!-- $\Delta V_\mathrm{out}$ -->
    <g transform="translate(657.87 36.639933) scale(0.14 -0.14)">
     <use xlink:href="#DejaVuSans-394" transform="translate(0 0.09375)"/>
     <use xlink:href="#DejaVuSans-Oblique-56" transform="translate(68.408203 0.09375)"/>
     <use xlink:href="#DejaVuSans-6f" transform="translate(136.816406 -16.3125) scale(0.7)"/>
     <use xlink:href="#DejaVuSans-75" transform="translate(179.643555 -16.3125) scale(0.7)"/>
     <use xlink:href="#DejaVuSans-74" transform="translate(224.008789 -16.3125) scale(0.7)"/>
    </g>
   </g>
  </g>
 </g>
 <defs>
  <clipPath id="pafbfcaef38">
   <rect x="0" y="0" width="695.7321" height="276.655496"/>
  </clipPath>
 </defs>
</svg>
