<?xml version="1.0" encoding="utf-8" standalone="no"?>
<!DOCTYPE svg PUBLIC "-//W3C//DTD SVG 1.1//EN"
  "http://www.w3.org/Graphics/SVG/1.1/DTD/svg11.dtd">
<svg xmlns:xlink="http://www.w3.org/1999/xlink" width="631.356pt" height="683.16pt" viewBox="0 0 631.356 683.16" xmlns="http://www.w3.org/2000/svg" version="1.1">
 <metadata>
  <rdf:RDF xmlns:dc="http://purl.org/dc/elements/1.1/" xmlns:cc="http://creativecommons.org/ns#" xmlns:rdf="http://www.w3.org/1999/02/22-rdf-syntax-ns#">
   <cc:Work>
    <dc:type rdf:resource="http://purl.org/dc/dcmitype/StillImage"/>
    <dc:date>2025-03-25T17:47:04.117750</dc:date>
    <dc:format>image/svg+xml</dc:format>
    <dc:creator>
     <cc:Agent>
      <dc:title>Matplotlib v3.9.2, https://matplotlib.org/</dc:title>
     </cc:Agent>
    </dc:creator>
   </cc:Work>
  </rdf:RDF>
 </metadata>
 <defs>
  <style type="text/css">*{stroke-linejoin: round; stroke-linecap: butt}</style>
 </defs>
 <g id="figure_1">
  <g id="patch_1">
   <path d="M 0 683.16 
L 631.356 683.16 
L 631.356 0 
L 0 0 
z
" style="fill: #ffffff"/>
  </g>
  <g id="axes_1">
   <g id="patch_2">
    <path d="M 43.668 82.48 
C 48.441656 82.48 53.020438 80.583406 56.395922 77.207922 
C 59.771406 73.832438 61.668 69.253656 61.668 64.48 
C 61.668 59.706344 59.771406 55.127562 56.395922 51.752078 
C 53.020438 48.376594 48.441656 46.48 43.668 46.48 
C 38.894344 46.48 34.315562 48.376594 30.940078 51.752078 
C 27.564594 55.127562 25.668 59.706344 25.668 64.48 
C 25.668 69.253656 27.564594 73.832438 30.940078 77.207922 
C 34.315562 80.583406 38.894344 82.48 43.668 82.48 
L 43.668 82.48 
z
" clip-path="url(#pc147133996)" style="fill: none; stroke: #000000; stroke-width: 2; stroke-linejoin: miter"/>
   </g>
   <g id="patch_3">
    <path d="M 43.668 262.48 
C 48.441656 262.48 53.020438 260.583406 56.395922 257.207922 
C 59.771406 253.832438 61.668 249.253656 61.668 244.48 
C 61.668 239.706344 59.771406 235.127562 56.395922 231.752078 
C 53.020438 228.376594 48.441656 226.48 43.668 226.48 
C 38.894344 226.48 34.315562 228.376594 30.940078 231.752078 
C 27.564594 235.127562 25.668 239.706344 25.668 244.48 
C 25.668 249.253656 27.564594 253.832438 30.940078 257.207922 
C 34.315562 260.583406 38.894344 262.48 43.668 262.48 
L 43.668 262.48 
z
" clip-path="url(#pc147133996)" style="fill: none; stroke: #000000; stroke-width: 2; stroke-linejoin: miter"/>
   </g>
   <g id="patch_4">
    <path d="M 43.668 442.48 
C 48.441656 442.48 53.020438 440.583406 56.395922 437.207922 
C 59.771406 433.832438 61.668 429.253656 61.668 424.48 
C 61.668 419.706344 59.771406 415.127562 56.395922 411.752078 
C 53.020438 408.376594 48.441656 406.48 43.668 406.48 
C 38.894344 406.48 34.315562 408.376594 30.940078 411.752078 
C 27.564594 415.127562 25.668 419.706344 25.668 424.48 
C 25.668 429.253656 27.564594 433.832438 30.940078 437.207922 
C 34.315562 440.583406 38.894344 442.48 43.668 442.48 
L 43.668 442.48 
z
" clip-path="url(#pc147133996)" style="fill: none; stroke: #000000; stroke-width: 2; stroke-linejoin: miter"/>
   </g>
   <g id="patch_5">
    <path d="M 43.668 622.48 
C 48.441656 622.48 53.020438 620.583406 56.395922 617.207922 
C 59.771406 613.832438 61.668 609.253656 61.668 604.48 
C 61.668 599.706344 59.771406 595.127562 56.395922 591.752078 
C 53.020438 588.376594 48.441656 586.48 43.668 586.48 
C 38.894344 586.48 34.315562 588.376594 30.940078 591.752078 
C 27.564594 595.127562 25.668 599.706344 25.668 604.48 
C 25.668 609.253656 27.564594 613.832438 30.940078 617.207922 
C 34.315562 620.583406 38.894344 622.48 43.668 622.48 
L 43.668 622.48 
z
" clip-path="url(#pc147133996)" style="fill: none; stroke: #000000; stroke-width: 2; stroke-linejoin: miter"/>
   </g>
   <g id="line2d_1">
    <path d="M 43.668 100.48 
L 43.668 82.48 
L 43.668 82.48 
M 43.668 46.48 
L 43.668 46.48 
L 43.668 28.48 
" clip-path="url(#pc147133996)" style="fill: none; stroke: #000000; stroke-width: 2; stroke-linecap: round"/>
   </g>
   <g id="line2d_2">
    <path d="M 47.268 73.48 
L 40.068 73.48 
" clip-path="url(#pc147133996)" style="fill: none; stroke: #000000; stroke-width: 2; stroke-linecap: round"/>
   </g>
   <g id="line2d_3">
    <path d="M 43.668 59.08 
L 43.668 51.88 
" clip-path="url(#pc147133996)" style="fill: none; stroke: #000000; stroke-width: 2; stroke-linecap: round"/>
   </g>
   <g id="line2d_4">
    <path d="M 47.268 55.48 
L 40.068 55.48 
" clip-path="url(#pc147133996)" style="fill: none; stroke: #000000; stroke-width: 2; stroke-linecap: round"/>
   </g>
   <g id="line2d_5">
    <path d="M 43.668 28.48 
L 61.668 28.48 
L 64.668 19.48 
L 70.668 37.48 
L 76.668 19.48 
L 82.668 37.48 
L 88.668 19.48 
L 94.668 37.48 
L 97.668 28.48 
L 115.668 28.48 
" clip-path="url(#pc147133996)" style="fill: none; stroke: #000000; stroke-width: 2; stroke-linecap: round"/>
   </g>
   <g id="line2d_6">
    <path d="M 43.668 100.48 
L 79.668 100.48 
L 115.668 100.48 
" clip-path="url(#pc147133996)" style="fill: none; stroke: #000000; stroke-width: 2; stroke-linecap: round"/>
   </g>
   <g id="line2d_7">
    <path d="M 151.668 100.48 
L 187.668 100.48 
L 223.668 100.48 
" clip-path="url(#pc147133996)" style="fill: none; stroke: #000000; stroke-width: 2; stroke-linecap: round"/>
   </g>
   <g id="line2d_8">
    <path d="M 223.668 100.48 
L 223.668 82.48 
L 214.668 79.48 
L 232.668 73.48 
L 214.668 67.48 
L 232.668 61.48 
L 214.668 55.48 
L 232.668 49.48 
L 223.668 46.48 
L 223.668 28.48 
" clip-path="url(#pc147133996)" style="fill: none; stroke: #000000; stroke-width: 2; stroke-linecap: round"/>
   </g>
   <g id="line2d_9">
    <path d="M 223.668 28.48 
L 187.668 28.48 
L 151.668 28.48 
" clip-path="url(#pc147133996)" style="fill: none; stroke: #000000; stroke-width: 2; stroke-linecap: round"/>
   </g>
   <g id="line2d_10">
    <path d="M 223.668 100.48 
L 259.668 100.48 
L 295.668 100.48 
" clip-path="url(#pc147133996)" style="fill: none; stroke: #000000; stroke-width: 2; stroke-linecap: round"/>
   </g>
   <g id="line2d_11">
    <path d="M 295.668 100.48 
L 259.668 100.48 
L 223.668 100.48 
" clip-path="url(#pc147133996)" style="fill: none; stroke: #000000; stroke-width: 2; stroke-linecap: round"/>
   </g>
   <g id="line2d_12">
    <path d="M 223.668 100.48 
L 259.668 100.48 
L 295.668 100.48 
" clip-path="url(#pc147133996)" style="fill: none; stroke: #000000; stroke-width: 2; stroke-linecap: round"/>
   </g>
   <g id="line2d_13">
    <path d="M 295.668 100.48 
L 295.668 82.48 
L 277.668 64.48 
L 295.668 46.48 
L 313.668 64.48 
L 295.668 82.48 
M 295.668 46.48 
L 295.668 28.48 
" clip-path="url(#pc147133996)" style="fill: none; stroke: #000000; stroke-width: 2; stroke-linecap: round"/>
   </g>
   <g id="line2d_14">
    <path d="M 299.268 73.48 
L 292.068 73.48 
" clip-path="url(#pc147133996)" style="fill: none; stroke: #000000; stroke-width: 2; stroke-linecap: round"/>
   </g>
   <g id="line2d_15">
    <path d="M 295.668 59.08 
L 295.668 51.88 
" clip-path="url(#pc147133996)" style="fill: none; stroke: #000000; stroke-width: 2; stroke-linecap: round"/>
   </g>
   <g id="line2d_16">
    <path d="M 299.268 55.48 
L 292.068 55.48 
" clip-path="url(#pc147133996)" style="fill: none; stroke: #000000; stroke-width: 2; stroke-linecap: round"/>
   </g>
   <g id="line2d_17">
    <path d="M 295.668 28.48 
L 313.668 28.48 
L 331.668 28.48 
" clip-path="url(#pc147133996)" style="fill: none; stroke: #000000; stroke-width: 2; stroke-linecap: round"/>
   </g>
   <g id="line2d_18">
    <path d="M 331.668 28.48 
L 349.668 28.48 
L 352.668 19.48 
L 358.668 37.48 
L 364.668 19.48 
L 370.668 37.48 
L 376.668 19.48 
L 382.668 37.48 
L 385.668 28.48 
L 403.668 28.48 
" clip-path="url(#pc147133996)" style="fill: none; stroke: #000000; stroke-width: 2; stroke-linecap: round"/>
   </g>
   <g id="line2d_19">
    <path d="M 295.668 100.48 
L 385.668 100.48 
L 475.668 100.48 
" clip-path="url(#pc147133996)" style="fill: none; stroke: #000000; stroke-width: 2; stroke-linecap: round"/>
   </g>
   <g id="line2d_20">
    <path d="M 475.668 28.48 
L 439.668 28.48 
L 403.668 28.48 
" clip-path="url(#pc147133996)" style="fill: none; stroke: #000000; stroke-width: 2; stroke-linecap: round"/>
   </g>
   <g id="line2d_21">
    <path d="M 511.668 28.48 
L 547.668 28.48 
L 583.668 28.48 
" clip-path="url(#pc147133996)" style="fill: none; stroke: #000000; stroke-width: 2; stroke-linecap: round"/>
   </g>
   <g id="line2d_22">
    <path d="M 583.668 28.48 
L 583.668 46.48 
L 592.668 49.48 
L 574.668 55.48 
L 592.668 61.48 
L 574.668 67.48 
L 592.668 73.48 
L 574.668 79.48 
L 583.668 82.48 
L 583.668 100.48 
" clip-path="url(#pc147133996)" style="fill: none; stroke: #000000; stroke-width: 2; stroke-linecap: round"/>
   </g>
   <g id="line2d_23">
    <path d="M 583.668 100.48 
L 547.668 100.48 
L 511.668 100.48 
" clip-path="url(#pc147133996)" style="fill: none; stroke: #000000; stroke-width: 2; stroke-linecap: round"/>
   </g>
   <g id="line2d_24">
    <path d="M 43.668 208.48 
L 43.668 226.48 
L 43.668 226.48 
M 43.668 262.48 
L 43.668 262.48 
L 43.668 280.48 
" clip-path="url(#pc147133996)" style="fill: none; stroke: #000000; stroke-width: 2; stroke-linecap: round"/>
   </g>
   <g id="line2d_25">
    <path d="M 43.668 244.48 
L 43.668 253.48 
" clip-path="url(#pc147133996)" style="fill: none; stroke: #000000; stroke-width: 2; stroke-linecap: round"/>
   </g>
   <g id="patch_6">
    <path d="M 40.968 244.48 
L 43.668 235.48 
L 46.368 244.48 
z
" clip-path="url(#pc147133996)"/>
   </g>
   <g id="line2d_26">
    <path d="M 43.668 280.48 
L 61.668 280.48 
L 79.668 280.48 
" clip-path="url(#pc147133996)" style="fill: none; stroke: #000000; stroke-width: 2; stroke-linecap: round"/>
   </g>
   <g id="line2d_27">
    <path d="M 79.668 280.48 
L 79.668 262.48 
L 70.668 259.48 
L 88.668 253.48 
L 70.668 247.48 
L 88.668 241.48 
L 70.668 235.48 
L 88.668 229.48 
L 79.668 226.48 
L 79.668 208.48 
" clip-path="url(#pc147133996)" style="fill: none; stroke: #000000; stroke-width: 2; stroke-linecap: round"/>
   </g>
   <g id="line2d_28">
    <path d="M 79.668 208.48 
L 61.668 208.48 
L 43.668 208.48 
" clip-path="url(#pc147133996)" style="fill: none; stroke: #000000; stroke-width: 2; stroke-linecap: round"/>
   </g>
   <g id="line2d_29">
    <path d="M 43.668 208.48 
L 79.668 208.48 
L 115.668 208.48 
" clip-path="url(#pc147133996)" style="fill: none; stroke: #000000; stroke-width: 2; stroke-linecap: round"/>
   </g>
   <g id="line2d_30">
    <path d="M 43.668 280.48 
L 79.668 280.48 
L 115.668 280.48 
" clip-path="url(#pc147133996)" style="fill: none; stroke: #000000; stroke-width: 2; stroke-linecap: round"/>
   </g>
   <g id="line2d_31">
    <path d="M 151.668 280.48 
L 187.668 280.48 
L 223.668 280.48 
" clip-path="url(#pc147133996)" style="fill: none; stroke: #000000; stroke-width: 2; stroke-linecap: round"/>
   </g>
   <g id="line2d_32">
    <path d="M 223.668 280.48 
L 223.668 262.48 
L 214.668 259.48 
L 232.668 253.48 
L 214.668 247.48 
L 232.668 241.48 
L 214.668 235.48 
L 232.668 229.48 
L 223.668 226.48 
L 223.668 208.48 
" clip-path="url(#pc147133996)" style="fill: none; stroke: #000000; stroke-width: 2; stroke-linecap: round"/>
   </g>
   <g id="line2d_33">
    <path d="M 223.668 208.48 
L 187.668 208.48 
L 151.668 208.48 
" clip-path="url(#pc147133996)" style="fill: none; stroke: #000000; stroke-width: 2; stroke-linecap: round"/>
   </g>
   <g id="line2d_34">
    <path d="M 198.018 216.58 
L 163.818 216.58 
" clip-path="url(#pc147133996)" style="fill: none; stroke: #000000; stroke-width: 2; stroke-linecap: round"/>
   </g>
   <g id="patch_7">
    <path d="M 198.018 212.98 
L 208.818 216.58 
L 198.018 220.18 
z
" clip-path="url(#pc147133996)"/>
   </g>
   <g id="line2d_35">
    <path d="M 223.668 280.48 
L 259.668 280.48 
L 295.668 280.48 
" clip-path="url(#pc147133996)" style="fill: none; stroke: #000000; stroke-width: 2; stroke-linecap: round"/>
   </g>
   <g id="line2d_36">
    <path d="M 295.668 280.48 
L 295.668 262.48 
M 295.668 226.48 
L 313.668 244.48 
L 295.668 262.48 
L 277.668 244.48 
L 295.668 226.48 
L 295.668 208.48 
" clip-path="url(#pc147133996)" style="fill: none; stroke: #000000; stroke-width: 2; stroke-linecap: round"/>
   </g>
   <g id="line2d_37">
    <path d="M 295.668 244.48 
L 295.668 235.48 
" clip-path="url(#pc147133996)" style="fill: none; stroke: #000000; stroke-width: 2; stroke-linecap: round"/>
   </g>
   <g id="patch_8">
    <path d="M 298.368 244.48 
L 295.668 253.48 
L 292.968 244.48 
z
" clip-path="url(#pc147133996)"/>
   </g>
   <g id="line2d_38">
    <path d="M 295.668 208.48 
L 349.668 208.48 
L 403.668 208.48 
" clip-path="url(#pc147133996)" style="fill: none; stroke: #000000; stroke-width: 2; stroke-linecap: round"/>
   </g>
   <g id="line2d_39">
    <path d="M 403.668 208.48 
L 403.668 226.48 
L 412.668 229.48 
L 394.668 235.48 
L 412.668 241.48 
L 394.668 247.48 
L 412.668 253.48 
L 394.668 259.48 
L 403.668 262.48 
L 403.668 280.48 
" clip-path="url(#pc147133996)" style="fill: none; stroke: #000000; stroke-width: 2; stroke-linecap: round"/>
   </g>
   <g id="line2d_40">
    <path d="M 403.668 280.48 
L 349.668 280.48 
L 295.668 280.48 
" clip-path="url(#pc147133996)" style="fill: none; stroke: #000000; stroke-width: 2; stroke-linecap: round"/>
   </g>
   <g id="line2d_41">
    <path d="M 295.668 280.48 
L 385.668 280.48 
L 475.668 280.48 
" clip-path="url(#pc147133996)" style="fill: none; stroke: #000000; stroke-width: 2; stroke-linecap: round"/>
   </g>
   <g id="line2d_42">
    <path d="M 475.668 208.48 
L 439.668 208.48 
L 403.668 208.48 
" clip-path="url(#pc147133996)" style="fill: none; stroke: #000000; stroke-width: 2; stroke-linecap: round"/>
   </g>
   <g id="line2d_43">
    <path d="M 511.668 208.48 
L 547.668 208.48 
L 583.668 208.48 
" clip-path="url(#pc147133996)" style="fill: none; stroke: #000000; stroke-width: 2; stroke-linecap: round"/>
   </g>
   <g id="line2d_44">
    <path d="M 583.668 208.48 
L 583.668 226.48 
L 592.668 229.48 
L 574.668 235.48 
L 592.668 241.48 
L 574.668 247.48 
L 592.668 253.48 
L 574.668 259.48 
L 583.668 262.48 
L 583.668 280.48 
" clip-path="url(#pc147133996)" style="fill: none; stroke: #000000; stroke-width: 2; stroke-linecap: round"/>
   </g>
   <g id="line2d_45">
    <path d="M 535.968 215.68 
L 570.168 215.68 
" clip-path="url(#pc147133996)" style="fill: none; stroke: #000000; stroke-width: 2; stroke-linecap: round"/>
   </g>
   <g id="patch_9">
    <path d="M 535.968 219.28 
L 525.168 215.68 
L 535.968 212.08 
z
" clip-path="url(#pc147133996)"/>
   </g>
   <g id="line2d_46">
    <path d="M 583.668 280.48 
L 547.668 280.48 
L 511.668 280.48 
" clip-path="url(#pc147133996)" style="fill: none; stroke: #000000; stroke-width: 2; stroke-linecap: round"/>
   </g>
   <g id="line2d_47">
    <path d="M 43.668 460.48 
L 43.668 442.48 
L 43.668 442.48 
M 43.668 406.48 
L 43.668 406.48 
L 43.668 388.48 
" clip-path="url(#pc147133996)" style="fill: none; stroke: #000000; stroke-width: 2; stroke-linecap: round"/>
   </g>
   <g id="line2d_48">
    <path d="M 47.268 433.48 
L 40.068 433.48 
" clip-path="url(#pc147133996)" style="fill: none; stroke: #000000; stroke-width: 2; stroke-linecap: round"/>
   </g>
   <g id="line2d_49">
    <path d="M 43.668 419.08 
L 43.668 411.88 
" clip-path="url(#pc147133996)" style="fill: none; stroke: #000000; stroke-width: 2; stroke-linecap: round"/>
   </g>
   <g id="line2d_50">
    <path d="M 47.268 415.48 
L 40.068 415.48 
" clip-path="url(#pc147133996)" style="fill: none; stroke: #000000; stroke-width: 2; stroke-linecap: round"/>
   </g>
   <g id="line2d_51">
    <path d="M 43.668 388.48 
L 61.668 388.48 
L 64.668 379.48 
L 70.668 397.48 
L 76.668 379.48 
L 82.668 397.48 
L 88.668 379.48 
L 94.668 397.48 
L 97.668 388.48 
L 115.668 388.48 
" clip-path="url(#pc147133996)" style="fill: none; stroke: #000000; stroke-width: 2; stroke-linecap: round"/>
   </g>
   <g id="line2d_52">
    <path d="M 43.668 460.48 
L 79.668 460.48 
L 115.668 460.48 
" clip-path="url(#pc147133996)" style="fill: none; stroke: #000000; stroke-width: 2; stroke-linecap: round"/>
   </g>
   <g id="line2d_53">
    <path d="M 151.668 460.48 
L 187.668 460.48 
L 223.668 460.48 
" clip-path="url(#pc147133996)" style="fill: none; stroke: #000000; stroke-width: 2; stroke-linecap: round"/>
   </g>
   <g id="line2d_54">
    <path d="M 223.668 460.48 
L 223.668 442.48 
L 214.668 439.48 
L 232.668 433.48 
L 214.668 427.48 
L 232.668 421.48 
L 214.668 415.48 
L 232.668 409.48 
L 223.668 406.48 
L 223.668 388.48 
" clip-path="url(#pc147133996)" style="fill: none; stroke: #000000; stroke-width: 2; stroke-linecap: round"/>
   </g>
   <g id="line2d_55">
    <path d="M 223.668 388.48 
L 187.668 388.48 
L 151.668 388.48 
" clip-path="url(#pc147133996)" style="fill: none; stroke: #000000; stroke-width: 2; stroke-linecap: round"/>
   </g>
   <g id="line2d_56">
    <path d="M 223.668 460.48 
L 259.668 460.48 
L 295.668 460.48 
" clip-path="url(#pc147133996)" style="fill: none; stroke: #000000; stroke-width: 2; stroke-linecap: round"/>
   </g>
   <g id="line2d_57">
    <path d="M 295.668 460.48 
L 295.668 442.48 
M 295.668 406.48 
L 313.668 424.48 
L 295.668 442.48 
L 277.668 424.48 
L 295.668 406.48 
L 295.668 388.48 
" clip-path="url(#pc147133996)" style="fill: none; stroke: #000000; stroke-width: 2; stroke-linecap: round"/>
   </g>
   <g id="line2d_58">
    <path d="M 295.668 424.48 
L 295.668 415.48 
" clip-path="url(#pc147133996)" style="fill: none; stroke: #000000; stroke-width: 2; stroke-linecap: round"/>
   </g>
   <g id="patch_10">
    <path d="M 298.368 424.48 
L 295.668 433.48 
L 292.968 424.48 
z
" clip-path="url(#pc147133996)"/>
   </g>
   <g id="line2d_59">
    <path d="M 295.668 388.48 
L 349.668 388.48 
L 403.668 388.48 
" clip-path="url(#pc147133996)" style="fill: none; stroke: #000000; stroke-width: 2; stroke-linecap: round"/>
   </g>
   <g id="line2d_60">
    <path d="M 403.668 388.48 
L 403.668 406.48 
L 412.668 409.48 
L 394.668 415.48 
L 412.668 421.48 
L 394.668 427.48 
L 412.668 433.48 
L 394.668 439.48 
L 403.668 442.48 
L 403.668 460.48 
" clip-path="url(#pc147133996)" style="fill: none; stroke: #000000; stroke-width: 2; stroke-linecap: round"/>
   </g>
   <g id="line2d_61">
    <path d="M 403.668 460.48 
L 349.668 460.48 
L 295.668 460.48 
" clip-path="url(#pc147133996)" style="fill: none; stroke: #000000; stroke-width: 2; stroke-linecap: round"/>
   </g>
   <g id="line2d_62">
    <path d="M 295.668 460.48 
L 385.668 460.48 
L 475.668 460.48 
" clip-path="url(#pc147133996)" style="fill: none; stroke: #000000; stroke-width: 2; stroke-linecap: round"/>
   </g>
   <g id="line2d_63">
    <path d="M 475.668 388.48 
L 439.668 388.48 
L 403.668 388.48 
" clip-path="url(#pc147133996)" style="fill: none; stroke: #000000; stroke-width: 2; stroke-linecap: round"/>
   </g>
   <g id="line2d_64">
    <path d="M 511.668 388.48 
L 547.668 388.48 
L 583.668 388.48 
" clip-path="url(#pc147133996)" style="fill: none; stroke: #000000; stroke-width: 2; stroke-linecap: round"/>
   </g>
   <g id="line2d_65">
    <path d="M 583.668 388.48 
L 583.668 406.48 
L 592.668 409.48 
L 574.668 415.48 
L 592.668 421.48 
L 574.668 427.48 
L 592.668 433.48 
L 574.668 439.48 
L 583.668 442.48 
L 583.668 460.48 
" clip-path="url(#pc147133996)" style="fill: none; stroke: #000000; stroke-width: 2; stroke-linecap: round"/>
   </g>
   <g id="line2d_66">
    <path d="M 535.968 395.68 
L 570.168 395.68 
" clip-path="url(#pc147133996)" style="fill: none; stroke: #000000; stroke-width: 2; stroke-linecap: round"/>
   </g>
   <g id="patch_11">
    <path d="M 535.968 399.28 
L 525.168 395.68 
L 535.968 392.08 
z
" clip-path="url(#pc147133996)"/>
   </g>
   <g id="line2d_67">
    <path d="M 583.668 460.48 
L 547.668 460.48 
L 511.668 460.48 
" clip-path="url(#pc147133996)" style="fill: none; stroke: #000000; stroke-width: 2; stroke-linecap: round"/>
   </g>
   <g id="line2d_68">
    <path d="M 43.668 568.48 
L 43.668 586.48 
L 43.668 586.48 
M 43.668 622.48 
L 43.668 622.48 
L 43.668 640.48 
" clip-path="url(#pc147133996)" style="fill: none; stroke: #000000; stroke-width: 2; stroke-linecap: round"/>
   </g>
   <g id="line2d_69">
    <path d="M 43.668 604.48 
L 43.668 613.48 
" clip-path="url(#pc147133996)" style="fill: none; stroke: #000000; stroke-width: 2; stroke-linecap: round"/>
   </g>
   <g id="patch_12">
    <path d="M 40.968 604.48 
L 43.668 595.48 
L 46.368 604.48 
z
" clip-path="url(#pc147133996)"/>
   </g>
   <g id="line2d_70">
    <path d="M 43.668 640.48 
L 61.668 640.48 
L 79.668 640.48 
" clip-path="url(#pc147133996)" style="fill: none; stroke: #000000; stroke-width: 2; stroke-linecap: round"/>
   </g>
   <g id="line2d_71">
    <path d="M 79.668 640.48 
L 79.668 622.48 
L 70.668 619.48 
L 88.668 613.48 
L 70.668 607.48 
L 88.668 601.48 
L 70.668 595.48 
L 88.668 589.48 
L 79.668 586.48 
L 79.668 568.48 
" clip-path="url(#pc147133996)" style="fill: none; stroke: #000000; stroke-width: 2; stroke-linecap: round"/>
   </g>
   <g id="line2d_72">
    <path d="M 79.668 568.48 
L 61.668 568.48 
L 43.668 568.48 
" clip-path="url(#pc147133996)" style="fill: none; stroke: #000000; stroke-width: 2; stroke-linecap: round"/>
   </g>
   <g id="line2d_73">
    <path d="M 43.668 568.48 
L 79.668 568.48 
L 115.668 568.48 
" clip-path="url(#pc147133996)" style="fill: none; stroke: #000000; stroke-width: 2; stroke-linecap: round"/>
   </g>
   <g id="line2d_74">
    <path d="M 43.668 640.48 
L 79.668 640.48 
L 115.668 640.48 
" clip-path="url(#pc147133996)" style="fill: none; stroke: #000000; stroke-width: 2; stroke-linecap: round"/>
   </g>
   <g id="line2d_75">
    <path d="M 151.668 640.48 
L 187.668 640.48 
L 223.668 640.48 
" clip-path="url(#pc147133996)" style="fill: none; stroke: #000000; stroke-width: 2; stroke-linecap: round"/>
   </g>
   <g id="line2d_76">
    <path d="M 223.668 640.48 
L 223.668 622.48 
L 214.668 619.48 
L 232.668 613.48 
L 214.668 607.48 
L 232.668 601.48 
L 214.668 595.48 
L 232.668 589.48 
L 223.668 586.48 
L 223.668 568.48 
" clip-path="url(#pc147133996)" style="fill: none; stroke: #000000; stroke-width: 2; stroke-linecap: round"/>
   </g>
   <g id="line2d_77">
    <path d="M 223.668 568.48 
L 187.668 568.48 
L 151.668 568.48 
" clip-path="url(#pc147133996)" style="fill: none; stroke: #000000; stroke-width: 2; stroke-linecap: round"/>
   </g>
   <g id="line2d_78">
    <path d="M 198.018 576.58 
L 163.818 576.58 
" clip-path="url(#pc147133996)" style="fill: none; stroke: #000000; stroke-width: 2; stroke-linecap: round"/>
   </g>
   <g id="patch_13">
    <path d="M 198.018 572.98 
L 208.818 576.58 
L 198.018 580.18 
z
" clip-path="url(#pc147133996)"/>
   </g>
   <g id="line2d_79">
    <path d="M 223.668 640.48 
L 259.668 640.48 
L 295.668 640.48 
" clip-path="url(#pc147133996)" style="fill: none; stroke: #000000; stroke-width: 2; stroke-linecap: round"/>
   </g>
   <g id="line2d_80">
    <path d="M 295.668 640.48 
L 295.668 622.48 
L 277.668 604.48 
L 295.668 586.48 
L 313.668 604.48 
L 295.668 622.48 
M 295.668 586.48 
L 295.668 568.48 
" clip-path="url(#pc147133996)" style="fill: none; stroke: #000000; stroke-width: 2; stroke-linecap: round"/>
   </g>
   <g id="line2d_81">
    <path d="M 299.268 613.48 
L 292.068 613.48 
" clip-path="url(#pc147133996)" style="fill: none; stroke: #000000; stroke-width: 2; stroke-linecap: round"/>
   </g>
   <g id="line2d_82">
    <path d="M 295.668 599.08 
L 295.668 591.88 
" clip-path="url(#pc147133996)" style="fill: none; stroke: #000000; stroke-width: 2; stroke-linecap: round"/>
   </g>
   <g id="line2d_83">
    <path d="M 299.268 595.48 
L 292.068 595.48 
" clip-path="url(#pc147133996)" style="fill: none; stroke: #000000; stroke-width: 2; stroke-linecap: round"/>
   </g>
   <g id="line2d_84">
    <path d="M 295.668 568.48 
L 313.668 568.48 
L 331.668 568.48 
" clip-path="url(#pc147133996)" style="fill: none; stroke: #000000; stroke-width: 2; stroke-linecap: round"/>
   </g>
   <g id="line2d_85">
    <path d="M 331.668 568.48 
L 349.668 568.48 
L 352.668 559.48 
L 358.668 577.48 
L 364.668 559.48 
L 370.668 577.48 
L 376.668 559.48 
L 382.668 577.48 
L 385.668 568.48 
L 403.668 568.48 
" clip-path="url(#pc147133996)" style="fill: none; stroke: #000000; stroke-width: 2; stroke-linecap: round"/>
   </g>
   <g id="line2d_86">
    <path d="M 403.668 568.48 
L 439.668 568.48 
L 475.668 568.48 
" clip-path="url(#pc147133996)" style="fill: none; stroke: #000000; stroke-width: 2; stroke-linecap: round"/>
   </g>
   <g id="line2d_87">
    <path d="M 295.668 640.48 
L 385.668 640.48 
L 475.668 640.48 
" clip-path="url(#pc147133996)" style="fill: none; stroke: #000000; stroke-width: 2; stroke-linecap: round"/>
   </g>
   <g id="line2d_88">
    <path d="M 475.668 568.48 
L 439.668 568.48 
L 403.668 568.48 
" clip-path="url(#pc147133996)" style="fill: none; stroke: #000000; stroke-width: 2; stroke-linecap: round"/>
   </g>
   <g id="line2d_89">
    <path d="M 511.668 568.48 
L 547.668 568.48 
L 583.668 568.48 
" clip-path="url(#pc147133996)" style="fill: none; stroke: #000000; stroke-width: 2; stroke-linecap: round"/>
   </g>
   <g id="line2d_90">
    <path d="M 583.668 568.48 
L 583.668 586.48 
L 592.668 589.48 
L 574.668 595.48 
L 592.668 601.48 
L 574.668 607.48 
L 592.668 613.48 
L 574.668 619.48 
L 583.668 622.48 
L 583.668 640.48 
" clip-path="url(#pc147133996)" style="fill: none; stroke: #000000; stroke-width: 2; stroke-linecap: round"/>
   </g>
   <g id="line2d_91">
    <path d="M 583.668 640.48 
L 547.668 640.48 
L 511.668 640.48 
" clip-path="url(#pc147133996)" style="fill: none; stroke: #000000; stroke-width: 2; stroke-linecap: round"/>
   </g>
   <g id="text_1">
    <!-- $v_{s}$ -->
    <g transform="translate(8.208 68.343125) scale(0.14 -0.14)">
     <defs>
      <path id="DejaVuSans-Oblique-76" d="M 459 3500 
L 1069 3500 
L 1581 525 
L 3256 3500 
L 3866 3500 
L 1875 0 
L 1100 0 
L 459 3500 
z
" transform="scale(0.015625)"/>
      <path id="DejaVuSans-Oblique-73" d="M 3200 3397 
L 3091 2853 
Q 2863 2978 2609 3040 
Q 2356 3103 2088 3103 
Q 1634 3103 1373 2948 
Q 1113 2794 1113 2528 
Q 1113 2219 1719 2053 
Q 1766 2041 1788 2034 
L 1972 1978 
Q 2547 1819 2739 1644 
Q 2931 1469 2931 1166 
Q 2931 609 2489 259 
Q 2047 -91 1331 -91 
Q 1053 -91 747 -37 
Q 441 16 72 128 
L 184 722 
Q 500 559 806 475 
Q 1113 391 1394 391 
Q 1816 391 2080 572 
Q 2344 753 2344 1031 
Q 2344 1331 1650 1516 
L 1591 1531 
L 1394 1581 
Q 956 1697 753 1886 
Q 550 2075 550 2369 
Q 550 2928 970 3256 
Q 1391 3584 2113 3584 
Q 2397 3584 2667 3537 
Q 2938 3491 3200 3397 
z
" transform="scale(0.015625)"/>
     </defs>
     <use xlink:href="#DejaVuSans-Oblique-76" transform="translate(0 0.3125)"/>
     <use xlink:href="#DejaVuSans-Oblique-73" transform="translate(59.179688 -16.09375) scale(0.7)"/>
    </g>
   </g>
   <g id="patch_14">
    <path d="M 115.668 31.18 
C 116.384048 31.18 117.070866 30.895511 117.577188 30.389188 
C 118.083511 29.882866 118.368 29.196048 118.368 28.48 
C 118.368 27.763952 118.083511 27.077134 117.577188 26.570812 
C 117.070866 26.064489 116.384048 25.78 115.668 25.78 
C 114.951952 25.78 114.265134 26.064489 113.758812 26.570812 
C 113.252489 27.077134 112.968 27.763952 112.968 28.48 
C 112.968 29.196048 113.252489 29.882866 113.758812 30.389188 
C 114.265134 30.895511 114.951952 31.18 115.668 31.18 
z
" clip-path="url(#pc147133996)" style="fill: #ffffff; stroke: #000000; stroke-width: 2; stroke-linejoin: miter"/>
   </g>
   <g id="text_2">
    <!-- $R_{s}$ -->
    <g transform="translate(73.388 51.717813) scale(0.14 -0.14)">
     <defs>
      <path id="DejaVuSans-Oblique-52" d="M 1613 4147 
L 1294 2491 
L 2106 2491 
Q 2584 2491 2879 2755 
Q 3175 3019 3175 3444 
Q 3175 3784 2976 3965 
Q 2778 4147 2406 4147 
L 1613 4147 
z
M 2772 2241 
Q 2972 2194 3105 2009 
Q 3238 1825 3413 1275 
L 3809 0 
L 3144 0 
L 2778 1197 
Q 2638 1659 2453 1815 
Q 2269 1972 1888 1972 
L 1191 1972 
L 806 0 
L 172 0 
L 1081 4666 
L 2503 4666 
Q 3150 4666 3495 4373 
Q 3841 4081 3841 3531 
Q 3841 3044 3547 2687 
Q 3253 2331 2772 2241 
z
" transform="scale(0.015625)"/>
     </defs>
     <use xlink:href="#DejaVuSans-Oblique-52" transform="translate(0 0.09375)"/>
     <use xlink:href="#DejaVuSans-Oblique-73" transform="translate(69.482422 -16.3125) scale(0.7)"/>
    </g>
   </g>
   <g id="patch_15">
    <path d="M 115.668 103.18 
C 116.384048 103.18 117.070866 102.895511 117.577188 102.389188 
C 118.083511 101.882866 118.368 101.196048 118.368 100.48 
C 118.368 99.763952 118.083511 99.077134 117.577188 98.570812 
C 117.070866 98.064489 116.384048 97.78 115.668 97.78 
C 114.951952 97.78 114.265134 98.064489 113.758812 98.570812 
C 113.252489 99.077134 112.968 99.763952 112.968 100.48 
C 112.968 101.196048 113.252489 101.882866 113.758812 102.389188 
C 114.265134 102.895511 114.951952 103.18 115.668 103.18 
z
" clip-path="url(#pc147133996)" style="fill: #ffffff; stroke: #000000; stroke-width: 2; stroke-linejoin: miter"/>
   </g>
   <g id="patch_16">
    <path d="M 223.668 103.18 
C 224.384048 103.18 225.070866 102.895511 225.577188 102.389188 
C 226.083511 101.882866 226.368 101.196048 226.368 100.48 
C 226.368 99.763952 226.083511 99.077134 225.577188 98.570812 
C 225.070866 98.064489 224.384048 97.78 223.668 97.78 
C 222.951952 97.78 222.265134 98.064489 221.758812 98.570812 
C 221.252489 99.077134 220.968 99.763952 220.968 100.48 
C 220.968 101.196048 221.252489 101.882866 221.758812 102.389188 
C 222.265134 102.895511 222.951952 103.18 223.668 103.18 
z
" clip-path="url(#pc147133996)" style="stroke: #000000; stroke-width: 2; stroke-linejoin: miter"/>
   </g>
   <g id="text_3">
    <!-- $R_{in}$ -->
    <g transform="translate(236.268 68.343125) scale(0.14 -0.14)">
     <defs>
      <path id="DejaVuSans-Oblique-69" d="M 1172 4863 
L 1747 4863 
L 1606 4134 
L 1031 4134 
L 1172 4863 
z
M 909 3500 
L 1484 3500 
L 800 0 
L 225 0 
L 909 3500 
z
" transform="scale(0.015625)"/>
      <path id="DejaVuSans-Oblique-6e" d="M 3566 2113 
L 3156 0 
L 2578 0 
L 2988 2091 
Q 3016 2238 3031 2350 
Q 3047 2463 3047 2528 
Q 3047 2791 2881 2937 
Q 2716 3084 2419 3084 
Q 1956 3084 1622 2776 
Q 1288 2469 1184 1941 
L 800 0 
L 225 0 
L 903 3500 
L 1478 3500 
L 1363 2950 
Q 1603 3253 1940 3418 
Q 2278 3584 2650 3584 
Q 3113 3584 3367 3334 
Q 3622 3084 3622 2631 
Q 3622 2519 3608 2391 
Q 3594 2263 3566 2113 
z
" transform="scale(0.015625)"/>
     </defs>
     <use xlink:href="#DejaVuSans-Oblique-52" transform="translate(0 0.09375)"/>
     <use xlink:href="#DejaVuSans-Oblique-69" transform="translate(69.482422 -16.3125) scale(0.7)"/>
     <use xlink:href="#DejaVuSans-Oblique-6e" transform="translate(88.930664 -16.3125) scale(0.7)"/>
    </g>
   </g>
   <g id="text_4">
    <!-- $-$ -->
    <g transform="translate(199.308 86.343125) scale(0.14 -0.14)">
     <defs>
      <path id="DejaVuSans-2212" d="M 678 2272 
L 4684 2272 
L 4684 1741 
L 678 1741 
L 678 2272 
z
" transform="scale(0.015625)"/>
     </defs>
     <use xlink:href="#DejaVuSans-2212" transform="translate(0 0.5)"/>
    </g>
   </g>
   <g id="text_5">
    <!-- $v_{in}$ -->
    <g transform="translate(193.428 68.343125) scale(0.14 -0.14)">
     <use xlink:href="#DejaVuSans-Oblique-76" transform="translate(0 0.3125)"/>
     <use xlink:href="#DejaVuSans-Oblique-69" transform="translate(59.179688 -16.09375) scale(0.7)"/>
     <use xlink:href="#DejaVuSans-Oblique-6e" transform="translate(78.62793 -16.09375) scale(0.7)"/>
    </g>
   </g>
   <g id="text_6">
    <!-- + -->
    <g transform="translate(199.336438 50.343125) scale(0.14 -0.14)">
     <defs>
      <path id="DejaVuSans-2b" d="M 2944 4013 
L 2944 2272 
L 4684 2272 
L 4684 1741 
L 2944 1741 
L 2944 0 
L 2419 0 
L 2419 1741 
L 678 1741 
L 678 2272 
L 2419 2272 
L 2419 4013 
L 2944 4013 
z
" transform="scale(0.015625)"/>
     </defs>
     <use xlink:href="#DejaVuSans-2b"/>
    </g>
   </g>
   <g id="patch_17">
    <path d="M 151.668 31.18 
C 152.384048 31.18 153.070866 30.895511 153.577188 30.389188 
C 154.083511 29.882866 154.368 29.196048 154.368 28.48 
C 154.368 27.763952 154.083511 27.077134 153.577188 26.570812 
C 153.070866 26.064489 152.384048 25.78 151.668 25.78 
C 150.951952 25.78 150.265134 26.064489 149.758812 26.570812 
C 149.252489 27.077134 148.968 27.763952 148.968 28.48 
C 148.968 29.196048 149.252489 29.882866 149.758812 30.389188 
C 150.265134 30.895511 150.951952 31.18 151.668 31.18 
z
" clip-path="url(#pc147133996)" style="fill: #ffffff; stroke: #000000; stroke-width: 2; stroke-linejoin: miter"/>
   </g>
   <g id="patch_18">
    <path d="M 295.668 103.18 
C 296.384048 103.18 297.070866 102.895511 297.577188 102.389188 
C 298.083511 101.882866 298.368 101.196048 298.368 100.48 
C 298.368 99.763952 298.083511 99.077134 297.577188 98.570812 
C 297.070866 98.064489 296.384048 97.78 295.668 97.78 
C 294.951952 97.78 294.265134 98.064489 293.758812 98.570812 
C 293.252489 99.077134 292.968 99.763952 292.968 100.48 
C 292.968 101.196048 293.252489 101.882866 293.758812 102.389188 
C 294.265134 102.895511 294.951952 103.18 295.668 103.18 
z
" clip-path="url(#pc147133996)" style="stroke: #000000; stroke-width: 2; stroke-linejoin: miter"/>
   </g>
   <g id="patch_19">
    <path d="M 223.668 103.18 
C 224.384048 103.18 225.070866 102.895511 225.577188 102.389188 
C 226.083511 101.882866 226.368 101.196048 226.368 100.48 
C 226.368 99.763952 226.083511 99.077134 225.577188 98.570812 
C 225.070866 98.064489 224.384048 97.78 223.668 97.78 
C 222.951952 97.78 222.265134 98.064489 221.758812 98.570812 
C 221.252489 99.077134 220.968 99.763952 220.968 100.48 
C 220.968 101.196048 221.252489 101.882866 221.758812 102.389188 
C 222.265134 102.895511 222.951952 103.18 223.668 103.18 
z
" clip-path="url(#pc147133996)" style="stroke: #000000; stroke-width: 2; stroke-linejoin: miter"/>
   </g>
   <g id="patch_20">
    <path d="M 295.668 103.18 
C 296.384048 103.18 297.070866 102.895511 297.577188 102.389188 
C 298.083511 101.882866 298.368 101.196048 298.368 100.48 
C 298.368 99.763952 298.083511 99.077134 297.577188 98.570812 
C 297.070866 98.064489 296.384048 97.78 295.668 97.78 
C 294.951952 97.78 294.265134 98.064489 293.758812 98.570812 
C 293.252489 99.077134 292.968 99.763952 292.968 100.48 
C 292.968 101.196048 293.252489 101.882866 293.758812 102.389188 
C 294.265134 102.895511 294.951952 103.18 295.668 103.18 
z
" clip-path="url(#pc147133996)" style="stroke: #000000; stroke-width: 2; stroke-linejoin: miter"/>
   </g>
   <g id="text_7">
    <!-- $A_{v}v_{in}$ -->
    <g transform="translate(317.268 68.343125) scale(0.14 -0.14)">
     <defs>
      <path id="DejaVuSans-Oblique-41" d="M 2356 4666 
L 3072 4666 
L 3938 0 
L 3278 0 
L 3084 1197 
L 984 1197 
L 325 0 
L -341 0 
L 2356 4666 
z
M 2584 4044 
L 1275 1722 
L 2988 1722 
L 2584 4044 
z
" transform="scale(0.015625)"/>
     </defs>
     <use xlink:href="#DejaVuSans-Oblique-41" transform="translate(0 0.09375)"/>
     <use xlink:href="#DejaVuSans-Oblique-76" transform="translate(68.408203 -16.3125) scale(0.7)"/>
     <use xlink:href="#DejaVuSans-Oblique-76" transform="translate(112.568359 0.09375)"/>
     <use xlink:href="#DejaVuSans-Oblique-69" transform="translate(171.748047 -16.3125) scale(0.7)"/>
     <use xlink:href="#DejaVuSans-Oblique-6e" transform="translate(191.196289 -16.3125) scale(0.7)"/>
    </g>
   </g>
   <g id="text_8">
    <!-- $R_{out}$ -->
    <g transform="translate(354.578 12.968438) scale(0.14 -0.14)">
     <defs>
      <path id="DejaVuSans-Oblique-6f" d="M 1625 -91 
Q 1009 -91 651 289 
Q 294 669 294 1325 
Q 294 1706 417 2101 
Q 541 2497 738 2766 
Q 1047 3184 1428 3384 
Q 1809 3584 2291 3584 
Q 2888 3584 3255 3212 
Q 3622 2841 3622 2241 
Q 3622 1825 3500 1412 
Q 3378 1000 3181 728 
Q 2875 309 2494 109 
Q 2113 -91 1625 -91 
z
M 891 1344 
Q 891 869 1089 633 
Q 1288 397 1691 397 
Q 2269 397 2648 901 
Q 3028 1406 3028 2181 
Q 3028 2634 2825 2865 
Q 2622 3097 2228 3097 
Q 1903 3097 1650 2945 
Q 1397 2794 1197 2484 
Q 1050 2253 970 1956 
Q 891 1659 891 1344 
z
" transform="scale(0.015625)"/>
      <path id="DejaVuSans-Oblique-75" d="M 428 1388 
L 838 3500 
L 1416 3500 
L 1006 1409 
Q 975 1256 961 1147 
Q 947 1038 947 966 
Q 947 700 1109 554 
Q 1272 409 1569 409 
Q 2031 409 2368 721 
Q 2706 1034 2809 1563 
L 3194 3500 
L 3769 3500 
L 3091 0 
L 2516 0 
L 2631 550 
Q 2388 244 2052 76 
Q 1716 -91 1338 -91 
Q 878 -91 622 161 
Q 366 413 366 863 
Q 366 956 381 1097 
Q 397 1238 428 1388 
z
" transform="scale(0.015625)"/>
      <path id="DejaVuSans-Oblique-74" d="M 2706 3500 
L 2619 3053 
L 1472 3053 
L 1100 1153 
Q 1081 1047 1072 975 
Q 1063 903 1063 863 
Q 1063 663 1183 572 
Q 1303 481 1569 481 
L 2150 481 
L 2053 0 
L 1503 0 
Q 991 0 739 200 
Q 488 400 488 806 
Q 488 878 497 964 
Q 506 1050 525 1153 
L 897 3053 
L 409 3053 
L 500 3500 
L 978 3500 
L 1172 4494 
L 1747 4494 
L 1556 3500 
L 2706 3500 
z
" transform="scale(0.015625)"/>
     </defs>
     <use xlink:href="#DejaVuSans-Oblique-52" transform="translate(0 0.09375)"/>
     <use xlink:href="#DejaVuSans-Oblique-6f" transform="translate(69.482422 -16.3125) scale(0.7)"/>
     <use xlink:href="#DejaVuSans-Oblique-75" transform="translate(112.30957 -16.3125) scale(0.7)"/>
     <use xlink:href="#DejaVuSans-Oblique-74" transform="translate(156.674805 -16.3125) scale(0.7)"/>
    </g>
   </g>
   <g id="patch_21">
    <path d="M 475.668 103.18 
C 476.384048 103.18 477.070866 102.895511 477.577188 102.389188 
C 478.083511 101.882866 478.368 101.196048 478.368 100.48 
C 478.368 99.763952 478.083511 99.077134 477.577188 98.570812 
C 477.070866 98.064489 476.384048 97.78 475.668 97.78 
C 474.951952 97.78 474.265134 98.064489 473.758812 98.570812 
C 473.252489 99.077134 472.968 99.763952 472.968 100.48 
C 472.968 101.196048 473.252489 101.882866 473.758812 102.389188 
C 474.265134 102.895511 474.951952 103.18 475.668 103.18 
z
" clip-path="url(#pc147133996)" style="fill: #ffffff; stroke: #000000; stroke-width: 2; stroke-linejoin: miter"/>
   </g>
   <g id="patch_22">
    <path d="M 475.668 31.18 
C 476.384048 31.18 477.070866 30.895511 477.577188 30.389188 
C 478.083511 29.882866 478.368 29.196048 478.368 28.48 
C 478.368 27.763952 478.083511 27.077134 477.577188 26.570812 
C 477.070866 26.064489 476.384048 25.78 475.668 25.78 
C 474.951952 25.78 474.265134 26.064489 473.758812 26.570812 
C 473.252489 27.077134 472.968 27.763952 472.968 28.48 
C 472.968 29.196048 473.252489 29.882866 473.758812 30.389188 
C 474.265134 30.895511 474.951952 31.18 475.668 31.18 
z
" clip-path="url(#pc147133996)" style="fill: #ffffff; stroke: #000000; stroke-width: 2; stroke-linejoin: miter"/>
   </g>
   <g id="patch_23">
    <path d="M 511.668 31.18 
C 512.384048 31.18 513.070866 30.895511 513.577188 30.389188 
C 514.083511 29.882866 514.368 29.196048 514.368 28.48 
C 514.368 27.763952 514.083511 27.077134 513.577188 26.570812 
C 513.070866 26.064489 512.384048 25.78 511.668 25.78 
C 510.951952 25.78 510.265134 26.064489 509.758812 26.570812 
C 509.252489 27.077134 508.968 27.763952 508.968 28.48 
C 508.968 29.196048 509.252489 29.882866 509.758812 30.389188 
C 510.265134 30.895511 510.951952 31.18 511.668 31.18 
z
" clip-path="url(#pc147133996)" style="fill: #ffffff; stroke: #000000; stroke-width: 2; stroke-linejoin: miter"/>
   </g>
   <g id="text_9">
    <!-- $R_{L}$ -->
    <g transform="translate(555.388 68.343125) scale(0.14 -0.14)">
     <defs>
      <path id="DejaVuSans-Oblique-4c" d="M 1075 4666 
L 1709 4666 
L 909 525 
L 3181 525 
L 3078 0 
L 172 0 
L 1075 4666 
z
" transform="scale(0.015625)"/>
     </defs>
     <use xlink:href="#DejaVuSans-Oblique-52" transform="translate(0 0.09375)"/>
     <use xlink:href="#DejaVuSans-Oblique-4c" transform="translate(69.482422 -16.3125) scale(0.7)"/>
    </g>
   </g>
   <g id="text_10">
    <!-- + -->
    <g transform="translate(596.268 50.343125) scale(0.14 -0.14)">
     <use xlink:href="#DejaVuSans-2b"/>
    </g>
   </g>
   <g id="text_11">
    <!-- $v_{out}$ -->
    <g transform="translate(596.268 68.343125) scale(0.14 -0.14)">
     <use xlink:href="#DejaVuSans-Oblique-76" transform="translate(0 0.3125)"/>
     <use xlink:href="#DejaVuSans-Oblique-6f" transform="translate(59.179688 -16.09375) scale(0.7)"/>
     <use xlink:href="#DejaVuSans-Oblique-75" transform="translate(102.006836 -16.09375) scale(0.7)"/>
     <use xlink:href="#DejaVuSans-Oblique-74" transform="translate(146.37207 -16.09375) scale(0.7)"/>
    </g>
   </g>
   <g id="text_12">
    <!-- $-$ -->
    <g transform="translate(596.268 86.343125) scale(0.14 -0.14)">
     <use xlink:href="#DejaVuSans-2212" transform="translate(0 0.5)"/>
    </g>
   </g>
   <g id="patch_24">
    <path d="M 511.668 103.18 
C 512.384048 103.18 513.070866 102.895511 513.577188 102.389188 
C 514.083511 101.882866 514.368 101.196048 514.368 100.48 
C 514.368 99.763952 514.083511 99.077134 513.577188 98.570812 
C 513.070866 98.064489 512.384048 97.78 511.668 97.78 
C 510.951952 97.78 510.265134 98.064489 509.758812 98.570812 
C 509.252489 99.077134 508.968 99.763952 508.968 100.48 
C 508.968 101.196048 509.252489 101.882866 509.758812 102.389188 
C 510.265134 102.895511 510.951952 103.18 511.668 103.18 
z
" clip-path="url(#pc147133996)" style="fill: #ffffff; stroke: #000000; stroke-width: 2; stroke-linejoin: miter"/>
   </g>
   <g id="text_13">
    <!-- (a) -->
    <g transform="translate(289.516125 136.743125) scale(0.14 -0.14)">
     <defs>
      <path id="DejaVuSans-28" d="M 1984 4856 
Q 1566 4138 1362 3434 
Q 1159 2731 1159 2009 
Q 1159 1288 1364 580 
Q 1569 -128 1984 -844 
L 1484 -844 
Q 1016 -109 783 600 
Q 550 1309 550 2009 
Q 550 2706 781 3412 
Q 1013 4119 1484 4856 
L 1984 4856 
z
" transform="scale(0.015625)"/>
      <path id="DejaVuSans-61" d="M 2194 1759 
Q 1497 1759 1228 1600 
Q 959 1441 959 1056 
Q 959 750 1161 570 
Q 1363 391 1709 391 
Q 2188 391 2477 730 
Q 2766 1069 2766 1631 
L 2766 1759 
L 2194 1759 
z
M 3341 1997 
L 3341 0 
L 2766 0 
L 2766 531 
Q 2569 213 2275 61 
Q 1981 -91 1556 -91 
Q 1019 -91 701 211 
Q 384 513 384 1019 
Q 384 1609 779 1909 
Q 1175 2209 1959 2209 
L 2766 2209 
L 2766 2266 
Q 2766 2663 2505 2880 
Q 2244 3097 1772 3097 
Q 1472 3097 1187 3025 
Q 903 2953 641 2809 
L 641 3341 
Q 956 3463 1253 3523 
Q 1550 3584 1831 3584 
Q 2591 3584 2966 3190 
Q 3341 2797 3341 1997 
z
" transform="scale(0.015625)"/>
      <path id="DejaVuSans-29" d="M 513 4856 
L 1013 4856 
Q 1481 4119 1714 3412 
Q 1947 2706 1947 2009 
Q 1947 1309 1714 600 
Q 1481 -109 1013 -844 
L 513 -844 
Q 928 -128 1133 580 
Q 1338 1288 1338 2009 
Q 1338 2731 1133 3434 
Q 928 4138 513 4856 
z
" transform="scale(0.015625)"/>
     </defs>
     <use xlink:href="#DejaVuSans-28"/>
     <use xlink:href="#DejaVuSans-61" x="39.013672"/>
     <use xlink:href="#DejaVuSans-29" x="100.292969"/>
    </g>
   </g>
   <g id="text_14">
    <!-- $i_{s}$ -->
    <g transform="translate(12.688 248.343125) scale(0.14 -0.14)">
     <use xlink:href="#DejaVuSans-Oblique-69" transform="translate(0 0.015625)"/>
     <use xlink:href="#DejaVuSans-Oblique-73" transform="translate(27.783203 -16.390625) scale(0.7)"/>
    </g>
   </g>
   <g id="patch_25">
    <path d="M 79.668 283.18 
C 80.384048 283.18 81.070866 282.895511 81.577188 282.389188 
C 82.083511 281.882866 82.368 281.196048 82.368 280.48 
C 82.368 279.763952 82.083511 279.077134 81.577188 278.570812 
C 81.070866 278.064489 80.384048 277.78 79.668 277.78 
C 78.951952 277.78 78.265134 278.064489 77.758812 278.570812 
C 77.252489 279.077134 76.968 279.763952 76.968 280.48 
C 76.968 281.196048 77.252489 281.882866 77.758812 282.389188 
C 78.265134 282.895511 78.951952 283.18 79.668 283.18 
z
" clip-path="url(#pc147133996)" style="stroke: #000000; stroke-width: 2; stroke-linejoin: miter"/>
   </g>
   <g id="patch_26">
    <path d="M 79.668 211.18 
C 80.384048 211.18 81.070866 210.895511 81.577188 210.389188 
C 82.083511 209.882866 82.368 209.196048 82.368 208.48 
C 82.368 207.763952 82.083511 207.077134 81.577188 206.570812 
C 81.070866 206.064489 80.384048 205.78 79.668 205.78 
C 78.951952 205.78 78.265134 206.064489 77.758812 206.570812 
C 77.252489 207.077134 76.968 207.763952 76.968 208.48 
C 76.968 209.196048 77.252489 209.882866 77.758812 210.389188 
C 78.265134 210.895511 78.951952 211.18 79.668 211.18 
z
" clip-path="url(#pc147133996)" style="stroke: #000000; stroke-width: 2; stroke-linejoin: miter"/>
   </g>
   <g id="text_15">
    <!-- $R_{s}$ -->
    <g transform="translate(92.268 246.993125) scale(0.14 -0.14)">
     <use xlink:href="#DejaVuSans-Oblique-52" transform="translate(0 0.09375)"/>
     <use xlink:href="#DejaVuSans-Oblique-73" transform="translate(69.482422 -16.3125) scale(0.7)"/>
    </g>
   </g>
   <g id="patch_27">
    <path d="M 115.668 211.18 
C 116.384048 211.18 117.070866 210.895511 117.577188 210.389188 
C 118.083511 209.882866 118.368 209.196048 118.368 208.48 
C 118.368 207.763952 118.083511 207.077134 117.577188 206.570812 
C 117.070866 206.064489 116.384048 205.78 115.668 205.78 
C 114.951952 205.78 114.265134 206.064489 113.758812 206.570812 
C 113.252489 207.077134 112.968 207.763952 112.968 208.48 
C 112.968 209.196048 113.252489 209.882866 113.758812 210.389188 
C 114.265134 210.895511 114.951952 211.18 115.668 211.18 
z
" clip-path="url(#pc147133996)" style="fill: #ffffff; stroke: #000000; stroke-width: 2; stroke-linejoin: miter"/>
   </g>
   <g id="patch_28">
    <path d="M 115.668 283.18 
C 116.384048 283.18 117.070866 282.895511 117.577188 282.389188 
C 118.083511 281.882866 118.368 281.196048 118.368 280.48 
C 118.368 279.763952 118.083511 279.077134 117.577188 278.570812 
C 117.070866 278.064489 116.384048 277.78 115.668 277.78 
C 114.951952 277.78 114.265134 278.064489 113.758812 278.570812 
C 113.252489 279.077134 112.968 279.763952 112.968 280.48 
C 112.968 281.196048 113.252489 281.882866 113.758812 282.389188 
C 114.265134 282.895511 114.951952 283.18 115.668 283.18 
z
" clip-path="url(#pc147133996)" style="fill: #ffffff; stroke: #000000; stroke-width: 2; stroke-linejoin: miter"/>
   </g>
   <g id="patch_29">
    <path d="M 223.668 283.18 
C 224.384048 283.18 225.070866 282.895511 225.577188 282.389188 
C 226.083511 281.882866 226.368 281.196048 226.368 280.48 
C 226.368 279.763952 226.083511 279.077134 225.577188 278.570812 
C 225.070866 278.064489 224.384048 277.78 223.668 277.78 
C 222.951952 277.78 222.265134 278.064489 221.758812 278.570812 
C 221.252489 279.077134 220.968 279.763952 220.968 280.48 
C 220.968 281.196048 221.252489 281.882866 221.758812 282.389188 
C 222.265134 282.895511 222.951952 283.18 223.668 283.18 
z
" clip-path="url(#pc147133996)" style="stroke: #000000; stroke-width: 2; stroke-linejoin: miter"/>
   </g>
   <g id="text_16">
    <!-- $R_{in}$ -->
    <g transform="translate(236.268 248.343125) scale(0.14 -0.14)">
     <use xlink:href="#DejaVuSans-Oblique-52" transform="translate(0 0.09375)"/>
     <use xlink:href="#DejaVuSans-Oblique-69" transform="translate(69.482422 -16.3125) scale(0.7)"/>
     <use xlink:href="#DejaVuSans-Oblique-6e" transform="translate(88.930664 -16.3125) scale(0.7)"/>
    </g>
   </g>
   <g id="patch_30">
    <path d="M 151.668 211.18 
C 152.384048 211.18 153.070866 210.895511 153.577188 210.389188 
C 154.083511 209.882866 154.368 209.196048 154.368 208.48 
C 154.368 207.763952 154.083511 207.077134 153.577188 206.570812 
C 153.070866 206.064489 152.384048 205.78 151.668 205.78 
C 150.951952 205.78 150.265134 206.064489 149.758812 206.570812 
C 149.252489 207.077134 148.968 207.763952 148.968 208.48 
C 148.968 209.196048 149.252489 209.882866 149.758812 210.389188 
C 150.265134 210.895511 150.951952 211.18 151.668 211.18 
z
" clip-path="url(#pc147133996)" style="fill: #ffffff; stroke: #000000; stroke-width: 2; stroke-linejoin: miter"/>
   </g>
   <g id="text_17">
    <!-- $i_{in}$ -->
    <g transform="translate(179.668 230.817812) scale(0.14 -0.14)">
     <use xlink:href="#DejaVuSans-Oblique-69" transform="translate(0 0.015625)"/>
     <use xlink:href="#DejaVuSans-Oblique-69" transform="translate(27.783203 -16.390625) scale(0.7)"/>
     <use xlink:href="#DejaVuSans-Oblique-6e" transform="translate(47.231445 -16.390625) scale(0.7)"/>
    </g>
   </g>
   <g id="patch_31">
    <path d="M 295.668 283.18 
C 296.384048 283.18 297.070866 282.895511 297.577188 282.389188 
C 298.083511 281.882866 298.368 281.196048 298.368 280.48 
C 298.368 279.763952 298.083511 279.077134 297.577188 278.570812 
C 297.070866 278.064489 296.384048 277.78 295.668 277.78 
C 294.951952 277.78 294.265134 278.064489 293.758812 278.570812 
C 293.252489 279.077134 292.968 279.763952 292.968 280.48 
C 292.968 281.196048 293.252489 281.882866 293.758812 282.389188 
C 294.265134 282.895511 294.951952 283.18 295.668 283.18 
z
" clip-path="url(#pc147133996)" style="stroke: #000000; stroke-width: 2; stroke-linejoin: miter"/>
   </g>
   <g id="text_18">
    <!-- $A_{i}i_{in}$ -->
    <g transform="translate(317.268 248.343125) scale(0.14 -0.14)">
     <use xlink:href="#DejaVuSans-Oblique-41" transform="translate(0 0.015625)"/>
     <use xlink:href="#DejaVuSans-Oblique-69" transform="translate(68.408203 -16.390625) scale(0.7)"/>
     <use xlink:href="#DejaVuSans-Oblique-69" transform="translate(90.59082 0.015625)"/>
     <use xlink:href="#DejaVuSans-Oblique-69" transform="translate(118.374023 -16.390625) scale(0.7)"/>
     <use xlink:href="#DejaVuSans-Oblique-6e" transform="translate(137.822266 -16.390625) scale(0.7)"/>
    </g>
   </g>
   <g id="patch_32">
    <path d="M 403.668 211.18 
C 404.384048 211.18 405.070866 210.895511 405.577188 210.389188 
C 406.083511 209.882866 406.368 209.196048 406.368 208.48 
C 406.368 207.763952 406.083511 207.077134 405.577188 206.570812 
C 405.070866 206.064489 404.384048 205.78 403.668 205.78 
C 402.951952 205.78 402.265134 206.064489 401.758812 206.570812 
C 401.252489 207.077134 400.968 207.763952 400.968 208.48 
C 400.968 209.196048 401.252489 209.882866 401.758812 210.389188 
C 402.265134 210.895511 402.951952 211.18 403.668 211.18 
z
" clip-path="url(#pc147133996)" style="stroke: #000000; stroke-width: 2; stroke-linejoin: miter"/>
   </g>
   <g id="patch_33">
    <path d="M 403.668 283.18 
C 404.384048 283.18 405.070866 282.895511 405.577188 282.389188 
C 406.083511 281.882866 406.368 281.196048 406.368 280.48 
C 406.368 279.763952 406.083511 279.077134 405.577188 278.570812 
C 405.070866 278.064489 404.384048 277.78 403.668 277.78 
C 402.951952 277.78 402.265134 278.064489 401.758812 278.570812 
C 401.252489 279.077134 400.968 279.763952 400.968 280.48 
C 400.968 281.196048 401.252489 281.882866 401.758812 282.389188 
C 402.265134 282.895511 402.951952 283.18 403.668 283.18 
z
" clip-path="url(#pc147133996)" style="stroke: #000000; stroke-width: 2; stroke-linejoin: miter"/>
   </g>
   <g id="text_19">
    <!-- $R_{out}$ -->
    <g transform="translate(416.268 249.693125) scale(0.14 -0.14)">
     <use xlink:href="#DejaVuSans-Oblique-52" transform="translate(0 0.09375)"/>
     <use xlink:href="#DejaVuSans-Oblique-6f" transform="translate(69.482422 -16.3125) scale(0.7)"/>
     <use xlink:href="#DejaVuSans-Oblique-75" transform="translate(112.30957 -16.3125) scale(0.7)"/>
     <use xlink:href="#DejaVuSans-Oblique-74" transform="translate(156.674805 -16.3125) scale(0.7)"/>
    </g>
   </g>
   <g id="patch_34">
    <path d="M 475.668 283.18 
C 476.384048 283.18 477.070866 282.895511 477.577188 282.389188 
C 478.083511 281.882866 478.368 281.196048 478.368 280.48 
C 478.368 279.763952 478.083511 279.077134 477.577188 278.570812 
C 477.070866 278.064489 476.384048 277.78 475.668 277.78 
C 474.951952 277.78 474.265134 278.064489 473.758812 278.570812 
C 473.252489 279.077134 472.968 279.763952 472.968 280.48 
C 472.968 281.196048 473.252489 281.882866 473.758812 282.389188 
C 474.265134 282.895511 474.951952 283.18 475.668 283.18 
z
" clip-path="url(#pc147133996)" style="fill: #ffffff; stroke: #000000; stroke-width: 2; stroke-linejoin: miter"/>
   </g>
   <g id="patch_35">
    <path d="M 475.668 211.18 
C 476.384048 211.18 477.070866 210.895511 477.577188 210.389188 
C 478.083511 209.882866 478.368 209.196048 478.368 208.48 
C 478.368 207.763952 478.083511 207.077134 477.577188 206.570812 
C 477.070866 206.064489 476.384048 205.78 475.668 205.78 
C 474.951952 205.78 474.265134 206.064489 473.758812 206.570812 
C 473.252489 207.077134 472.968 207.763952 472.968 208.48 
C 472.968 209.196048 473.252489 209.882866 473.758812 210.389188 
C 474.265134 210.895511 474.951952 211.18 475.668 211.18 
z
" clip-path="url(#pc147133996)" style="fill: #ffffff; stroke: #000000; stroke-width: 2; stroke-linejoin: miter"/>
   </g>
   <g id="patch_36">
    <path d="M 511.668 211.18 
C 512.384048 211.18 513.070866 210.895511 513.577188 210.389188 
C 514.083511 209.882866 514.368 209.196048 514.368 208.48 
C 514.368 207.763952 514.083511 207.077134 513.577188 206.570812 
C 513.070866 206.064489 512.384048 205.78 511.668 205.78 
C 510.951952 205.78 510.265134 206.064489 509.758812 206.570812 
C 509.252489 207.077134 508.968 207.763952 508.968 208.48 
C 508.968 209.196048 509.252489 209.882866 509.758812 210.389188 
C 510.265134 210.895511 510.951952 211.18 511.668 211.18 
z
" clip-path="url(#pc147133996)" style="fill: #ffffff; stroke: #000000; stroke-width: 2; stroke-linejoin: miter"/>
   </g>
   <g id="text_20">
    <!-- $R_{L}$ -->
    <g transform="translate(596.268 248.343125) scale(0.14 -0.14)">
     <use xlink:href="#DejaVuSans-Oblique-52" transform="translate(0 0.09375)"/>
     <use xlink:href="#DejaVuSans-Oblique-4c" transform="translate(69.482422 -16.3125) scale(0.7)"/>
    </g>
   </g>
   <g id="text_21">
    <!-- $i_{out}$ -->
    <g transform="translate(537.448 229.917812) scale(0.14 -0.14)">
     <use xlink:href="#DejaVuSans-Oblique-69" transform="translate(0 0.015625)"/>
     <use xlink:href="#DejaVuSans-Oblique-6f" transform="translate(27.783203 -16.390625) scale(0.7)"/>
     <use xlink:href="#DejaVuSans-Oblique-75" transform="translate(70.610352 -16.390625) scale(0.7)"/>
     <use xlink:href="#DejaVuSans-Oblique-74" transform="translate(114.975586 -16.390625) scale(0.7)"/>
    </g>
   </g>
   <g id="patch_37">
    <path d="M 511.668 283.18 
C 512.384048 283.18 513.070866 282.895511 513.577188 282.389188 
C 514.083511 281.882866 514.368 281.196048 514.368 280.48 
C 514.368 279.763952 514.083511 279.077134 513.577188 278.570812 
C 513.070866 278.064489 512.384048 277.78 511.668 277.78 
C 510.951952 277.78 510.265134 278.064489 509.758812 278.570812 
C 509.252489 279.077134 508.968 279.763952 508.968 280.48 
C 508.968 281.196048 509.252489 281.882866 509.758812 282.389188 
C 510.265134 282.895511 510.951952 283.18 511.668 283.18 
z
" clip-path="url(#pc147133996)" style="fill: #ffffff; stroke: #000000; stroke-width: 2; stroke-linejoin: miter"/>
   </g>
   <g id="text_22">
    <!-- (b) -->
    <g transform="translate(289.361906 316.743125) scale(0.14 -0.14)">
     <defs>
      <path id="DejaVuSans-62" d="M 3116 1747 
Q 3116 2381 2855 2742 
Q 2594 3103 2138 3103 
Q 1681 3103 1420 2742 
Q 1159 2381 1159 1747 
Q 1159 1113 1420 752 
Q 1681 391 2138 391 
Q 2594 391 2855 752 
Q 3116 1113 3116 1747 
z
M 1159 2969 
Q 1341 3281 1617 3432 
Q 1894 3584 2278 3584 
Q 2916 3584 3314 3078 
Q 3713 2572 3713 1747 
Q 3713 922 3314 415 
Q 2916 -91 2278 -91 
Q 1894 -91 1617 61 
Q 1341 213 1159 525 
L 1159 0 
L 581 0 
L 581 4863 
L 1159 4863 
L 1159 2969 
z
" transform="scale(0.015625)"/>
     </defs>
     <use xlink:href="#DejaVuSans-28"/>
     <use xlink:href="#DejaVuSans-62" x="39.013672"/>
     <use xlink:href="#DejaVuSans-29" x="102.490234"/>
    </g>
   </g>
   <g id="text_23">
    <!-- $v_{s}$ -->
    <g transform="translate(8.208 428.343125) scale(0.14 -0.14)">
     <use xlink:href="#DejaVuSans-Oblique-76" transform="translate(0 0.3125)"/>
     <use xlink:href="#DejaVuSans-Oblique-73" transform="translate(59.179688 -16.09375) scale(0.7)"/>
    </g>
   </g>
   <g id="patch_38">
    <path d="M 115.668 391.18 
C 116.384048 391.18 117.070866 390.895511 117.577188 390.389188 
C 118.083511 389.882866 118.368 389.196048 118.368 388.48 
C 118.368 387.763952 118.083511 387.077134 117.577188 386.570812 
C 117.070866 386.064489 116.384048 385.78 115.668 385.78 
C 114.951952 385.78 114.265134 386.064489 113.758812 386.570812 
C 113.252489 387.077134 112.968 387.763952 112.968 388.48 
C 112.968 389.196048 113.252489 389.882866 113.758812 390.389188 
C 114.265134 390.895511 114.951952 391.18 115.668 391.18 
z
" clip-path="url(#pc147133996)" style="fill: #ffffff; stroke: #000000; stroke-width: 2; stroke-linejoin: miter"/>
   </g>
   <g id="text_24">
    <!-- $R_{s}$ -->
    <g transform="translate(73.388 411.717812) scale(0.14 -0.14)">
     <use xlink:href="#DejaVuSans-Oblique-52" transform="translate(0 0.09375)"/>
     <use xlink:href="#DejaVuSans-Oblique-73" transform="translate(69.482422 -16.3125) scale(0.7)"/>
    </g>
   </g>
   <g id="patch_39">
    <path d="M 115.668 463.18 
C 116.384048 463.18 117.070866 462.895511 117.577188 462.389188 
C 118.083511 461.882866 118.368 461.196048 118.368 460.48 
C 118.368 459.763952 118.083511 459.077134 117.577188 458.570812 
C 117.070866 458.064489 116.384048 457.78 115.668 457.78 
C 114.951952 457.78 114.265134 458.064489 113.758812 458.570812 
C 113.252489 459.077134 112.968 459.763952 112.968 460.48 
C 112.968 461.196048 113.252489 461.882866 113.758812 462.389188 
C 114.265134 462.895511 114.951952 463.18 115.668 463.18 
z
" clip-path="url(#pc147133996)" style="fill: #ffffff; stroke: #000000; stroke-width: 2; stroke-linejoin: miter"/>
   </g>
   <g id="patch_40">
    <path d="M 223.668 463.18 
C 224.384048 463.18 225.070866 462.895511 225.577188 462.389188 
C 226.083511 461.882866 226.368 461.196048 226.368 460.48 
C 226.368 459.763952 226.083511 459.077134 225.577188 458.570812 
C 225.070866 458.064489 224.384048 457.78 223.668 457.78 
C 222.951952 457.78 222.265134 458.064489 221.758812 458.570812 
C 221.252489 459.077134 220.968 459.763952 220.968 460.48 
C 220.968 461.196048 221.252489 461.882866 221.758812 462.389188 
C 222.265134 462.895511 222.951952 463.18 223.668 463.18 
z
" clip-path="url(#pc147133996)" style="stroke: #000000; stroke-width: 2; stroke-linejoin: miter"/>
   </g>
   <g id="text_25">
    <!-- $R_{in}$ -->
    <g transform="translate(236.268 428.343125) scale(0.14 -0.14)">
     <use xlink:href="#DejaVuSans-Oblique-52" transform="translate(0 0.09375)"/>
     <use xlink:href="#DejaVuSans-Oblique-69" transform="translate(69.482422 -16.3125) scale(0.7)"/>
     <use xlink:href="#DejaVuSans-Oblique-6e" transform="translate(88.930664 -16.3125) scale(0.7)"/>
    </g>
   </g>
   <g id="text_26">
    <!-- $-$ -->
    <g transform="translate(199.308 446.343125) scale(0.14 -0.14)">
     <use xlink:href="#DejaVuSans-2212" transform="translate(0 0.5)"/>
    </g>
   </g>
   <g id="text_27">
    <!-- $v_{in}$ -->
    <g transform="translate(193.428 428.343125) scale(0.14 -0.14)">
     <use xlink:href="#DejaVuSans-Oblique-76" transform="translate(0 0.3125)"/>
     <use xlink:href="#DejaVuSans-Oblique-69" transform="translate(59.179688 -16.09375) scale(0.7)"/>
     <use xlink:href="#DejaVuSans-Oblique-6e" transform="translate(78.62793 -16.09375) scale(0.7)"/>
    </g>
   </g>
   <g id="text_28">
    <!-- $+$ -->
    <g transform="translate(199.308 410.343125) scale(0.14 -0.14)">
     <use xlink:href="#DejaVuSans-2b" transform="translate(0 0.296875)"/>
    </g>
   </g>
   <g id="patch_41">
    <path d="M 151.668 391.18 
C 152.384048 391.18 153.070866 390.895511 153.577188 390.389188 
C 154.083511 389.882866 154.368 389.196048 154.368 388.48 
C 154.368 387.763952 154.083511 387.077134 153.577188 386.570812 
C 153.070866 386.064489 152.384048 385.78 151.668 385.78 
C 150.951952 385.78 150.265134 386.064489 149.758812 386.570812 
C 149.252489 387.077134 148.968 387.763952 148.968 388.48 
C 148.968 389.196048 149.252489 389.882866 149.758812 390.389188 
C 150.265134 390.895511 150.951952 391.18 151.668 391.18 
z
" clip-path="url(#pc147133996)" style="fill: #ffffff; stroke: #000000; stroke-width: 2; stroke-linejoin: miter"/>
   </g>
   <g id="patch_42">
    <path d="M 295.668 463.18 
C 296.384048 463.18 297.070866 462.895511 297.577188 462.389188 
C 298.083511 461.882866 298.368 461.196048 298.368 460.48 
C 298.368 459.763952 298.083511 459.077134 297.577188 458.570812 
C 297.070866 458.064489 296.384048 457.78 295.668 457.78 
C 294.951952 457.78 294.265134 458.064489 293.758812 458.570812 
C 293.252489 459.077134 292.968 459.763952 292.968 460.48 
C 292.968 461.196048 293.252489 461.882866 293.758812 462.389188 
C 294.265134 462.895511 294.951952 463.18 295.668 463.18 
z
" clip-path="url(#pc147133996)" style="stroke: #000000; stroke-width: 2; stroke-linejoin: miter"/>
   </g>
   <g id="text_29">
    <!-- $G_{m}v_{in}$ -->
    <g transform="translate(317.268 428.343125) scale(0.14 -0.14)">
     <defs>
      <path id="DejaVuSans-Oblique-47" d="M 3494 697 
L 3738 1919 
L 2700 1919 
L 2797 2438 
L 4453 2438 
L 4050 384 
Q 3634 156 3143 32 
Q 2653 -91 2156 -91 
Q 1278 -91 783 396 
Q 288 884 288 1753 
Q 288 2475 589 3126 
Q 891 3778 1422 4213 
Q 1756 4484 2153 4617 
Q 2550 4750 3034 4750 
Q 3472 4750 3873 4639 
Q 4275 4528 4641 4306 
L 4513 3634 
Q 4231 3928 3853 4083 
Q 3475 4238 3047 4238 
Q 2550 4238 2172 4048 
Q 1794 3859 1497 3463 
Q 1244 3125 1098 2667 
Q 953 2209 953 1734 
Q 953 1081 1287 751 
Q 1622 422 2284 422 
Q 2616 422 2925 492 
Q 3234 563 3494 697 
z
" transform="scale(0.015625)"/>
      <path id="DejaVuSans-Oblique-6d" d="M 5747 2113 
L 5338 0 
L 4763 0 
L 5166 2094 
Q 5191 2228 5203 2325 
Q 5216 2422 5216 2491 
Q 5216 2772 5059 2928 
Q 4903 3084 4622 3084 
Q 4203 3084 3875 2770 
Q 3547 2456 3450 1953 
L 3066 0 
L 2491 0 
L 2900 2094 
Q 2925 2209 2937 2307 
Q 2950 2406 2950 2484 
Q 2950 2769 2794 2926 
Q 2638 3084 2363 3084 
Q 1938 3084 1609 2770 
Q 1281 2456 1184 1953 
L 800 0 
L 225 0 
L 909 3500 
L 1484 3500 
L 1375 2956 
Q 1609 3263 1923 3423 
Q 2238 3584 2597 3584 
Q 2978 3584 3223 3384 
Q 3469 3184 3519 2828 
Q 3781 3197 4126 3390 
Q 4472 3584 4856 3584 
Q 5306 3584 5551 3325 
Q 5797 3066 5797 2591 
Q 5797 2488 5784 2364 
Q 5772 2241 5747 2113 
z
" transform="scale(0.015625)"/>
     </defs>
     <use xlink:href="#DejaVuSans-Oblique-47" transform="translate(0 0.78125)"/>
     <use xlink:href="#DejaVuSans-Oblique-6d" transform="translate(77.490234 -15.625) scale(0.7)"/>
     <use xlink:href="#DejaVuSans-Oblique-76" transform="translate(148.413086 0.78125)"/>
     <use xlink:href="#DejaVuSans-Oblique-69" transform="translate(207.592773 -15.625) scale(0.7)"/>
     <use xlink:href="#DejaVuSans-Oblique-6e" transform="translate(227.041016 -15.625) scale(0.7)"/>
    </g>
   </g>
   <g id="patch_43">
    <path d="M 403.668 391.18 
C 404.384048 391.18 405.070866 390.895511 405.577188 390.389188 
C 406.083511 389.882866 406.368 389.196048 406.368 388.48 
C 406.368 387.763952 406.083511 387.077134 405.577188 386.570812 
C 405.070866 386.064489 404.384048 385.78 403.668 385.78 
C 402.951952 385.78 402.265134 386.064489 401.758812 386.570812 
C 401.252489 387.077134 400.968 387.763952 400.968 388.48 
C 400.968 389.196048 401.252489 389.882866 401.758812 390.389188 
C 402.265134 390.895511 402.951952 391.18 403.668 391.18 
z
" clip-path="url(#pc147133996)" style="stroke: #000000; stroke-width: 2; stroke-linejoin: miter"/>
   </g>
   <g id="patch_44">
    <path d="M 403.668 463.18 
C 404.384048 463.18 405.070866 462.895511 405.577188 462.389188 
C 406.083511 461.882866 406.368 461.196048 406.368 460.48 
C 406.368 459.763952 406.083511 459.077134 405.577188 458.570812 
C 405.070866 458.064489 404.384048 457.78 403.668 457.78 
C 402.951952 457.78 402.265134 458.064489 401.758812 458.570812 
C 401.252489 459.077134 400.968 459.763952 400.968 460.48 
C 400.968 461.196048 401.252489 461.882866 401.758812 462.389188 
C 402.265134 462.895511 402.951952 463.18 403.668 463.18 
z
" clip-path="url(#pc147133996)" style="stroke: #000000; stroke-width: 2; stroke-linejoin: miter"/>
   </g>
   <g id="text_30">
    <!-- $R_{out}$ -->
    <g transform="translate(416.268 429.693125) scale(0.14 -0.14)">
     <use xlink:href="#DejaVuSans-Oblique-52" transform="translate(0 0.09375)"/>
     <use xlink:href="#DejaVuSans-Oblique-6f" transform="translate(69.482422 -16.3125) scale(0.7)"/>
     <use xlink:href="#DejaVuSans-Oblique-75" transform="translate(112.30957 -16.3125) scale(0.7)"/>
     <use xlink:href="#DejaVuSans-Oblique-74" transform="translate(156.674805 -16.3125) scale(0.7)"/>
    </g>
   </g>
   <g id="patch_45">
    <path d="M 475.668 463.18 
C 476.384048 463.18 477.070866 462.895511 477.577188 462.389188 
C 478.083511 461.882866 478.368 461.196048 478.368 460.48 
C 478.368 459.763952 478.083511 459.077134 477.577188 458.570812 
C 477.070866 458.064489 476.384048 457.78 475.668 457.78 
C 474.951952 457.78 474.265134 458.064489 473.758812 458.570812 
C 473.252489 459.077134 472.968 459.763952 472.968 460.48 
C 472.968 461.196048 473.252489 461.882866 473.758812 462.389188 
C 474.265134 462.895511 474.951952 463.18 475.668 463.18 
z
" clip-path="url(#pc147133996)" style="fill: #ffffff; stroke: #000000; stroke-width: 2; stroke-linejoin: miter"/>
   </g>
   <g id="patch_46">
    <path d="M 475.668 391.18 
C 476.384048 391.18 477.070866 390.895511 477.577188 390.389188 
C 478.083511 389.882866 478.368 389.196048 478.368 388.48 
C 478.368 387.763952 478.083511 387.077134 477.577188 386.570812 
C 477.070866 386.064489 476.384048 385.78 475.668 385.78 
C 474.951952 385.78 474.265134 386.064489 473.758812 386.570812 
C 473.252489 387.077134 472.968 387.763952 472.968 388.48 
C 472.968 389.196048 473.252489 389.882866 473.758812 390.389188 
C 474.265134 390.895511 474.951952 391.18 475.668 391.18 
z
" clip-path="url(#pc147133996)" style="fill: #ffffff; stroke: #000000; stroke-width: 2; stroke-linejoin: miter"/>
   </g>
   <g id="patch_47">
    <path d="M 511.668 391.18 
C 512.384048 391.18 513.070866 390.895511 513.577188 390.389188 
C 514.083511 389.882866 514.368 389.196048 514.368 388.48 
C 514.368 387.763952 514.083511 387.077134 513.577188 386.570812 
C 513.070866 386.064489 512.384048 385.78 511.668 385.78 
C 510.951952 385.78 510.265134 386.064489 509.758812 386.570812 
C 509.252489 387.077134 508.968 387.763952 508.968 388.48 
C 508.968 389.196048 509.252489 389.882866 509.758812 390.389188 
C 510.265134 390.895511 510.951952 391.18 511.668 391.18 
z
" clip-path="url(#pc147133996)" style="fill: #ffffff; stroke: #000000; stroke-width: 2; stroke-linejoin: miter"/>
   </g>
   <g id="text_31">
    <!-- $R_{L}$ -->
    <g transform="translate(596.268 428.343125) scale(0.14 -0.14)">
     <use xlink:href="#DejaVuSans-Oblique-52" transform="translate(0 0.09375)"/>
     <use xlink:href="#DejaVuSans-Oblique-4c" transform="translate(69.482422 -16.3125) scale(0.7)"/>
    </g>
   </g>
   <g id="text_32">
    <!-- $i_{out}$ -->
    <g transform="translate(537.448 409.917812) scale(0.14 -0.14)">
     <use xlink:href="#DejaVuSans-Oblique-69" transform="translate(0 0.015625)"/>
     <use xlink:href="#DejaVuSans-Oblique-6f" transform="translate(27.783203 -16.390625) scale(0.7)"/>
     <use xlink:href="#DejaVuSans-Oblique-75" transform="translate(70.610352 -16.390625) scale(0.7)"/>
     <use xlink:href="#DejaVuSans-Oblique-74" transform="translate(114.975586 -16.390625) scale(0.7)"/>
    </g>
   </g>
   <g id="patch_48">
    <path d="M 511.668 463.18 
C 512.384048 463.18 513.070866 462.895511 513.577188 462.389188 
C 514.083511 461.882866 514.368 461.196048 514.368 460.48 
C 514.368 459.763952 514.083511 459.077134 513.577188 458.570812 
C 513.070866 458.064489 512.384048 457.78 511.668 457.78 
C 510.951952 457.78 510.265134 458.064489 509.758812 458.570812 
C 509.252489 459.077134 508.968 459.763952 508.968 460.48 
C 508.968 461.196048 509.252489 461.882866 509.758812 462.389188 
C 510.265134 462.895511 510.951952 463.18 511.668 463.18 
z
" clip-path="url(#pc147133996)" style="fill: #ffffff; stroke: #000000; stroke-width: 2; stroke-linejoin: miter"/>
   </g>
   <g id="text_33">
    <!-- (c) -->
    <g transform="translate(289.956906 496.743125) scale(0.14 -0.14)">
     <defs>
      <path id="DejaVuSans-63" d="M 3122 3366 
L 3122 2828 
Q 2878 2963 2633 3030 
Q 2388 3097 2138 3097 
Q 1578 3097 1268 2742 
Q 959 2388 959 1747 
Q 959 1106 1268 751 
Q 1578 397 2138 397 
Q 2388 397 2633 464 
Q 2878 531 3122 666 
L 3122 134 
Q 2881 22 2623 -34 
Q 2366 -91 2075 -91 
Q 1284 -91 818 406 
Q 353 903 353 1747 
Q 353 2603 823 3093 
Q 1294 3584 2113 3584 
Q 2378 3584 2631 3529 
Q 2884 3475 3122 3366 
z
" transform="scale(0.015625)"/>
     </defs>
     <use xlink:href="#DejaVuSans-28"/>
     <use xlink:href="#DejaVuSans-63" x="39.013672"/>
     <use xlink:href="#DejaVuSans-29" x="93.994141"/>
    </g>
   </g>
   <g id="text_34">
    <!-- $i_{s}$ -->
    <g transform="translate(12.688 608.343125) scale(0.14 -0.14)">
     <use xlink:href="#DejaVuSans-Oblique-69" transform="translate(0 0.015625)"/>
     <use xlink:href="#DejaVuSans-Oblique-73" transform="translate(27.783203 -16.390625) scale(0.7)"/>
    </g>
   </g>
   <g id="patch_49">
    <path d="M 79.668 643.18 
C 80.384048 643.18 81.070866 642.895511 81.577188 642.389188 
C 82.083511 641.882866 82.368 641.196048 82.368 640.48 
C 82.368 639.763952 82.083511 639.077134 81.577188 638.570812 
C 81.070866 638.064489 80.384048 637.78 79.668 637.78 
C 78.951952 637.78 78.265134 638.064489 77.758812 638.570812 
C 77.252489 639.077134 76.968 639.763952 76.968 640.48 
C 76.968 641.196048 77.252489 641.882866 77.758812 642.389188 
C 78.265134 642.895511 78.951952 643.18 79.668 643.18 
z
" clip-path="url(#pc147133996)" style="stroke: #000000; stroke-width: 2; stroke-linejoin: miter"/>
   </g>
   <g id="patch_50">
    <path d="M 79.668 571.18 
C 80.384048 571.18 81.070866 570.895511 81.577188 570.389188 
C 82.083511 569.882866 82.368 569.196048 82.368 568.48 
C 82.368 567.763952 82.083511 567.077134 81.577188 566.570812 
C 81.070866 566.064489 80.384048 565.78 79.668 565.78 
C 78.951952 565.78 78.265134 566.064489 77.758812 566.570812 
C 77.252489 567.077134 76.968 567.763952 76.968 568.48 
C 76.968 569.196048 77.252489 569.882866 77.758812 570.389188 
C 78.265134 570.895511 78.951952 571.18 79.668 571.18 
z
" clip-path="url(#pc147133996)" style="stroke: #000000; stroke-width: 2; stroke-linejoin: miter"/>
   </g>
   <g id="text_35">
    <!-- $R_{s}$ -->
    <g transform="translate(92.268 606.993125) scale(0.14 -0.14)">
     <use xlink:href="#DejaVuSans-Oblique-52" transform="translate(0 0.09375)"/>
     <use xlink:href="#DejaVuSans-Oblique-73" transform="translate(69.482422 -16.3125) scale(0.7)"/>
    </g>
   </g>
   <g id="patch_51">
    <path d="M 115.668 571.18 
C 116.384048 571.18 117.070866 570.895511 117.577188 570.389188 
C 118.083511 569.882866 118.368 569.196048 118.368 568.48 
C 118.368 567.763952 118.083511 567.077134 117.577188 566.570812 
C 117.070866 566.064489 116.384048 565.78 115.668 565.78 
C 114.951952 565.78 114.265134 566.064489 113.758812 566.570812 
C 113.252489 567.077134 112.968 567.763952 112.968 568.48 
C 112.968 569.196048 113.252489 569.882866 113.758812 570.389188 
C 114.265134 570.895511 114.951952 571.18 115.668 571.18 
z
" clip-path="url(#pc147133996)" style="fill: #ffffff; stroke: #000000; stroke-width: 2; stroke-linejoin: miter"/>
   </g>
   <g id="patch_52">
    <path d="M 115.668 643.18 
C 116.384048 643.18 117.070866 642.895511 117.577188 642.389188 
C 118.083511 641.882866 118.368 641.196048 118.368 640.48 
C 118.368 639.763952 118.083511 639.077134 117.577188 638.570812 
C 117.070866 638.064489 116.384048 637.78 115.668 637.78 
C 114.951952 637.78 114.265134 638.064489 113.758812 638.570812 
C 113.252489 639.077134 112.968 639.763952 112.968 640.48 
C 112.968 641.196048 113.252489 641.882866 113.758812 642.389188 
C 114.265134 642.895511 114.951952 643.18 115.668 643.18 
z
" clip-path="url(#pc147133996)" style="fill: #ffffff; stroke: #000000; stroke-width: 2; stroke-linejoin: miter"/>
   </g>
   <g id="patch_53">
    <path d="M 223.668 643.18 
C 224.384048 643.18 225.070866 642.895511 225.577188 642.389188 
C 226.083511 641.882866 226.368 641.196048 226.368 640.48 
C 226.368 639.763952 226.083511 639.077134 225.577188 638.570812 
C 225.070866 638.064489 224.384048 637.78 223.668 637.78 
C 222.951952 637.78 222.265134 638.064489 221.758812 638.570812 
C 221.252489 639.077134 220.968 639.763952 220.968 640.48 
C 220.968 641.196048 221.252489 641.882866 221.758812 642.389188 
C 222.265134 642.895511 222.951952 643.18 223.668 643.18 
z
" clip-path="url(#pc147133996)" style="stroke: #000000; stroke-width: 2; stroke-linejoin: miter"/>
   </g>
   <g id="text_36">
    <!-- $R_{in}$ -->
    <g transform="translate(236.268 608.343125) scale(0.14 -0.14)">
     <use xlink:href="#DejaVuSans-Oblique-52" transform="translate(0 0.09375)"/>
     <use xlink:href="#DejaVuSans-Oblique-69" transform="translate(69.482422 -16.3125) scale(0.7)"/>
     <use xlink:href="#DejaVuSans-Oblique-6e" transform="translate(88.930664 -16.3125) scale(0.7)"/>
    </g>
   </g>
   <g id="patch_54">
    <path d="M 151.668 571.18 
C 152.384048 571.18 153.070866 570.895511 153.577188 570.389188 
C 154.083511 569.882866 154.368 569.196048 154.368 568.48 
C 154.368 567.763952 154.083511 567.077134 153.577188 566.570812 
C 153.070866 566.064489 152.384048 565.78 151.668 565.78 
C 150.951952 565.78 150.265134 566.064489 149.758812 566.570812 
C 149.252489 567.077134 148.968 567.763952 148.968 568.48 
C 148.968 569.196048 149.252489 569.882866 149.758812 570.389188 
C 150.265134 570.895511 150.951952 571.18 151.668 571.18 
z
" clip-path="url(#pc147133996)" style="fill: #ffffff; stroke: #000000; stroke-width: 2; stroke-linejoin: miter"/>
   </g>
   <g id="text_37">
    <!-- $i_{in}$ -->
    <g transform="translate(179.668 590.817812) scale(0.14 -0.14)">
     <use xlink:href="#DejaVuSans-Oblique-69" transform="translate(0 0.015625)"/>
     <use xlink:href="#DejaVuSans-Oblique-69" transform="translate(27.783203 -16.390625) scale(0.7)"/>
     <use xlink:href="#DejaVuSans-Oblique-6e" transform="translate(47.231445 -16.390625) scale(0.7)"/>
    </g>
   </g>
   <g id="patch_55">
    <path d="M 295.668 643.18 
C 296.384048 643.18 297.070866 642.895511 297.577188 642.389188 
C 298.083511 641.882866 298.368 641.196048 298.368 640.48 
C 298.368 639.763952 298.083511 639.077134 297.577188 638.570812 
C 297.070866 638.064489 296.384048 637.78 295.668 637.78 
C 294.951952 637.78 294.265134 638.064489 293.758812 638.570812 
C 293.252489 639.077134 292.968 639.763952 292.968 640.48 
C 292.968 641.196048 293.252489 641.882866 293.758812 642.389188 
C 294.265134 642.895511 294.951952 643.18 295.668 643.18 
z
" clip-path="url(#pc147133996)" style="stroke: #000000; stroke-width: 2; stroke-linejoin: miter"/>
   </g>
   <g id="text_38">
    <!-- $R_{m}i_{in}$ -->
    <g transform="translate(317.268 608.343125) scale(0.14 -0.14)">
     <use xlink:href="#DejaVuSans-Oblique-52" transform="translate(0 0.015625)"/>
     <use xlink:href="#DejaVuSans-Oblique-6d" transform="translate(69.482422 -16.390625) scale(0.7)"/>
     <use xlink:href="#DejaVuSans-Oblique-69" transform="translate(140.405273 0.015625)"/>
     <use xlink:href="#DejaVuSans-Oblique-69" transform="translate(168.188477 -16.390625) scale(0.7)"/>
     <use xlink:href="#DejaVuSans-Oblique-6e" transform="translate(187.636719 -16.390625) scale(0.7)"/>
    </g>
   </g>
   <g id="text_39">
    <!-- $R_{out}$ -->
    <g transform="translate(354.578 552.968437) scale(0.14 -0.14)">
     <use xlink:href="#DejaVuSans-Oblique-52" transform="translate(0 0.09375)"/>
     <use xlink:href="#DejaVuSans-Oblique-6f" transform="translate(69.482422 -16.3125) scale(0.7)"/>
     <use xlink:href="#DejaVuSans-Oblique-75" transform="translate(112.30957 -16.3125) scale(0.7)"/>
     <use xlink:href="#DejaVuSans-Oblique-74" transform="translate(156.674805 -16.3125) scale(0.7)"/>
    </g>
   </g>
   <g id="patch_56">
    <path d="M 475.668 571.18 
C 476.384048 571.18 477.070866 570.895511 477.577188 570.389188 
C 478.083511 569.882866 478.368 569.196048 478.368 568.48 
C 478.368 567.763952 478.083511 567.077134 477.577188 566.570812 
C 477.070866 566.064489 476.384048 565.78 475.668 565.78 
C 474.951952 565.78 474.265134 566.064489 473.758812 566.570812 
C 473.252489 567.077134 472.968 567.763952 472.968 568.48 
C 472.968 569.196048 473.252489 569.882866 473.758812 570.389188 
C 474.265134 570.895511 474.951952 571.18 475.668 571.18 
z
" clip-path="url(#pc147133996)" style="fill: #ffffff; stroke: #000000; stroke-width: 2; stroke-linejoin: miter"/>
   </g>
   <g id="patch_57">
    <path d="M 475.668 643.18 
C 476.384048 643.18 477.070866 642.895511 477.577188 642.389188 
C 478.083511 641.882866 478.368 641.196048 478.368 640.48 
C 478.368 639.763952 478.083511 639.077134 477.577188 638.570812 
C 477.070866 638.064489 476.384048 637.78 475.668 637.78 
C 474.951952 637.78 474.265134 638.064489 473.758812 638.570812 
C 473.252489 639.077134 472.968 639.763952 472.968 640.48 
C 472.968 641.196048 473.252489 641.882866 473.758812 642.389188 
C 474.265134 642.895511 474.951952 643.18 475.668 643.18 
z
" clip-path="url(#pc147133996)" style="fill: #ffffff; stroke: #000000; stroke-width: 2; stroke-linejoin: miter"/>
   </g>
   <g id="patch_58">
    <path d="M 475.668 571.18 
C 476.384048 571.18 477.070866 570.895511 477.577188 570.389188 
C 478.083511 569.882866 478.368 569.196048 478.368 568.48 
C 478.368 567.763952 478.083511 567.077134 477.577188 566.570812 
C 477.070866 566.064489 476.384048 565.78 475.668 565.78 
C 474.951952 565.78 474.265134 566.064489 473.758812 566.570812 
C 473.252489 567.077134 472.968 567.763952 472.968 568.48 
C 472.968 569.196048 473.252489 569.882866 473.758812 570.389188 
C 474.265134 570.895511 474.951952 571.18 475.668 571.18 
z
" clip-path="url(#pc147133996)" style="fill: #ffffff; stroke: #000000; stroke-width: 2; stroke-linejoin: miter"/>
   </g>
   <g id="patch_59">
    <path d="M 511.668 571.18 
C 512.384048 571.18 513.070866 570.895511 513.577188 570.389188 
C 514.083511 569.882866 514.368 569.196048 514.368 568.48 
C 514.368 567.763952 514.083511 567.077134 513.577188 566.570812 
C 513.070866 566.064489 512.384048 565.78 511.668 565.78 
C 510.951952 565.78 510.265134 566.064489 509.758812 566.570812 
C 509.252489 567.077134 508.968 567.763952 508.968 568.48 
C 508.968 569.196048 509.252489 569.882866 509.758812 570.389188 
C 510.265134 570.895511 510.951952 571.18 511.668 571.18 
z
" clip-path="url(#pc147133996)" style="fill: #ffffff; stroke: #000000; stroke-width: 2; stroke-linejoin: miter"/>
   </g>
   <g id="text_40">
    <!-- $R_{L}$ -->
    <g transform="translate(555.388 608.343125) scale(0.14 -0.14)">
     <use xlink:href="#DejaVuSans-Oblique-52" transform="translate(0 0.09375)"/>
     <use xlink:href="#DejaVuSans-Oblique-4c" transform="translate(69.482422 -16.3125) scale(0.7)"/>
    </g>
   </g>
   <g id="text_41">
    <!-- + -->
    <g transform="translate(596.268 590.343125) scale(0.14 -0.14)">
     <use xlink:href="#DejaVuSans-2b"/>
    </g>
   </g>
   <g id="text_42">
    <!-- $v_{out}$ -->
    <g transform="translate(596.268 608.343125) scale(0.14 -0.14)">
     <use xlink:href="#DejaVuSans-Oblique-76" transform="translate(0 0.3125)"/>
     <use xlink:href="#DejaVuSans-Oblique-6f" transform="translate(59.179688 -16.09375) scale(0.7)"/>
     <use xlink:href="#DejaVuSans-Oblique-75" transform="translate(102.006836 -16.09375) scale(0.7)"/>
     <use xlink:href="#DejaVuSans-Oblique-74" transform="translate(146.37207 -16.09375) scale(0.7)"/>
    </g>
   </g>
   <g id="text_43">
    <!-- $-$ -->
    <g transform="translate(596.268 626.343125) scale(0.14 -0.14)">
     <use xlink:href="#DejaVuSans-2212" transform="translate(0 0.5)"/>
    </g>
   </g>
   <g id="patch_60">
    <path d="M 511.668 643.18 
C 512.384048 643.18 513.070866 642.895511 513.577188 642.389188 
C 514.083511 641.882866 514.368 641.196048 514.368 640.48 
C 514.368 639.763952 514.083511 639.077134 513.577188 638.570812 
C 513.070866 638.064489 512.384048 637.78 511.668 637.78 
C 510.951952 637.78 510.265134 638.064489 509.758812 638.570812 
C 509.252489 639.077134 508.968 639.763952 508.968 640.48 
C 508.968 641.196048 509.252489 641.882866 509.758812 642.389188 
C 510.265134 642.895511 510.951952 643.18 511.668 643.18 
z
" clip-path="url(#pc147133996)" style="fill: #ffffff; stroke: #000000; stroke-width: 2; stroke-linejoin: miter"/>
   </g>
   <g id="text_44">
    <!-- (d) -->
    <g transform="translate(289.361906 676.743125) scale(0.14 -0.14)">
     <defs>
      <path id="DejaVuSans-64" d="M 2906 2969 
L 2906 4863 
L 3481 4863 
L 3481 0 
L 2906 0 
L 2906 525 
Q 2725 213 2448 61 
Q 2172 -91 1784 -91 
Q 1150 -91 751 415 
Q 353 922 353 1747 
Q 353 2572 751 3078 
Q 1150 3584 1784 3584 
Q 2172 3584 2448 3432 
Q 2725 3281 2906 2969 
z
M 947 1747 
Q 947 1113 1208 752 
Q 1469 391 1925 391 
Q 2381 391 2643 752 
Q 2906 1113 2906 1747 
Q 2906 2381 2643 2742 
Q 2381 3103 1925 3103 
Q 1469 3103 1208 2742 
Q 947 2381 947 1747 
z
" transform="scale(0.015625)"/>
     </defs>
     <use xlink:href="#DejaVuSans-28"/>
     <use xlink:href="#DejaVuSans-64" x="39.013672"/>
     <use xlink:href="#DejaVuSans-29" x="102.490234"/>
    </g>
   </g>
   <g id="patch_61">
    <path d="M 151.668 103.18 
C 152.384048 103.18 153.070866 102.895511 153.577188 102.389188 
C 154.083511 101.882866 154.368 101.196048 154.368 100.48 
C 154.368 99.763952 154.083511 99.077134 153.577188 98.570812 
C 153.070866 98.064489 152.384048 97.78 151.668 97.78 
C 150.951952 97.78 150.265134 98.064489 149.758812 98.570812 
C 149.252489 99.077134 148.968 99.763952 148.968 100.48 
C 148.968 101.196048 149.252489 101.882866 149.758812 102.389188 
C 150.265134 102.895511 150.951952 103.18 151.668 103.18 
z
" clip-path="url(#pc147133996)" style="fill: #ffffff; stroke: #000000; stroke-width: 2; stroke-linejoin: miter"/>
   </g>
   <g id="patch_62">
    <path d="M 151.668 283.18 
C 152.384048 283.18 153.070866 282.895511 153.577188 282.389188 
C 154.083511 281.882866 154.368 281.196048 154.368 280.48 
C 154.368 279.763952 154.083511 279.077134 153.577188 278.570812 
C 153.070866 278.064489 152.384048 277.78 151.668 277.78 
C 150.951952 277.78 150.265134 278.064489 149.758812 278.570812 
C 149.252489 279.077134 148.968 279.763952 148.968 280.48 
C 148.968 281.196048 149.252489 281.882866 149.758812 282.389188 
C 150.265134 282.895511 150.951952 283.18 151.668 283.18 
z
" clip-path="url(#pc147133996)" style="fill: #ffffff; stroke: #000000; stroke-width: 2; stroke-linejoin: miter"/>
   </g>
   <g id="patch_63">
    <path d="M 151.668 463.18 
C 152.384048 463.18 153.070866 462.895511 153.577188 462.389188 
C 154.083511 461.882866 154.368 461.196048 154.368 460.48 
C 154.368 459.763952 154.083511 459.077134 153.577188 458.570812 
C 153.070866 458.064489 152.384048 457.78 151.668 457.78 
C 150.951952 457.78 150.265134 458.064489 149.758812 458.570812 
C 149.252489 459.077134 148.968 459.763952 148.968 460.48 
C 148.968 461.196048 149.252489 461.882866 149.758812 462.389188 
C 150.265134 462.895511 150.951952 463.18 151.668 463.18 
z
" clip-path="url(#pc147133996)" style="fill: #ffffff; stroke: #000000; stroke-width: 2; stroke-linejoin: miter"/>
   </g>
   <g id="patch_64">
    <path d="M 151.668 643.18 
C 152.384048 643.18 153.070866 642.895511 153.577188 642.389188 
C 154.083511 641.882866 154.368 641.196048 154.368 640.48 
C 154.368 639.763952 154.083511 639.077134 153.577188 638.570812 
C 153.070866 638.064489 152.384048 637.78 151.668 637.78 
C 150.951952 637.78 150.265134 638.064489 149.758812 638.570812 
C 149.252489 639.077134 148.968 639.763952 148.968 640.48 
C 148.968 641.196048 149.252489 641.882866 149.758812 642.389188 
C 150.265134 642.895511 150.951952 643.18 151.668 643.18 
z
" clip-path="url(#pc147133996)" style="fill: #ffffff; stroke: #000000; stroke-width: 2; stroke-linejoin: miter"/>
   </g>
  </g>
 </g>
 <defs>
  <clipPath id="pc147133996">
   <rect x="0" y="0" width="631.356" height="683.16"/>
  </clipPath>
 </defs>
</svg>
